<svg width="248" height="64" viewBox="0 0 248 64" fill="none" xmlns="http://www.w3.org/2000/svg">
<g clip-path="url(#clip0)">
<g opacity="0.5" clip-path="url(#clip1)">
<path d="M81.2128 9.9498C80.8038 10.6582 80.696 11.4797 80.9072 12.2679C81.1184 13.0561 81.6231 13.7159 82.3309 14.1226C83.0599 14.5435 83.8926 14.6284 84.6484 14.4259C85.4041 14.2234 86.0852 13.7329 86.5037 13.0045C86.9127 12.2961 87.0206 11.4746 86.8094 10.6864C86.5982 9.89822 86.0934 9.23838 85.3856 8.83171C83.9271 7.98765 82.0539 8.48955 81.2128 9.9498ZM85.1186 12.2029C84.7164 12.8995 83.8239 13.1387 83.1273 12.7365C82.7922 12.543 82.5488 12.2281 82.4482 11.8525C82.3499 11.4763 82.4015 11.0848 82.5943 10.7474C82.7946 10.4006 83.1196 10.1669 83.4789 10.0706C83.8382 9.97434 84.2371 10.0165 84.5857 10.2138C84.9208 10.4073 85.1642 10.7222 85.2648 11.0978C85.3654 11.4733 85.3115 11.8655 85.1186 12.2029Z" fill="#FEEBA3"/>
<path d="M77.1535 18.0284C77.3901 17.6186 77.2497 17.0946 76.8399 16.858C76.4301 16.6214 75.9061 16.7618 75.6695 17.1716C75.4329 17.5814 75.5733 18.1054 75.9831 18.342C76.3929 18.5786 76.9169 18.4382 77.1535 18.0284Z" fill="#FEEBA3"/>
<path d="M72.5313 19.2663C72.7679 18.8565 72.6275 18.3325 72.2177 18.0959C71.8079 17.8593 71.2839 17.9997 71.0473 18.4095C70.8107 18.8193 70.9511 19.3433 71.3609 19.5799C71.7707 19.8165 72.2947 19.6761 72.5313 19.2663Z" fill="#FEEBA3"/>
<path d="M77.264 24.6059C77.5006 24.1961 77.3602 23.6721 76.9504 23.4355C76.5406 23.1989 76.0166 23.3393 75.78 23.7491C75.5434 24.1589 75.6838 24.6829 76.0936 24.9195C76.5034 25.1561 77.0274 25.0157 77.264 24.6059Z" fill="#FEEBA3"/>
<path d="M84.2566 26.0375C84.4932 25.6277 84.3528 25.1037 83.943 24.8671C83.5332 24.6305 83.0092 24.7709 82.7726 25.1807C82.536 25.5905 82.6764 26.1145 83.0862 26.3511C83.496 26.5877 84.02 26.4473 84.2566 26.0375Z" fill="#FEEBA3"/>
<path d="M79.5229 20.6952C79.7595 20.2854 79.6191 19.7614 79.2093 19.5248C78.7995 19.2882 78.2755 19.4286 78.0389 19.8384C77.8023 20.2482 77.9427 20.7722 78.3525 21.0088C78.7623 21.2454 79.2863 21.105 79.5229 20.6952Z" fill="#FEEBA3"/>
<path d="M83.0179 21.4129C83.2545 21.0031 83.1141 20.4791 82.7043 20.2425C82.2945 20.0059 81.7705 20.1463 81.5339 20.5561C81.2973 20.9659 81.4377 21.4899 81.8475 21.7265C82.2573 21.9631 82.7813 21.8227 83.0179 21.4129Z" fill="#FEEBA3"/>
<path d="M106.743 -14.1966L102.434 -16.6845C102.278 -16.7745 102.092 -16.7993 101.918 -16.7527C101.745 -16.7061 101.596 -16.5919 101.506 -16.4361L97.8984 -10.1869L95.6233 -11.5004L99.2289 -17.749C99.4173 -18.0752 99.3061 -18.4902 98.9798 -18.6786L94.6684 -21.1658C94.4244 -21.3067 94.1204 -21.2824 93.8992 -21.1063L71.871 -3.28993C71.8486 -3.27151 71.8285 -3.2537 71.8074 -3.23064C70.9524 -2.52697 70.1517 -1.74097 69.4266 -0.895689L69.2491 -0.686616C69.132 -0.54842 69.0727 -0.371025 69.0886 -0.191401C69.1021 -0.0111564 69.1893 0.156786 69.3275 0.273806L69.5431 0.457056L67.157 4.58984L66.8905 4.49477C66.7201 4.4336 66.5317 4.44433 66.3682 4.52044C66.2053 4.59886 66.0784 4.73722 66.0196 4.90704L65.9273 5.16533C62.8843 13.7825 66.4289 23.3578 74.3558 27.9324C75.464 28.5722 76.6395 29.102 77.8456 29.5044C79.027 29.8984 80.2525 30.1788 81.4864 30.3327C82.7051 30.4857 83.9446 30.5213 85.1715 30.436C86.3915 30.3526 87.6112 30.1476 88.7912 29.8314C90.6087 29.3444 92.3355 28.5935 93.9256 27.6009C95.5607 26.5814 97.0257 25.3167 98.284 23.8465L98.4616 23.6374C98.5786 23.4993 98.6379 23.3219 98.6221 23.1422C98.6086 22.962 98.5213 22.794 98.3831 22.677L98.1451 22.4749L100.528 18.348L100.822 18.4531C100.992 18.5143 101.181 18.5036 101.344 18.4275C101.507 18.349 101.634 18.2107 101.693 18.0409L101.785 17.7826C102.102 16.8877 102.351 15.9712 102.526 15.0572L105.36 15.7687C105.656 15.8435 105.963 15.7114 106.114 15.4498L108.485 11.3434C108.504 11.3111 108.52 11.2771 108.532 11.2413L111.03 4.57659C111.148 4.26431 111.022 3.91538 110.734 3.74907L107.405 1.82105C107.117 1.65474 106.751 1.72026 106.54 1.97823L104.184 4.8408L107.074 -13.4978C107.118 -13.778 106.987 -14.0558 106.743 -14.1966ZM96.9413 -8.52911L90.5637 2.51711L88.2886 1.20359L94.6662 -9.84263L96.9413 -8.52911ZM91.1798 19.0688L91.8779 19.662C91.2938 20.2359 90.6457 20.7475 89.9521 21.1818C89.2584 21.6161 88.5153 21.9768 87.7375 22.2547L86.4716 17.5302C87.0796 17.2679 87.6402 16.9214 88.1412 16.4915L88.5623 16.8482C88.7971 17.1033 89.1618 17.2218 89.5188 17.1261C90.0311 16.9889 90.3372 16.4621 90.1993 15.9474C90.136 15.711 89.9907 15.5213 89.8029 15.3952L89.3971 15.0493C89.4584 14.9533 89.5163 14.8633 89.5695 14.7745C89.5712 14.7716 89.5729 14.7686 89.5729 14.7686C89.6289 14.6716 89.6803 14.5759 89.727 14.4813L95.5178 16.5548L94.0888 19.0298L92.4009 17.5987C92.3494 17.5454 92.2944 17.498 92.2338 17.4571L92.2244 17.4497C92.0042 17.305 91.7245 17.2532 91.4509 17.3265C90.9386 17.4638 90.6325 17.9906 90.7704 18.5052C90.8356 18.7486 90.9844 18.9423 91.1798 19.0688ZM90.344 12.6761C90.3852 12.4589 90.4141 12.2424 90.4315 12.029L95.1798 13.2165C95.1215 13.5924 95.0445 13.9634 94.9528 14.3259L90.344 12.6761ZM88.2364 6.54469C87.9037 6.24873 87.5401 5.98588 87.155 5.76357C86.7758 5.54465 86.3769 5.36332 85.9624 5.22591L87.3286 2.8597L89.6036 4.17323L88.2364 6.54469ZM84.2147 0.0291917C85.0132 0.0512697 85.8073 0.159002 86.5784 0.347461L83.9586 4.8783C83.6645 4.8751 83.3755 4.89044 83.0913 4.92433L81.8285 0.211383C82.6172 0.0671249 83.4185 0.00649093 84.2147 0.0291917ZM81.3334 -1.63624L80.3626 -5.25962C81.8918 -5.57992 83.4443 -5.69278 84.9794 -5.59228C86.5069 -5.49223 88.0182 -5.18407 89.474 -4.67471L87.5631 -1.36496C85.5565 -1.94539 83.4074 -2.03789 81.3334 -1.63624ZM92.1569 3.57605C92.6505 4.09228 93.0955 4.65881 93.4823 5.25834C93.8648 5.85154 94.1939 6.48639 94.4617 7.14264L90.0835 7.16041L92.1569 3.57605ZM94.4449 -19.0884L96.958 -17.6374L90.443 -6.3531C88.7131 -6.99524 86.91 -7.38174 85.0824 -7.49828C83.232 -7.61619 81.3682 -7.45967 79.5346 -7.03295L94.4449 -19.0884ZM74.7466 -2.99948C75.9206 -3.73647 77.1873 -4.33179 78.5196 -4.7658L79.4911 -1.1401C78.5384 -0.810282 77.6235 -0.376314 76.772 0.154977C75.9032 0.695872 75.1007 1.33578 74.3845 2.05691L71.529 -0.365772C72.49 -1.37861 73.5725 -2.2625 74.7466 -2.99948ZM72.17 6.38474L73.604 3.90096L78.3181 7.90033C78.2569 7.99625 78.1996 8.08861 78.1441 8.17804C78.0881 8.27504 78.0373 8.37311 77.9866 8.47119L72.17 6.38474ZM77.3725 10.2781C77.2501 10.9246 77.228 11.584 77.3055 12.244L72.5856 13.5087C72.4374 12.6962 72.3782 11.8722 72.4075 11.0544C72.4368 10.2365 72.5558 9.4195 72.7608 8.62663L77.3725 10.2781ZM75.8409 3.29164C76.4297 2.71645 77.0824 2.20364 77.7847 1.76452C78.4743 1.33375 79.2135 0.976678 79.9849 0.70289L81.2484 5.41815C80.6403 5.68046 80.0774 6.02759 79.5764 6.45751L75.8409 3.29164ZM71.0242 1.71L72.1245 2.64508L70.3426 5.73144L68.9827 5.24608L71.0242 1.71ZM66.7638 10.8745C66.8141 9.46718 67.0386 8.07028 67.4338 6.71708L70.9574 7.97932C70.6903 8.95778 70.5355 9.96579 70.4984 10.9771C70.4607 11.986 70.5395 13.0035 70.7333 14.005L67.1169 14.9741C66.8345 13.6235 66.7141 12.247 66.7638 10.8745ZM87.354 28.2139C83.2333 29.072 78.9603 28.3882 75.3072 26.2811C71.6565 24.1734 68.9285 20.8171 67.6101 16.8147L77.7987 14.0847C78.3616 15.3973 79.3116 16.4671 80.5579 17.1866C81.8042 17.9062 83.2057 18.1941 84.6239 18.0253L87.354 28.2139ZM85.0708 16.0023C83.8607 16.3265 82.5986 16.1603 81.514 15.5341C80.4294 14.9079 79.6544 13.898 79.3301 12.6879C79.0059 11.4778 79.1721 10.2158 79.7983 9.13116C80.4246 8.04653 81.4344 7.27156 82.6445 6.94731C83.8546 6.62306 85.1166 6.78929 86.2013 7.4155C87.2859 8.04171 88.0609 9.05155 88.3851 10.2617C88.7094 11.4718 88.5431 12.7338 87.9169 13.8184C87.2907 14.9031 86.2809 15.678 85.0708 16.0023ZM92.9244 25.9783C91.76 26.7053 90.5083 27.2916 89.1999 27.7217L88.2302 24.103C89.1922 23.7707 90.1128 23.3302 90.97 22.7924C91.8272 22.2546 92.6228 21.6166 93.3366 20.8961L96.1915 23.3164C95.2156 24.3383 94.1187 25.2335 92.9244 25.9783ZM96.6692 21.2231L95.5689 20.288L97.3457 17.2105L98.7057 17.6958L96.6692 21.2231ZM100.284 16.2342L96.7608 14.972C96.8749 14.5538 96.9684 14.1237 97.0419 13.6841L100.675 14.5941C100.568 15.1594 100.437 15.7089 100.284 16.2342ZM100.919 12.6874L90.2924 10.0264C90.2736 9.94696 90.2536 9.86288 90.2287 9.77015C90.1672 9.54065 90.09 9.30792 90.0005 9.07597L100.781 9.02735C100.959 10.2393 101.005 11.4693 100.919 12.6874ZM100.391 7.11684L96.5015 7.13278C96.1592 6.13372 95.6989 5.17623 95.1356 4.28858C94.5735 3.40557 93.9054 2.59072 93.148 1.85945L95.0565 -1.44968C96.2587 -0.412688 97.304 0.780638 98.1668 2.09987C99.0637 3.47209 99.7632 4.97919 100.241 6.57562C100.287 6.73959 100.335 6.91052 100.391 7.11684ZM104.927 13.6906L102.799 13.1576C102.918 11.819 102.895 10.4711 102.725 9.14252L106.346 11.2333L104.927 13.6906ZM107.35 3.99228L108.879 4.87475L108.355 6.27727L106.398 5.14703L107.35 3.99228ZM105.168 6.64176L107.675 8.08935L107.152 9.49187L104.218 7.79821L105.168 6.64176ZM102.064 6.0175C101.521 4.20271 100.719 2.49181 99.6865 0.937329C98.6753 -0.583165 97.4443 -1.95035 96.0262 -3.12575L102.543 -14.413L105.058 -12.9626L102.064 6.0175Z" fill="#FEEBA3"/>
</g>
<g opacity="0.5" clip-path="url(#clip2)">
<path d="M163.795 15.6236L165.485 21.9311C169.704 20.2857 172.096 15.6961 170.897 11.2205C170.279 8.91575 168.796 6.99934 166.771 5.80429C166.301 5.52727 166.14 4.9253 166.408 4.45082C167.565 2.40551 167.891 0.0042125 167.273 -2.30242C166.745 -4.27286 165.556 -5.95891 163.894 -7.18148C163.038 -7.81182 163.627 -9.16666 164.672 -8.9697C171.803 -7.6261 177.613 -2.35206 179.521 4.76865C182.237 14.9053 176.222 25.3227 166.086 28.0388C155.95 30.7546 145.531 24.7398 142.816 14.6038C140.908 7.48364 143.303 0.0107351 148.807 -4.71875C149.614 -5.41199 150.802 -4.53329 150.375 -3.55898C149.547 -1.66772 149.359 0.387203 149.887 2.35632C150.504 4.6618 151.989 6.57807 154.014 7.77177C154.484 8.04853 154.645 8.65041 154.377 9.12504C153.22 11.1738 152.893 13.5757 153.51 15.8793C154.709 20.3546 159.078 23.1335 163.553 22.4489L161.863 16.1412L160.071 19.2461C159.795 19.7244 159.183 19.8883 158.705 19.6121C158.226 19.336 158.063 18.7244 158.339 18.2461L160.131 15.1412L156.668 16.0693C156.134 16.2123 155.586 15.8957 155.443 15.3622C155.3 14.8287 155.617 14.2804 156.15 14.1375L159.614 13.2094L156.509 11.4168C156.03 11.1407 155.867 10.5291 156.143 10.0508C156.419 9.5725 157.03 9.40862 157.509 9.68476L160.614 11.4773L155.544 -7.44107C155.402 -7.97454 155.718 -8.52287 156.252 -8.66582C156.785 -8.80876 157.333 -8.49217 157.476 -7.95871L162.545 10.9597L164.338 7.85535C164.614 7.37706 165.226 7.21319 165.704 7.48933C166.182 7.76547 166.346 8.37706 166.07 8.85535L164.278 11.9597L167.741 11.0316C168.275 10.8887 168.823 11.2053 168.966 11.7387C169.109 12.2722 168.792 12.8205 168.259 12.9635L164.795 13.8916L167.9 15.6839C168.378 15.96 168.542 16.5716 168.266 17.0499C167.989 17.5282 167.378 17.692 166.9 17.4159L163.795 15.6236ZM165.01 24.1857C159.155 25.7315 153.147 22.2522 151.578 16.3969C150.907 13.8906 151.15 11.2863 152.207 8.98188C150.14 7.51586 148.627 5.38193 147.955 2.87396C147.653 1.74651 147.541 0.597266 147.611 -0.541201C144.508 3.56156 143.365 8.9273 144.747 14.0861C147.177 23.1552 156.5 28.5368 165.568 26.1069C174.638 23.6767 180.019 14.3561 177.589 5.28628C176.206 0.126472 172.534 -3.94923 167.796 -5.95088C168.425 -4.99936 168.903 -3.94804 169.205 -2.82006C169.877 -0.311389 169.635 2.29284 168.579 4.59506C170.645 6.06208 172.157 8.19587 172.829 10.7029C174.398 16.5582 170.936 22.5738 165.092 24.1638C165.079 24.168 165.065 24.172 165.051 24.1757C165.038 24.1793 165.024 24.1827 165.01 24.1857Z" fill="#FEEBA3"/>
</g>
<g opacity="0.5" clip-path="url(#clip3)">
<path d="M125.08 18.4352L119.284 19.9881C118.751 20.131 118.434 20.6797 118.577 21.2129L119.354 24.1107C119.925 26.2415 122.122 27.51 124.253 26.9391C126.384 26.3681 127.652 24.1709 127.081 22.0401L126.305 19.1423C126.162 18.6091 125.613 18.2923 125.08 18.4352Z" fill="#FEEBA3"/>
<path d="M124.946 68.1643L142.333 63.5056L140.262 55.7781L122.876 60.4369L124.946 68.1643ZM134.019 59.5217L137.882 58.4865C138.415 58.3436 138.964 58.6604 139.107 59.1936C139.25 59.7268 138.933 60.2754 138.4 60.4183L134.536 61.4536C134.003 61.5965 133.454 61.2797 133.311 60.7465C133.169 60.2133 133.485 59.6646 134.019 59.5217ZM126.291 61.5923L130.155 60.557C130.688 60.4141 131.237 60.7309 131.38 61.2641C131.522 61.7973 131.206 62.346 130.672 62.4889L126.809 63.5241C126.276 63.667 125.727 63.3502 125.584 62.817C125.441 62.2838 125.758 61.7352 126.291 61.5923Z" fill="#FEEBA3"/>
<path d="M157.397 58.1068L150.427 47.5509C150.27 47.3096 150.013 47.1484 149.726 47.1115L136.841 45.3877C136.297 45.3139 135.792 45.6999 135.716 46.2459C135.699 46.3811 135.709 46.5129 135.742 46.6365L124.151 49.7424C124.118 49.6187 124.061 49.4994 123.979 49.3911C123.642 48.9553 123.014 48.8732 122.576 49.21L112.279 57.1454C112.051 57.3225 111.909 57.5883 111.891 57.8768L111.133 70.5032C111.113 70.8232 111.25 71.1343 111.498 71.3392C111.747 71.5417 112.078 71.6123 112.389 71.529L123.015 68.6819L120.685 59.9886C120.542 59.4554 120.859 58.9067 121.392 58.7639L140.711 53.5875C141.244 53.4446 141.793 53.7614 141.936 54.2946L144.265 62.9879L156.822 59.6233C157.133 59.5399 157.385 59.313 157.499 59.0113C157.613 58.7115 157.574 58.374 157.397 58.1068Z" fill="#FEEBA3"/>
<path d="M125.066 39.9499L122.135 41.7065L123.318 44.3049L125.066 39.9499Z" fill="#FEEBA3"/>
<path d="M133.746 41.5107L133.471 38.669L130.054 38.6134L133.746 41.5107Z" fill="#FEEBA3"/>
<path d="M125.048 45.3611L132.775 43.2906L127.531 39.1736L125.048 45.3611Z" fill="#FEEBA3"/>
<path d="M114.927 48.9759C115.054 44.3678 115.838 30.2293 120.648 28.9404C120.928 28.8653 121.191 28.8177 121.44 28.7883C119.541 28.1954 117.974 26.6878 117.422 24.6284L116.703 21.9451C113.929 24.0778 111.904 27.2168 112.921 31.0109L113.914 34.7182L113.166 47.1823C113.149 47.481 113.264 47.7692 113.482 47.9736C113.529 48.0189 114.007 48.4499 114.927 48.9759Z" fill="#FEEBA3"/>
<path d="M128.893 28.8017C128.186 28.9912 127.78 29.3134 127.309 29.6881C126.796 30.0945 126.216 30.5545 125.288 30.8029C124.361 31.0514 123.628 30.9434 122.981 30.8476C122.386 30.7586 121.873 30.6828 121.166 30.8723C118.423 31.6073 117.024 42.4238 116.906 49.8804C118.454 50.4637 120.512 50.9642 123.172 51.0009C123.264 51.0033 123.355 50.9911 123.444 50.9673L136.967 47.3438C137.056 47.32 137.142 47.2846 137.22 47.2367C139.506 45.8748 141.037 44.4125 142.086 43.1335C138.255 36.7349 131.634 28.0672 128.893 28.8017ZM127.069 32.8106C127.136 32.6435 127.767 31.1741 129.411 30.7336C130.813 30.3578 132.018 30.9687 132.51 31.3878C132.792 31.629 132.918 32.0073 132.835 32.3691C132.754 32.7305 132.478 33.0174 132.119 33.1137L128.255 34.149C127.89 34.2468 127.501 34.1297 127.249 33.8472C126.997 33.5628 126.927 33.1632 127.069 32.8106ZM119.327 34.9202C119.543 34.3116 120.281 33.1799 121.683 32.8041C122.978 32.4573 124.049 32.9778 124.514 33.2674C124.81 33.3745 125.049 33.6208 125.137 33.9492C125.28 34.4824 124.964 35.031 124.43 35.1739C124.416 35.1756 124.405 35.1806 124.392 35.1843L120.528 36.2195C120.169 36.3158 119.787 36.2048 119.536 35.9325C119.282 35.6588 119.203 35.2701 119.327 34.9202ZM135.961 43.6421C135.969 43.7249 135.953 43.8038 135.94 43.8816C135.937 43.9011 135.948 43.9189 135.945 43.9383C135.943 43.9471 135.936 43.9511 135.934 43.9598C135.898 44.1186 135.82 44.2596 135.716 44.3807C135.692 44.4078 135.669 44.4286 135.642 44.4543C135.525 44.5664 135.389 44.6608 135.225 44.7048L123.634 47.8107C123.609 47.8174 123.585 47.8052 123.559 47.81C123.417 47.8376 123.279 47.8375 123.143 47.8034C123.119 47.7975 123.094 47.7979 123.069 47.7901C122.913 47.7389 122.775 47.6495 122.66 47.5292C122.651 47.5191 122.636 47.5189 122.627 47.5088C122.609 47.4868 122.61 47.4577 122.591 47.4338C122.549 47.3768 122.496 47.3267 122.465 47.2583L119.946 41.7216C119.736 41.2604 119.905 40.7117 120.343 40.4497L126.586 36.7061C126.645 36.6716 126.717 36.6772 126.781 36.6538C126.829 36.637 126.873 36.6251 126.922 36.616C126.99 36.6042 127.049 36.5634 127.118 36.5638L134.397 36.6839C134.906 36.6923 135.328 37.0825 135.376 37.5872L135.961 43.6421Z" fill="#FEEBA3"/>
<path d="M143.976 38.927L137.096 28.5065L136.103 24.7993C135.086 21.0051 131.763 19.299 128.294 18.8392L129.013 21.5226C129.565 23.5819 128.961 25.6714 127.614 27.1339C127.844 27.035 128.095 26.9449 128.376 26.8698C133.186 25.5809 140.934 37.4335 143.348 41.3604C143.882 40.4471 144.08 39.833 144.1 39.7696C144.185 39.4838 144.139 39.1751 143.976 38.927Z" fill="#FEEBA3"/>
</g>
<g opacity="0.5" clip-path="url(#clip4)">
<path fill-rule="evenodd" clip-rule="evenodd" d="M187.586 43.7473C178.624 46.1487 173.305 55.3608 175.707 64.323C178.108 73.2853 187.32 78.6038 196.282 76.2024C205.245 73.801 210.563 64.5889 208.162 55.6267C205.76 46.6645 196.548 41.3459 187.586 43.7473ZM174.161 64.7371C171.531 54.9214 177.356 44.832 187.172 42.2018C196.988 39.5717 207.077 45.3968 209.707 55.2126C212.337 65.0284 206.512 75.1178 196.696 77.7479C186.881 80.378 176.791 74.5529 174.161 64.7371Z" fill="#FEEBA3"/>
<path fill-rule="evenodd" clip-rule="evenodd" d="M192.979 52.0432C191.41 51.8367 189.815 52.1 188.396 52.7998C186.977 53.4996 185.797 54.6045 185.006 55.9747C184.215 57.345 183.848 58.9191 183.951 60.498C184.055 62.0768 184.624 63.5896 185.587 64.8448C186.551 66.1001 187.865 67.0416 189.363 67.5502C190.861 68.0588 192.477 68.1117 194.005 67.7022C196.053 67.1506 197.798 65.8094 198.859 63.9727C199.919 62.1359 200.208 59.9535 199.662 57.9042C199.252 56.3759 198.399 55.0033 197.209 53.96C196.019 52.9168 194.547 52.2497 192.979 52.0432ZM194.212 68.4749L194.42 69.2474C196.877 68.5859 198.972 66.9766 200.245 64.7727C201.517 62.5687 201.863 59.9499 201.207 57.491L201.207 57.4901C200.716 55.6561 199.692 54.009 198.264 52.7571C196.837 51.5052 195.07 50.7047 193.187 50.4569C191.305 50.2091 189.391 50.525 187.688 51.3648C185.985 52.2045 184.57 53.5304 183.62 55.1748C182.671 56.8191 182.231 58.708 182.355 60.6026C182.479 62.4973 183.162 64.3125 184.318 65.8189C185.474 67.3252 187.051 68.455 188.848 69.0653C190.646 69.6756 192.585 69.7391 194.419 69.2476L194.212 68.4749Z" fill="#FEEBA3"/>
<path fill-rule="evenodd" clip-rule="evenodd" d="M206.155 48.7054C205.789 51.1524 205.945 53.6493 206.614 56.0316L206.616 56.0407L206.619 56.05C207.231 58.4474 208.344 60.688 209.884 62.6241L208.632 63.6204C206.953 61.5099 205.739 59.0679 205.071 56.4549C204.343 53.8578 204.173 51.136 204.572 48.4685L206.155 48.7054Z" fill="#FEEBA3"/>
<path fill-rule="evenodd" clip-rule="evenodd" d="M188.009 45.2904C190.407 44.6785 192.647 43.5655 194.583 42.0247L195.58 43.2767C193.469 44.9562 191.027 46.17 188.414 46.8383C185.817 47.5661 183.095 47.7359 180.428 47.3366L180.665 45.7543C183.112 46.1205 185.609 45.9641 187.991 45.2953L188 45.2927L188.009 45.2904Z" fill="#FEEBA3"/>
<path fill-rule="evenodd" clip-rule="evenodd" d="M177.25 63.8997C176.638 61.5022 175.525 59.2616 173.984 57.3256L175.236 56.3293C176.916 58.4397 178.129 60.8818 178.798 63.4948C179.525 66.0919 179.695 68.8136 179.296 71.4811L177.714 71.2442C178.08 68.7972 177.923 66.3003 177.255 63.9181L177.252 63.9089L177.25 63.8997Z" fill="#FEEBA3"/>
<path fill-rule="evenodd" clip-rule="evenodd" d="M190.692 55.3384C188.131 56.0245 186.612 58.6565 187.298 61.2172C187.984 63.7778 190.616 65.2974 193.177 64.6113C195.737 63.9251 197.257 61.2931 196.571 58.7325C195.885 56.1719 193.253 54.6523 190.692 55.3384ZM185.752 61.6313C184.838 58.2171 186.864 54.7077 190.278 53.7929C193.692 52.8781 197.201 54.9042 198.116 58.3184C199.031 61.7326 197.005 65.2419 193.591 66.1567C190.177 67.0716 186.667 65.0454 185.752 61.6313Z" fill="#FEEBA3"/>
<path fill-rule="evenodd" clip-rule="evenodd" d="M190.361 54.1021C190.787 53.9878 191.226 54.2411 191.34 54.6678L192.024 57.2179C192.138 57.6447 191.885 58.0833 191.458 58.1977C191.031 58.312 190.593 58.0588 190.478 57.632L189.795 55.0819C189.681 54.6552 189.934 54.2165 190.361 54.1021Z" fill="#FEEBA3"/>
<path fill-rule="evenodd" clip-rule="evenodd" d="M185.861 59.6607C185.884 59.2195 186.26 58.8807 186.702 58.9039L189.344 59.043C189.786 59.0662 190.124 59.4427 190.101 59.884C190.078 60.3252 189.702 60.664 189.26 60.6408L186.617 60.5017C186.176 60.4785 185.837 60.102 185.861 59.6607Z" fill="#FEEBA3"/>
<path fill-rule="evenodd" clip-rule="evenodd" d="M191.279 61.6945C191.691 61.853 191.897 62.3159 191.738 62.7283L190.793 65.1862C190.635 65.5986 190.172 65.8044 189.76 65.6458C189.347 65.4873 189.141 65.0245 189.3 64.6121L190.245 62.1542C190.403 61.7418 190.866 61.536 191.279 61.6945Z" fill="#FEEBA3"/>
<path fill-rule="evenodd" clip-rule="evenodd" d="M193.362 61.1364C193.64 60.7929 194.143 60.7397 194.487 61.0176L196.534 62.6738C196.878 62.9517 196.931 63.4554 196.653 63.7989C196.375 64.1424 195.871 64.1956 195.528 63.9177L193.481 62.2615C193.137 61.9836 193.084 61.4799 193.362 61.1364Z" fill="#FEEBA3"/>
<path fill-rule="evenodd" clip-rule="evenodd" d="M197.037 56.666C197.278 57.0364 197.173 57.5319 196.802 57.7727L194.583 59.2146C194.213 59.4553 193.717 59.3501 193.476 58.9796C193.236 58.6091 193.341 58.1136 193.711 57.8729L195.931 56.431C196.301 56.1903 196.797 56.2955 197.037 56.666Z" fill="#FEEBA3"/>
<path fill-rule="evenodd" clip-rule="evenodd" d="M179.633 41.0609C180.049 40.9115 180.507 41.1274 180.657 41.5433L182.123 45.6229C182.272 46.0387 182.056 46.4969 181.64 46.6463C181.224 46.7957 180.766 46.5797 180.617 46.1639L179.151 42.0843C179.002 41.6685 179.218 41.2103 179.633 41.0609Z" fill="#FEEBA3"/>
<path fill-rule="evenodd" clip-rule="evenodd" d="M169.343 56.1112C169.323 55.6699 169.664 55.2955 170.105 55.2751L174.776 55.0587C175.218 55.0383 175.592 55.3795 175.612 55.8209C175.633 56.2622 175.292 56.6366 174.85 56.657L170.179 56.8734C169.738 56.8938 169.363 56.5526 169.343 56.1112Z" fill="#FEEBA3"/>
<path fill-rule="evenodd" clip-rule="evenodd" d="M174.372 44.6497C173.852 44.5688 173.321 44.6048 172.818 44.7551C172.394 44.8815 171.949 44.6407 171.822 44.2173C171.696 43.794 171.937 43.3483 172.36 43.222C173.092 43.0036 173.863 42.9512 174.618 43.0687C175.372 43.1862 176.091 43.4706 176.722 43.9012L177.911 44.7147C178.086 44.8345 178.206 45.0189 178.245 45.2275C178.285 45.436 178.239 45.6516 178.119 45.8267L173.241 52.9576C173.121 53.1327 172.937 53.2531 172.728 53.2922C172.52 53.3313 172.304 53.286 172.129 53.1662L170.94 52.3527C170.31 51.9209 169.785 51.354 169.402 50.6934C169.019 50.0327 168.788 49.2949 168.726 48.5337C168.691 48.0933 169.019 47.7074 169.459 47.6718C169.9 47.6361 170.285 47.9642 170.321 48.4046C170.364 48.9285 170.522 49.4363 170.786 49.891C171.049 50.3455 171.411 50.7356 171.844 51.0327C171.844 51.0328 171.845 51.0329 171.845 51.033L172.372 51.3939L176.347 45.5835L175.82 45.2226C175.82 45.2225 175.82 45.2227 175.82 45.2226C175.386 44.9264 174.891 44.7305 174.372 44.6497Z" fill="#FEEBA3"/>
<path fill-rule="evenodd" clip-rule="evenodd" d="M162.098 37.5256C162.347 37.1607 162.844 37.0667 163.209 37.3158L167.389 40.1677C167.753 40.4168 167.847 40.9145 167.598 41.2795C167.349 41.6444 166.852 41.7384 166.487 41.4893L162.307 38.6374C161.942 38.3883 161.849 37.8906 162.098 37.5256Z" fill="#FEEBA3"/>
<path fill-rule="evenodd" clip-rule="evenodd" d="M162.809 41.5772C163.051 41.2076 163.547 41.1042 163.917 41.3463L165.552 42.4174C165.922 42.6595 166.025 43.1554 165.783 43.525C165.541 43.8946 165.045 43.9979 164.675 43.7558L163.04 42.6847C162.671 42.4426 162.567 41.9468 162.809 41.5772Z" fill="#FEEBA3"/>
<path fill-rule="evenodd" clip-rule="evenodd" d="M171.201 39.6056C170.189 39.7956 169.224 40.1833 168.362 40.7467C167.5 41.3101 166.758 42.038 166.178 42.8888L166.173 42.8953C166.048 43.0753 165.93 43.2719 165.81 43.4818C164.849 45.1887 164.562 47.1939 165.007 49.1017C165.452 51.0101 166.596 52.6824 168.214 53.7883C168.214 53.7884 168.214 53.7885 168.215 53.7887L169.936 54.9619L178.788 42.0195L177.072 40.8442C176.223 40.2617 175.268 39.8524 174.26 39.6399C173.253 39.4273 172.213 39.4157 171.201 39.6056ZM167.487 39.4074C168.525 38.7289 169.687 38.2618 170.906 38.0331C172.125 37.8043 173.377 37.8183 174.59 38.0743C175.804 38.3303 176.955 38.8231 177.977 39.5246M177.978 39.5249L180.352 41.1514C180.716 41.401 180.809 41.8985 180.56 42.263L170.805 56.5244C170.556 56.8887 170.059 56.9824 169.694 56.7338L167.312 55.1096C165.363 53.7777 163.985 51.7636 163.449 49.465C162.913 47.1663 163.258 44.7503 164.417 42.6939L164.42 42.689C164.548 42.4649 164.693 42.2213 164.858 41.9842C165.557 40.9609 166.45 40.0853 167.487 39.4074" fill="#FEEBA3"/>
<path fill-rule="evenodd" clip-rule="evenodd" d="M170.221 43.7357C169.692 43.7617 169.196 43.996 168.839 44.3872C168.483 44.7784 168.297 45.2948 168.32 45.8233C168.344 46.3516 168.576 46.8492 168.965 47.2071C169.131 47.3595 169.323 47.4822 169.531 47.5697C169.914 47.7295 170.336 47.7675 170.742 47.6786C171.146 47.5897 171.514 47.3785 171.795 47.0736C172.071 46.7673 172.247 46.3826 172.296 45.9726C172.346 45.5617 172.267 45.1455 172.07 44.7815L172.064 44.7697C171.962 44.5734 171.825 44.3972 171.66 44.2495L171.659 44.2482C171.266 43.8939 170.749 43.7096 170.221 43.7357ZM167.656 43.3102C168.297 42.6061 169.191 42.1845 170.142 42.1376C171.092 42.0907 172.023 42.4222 172.73 43.0594C173.036 43.3342 173.29 43.6616 173.48 44.026C173.832 44.6799 173.974 45.4269 173.885 46.1644C173.795 46.9041 173.479 47.5978 172.978 48.1499L172.975 48.1537L172.975 48.1537C172.472 48.7019 171.812 49.0817 171.085 49.2413C170.358 49.4009 169.6 49.3326 168.913 49.0457L168.911 49.045C168.533 48.8862 168.186 48.6633 167.883 48.3861L167.883 48.3856C167.182 47.7414 166.764 46.8458 166.722 45.8947C166.679 44.9435 167.015 44.0142 167.656 43.3102Z" fill="#FEEBA3"/>
</g>
<g opacity="0.5" clip-path="url(#clip5)">
<path d="M256.607 58.4905C255.894 55.8306 253.145 54.2435 250.485 54.9563C247.825 55.669 246.238 58.4178 246.951 61.0777C247.664 63.7377 250.412 65.3247 253.072 64.612C255.732 63.8993 257.319 61.1504 256.607 58.4905ZM250.895 56.4861C252.44 56.0721 254.01 56.7966 254.757 58.1374L248.376 59.8472C248.345 58.3148 249.35 56.9001 250.895 56.4861ZM252.66 63.0745C251.1 63.4926 249.508 62.7491 248.78 61.3868L255.177 59.6729C255.22 61.2186 254.213 62.6583 252.66 63.0745Z" fill="#FEEBA3"/>
<path d="M278.714 45.9752C278.11 45.6591 276.778 45.7027 276.632 45.709C276.281 45.7207 275.963 45.7647 275.655 45.8471C274.51 46.154 273.781 46.9095 273.075 47.7168C272.205 48.7161 271.171 49.4053 270.461 49.8014C270.054 50.0342 269.613 50.4817 269.045 51.2519C267.042 48.1716 264.766 46.3507 262.592 45.3101C262.464 45.2041 262.32 45.1274 262.15 45.107C258.13 43.358 254.568 44.1805 253.977 44.3391L253.884 44.3638C253.292 44.5224 249.804 45.5889 247.197 49.1136C247.045 49.2204 246.945 49.3707 246.892 49.5415C245.515 51.5667 244.443 54.3339 244.271 58.0879C243.093 57.6289 242.533 57.565 242.202 57.5628C241.382 57.5766 240.149 57.495 238.897 57.0644L238.724 57.0036C237.673 56.6506 236.683 56.3062 235.553 56.609C235.291 56.679 235.031 56.7819 234.778 56.9155C234.281 57.1806 233.409 57.9579 233.144 58.3832L232.871 58.8685L233.491 59.7403L234.001 59.6449C234.504 59.5515 237.065 59.269 238.595 62.4268L238.654 62.5262C238.777 62.7075 241.528 66.7329 245.507 67.191C245.889 68.5225 246.673 69.6966 247.728 70.5592C249.741 75.0874 254.287 77.9396 259.412 77.9093C260.349 78.4245 261.423 78.6478 262.484 78.487C262.667 78.4627 262.861 78.4189 263.046 78.3695C263.23 78.32 263.42 78.2609 263.591 78.1904C264.59 77.7991 265.408 77.0691 265.96 76.1466C270.393 73.6241 272.9 68.8983 272.401 63.9895C272.897 62.7359 273.003 61.348 272.666 60.0293C272.65 59.9678 272.633 59.9062 272.617 59.8447C275.689 57.3818 275.999 52.5115 276.009 52.3028L276.007 52.2044C275.754 48.7046 278.12 47.6667 278.594 47.4985L279.106 47.2872L279.156 46.211L278.714 45.9752ZM240.003 61.6869C238.862 59.3643 237.241 58.4803 235.913 58.1686C236.581 57.9566 237.263 58.1942 238.207 58.5181L238.38 58.5789C239.842 59.0852 241.274 59.1712 242.22 59.1649C242.391 59.1601 242.937 59.2281 244.347 59.8473C244.442 61.2473 244.65 63.3752 245.103 65.5279C242.329 64.8622 240.266 62.0531 240.003 61.6869ZM250.372 71.9685C250.399 71.9777 250.434 71.9848 250.461 71.994C250.696 72.0712 250.936 72.1385 251.165 72.1926C253.431 72.7144 255.348 73.7497 256.698 75.1923C256.871 75.3767 257.025 75.5498 257.171 75.7249C257.22 75.7859 257.259 75.8412 257.309 75.9022C257.384 75.9974 257.461 76.1004 257.526 76.19C254.623 75.7485 252.074 74.2315 250.372 71.9685ZM262.247 76.9272C261.512 77.0419 260.758 76.8731 260.103 76.4884L260.034 76.449C259.818 76.3175 259.61 76.1588 259.424 75.9863C259.403 75.9673 259.391 75.954 259.369 75.9351C259.191 75.7605 259.025 75.574 258.891 75.3794L258.889 75.3717C258.618 74.9747 258.273 74.5481 257.86 74.1148C256.291 72.4423 254.099 71.2417 251.525 70.6459C250.973 70.522 250.367 70.289 249.715 69.9775C249.648 69.9458 249.588 69.9044 249.522 69.8727C249.436 69.8297 249.358 69.7847 249.278 69.732C249.139 69.6455 249.007 69.5493 248.874 69.453C248.864 69.4474 248.854 69.4418 248.852 69.4341L248.76 69.3681C247.919 68.6872 247.309 67.7631 247.014 66.6966C246.988 66.5966 246.963 66.5044 246.944 66.4024L246.907 66.264C246.659 65.2758 246.47 64.2635 246.328 63.3045C246.322 63.2814 246.325 63.264 246.319 63.2409C246.228 62.6227 246.152 62.0333 246.097 61.4878C246.088 61.4243 246.081 61.3684 246.082 61.3105C246.059 61.1023 246.039 60.9019 246.02 60.7092C246.013 60.6533 246.006 60.5974 246.009 60.5472C245.968 60.0556 245.936 59.6275 245.915 59.2707L245.898 58.9949C245.877 58.5146 245.866 58.229 245.866 58.229C245.998 54.8155 246.952 52.3186 248.171 50.5007C249.455 50.5274 250.348 52.7847 250.354 52.8077C250.5 53.1972 250.916 53.3987 251.301 53.2957C251.324 53.2895 251.347 53.2833 251.378 53.2751C251.79 53.1234 251.997 52.6643 251.845 52.2517C251.453 51.1869 250.549 49.6904 249.244 49.1255C249.722 48.602 250.22 48.1554 250.704 47.7785C250.797 47.7866 250.888 47.787 250.98 47.7622C251.172 47.7107 251.335 47.7331 251.522 47.8477C252.32 48.3343 252.967 50.1054 253.187 51.1094C253.285 51.5364 253.705 51.8112 254.131 51.7133C254.147 51.7091 254.155 51.7071 254.17 51.703C254.577 51.5938 254.829 51.1803 254.743 50.7666C254.674 50.4473 254.031 47.7109 252.526 46.6146C253.403 46.1654 254.073 45.9611 254.296 45.9014L254.389 45.8766C254.604 45.819 255.286 45.6608 256.26 45.6058C255.465 47.3103 256.18 50.0108 256.265 50.326C256.386 50.7467 256.814 50.9944 257.237 50.8811L257.245 50.879C257.666 50.758 257.919 50.3194 257.798 49.8986C257.611 49.2318 257.203 47.1247 257.743 46.1889C257.856 45.994 257.999 45.8815 258.191 45.83C258.283 45.8053 258.369 45.7575 258.446 45.7041C259.053 45.7885 259.7 45.9282 260.374 46.135C259.493 47.2773 259.386 49.0282 259.522 50.1534C259.574 50.5927 259.969 50.8988 260.409 50.847C260.449 50.8444 260.48 50.8362 260.518 50.8259C260.895 50.7249 261.151 50.3596 261.102 49.9608C261.104 49.9357 260.85 47.4495 261.997 46.7796C263.951 47.739 266.016 49.4186 267.831 52.2859C267.835 52.3013 268.044 52.682 268.362 53.3137C268.382 53.3578 268.402 53.4019 268.432 53.4515C268.49 53.5761 268.555 53.6985 268.62 53.8461C268.62 53.8461 268.62 53.8461 268.622 53.8538C268.84 54.298 269.08 54.8268 269.335 55.4094C269.361 55.4765 269.395 55.5416 269.422 55.6087C269.49 55.7717 269.568 55.9403 269.639 56.1109C269.685 56.2221 269.731 56.3333 269.779 56.4522C269.868 56.6592 269.951 56.876 270.033 57.0927C270.108 57.2787 270.175 57.4668 270.249 57.6528C270.284 57.7507 270.32 57.8563 270.355 57.9541C270.44 58.1786 270.517 58.4051 270.594 58.6316C270.62 58.6987 270.637 58.7602 270.663 58.8274C270.763 59.1384 270.865 59.4572 270.957 59.7703C271.024 59.9912 271.086 60.2219 271.138 60.4469C271.378 61.4043 271.32 62.4169 270.965 63.336L270.868 63.5596C270.812 63.6899 270.76 63.8028 270.698 63.91C270.639 64.0249 270.571 64.1419 270.501 64.2512C270.059 64.9382 269.607 65.496 269.145 65.9246C267.206 67.7295 265.908 69.8654 265.394 72.0961C265.255 72.6853 265.167 73.2197 265.131 73.6991C265.114 73.9426 265.064 74.1867 264.997 74.4272C264.993 74.4447 264.984 74.4718 264.98 74.4893C264.905 74.7319 264.805 74.9729 264.683 75.1951L264.644 75.2633C264.267 75.9164 263.698 76.4395 263.006 76.7156C262.77 76.82 262.501 76.8921 262.247 76.9272ZM266.738 73.7299C266.747 73.612 266.763 73.4843 266.786 73.3546C266.792 73.2869 266.801 73.2269 266.815 73.1572C266.854 72.9326 266.9 72.7059 266.958 72.4598C267.406 70.5352 268.549 68.68 270.25 67.0953C270.421 66.9341 270.596 66.7555 270.761 66.5712C270.779 66.5497 270.8 66.5358 270.819 66.5143C270.471 69.3021 269.022 71.8903 266.738 73.7299ZM274.435 52.2714C274.402 52.7005 274.076 56.1579 272.129 58.1791C272.123 58.1561 272.109 58.1351 272.101 58.1043C272.024 57.8778 271.946 57.6513 271.862 57.4268C271.855 57.4038 271.839 57.3751 271.833 57.352C271.744 57.1122 271.655 56.8724 271.566 56.6325C271.564 56.6249 271.562 56.6172 271.56 56.6095C270.973 55.0942 270.35 53.7533 269.894 52.8207C270.666 51.6745 271.06 51.2972 271.245 51.1898C272.069 50.73 273.257 49.9339 274.278 48.7623C274.901 48.0433 275.368 47.6049 275.969 47.4191C275.07 48.3686 274.27 49.9015 274.435 52.2714Z" fill="#FEEBA3"/>
</g>
<g opacity="0.5">
<path d="M21.2171 -7.92438C19.0862 -7.35342 17.8177 -5.15623 18.3886 -3.0254C18.9596 -0.894565 21.1568 0.373984 23.2876 -0.19697C25.4185 -0.767925 26.687 -2.96512 26.116 -5.09595C25.5451 -7.22678 23.3479 -8.49533 21.2171 -7.92438ZM22.77 -2.12882C21.7036 -1.84309 20.6057 -2.47859 20.3205 -3.54304C20.0353 -4.60749 20.6683 -5.70679 21.7347 -5.99253C22.8011 -6.27826 23.899 -5.64276 24.1842 -4.57831C24.4694 -3.51386 23.8364 -2.41456 22.77 -2.12882ZM55.0637 26.7924L50.5224 24.1705L49.5942 20.7066C49.2573 19.449 48.1631 18.6034 46.9336 18.5042L45.2854 12.3532C46.3007 11.6526 46.8254 10.3732 46.4884 9.11554L43.9002 -0.543721C43.4721 -2.14136 41.8236 -3.09313 40.226 -2.66504L37.3282 -1.88858C36.6491 -4.42317 35.3026 -6.59675 33.5396 -8.3005L32.0317 -13.928C31.8888 -14.4612 31.3402 -14.778 30.807 -14.6351C30.2738 -14.4922 29.957 -13.9435 30.0999 -13.4103L30.9338 -10.2981C27.803 -12.153 23.9624 -12.8011 20.1818 -11.7881C17.6124 -11.0996 15.4136 -9.72365 13.7003 -7.92697C13.5302 -7.82757 13.3952 -7.68995 13.3089 -7.51772C12.0807 -6.12024 11.1408 -4.48939 10.5441 -2.72897C10.4381 -2.56806 10.3864 -2.38236 10.3854 -2.18537C9.68414 0.197303 9.59384 2.78898 10.2823 5.35835L7.38452 6.1348C5.78688 6.56289 4.83512 8.2114 5.2632 9.80904L7.85139 19.4683C8.18838 20.7259 9.28252 21.5716 10.5121 21.6707L12.1602 27.8217C11.145 28.5224 10.6202 29.8018 10.9572 31.0594L11.8853 34.5232L9.26288 39.0626C9.06258 39.4124 9.0908 39.85 9.33635 40.1714C9.5819 40.4928 9.99858 40.6338 10.3888 40.5292L18.1162 38.4586C19.7139 38.0306 20.6656 36.382 20.2375 34.7844L19.4135 31.7089C19.7457 31.7358 20.087 31.7189 20.427 31.6278L23.8908 30.6997L25.6226 31.6995L25.9259 32.8316L24.7177 34.9215C24.5174 35.2713 24.5456 35.7089 24.7912 36.0303C25.0367 36.3517 25.4534 36.4927 25.8436 36.3881L39.3666 32.7646C39.7568 32.6601 40.0458 32.3321 40.0997 31.9305C40.1535 31.5288 39.9592 31.1357 39.6089 30.9335L37.517 29.7258L37.2137 28.5937L38.2116 26.8624L41.6774 25.9338C42.0174 25.8427 42.3214 25.6867 42.5957 25.4972L43.4198 28.5728C43.8478 30.1704 45.4963 31.1222 47.094 30.6941L54.8214 28.6235C55.2116 28.519 55.5006 28.191 55.5545 27.7894C55.6084 27.3877 55.414 26.9946 55.0637 26.7924ZM18.3057 35.302C18.4486 35.8352 18.1298 36.3844 17.5986 36.5268L12.2029 37.9726L13.8255 35.1649C13.9565 34.9352 13.9932 34.6624 13.9243 34.4055L12.8891 30.5418C12.7462 30.0086 13.0649 29.4594 13.5962 29.317L16.494 28.5406L18.3057 35.302ZM15.9763 26.6087L14.0445 27.1264L12.4916 21.3308L14.4234 20.8132L15.9763 26.6087ZM13.9058 18.8813L11.008 19.6578C10.4767 19.8001 9.92611 19.4838 9.78324 18.9507L7.19505 9.2914C7.05219 8.75821 7.3709 8.20901 7.90216 8.06666L10.7999 7.2902L13.9058 18.8813ZM12.228 -1.37465L14.5249 -1.99012L15.0426 -0.0582701L11.855 0.795833C11.9139 0.0574292 12.038 -0.669457 12.228 -1.37465ZM27.6577 33.8315L27.8661 33.4733C27.9971 33.2436 28.0338 32.9708 27.9649 32.7139L27.4473 30.782C27.3785 30.5251 27.2103 30.3072 26.9801 30.1742L26.6225 29.9677L35.48 27.5944L35.2735 27.952C35.1425 28.1817 35.1059 28.4545 35.1747 28.7115L35.6924 30.6433C35.7612 30.9002 35.9293 31.1182 36.1596 31.2511L36.5172 31.4576L27.6577 33.8315ZM41.8668 22.7772C42.0097 23.3104 41.691 23.8596 41.1597 24.0019L37.296 25.0372C37.2941 25.0377 37.2922 25.0383 37.2902 25.0388L23.7731 28.6607C23.7711 28.6612 23.7692 28.6617 23.7673 28.6622L19.9094 29.696C19.3781 29.8383 18.8275 29.522 18.6846 28.9889L12.7318 6.77256L35.914 0.560905L41.8668 22.7772ZM12.2141 4.84071C12.0376 4.18195 11.9329 3.52052 11.8704 2.86227L16.5261 1.61476C17.0593 1.47189 17.3761 0.923209 17.2332 0.390018L16.198 -3.47369C16.0551 -4.00688 15.5064 -4.32366 14.9732 -4.18079L13.1186 -3.68386C13.5793 -4.59203 14.1462 -5.44377 14.8226 -6.211L18.3193 -7.14792C18.8525 -7.29079 19.1693 -7.83947 19.0264 -8.37266C18.9456 -8.67403 18.73 -8.89163 18.4679 -9.0119C19.168 -9.35891 19.9132 -9.64555 20.6994 -9.85623C21.4857 -10.0669 22.2724 -10.1908 23.0541 -10.2408C22.8854 -10.0051 22.8093 -9.70931 22.8901 -9.40794C23.033 -8.87475 23.5817 -8.55797 24.1148 -8.70083L27.0126 -9.47729C27.1652 -9.51818 27.2944 -9.6004 27.4067 -9.69884C28.4481 -9.36705 29.4379 -8.89517 30.3508 -8.30119L28.4962 -7.80426C27.963 -7.66139 27.6462 -7.1127 27.7891 -6.57951C27.9319 -6.04632 28.4806 -5.72954 29.0138 -5.87241L32.2748 -6.74618C33.7234 -5.30397 34.8301 -3.48439 35.3964 -1.37095L12.2141 4.84071ZM37.8459 0.0432668L40.7436 -0.733189C41.2749 -0.875541 41.8255 -0.559274 41.9684 -0.0260826L44.5566 9.63318C44.6994 10.1664 44.3807 10.7156 43.8495 10.8579L40.9517 11.6344L37.8459 0.0432668ZM41.4693 13.5662L43.4012 13.0486L44.9541 18.8441L43.0222 19.3618L41.4693 13.5662ZM46.5764 28.7622C46.0451 28.9046 45.4945 28.5883 45.3516 28.0551L43.5399 21.2936L46.4376 20.5172C46.9689 20.3748 47.5195 20.6911 47.6624 21.2243L48.6977 25.088C48.7665 25.3449 48.9346 25.5628 49.1649 25.6958L51.972 27.3165L46.5764 28.7622ZM29.5315 -3.94055C28.9983 -3.79769 28.6815 -3.249 28.8244 -2.71581C28.9672 -2.18262 29.5159 -1.86584 30.0491 -2.0087C30.5823 -2.15157 30.8991 -2.70026 30.7562 -3.23345C30.6133 -3.76664 30.0647 -4.08342 29.5315 -3.94055ZM19.632 13.2059L33.1549 9.58241C33.6881 9.43954 34.0049 8.89085 33.862 8.35766C33.7192 7.82447 33.1705 7.50769 32.6373 7.65055L19.1143 11.274C18.5811 11.4169 18.2644 11.9656 18.4072 12.4988C18.5501 13.032 19.0988 13.3487 19.632 13.2059ZM23.2554 26.7288L36.7784 23.1054C37.3116 22.9625 37.6284 22.4138 37.4855 21.8806L35.4149 14.1532C35.2721 13.62 34.7234 13.3032 34.1902 13.4461L20.6672 17.0696C20.1341 17.2124 19.8173 17.7611 19.9601 18.2943L22.0307 26.0217C22.1736 26.5549 22.7222 26.8717 23.2554 26.7288ZM31.8101 16.1544L33.7419 15.6368L34.2596 17.5686L32.3277 18.0863L31.8101 16.1544ZM32.8453 20.0181L34.7772 19.5005L35.2948 21.4323L33.363 21.95L32.8453 20.0181ZM26.0145 17.7073L29.8782 16.6721L30.3959 18.6039L26.5321 19.6392L26.0145 17.7073ZM27.0498 21.571L30.9135 20.5358L31.4311 22.4676L27.5674 23.5029L27.0498 21.571ZM22.1508 18.7426L24.0827 18.225L24.6003 20.1568L22.6684 20.6745L22.1508 18.7426ZM23.1861 22.6063L25.1179 22.0887L25.6356 24.0205L23.7037 24.5382L23.1861 22.6063ZM18.5967 9.34217L32.1196 5.7187C32.6528 5.57584 32.9696 5.02715 32.8268 4.49396C32.6839 3.96077 32.1352 3.64398 31.602 3.78685L18.0791 7.41032C17.5459 7.55319 17.2291 8.10187 17.3719 8.63506C17.5148 9.16825 18.0635 9.48504 18.5967 9.34217Z" fill="#FEEBA3"/>
</g>
<g opacity="0.5" clip-path="url(#clip6)">
<path fill-rule="evenodd" clip-rule="evenodd" d="M86.17 47.635C86.3367 48.0594 86.1122 48.4883 85.6684 48.593L78.6679 50.2448C78.2241 50.3495 77.7293 50.0904 77.5626 49.666C77.3958 49.2417 77.6204 48.8128 78.0642 48.7081L85.0647 47.0563C85.5085 46.9516 86.0033 47.2107 86.17 47.635Z" fill="#FEEBA3"/>
<path fill-rule="evenodd" clip-rule="evenodd" d="M71.5216 44.8565C71.9641 44.7306 72.4431 44.9814 72.5916 45.4168L74.3487 50.5685C74.42 50.7775 74.404 51.0021 74.3042 51.1927C74.2044 51.3833 74.029 51.5243 73.8165 51.5848L68.5814 53.0752C68.3689 53.1356 68.1368 53.1106 67.9362 53.0055C67.7355 52.9004 67.5827 52.7239 67.5114 52.5148L65.7551 47.3635C65.6066 46.9281 65.8449 46.4731 66.2874 46.3472C66.7298 46.2213 67.2088 46.4722 67.3573 46.9076L68.8448 51.2705L72.4777 50.2363L70.9894 45.8729C70.8409 45.4375 71.0792 44.9825 71.5216 44.8565Z" fill="#FEEBA3"/>
<path fill-rule="evenodd" clip-rule="evenodd" d="M75.3903 41.4285C75.2637 41.0235 74.9814 40.6854 74.6054 40.4885C74.2295 40.2917 73.7908 40.2522 73.3857 40.3789L63.0663 43.6053C62.8638 43.6686 62.6947 43.8098 62.5963 43.9977C62.4978 44.1857 62.4781 44.4051 62.5414 44.6076L63.1465 46.543C63.2099 46.7455 63.351 46.9145 63.539 47.013C63.727 47.1114 63.9463 47.1311 64.1488 47.0678L74.4683 43.8414C74.8733 43.7148 75.2115 43.4324 75.4083 43.0565C75.6051 42.6806 75.6446 42.2418 75.518 41.8368L75.3903 41.4285C75.3903 41.4285 75.3903 41.4285 75.3903 41.4285ZM76.9174 40.9511C76.9174 40.9511 76.9174 40.9511 76.9174 40.9511L77.0451 41.3594C77.2983 42.1694 77.2194 43.0469 76.8257 43.7987C76.432 44.5506 75.7558 45.1152 74.9458 45.3685L64.6263 48.5949C64.0188 48.7849 63.3607 48.7257 62.7968 48.4304C62.2329 48.1351 61.8094 47.6279 61.6194 47.0204L61.0143 45.085C60.8244 44.4775 60.8835 43.8194 61.1788 43.2555C61.4741 42.6916 61.9813 42.2681 62.5888 42.0782L72.9083 38.8518C73.7183 38.5985 74.5958 38.6774 75.3476 39.0711C76.0991 39.4646 76.6636 40.1404 76.917 40.9498" fill="#FEEBA3"/>
<path fill-rule="evenodd" clip-rule="evenodd" d="M61.5079 43.3977C61.9331 43.2735 62.3914 43.5134 62.5315 43.9335L63.6375 47.2481C63.7048 47.4499 63.6883 47.6671 63.5915 47.852C63.4947 48.0369 63.3256 48.1743 63.1214 48.2339L51.382 51.6626C50.9568 51.7867 50.4985 51.5468 50.3584 51.1265C50.2182 50.7063 50.4493 50.265 50.8745 50.1408L61.8439 46.9371L61.2457 45.1442L50.2768 48.3484C49.8516 48.4726 49.3933 48.2326 49.2531 47.8124C49.113 47.3922 49.344 46.9509 49.7692 46.8267L61.5079 43.3977Z" fill="#FEEBA3"/>
<path fill-rule="evenodd" clip-rule="evenodd" d="M49.3718 48.725C49.24 48.3033 48.7912 48.0684 48.3695 48.2002L48.0973 48.2853C47.6756 48.4172 47.4407 48.8659 47.5725 49.2876L48.1776 51.223C48.3095 51.6447 48.7582 51.8797 49.1799 51.7478L49.4521 51.6627C49.8738 51.5309 50.1088 51.0821 49.9769 50.6604L49.3718 48.725ZM47.8921 46.6731C49.1572 46.2776 50.5034 46.9825 50.8989 48.2476L51.504 50.183C51.8996 51.4481 51.1946 52.7943 49.9295 53.1898L49.6574 53.2749C48.3923 53.6705 47.046 52.9656 46.6505 51.7004L46.0454 49.7651C45.6499 48.4999 46.3548 47.1537 47.6199 46.7582L47.8921 46.6731Z" fill="#FEEBA3"/>
<path fill-rule="evenodd" clip-rule="evenodd" d="M96.6651 42.8884C97.2027 42.8985 97.7235 43.0774 98.1538 43.3999C98.5841 43.7225 98.9019 44.1722 99.0624 44.6854L99.4707 45.9913L99.879 47.2973C100.039 47.8105 100.034 48.3612 99.8644 48.8714C99.6945 49.3816 99.3684 49.8253 98.9322 50.1399L91.6478 55.393C91.3314 55.6212 90.967 55.7741 90.5825 55.84C90.1979 55.906 89.8034 55.8833 89.429 55.7736L88.1171 55.3893C87.7124 55.2707 87.3431 55.054 87.0422 54.7585C86.7413 54.463 86.518 54.0977 86.3921 53.6951L84.3331 47.1094C84.2072 46.7069 84.1827 46.2795 84.2617 45.8651C84.3407 45.4508 84.5207 45.0624 84.7858 44.7344L85.6452 43.6712C85.8904 43.3678 86.2017 43.1244 86.5553 42.9596C86.909 42.7948 87.2956 42.7129 87.6857 42.7202L96.6651 42.8884C96.6651 42.8884 96.6651 42.8884 96.6651 42.8884ZM97.1868 44.69C97.0273 44.5704 96.8342 44.5041 96.6349 44.5003L87.6555 44.3321C87.5109 44.3294 87.3675 44.3598 87.2364 44.4209C87.1053 44.482 86.9899 44.5722 86.899 44.6847L86.0397 45.7478C86.0397 45.7478 86.0397 45.7478 86.0397 45.7478C85.9414 45.8694 85.8747 46.0134 85.8454 46.167C85.8161 46.3206 85.8252 46.4791 85.8719 46.6283L86.9014 49.9212L87.9309 53.214C87.9775 53.3633 88.0603 53.4987 88.1719 53.6082C88.2834 53.7178 88.4203 53.7981 88.5704 53.8421L89.8822 54.2264C90.021 54.2671 90.1673 54.2755 90.3099 54.251C90.4524 54.2266 90.5875 54.1699 90.7048 54.0853L97.9892 48.8322C98.1509 48.7156 98.2718 48.5511 98.3348 48.3619C98.3978 48.1728 98.3997 47.9686 98.3402 47.7784L97.9319 46.4724L97.5236 45.1665C97.5236 45.1665 97.5236 45.1665 97.5236 45.1665C97.4641 44.9763 97.3463 44.8095 97.1868 44.69Z" fill="#FEEBA3"/>
<path fill-rule="evenodd" clip-rule="evenodd" d="M77.9679 50.2611C77.7527 50.1484 77.5015 50.1258 77.2696 50.1983L65.1455 53.9889C64.9136 54.0614 64.72 54.2231 64.6073 54.4383C64.4946 54.6536 64.472 54.9048 64.5445 55.1367L65.0499 56.7532L65.5554 58.3697C65.6279 58.6016 65.7895 58.7953 66.0048 58.908C66.22 59.0207 66.4712 59.0433 66.7031 58.9708L78.8272 55.1802C79.0591 55.1077 79.2527 54.946 79.3654 54.7307C79.4781 54.5155 79.5007 54.2643 79.4282 54.0324L78.4173 50.7993C78.3448 50.5674 78.1832 50.3738 77.9679 50.2611ZM76.8055 48.714C77.4311 48.5184 78.1087 48.5794 78.6893 48.8834C79.2699 49.1874 79.706 49.7097 79.9016 50.3352L80.407 51.9518L80.9124 53.5683C81.108 54.1939 81.0471 54.8715 80.743 55.4521C80.439 56.0328 79.9168 56.4688 79.2912 56.6644L67.1672 60.455C66.5416 60.6506 65.864 60.5897 65.2834 60.2856C64.7028 59.9816 64.2667 59.4594 64.0711 58.8338C64.0711 58.8338 64.0711 58.8338 64.0711 58.8338L63.5657 57.2173L63.0602 55.6007C62.8647 54.9752 62.9256 54.2976 63.2296 53.7169C63.5337 53.1363 64.0559 52.7002 64.6815 52.5046L76.8055 48.714Z" fill="#FEEBA3"/>
<path fill-rule="evenodd" clip-rule="evenodd" d="M87.6025 52.2168C87.7073 52.6606 87.4481 53.1554 87.0238 53.3221L80.3291 55.9522C79.9047 56.1189 79.4758 55.8943 79.3711 55.4506C79.2664 55.0068 79.5255 54.512 79.9499 54.3452L86.6446 51.7152C87.069 51.5485 87.4978 51.7731 87.6025 52.2168Z" fill="#FEEBA3"/>
<path fill-rule="evenodd" clip-rule="evenodd" d="M75.8235 56.0518C76.0141 56.1516 76.1552 56.3271 76.2156 56.5395L77.706 61.7746C77.8319 62.217 77.5811 62.6961 77.1457 62.8446C76.7103 62.9931 76.2553 62.7548 76.1294 62.3124L74.8671 57.8784L71.2921 59.0977L72.5547 63.5309C72.6807 63.9733 72.4299 64.4524 71.9945 64.6009C71.5592 64.7495 71.1041 64.5112 70.9781 64.0688L69.4874 58.8345C69.4269 58.622 69.4519 58.3899 69.557 58.1892C69.662 57.9886 69.8385 57.8358 70.0476 57.7644L75.1993 56.0073C75.4084 55.936 75.6329 55.952 75.8235 56.0518Z" fill="#FEEBA3"/>
<path fill-rule="evenodd" clip-rule="evenodd" d="M69.9066 68.1646C69.9699 68.3671 70.1111 68.5362 70.2991 68.6346C70.487 68.733 70.7064 68.7528 70.9089 68.6894L81.2284 65.463C81.6334 65.3364 81.9715 65.0541 82.1684 64.6781C82.3652 64.3022 82.4047 63.8635 82.2781 63.4585L82.1504 63.0502C82.0238 62.6452 81.7414 62.307 81.3655 62.1102C80.9896 61.9133 80.5509 61.8739 80.1458 62.0005L69.8264 65.2269C69.6238 65.2902 69.4548 65.4314 69.3564 65.6194C69.2579 65.8073 69.2382 66.0267 69.3015 66.2292L69.9066 68.1646ZM68.3795 68.6421L67.7744 66.7067C67.5845 66.0991 67.6436 65.441 67.9389 64.8772C68.2342 64.3133 68.7414 63.8898 69.3489 63.6998L79.6684 60.4734C80.4784 60.2201 81.3559 60.299 82.1077 60.6927C82.8596 61.0864 83.4243 61.7627 83.6775 62.5727L83.8052 62.981C84.0584 63.791 83.9795 64.6685 83.5858 65.4204C83.1921 66.1722 82.5159 66.7369 81.7059 66.9901L71.3864 70.2166C70.7788 70.4065 70.1208 70.3473 69.5569 70.052C68.993 69.7568 68.5695 69.2496 68.3795 68.6421Z" fill="#FEEBA3"/>
<path fill-rule="evenodd" clip-rule="evenodd" d="M68.9215 64.8998C69.1063 64.9966 69.2437 65.1658 69.3033 65.37L70.2823 68.7242C70.4064 69.1494 70.1664 69.6076 69.7463 69.7477L58.1449 73.616C57.7247 73.7561 57.2834 73.525 57.1592 73.0998C57.0351 72.6746 57.2751 72.2163 57.6953 72.0762L68.5358 68.4616L68.0063 66.6473L57.1655 70.2625C56.7453 70.4026 56.304 70.1716 56.1798 69.7464C56.0556 69.3212 56.2956 68.8629 56.7158 68.7227L68.3175 64.8537C68.5193 64.7864 68.7366 64.803 68.9215 64.8998Z" fill="#FEEBA3"/>
<path fill-rule="evenodd" clip-rule="evenodd" d="M92.0973 48.1473C92.034 47.9448 91.8928 47.7757 91.7048 47.6773C91.5169 47.5789 91.2975 47.5591 91.095 47.6224C91.095 47.6224 91.095 47.6224 91.095 47.6224L86.7328 48.9863L87.2954 50.7856L91.6575 49.4218C91.8601 49.3584 92.0291 49.2173 92.1275 49.0293C92.226 48.8413 92.2457 48.622 92.1824 48.4195L92.0973 48.1473ZM93.6244 47.6698C93.6244 47.6698 93.6244 47.6698 93.6244 47.6698L93.7095 47.942C93.8994 48.5495 93.8403 49.2076 93.545 49.7715C93.2497 50.3354 92.7425 50.7589 92.135 50.9489L87.0093 52.5514C86.5876 52.6833 86.1388 52.4483 86.007 52.0266L84.967 48.7002C84.8351 48.2785 85.0701 47.8298 85.4918 47.6979L90.6175 46.0953C91.2251 45.9054 91.8832 45.9646 92.447 46.2598C93.0109 46.5551 93.4344 47.0623 93.6244 47.6698Z" fill="#FEEBA3"/>
<path fill-rule="evenodd" clip-rule="evenodd" d="M77.4912 52.8634C77.6271 53.2983 77.3848 53.7611 76.9499 53.8971L67.5152 56.8469C67.0803 56.9829 66.6174 56.7405 66.4814 56.3056C66.3455 55.8706 66.5878 55.4078 67.0227 55.2718L76.4574 52.3221C76.8924 52.1861 77.3552 52.4284 77.4912 52.8634Z" fill="#FEEBA3"/>
<path fill-rule="evenodd" clip-rule="evenodd" d="M72.1449 39.2183C72.5402 39.0737 72.9469 39.2866 73.0533 39.6939L74.3116 44.5124C74.4179 44.9197 74.1837 45.367 73.7884 45.5116C73.3931 45.6562 72.9865 45.4432 72.8801 45.036L71.6218 40.2174C71.5154 39.8102 71.7497 39.3628 72.1449 39.2183Z" fill="#FEEBA3"/>
<path fill-rule="evenodd" clip-rule="evenodd" d="M78.6356 61.015C79.0429 60.9086 79.4902 61.1429 79.6348 61.5382L81.3453 66.2153C81.4899 66.6106 81.2769 67.0173 80.8697 67.1236C80.4624 67.23 80.0151 66.9958 79.8705 66.6005L78.16 61.9233C78.0155 61.528 78.2284 61.1213 78.6356 61.015Z" fill="#FEEBA3"/>
<path fill-rule="evenodd" clip-rule="evenodd" d="M97.6117 43.0812C97.9991 43.3202 98.1196 43.8273 97.881 44.2139L96.6991 46.1285C96.6274 46.2458 96.5827 46.3775 96.5682 46.5142C96.5536 46.6512 96.5698 46.7899 96.6156 46.92C96.6613 47.0501 96.7355 47.1684 96.8327 47.2664C96.9299 47.3644 97.0477 47.4396 97.1775 47.4865L97.1841 47.489L99.188 48.2324C99.6147 48.3908 99.8326 48.8645 99.6748 49.2905C99.5169 49.7165 99.0431 49.9336 98.6163 49.7752L96.6154 49.0328C96.2569 48.9027 95.9317 48.6947 95.6631 48.424C95.3937 48.1523 95.1881 47.8241 95.0612 47.4634C94.9344 47.1027 94.8895 46.7184 94.9298 46.3384C94.9701 45.9584 95.0945 45.5922 95.2942 45.2665L95.2955 45.2643L95.2955 45.2644L96.4783 43.3485C96.7169 42.9619 97.2244 42.8422 97.6117 43.0812Z" fill="#FEEBA3"/>
</g>
<g opacity="0.5" clip-path="url(#clip7)">
<path fill-rule="evenodd" clip-rule="evenodd" d="M235.693 -1.55364C236.859 -1.56953 238.016 -1.35565 239.099 -0.924214C240.183 -0.492775 241.17 0.147776 242.006 0.960869C242.841 1.77396 243.509 2.74367 243.969 3.81463L244.537 5.13361L243.802 5.44981L244.537 5.13362C244.998 6.20458 245.243 7.35581 245.259 8.52159C245.275 9.68737 245.061 10.8449 244.63 11.928C244.198 13.0111 243.558 13.9987 242.744 14.8342C241.931 15.6698 240.962 16.337 239.891 16.7978L223.701 23.764C222.822 24.142 222.13 24.8536 221.776 25.7421C221.422 26.6306 221.436 27.6234 221.814 28.5019L222.165 29.3182C222.339 29.724 222.152 30.1946 221.746 30.3692C221.34 30.5439 220.87 30.3564 220.695 29.9506L220.344 29.1343C219.798 27.866 219.779 26.4328 220.289 25.15C220.8 23.8673 221.8 22.84 223.068 22.2943L239.258 15.3281C240.136 14.9504 240.931 14.4034 241.598 13.7184C242.264 13.0334 242.789 12.2238 243.143 11.3359C243.497 10.448 243.672 9.49909 243.659 8.5434C243.646 7.58772 243.445 6.64396 243.067 5.76601L242.5 4.44702L243.234 4.13082L242.5 4.44702C242.122 3.56907 241.575 2.77412 240.89 2.10756C240.205 1.441 239.395 0.915889 238.507 0.562203C237.619 0.208516 236.671 0.0331831 235.715 0.0462136C234.759 0.0592441 233.815 0.260384 232.937 0.638148L216.748 7.6043L216.487 6.99912L216.748 7.6043C215.479 8.15004 214.046 8.16959 212.763 7.65862C211.481 7.14766 210.453 6.14806 209.908 4.87971L210.642 4.56351L209.908 4.8797L209.562 4.07696C209.388 3.67111 209.575 3.20053 209.981 3.0259C210.387 2.85127 210.857 3.03872 211.032 3.44457L211.377 4.24731C211.755 5.12587 212.467 5.81828 213.355 6.17221C214.244 6.52614 215.237 6.5126 216.115 6.13458L232.305 -0.831574C233.376 -1.29239 234.527 -1.53774 235.693 -1.55364Z" fill="#FEEBA3"/>
<path fill-rule="evenodd" clip-rule="evenodd" d="M201.806 6.06935C202.231 5.94723 202.674 6.19246 202.796 6.61708C203.303 8.37821 203.185 10.2603 202.463 11.9446C201.742 13.6285 200.46 15.0113 198.836 15.8591C198.836 15.8594 198.835 15.8596 198.835 15.8598L196.839 16.9109L198.91 21.7227C199.084 22.1285 198.897 22.5991 198.491 22.7737C198.085 22.9483 197.615 22.7609 197.44 22.355L195.077 16.864C194.912 16.4805 195.07 16.0345 195.439 15.84L198.092 14.4428L198.095 14.4413C199.392 13.7642 200.416 12.6596 200.993 11.3143C201.569 9.96905 201.663 8.46588 201.259 7.05929C201.137 6.63467 201.382 6.19146 201.806 6.06935Z" fill="#FEEBA3"/>
<path fill-rule="evenodd" clip-rule="evenodd" d="M199.531 25.1896C199.936 25.015 200.407 25.2025 200.582 25.6083L202.628 30.363L204.744 29.6324C204.744 29.6324 204.744 29.6325 204.744 29.6324C206.48 29.0315 208.371 29.0504 210.095 29.6861C211.819 30.3218 213.269 31.535 214.2 33.1195C214.424 33.5005 214.296 33.9907 213.915 34.2144C213.534 34.4381 213.044 34.3107 212.82 33.9297C212.077 32.6641 210.918 31.695 209.541 31.1872C208.164 30.6795 206.654 30.6643 205.267 31.1444L202.447 32.1178C202.051 32.2545 201.617 32.0626 201.451 31.6778L199.112 26.2407C198.937 25.8348 199.125 25.3643 199.531 25.1896Z" fill="#FEEBA3"/>
<path fill-rule="evenodd" clip-rule="evenodd" d="M211.805 -1.47944L211.8 -1.47845C210.785 -1.26039 209.8 -0.918793 208.867 -0.461281L200.823 3.48587C199.67 4.05181 198.554 4.69142 197.483 5.40072L198.086 6.80222C199.338 6.51222 200.569 6.14192 201.773 5.69358L210.17 2.56658C210.17 2.56658 210.17 2.56658 210.17 2.56658C211.143 2.20411 212.069 1.7238 212.925 1.13638C212.93 1.13286 212.935 1.1294 212.941 1.126L213.378 1.79607L212.925 1.13638C213.136 0.991927 213.29 0.778778 213.361 0.533438C213.432 0.288097 213.415 0.0257212 213.314 -0.208888L213.045 -0.834306C213.045 -0.834575 213.045 -0.834845 213.045 -0.835114C212.943 -1.06882 212.765 -1.26045 212.538 -1.37774C212.313 -1.49477 212.054 -1.53066 211.805 -1.47944ZM196.92 4.81473L196.462 4.15862C196.191 4.34742 195.994 4.62322 195.902 4.94009C195.81 5.25697 195.829 5.59581 195.956 5.90019L195.959 5.90749L196.671 7.56021L196.671 7.56179C196.803 7.86683 197.037 8.11671 197.332 8.26888C197.625 8.41956 197.96 8.46523 198.283 8.39843C198.289 8.39717 198.295 8.39583 198.301 8.39442C199.67 8.08411 201.016 7.68274 202.331 7.19299L210.728 4.06598C211.823 3.65819 212.864 3.1179 213.828 2.45717C213.829 2.45672 213.829 2.45627 213.83 2.45583C214.346 2.10177 214.724 1.57949 214.898 0.97816C215.072 0.37683 215.032 -0.266253 214.784 -0.841278L214.514 -1.46863L214.513 -1.47057C214.266 -2.04242 213.828 -2.51131 213.275 -2.79818C212.721 -3.08505 212.086 -3.17234 211.476 -3.04534L211.464 -3.04278C211.464 -3.0428 211.464 -3.04277 211.464 -3.04278C210.321 -2.7973 209.212 -2.41271 208.162 -1.89767L200.118 2.04948C198.858 2.66771 197.641 3.36939 196.475 4.14985L196.92 4.81473Z" fill="#FEEBA3"/>
<path fill-rule="evenodd" clip-rule="evenodd" d="M231.331 10.0776C230.143 7.3167 226.942 6.04158 224.181 7.22953L218.11 9.84184C215.349 11.0298 214.074 14.231 215.262 16.9919L215.262 16.9919C216.45 19.7528 219.651 21.0279 222.412 19.8399L228.483 17.2276C231.244 16.0397 232.519 12.8385 231.331 10.0776L231.331 10.0776ZM223.549 5.75981C227.121 4.2226 231.264 5.8726 232.801 9.4452L232.801 9.44521C234.338 13.0178 232.688 17.1601 229.116 18.6973L223.044 21.3097C219.472 22.8469 215.329 21.1969 213.792 17.6243L213.792 17.6243C212.255 14.0517 213.905 9.90934 217.478 8.37212L223.549 5.75981Z" fill="#FEEBA3"/>
<path fill-rule="evenodd" clip-rule="evenodd" d="M201.747 9.90168C202.153 9.72705 202.623 9.91449 202.798 10.3203L206.17 18.1584C206.345 18.5642 206.157 19.0348 205.752 19.2094C205.346 19.3841 204.875 19.1966 204.701 18.7908L201.328 10.9527C201.153 10.5469 201.341 10.0763 201.747 9.90168Z" fill="#FEEBA3"/>
<path fill-rule="evenodd" clip-rule="evenodd" d="M207.11 22.3676C207.516 22.193 207.987 22.3804 208.162 22.7863L211.505 30.5578C211.68 30.9637 211.493 31.4342 211.087 31.6089C210.681 31.7835 210.21 31.596 210.036 31.1902L206.692 23.4187C206.517 23.0128 206.705 22.5423 207.11 22.3676Z" fill="#FEEBA3"/>
<path fill-rule="evenodd" clip-rule="evenodd" d="M205.137 15.7574C205.312 16.1632 205.124 16.6338 204.718 16.8084L197.298 20.0012C196.892 20.1759 196.422 19.9884 196.247 19.5826C196.072 19.1767 196.26 18.7061 196.666 18.5315L204.086 15.3387C204.492 15.1641 204.962 15.3515 205.137 15.7574Z" fill="#FEEBA3"/>
<path fill-rule="evenodd" clip-rule="evenodd" d="M209.201 25.2014C209.375 25.6073 209.188 26.0779 208.782 26.2525L201.362 29.4453C200.956 29.62 200.485 29.4325 200.311 29.0267C200.136 28.6208 200.324 28.1502 200.729 27.9756L208.15 24.7828C208.556 24.6082 209.026 24.7956 209.201 25.2014Z" fill="#FEEBA3"/>
<path fill-rule="evenodd" clip-rule="evenodd" d="M232.45 5.29121C231.2 4.79313 229.803 4.81218 228.567 5.34417L219.104 9.41556C217.092 10.2815 214.925 10.7308 212.734 10.7364C210.543 10.7419 208.373 10.3035 206.356 9.44774L201.664 7.45682C201.258 7.28424 201.068 6.81462 201.24 6.40789C201.413 6.00116 201.883 5.81134 202.289 5.98392L206.981 7.97485C208.799 8.74623 210.755 9.14134 212.73 9.13636C214.705 9.13137 216.658 8.72639 218.472 7.94584L227.934 3.87444C229.56 3.17474 231.398 3.14968 233.043 3.80479C234.687 4.4599 236.004 5.74151 236.704 7.36768L236.994 8.04226L236.259 8.35845L236.994 8.04226C237.694 9.66843 237.719 11.506 237.064 13.1506C236.409 14.7952 235.127 16.1123 233.501 16.812L223.661 21.0457C220.207 22.5319 217.459 25.2917 215.986 28.7518L214.033 33.3421C213.86 33.7487 213.39 33.938 212.983 33.765C212.577 33.592 212.388 33.1222 212.561 32.7156L214.514 28.1253C216.147 24.2866 219.197 21.2248 223.029 19.576L232.869 15.3423C234.105 14.8103 235.079 13.8089 235.577 12.5585C236.075 11.3081 236.056 9.91102 235.524 8.67465L235.234 8.00007C234.702 6.7637 233.701 5.78929 232.45 5.29121Z" fill="#FEEBA3"/>
<path fill-rule="evenodd" clip-rule="evenodd" d="M244.271 4.5137C244.445 4.91955 244.258 5.39012 243.852 5.56475L232.379 10.5015C231.973 10.6761 231.502 10.4887 231.328 10.0828C231.153 9.67695 231.34 9.20638 231.746 9.03175L243.22 4.09503C243.625 3.9204 244.096 4.10785 244.271 4.5137Z" fill="#FEEBA3"/>
<path fill-rule="evenodd" clip-rule="evenodd" d="M209.297 -2.10884C209.46 -2.5193 209.926 -2.71951 210.336 -2.55601L210.344 -2.55305C210.541 -2.47453 210.699 -2.32093 210.782 -2.12603L212.696 2.32196C212.78 2.51685 212.783 2.73708 212.705 2.93419L212.702 2.94163C212.538 3.35209 212.073 3.55229 211.662 3.38879C211.425 3.29434 211.258 3.09918 211.191 2.87205L209.348 -1.41135C209.229 -1.61631 209.203 -1.87172 209.297 -2.10884Z" fill="#FEEBA3"/>
<path fill-rule="evenodd" clip-rule="evenodd" d="M198.698 2.81611C199.104 2.64148 199.574 2.82892 199.749 3.23477L201.218 6.6483C201.392 7.05415 201.205 7.52473 200.799 7.69935C200.393 7.87398 199.923 7.68654 199.748 7.28069L198.279 3.86717C198.105 3.46131 198.292 2.99074 198.698 2.81611Z" fill="#FEEBA3"/>
<path fill-rule="evenodd" clip-rule="evenodd" d="M225.218 29.694L225.213 29.695C224.198 29.9131 223.213 30.2547 222.28 30.7122L214.236 34.6593C213.083 35.2253 211.967 35.8649 210.896 36.5742L211.499 37.9757C212.751 37.6857 213.982 37.3154 215.186 36.867L223.583 33.74C223.583 33.74 223.583 33.74 223.583 33.74C224.556 33.3777 225.481 32.8976 226.337 32.3104C226.338 32.3102 226.338 32.31 226.338 32.3098C226.549 32.1654 226.703 31.9522 226.774 31.7069C226.845 31.4616 226.828 31.1992 226.728 30.9646L226.458 30.3392C226.458 30.3389 226.458 30.3387 226.458 30.3384C226.357 30.1047 226.178 29.913 225.951 29.7957C225.726 29.6787 225.467 29.6428 225.218 29.694ZM224.889 28.1281C225.499 28.0011 226.135 28.0884 226.688 28.3753C227.241 28.6621 227.679 29.131 227.926 29.7029L227.927 29.7048L228.197 30.3322C228.445 30.9072 228.485 31.5503 228.311 32.1516C228.137 32.7526 227.76 33.2746 227.244 33.6286C227.244 33.6289 227.244 33.6291 227.243 33.6293C226.279 34.2906 225.237 34.8314 224.142 35.2394L215.745 38.3664C214.429 38.8562 213.083 39.2576 211.714 39.5679C211.709 39.5692 211.703 39.5705 211.697 39.5717C211.374 39.6388 211.039 39.5932 210.746 39.4423C210.45 39.2902 210.216 39.0403 210.084 38.7352L210.084 38.7337L209.373 37.0809L209.369 37.0736C209.242 36.7693 209.223 36.4304 209.315 36.1136C209.407 35.7967 209.605 35.5209 209.875 35.3321C209.879 35.3291 209.884 35.3262 209.888 35.3233C211.054 34.5429 212.272 33.8412 213.531 33.2229L221.576 29.2758C222.625 28.7608 223.734 28.3763 224.877 28.1308C224.877 28.1308 224.877 28.1307 224.877 28.1307L224.889 28.1281Z" fill="#FEEBA3"/>
<path fill-rule="evenodd" clip-rule="evenodd" d="M222.707 29.0583C222.871 28.6478 223.336 28.4476 223.747 28.6111L223.754 28.6141C223.951 28.6925 224.109 28.8457 224.193 29.0402L226.118 33.5016C226.293 33.9072 226.107 34.378 225.701 34.5531C225.295 34.7282 224.824 34.5413 224.649 34.1357L222.759 29.7565C222.64 29.5514 222.613 29.2957 222.707 29.0583Z" fill="#FEEBA3"/>
<path fill-rule="evenodd" clip-rule="evenodd" d="M212.111 33.9896C212.517 33.8149 212.988 34.0024 213.162 34.4082L214.631 37.8218C214.806 38.2276 214.618 38.6982 214.212 38.8728C213.806 39.0475 213.336 38.86 213.161 38.4542L211.693 35.0406C211.518 34.6348 211.705 34.1642 212.111 33.9896Z" fill="#FEEBA3"/>
<path fill-rule="evenodd" clip-rule="evenodd" d="M208.438 18.3802L208.433 18.3812C207.418 18.5992 206.433 18.9408 205.5 19.3983L197.456 23.3455C196.303 23.9114 195.187 24.551 194.116 25.2603L194.719 26.6618C195.971 26.3718 197.202 26.0015 198.406 25.5532L206.803 22.4262C207.776 22.0638 208.701 21.5837 209.557 20.9965C209.558 20.9963 209.558 20.9962 209.558 20.996C209.769 20.8515 209.923 20.6384 209.994 20.3931C210.065 20.1477 210.048 19.8853 209.947 19.6507L209.678 19.0253C209.678 19.025 209.678 19.0247 209.678 19.0244C209.576 18.7908 209.398 18.5992 209.171 18.4819C208.946 18.3649 208.687 18.329 208.438 18.3802ZM193.553 24.6743L193.095 24.0182C192.825 24.207 192.627 24.4828 192.535 24.7997C192.443 25.1166 192.462 25.4554 192.589 25.7598L192.593 25.7671L193.304 27.4214C193.436 27.7264 193.67 27.9763 193.966 28.1285C194.258 28.2792 194.594 28.3248 194.916 28.258C194.922 28.2568 194.928 28.2554 194.934 28.254C196.303 27.9437 197.649 27.5423 198.965 27.0526L207.361 23.9256C208.457 23.5175 209.499 22.9768 210.463 22.3155C210.463 22.3153 210.464 22.315 210.464 22.3148C210.98 21.9608 211.357 21.4388 211.531 20.8378C211.705 20.2365 211.665 19.5934 211.417 19.0183L211.147 18.391L211.146 18.3891C210.899 17.8172 210.461 17.3483 209.908 17.0614C209.355 16.7746 208.719 16.6873 208.109 16.8143L208.097 16.8168C208.097 16.8169 208.097 16.8169 208.096 16.817C206.954 17.0625 205.845 17.447 204.795 17.962L196.751 21.9091C195.492 22.5273 194.274 23.229 193.108 24.0094L193.553 24.6743Z" fill="#FEEBA3"/>
<path fill-rule="evenodd" clip-rule="evenodd" d="M206.362 17.3059C206.768 17.1312 207.239 17.3187 207.413 17.7245L209.332 22.1829C209.416 22.3778 209.419 22.598 209.34 22.7951L209.337 22.8026C209.174 23.213 208.708 23.4132 208.298 23.2497C208.061 23.1553 207.894 22.9601 207.827 22.733L205.944 18.3569C205.769 17.9511 205.957 17.4805 206.362 17.3059Z" fill="#FEEBA3"/>
<path fill-rule="evenodd" clip-rule="evenodd" d="M195.331 22.6756C195.737 22.501 196.207 22.6884 196.382 23.0943L197.851 26.5078C198.025 26.9136 197.838 27.3842 197.432 27.5588C197.026 27.7335 196.556 27.546 196.381 27.1402L194.912 23.7267C194.738 23.3208 194.925 22.8502 195.331 22.6756Z" fill="#FEEBA3"/>
</g>
<g opacity="0.5" clip-path="url(#clip8)">
<path d="M16.8038 61.4686C19.4637 60.7558 21.0508 58.007 20.338 55.3471C19.6253 52.6871 16.8765 51.1001 14.2165 51.8128C11.5566 52.5256 9.96957 55.2744 10.6823 57.9343C11.395 60.5943 14.1362 62.1833 16.8038 61.4686ZM16.3918 59.931C14.8389 60.3471 13.2395 59.6057 12.5119 58.2433L18.9122 56.5448C18.9458 58.0849 17.9447 59.5149 16.3918 59.931ZM14.6265 53.3427C16.1717 52.9286 17.7593 53.6568 18.4925 55.0094L12.1076 56.7037C12.0781 55.1791 13.0812 53.7567 14.6265 53.3427Z" fill="#FEEBA3"/>
<path d="M8.60658 58.4905C7.89385 55.8306 5.14503 54.2435 2.48509 54.9563C-0.174847 55.669 -1.76188 58.4178 -1.04915 61.0777C-0.336421 63.7377 2.4124 65.3247 5.07234 64.612C7.73228 63.8993 9.31931 61.1504 8.60658 58.4905ZM2.89501 56.4861C4.44024 56.0721 6.01041 56.7966 6.75693 58.1374L0.376155 59.8472C0.344586 58.3148 1.34979 56.9001 2.89501 56.4861ZM4.66036 63.0745C3.09976 63.4926 1.50803 62.7491 0.780449 61.3868L7.1766 59.6729C7.21998 61.2186 6.21327 62.6583 4.66036 63.0745Z" fill="#FEEBA3"/>
<path d="M30.7136 45.9752C30.1098 45.6591 28.7784 45.7027 28.6318 45.709C28.2807 45.7207 27.9629 45.7647 27.6553 45.8471C26.5099 46.154 25.7812 46.9095 25.0747 47.7168C24.2054 48.7161 23.1706 49.4053 22.461 49.8014C22.0537 50.0342 21.6134 50.4817 21.0452 51.2519C19.0416 48.1716 16.7657 46.3507 14.5917 45.3101C14.4644 45.2041 14.3203 45.1274 14.15 45.107C10.1301 43.358 6.56849 44.1805 5.97654 44.3391L5.88429 44.3638C5.29234 44.5224 1.80433 45.5889 -0.802509 49.1136C-0.95516 49.2204 -1.05495 49.3707 -1.10807 49.5415C-2.48525 51.5667 -3.55651 54.3339 -3.72889 58.0879C-4.90655 57.6289 -5.46749 57.565 -5.79766 57.5628C-6.61793 57.5766 -7.85101 57.495 -9.10348 57.0644L-9.27633 57.0036C-10.3267 56.6506 -11.3171 56.3062 -12.4472 56.609C-12.7086 56.679 -12.9694 56.7819 -13.222 56.9155C-13.7195 57.1806 -14.5906 57.9579 -14.8557 58.3832L-15.1294 58.8685L-14.5085 59.7403L-13.9985 59.6449C-13.4962 59.5515 -10.9352 59.269 -9.40518 62.4268L-9.34559 62.5262C-9.22285 62.7075 -6.47162 66.7329 -2.4927 67.191C-2.11121 68.5225 -1.32695 69.6966 -0.271852 70.5592C1.7407 75.0874 6.28694 77.9396 11.4121 77.9093C12.3494 78.4245 13.4227 78.6478 14.4838 78.487C14.6668 78.4627 14.861 78.4189 15.0455 78.3695C15.23 78.32 15.4202 78.2609 15.5908 78.1904C16.59 77.7991 17.4079 77.0691 17.96 76.1466C22.3926 73.6241 24.9001 68.8983 24.4005 63.9895C24.8969 62.7359 25.0029 61.348 24.666 60.0293C24.6495 59.9678 24.633 59.9062 24.6165 59.8447C27.6891 57.3818 27.9991 52.5115 28.0091 52.3028L28.0075 52.2044C27.7536 48.7046 30.1204 47.6667 30.5944 47.4985L31.1064 47.2872L31.1558 46.211L30.7136 45.9752ZM-7.99672 61.6869C-9.13816 59.3643 -10.7593 58.4803 -12.087 58.1686C-11.4187 57.9566 -10.7371 58.1942 -9.79334 58.5181L-9.6205 58.5789C-8.15825 59.0852 -6.72624 59.1712 -5.78036 59.1649C-5.60862 59.1601 -5.06305 59.2281 -3.65296 59.8473C-3.55798 61.2473 -3.35036 63.3752 -2.89714 65.5279C-5.67101 64.8622 -7.73379 62.0531 -7.99672 61.6869ZM2.37166 71.9685C2.39884 71.9777 2.43371 71.9848 2.4609 71.994C2.69579 72.0712 2.93632 72.1385 3.16504 72.1926C5.43067 72.7144 7.34778 73.7497 8.69836 75.1923C8.87136 75.3767 9.02485 75.5498 9.17066 75.7249C9.21995 75.7859 9.25949 75.8412 9.30878 75.9022C9.38375 75.9974 9.46078 76.1004 9.52599 76.19C6.62269 75.7485 4.07389 74.2315 2.37166 71.9685ZM14.2471 76.9272C13.5115 77.0419 12.7577 76.8731 12.1025 76.4884L12.0343 76.449C11.8178 76.3175 11.6105 76.1588 11.4242 75.9863C11.4026 75.9673 11.3908 75.954 11.3693 75.9351C11.1907 75.7605 11.0253 75.574 10.8908 75.3794L10.8887 75.3717C10.6176 74.9747 10.2725 74.5481 9.85982 74.1148C8.29108 72.4423 6.09897 71.2417 3.52514 70.6459C2.97283 70.522 2.36657 70.289 1.71459 69.9775C1.64841 69.9458 1.58787 69.9044 1.52169 69.8727C1.43603 69.8297 1.35805 69.7847 1.278 69.732C1.13948 69.6455 1.00658 69.5493 0.873682 69.453C0.863934 69.4474 0.854187 69.4418 0.852127 69.4341L0.760279 69.3681C-0.0813265 68.6872 -0.691492 67.7631 -0.985508 66.6966C-1.01229 66.5966 -1.037 66.5044 -1.0561 66.4024L-1.09317 66.264C-1.34147 65.2758 -1.53032 64.2635 -1.67194 63.3045C-1.67812 63.2814 -1.67455 63.264 -1.68073 63.2409C-1.77222 62.6227 -1.84777 62.0333 -1.90328 61.4878C-1.91207 61.4243 -1.9188 61.3684 -1.91785 61.3105C-1.94066 61.1023 -1.9614 60.9019 -1.98009 60.7092C-1.98682 60.6533 -1.99355 60.5974 -1.99054 60.5472C-2.03163 60.0556 -2.06393 59.6275 -2.08537 59.2707L-2.1016 58.9949C-2.12319 58.5146 -2.13379 58.229 -2.13379 58.229C-2.00201 54.8155 -1.04783 52.3186 0.170675 50.5007C1.45496 50.5274 2.34818 52.7847 2.35436 52.8077C2.49992 53.1972 2.91645 53.3987 3.30084 53.2957C3.3239 53.2895 3.34696 53.2833 3.37771 53.2751C3.79024 53.1234 3.99681 52.6643 3.84507 52.2517C3.45263 51.1869 2.54904 49.6904 1.24411 49.1255C1.72181 48.602 2.22011 48.1554 2.70414 47.7785C2.79695 47.7866 2.88769 47.787 2.97994 47.7622C3.17213 47.7107 3.33468 47.7331 3.52194 47.8477C4.31974 48.3343 4.96732 50.1054 5.18692 51.1094C5.28484 51.5364 5.70454 51.8112 6.13148 51.7133C6.14686 51.7091 6.15454 51.7071 6.16992 51.703C6.57737 51.5938 6.82911 51.1803 6.743 50.7666C6.67392 50.4473 6.03133 47.7109 4.52634 46.6146C5.40299 46.1654 6.07333 45.9611 6.29627 45.9014L6.38852 45.8766C6.60378 45.819 7.28647 45.6608 8.26049 45.6058C7.46481 47.3103 8.18015 50.0108 8.26461 50.326C8.38559 50.7467 8.81448 50.9944 9.2373 50.8811L9.24499 50.879C9.66576 50.758 9.919 50.3194 9.79802 49.8986C9.61112 49.2318 9.20308 47.1247 9.74334 46.1889C9.8559 45.994 9.9988 45.8815 10.191 45.83C10.2832 45.8053 10.3693 45.7575 10.4456 45.7041C11.0533 45.7885 11.7004 45.9282 12.3738 46.135C11.4934 47.2773 11.3858 49.0282 11.5225 50.1534C11.5743 50.5927 11.9694 50.8988 12.4087 50.847C12.4492 50.8444 12.4799 50.8362 12.5184 50.8259C12.8951 50.7249 13.1515 50.3596 13.1023 49.9608C13.1038 49.9357 12.8496 47.4495 13.9967 46.7796C15.9511 47.739 18.0162 49.4186 19.8309 52.2859C19.835 52.3013 20.0441 52.682 20.3617 53.3137C20.3818 53.3578 20.4018 53.4019 20.4316 53.4515C20.4897 53.5761 20.5555 53.6985 20.6197 53.8461C20.6197 53.8461 20.6197 53.8461 20.6218 53.8538C20.8397 54.298 21.0802 54.8268 21.3352 55.4094C21.3615 55.4765 21.3954 55.5416 21.4216 55.6087C21.49 55.7717 21.5681 55.9403 21.6386 56.1109C21.6848 56.2221 21.7311 56.3333 21.7794 56.4522C21.8679 56.6592 21.9507 56.876 22.0335 57.0927C22.108 57.2787 22.1749 57.4668 22.2495 57.6528C22.2839 57.7507 22.3205 57.8563 22.3549 57.9541C22.4398 58.1786 22.517 58.4051 22.5941 58.6316C22.6204 58.6987 22.6368 58.7602 22.6631 58.8274C22.7629 59.1384 22.8648 59.4572 22.9569 59.7703C23.0244 59.9912 23.0861 60.2219 23.1382 60.4469C23.3782 61.4043 23.32 62.4169 22.9648 63.336L22.8682 63.5596C22.8124 63.6899 22.7603 63.8028 22.6984 63.91C22.6385 64.0249 22.571 64.1419 22.5014 64.2512C22.0593 64.9382 21.6072 65.496 21.1453 65.9246C19.2065 67.7295 17.9084 69.8654 17.3938 72.0961C17.255 72.6853 17.1675 73.2197 17.1311 73.6991C17.114 73.9426 17.064 74.1867 16.9967 74.4272C16.9931 74.4447 16.9839 74.4718 16.9803 74.4893C16.9053 74.7319 16.8051 74.9729 16.6833 75.1951L16.6439 75.2633C16.2669 75.9164 15.6984 76.4395 15.0061 76.7156C14.7704 76.82 14.5013 76.8921 14.2471 76.9272ZM18.7379 73.7299C18.7475 73.612 18.7627 73.4843 18.7856 73.3546C18.7922 73.2869 18.8009 73.2269 18.8151 73.1572C18.8538 72.9326 18.9002 72.7059 18.9579 72.4598C19.4062 70.5352 20.5488 68.68 22.25 67.0953C22.421 66.9341 22.5956 66.7555 22.7605 66.5712C22.7795 66.5497 22.8005 66.5358 22.8194 66.5143C22.4705 69.3021 21.0217 71.8903 18.7379 73.7299ZM26.4352 52.2714C26.4019 52.7005 26.0758 56.1579 24.129 58.1791C24.1229 58.1561 24.109 58.1351 24.1008 58.1043C24.0236 57.8778 23.9464 57.6513 23.8616 57.4268C23.8554 57.4038 23.8395 57.3751 23.8333 57.352C23.7443 57.1122 23.6553 56.8724 23.5663 56.6325C23.5643 56.6249 23.5622 56.6172 23.5601 56.6095C22.9729 55.0942 22.3499 53.7533 21.894 52.8207C22.6663 51.6745 23.0596 51.2972 23.245 51.1898C24.0694 50.73 25.2568 49.9339 26.2777 48.7623C26.9008 48.0433 27.3683 47.6049 27.9694 47.4191C27.0703 48.3686 26.2698 49.9015 26.4352 52.2714Z" fill="#FEEBA3"/>
</g>
</g>
<defs>
<clipPath id="clip0">
<rect width="248" height="64" fill="white"/>
</clipPath>
<clipPath id="clip1">
<rect width="48" height="48" fill="white" transform="translate(58 -11.5767) rotate(-15)"/>
</clipPath>
<clipPath id="clip2">
<rect width="48" height="48" fill="white" transform="translate(133 -6.57666) rotate(-15)"/>
</clipPath>
<clipPath id="clip3">
<rect width="48" height="48" fill="white" transform="translate(99 25.4233) rotate(-15)"/>
</clipPath>
<clipPath id="clip4">
<rect width="48" height="48" fill="white" transform="translate(158 38.4233) rotate(-15)"/>
</clipPath>
<clipPath id="clip5">
<rect width="48" height="48" fill="white" transform="translate(229 44.4233) rotate(-15)"/>
</clipPath>
<clipPath id="clip6">
<rect width="48" height="48" fill="white" transform="translate(59.2665 23) rotate(27.638)"/>
</clipPath>
<clipPath id="clip7">
<rect width="48" height="48" fill="white" transform="translate(203.762 -15) rotate(21.7188)"/>
</clipPath>
<clipPath id="clip8">
<rect width="48" height="48" fill="white" transform="translate(-19 44.4233) rotate(-15)"/>
</clipPath>
</defs>
</svg>
