<svg width="278" height="64" viewBox="0 0 278 64" fill="none" xmlns="http://www.w3.org/2000/svg">
<g clip-path="url(#clip0)">
<g opacity="0.4">
<path fill-rule="evenodd" clip-rule="evenodd" d="M40.0291 35.7099C39.1788 35.3191 38.1321 35.7067 37.7414 36.557L37.2415 37.6447C37.2411 37.6456 37.2407 37.6465 37.2403 37.6474L35.9876 40.3733L37.5551 41.0936C38.129 41.3573 38.5893 41.7749 38.9101 42.276L40.8762 37.9976C41.267 37.1473 40.8794 36.1006 40.0291 35.7099ZM42.2392 38.6239C42.9758 37.0208 42.2585 35.0835 40.6554 34.3469C39.4754 33.8046 38.1143 34.0502 37.1842 34.857C36.8672 34.2216 36.3431 33.6859 35.6565 33.3704C34.4571 32.8192 33.0706 33.082 32.1399 33.9207C31.8216 33.2975 31.3028 32.7729 30.6263 32.462C29.2661 31.837 27.6654 32.2587 26.7615 33.3801C26.4393 32.8352 25.9568 32.3797 25.3456 32.0988C23.7425 31.3622 21.8052 32.0795 21.0686 33.6826L17.1853 42.1331C16.2461 44.1768 15.9849 46.2896 16.3802 48.3508C16.4582 48.7576 16.8512 49.0241 17.258 48.9461C17.6648 48.8681 17.9314 48.475 17.8533 48.0682C17.5195 46.3277 17.7337 44.5319 18.5483 42.7594L19.7314 40.1847C20.0522 40.6857 20.5126 41.1033 21.0865 41.3671C22.2758 41.9136 23.6491 41.6598 24.5796 40.8377C24.9721 41.9224 25.7783 42.8628 26.9252 43.3898L28.6456 44.1804C26.648 44.6661 24.8865 46.0301 23.9576 48.0515L23.4252 49.2101C23.2523 49.5864 23.4172 50.0318 23.7936 50.2047C24.1699 50.3777 24.6153 50.2128 24.7882 49.8364L25.3206 48.6779C26.5882 45.9194 29.8231 44.7215 32.5816 45.9891C32.958 46.1621 33.4033 45.9972 33.5762 45.6208C33.7492 45.2444 33.5843 44.7991 33.2079 44.6261L27.5516 42.0269C26.2416 41.4249 25.5945 40.0043 25.8698 38.6816L26.1461 38.0803C26.1462 38.0801 26.1463 38.0798 26.1464 38.0795L26.2626 37.8267C26.4097 37.7267 26.601 37.7107 26.7745 37.7904L36.9287 42.4566C37.779 42.8473 38.1666 43.894 37.7759 44.7443L35.1766 50.4007C34.0193 52.919 31.8444 54.6656 29.3858 55.3669C29.0509 55.4625 28.8344 55.7711 28.8415 56.1037L23.2473 68.2775C23.0743 68.6539 23.2392 69.0992 23.6156 69.2722C23.992 69.4451 24.4373 69.2802 24.6102 68.9039L30.2293 56.6761C32.9118 55.7851 35.2598 53.812 36.5396 51.027L42.2392 38.6239ZM31.4898 38.3064L32.7425 35.5805C33.1332 34.7302 34.1799 34.3426 35.0302 34.7333C35.88 35.1239 36.2676 36.1696 35.878 37.0197C35.8777 37.0201 35.8775 37.0206 35.8773 37.021L34.6247 39.747L31.4898 38.3064ZM30.1268 37.6801L27.4009 36.4274C27.262 36.3636 27.1177 36.3163 26.9709 36.2854L27.7123 34.6721C28.103 33.8218 29.1497 33.4342 30 33.825C30.8503 34.2157 31.2379 35.2624 30.8471 36.1127L30.1268 37.6801ZM25.017 36.9451L25.5664 35.7495C25.9571 34.8992 25.5695 33.8525 24.7192 33.4618C23.8689 33.071 22.8223 33.4586 22.4315 34.3089L20.8657 37.7164C20.475 38.5667 20.8625 39.6133 21.7128 40.0041C22.5631 40.3948 23.6098 40.0072 24.0005 39.1569L24.4433 38.1935C24.5092 37.9319 24.5996 37.6737 24.7153 37.4219C24.7975 37.243 24.8996 37.0839 25.017 36.9451ZM23.8873 53.0542C22.2689 52.3104 20.354 53.0195 19.6103 54.6379C18.8666 56.2564 19.5757 58.1712 21.1941 58.915C22.8125 59.6587 24.7274 58.9496 25.4711 57.3312C26.2148 55.7128 25.5057 53.7979 23.8873 53.0542ZM18.2473 54.0116C19.337 51.6404 22.1425 50.6016 24.5137 51.6912C26.8848 52.7808 27.9237 55.5863 26.8341 57.9575C25.851 60.0968 23.4713 61.1516 21.274 60.5373L20.435 62.363L22.8884 63.4904C23.2648 63.6633 23.4297 64.1087 23.2567 64.485C23.0837 64.8614 22.6384 65.0263 22.262 64.8533L19.8087 63.7259L18.6813 66.1793C18.5083 66.5557 18.063 66.7206 17.6866 66.5476C17.3103 66.3747 17.1454 65.9294 17.3183 65.553L18.4457 63.0996L15.9924 61.9722C15.616 61.7993 15.4511 61.3539 15.624 60.9776C15.797 60.6012 16.2423 60.4363 16.6187 60.6092L19.072 61.7366L19.911 59.911C18.0137 58.6437 17.2643 56.1509 18.2473 54.0116ZM18.115 49.9889C18.4913 50.1618 18.6562 50.6071 18.4833 50.9835L12.7523 63.4548C12.5794 63.8311 12.1341 63.996 11.7577 63.8231C11.3813 63.6501 11.2164 63.2048 11.3894 62.8284L17.1203 50.3572C17.2933 49.9808 17.7386 49.8159 18.115 49.9889Z" fill="#F3E2E7"/>
</g>
<g opacity="0.4" clip-path="url(#clip1)">
<path fill-rule="evenodd" clip-rule="evenodd" d="M240.388 -12.4951C239.573 -12.035 239.274 -10.9597 239.734 -10.1449L240.323 -9.10252C240.323 -9.10166 240.323 -9.10079 240.324 -9.09993L241.799 -6.48761L243.301 -7.33577C243.851 -7.64631 244.459 -7.7747 245.053 -7.74108L242.738 -11.8412C242.278 -12.656 241.203 -12.9552 240.388 -12.4951ZM244.044 -12.5787C243.177 -14.1149 241.187 -14.6687 239.65 -13.8013C238.52 -13.1627 237.921 -11.9158 238.03 -10.6894C237.329 -10.8048 236.588 -10.694 235.93 -10.3225C234.781 -9.67349 234.181 -8.39594 234.316 -7.15028C233.624 -7.25744 232.895 -7.14448 232.247 -6.77842C230.943 -6.04241 230.347 -4.49807 230.726 -3.10858C230.096 -3.16676 229.444 -3.04264 228.858 -2.71188C227.322 -1.84444 226.768 0.145815 227.636 1.68205L232.208 9.78024C233.314 11.7388 234.873 13.1884 236.775 14.0758C237.151 14.2509 237.597 14.0886 237.772 13.7132C237.947 13.3378 237.785 12.8916 237.409 12.7164C235.803 11.9671 234.474 10.7414 233.514 9.04271L232.121 6.57532C232.715 6.60895 233.323 6.48055 233.873 6.17001C235.013 5.52645 235.612 4.26487 235.491 3.02919C236.6 3.34662 237.834 3.24432 238.934 2.62369L240.582 1.69279C239.805 3.5961 239.879 5.82277 240.973 7.75993L241.599 8.87017C241.803 9.23086 242.261 9.35815 242.621 9.15449C242.982 8.95082 243.109 8.49333 242.906 8.13264L242.279 7.02241C240.786 4.37892 241.711 1.0556 244.354 -0.437049C244.715 -0.640711 244.842 -1.09821 244.639 -1.45889C244.435 -1.81958 243.977 -1.94687 243.617 -1.74321L238.196 1.31753C236.941 2.02639 235.41 1.71841 234.5 0.720312L234.174 0.144111C234.174 0.143868 234.174 0.143625 234.174 0.143381L234.037 -0.098902C234.042 -0.276677 234.141 -0.441135 234.308 -0.535032L244.039 -6.0296C244.854 -6.48972 245.929 -6.19053 246.389 -5.37568L249.45 0.0448886C250.812 2.45824 250.953 5.2441 250.081 7.64737C249.962 7.97477 250.086 8.33105 250.359 8.52016L256.947 20.1865C257.15 20.5472 257.608 20.6745 257.969 20.4708C258.329 20.2671 258.457 19.8097 258.253 19.449L251.636 7.73089C252.486 5.03506 252.263 1.97627 250.756 -0.692638L244.044 -12.5787ZM237.489 -4.05377L236.014 -6.66609C235.554 -7.48095 235.853 -8.55622 236.668 -9.01633C237.482 -9.47619 238.557 -9.17758 239.017 -8.36373C239.017 -8.36328 239.018 -8.36284 239.018 -8.3624L240.493 -5.75008L237.489 -4.05377ZM236.183 -3.31625L233.57 -1.84119C233.437 -1.76604 233.314 -1.67679 233.203 -1.57597L232.33 -3.12202C231.87 -3.93688 232.169 -5.01215 232.984 -5.47226C233.799 -5.93237 234.874 -5.63319 235.334 -4.81833L236.183 -3.31625ZM232.593 0.393969L231.946 -0.751792C231.486 -1.56665 230.411 -1.86583 229.596 -1.40572C228.781 -0.945608 228.482 0.129662 228.942 0.94452L230.786 4.20992C231.246 5.02478 232.321 5.32396 233.136 4.86385C233.951 4.40374 234.25 3.32847 233.79 2.51361L233.268 1.59035C233.095 1.38365 232.939 1.15907 232.803 0.917784C232.706 0.746296 232.637 0.570434 232.593 0.393969ZM244.985 10.7481C243.434 11.6238 242.887 13.591 243.763 15.142C244.638 16.6929 246.606 17.2403 248.157 16.3646C249.708 15.4888 250.255 13.5216 249.379 11.9706C248.503 10.4197 246.536 9.87231 244.985 10.7481ZM242.457 15.8795C241.174 13.6072 241.975 10.725 244.248 9.4419C246.52 8.15883 249.402 8.96077 250.685 11.2331C251.843 13.2832 251.303 15.8297 249.518 17.2504L250.506 19L252.857 17.6724C253.218 17.4687 253.675 17.596 253.879 17.9567C254.083 18.3174 253.955 18.7749 253.595 18.9786L251.244 20.3061L252.571 22.6572C252.775 23.0179 252.647 23.4754 252.287 23.679C251.926 23.8827 251.469 23.7554 251.265 23.3947L249.937 21.0436L247.586 22.3712C247.226 22.5749 246.768 22.4476 246.564 22.0869C246.361 21.7262 246.488 21.2687 246.849 21.065L249.2 19.7375L248.212 17.9879C246.073 18.7828 243.614 17.9296 242.457 15.8795ZM239.119 13.6298C239.48 13.4261 239.937 13.5534 240.141 13.9141L246.889 25.8654C247.093 26.2261 246.966 26.6836 246.605 26.8873C246.244 27.091 245.787 26.9637 245.583 26.603L238.835 14.6516C238.631 14.2909 238.758 13.8334 239.119 13.6298Z" fill="#F3E2E7"/>
</g>
<g opacity="0.4" clip-path="url(#clip2)">
<path d="M283.824 33.064L301.543 22.834C302.875 22.0648 303.333 20.3552 302.564 19.0228L293.264 2.91473C292.495 1.58233 290.785 1.12426 289.453 1.89352L288.647 2.35852L288.182 1.55312C287.926 1.10827 287.357 0.95588 286.912 1.21272C286.467 1.46955 286.315 2.03827 286.572 2.48312L287.037 3.28852L281.399 6.54352L280.934 5.73812C280.677 5.29327 280.108 5.14088 279.663 5.39771C279.219 5.65455 279.066 6.22327 279.323 6.66812L279.788 7.47352L274.15 10.7285L273.685 9.92312C273.428 9.47827 272.86 9.32588 272.415 9.58271C271.97 9.83955 271.818 10.4083 272.074 10.8531L272.539 11.6585L271.734 12.1235C270.402 12.8928 269.943 14.6023 270.713 15.9347L280.013 32.0428C280.782 33.3752 282.492 33.8333 283.824 33.064ZM272.324 15.0047C272.067 14.5607 272.22 13.9907 272.664 13.7343L273.469 13.2693L273.934 14.0747C274.191 14.5196 274.76 14.672 275.205 14.4151C275.65 14.1583 275.802 13.5896 275.545 13.1447L275.08 12.3393L280.718 9.08433L281.183 9.88973C281.44 10.3346 282.009 10.487 282.453 10.2301C282.898 9.9733 283.051 9.40458 282.794 8.95973L282.329 8.15433L287.967 4.89933L288.432 5.70473C288.688 6.14958 289.257 6.30197 289.702 6.04514C290.147 5.7883 290.299 5.21958 290.042 4.77473L289.577 3.96933L290.383 3.50433C290.827 3.24796 291.397 3.40069 291.653 3.84473L292.583 5.45554L273.254 16.6155L272.324 15.0047ZM274.184 18.2263L293.513 7.06635L300.953 19.9528C301.21 20.3969 301.057 20.9668 300.613 21.2232L282.894 31.4532C282.45 31.7096 281.88 31.5569 281.624 31.1128L274.184 18.2263Z" fill="#F3E2E7"/>
<path d="M287.627 21.051L288.623 22.7762L287.818 23.2412C287.373 23.498 287.22 24.0667 287.477 24.5116C287.734 24.9564 288.303 25.1088 288.748 24.852L289.553 24.387L290.018 25.1924C290.275 25.6373 290.844 25.7896 291.288 25.5328C291.733 25.276 291.886 24.7073 291.629 24.2624L291.164 23.457L291.969 22.992C292.414 22.7352 292.566 22.1664 292.31 21.7216C292.053 21.2767 291.484 21.1244 291.039 21.3812L290.234 21.8462L289.238 20.121C290.415 18.9608 290.724 17.1155 289.86 15.6188C288.834 13.8423 286.555 13.2315 284.778 14.2572C283.002 15.2828 282.391 17.5623 283.417 19.3388C284.281 20.8355 286.033 21.4907 287.627 21.051ZM285.708 15.868C286.597 15.3551 287.736 15.6604 288.249 16.5488C288.762 17.4371 288.457 18.5767 287.568 19.0896C286.68 19.6025 285.54 19.2971 285.028 18.4088C284.515 17.5204 284.82 16.3809 285.708 15.868Z" fill="#F3E2E7"/>
</g>
<g opacity="0.4" clip-path="url(#clip3)">
<path d="M56.5394 4.57217C56.9424 4.47656 57.1916 4.07233 57.096 3.6693C57.0004 3.26628 56.5962 3.01706 56.1932 3.11267C55.7901 3.20828 55.5409 3.61251 55.6365 4.01554C55.7321 4.41857 56.1364 4.66778 56.5394 4.57217Z" fill="#F3E2E7"/>
<path d="M61.4745 2.6306C61.5701 3.03363 61.3209 3.43786 60.9179 3.53347C60.5149 3.62908 60.1106 3.37987 60.015 2.97684C59.9194 2.57381 60.1686 2.16958 60.5717 2.07397C60.9747 1.97836 61.3789 2.22758 61.4745 2.6306Z" fill="#F3E2E7"/>
<path d="M59.5509 7.51911C58.9006 7.60005 58.2403 7.52984 57.6215 7.31393C57.5242 7.29401 57.4318 7.25496 57.3497 7.19905C57.2677 7.14314 57.1975 7.07149 57.1433 6.98825C57.0892 6.90501 57.0521 6.81184 57.0342 6.71415C57.0163 6.61646 57.018 6.51619 57.0392 6.41917C57.0859 6.22654 57.207 6.06024 57.376 5.9566C57.5449 5.85297 57.748 5.82043 57.9409 5.8661C59.2053 6.15968 59.2053 6.15968 60.2104 5.32771C60.2837 5.25283 60.3719 5.19414 60.4692 5.15542C60.5666 5.1167 60.671 5.09881 60.7757 5.1029C60.8804 5.10699 60.9831 5.13298 61.0771 5.17917C61.1711 5.22538 61.2545 5.29077 61.3217 5.37114C61.3889 5.4515 61.4385 5.54507 61.4674 5.64579C61.4963 5.74652 61.5037 5.85217 61.4892 5.95594C61.4747 6.05972 61.4387 6.1593 61.3834 6.24829C61.328 6.33727 61.2547 6.41368 61.168 6.47258C60.7155 6.9397 60.1624 7.29759 59.5509 7.51911Z" fill="#F3E2E7"/>
<path d="M74.722 3.95094C75.0444 3.87445 75.2438 3.55107 75.1673 3.22865C75.0908 2.90622 74.7674 2.70685 74.445 2.78334C74.1226 2.85983 73.9232 3.18321 73.9997 3.50563C74.0762 3.82805 74.3996 4.02742 74.722 3.95094Z" fill="#F3E2E7"/>
<path d="M78.6628 2.39942C78.7393 2.72184 78.5399 3.04522 78.2175 3.12171C77.8951 3.19819 77.5717 2.99882 77.4952 2.6764C77.4187 2.35398 77.6181 2.0306 77.9405 1.95411C78.2629 1.87762 78.5863 2.07699 78.6628 2.39942Z" fill="#F3E2E7"/>
<path d="M77.1659 6.45443C76.6219 6.52349 76.0694 6.47022 75.5487 6.29849C75.3551 6.25337 75.1873 6.13324 75.0823 5.96449C74.9772 5.79574 74.9434 5.59218 74.9883 5.39853C75.0335 5.20493 75.1536 5.03716 75.3223 4.93209C75.4911 4.82702 75.6946 4.79324 75.8883 4.83817C76.8262 5.05504 76.8335 5.05331 77.574 4.43827C77.6492 4.37166 77.737 4.32082 77.8321 4.28877C77.9273 4.25672 78.028 4.24412 78.1281 4.25171C78.2283 4.2593 78.3259 4.28693 78.4152 4.33296C78.5044 4.37899 78.5835 4.44248 78.6478 4.51966C78.7121 4.59685 78.7602 4.68615 78.7893 4.78228C78.8184 4.87841 78.8279 4.9794 78.8172 5.07927C78.8065 5.17914 78.7759 5.27585 78.7271 5.36366C78.6784 5.45147 78.6125 5.52859 78.5334 5.59044C78.1477 5.97682 77.6804 6.27203 77.1659 6.45443Z" fill="#F3E2E7"/>
<path fill-rule="evenodd" clip-rule="evenodd" d="M80.905 8.18816L81.1786 8.69673L81.1939 8.68236C81.2902 8.59294 81.4082 8.53038 81.5363 8.50094C83.0077 8.1539 84.5567 8.40404 85.8442 9.19659C87.1316 9.98914 88.0525 11.2595 88.4053 12.7296C88.4139 12.7658 88.4198 12.8024 88.4229 12.8391C88.4258 12.8493 88.4284 12.8596 88.4309 12.8699L89.4506 17.1682C89.6263 17.9219 89.5252 18.7137 89.1656 19.399C89.0242 19.6683 88.8467 19.9141 88.6396 20.1305C88.6582 20.1682 88.6737 20.2074 88.6858 20.2479L90.8119 27.2281C90.8407 27.3255 90.8495 27.4277 90.8377 27.5286C90.8258 27.6294 90.7936 27.7268 90.743 27.8149C90.693 27.9033 90.6255 27.9806 90.5447 28.0422C90.4639 28.1038 90.3715 28.1483 90.273 28.173L75.211 31.7462L75.2062 31.7473L57.7992 35.8767C57.7629 35.8853 57.7265 35.893 57.69 35.8998C57.1426 36.0013 56.5753 35.8964 56.0991 35.6028C55.7548 35.3905 55.4773 35.0915 55.2912 34.74C55.2028 34.5729 55.135 34.394 55.0906 34.2068L51.974 21.0691C51.7406 20.0881 51.7026 19.0708 51.8623 18.0751C51.9241 17.6899 52.015 17.3108 52.1339 16.9411L48.2885 3.90878C47.6638 1.29712 48.1022 -1.45572 49.5072 -3.74414C50.9122 -6.03257 53.1687 -7.66913 55.7804 -8.2938C58.392 -8.91847 61.1449 -8.48008 63.4333 -7.07507C65.6637 -5.70571 67.2748 -3.5275 67.9335 -0.999995C68.4844 -2.42911 69.4115 -3.76684 70.6674 -4.82261C71.6529 -5.64185 72.8145 -6.22206 74.0615 -6.51787C75.3084 -6.81369 76.6069 -6.81709 77.8554 -6.52781C81.8407 -5.58474 84.781 -2.15839 84.6957 1.44613L84.5791 6.73845C84.576 6.90111 84.52 7.05833 84.4197 7.1864C84.3194 7.31448 84.1802 7.40647 84.023 7.44849L80.905 8.18816ZM69.0973 13.4306C69.1526 13.512 69.2239 13.5825 69.3079 13.6372C69.3134 13.6408 69.3189 13.6444 69.3246 13.6478C69.5384 13.8629 69.7368 14.0942 69.9179 14.3404C69.9327 14.3605 69.9484 14.3798 69.965 14.3981C69.7957 15.0668 69.7482 15.7637 69.8281 16.4546C69.1664 16.9551 68.6545 17.63 68.3514 18.4057C68.018 19.2589 67.9529 20.1935 68.1648 21.0847L70.4153 30.5714C70.4749 30.8224 70.5764 31.0587 70.7136 31.2714L60.2468 33.7545C60.2738 33.5028 60.2584 33.246 60.1989 32.995L57.9483 23.5083C57.6729 22.3471 56.9474 21.3428 55.9314 20.7165C55.1423 20.23 54.2283 20.0025 53.3152 20.0542C53.2097 19.1793 53.2929 18.2944 53.5559 17.4588C53.5719 17.4361 53.5866 17.4125 53.6001 17.388C53.6476 17.3016 53.6776 17.2067 53.6884 17.1087C53.6897 17.0968 53.6907 17.085 53.6914 17.0731C53.81 16.7684 53.9533 16.4717 54.1208 16.1863C54.924 14.8176 56.223 13.8104 57.7485 13.3732L60.8261 15.0712C60.9889 15.1604 61.179 15.1861 61.3596 15.1433C61.5402 15.1004 61.6986 14.9921 61.8039 14.8393L63.7021 12.0778C63.7504 12.04 63.794 11.9964 63.8318 11.9477C63.8365 11.9416 63.8412 11.9355 63.8457 11.9292C64.9737 11.7234 66.1371 11.8362 67.205 12.2554C67.9051 12.5302 68.5456 12.9295 69.0973 13.4306ZM70.6394 12.8041L70.6236 12.8299C70.5536 12.7524 70.4821 12.6764 70.4091 12.6019L69.5995 8.12876L70.6191 10.0502C70.6985 10.2009 70.8269 10.3201 70.9832 10.3881C71.1394 10.4561 71.3142 10.4689 71.4786 10.4244L74.6477 9.67258L74.631 10.2766L74.5974 10.2669L74.5605 10.256C74.4343 10.2193 74.3008 10.2165 74.1731 10.2477C72.7033 10.5984 71.4325 11.5177 70.6394 12.8041ZM78.0875 10.3556C77.439 10.5095 76.7743 10.567 76.1145 10.5287L76.149 9.31641L79.3234 8.56335L79.9029 9.63843C79.3376 9.96179 78.7265 10.204 78.0875 10.3556ZM87.3395 20.9598L85.9877 21.4814C85.8886 21.5255 85.7867 21.5625 85.6825 21.5924C85.6423 21.602 85.6019 21.6104 85.5613 21.6178L82.7465 27.4765C82.6984 27.5763 82.6288 27.6643 82.5428 27.734C82.4567 27.8037 82.3562 27.8535 82.2486 27.8798C82.1397 27.9061 82.0262 27.9075 81.9167 27.8842C81.8071 27.8608 81.7041 27.8132 81.6153 27.7448L76.4726 23.7776C76.4366 23.787 76.4002 23.7955 76.3637 23.8031L76.0499 23.8775L74.5958 24.0093L75.6383 30.1032L89.1459 26.8988L87.3395 20.9598ZM84.0186 21.3534C83.8104 21.2345 83.6213 21.0831 83.4587 20.9039C83.1836 20.6007 82.9949 20.2291 82.9124 19.828C82.8299 19.4269 82.8566 19.0111 82.9896 18.6238C83.0895 18.3279 83.25 18.0561 83.4607 17.8256C83.6715 17.5952 83.9279 17.4111 84.2136 17.2851L85.1375 16.8578C85.2406 16.8126 85.3226 16.7298 85.3667 16.6262C85.4109 16.5226 85.4139 16.4061 85.3752 16.3004L84.4437 13.5464C84.0532 13.3466 83.6278 13.2232 83.1904 13.1831C82.7229 13.1403 82.2515 13.1935 81.8054 13.3395C81.3675 13.4729 80.9612 13.6938 80.6112 13.9888C80.2612 14.2838 79.9747 14.6469 79.7691 15.0559C79.7213 15.1489 79.6547 15.2309 79.5734 15.2967C79.4921 15.3624 79.3979 15.4104 79.2969 15.4376C79.1906 15.464 79.0797 15.4667 78.9721 15.4456C78.8646 15.4245 78.763 15.3801 78.6744 15.3155C77.997 14.8268 77.1658 14.5993 76.3339 14.6749C75.502 14.7504 74.7254 15.1239 74.1471 15.7266C74.1413 15.7337 74.1355 15.7406 74.1295 15.7475C74.1275 15.7497 74.1255 15.752 74.1235 15.7542L74.5511 18.7295C74.5726 18.8963 74.6536 19.0498 74.7793 19.1616C74.905 19.2735 75.0668 19.3361 75.2351 19.338L75.808 19.3486C76.1101 19.3373 76.4115 19.387 76.694 19.4948C76.9765 19.6027 77.2343 19.7663 77.4522 19.976C77.6761 20.192 77.8539 20.4511 77.9749 20.7377C78.0959 21.0243 78.1575 21.3324 78.1561 21.6435C78.1476 22.0821 78.0112 22.5071 77.7658 22.8671L81.7916 25.9533L84.0186 21.3534ZM83.8418 11.7668L83.1963 9.85843C82.8213 9.82725 82.4408 9.84617 82.0649 9.91716C81.0311 10.8418 79.7829 11.4937 78.4334 11.8138C77.0839 12.134 75.6759 12.1122 74.3369 11.7505C74.0775 11.8253 73.8277 11.9244 73.5904 12.0455L73.8724 14.0078C74.4517 13.6135 75.1114 13.344 75.8096 13.2217C76.8599 13.0378 77.9415 13.1969 78.8943 13.6755C79.5204 12.8288 80.4024 12.2061 81.4098 11.8994C82.0426 11.7034 82.7079 11.635 83.3673 11.6983C83.5268 11.7135 83.6851 11.7364 83.8418 11.7668ZM84.9758 10.421L86.7945 15.8172C86.9486 16.275 86.9274 16.7737 86.7348 17.2167C86.5423 17.6597 86.1922 18.0154 85.7523 18.2151L84.8354 18.6715C84.7359 18.7136 84.6467 18.7768 84.5738 18.8566C84.5009 18.9364 84.4462 19.031 84.4133 19.134C84.3662 19.2737 84.3594 19.4239 84.3935 19.5674C84.4276 19.7108 84.5013 19.8418 84.6062 19.9455C84.7111 20.0491 84.843 20.1212 84.9869 20.1536C85.1308 20.1859 85.2808 20.1772 85.42 20.1284L86.928 19.5317C87.3167 19.3838 87.6389 19.1004 87.8352 18.7337C88.0315 18.367 88.0887 17.9418 87.9963 17.5363L86.9714 13.2162C86.9628 13.18 86.957 13.1434 86.9539 13.1067C86.951 13.0965 86.9483 13.0862 86.9458 13.0758C86.6934 12.0234 86.0458 11.1083 85.1371 10.5203C85.084 10.4859 85.0302 10.4528 84.9758 10.421ZM73.0512 23.8521C72.7688 23.7516 72.4997 23.6113 72.2525 23.4337C71.6245 22.9825 71.1801 22.3203 71.0005 21.5682L70.1967 18.1799C70.0108 18.4134 69.8598 18.6747 69.7499 18.9558C69.5279 19.5234 69.4841 20.1453 69.6243 20.7384L71.8748 30.2251C71.9207 30.4187 72.0416 30.5861 72.211 30.6905C72.3803 30.7948 72.5841 30.8277 72.7777 30.7818L73.5074 30.6087L73.512 30.6076L74.1781 30.4496L73.0619 23.9543C73.056 23.9203 73.0524 23.8862 73.0512 23.8521ZM71.4154 16.8333C71.423 16.8557 71.4296 16.8786 71.4351 16.9018L72.4548 21.2001C72.5529 21.6047 72.7947 21.9599 73.1351 22.1995C73.4756 22.4392 73.8915 22.5471 74.3055 22.503L75.9354 22.3553C76.1365 22.3414 76.3239 22.2481 76.4562 22.096C76.5885 21.9439 76.655 21.7454 76.641 21.5443C76.6271 21.3432 76.5338 21.1559 76.3817 21.0235C76.2296 20.8912 76.0311 20.8247 75.83 20.8387L75.2043 20.833C74.6796 20.8285 74.1741 20.6351 73.7804 20.2882C73.3867 19.9414 73.1311 19.4643 73.0605 18.9443L72.2277 13.1505C72.0958 13.3137 71.9755 13.4874 71.8683 13.6706C71.3221 14.6036 71.1552 15.7107 71.4022 16.7632C71.4077 16.7865 71.4121 16.8099 71.4154 16.8333ZM58.1827 34.2441L57.453 34.4172C57.2595 34.4631 57.0556 34.4303 56.8863 34.3259C56.717 34.2215 56.596 34.0542 56.5501 33.8606L53.6296 21.5498C54.2942 21.5629 54.9356 21.7964 55.4531 22.2135C55.9706 22.6307 56.3349 23.2079 56.4888 23.8545L58.7394 33.3413C58.7853 33.5348 58.7524 33.7386 58.648 33.908C58.5436 34.0773 58.3763 34.1982 58.1827 34.2441ZM68.6396 11.2564L66.5148 -0.49212C66.251 -1.59362 65.7728 -2.63236 65.1075 -3.54905C64.4422 -4.46573 63.6029 -5.2424 62.6375 -5.83472C60.6877 -7.03095 58.3425 -7.40364 56.118 -6.87079C53.8934 -6.33795 51.9716 -4.94322 50.7754 -2.99344C49.5791 -1.04365 49.2065 1.30148 49.7393 3.52605L53.1114 14.9482C53.6099 14.2212 54.2305 13.5846 54.9465 13.0671C55.6868 12.532 56.516 12.1337 57.3949 11.8902L57.5215 10.4689C56.4775 10.3334 55.4637 9.97848 54.5503 9.41538C52.8571 8.37149 51.6479 6.69774 51.1888 4.76233L50.9741 3.85745C50.9299 3.69082 50.9444 3.51403 51.0152 3.35684C51.086 3.19965 51.2088 3.07165 51.3629 2.9944C52.7585 2.33577 53.9351 1.28942 54.7521 -0.0197267C55.1471 -0.652631 55.45 -1.33403 55.6552 -2.04346C55.6556 -2.05974 55.6565 -2.07601 55.658 -2.09227C55.6671 -2.19339 55.6966 -2.2916 55.7448 -2.38096C55.9035 -3.03472 55.9802 -3.70908 55.9707 -4.38855C55.9597 -4.58576 56.0269 -4.77936 56.1578 -4.92731C56.2887 -5.07525 56.4726 -5.1656 56.6697 -5.17873C56.8679 -5.19176 57.0631 -5.12568 57.2126 -4.99497C57.3621 -4.86426 57.4536 -4.67959 57.4672 -4.48148C57.4832 -3.7935 57.4243 -3.10901 57.2935 -2.43962C58.3953 -1.99279 61.1137 -1.1889 63.5139 -2.91844C63.6186 -3.05676 63.7685 -3.15516 63.9388 -3.19554C64.0057 -3.21142 64.0739 -3.21788 64.1415 -3.21521C64.1683 -3.21569 64.1952 -3.21475 64.2221 -3.21234C64.3258 -3.20306 64.4264 -3.17229 64.5175 -3.12199C64.6087 -3.0717 64.6884 -3.00298 64.7515 -2.92021C64.8146 -2.83744 64.8599 -2.74243 64.8843 -2.64123C64.9043 -2.55822 64.91 -2.47253 64.9012 -2.38786L65.7765 1.30173C66.2353 3.23587 65.9075 5.27306 64.8652 6.96568C64.3095 7.86804 63.5749 8.63311 62.7171 9.22063L63.4736 10.4416C64.8453 10.1754 66.266 10.2888 67.5813 10.7728C67.9473 10.9076 68.301 11.0694 68.6396 11.2564ZM62.2672 11.4655L61.5856 10.3124L58.9877 10.9287L58.8709 12.2598L60.948 13.4082L62.2672 11.4655ZM63.6347 -1.22807L64.3118 1.62607C64.6791 3.1744 64.4163 4.80522 63.5812 6.15978C62.7461 7.51434 61.4071 8.48167 59.8587 8.84898C58.3104 9.21629 56.6796 8.95348 55.325 8.11837C53.9705 7.28327 53.0031 5.94427 52.6358 4.39594L52.5545 4.05296C54.0759 3.21617 55.3385 1.97789 56.2048 0.473026C56.4744 0.00457401 56.7025 -0.484119 56.8874 -0.987419C58.4784 -0.367488 60.2202 -0.213957 61.9058 -0.554982C62.5106 -0.703167 63.0917 -0.929839 63.6347 -1.22807ZM83.1149 6.1223L81.03 6.61689C81.2037 6.40482 81.3639 6.18023 81.5092 5.94419C82.3637 4.55635 82.6323 2.8861 82.2562 1.30033L81.51 -1.84488C81.4641 -2.03842 81.3432 -2.2058 81.1739 -2.31019C81.0045 -2.41457 80.8007 -2.44742 80.6072 -2.40151C80.4424 -2.36242 80.2966 -2.26896 80.1924 -2.13756C78.4021 -0.865781 76.3921 -1.38731 75.4831 -1.73762C75.5767 -2.25451 75.6179 -2.78175 75.6045 -3.31137C75.5896 -3.50683 75.4987 -3.68867 75.3513 -3.81795C75.204 -3.94723 75.0118 -4.01367 74.8161 -4.00305C74.7177 -3.99747 74.6214 -3.97256 74.5326 -3.92973C74.4439 -3.8869 74.3644 -3.827 74.2989 -3.75346C74.2333 -3.67992 74.1828 -3.59417 74.1504 -3.50111C74.1179 -3.40806 74.1042 -3.30952 74.1098 -3.21114C74.1258 -2.0075 73.795 -0.824686 73.1569 0.196012C72.5188 1.21671 71.6003 2.03215 70.5113 2.54492C70.3571 2.62218 70.2343 2.75017 70.1635 2.90736C70.0927 3.06455 70.0782 3.24134 70.1225 3.40797L70.2956 4.13772C70.6739 5.7237 71.6657 7.09491 73.0537 7.95057C73.2895 8.096 73.5336 8.22452 73.784 8.33584L71.6943 8.83158L69.4974 4.70473C67.9891 1.85595 69.4207 -1.75964 71.6646 -3.64087C72.4711 -4.31106 73.4217 -4.78572 74.442 -5.02777C75.4623 -5.26981 76.5247 -5.2727 77.5464 -5.03619C80.3875 -4.3998 83.2919 -1.77431 83.2226 1.41018L83.1149 6.1223ZM75.0733 -0.292381C74.9424 0.0416842 74.7879 0.367387 74.6106 0.682193C73.9249 1.89929 72.9227 2.90813 71.7101 3.60175L71.7482 3.76229C71.8682 4.37705 72.1111 4.96124 72.4625 5.47979C72.8138 5.99834 73.2663 6.44056 73.7928 6.77991C74.3192 7.11926 74.9088 7.34876 75.5262 7.45461C76.1435 7.56047 76.7759 7.54051 77.3854 7.39593C77.9948 7.25135 78.5688 6.98513 79.0728 6.61325C79.5768 6.24138 80.0005 5.7715 80.3185 5.23183C80.6364 4.69215 80.842 4.09381 80.923 3.4727C81.004 2.85159 80.9587 2.22052 80.7897 1.61737L80.2983 -0.454324C79.902 -0.255431 79.4834 -0.101805 79.0501 0.00281333C77.7171 0.272294 76.3414 0.167187 75.0733 -0.292381Z" fill="#F3E2E7"/>
</g>
<g opacity="0.4" clip-path="url(#clip4)">
<path d="M5.82394 33.064L23.5428 22.834C24.8752 22.0648 25.3333 20.3552 24.564 19.0228L15.264 2.91473C14.4948 1.58233 12.7852 1.12426 11.4528 1.89352L10.6474 2.35852L10.1824 1.55312C9.92558 1.10827 9.35686 0.95588 8.91201 1.21272C8.46716 1.46955 8.31477 2.03827 8.57161 2.48312L9.03661 3.28852L3.39878 6.54352L2.93378 5.73812C2.67694 5.29327 2.10823 5.14088 1.66338 5.39771C1.21853 5.65455 1.06614 6.22327 1.32297 6.66812L1.78797 7.47352L-3.84985 10.7285L-4.31485 9.92312C-4.57169 9.47827 -5.1404 9.32588 -5.58526 9.58271C-6.03011 9.83955 -6.18249 10.4083 -5.92566 10.8531L-5.46066 11.6585L-6.26606 12.1235C-7.59847 12.8928 -8.05654 14.6023 -7.28727 15.9347L2.01273 32.0428C2.78199 33.3752 4.49153 33.8333 5.82394 33.064ZM-5.67647 15.0047C-5.93284 14.5607 -5.78011 13.9907 -5.33606 13.7343L-4.53066 13.2693L-4.06566 14.0747C-3.80882 14.5196 -3.24011 14.672 -2.79526 14.4151C-2.3504 14.1583 -2.19802 13.5896 -2.45485 13.1447L-2.91985 12.3393L2.71797 9.08433L3.18297 9.88973C3.43981 10.3346 4.00853 10.487 4.45338 10.2301C4.89823 9.9733 5.05061 9.40458 4.79378 8.95973L4.32878 8.15433L9.96661 4.89933L10.4316 5.70473C10.6884 6.14958 11.2572 6.30197 11.702 6.04514C12.1469 5.7883 12.2992 5.21958 12.0424 4.77473L11.5774 3.96933L12.3828 3.50433C12.8269 3.24796 13.3968 3.40069 13.6532 3.84473L14.5832 5.45554L-4.74647 16.6155L-5.67647 15.0047ZM-3.81647 18.2263L15.5132 7.06635L22.9532 19.9528C23.2096 20.3969 23.0569 20.9668 22.6128 21.2232L4.89394 31.4532C4.44989 31.7096 3.8799 31.5569 3.62353 31.1128L-3.81647 18.2263Z" fill="#F3E2E7"/>
<path d="M9.62694 21.051L10.623 22.7762L9.81757 23.2412C9.37272 23.498 9.22033 24.0667 9.47717 24.5116C9.734 24.9564 10.3027 25.1088 10.7476 24.852L11.553 24.387L12.018 25.1924C12.2748 25.6373 12.8435 25.7896 13.2884 25.5328C13.7332 25.276 13.8856 24.7073 13.6288 24.2624L13.1638 23.457L13.9692 22.992C14.414 22.7352 14.5664 22.1664 14.3096 21.7216C14.0528 21.2767 13.484 21.1244 13.0392 21.3812L12.2338 21.8462L11.2377 20.121C12.4153 18.9608 12.7241 17.1155 11.86 15.6188C10.8344 13.8423 8.55483 13.2315 6.77838 14.2572C5.00192 15.2828 4.39113 17.5623 5.41676 19.3388C6.28089 20.8355 8.03337 21.4907 9.62694 21.051ZM7.70838 15.868C8.59674 15.3551 9.73629 15.6604 10.2492 16.5488C10.7621 17.4371 10.4567 18.5767 9.56838 19.0896C8.68002 19.6025 7.54046 19.2971 7.02757 18.4088C6.51467 17.5204 6.82002 16.3809 7.70838 15.868Z" fill="#F3E2E7"/>
</g>
<g opacity="0.4" clip-path="url(#clip5)">
<path d="M104.614 -7.98815C103.127 -7.13105 101.914 -5.86927 101.116 -4.34966C100.318 -2.83004 99.9682 -1.11507 100.107 0.595663C100.246 2.3064 100.867 3.94255 101.9 5.31371C102.932 6.68487 104.333 7.73466 105.938 8.3409L104.026 15.4784L100.566 14.5514C100.335 14.4938 100.091 14.5292 99.8864 14.6499C99.6816 14.7706 99.5323 14.9669 99.4707 15.1966C99.4092 15.4263 99.4403 15.6709 99.5574 15.8779C99.6745 16.0848 99.8682 16.2375 100.097 16.303L103.557 17.2302L102.63 20.69C102.596 20.8058 102.587 20.927 102.601 21.0466C102.615 21.1661 102.653 21.2817 102.712 21.3865C102.771 21.4913 102.851 21.5832 102.946 21.657C103.041 21.7307 103.15 21.7847 103.267 21.8159C103.383 21.847 103.504 21.8547 103.624 21.8385C103.743 21.8223 103.858 21.7824 103.962 21.7213C104.065 21.6602 104.156 21.579 104.228 21.4826C104.3 21.3861 104.352 21.2762 104.381 21.1594L105.308 17.6995L108.768 18.6265C108.999 18.6841 109.243 18.6487 109.448 18.528C109.653 18.4074 109.802 18.211 109.864 17.9813C109.925 17.7517 109.894 17.507 109.777 17.3001C109.66 17.0931 109.466 16.9404 109.238 16.8749L105.778 15.9478L107.69 8.81028C109.124 9.04401 110.593 8.92982 111.973 8.47732C113.353 8.02482 114.605 7.24726 115.622 6.21013C116.639 5.173 117.392 3.90665 117.818 2.51774C118.243 1.12883 118.329 -0.341986 118.067 -1.77085C117.805 -3.19971 117.204 -4.54477 116.314 -5.69278C115.424 -6.84078 114.271 -7.75811 112.952 -8.36751C111.634 -8.97691 110.188 -9.26055 108.737 -9.19453C107.286 -9.12851 105.872 -8.71477 104.614 -7.98815ZM112.776 6.14826C111.533 6.86569 110.106 7.19853 108.674 7.10468C107.242 7.01084 105.87 6.49453 104.732 5.62104C103.593 4.74754 102.74 3.55611 102.278 2.19739C101.817 0.838673 101.769 -0.626301 102.141 -2.01227C102.512 -3.39825 103.286 -4.64297 104.365 -5.58905C105.444 -6.53512 106.779 -7.14005 108.201 -7.32734C109.624 -7.51462 111.07 -7.27586 112.357 -6.64123C113.644 -6.00661 114.714 -5.00463 115.431 -3.762C116.391 -2.09517 116.65 -0.115682 116.153 1.7422C115.655 3.60008 114.44 5.18464 112.776 6.14826Z" fill="#F3E2E7"/>
</g>
<g opacity="0.4" clip-path="url(#clip6)">
<path d="M271.506 66.4983C272.496 65.0961 273.067 63.4417 273.154 61.7275C273.24 60.0133 272.838 58.3099 271.993 56.8154C271.149 55.321 269.898 54.097 268.386 53.2859C266.873 52.4748 265.161 52.1099 263.449 52.2337L262.189 44.9528L265.718 44.3417C265.952 44.2971 266.158 44.1625 266.294 43.967C266.429 43.7714 266.482 43.5306 266.442 43.2963C266.401 43.062 266.27 42.853 266.077 42.7143C265.884 42.5756 265.644 42.5184 265.409 42.5548L261.879 43.1658L261.268 39.6364C261.25 39.5174 261.208 39.4033 261.145 39.3007C261.082 39.1981 260.999 39.1091 260.901 39.0389C260.803 38.9687 260.692 38.9186 260.575 38.8917C260.458 38.8647 260.336 38.8614 260.218 38.882C260.099 38.9025 259.986 38.9465 259.884 39.0113C259.783 39.0761 259.695 39.1605 259.627 39.2595C259.558 39.3586 259.51 39.4702 259.485 39.5881C259.46 39.7059 259.459 39.8275 259.482 39.9457L260.092 43.4752L256.563 44.0862C256.33 44.1309 256.123 44.2654 255.988 44.461C255.852 44.6565 255.799 44.8974 255.84 45.1317C255.88 45.366 256.011 45.5749 256.204 45.7136C256.398 45.8523 256.637 45.9096 256.872 45.8731L260.402 45.2621L261.662 52.5431C260.263 52.9328 258.978 53.6531 257.915 54.6433C256.852 55.6334 256.043 56.8645 255.555 58.2328C255.067 59.6011 254.915 61.0665 255.112 62.5057C255.309 63.9449 255.849 65.3158 256.686 66.5028C257.524 67.6898 258.634 68.6582 259.924 69.3265C261.213 69.9949 262.645 70.3435 264.097 70.343C265.55 70.3426 266.981 69.9931 268.271 69.324C269.56 68.6549 270.67 67.6858 271.506 66.4983ZM258.164 57.094C258.991 55.9212 260.147 55.0199 261.486 54.504C262.825 53.9881 264.286 53.8809 265.686 54.1958C267.086 54.5107 268.361 55.2337 269.35 56.2732C270.339 57.3128 270.998 58.6223 271.242 60.0362C271.487 61.45 271.307 62.9047 270.725 64.2162C270.143 65.5278 269.185 66.6373 267.973 67.4045C266.76 68.1716 265.348 68.562 263.913 68.5263C262.479 68.4905 261.087 68.0302 259.914 67.2035C258.343 66.0936 257.277 64.4059 256.949 62.5107C256.621 60.6154 257.058 58.6674 258.164 57.094Z" fill="#F3E2E7"/>
</g>
<g opacity="0.4" clip-path="url(#clip7)">
<path d="M80.9557 59.9637C81.2568 59.6557 81.2512 59.1622 80.9432 58.8611C80.5094 58.4369 79.7674 57.8828 78.7167 57.6674C77.8054 57.4782 76.8341 57.7299 76.4679 57.8245C76.0509 57.9324 75.8006 58.3579 75.9085 58.775C75.9816 59.0567 76.1999 59.2627 76.4626 59.3331C76.5882 59.3668 76.7242 59.3693 76.8595 59.3345C77.1286 59.2645 77.8447 59.0795 78.4 59.1949C79.0866 59.3348 79.5684 59.6986 79.8529 59.9767C80.1607 60.2767 80.6541 60.2716 80.9557 59.9637Z" fill="#F3E2E7"/>
<path d="M78.7123 56.448C79.0579 56.5164 80.2284 57.3899 81.2274 58.3208C81.5432 58.6148 82.0363 58.5968 82.3301 58.2819C82.6239 57.9671 82.6066 57.4731 82.2911 57.1797C81.7739 56.6971 80.0008 55.105 79.0075 54.9164C77.9684 54.716 76.1652 55.5647 75.6373 55.8291C75.2524 56.0221 75.0966 56.4912 75.2895 56.8762C75.3934 57.0832 75.5774 57.2241 75.7854 57.2798C75.9632 57.3274 76.1588 57.3126 76.3366 57.2235C77.1756 56.8028 78.3699 56.3821 78.7123 56.448Z" fill="#F3E2E7"/>
<path d="M80.534 64.9633C80.8666 65.0524 81.2084 64.855 81.2976 64.5224C81.3867 64.1898 81.1893 63.8479 80.8567 63.7588C80.5241 63.6697 80.1822 63.867 80.0931 64.1996C80.004 64.5323 80.2013 64.8741 80.534 64.9633Z" fill="#F3E2E7"/>
<path d="M96.7871 78.3017C96.8514 77.5755 96.901 76.8501 96.9502 76.1279C97.1432 73.2882 97.3256 70.6061 98.3924 68.0915C99.5329 65.4044 100.64 62.4625 101.02 59.1565C101.409 55.7728 101.811 52.2731 99.6144 48.6111C96.6415 43.6552 91.1533 42.1136 90.9205 42.0502C90.9089 42.0471 90.8979 42.0441 90.8863 42.041C88.1424 41.3058 84.8858 41.6918 83.2505 42.1473C79.3506 40.5225 75.3466 40.8413 72.2143 43.042C72.2097 43.0451 72.2072 43.0503 72.2026 43.0534C72.1783 43.07 72.1533 43.0849 72.1304 43.104C69.7974 45.0942 68.6756 47.6775 67.5815 50.1977C66.2616 53.241 65.7478 56.3442 65.3888 59.2449C65.055 61.9613 63.8698 64.3775 62.6155 66.935C62.2976 67.583 61.9785 68.2334 61.6712 68.894C59.8531 72.8121 60.667 77.7068 61.9957 80.9634C61.8303 81.0682 61.6614 81.1662 61.4978 81.2747C61.1384 81.5127 61.0405 81.9968 61.2786 82.3556C61.3877 82.5211 61.5494 82.6311 61.7267 82.6786C61.9351 82.7345 62.1656 82.7042 62.36 82.5754C63.872 81.5733 65.4769 80.7393 67.1305 80.0971C68.9325 79.3972 70.8008 78.9342 72.6884 78.6965C72.9336 79.0093 73.3007 79.407 73.8091 79.8242C73.8978 79.897 73.9975 79.9468 74.1015 79.9747C74.3883 80.0515 74.7062 79.9601 74.9067 79.7162C75.1799 79.3835 75.1314 78.8914 74.7986 78.6186C74.5278 78.3958 74.3144 78.1874 74.1506 78.0094C74.8737 77.4264 75.4973 76.7203 75.9747 75.9292C76.507 75.0474 76.7961 74.1774 76.9521 73.4127C76.9781 73.4299 77.0004 73.4494 77.0264 73.4666C77.6543 73.8738 78.3472 74.179 79.07 74.3727C79.7928 74.5663 80.546 74.6486 81.294 74.6095C81.3245 74.608 81.353 74.6022 81.3837 74.6002C81.136 75.3397 80.9517 76.2384 80.972 77.2677C80.99 78.191 81.1772 79.1138 81.5119 79.9803C80.8644 80.1826 79.7788 80.3907 78.4354 80.217C78.0082 80.1618 77.6173 80.4635 77.5615 80.8905C77.5109 81.2823 77.7606 81.6442 78.1323 81.7438C78.1654 81.7527 78.2001 81.7598 78.235 81.7643C80.1253 82.0087 81.6292 81.6278 82.433 81.3065C83.9484 82.4576 85.3353 83.7934 86.5487 85.3002C87.665 86.6894 88.6365 88.2132 89.4353 89.8286C89.539 90.0383 89.7243 90.1806 89.9333 90.2366C90.1101 90.2839 90.3039 90.2697 90.4809 90.182C90.8669 89.9909 91.0251 89.523 90.8341 89.1369C90.7368 88.9397 90.6281 88.7485 90.5257 88.5542C93.2928 86.3902 96.4082 82.5769 96.7871 78.3017ZM81.2122 73.0522C80.0429 73.1125 78.8584 72.7957 77.8765 72.1585C76.7781 71.4442 75.9104 70.5819 75.2963 69.5947C74.3735 68.1141 74.152 66.6664 74.0058 65.7115C73.7732 64.1483 73.897 62.9691 74.1183 61.177C74.351 59.346 74.6833 56.8822 75.2074 53.8895C76.6228 53.2222 78.026 52.528 79.5117 51.5963C80.7809 50.8054 82.0239 49.9336 83.2226 49.0021C83.3343 49.4352 83.457 49.8853 83.596 50.3651C84.4051 53.1557 85.6994 55.5542 87.051 57.5017C86.1631 57.5949 85.26 57.783 84.8774 57.8706C84.4575 57.9669 84.1952 58.3855 84.2916 58.8054C84.3583 59.0967 84.5806 59.3119 84.8508 59.3843C84.9699 59.4162 85.098 59.4203 85.2265 59.3907C86.2813 59.149 87.6122 58.9576 88.171 59.0039C89.3269 60.4539 90.436 61.5607 91.2353 62.2885C91.2321 62.2963 91.2298 62.3032 91.2266 62.3109C90.7893 63.4104 90.3608 64.4552 89.9499 65.4223C89.5904 66.2896 89.3037 66.9218 89.0168 67.478C88.6593 68.1854 88.2795 68.777 87.7818 69.399C87.1864 70.1525 86.2859 71.291 84.7251 72.1233C83.7092 72.6699 82.5267 72.9824 81.2122 73.0522ZM67.614 67.2848C67.605 67.262 67.5921 67.2418 67.5812 67.2201C67.5746 67.1968 67.5712 67.1732 67.5624 67.1499L67.4597 66.8823C67.2616 66.3635 67.5215 65.7796 68.04 65.5805C68.5591 65.3809 69.1445 65.6412 69.343 66.16L69.4958 66.5584C69.6501 66.961 70.1013 67.1616 70.5034 67.0071L70.9018 66.8544C71.4212 66.6555 72.0062 66.9156 72.2048 67.434C72.404 67.9525 72.1445 68.537 71.6264 68.7368L68.6155 69.8939L67.614 67.2848ZM72.5707 60.9836C72.5142 61.4395 72.465 61.8581 72.4247 62.2575C72.0274 62.0267 71.5987 61.6959 71.265 61.2232C70.6604 60.3657 70.7464 59.5726 70.8097 58.9925C70.8893 58.2618 70.9732 57.6953 71.2592 57.6002C71.5439 57.5064 72.3001 57.6756 72.9419 58.2218C72.7945 59.2541 72.6724 60.1818 72.5707 60.9836ZM72.3238 63.9483C72.3194 64.4548 72.3454 64.9646 72.4079 65.5067C72.1544 65.3801 71.8825 65.2997 71.5998 65.2617L72.2923 63.935C72.3031 63.939 72.3136 63.944 72.3238 63.9483ZM90.1116 70.1648C89.8749 70.0637 89.627 69.9865 89.3636 69.959C89.3478 69.9575 89.3327 69.9599 89.3168 69.9589C89.6133 69.5576 89.8793 69.1492 90.1231 68.7176C90.1367 68.7191 90.1503 68.7206 90.1639 68.7221L90.1116 70.1648ZM90.8809 67.2034C91.0389 66.8549 91.2051 66.4698 91.3887 66.0275C91.7285 65.2276 92.0828 64.3675 92.4513 63.4504C93.2799 63.2972 94.0201 63.5283 94.2209 63.7533C94.4216 63.9788 94.2104 64.5117 93.9136 65.1854C93.6788 65.7184 93.3567 66.4482 92.4043 66.8885C91.8786 67.1305 91.3411 67.2018 90.8809 67.2034ZM89.7476 87.1764C89.1459 86.1813 88.488 85.2233 87.7645 84.3231C86.4207 82.6538 84.879 81.1764 83.1873 79.9178C82.7795 79.0828 82.5496 78.1609 82.5319 77.2383C82.5083 76.0207 82.8382 75.0244 83.1672 74.3389C83.9865 74.1504 84.7585 73.877 85.4623 73.4987C85.8436 73.2951 86.1842 73.0747 86.5023 72.8482C86.5545 73.2983 86.7167 73.7417 87.0118 74.1309C87.1204 74.2741 87.2694 74.369 87.4307 74.4122C87.6557 74.4725 87.9051 74.4316 88.1051 74.2801C88.4479 74.0193 88.5149 73.5302 88.2541 73.1874C87.9095 72.7338 87.9869 72.0972 88.4302 71.7385C88.8797 71.375 89.5414 71.4451 89.9052 71.8936L90.1794 72.2325C90.1794 72.2325 90.1794 72.2325 90.1798 72.2331C90.3109 72.3948 90.4934 72.4889 90.6849 72.5138C90.8398 72.5343 91.0004 72.5095 91.1442 72.435C91.1904 72.4113 91.2348 72.3823 91.2766 72.3488L91.6156 72.0741C91.8335 71.8978 92.1066 71.817 92.3851 71.8464C92.6642 71.8754 92.9146 72.012 93.0904 72.2297C93.4536 72.6786 93.3846 73.34 92.9356 73.7037L90.3587 75.7905L89.498 74.7271C89.2272 74.3918 88.7355 74.3403 88.4011 74.6119C88.0663 74.8829 88.0144 75.3739 88.2859 75.7088L89.6371 77.3785C89.7414 77.5077 89.8833 77.599 90.0415 77.6414C90.0807 77.6519 90.1206 77.6594 90.1616 77.6634C90.3673 77.6851 90.5732 77.624 90.7341 77.4937L93.5752 75.194C93.5766 75.1928 93.5782 75.191 93.5796 75.1898L93.9186 74.9151C95.0344 74.0098 95.2065 72.365 94.3026 71.248C93.6498 70.4416 92.6121 70.135 91.6647 70.3619L91.7245 68.6961C92.1535 68.6302 92.6055 68.5123 93.0577 68.3034C94.5447 67.616 95.0618 66.4437 95.34 65.813C95.7095 64.9748 96.268 63.7081 95.3856 62.7158C94.8127 62.0713 93.8147 61.8297 92.9046 61.8448C92.904 61.843 92.9029 61.8411 92.9024 61.8389C92.8918 61.8042 92.8797 61.7709 92.8648 61.7383C92.8593 61.7266 92.8527 61.7152 92.8461 61.7037C92.8282 61.6698 92.8085 61.6371 92.7852 61.6055C92.7789 61.5969 92.7718 61.5891 92.7654 61.5809C92.7392 61.548 92.7103 61.5171 92.6781 61.4886C92.6755 61.4863 92.6737 61.4831 92.6706 61.4806C90.9706 60.0034 86.8295 55.9216 85.0927 49.9306C84.6092 48.2635 84.2939 46.8725 84.1271 45.6768C84.068 45.2503 83.6743 44.9515 83.2469 45.0119C82.8201 45.0715 82.5224 45.4654 82.5819 45.8921C82.6448 46.3445 82.7325 46.8229 82.8327 47.317C81.503 48.3879 80.1111 49.3834 78.6828 50.2739C77.1395 51.2417 75.729 51.9227 74.1771 52.6498C73.9474 52.7573 73.7844 52.9699 73.7403 53.2191C73.5299 54.3999 73.3493 55.4998 73.1923 56.5177C72.4396 56.1044 71.5306 55.8663 70.7661 56.1196C69.5064 56.5373 69.3559 57.9128 69.2568 58.8251C69.1821 59.5098 69.0437 60.7836 69.9883 62.1225C70.2762 62.5308 70.6105 62.8604 70.9505 63.1324L70.1541 64.6579C69.9464 64.4628 69.7121 64.2945 69.4442 64.1753C68.816 63.8956 68.1193 63.8779 67.4788 64.1246C66.1589 64.6323 65.4962 66.1193 66.0013 67.4406L66.1035 67.7081C66.1119 67.7292 66.125 67.7467 66.1346 67.767C66.1416 67.7931 66.146 67.8191 66.1557 67.8448L67.0009 70.0449C67.0009 70.0449 67.0008 70.0454 67.0012 70.046L67.2725 70.7512L67.438 71.1821C67.4611 71.2427 67.4913 71.2987 67.5267 71.3496C67.6332 71.5025 67.7898 71.6091 67.9646 71.6559C68.1183 71.6971 68.2855 71.6919 68.4453 71.6302L71.7819 70.3483C71.7837 70.3477 71.7851 70.3465 71.787 70.3454L72.1856 70.1921C72.679 70.0019 73.0808 69.674 73.363 69.2694C73.5313 69.6461 73.7269 70.0312 73.9695 70.4198C74.3927 71.1006 74.9243 71.7222 75.5362 72.2937C75.4789 73.0519 75.2664 74.0803 74.6369 75.1234C74.1598 75.9134 73.4996 76.5974 72.729 77.1166C70.6333 77.3593 68.5602 77.8676 66.5634 78.6434C65.4674 79.069 64.396 79.5819 63.3524 80.1593C62.128 77.028 61.6067 72.735 63.0835 69.5524C63.3856 68.9028 63.7002 68.2614 64.0134 67.6229C65.2698 65.0616 66.5684 62.4131 66.9342 59.4367C67.2786 56.6526 67.7689 53.6815 69.019 50.7982C70.0737 48.3687 71.071 46.0734 73.1065 44.3211C75.7709 42.4483 79.063 42.1623 82.4232 43.4949C82.4221 43.6319 82.4146 43.7661 82.4177 43.9053C82.4248 44.2603 82.6682 44.5554 82.9952 44.643C83.0645 44.6616 83.1376 44.6704 83.2128 44.669C83.643 44.6605 83.9855 44.3044 83.9772 43.8736C83.9752 43.7703 83.9808 43.6711 83.9811 43.5694C85.41 43.2336 88.1734 42.9119 90.5112 43.5555C90.5619 43.5691 95.6233 44.9899 98.2765 49.4133C100.201 52.6211 99.8461 55.7088 99.4702 58.9781C99.1129 62.0876 98.0506 64.9028 96.9563 67.4822C95.7865 70.2384 95.5871 73.1786 95.3937 76.022C95.3451 76.7336 95.2969 77.448 95.2332 78.1642C94.9247 81.6378 92.3576 85.0726 89.7476 87.1764Z" fill="#F3E2E7"/>
<path d="M89.398 61.4102C89.4663 61.324 89.4709 61.2084 89.4112 61.116C89.184 60.7644 88.4985 59.911 87.1453 59.8101C86.0215 59.7265 85.1953 60.3427 84.8644 60.6417C84.767 60.7297 84.7538 60.8753 84.8337 60.9791C85.1206 61.3531 85.8814 62.1863 87.0394 62.2947C88.4315 62.4254 89.1507 61.7224 89.398 61.4102Z" fill="#F3E2E7"/>
</g>
<g opacity="0.4">
<path d="M217.138 41.4822C217.35 41.1068 217.216 40.6315 216.841 40.4204C216.312 40.1229 215.452 39.7797 214.381 39.8437C213.452 39.8967 212.579 40.3913 212.25 40.5774C211.875 40.7896 211.743 41.2654 211.956 41.6403C212.099 41.8936 212.363 42.036 212.635 42.036C212.765 42.036 212.897 42.0033 213.019 41.9346C213.261 41.7974 213.905 41.4334 214.471 41.4011C215.17 41.3585 215.73 41.5852 216.077 41.7802C216.451 41.9903 216.927 41.8577 217.138 41.4822Z" fill="#F3E2E7"/>
<path d="M214.062 38.6669C214.413 38.6435 215.77 39.1843 216.976 39.8249C217.357 40.0272 217.828 39.8821 218.031 39.502C218.233 39.1219 218.088 38.6492 217.708 38.4474C217.083 38.1151 214.959 37.0361 213.95 37.111C212.895 37.1864 211.373 38.4729 210.931 38.865C210.609 39.151 210.58 39.6445 210.866 39.9663C211.02 40.1395 211.234 40.2279 211.45 40.2279C211.634 40.2279 211.819 40.1629 211.967 40.0308C212.669 39.4073 213.714 38.6918 214.062 38.6669Z" fill="#F3E2E7"/>
<path d="M218.025 46.4207C218.369 46.4207 218.648 46.1415 218.648 45.7972C218.648 45.4528 218.369 45.1737 218.025 45.1737C217.681 45.1737 217.401 45.4528 217.401 45.7972C217.401 46.1415 217.681 46.4207 218.025 46.4207Z" fill="#F3E2E7"/>
<path d="M220.067 46.4207C220.411 46.4207 220.691 46.1415 220.691 45.7972C220.691 45.4528 220.411 45.1737 220.067 45.1737C219.723 45.1737 219.444 45.4528 219.444 45.7972C219.444 46.1415 219.723 46.4207 220.067 46.4207Z" fill="#F3E2E7"/>
<path d="M237.177 55.0979C237.051 54.3797 236.911 53.6663 236.772 52.956C236.223 50.1631 235.705 47.5251 236.085 44.8201C236.491 41.9294 236.799 38.8011 236.31 35.5095C235.81 32.1404 235.293 28.6559 232.223 25.6872C228.069 21.6697 222.369 21.601 222.127 21.6C222.115 21.6 222.104 21.6 222.092 21.6C219.251 21.6 216.205 22.8157 214.744 23.6789C210.556 23.1189 206.771 24.4631 204.315 27.3995C204.312 27.4037 204.311 27.4094 204.307 27.4136C204.288 27.4359 204.267 27.4567 204.25 27.4812C202.512 30.0073 202.097 32.793 201.692 35.5105C201.205 38.7917 201.512 41.9221 201.916 44.8169C202.297 47.5272 201.777 50.1677 201.227 52.9627C201.088 53.671 200.948 54.3818 200.822 55.0994C200.08 59.3546 202.133 63.8718 204.26 66.6736C204.127 66.8176 203.989 66.9559 203.859 67.1031C203.574 67.426 203.604 67.919 203.927 68.2039C204.075 68.3355 204.26 68.4 204.444 68.4C204.659 68.4 204.874 68.3111 205.029 68.1363C206.23 66.7771 207.564 65.5561 208.995 64.5078C210.555 63.3653 212.239 62.4345 214.001 61.7164C214.319 61.9551 214.777 62.2442 215.376 62.5157C215.48 62.563 215.589 62.5853 215.697 62.5853C215.994 62.5853 216.277 62.4148 216.408 62.1272C216.586 61.7351 216.411 61.2723 216.019 61.095C215.7 60.9499 215.44 60.8038 215.236 60.6743C215.783 59.924 216.203 59.0805 216.459 58.1929C216.745 57.2033 216.799 56.2881 216.752 55.5092C216.782 55.5191 216.808 55.5321 216.838 55.5419C217.55 55.7728 218.298 55.8883 219.046 55.8883C219.795 55.8883 220.543 55.7728 221.256 55.5414C221.285 55.5321 221.311 55.5191 221.34 55.5092C221.292 56.2876 221.347 57.2033 221.633 58.1924C221.889 59.0795 222.309 59.9224 222.856 60.6728C222.283 61.0357 221.288 61.5178 219.946 61.6977C219.519 61.7549 219.219 62.1475 219.276 62.5744C219.329 62.966 219.663 63.2509 220.048 63.2509C220.083 63.2509 220.118 63.2489 220.153 63.2442C222.042 62.9909 223.396 62.2338 224.089 61.7154C225.851 62.4351 227.536 63.3664 229.098 64.5078C230.536 65.5608 231.869 66.7812 233.059 68.1348C233.213 68.3105 233.429 68.4 233.645 68.4C233.828 68.4 234.012 68.336 234.16 68.2055C234.484 67.9211 234.515 67.4281 234.231 67.1047C234.086 66.9393 233.931 66.7828 233.782 66.6216C235.895 63.8151 237.917 59.3255 237.177 55.0979ZM220.774 54.0584C219.66 54.4193 218.434 54.4198 217.32 54.0584C216.074 53.6528 215.013 53.0444 214.165 52.2498C212.89 51.0585 212.301 49.7174 211.913 48.8329C211.284 47.3831 211.098 46.2121 210.848 44.4238C210.599 42.595 210.282 40.1291 210.014 37.1027C211.208 36.0919 212.384 35.0581 213.578 33.7737C214.599 32.6812 215.574 31.5174 216.491 30.3074C216.711 30.6969 216.946 31.0999 217.204 31.5273C218.708 34.0134 220.579 35.9951 222.389 37.5265C221.555 37.8463 220.732 38.2618 220.385 38.4454C220.004 38.6471 219.859 39.1193 220.061 39.4999C220.201 39.7641 220.471 39.9144 220.751 39.9144C220.874 39.9144 220.999 39.8853 221.115 39.8234C222.072 39.3169 223.308 38.7875 223.859 38.6877C225.351 39.7891 226.709 40.5711 227.669 41.0672C227.668 41.0755 227.668 41.0828 227.667 41.0911C227.529 42.2663 227.385 43.3864 227.239 44.4269C227.116 45.3577 227.003 46.0426 226.87 46.6541C226.707 47.4299 226.494 48.0997 226.174 48.8293C225.794 49.7112 225.219 51.0439 223.926 52.2519C223.087 53.0428 222.025 53.6507 220.774 54.0584ZM206.146 52.007C206.132 51.9872 206.114 51.9711 206.098 51.9529C206.085 51.9321 206.076 51.9103 206.061 51.89L205.893 51.6581C205.567 51.2083 205.667 50.577 206.116 50.2504C206.566 49.9233 207.199 50.0232 207.525 50.473L207.776 50.8183C208.029 51.1672 208.517 51.2441 208.865 50.9909L209.21 50.7403C209.661 50.4137 210.293 50.5135 210.619 50.9628C210.946 51.4121 210.846 52.0439 210.398 52.371L207.789 54.2679L206.146 52.007ZM209.303 44.6375C209.366 45.0925 209.427 45.5096 209.492 45.9058C209.048 45.7857 208.549 45.5772 208.104 45.2069C207.298 44.5351 207.176 43.7468 207.087 43.1701C206.974 42.4437 206.909 41.8748 207.161 41.7089C207.411 41.5446 208.186 41.5123 208.947 41.8737C209.072 42.9091 209.194 43.8367 209.303 44.6375ZM209.832 47.5651C209.959 48.0555 210.116 48.5412 210.316 49.0487C210.039 48.992 209.755 48.9847 209.473 49.0211L209.798 47.5605C209.81 47.5615 209.821 47.5636 209.832 47.5651ZM228.623 48.966C228.368 48.9296 228.108 48.9192 227.847 48.9608C227.831 48.9634 227.817 48.9697 227.802 48.9728C227.984 48.5084 228.135 48.0451 228.259 47.5651C228.273 47.5631 228.286 47.561 228.3 47.5589L228.623 48.966ZM228.599 45.9063C228.662 45.5288 228.722 45.1139 228.785 44.6391C228.906 43.7785 229.026 42.856 229.145 41.8748C229.905 41.5123 230.68 41.5441 230.932 41.7094C231.185 41.8753 231.119 42.4447 231.006 43.1722C230.917 43.7478 230.795 44.5361 229.989 45.208C229.544 45.5777 229.043 45.7857 228.599 45.9063ZM232.674 65.4921C231.835 64.6867 230.952 63.9316 230.02 63.2494C228.29 61.9847 226.418 60.9567 224.458 60.1788C223.848 59.4778 223.388 58.6469 223.132 57.7603C222.794 56.5903 222.855 55.5425 222.995 54.7952C223.738 54.4011 224.413 53.9372 224.995 53.3897C225.31 53.0943 225.582 52.7932 225.831 52.4921C225.998 52.9133 226.269 53.2997 226.655 53.5992C226.797 53.7095 226.965 53.7625 227.132 53.7625C227.365 53.7625 227.596 53.6585 227.749 53.4604C228.013 53.1198 227.951 52.6299 227.611 52.3663C227.16 52.0174 227.07 51.3825 227.406 50.9212C227.746 50.4537 228.403 50.3503 228.871 50.6893L229.223 50.9457C229.223 50.9457 229.223 50.9457 229.224 50.9462C229.392 51.0684 229.593 51.1121 229.784 51.0866C229.939 51.0663 230.088 51.0008 230.208 50.8916C230.246 50.8567 230.281 50.8172 230.313 50.7741L230.569 50.421C230.734 50.1943 230.977 50.0455 231.254 50.0019C231.531 49.9577 231.808 50.0247 232.034 50.1896C232.501 50.5291 232.606 51.1859 232.266 51.6534L230.317 54.3361L229.211 53.5316C228.862 53.2779 228.374 53.3553 228.121 53.7043C227.868 54.0527 227.945 54.5404 228.294 54.7937L230.031 56.0567C230.165 56.1545 230.326 56.206 230.49 56.206C230.53 56.206 230.571 56.2029 230.612 56.1961C230.816 56.1639 230.999 56.0515 231.121 55.8841L233.27 52.9274C233.271 52.9258 233.272 52.9237 233.273 52.9222L233.529 52.5691C234.373 51.4059 234.113 49.7725 232.951 48.9275C232.112 48.3176 231.03 48.29 230.174 48.7544L229.8 47.1299C230.198 46.9552 230.604 46.7243 230.987 46.4055C232.245 45.3567 232.441 44.0905 232.547 43.4093C232.686 42.504 232.898 41.1359 231.789 40.4058C231.069 39.9315 230.042 39.9565 229.167 40.2066C229.166 40.2051 229.164 40.2035 229.163 40.2014C229.144 40.1707 229.124 40.1416 229.101 40.1141C229.093 40.1042 229.083 40.0948 229.074 40.0855C229.048 40.0574 229.02 40.0309 228.99 40.0064C228.981 39.9997 228.973 39.9939 228.964 39.9877C228.93 39.9627 228.895 39.9404 228.856 39.9211C228.853 39.9196 228.85 39.917 228.847 39.9154C226.822 38.9285 221.766 36.0575 218.538 30.7203C217.639 29.2351 216.975 27.9731 216.504 26.8613C216.337 26.4646 215.879 26.2779 215.482 26.4469C215.085 26.6149 214.899 27.0725 215.067 27.4692C215.245 27.8899 215.454 28.3293 215.678 28.7807C214.671 30.1592 213.584 31.481 212.435 32.7108C211.195 34.0451 210.009 35.068 208.698 36.1719C208.504 36.3352 208.401 36.5827 208.423 36.8349C208.526 38.0299 208.636 39.1391 208.748 40.1629C207.914 39.9586 206.974 39.9638 206.301 40.4063C205.192 41.1359 205.403 42.5035 205.543 43.4103C205.648 44.091 205.845 45.3572 207.103 46.4061C207.487 46.7259 207.895 46.9578 208.294 47.1325L207.92 48.8121C207.669 48.6774 207.399 48.5755 207.109 48.5297C206.43 48.4221 205.752 48.5854 205.198 48.9894C204.054 49.8214 203.799 51.4293 204.629 52.5748L204.797 52.8067C204.81 52.8249 204.827 52.8385 204.842 52.8556C204.855 52.879 204.866 52.9029 204.883 52.9253L206.268 54.8316C206.268 54.8316 206.268 54.8321 206.269 54.8327L206.713 55.4437L206.985 55.817C207.023 55.8695 207.067 55.9158 207.114 55.9559C207.256 56.076 207.435 56.1384 207.616 56.1384C207.775 56.1384 207.935 56.09 208.074 55.9891L210.965 53.8873C210.967 53.8863 210.968 53.8847 210.969 53.8831L211.314 53.632C211.742 53.3205 212.045 52.8998 212.213 52.436C212.473 52.7563 212.762 53.0777 213.096 53.3902C213.681 53.9383 214.356 54.4011 215.095 54.7947C215.236 55.5419 215.297 56.5903 214.959 57.7608C214.702 58.6474 214.241 59.4789 213.631 60.1798C211.67 60.9567 209.799 61.9842 208.071 63.2504C207.123 63.9451 206.22 64.7179 205.362 65.5457C203.369 62.8381 201.754 58.8263 202.357 55.3698C202.481 54.6642 202.618 53.9632 202.756 53.2654C203.306 50.4662 203.875 47.5719 203.458 44.6022C203.07 41.8238 202.775 38.8271 203.236 35.7185C203.626 33.0987 203.995 30.6235 205.508 28.4042C207.597 25.9056 210.703 24.7772 214.293 25.1947C214.328 25.3273 214.355 25.4589 214.394 25.5925C214.493 25.9337 214.805 26.1557 215.143 26.1557C215.215 26.1557 215.288 26.1453 215.36 26.1245C215.773 26.0049 216.012 25.5723 215.892 25.1583C215.864 25.059 215.844 24.9618 215.818 24.8635C217.111 24.1693 219.697 23.1433 222.122 23.16C222.174 23.16 227.431 23.2224 231.138 26.8083C233.827 29.4088 234.284 32.4831 234.767 35.7383C235.227 38.8343 234.929 41.8285 234.54 44.6032C234.123 47.5683 234.692 50.46 235.241 53.2565C235.378 53.9565 235.516 54.659 235.64 55.3672C236.241 58.8023 234.65 62.7845 232.674 65.4921Z" fill="#F3E2E7"/>
<path d="M217.737 61.6327C217.311 61.5531 216.906 61.8329 216.827 62.2561C216.748 62.6794 217.028 63.0871 217.451 63.1661C217.598 63.1937 217.748 63.2181 217.902 63.2395C217.938 63.2447 217.974 63.2467 218.009 63.2467C218.393 63.2467 218.727 62.9639 218.781 62.5733C218.84 62.1464 218.542 61.7528 218.115 61.694C217.986 61.6769 217.86 61.6555 217.737 61.6327Z" fill="#F3E2E7"/>
<path d="M225.667 40.6944C225.711 40.5935 225.686 40.4806 225.604 40.4068C225.294 40.126 224.411 39.4791 223.077 39.7318C221.97 39.9419 221.332 40.751 221.089 41.1254C221.018 41.2357 221.043 41.3797 221.147 41.4593C221.521 41.7463 222.471 42.3542 223.618 42.1592C224.997 41.9252 225.509 41.0599 225.667 40.6944Z" fill="#F3E2E7"/>
<path d="M221.569 48.0331C220.72 48.1127 219.886 48.1865 219.046 48.2037C218.206 48.187 217.372 48.1127 216.523 48.0331C216.523 48.0331 215.9 47.8651 215.735 48.1459C215.694 48.2161 215.704 48.3565 215.743 48.5276C216.089 50.0564 217.678 50.552 219.03 50.5707V50.5718C219.035 50.5718 219.041 50.5712 219.047 50.5712C219.052 50.5712 219.058 50.5718 219.063 50.5718V50.5707C220.416 50.552 222.005 50.057 222.35 48.5276C222.389 48.3565 222.399 48.2161 222.358 48.1459C222.193 47.8651 221.569 48.0331 221.569 48.0331Z" fill="#F3E2E7"/>
</g>
<g opacity="0.4">
<path d="M171.773 60.7306L173.371 60.1919C173.743 60.0665 173.942 59.6641 173.817 59.2922C173.691 58.9203 173.289 58.7209 172.917 58.8463L171.319 59.3851C170.947 59.5105 170.748 59.9129 170.873 60.2847C170.999 60.6566 171.401 60.856 171.773 60.7306Z" fill="#F3E2E7"/>
<path d="M144.668 38.7672C144.278 38.776 143.973 39.1026 143.977 39.4898C143.978 39.5482 143.969 40.9302 141.98 41.601C140.044 42.2539 139.251 41.254 139.162 41.1304C138.942 40.8093 138.507 40.7249 138.182 40.9404C137.856 41.158 137.767 41.5983 137.985 41.9251C138.041 42.0087 139.392 43.9723 142.434 42.9466C145.465 41.9244 145.401 39.5417 145.396 39.4408C145.38 39.0535 145.056 38.7566 144.668 38.7672Z" fill="#F3E2E7"/>
<path d="M134.704 73.2303L167.004 62.3388L168.868 61.7101C169.24 61.5847 169.44 61.1823 169.314 60.8105C169.189 60.4386 168.786 60.2391 168.415 60.3645L167.223 60.7664L166.155 57.6009C164.152 51.6589 158.824 47.5507 152.543 47.0661C153.071 46.8366 153.591 46.6064 154.091 46.377C156.799 45.1351 158.33 42.2092 157.816 39.2635C157.652 38.3272 157.176 37.4246 156.433 36.6486C155.071 35.2272 154.32 33.36 154.319 31.3869C154.319 31.3399 154.311 31.2939 154.302 31.2487C154.861 30.4518 155.055 29.4139 154.721 28.4232C154.388 27.4363 153.609 26.7302 152.687 26.4322L151.588 23.1723C148.95 15.3499 140.44 11.1319 132.618 13.7696C124.796 16.4073 120.578 24.917 123.215 32.7394L124.326 36.0318C123.796 36.8216 123.615 37.8335 123.941 38.8021C124.268 39.7715 125.026 40.4675 125.927 40.7748C125.95 40.8303 125.979 40.8836 126.016 40.9326C127.209 42.501 127.741 44.4427 127.517 46.3989C127.396 47.459 127.562 48.4655 127.999 49.3109C129.372 51.9645 132.358 53.3664 135.262 52.7209C135.815 52.5976 136.385 52.4623 136.961 52.3214C132.258 56.5112 130.506 63.0049 132.51 68.9461L133.577 72.1116L127.883 74.0317C127.511 74.1571 127.311 74.5595 127.437 74.9313C127.562 75.3032 127.965 75.5026 128.336 75.3773L134.704 73.2303ZM151.364 48.6519C151.355 48.6931 151.346 48.7323 151.336 48.7745C151.303 48.9059 151.265 49.0419 151.224 49.1814C151.212 49.2222 151.197 49.2649 151.185 49.3063C151.153 49.408 151.121 49.5103 151.084 49.6152C151.064 49.6721 151.042 49.7304 151.021 49.788C150.987 49.8807 150.951 49.9739 150.913 50.0682C150.888 50.1306 150.861 50.1936 150.834 50.2566C150.794 50.3494 150.751 50.4427 150.707 50.5364C150.677 50.5997 150.647 50.6631 150.615 50.7266C150.566 50.8235 150.514 50.9203 150.461 51.0172C150.427 51.0774 150.395 51.1377 150.36 51.1977C150.296 51.3066 150.227 51.4149 150.157 51.5229C150.126 51.5702 150.098 51.6179 150.066 51.665C149.961 51.819 149.85 51.9717 149.73 52.1219C149.711 52.1459 149.689 52.1688 149.67 52.1926C149.567 52.3178 149.46 52.4416 149.347 52.5627C149.301 52.6115 149.251 52.6586 149.204 52.7066C149.11 52.8007 149.015 52.894 148.914 52.9847C148.856 53.0372 148.795 53.088 148.734 53.1391C148.635 53.2221 148.533 53.3032 148.428 53.3823C148.36 53.4327 148.292 53.4824 148.222 53.5311C148.111 53.6077 147.995 53.6812 147.878 53.7532C147.806 53.7974 147.734 53.842 147.659 53.8843C147.526 53.9588 147.387 54.0284 147.245 54.0967C147.176 54.1297 147.111 54.165 147.04 54.1966C146.823 54.2928 146.599 54.383 146.362 54.463C146.124 54.5429 145.891 54.6072 145.661 54.6616C145.585 54.6794 145.511 54.6911 145.437 54.7064C145.283 54.7378 145.13 54.767 144.979 54.788C144.893 54.7998 144.81 54.8076 144.725 54.8161C144.588 54.8301 144.452 54.8416 144.317 54.8476C144.232 54.8513 144.147 54.8533 144.063 54.854C143.931 54.855 143.801 54.8521 143.672 54.8458C143.593 54.8419 143.513 54.8387 143.435 54.8322C143.3 54.821 143.168 54.8046 143.036 54.7862C142.969 54.7769 142.901 54.7696 142.835 54.7585C142.672 54.7308 142.512 54.6969 142.354 54.6593C142.325 54.6521 142.293 54.6471 142.263 54.6396C142.077 54.5926 141.896 54.5384 141.719 54.4795C141.665 54.4614 141.614 54.4405 141.561 54.4215C141.44 54.3781 141.319 54.3338 141.203 54.2856C141.138 54.2591 141.076 54.2306 141.013 54.2029C140.912 54.1581 140.812 54.1127 140.714 54.065C140.651 54.0338 140.588 54.0018 140.526 53.9695C140.434 53.9218 140.344 53.873 140.256 53.8234C140.196 53.7896 140.136 53.756 140.078 53.7217C139.991 53.6697 139.906 53.6169 139.823 53.5638C139.771 53.5308 139.718 53.498 139.668 53.4647C139.575 53.4033 139.488 53.3415 139.401 53.2796C139.366 53.2545 139.328 53.2295 139.294 53.2043C139.176 53.1183 139.065 53.0325 138.959 52.9479C138.925 52.9208 138.894 52.8946 138.862 52.8677C138.802 52.8188 138.744 52.7704 138.688 52.7228C139.465 52.1216 140.292 51.6135 141.154 51.1953C141.158 51.194 141.162 51.1929 141.167 51.1914C141.194 51.1823 141.22 51.172 141.245 51.1598L141.413 51.0783C141.54 51.0165 141.668 50.955 141.799 50.8991C141.804 50.8968 141.809 50.8941 141.814 50.8919C141.901 50.8555 141.977 50.803 142.04 50.74C142.061 50.7187 142.072 50.6908 142.091 50.6673C142.127 50.6208 142.165 50.5757 142.188 50.5222C142.202 50.4904 142.204 50.4553 142.213 50.4218C142.227 50.3702 142.245 50.3199 142.247 50.2657C142.249 50.2282 142.236 50.191 142.232 50.1529C142.226 50.1053 142.228 50.0577 142.212 50.0106C142.21 50.0045 142.206 49.9948 142.203 49.9874C142.202 49.9858 142.203 49.9842 142.202 49.9826C142.198 49.973 142.192 49.9589 142.186 49.9456C142.184 49.9412 142.183 49.9376 142.181 49.9333L141.474 47.8361C142.29 47.7263 143.106 47.544 143.915 47.2714C143.92 47.2695 143.925 47.2669 143.931 47.2651C144.255 47.1559 144.572 47.0241 144.887 46.8876C145.353 46.6881 145.806 46.47 146.237 46.2231L146.945 48.3219C146.95 48.3429 146.955 48.3639 146.959 48.3786C146.96 48.3814 146.962 48.3831 146.963 48.3859C146.965 48.3925 146.967 48.4014 146.968 48.4068C146.982 48.4479 147.01 48.4791 147.03 48.5158C147.052 48.5553 147.068 48.5984 147.096 48.6324C147.126 48.6682 147.165 48.6924 147.201 48.7214C147.233 48.748 147.261 48.7797 147.298 48.8C147.343 48.8251 147.394 48.8351 147.444 48.8499C147.479 48.8602 147.511 48.8782 147.547 48.8831C147.626 48.8936 147.708 48.8867 147.789 48.869C147.799 48.867 147.808 48.87 147.818 48.8674C147.955 48.8321 148.093 48.8053 148.23 48.7774L148.424 48.7384C148.452 48.7328 148.479 48.725 148.505 48.7161C148.51 48.7144 148.515 48.7125 148.52 48.7107C149.462 48.5202 150.43 48.4234 151.415 48.4314C151.399 48.503 151.382 48.5768 151.364 48.6519ZM125.287 38.3483C124.983 37.4477 125.46 36.4712 126.35 36.1504L127.328 39.0497C127.372 39.1809 127.43 39.303 127.478 39.432L127.484 39.4491C126.576 39.7465 125.593 39.2557 125.287 38.3483ZM152.293 31.0836L151.178 27.7762C152.086 27.4782 153.069 27.9696 153.375 28.877C153.681 29.7843 153.196 30.7711 152.293 31.0836ZM150.791 31.138C150.906 31.4798 150.999 31.8236 151.081 32.168C151.081 32.1696 151.081 32.1711 151.081 32.1727C151.132 32.3848 151.168 32.5975 151.206 32.8102C151.228 32.9303 151.251 33.0501 151.269 33.1702C151.301 33.3899 151.325 33.6096 151.345 33.8293C151.355 33.9391 151.362 34.0487 151.369 34.1582C151.383 34.3892 151.394 34.6201 151.394 34.8502C151.394 34.9136 151.39 34.9764 151.389 35.0397C151.375 35.8506 151.278 36.6531 151.1 37.435C151.087 37.491 151.076 37.5472 151.062 37.6029C151.001 37.852 150.932 38.0988 150.855 38.343C150.84 38.3927 150.823 38.4419 150.807 38.4915C149.982 40.9946 148.318 43.2123 145.988 44.6997C145.988 44.7006 145.987 44.7008 145.987 44.701C145.986 44.7015 145.986 44.7023 145.985 44.7027C145.732 44.8639 145.477 45.0135 145.219 45.1528C145.065 45.2348 144.912 45.3179 144.754 45.3933C144.633 45.4513 144.512 45.5056 144.39 45.5591C144.106 45.6825 143.818 45.8 143.521 45.9022C143.453 45.9255 143.384 45.9449 143.315 45.9669C143.071 46.0457 142.826 46.112 142.58 46.1739C142.394 46.2195 142.208 46.2646 142.018 46.3008C142.01 46.3024 142.002 46.3035 141.994 46.3051C141.499 46.3989 140.991 46.4617 140.469 46.4929C140.462 46.4934 140.456 46.498 140.449 46.4986C136.258 46.7491 132.278 44.7095 130.008 41.2967C129.958 41.2215 129.908 41.1463 129.86 41.0697C129.741 40.8819 129.627 40.6904 129.519 40.4947C129.455 40.3791 129.396 40.2599 129.336 40.1414C129.244 39.961 129.151 39.7819 129.068 39.5955C129.068 39.595 129.067 39.5946 129.067 39.5942C128.978 39.3939 128.902 39.1857 128.824 38.9784L127.688 35.6079C134.013 32.5618 139.336 27.606 142.822 21.5138L143.245 22.3297C144.502 24.7567 146.595 26.6448 149.14 27.6447C149.311 27.7122 149.487 27.7624 149.665 27.8L150.791 31.138ZM152.951 32.3603C153.163 34.3355 154.017 36.1805 155.412 37.6359C155.954 38.203 156.302 38.8497 156.417 39.5076C156.821 41.8189 155.62 44.1131 153.499 45.0867C151.835 45.8502 149.985 46.6261 148.143 47.3345C148.133 47.3366 148.123 47.3377 148.112 47.3399L147.467 45.4255C148.962 44.3287 150.177 42.9327 151.076 41.3593C151.1 41.3179 151.122 41.2761 151.146 41.2344C151.546 40.5152 151.879 39.7612 152.139 38.9789C152.167 38.8952 152.195 38.812 152.221 38.7278C152.295 38.4897 152.364 38.2505 152.424 38.008C152.445 37.927 152.461 37.8449 152.479 37.7635C152.584 37.3073 152.664 36.8455 152.719 36.3777C152.729 36.291 152.743 36.2049 152.751 36.1179C152.774 35.8857 152.787 35.653 152.797 35.4191C152.803 35.2895 152.806 35.1599 152.808 35.0298C152.811 34.801 152.814 34.5728 152.804 34.3429C152.8 34.223 152.786 34.1028 152.778 33.9827C152.752 33.5927 152.709 33.2026 152.646 32.8116C152.629 32.7009 152.617 32.5903 152.597 32.4797L152.733 32.4339L152.951 32.3603ZM125.459 34.9499L124.561 32.2857C122.173 25.205 125.991 17.5027 133.072 15.1152C140.152 12.7276 147.855 16.5454 150.242 23.626L151.141 26.2902L150.946 26.3558C150.528 26.4969 150.071 26.4856 149.659 26.3236C147.435 25.4486 145.605 23.7987 144.506 21.6763L143.469 19.6757C143.348 19.4408 143.105 19.293 142.84 19.2922C142.761 19.2924 142.684 19.3052 142.612 19.3296C142.441 19.3872 142.296 19.5087 142.209 19.6739L142.135 19.8151C138.726 26.282 133.193 31.5253 126.553 34.5812L125.93 34.7912L125.459 34.9499ZM129.26 48.6589C128.953 48.0651 128.839 47.3397 128.928 46.561C129.157 44.5626 128.721 42.578 127.694 40.877L127.952 40.7898L128.048 40.7576C128.1 40.8615 128.16 40.9598 128.216 41.0619C128.588 41.7543 129.017 42.4012 129.495 43.0024C129.533 43.0486 129.569 43.0952 129.607 43.1409C132.143 46.2368 135.99 48.0386 140.015 47.9545L140.655 49.8545C140.644 49.8599 140.633 49.8664 140.622 49.8718C138.715 50.4274 136.758 50.9332 134.953 51.3351C132.678 51.8412 130.337 50.7405 129.26 48.6589ZM133.855 68.4924C132.079 63.2238 133.549 57.4708 137.596 53.6556C137.615 53.6728 137.638 53.6912 137.657 53.7087C137.698 53.7447 137.742 53.7811 137.785 53.8179C137.855 53.878 137.927 53.938 138.003 53.9999C138.056 54.0426 138.11 54.0851 138.165 54.1284C138.24 54.1872 138.317 54.2456 138.397 54.305C138.458 54.3502 138.518 54.395 138.582 54.4405C138.664 54.4991 138.75 54.5571 138.836 54.6155C138.903 54.6608 138.969 54.7058 139.039 54.7506C139.132 54.8099 139.228 54.8678 139.325 54.9259C139.396 54.9682 139.464 55.0108 139.537 55.0522C139.652 55.1178 139.773 55.1806 139.894 55.2434C139.953 55.2745 140.01 55.3069 140.071 55.3371C140.254 55.4273 140.442 55.5136 140.637 55.595C140.694 55.619 140.756 55.6396 140.814 55.6628C140.956 55.7187 141.099 55.7742 141.247 55.8243C141.328 55.8515 141.411 55.8747 141.494 55.8999C141.625 55.9404 141.757 55.9802 141.893 56.0151C141.985 56.0386 142.079 56.0582 142.172 56.0789C142.305 56.1084 142.439 56.1363 142.575 56.1597C142.674 56.1768 142.775 56.1906 142.875 56.2043C143.013 56.2229 143.152 56.2382 143.293 56.2501C143.397 56.2589 143.501 56.266 143.607 56.2709C143.752 56.2776 143.899 56.279 144.047 56.2781C144.153 56.2774 144.259 56.2768 144.367 56.272C144.523 56.2649 144.683 56.2498 144.842 56.2337C144.947 56.223 145.05 56.215 145.156 56.2002C145.334 56.1755 145.515 56.1394 145.697 56.1024C145.79 56.0836 145.88 56.0702 145.973 56.0481C146.25 55.9827 146.53 55.9048 146.815 55.8085C147.101 55.7123 147.371 55.6045 147.631 55.4891C147.718 55.4502 147.798 55.4063 147.883 55.3654C148.05 55.2847 148.217 55.2034 148.373 55.1156C148.466 55.0631 148.553 55.0069 148.643 54.9521C148.78 54.8682 148.916 54.7838 149.044 54.6948C149.133 54.6333 149.218 54.5696 149.303 54.5057C149.421 54.4167 149.537 54.3267 149.649 54.2337C149.73 54.1658 149.809 54.0969 149.886 54.0269C149.991 53.9321 150.092 53.8357 150.191 53.7377C150.262 53.6657 150.334 53.5939 150.402 53.5205C150.497 53.4191 150.586 53.3161 150.674 53.2122C150.736 53.1391 150.799 53.0667 150.858 52.9924C150.945 52.8823 151.026 52.7707 151.106 52.6587C151.156 52.5887 151.209 52.5196 151.256 52.4492C151.344 52.3197 151.424 52.1891 151.503 52.0585C151.536 52.0047 151.572 51.9512 151.603 51.8973C151.709 51.7147 151.806 51.5318 151.897 51.3496C151.927 51.289 151.952 51.2295 151.981 51.1692C152.039 51.0451 152.098 50.9212 152.15 50.7985C152.183 50.7221 152.211 50.6475 152.241 50.5717C152.283 50.4664 152.325 50.3614 152.363 50.2579C152.392 50.1799 152.417 50.1041 152.443 50.0274C152.476 49.9284 152.509 49.8305 152.539 49.7341C152.562 49.6595 152.584 49.587 152.605 49.5141C152.632 49.4186 152.658 49.3253 152.682 49.2332C152.7 49.1653 152.717 49.0989 152.733 49.033C152.756 48.9378 152.777 48.8464 152.797 48.7559C152.809 48.7005 152.821 48.6454 152.832 48.5919C152.837 48.566 152.844 48.5377 152.849 48.5123C158.38 49.0978 163.033 52.7861 164.81 58.0546L165.877 61.2201L160.197 63.1354L158.288 57.4726C158.162 57.1007 157.76 56.9013 157.388 57.0266C157.016 57.152 156.817 57.5544 156.942 57.9263L158.852 63.5891L141.948 69.2889L140.039 63.6261C139.913 63.2543 139.511 63.0548 139.139 63.1802C138.767 63.3056 138.568 63.708 138.693 64.0798L140.603 69.7426L134.923 71.6579L133.855 68.4924Z" fill="#F3E2E7"/>
<path d="M141.92 38.4484C141.929 38.4462 141.937 38.4433 141.946 38.4405C142.306 38.3191 142.508 37.9333 142.399 37.5662C142.287 37.1897 141.892 36.9753 141.517 37.0874C141.185 37.1854 140.835 36.9959 140.729 36.6402L139.81 33.9149C139.685 33.543 139.283 33.3436 138.911 33.469C138.539 33.5943 138.34 33.9967 138.465 34.3686L139.376 37.0687C139.697 38.151 140.839 38.7699 141.92 38.4484Z" fill="#F3E2E7"/>
</g>
<g opacity="0.4" clip-path="url(#clip8)">
<path d="M185.225 -16.3308C175.402 -13.2157 169.946 -2.69063 173.061 7.13144C174.121 10.4734 176.07 13.4149 178.717 15.6772L176.625 19.7127L169.994 16.2749L165.544 24.858L172.175 28.2958L168.737 34.9264L176.3 38.8475L179.738 32.2169L186.368 35.6546L190.818 27.0715L184.188 23.6338L186.28 19.5983C189.654 20.458 193.182 20.3552 196.523 19.2957C206.346 16.1806 211.802 5.65629 208.687 -4.16655C205.573 -13.9886 195.048 -19.4458 185.225 -16.3308ZM196.032 17.7467C192.785 18.7763 189.347 18.8166 186.09 17.8618L185.447 17.6743L181.997 24.3284L188.628 27.7661L185.674 33.4644L179.043 30.0266L175.605 36.6573L170.927 34.2318L174.365 27.6012L167.734 24.1635L170.688 18.4652L177.319 21.9029L180.769 15.2488L180.246 14.8318C177.588 12.7202 175.639 9.88688 174.61 6.64022C171.766 -2.32836 176.749 -11.9379 185.716 -14.7818C194.684 -17.6257 204.294 -12.6439 207.138 -3.67533C209.982 5.29247 205 14.9028 196.032 17.7467Z" fill="#F3E2E7"/>
<path d="M202.454 0.367396C201.314 -3.22778 197.637 -5.32813 194.021 -4.58713C192.543 -7.96961 188.707 -9.76368 185.112 -8.62357C181.268 -7.40462 179.134 -3.28571 180.352 0.557304L184.528 13.7236L197.694 9.54827C201.538 8.32932 203.673 4.21041 202.454 0.367396ZM181.901 0.0660875C180.953 -2.92344 182.615 -6.12679 185.603 -7.07459C188.592 -8.0224 191.796 -6.36196 192.744 -3.37243L192.99 -2.59794L193.764 -2.84355C196.753 -3.79135 199.957 -2.13091 200.905 0.858613C201.853 3.84814 200.191 7.05149 197.203 7.99929L185.585 11.6834L181.901 0.0660875Z" fill="#F3E2E7"/>
<path d="M187.701 7.60303L186.152 8.09425L186.643 9.64322L188.192 9.15201L187.701 7.60303Z" fill="#F3E2E7"/>
<path d="M190.799 6.6206L189.25 7.11181L189.741 8.66079L191.29 8.16957L190.799 6.6206Z" fill="#F3E2E7"/>
<path d="M186.718 4.50508L185.169 4.99629L185.661 6.54527L187.21 6.05405L186.718 4.50508Z" fill="#F3E2E7"/>
<path d="M204.04 -2.6929C206.004 3.49914 203.468 10.1142 197.872 13.394L198.694 14.7962C204.949 11.1293 207.784 3.73594 205.589 -3.18412L204.04 -2.6929Z" fill="#F3E2E7"/>
<path d="M195.049 14.6487L195.541 16.1977C196.085 16.025 196.625 15.8204 197.146 15.5906L196.488 14.1047C196.022 14.3104 195.538 14.4937 195.049 14.6487Z" fill="#F3E2E7"/>
</g>
</g>
<defs>
<clipPath id="clip0">
<rect width="278" height="64" fill="white"/>
</clipPath>
<clipPath id="clip1">
<rect width="48" height="48" fill="white" transform="translate(210 -2.39917) rotate(-29.4513)"/>
</clipPath>
<clipPath id="clip2">
<rect width="31" height="31" fill="white" transform="translate(265 11) rotate(-30)"/>
</clipPath>
<clipPath id="clip3">
<rect width="48" height="48" fill="white" transform="translate(40 -6.92053) rotate(-13.3455)"/>
</clipPath>
<clipPath id="clip4">
<rect width="31" height="31" fill="white" transform="translate(-13 11) rotate(-30)"/>
</clipPath>
<clipPath id="clip5">
<rect width="29.0192" height="29.0192" fill="white" transform="translate(88 -0.490356) rotate(-30)"/>
</clipPath>
<clipPath id="clip6">
<rect width="29.0192" height="29.0192" fill="white" transform="translate(283.438 52.7186) rotate(125.178)"/>
</clipPath>
<clipPath id="clip7">
<rect width="52" height="52" fill="white" transform="translate(63.4586 32) rotate(15)"/>
</clipPath>
<clipPath id="clip8">
<rect width="52" height="52" fill="white" transform="translate(154 -7.28101) rotate(-17.595)"/>
</clipPath>
</defs>
</svg>
