<svg xmlns="http://www.w3.org/2000/svg" viewbox="0 0 64 64" height="80" width="64">
  <path fill="#007bc1" d="M30,5C16.2,5,5,16.2,5,30c0,13.8,11.2,25,25,25s25-11.2,25-25C55,16.2,43.8,5,30,5z M30.6,48.6
	c0,0.3-0.3,0.6-0.6,0.6s-0.6-0.3-0.6-0.6c0-0.3,0.3-0.6,0.6-0.6S30.6,48.2,30.6,48.6z M26.1,29.4v-4.3c0-1.2,0.5-2.3,1.2-3.1
	c0.7-0.8,1.7-1.2,2.7-1.2c1.1,0,2,0.4,2.7,1.2c0.7,0.8,1.2,1.9,1.2,3.1v4.3H26.1z M9.1,23.7l4.3,4.3H19v-3.1h-1.6v1.5h-3.3L9.7,22
	c0.5-1.3,1.2-2.6,2-3.8l3,3c-0.2,0.6,0,1.2,0.4,1.7c0.3,0.3,0.8,0.5,1.2,0.5c0.4,0,0.9-0.2,1.2-0.5c0.7-0.7,0.7-1.7,0-2.4
	c-0.5-0.5-1.1-0.6-1.7-0.4l-3.2-3.2c0.6-0.8,1.3-1.6,2-2.3l8.3,8.3c-0.2,0.7-0.3,1.5-0.3,2.2v4.3h-1.3c-0.5,0-1,0.4-1,1v1h-7.4
	l-4.5-4.5C8.6,25.8,8.8,24.7,9.1,23.7z M15.8,21.2c0.1-0.1,0.3-0.2,0.4-0.2c0.2,0,0.3,0.1,0.4,0.2c0.2,0.2,0.2,0.6,0,0.9
	c-0.2,0.2-0.6,0.2-0.9,0C15.5,21.8,15.5,21.5,15.8,21.2z M21.7,42.8v2.6l-3.2,3.2c-0.8-0.5-1.6-1.1-2.3-1.7v-2.3h3.7L21.7,42.8z
	 M23.4,21.3l-7.7-7.7c0.6-0.6,1.3-1.1,2-1.6l3.5,3.5l1.1-1.1l-3.2-3.2c0.7-0.4,1.3-0.7,2-1l4.6,4.6v4c-0.4,0.3-0.8,0.6-1.1,1
	C24.2,20.1,23.8,20.7,23.4,21.3z M30,12.3c-0.3,0-0.6-0.3-0.6-0.6c0-0.3,0.3-0.6,0.6-0.6s0.6,0.3,0.6,0.6C30.6,12,30.3,12.3,30,12.3
	z M38.3,42.8h0.5c0.5,0,0.9-0.4,1-0.9h1.2l4,4c-1.1,1-2.2,1.9-3.5,2.7l-3.2-3.2V42.8z M38.8,29.4h-1.3v-4.3c0-0.8-0.1-1.6-0.3-2.3
	l8.3-8.3c0.8,0.8,1.5,1.7,2.2,2.6l-3.9,3.9c-0.6-0.2-1.2,0-1.7,0.4c-0.7,0.7-0.7,1.7,0,2.4c0.3,0.3,0.8,0.5,1.2,0.5
	c0.4,0,0.9-0.2,1.2-0.5h0c0.4-0.5,0.6-1.1,0.4-1.7l3.7-3.7c0.8,1.3,1.5,2.8,2,4.3L46.4,27h-4.9v3.2h1.6v-1.6h3.9l4-4
	c0.2,0.9,0.4,1.8,0.5,2.7l-4.1,4.1h-7.7v-1C39.8,29.9,39.3,29.4,38.8,29.4z M43.7,23.1c-0.2,0.2-0.6,0.2-0.9,0
	c-0.2-0.2-0.2-0.6,0-0.9c0.1-0.1,0.3-0.2,0.4-0.2c0.2,0,0.3,0.1,0.4,0.2C44,22.5,44,22.9,43.7,23.1z M33.7,8.5v4.3h1.6V8.8
	c1.7,0.4,3.3,1,4.8,1.8l-2.4,2.4c-0.6-0.2-1.2,0-1.7,0.4c-0.7,0.7-0.7,1.7,0,2.4c0.3,0.3,0.8,0.5,1.2,0.5s0.9-0.2,1.2-0.5v0
	c0.5-0.5,0.6-1.1,0.4-1.7l2.7-2.7c1,0.6,1.9,1.3,2.8,2l-7.7,7.7c-0.3-0.6-0.7-1.2-1.2-1.7c-1.2-1.3-2.8-2.1-4.6-2.3v-4.1
	c0.5-0.3,0.9-0.8,0.9-1.5c0-0.9-0.8-1.7-1.7-1.7s-1.7,0.8-1.7,1.7c0,0.6,0.4,1.2,0.9,1.5v4.1c-0.7,0.1-1.3,0.2-1.9,0.5V14l-4.6-4.6
	C25,8.6,27.5,8.2,30,8.2C31.3,8.2,32.5,8.3,33.7,8.5z M37.7,15.1c-0.2,0.2-0.6,0.2-0.9,0c-0.2-0.2-0.2-0.6,0-0.9
	c0.1-0.1,0.3-0.2,0.4-0.2s0.3,0.1,0.4,0.2C37.9,14.5,37.9,14.8,37.7,15.1z M8.2,29l4,4h8v2.1h-4c-0.3-0.5-0.8-0.9-1.5-0.9
	c-0.9,0-1.7,0.8-1.7,1.7c0,0.9,0.8,1.7,1.7,1.7c0.6,0,1.2-0.4,1.5-0.9h4v2h-8.1l-1.5,1.5c-1.6-3-2.5-6.5-2.5-10.1
	C8.2,29.7,8.2,29.3,8.2,29z M15.4,35.9c0,0.3-0.3,0.6-0.6,0.6s-0.6-0.3-0.6-0.6s0.3-0.6,0.6-0.6S15.4,35.5,15.4,35.9z M11.5,41.5
	l1.3-1.3h7.4v1.6c0,0.1,0,0.1,0,0.2l-1,1h-4.6v2.4C13.4,44.3,12.4,43,11.5,41.5z M24.3,51.1l2.2-2.2v-2.6H25v2l-2.2,2.2l0.2,0.2
	c-1-0.4-2-0.8-3-1.3l3.3-3.3v-3.3h5.9v4.3c-0.5,0.3-0.9,0.8-0.9,1.5c0,0.9,0.8,1.7,1.7,1.7s1.7-0.8,1.7-1.7c0-0.6-0.4-1.2-0.9-1.5
	v-4.3h2v2.4h1.6v-2.4h2.3V46l3.3,3.3c-1,0.5-2,1-3.1,1.3v-1.6l-2.4-2.4l-1.1,1.1l1.9,1.9v1.4c-1.7,0.4-3.5,0.7-5.3,0.7
	C28,51.8,26.2,51.6,24.3,51.1z M48.9,40.8L47,38.9L45.9,40l2.2,2.2c-0.6,0.9-1.3,1.7-2,2.5l-4.5-4.5h-1.8v-3.6h4
	c0.3,0.5,0.8,0.9,1.5,0.9c0.9,0,1.7-0.8,1.7-1.7c0-0.9-0.8-1.7-1.7-1.7c-0.6,0-1.2,0.4-1.5,0.9h-4V33h8.4l3.7-3.7c0,0.2,0,0.4,0,0.7
	C51.8,33.9,50.8,37.6,48.9,40.8z M44.6,35.9c0-0.3,0.3-0.6,0.6-0.6s0.6,0.3,0.6,0.6s-0.3,0.6-0.6,0.6S44.6,36.2,44.6,35.9z"/>
  <path fill="none" d="M0,0h60v60H0V0z"/>
</svg>
