<svg xmlns="http://www.w3.org/2000/svg" viewbox="0 0 64 64" height="80" width="64">
  <path fill="#007bc1" d="M30,7.5C17.6,7.5,7.5,17.6,7.5,30S17.6,52.5,30,52.5c2.1,0,3.8-1.7,3.8-3.8c0-1-0.4-1.8-1-2.5c-0.6-0.7-0.9-1.5-0.9-2.5
	c0-2.1,1.7-3.8,3.7-3.8H40c6.9,0,12.5-5.6,12.5-12.5C52.5,16.5,42.4,7.5,30,7.5z M16.2,30c-2.1,0-3.8-1.7-3.8-3.8s1.7-3.8,3.8-3.8
	s3.8,1.7,3.8,3.8S18.3,30,16.2,30z M23.8,20c-2.1,0-3.8-1.7-3.8-3.8s1.7-3.8,3.8-3.8s3.8,1.7,3.8,3.8S25.8,20,23.8,20z M36.2,20
	c-2.1,0-3.8-1.7-3.8-3.8s1.7-3.8,3.8-3.8s3.8,1.7,3.8,3.8S38.3,20,36.2,20z M43.8,30c-2.1,0-3.8-1.7-3.8-3.8s1.7-3.8,3.8-3.8
	s3.8,1.7,3.8,3.8S45.8,30,43.8,30z"/>
  <path fill="none" d="M0,0h60v60H0V0z"/>
</svg>
