<svg xmlns="http://www.w3.org/2000/svg" viewBox="0 0 355.39 97">
    <g fill="#ffffff">
        <path d="M115.04,18.62l8.59,31H105.81ZM99.37,71.3,91.53,97h45.82l-7.39-25.7ZM218.94,0H130.99V27.6h27.75V97h44.65c-2.77-1.71-21.7-16.74-21.7-44.81C181.74,28.85,195.84,6,218.94,0m15.24,72.13c10.37,0,18.71-8.61,18.71-19.5s-7.81-20.61-18.34-20.61-18.81,9.84-18.81,20.65,7.79,19.5,18.48,19.5M326.42,61,308.56,0h-45.7V97h28.55V36.22h.2L309.3,97h46.09V0H326.6V61ZM55.32,97l8.24-27.2H32.97V61.6h33.1l7.85-26.07H32.97V27.64H76.2L84.54,0H0V97Z"/>
    </g>
</svg>