<svg xmlns="http://www.w3.org/2000/svg" width="172" height="55"><rect id="backgroundrect" width="100%" height="100%" x="0" y="0" fill="none" stroke="none" style="" class=""/>
  <title>EatonLogo</title>
  
<g class="currentLayer" style=""><title>Layer 1</title><g id="svg_1" class="">
    <path d="M41.328833634770035,6.689448611075079 l3.0860569003716876,11.137108118736592 H38.01284930182646 zM35.699204857882705,25.615344979112024 L32.88259202785002,34.848368896829015 h16.461363835740485 l-2.654942799389488,-9.233022862293524 zM78.65611784720204,0 H47.059056933213924 v9.91561904547325 H57.028557457561874 V34.848368896829015 h16.041027719210774 c-0.995154500067521,-0.6143372640798006 -7.795976210827348,-6.014038278575413 -7.795976210827348,-16.098511358380847 C65.29157332878958,10.364698564723199 70.35716691774496,2.1555694494875297 78.65611784720204,0 m5.47514591620353,25.913533771450602 c3.7255422011649273,0 6.721783619856012,-3.0932419594841463 6.721783619856012,-7.005600183122738 s-2.805832734733258,-7.404380858459206 -6.5888567280771895,-7.404380858459206 S77.50647461565768,15.038682553093622 77.50647461565768,18.92231162222879 s2.7986474117649323,7.005600183122738 6.639153461143735,7.005600183122738 M117.2695368757195,21.914954310750772 L110.85312789888212,0 h-16.418252953354 v34.848368896829015 h10.256916609351379 V13.01245524957676 h0.07185231443321793 L111.11898484871017,34.848368896829015 h16.558364640389414 V0 H117.33419633904668 V21.914954310750772 zm-97.3958032142682,12.933416696925178 l2.9603150677053236,-9.771914696953672 H11.844237620423769 v-2.9459446856245393 h11.891556476176106 l2.8202031168140422,-9.365948170937145 H11.844237620423769 v-2.8345737627506935 h15.530877176423928 L30.37135542397118,0 H-0.0006167133583096229 v34.848368896829015 z" fill="#424e54" id="svg_2"/>
    <g id="svg_3">
      <path d="M30.030056804669584,43.11138476805672 h2.6405724173087037 c0.7975606250693019,0 2.0909023343402,0.10418584727039537 1.6166770871156473,2.3280150898804095 c-0.40955816505920595,1.9292344145439415 -1.2178966756350462,2.805832734733258 -2.8740922475088837,2.805832734733258 h-1.62026974859981 l-0.9520430899693011,4.472806554915451 h-0.8550425491762397 zm-0.08981538273465262,4.4153244988805795 H31.520992322974735 c0.890968636306134,0 1.5556025015245467,-0.423928613103957 1.8753452838491,-1.9292344145439415 c0.35926153093861046,-1.6382326602368238 -0.3305206348491083,-1.771159420087713 -1.0993402978649414,-1.771159420087713 H30.730617350693592 z" fill="#231f20" id="svg_4"/>
      <path d="M34.150788866677885,50.07388251218072 l0.35926153093861046,-1.5951212501386038 c0.18322339397148468,-0.8514498217281101 0.5712258539815807,-2.6226093737437566 2.8740922475088837,-2.6226093737437566 s1.9400125309243634,1.771159420087713 1.7603816994910915,2.6226093737437566 l-0.34129845439167994,1.5951212501386038 c-0.35926153093861046,1.749603715038603 -1.1855631180613813,2.7734990452316595 -2.906425937010482,2.7734990452316595 S33.78074262296218,51.82348332480478 34.150788866677885,50.07388251218072 zm3.412984609880766,1.2430449102403855 a10.328769839034635,10.328769839034635 0 0 0 0.5784111109859396,-1.972345956570095 c0.42033598460177757,-1.9831236771667164 0.40596556953900986,-2.848943880975611 -0.9125244073192107,-2.848943880975611 s-1.7028996434562202,0.8658204017007947 -2.1196430985017685,2.848943880975611 a9.621023970042302,9.621023970042302 0 0 0 -0.262260940672574,1.972345956570095 c0.03233354108267328,0.15807507691118694 0.06107446603141087,0.890968636306134 1.1711926040526635,0.890968636306134 A1.6310474691964316,1.6310474691964316 0 0 0 37.56377505969385,51.316918055537826 z" fill="#231f20" id="svg_5"/>
      <path d="M40.35164237615936,45.98547596014214 h0.847857226207914 l0.25507571665019846,5.884704048280753 h0.02874092082598967 L44.156220227561334,45.98547596014214 h0.9843767135069328 l0.24070523562346402,5.884704048280753 h0.02874092082598967 L48.16557556186672,45.98547596014214 h0.7975606250693019 l-3.2800579819578104,6.718190958371849 h-0.9987470955877171 l-0.25507571665019846,-5.748184495017767 h-0.02874092082598967 l-2.6297944328562153,5.748184495017767 h-1.0023396911079132 z" fill="#231f20" id="svg_6"/>
      <path d="M49.73195908218622,49.51701576044161 l-0.10777847577257482,0.524521881345148 c-0.20118645402742352,0.926894789399995 -0.2119643065519785,2.1555694494875297 1.0526364241744588,2.1555694494875297 a1.7675668905314836,1.7675668905314836 0 0 0 1.7963077866209858,-1.5448247809279252 h0.8370794396473258 c-0.4347064986104954,1.6238622781560395 -1.4370461237544419,2.184310345577032 -2.780684104344118,2.184310345577032 c-1.1568222219718791,0 -2.2202363007789927,-0.47063261872237305 -1.7963077866209858,-2.5148308484982067 l0.35926153093861046,-1.6526031742455416 c0.4167433890815815,-1.9400125309243634 1.4154905506332653,-2.8345737627506935 2.9207963190912665,-2.8345737627506935 c2.320829503056217,0 1.9615682359734734,1.6633810267700966 1.5376394579595996,3.6608753498734643 zm3.1722794567122605,-0.6394854986851399 c0.3161501538223739,-1.487342724893054 0.2694461811859412,-2.381904220575251 -1.0131175436324682,-2.381904220575251 s-1.706492304940383,0.8945612318263301 -2.0262350872649364,2.381904220575251 z" fill="#231f20" id="svg_7"/>
      <path d="M56.453740063483565,46.89440665055372 h0.02514830675342794 a2.6190167122595938,2.6190167122595938 0 0 1 2.072939158847319,-1.038265910165741 l-0.17244555793792138,0.8119311390780197 a2.054975851426505,2.054975851426505 0 0 0 -2.2417920058281027,1.7172702893928715 l-0.9197094664316694,4.311138898975059 h-0.8047458161096941 l1.4370461237544419,-6.718190958371849 h0.7975606250693019 z" fill="#231f20" id="svg_8"/>
      <path d="M58.00575715956029,52.710853824617516 l1.4370461237544419,-6.718190958371849 h0.7939680295491058 l-1.4370461237544419,6.718190958371849 zm1.7352333329578187,-8.59712916756098 l0.2119643065519785,-1.0095249481122721 h0.9879692430631621 l-0.21914954706534573,1.0095249481122721 z" fill="#231f20" id="svg_9"/>
      <path d="M61.42232757067268,52.710853824617516 H60.62117672478598 l1.4370461237544419,-6.718190958371849 h0.7939680295491058 l-0.17244555793792138,0.822708925638608 h0.02514830675342794 a2.5148308484982067,2.5148308484982067 0 0 1 1.8286412122667173,-0.95922834697366 c1.6705662178104888,0 1.5735655450894939,1.2394523806841562 1.390342052172059,2.1196430985017685 L64.93231562376104,52.710853824617516 h-0.8047458161096941 l0.9987470955877171,-4.695547872951408 c0.16526031742455416,-0.7831901770245508 0.021555694742240172,-1.5196764143946524 -0.9161170028394068,-1.5196764143946524 c-0.7185230618772209,0 -1.5556025015245467,0.4957809192916791 -1.8717527542928707,1.9974941911754343 z" fill="#231f20" id="svg_10"/>
      <path d="M71.7008012043525,45.98547596014214 H72.47680764154393 c-0.15448248139099086,0.6430781601693027 -0.24070523562346402,0.9771914565025739 -0.3161501538223739,1.3220825393964333 l-1.2071186911825578,5.6583695410488986 c-0.3089649627819817,1.476565136224366 -0.9484506263770385,2.356755854041978 -2.8740922475088837,2.356755854041978 c-1.6741588792946516,0 -1.7567889060789952,-1.189155779545544 -1.5591951630087095,-1.864567431324545 h0.7975606250693019 c-0.21914954706534573,0.7688197289797998 0.25507571665019846,1.2250819986033719 1.005932352592076,1.2250819986033719 c1.5520099719683174,0 1.6382326602368238,-0.8406719692035551 2.06934662929109,-2.848943880975611 h-0.02514830675342794 a2.295681136522944,2.295681136522944 0 0 1 -1.7963077866209858,0.8119311390780197 c-1.9328270760281043,0 -1.7136774959807752,-1.666973556326326 -1.3939348455841554,-3.157909074631476 c0.3305206348491083,-1.5556025015245467 0.35926153093861046,-1.569972883605331 0.6861895702675227,-2.2884960774104854 a2.468127040771691,2.468127040771691 0 0 1 2.1555694494875297,-1.3328603919209883 a1.4370461237544419,1.4370461237544419 0 0 1 1.4550092992473225,0.9484506263770385 l0,0.02514830675342794 zm-3.650097629276843,3.2333541742312946 c-0.29818707727544336,1.3939348455841554 -0.5999668160350495,2.7914623526524736 0.8550425491762397,2.7914623526524736 a1.6705662178104888,1.6705662178104888 0 0 0 1.3723791405350454,-0.754449214971082 c0.3125575583021778,-0.5209292858249519 0.4311139030902993,-0.8263015871227708 0.8514498217281101,-2.7950550141366364 c0.2945944817552473,-1.4154905506332653 -0.35926153093861046,-1.9471977219647556 -1.095747768308712,-1.9471977219647556 C68.65067382123698,46.49563389089326 68.2626663809474,48.19853010422321 68.05070357507566,49.21883330064384 z" fill="#231f20" id="svg_11"/>
      <path d="M75.6095662387952,52.710853824617516 L77.65376951481448,43.11138476805672 h2.676498504438598 c1.5053059003859346,0 2.1555694494875297,0.6071520730394084 1.7963077866209858,2.299274061862974 c-0.24429786412564347,1.1604147515281085 -0.6035593455912789,1.9579754425613771 -1.886123136373655,2.2920887388946483 l0,0.02874092082598967 c1.2143041460788169,0.262260940672574 1.3651938175667198,1.1065255548693003 1.1137106799457257,2.317236841572054 c-0.35926153093861046,1.7280481419174265 -1.3975275070683182,2.6693134453261393 -3.0070191392877064,2.6693134453261393 zm1.0095249481122721,-0.7185230618772209 h1.3508234354859354 c1.4118978891491025,0 2.191495536617424,-0.48141047124692804 2.4932751434490967,-1.8897160617136848 c0.17963076546930523,-0.8514498217281101 0.17603816994910915,-2.015457366668315 -1.2897489818227683,-2.015457366668315 h-1.7280481419174265 zm2.615424314631298,-4.620103564919191 c1.2250819986033719,0 1.7963077866209858,-0.8406719692035551 2.022642557708707,-1.9292344145439415 c0.33411326335128777,-1.5987137796948332 -0.5317070723855402,-1.6274549396402023 -1.2143041460788169,-1.6274549396402023 h-1.688529261375436 l-0.7616344719754409,3.5566892222562103 z" fill="#231f20" id="svg_12"/>
      <path d="M87.82446330396942,45.98547596014214 l-1.4370461237544419,6.718190958371849 h-0.6897822317516855 l0.15807507691118694,-0.743671362446527 h-0.02874092082598967 A2.547164537999805,2.547164537999805 0 0 1 83.97317240988559,52.8473749610157 c-1.390342052172059,0 -1.5627876925649389,-1.0131175436324682 -1.3256750689526626,-2.1016800549368213 l1.005932352592076,-4.7530304566980135 h0.801153220589498 l-0.9807841179867367,4.616511431146762 c-0.03592615721660897,0.18681600598267245 -0.377224607485541,1.5987137796948332 0.7795975815043548,1.5987137796948332 c1.0777847247437649,0 1.677751408850881,-1.0095249481122721 1.7783446111281052,-1.476565136224366 l1.005932352592076,-4.738659810761362 z" fill="#231f20" id="svg_13"/>
      <path d="M89.72136323744417,52.8473749610157 c-1.4370461237544419,0 -1.8753452838491,-0.7185230618772209 -1.5556025015245467,-2.13042081909839 H89.00283938399934 c-0.19759385850722744,0.9197094664316694 -0.11137107953826675,1.5340467964754367 0.9125244073192107,1.5340467964754367 a1.3436382444455433,1.3436382444455433 0 0 0 1.3975275070683182,-1.1855631180613813 c0.35926153093861046,-1.7603816994910915 -2.744758281070091,-1.3113046868718783 -2.274125431473834,-3.5315411195788045 c0.2658535361927701,-1.2358598511279268 1.2071186911825578,-1.677751408850881 2.381904220575251,-1.677751408850881 c1.3328603919209883,0 1.5591951630087095,0.9197094664316694 1.3436382444455433,1.9436050604805928 h-0.7831901770245508 c0.1365193965985645,-0.847857226207914 0,-1.3041194958314861 -0.8981538933104929,-1.3041194958314861 a1.2430449102403855,1.2430449102403855 0 0 0 -1.232267189643764,0.9700062654621817 c-0.35926153093861046,1.6813439384071103 2.7663139861192008,1.2286745281596012 2.2849034159263226,3.477651988883963 C91.85178194569562,52.20788966022246 90.98595474970625,52.8473749610157 89.72136323744417,52.8473749610157 z" fill="#231f20" id="svg_14"/>
      <path d="M93.20979109993368,52.710853824617516 l1.4370461237544419,-6.718190958371849 h0.7975606250693019 l-1.4370461237544419,6.718190958371849 zm1.7316408034015893,-8.59712916756098 l0.21914954706534573,-1.0095249481122721 h0.9807841179867367 l-0.2119643065519785,1.0095249481122721 z" fill="#231f20" id="svg_15"/>
      <path d="M96.64073637867659,52.710853824617516 H95.82881177003128 l1.4370461237544419,-6.718190958371849 h0.8047458161096941 l-0.17603816994910915,0.822708925638608 h0.02514830675342794 a2.5148308484982067,2.5148308484982067 0 0 1 1.8286412122667173,-0.95922834697366 c1.6633810267700966,0 1.5771580746457232,1.2394523806841562 1.3867495226158297,2.1196430985017685 L100.13994644731247,52.710853824617516 h-0.7975606250693019 l0.9915618385833582,-4.695547872951408 c0.17244555793792138,-0.7831901770245508 0.021555694742240172,-1.5196764143946524 -0.9125244073192107,-1.5196764143946524 c-0.7185230618772209,0 -1.5520099719683174,0.4957809192916791 -1.8753452838491,1.9974941911754343 z" fill="#231f20" id="svg_16"/>
      <path d="M103.2080371378488,49.52060842192577 l-0.11137107953826675,0.5209292858249519 c-0.19759385850722744,0.926894789399995 -0.20477908252960297,2.1555694494875297 1.0598215492508842,2.1555694494875297 a1.7603816994910915,1.7603816994910915 0 0 0 1.7963077866209858,-1.5448247809279252 h0.847857226207914 c-0.44907694665524645,1.6238622781560395 -1.4370461237544419,2.184310345577032 -2.784277029684148,2.184310345577032 c-1.1604147515281085,0 -2.216643903150697,-0.47063261872237305 -1.7963077866209858,-2.5148308484982067 l0.35926153093861046,-1.6490106446893122 c0.4131507935613854,-1.9436050604805928 1.4118978891491025,-2.8381661603789894 2.9136112599788078,-2.8381661603789894 c2.317236841572054,0 1.9687534270138656,1.6633810267700966 1.541231987515829,3.664468011357627 zm3.1686867952280977,-0.6430781601693027 c0.3233353778447494,-1.487342724893054 0.2694461811859412,-2.381904220575251 -1.0095249481122721,-2.381904220575251 s-1.706492304940383,0.8945612318263301 -2.0262350872649364,2.381904220575251 z" fill="#231f20" id="svg_17"/>
      <path d="M109.513077830371,52.8473749610157 c-1.4370461237544419,0 -1.8681599608807744,-0.7185230618772209 -1.5556025015245467,-2.13042081909839 H108.76222424526259 c-0.19759385850722744,0.9197094664316694 -0.11496368330395867,1.5340467964754367 0.9125244073192107,1.5340467964754367 a1.3400455829613804,1.3400455829613804 0 0 0 1.3975275070683182,-1.1855631180613813 c0.35926153093861046,-1.7603816994910915 -2.7483509425542536,-1.3113046868718783 -2.2705330338455383,-3.5315411195788045 c0.2586683286613862,-1.2358598511279268 1.2035261616263284,-1.677751408850881 2.378311559091088,-1.677751408850881 c1.3292677304368254,0 1.5591951630087095,0.9197094664316694 1.3400455829613804,1.9436050604805928 h-0.7795975815043548 c0.1365193965985645,-0.847857226207914 0,-1.3041194958314861 -0.8981538933104929,-1.3041194958314861 a1.2394523806841562,1.2394523806841562 0 0 0 -1.232267189643764,0.9700062654621817 c-0.35926153093861046,1.6813439384071103 2.762721588490905,1.2286745281596012 2.28131075444216,3.477651988883963 C111.63631121565413,52.20788966022246 110.76689557987447,52.8473749610157 109.513077830371,52.8473749610157 z" fill="#231f20" id="svg_18"/>
      <path d="M114.60381582802165,52.8473749610157 c-1.4550092992473225,0 -1.8753452838491,-0.7185230618772209 -1.5627876925649389,-2.13042081909839 h0.8155237345982158 c-0.19759385850722744,0.9197094664316694 -0.11137107953826675,1.5340467964754367 0.9125244073192107,1.5340467964754367 a1.3400455829613804,1.3400455829613804 0 0 0 1.3975275070683182,-1.1855631180613813 c0.35926153093861046,-1.7603816994910915 -2.744758281070091,-1.3113046868718783 -2.2705330338455383,-3.5315411195788045 c0.262260940672574,-1.2358598511279268 1.2035261616263284,-1.677751408850881 2.381904220575251,-1.677751408850881 c1.3292677304368254,0 1.5591951630087095,0.9197094664316694 1.3400455829613804,1.9436050604805928 h-0.7867827725447469 c0.14011200036425642,-0.847857226207914 0,-1.3041194958314861 -0.8945612318263301,-1.3041194958314861 a1.2394523806841562,1.2394523806841562 0 0 0 -1.232267189643764,0.9700062654621817 c-0.35926153093861046,1.6813439384071103 2.762721588490905,1.2286745281596012 2.2884960774104854,3.477651988883963 C116.7198723337242,52.20788966022246 115.85763357752512,52.8473749610157 114.60381582802165,52.8473749610157 z" fill="#231f20" id="svg_19"/>
      <path d="M126.3660459895791,43.11138476805672 h1.149637030931487 l0.1365193965985645,8.424682999456365 h0.02514830675342794 L131.52144345055694,43.11138476805672 h0.8406719692035551 l-4.429694617105497,9.606654379529118 h-1.117303473357822 l-0.11496368330395867,-8.54323977301027 h-0.02514830675342794 l-3.797394639280583,8.54323977301027 h-1.0777847247437649 L121.5339627320127,43.11138476805672 h0.9089318117990146 l0.13292676809638504,8.489349850747828 h0.03233354108267328 z" fill="#231f20" id="svg_20"/>
      <path d="M131.31307752786324,50.07388251218072 l0.35926153093861046,-1.5951212501386038 c0.17963076546930523,-0.8514498217281101 0.5748185154657435,-2.6226093737437566 2.8740922475088837,-2.6226093737437566 s1.9400125309243634,1.771159420087713 1.7603816994910915,2.6226093737437566 l-0.33770585887148385,1.5951212501386038 c-0.377224607485541,1.749603715038603 -1.1927483091017734,2.7734990452316595 -2.906425937010482,2.7734990452316595 S130.94302072991286,51.82348332480478 131.31307752786324,50.07388251218072 zm3.412984609880766,1.2430449102403855 a10.059323393992827,10.059323393992827 0 0 0 0.5784111109859396,-1.972345956570095 c0.423928613103957,-1.9831236771667164 0.40596556953900986,-2.848943880975611 -0.9125244073192107,-2.848943880975611 s-1.7028996434562202,0.8658204017007947 -2.1232357599859313,2.848943880975611 a9.876099769147459,9.876099769147459 0 0 0 -0.262260940672574,1.972345956570095 c0.039518769227796735,0.15807507691118694 0.06825969829928225,0.890968636306134 1.1747851336088928,0.890968636306134 A1.6310474691964316,1.6310474691964316 0 0 0 134.72605527749147,51.316918055537826 z" fill="#231f20" id="svg_21"/>
      <path d="M139.0695112430485,46.89440665055372 h0.02514830675342794 a2.615424314631298,2.615424314631298 0 0 1 2.076531820331482,-1.038265910165741 l-0.17244555793792138,0.8119311390780197 a2.058568512910668,2.058568512910668 0 0 0 -2.2453846673122655,1.7172702893928715 l-0.923302193879799,4.311138898975059 H137.03610705995106 l1.4370461237544419,-6.718190958371849 h0.7975606250693019 z" fill="#231f20" id="svg_22"/>
      <path d="M140.68620891092178,52.710853824617516 L142.73040374355332,43.11138476805672 h0.7975606250693019 l-2.0441983946857505,9.606654379529118 z" fill="#231f20" id="svg_23"/>
      <path d="M147.07028815609556,51.86299415774283 l-0.02874092082598967,0 a2.385496618203547,2.385496618203547 0 0 1 -1.9076787094948315,0.9700062654621817 c-1.9436050604805928,0 -1.6382326602368238,-1.9328270760281043 -1.307712157315649,-3.502800091561369 c0.273038793197129,-1.2933415113789977 0.7400787669263309,-3.4884297094805845 2.805832734733258,-3.4884297094805845 a1.6382326602368238,1.6382326602368238 0 0 1 1.4370461237544419,0.801153220589498 l0.021555694742240172,0 l0.7616344719754409,-3.563874545224536 h0.7975606250693019 L147.92171937598505,51.37440063928443 a8.877352541631808,8.877352541631808 0 0 0 -0.20477908252960297,1.3292677304368254 h-0.7688197289797998 zm0.35926153093861046,-1.9076787094948315 l0.25507571665019846,-1.1963409705859362 c0.08263015871227708,-0.39878031253465096 0.4778178427447486,-2.2633477108772126 -1.02389546212099,-2.2633477108772126 c-1.4370461237544419,0 -1.7136774959807752,1.3041194958314861 -2.0513833218702757,2.8740922475088837 c-0.5317070723855402,2.5148308484982067 0,2.8381661603789894 0.8658204017007947,2.8381661603789894 C146.2404044617233,52.20788966022246 147.0918356816128,51.59354454643062 147.43671429731694,49.95531201812173 z" fill="#231f20" id="svg_24"/>
      <path d="M150.01262302960458,45.98547596014214 h0.8514498217281101 l0.25507571665019846,5.884704048280753 H151.15508093818062 L153.81721354608817,45.98547596014214 h0.9879692430631621 l0.24070523562346402,5.884704048280753 h0.02514830675342794 L157.8229762189094,45.98547596014214 h0.801153220589498 l-3.2800579819578104,6.718190958371849 h-0.995154500067521 l-0.2586683286613862,-5.748184495017767 h-0.02514830675342794 l-2.636980019680408,5.748184495017767 H150.43656552812354 z" fill="#231f20" id="svg_25"/>
      <path d="M158.19661301326232,52.710853824617516 l1.4370461237544419,-6.718190958371849 h0.7975606250693019 l-1.4370461237544419,6.718190958371849 zm1.7316408034015893,-8.59712916756098 L160.13661644115928,43.11138476805672 h0.9879692430631621 l-0.21914954706534573,1.0095249481122721 z" fill="#231f20" id="svg_26"/>
      <path d="M164.53758032062615,51.86299415774283 l-0.02874092082598967,0 a2.385496618203547,2.385496618203547 0 0 1 -1.9076787094948315,0.9700062654621817 c-1.9471977219647556,0 -1.6418253217209866,-1.9328270760281043 -1.3113046868718783,-3.499207430077206 c0.273038793197129,-1.2969341728631605 0.7400787669263309,-3.4920223709647473 2.805832734733258,-3.4920223709647473 a1.6310474691964316,1.6310474691964316 0 0 1 1.4550092992473225,0.801153220589498 l0.02514830675342794,0 l0.7580418764552448,-3.563874545224536 h0.7975606250693019 l-1.7603816994910915,8.263015871227708 a8.101347159863849,8.101347159863849 0 0 0 -0.19759385850722744,1.3292677304368254 h-0.7760049859841587 zm0.35926153093861046,-1.9076787094948315 l0.251483088148019,-1.1963409705859362 c0.08263015871227708,-0.39878031253465096 0.48141047124692804,-2.2633477108772126 -1.02389546212099,-2.2633477108772126 c-1.4370461237544419,0 -1.7100850983524793,1.3041194958314861 -2.0513833218702757,2.8740922475088837 c-0.5281145098473274,2.5148308484982067 0,2.8381661603789894 0.8658204017007947,2.8381661603789894 C163.70408285630037,52.20788966022246 164.5519509665628,51.59354454643062 164.9040402353985,49.95531201812173 z" fill="#231f20" id="svg_27"/>
      <path d="M168.1122405021233,49.52060842192577 l-0.10777847577257482,0.5209292858249519 c-0.20118645402742352,0.926894789399995 -0.20837169454079074,2.1555694494875297 1.0526364241744588,2.1555694494875297 a1.7675668905314836,1.7675668905314836 0 0 0 1.7963077866209858,-1.5448247809279252 h0.8406719692035551 c-0.4418917226328709,1.6238622781560395 -1.4370461237544419,2.184310345577032 -2.780684104344118,2.184310345577032 c-1.1568222219718791,0 -2.216643903150697,-0.47063261872237305 -1.7963077866209858,-2.5148308484982067 l0.35926153093861046,-1.6490106446893122 c0.4131507935613854,-1.9436050604805928 1.4154905506332653,-2.8381661603789894 2.924389244431296,-2.8381661603789894 c2.317236841572054,0 1.9579754425613771,1.6633810267700966 1.5376394579595996,3.664468011357627 zm3.1722794567122605,-0.6430781601693027 c0.3161501538223739,-1.487342724893054 0.2658535361927701,-2.381904220575251 -1.0131175436324682,-2.381904220575251 s-1.706492304940383,0.8945612318263301 -2.0262350872649364,2.381904220575251 z" fill="#231f20" id="svg_28"/>
    </g>
  </g></g></svg>