<svg xmlns="http://www.w3.org/2000/svg" width="187" height="50"><rect id="backgroundrect" width="100%" height="100%" x="0" y="0" fill="none" stroke="none" />
  <title>EatonLogo</title>
  
<g class="currentLayer" style=""><title>Layer 1</title><g id="svg_1" >
    <path d="M44.8888214710521,6.080152552629853 l3.3518339398151733,10.122702960876767 H41.28725834363718 zM38.77435839341487,23.282216810016568 L35.715175845318136,31.67426410338859 h17.87904902471842 l-2.8835917130656723,-8.392047293372029 zM85.43079427044633,0 H51.112541068264214 v9.012471023232218 H61.94064256184641 V31.67426410338859 h17.422512853637656 c-1.0808591400800966,-0.5583813568741707 -8.467380267053464,-5.466259598873454 -8.467380267053464,-14.632203860544774 C70.91528524121182,9.420644529719192 76.41713140551846,1.959232831137439 85.43079427044633,0 m5.946676279718654,23.553244018323905 c4.046393242826932,0 7.30067671873596,-2.8114991126822244 7.30067671873596,-6.367506701196676 s-3.047476492427999,-6.729964774957102 -7.156302032154863,-6.729964774957102 S84.18214833244765,13.668914385235535 84.18214833244765,17.19879886933482 s3.0396724553155066,6.367506701196676 7.210930291942305,6.367506701196676 M127.3696897129766,19.91886711656396 L120.40068457152151,0 h-17.83222480204347 v31.67426410338859 h11.140262978081862 V11.82723552396635 h0.07804037112491675 L120.68943394468369,31.67426410338859 h17.98440352573706 V0 H127.43992604698899 V19.91886711656396 zm-105.78372305982462,11.755396986824634 l3.215263290346569,-8.881855501156387 H12.864955179942521 v-2.6776182025544997 h12.915681421173717 l3.0630845666529813,-8.512866651292173 H12.864955179942521 v-2.576391172945732 h16.86842621865075 L32.9876648745023,0 H-4.957707219905229e-22 v31.67426410338859 z" fill="#ffffff" id="svg_2"/>
    <g id="svg_3">
      <path d="M32.61697311165894,39.184656622748776 h2.8679836388406894 c0.8662481194865753,0 2.270974799735076,0.09469625350497629 1.755908350310626,2.115971457628434 c-0.44483011541202544,1.753513383868008 -1.3227842905673386,2.550268068530566 -3.1216148449966687,2.550268068530566 h-1.759810368866872 l-1.0340349174051466,4.065408124610185 h-0.9286804163865091 zm-0.09755046390614593,4.013161915779854 H34.23631081250096 c0.9677006019489673,0 1.689574034854447,-0.38531579012369654 2.036853686360326,-1.753513383868008 c0.39020185562458376,-1.4890169516644538 -0.35898570717461736,-1.6098363095845953 -1.194017678211226,-1.6098363095845953 H33.37786673012688 z" fill="#ffffff" id="svg_4"/>
      <path d="M37.092588395672905,45.5129786673227 l0.39020185562458376,-1.449832295041705 c0.19900294636853766,-0.7738969682992886 0.6204209504430884,-2.383733277883884 3.1216148449966687,-2.383733277883884 s2.107090020372752,1.6098363095845953 1.9119890925604597,2.383733277883884 l-0.3706917628433551,1.449832295041705 c-0.39020185562458376,1.5902439812732214 -1.2876661235611264,2.520879576063505 -3.1567330120028814,2.520879576063505 S36.690680484379584,47.10322264859592 37.092588395672905,45.5129786673227 zm3.706917628433545,1.1298242659559232 a11.21830334920678,9.387990649200228 0 0 0 0.6282249875555804,-1.792698040490757 c0.45653617108076294,-1.8024942046464436 0.44092809685577933,-2.589452725153315 -0.9911127132864423,-2.589452725153315 s-1.8495567956605263,0.7869585205068715 -2.3021909481850433,2.589452725153315 a10.44960569362635,8.744709202976768 0 0 0 -0.28484735460594657,1.792698040490757 c0.035118167006212606,0.14367707428341234 0.06633431545617931,0.8098162368701418 1.272058049336142,0.8098162368701418 A1.7715164245356096,1.4824861755606622 0 0 0 40.79950602410645,46.642802933278624 z" fill="#ffffff" id="svg_5"/>
      <path d="M43.82747242375323,41.79696706426537 h0.9208763792740179 l0.2770433174934547,5.348705629005208 h0.031216148449966737 L47.95971007481756,41.79696706426537 h1.069153084411359 l0.2614352432684716,5.348705629005208 h0.031216148449966737 L52.31436278358791,41.79696706426537 h0.8662481194865753 l-3.562542941852448,6.1062756570450185 h-1.0847611586363424 l-0.2770433174934547,-5.224620883033171 h-0.031216148449966737 l-2.8562775831719525,5.224620883033171 h-1.0886631771925883 z" fill="#ffffff" id="svg_6"/>
      <path d="M54.015642874111116,45.00684351927886 l-0.11706055668737522,0.4767466555767767 c-0.21851303914976697,0.8424701173890988 -0.23021909481850464,1.959232831137439 1.14329143698003,1.959232831137439 a1.9197931296729511,1.6065709215327002 0 0 0 1.951009278122918,-1.4041168623151647 h0.9091703236052802 c-0.47214424530574645,1.4759553994568704 -1.5608074224983344,1.985355935552605 -3.020162362534277,1.985355935552605 c-1.2564499751111597,0 -2.411447467759927,-0.42776583479834096 -1.951009278122918,-2.285771636327012 l0.39020185562458376,-1.5020785038720363 c0.45263415252451705,-1.7633095480236958 1.5373953111608596,-2.576391172945732 3.172341086227865,-2.576391172945732 c2.52070398733481,0 2.130502131710226,1.5118746680277237 1.670063942073218,3.32743042488175 zm3.4454823851650733,-0.5812390732374403 c0.34337763294963386,-1.3518706534848328 0.292651391718438,-2.16495227840687 -1.100369232861326,-2.16495227840687 s-1.8534588142167725,0.8130816249220373 -2.2007384657226527,2.16495227840687 z" fill="#ffffff" id="svg_7"/>
      <path d="M61.316319592847066,42.62311024139497 h0.027314129893720868 a2.8445715275032155,2.3804678898319884 0 0 1 2.2514647069538474,-0.9436971469978667 l-0.1872968906998004,0.7379776997284354 a2.2319546141726185,1.8678019656843585 0 0 0 -2.434859579097402,1.5608554888061597 l-0.998916750398934,3.918465662274878 h-0.8740521565990672 l1.5608074224983344,-6.1062756570450185 h0.8662481194865753 z" fill="#ffffff" id="svg_8"/>
      <path d="M63.00199160914525,47.909773497414186 l1.5608074224983344,-6.1062756570450185 h0.8623461009303297 l-1.5608074224983344,6.1062756570450185 zm1.8846749626667394,-7.814073608186485 l0.23021909481850464,-0.9175740425827006 h1.0730551029676048 l-0.23802313193099628,0.9175740425827006 z" fill="#ffffff" id="svg_9"/>
      <path d="M66.71281125613505,47.909773497414186 H65.84266111809224 l1.5608074224983344,-6.1062756570450185 h0.8623461009303297 l-0.1872968906998004,0.7477738638841226 h0.027314129893720868 a2.7314129893720853,2.285771636327012 0 0 1 1.9861274451291306,-0.8718586098561603 c1.8144386286543142,0 1.709084127635676,1.1265588779040272 1.510081181267139,1.9265789506184818 L70.52508338558724,47.909773497414186 h-0.8740521565990672 l1.0847611586363424,-4.267862183827721 c0.17949285358730857,-0.7118545953132694 0.023412111337475054,-1.3812591459518944 -0.9950147318426881,-1.3812591459518944 c-0.7804037112491672,0 -1.689574034854447,0.4506235511616113 -2.0329516678040807,1.815555756854027 z" fill="#ffffff" id="svg_10"/>
      <path d="M77.87648634555438,41.79696706426537 H78.7193223537035 c-0.16778679791857112,0.5845044612893361 -0.2614352432684716,0.8881855501156387 -0.34337763294963386,1.201662803097629 l-1.311078234898601,5.142986181735778 c-0.33557359583714225,1.342074489329146 -1.0301328988489007,2.1420945620436 -3.1216148449966687,2.1420945620436 c-1.8183406472105603,0 -1.9080870740042142,-1.080843445177487 -1.693476053410693,-1.6947363989338846 h0.8662481194865753 c-0.23802313193099628,0.698793043105687 0.2770433174934547,1.1134973256964444 1.092565195748834,1.1134973256964444 c1.6856720162982015,0 1.7793204616481013,-0.764100804143601 2.247562688397602,-2.589452725153315 h-0.027314129893720868 a2.4933898574410893,2.0865829651613725 0 0 1 -1.951009278122918,0.7379776997284354 c-2.0992859832602595,0 -1.8612628513292637,-1.5151400560796202 -1.513983199823385,-2.870276097616348 c0.35898570717461736,-1.4139130264708517 0.39020185562458376,-1.4269745786784347 0.745285544242955,-2.080052189057581 a2.6806867481408894,2.2433215916523674 0 0 1 2.341211133747502,-1.211458967253316 a1.5608074224983344,1.3061552207582927 0 0 1 1.5803175152795637,0.862062445700473 l0,0.022857716363270157 zm-3.9644508531457694,2.9388492467061584 c-0.3238675401684047,1.2669705641355438 -0.6516370988930555,2.537206516322983 0.9286804163865091,2.537206516322983 a1.8144386286543142,1.5184054441315151 0 0 0 1.4905710884859096,-0.6857314908981039 c0.33947561439338814,-0.47348126752488073 0.46824222674950056,-0.7510392519360182 0.9247783978302634,-2.5404719043748787 c0.3199655216121589,-1.2865628924469181 -0.39020185562458376,-1.7698403241274867 -1.19011565965498,-1.7698403241274867 C74.56367259130168,42.26065216763456 74.14225458722713,43.80844610423313 73.91203549240863,44.73581631097152 z" fill="#ffffff" id="svg_11"/>
      <path d="M82.12188253474989,47.909773497414186 L84.34213109325376,39.184656622748776 h2.907003824403148 c1.634945775067006,0 2.341211133747502,0.5518505807703791 1.951009278122918,2.089848353213269 c-0.26533726182471706,1.0547203407623214 -0.6555391174493006,1.7796364882831737 -2.0485597420290635,2.083317577109477 l0,0.026123104415165896 c1.3188822720110924,0.23837332778838885 1.4827670513734177,1.0057395199838854 1.2096257524362093,2.106175293472748 c-0.39020185562458376,1.5706516529618466 -1.5178852183796305,2.4261833225585283 -3.2659895315777643,2.4261833225585283 zm1.0964672143050798,-0.6530776103791461 h1.4671589771484346 c1.5334932926046134,0 2.3802313193099605,-0.43756199895402814 2.70800087803461,-1.7175941152971546 c0.19510092781229185,-0.7738969682992886 0.19119890925604618,-1.8318826971135052 -1.4008246616922555,-1.8318826971135052 h-1.876870925554247 zm2.8406695089469687,-4.19928903473791 c1.33058832767983,0 1.951009278122918,-0.764100804143601 2.1968364471664064,-1.753513383868008 c0.3628877257308628,-1.4530976830936004 -0.5774987463243839,-1.4792207875087664 -1.3188822720110924,-1.4792207875087664 h-1.8339487214355426 l-0.8272279339241173,3.232734171376774 z" fill="#ffffff" id="svg_12"/>
      <path d="M95.38874562598573,41.79696706426537 l-1.5608074224983344,6.1062756570450185 h-0.7491875627992004 l0.17168881647481699,-0.6759353267424165 h-0.031216148449966737 A2.766531156378298,2.3151601287940737 0 0 1 91.20578173369017,48.03385824338621 c-1.510081181267139,0 -1.6973780719669387,-0.9208394306345964 -1.4398448472547134,-1.9102520103590028 l1.092565195748834,-4.320108392658053 h0.8701501380428215 l-1.0652510658551133,4.196023646686014 c-0.03902018556245842,0.1698001786985781 -0.409711948405813,1.4530976830936004 0.8467380267053469,1.4530976830936004 c1.170605566873751,0 1.8222426657668052,-0.9175740425827006 1.9314991853416887,-1.342074489329146 l1.092565195748834,-4.30704684045047 z" fill="#ffffff" id="svg_13"/>
      <path d="M97.4490114236835,48.03385824338621 c-1.5608074224983344,0 -2.036853686360326,-0.6530776103791461 -1.689574034854447,-1.936375114774169 H96.66860771243434 c-0.2146110205935211,0.8359393412853072 -0.12096257524362104,1.3943206981594771 0.9911127132864423,1.3943206981594771 a1.4593549400359425,1.2212551314090039 0 0 0 1.5178852183796305,-1.0775780571255913 c0.39020185562458376,-1.6000401454289084 -2.981142176971819,-1.191866638941942 -2.469977746103614,-3.209876455013504 c0.28874937316219235,-1.1232934898521316 1.311078234898601,-1.5249362202353072 2.5870383027909893,-1.5249362202353072 c1.447648884367206,0 1.693476053410693,0.8359393412853072 1.4593549400359425,1.7665749360755902 h-0.8506400452615926 c0.148276705137342,-0.7706315802473926 0,-1.1853358628381505 -0.975504639061459,-1.1853358628381505 a1.350098420461059,1.1298242659559232 0 0 0 -1.338392364792322,0.8816547740118477 c-0.39020185562458376,1.5282016082872028 3.0045542883092944,1.11676271374834 2.481683801772352,3.1608956342350676 C99.76290842753731,47.452619170148765 98.82252195548205,48.03385824338621 97.4490114236835,48.03385824338621 z" fill="#ffffff" id="svg_14"/>
      <path d="M101.23787144179822,47.909773497414186 l1.5608074224983344,-6.1062756570450185 h0.8662481194865753 l-1.5608074224983344,6.1062756570450185 zm1.8807729441104934,-7.814073608186485 l0.23802313193099628,-0.9175740425827006 h1.0652510658551133 l-0.23021909481850464,0.9175740425827006 z" fill="#ffffff" id="svg_15"/>
      <path d="M104.96429916301298,47.909773497414186 H104.08244296930143 l1.5608074224983344,-6.1062756570450185 h0.8740521565990672 l-0.19119890925604618,0.7477738638841226 h0.027314129893720868 a2.7314129893720853,2.285771636327012 0 0 1 1.9861274451291306,-0.8718586098561603 c1.806634591541823,0 1.712986146191922,1.1265588779040272 1.5061791627108938,1.9265789506184818 L108.76486523679642,47.909773497414186 h-0.8662481194865753 l1.076957121523851,-4.267862183827721 c0.1872968906998004,-0.7118545953132694 0.023412111337475054,-1.3812591459518944 -0.9911127132864423,-1.3812591459518944 c-0.7804037112491672,0 -1.6856720162982015,0.4506235511616113 -2.036853686360326,1.815555756854027 z" fill="#ffffff" id="svg_16"/>
      <path d="M112.09718908383037,45.01010890733075 l-0.12096257524362104,0.47348126752488073 c-0.2146110205935211,0.8424701173890988 -0.22241505770601291,1.959232831137439 1.1510954740925217,1.959232831137439 a1.9119890925604597,1.6000401454289084 0 0 0 1.951009278122918,-1.4041168623151647 h0.9208763792740179 c-0.48775231953072923,1.4759553994568704 -1.5608074224983344,1.985355935552605 -3.024064381090523,1.985355935552605 c-1.260351993667405,0 -2.4075454492036807,-0.42776583479834096 -1.951009278122918,-2.285771636327012 l0.39020185562458376,-1.498813115820141 c0.4487321339682713,-1.7665749360755902 1.5334932926046134,-2.5796565609976287 3.164537049115373,-2.5796565609976287 c2.516801968778565,0 2.138306168822718,1.5118746680277237 1.6739659606294635,3.3306958129336457 zm3.4415803666088274,-0.5845044612893361 c0.35118167006212553,-1.3518706534848328 0.292651391718438,-2.16495227840687 -1.0964672143050798,-2.16495227840687 s-1.8534588142167725,0.8130816249220373 -2.2007384657226527,2.16495227840687 z" fill="#ffffff" id="svg_17"/>
      <path d="M118.9452316500418,48.03385824338621 c-1.5608074224983344,0 -2.0290496492478347,-0.6530776103791461 -1.689574034854447,-1.936375114774169 H118.12970977178642 c-0.2146110205935211,0.8359393412853072 -0.12486459379986684,1.3943206981594771 0.9911127132864423,1.3943206981594771 a1.4554529214796967,1.2179897433571079 0 0 0 1.5178852183796305,-1.0775780571255913 c0.39020185562458376,-1.6000401454289084 -2.9850441955280647,-1.191866638941942 -2.466075727547368,-3.209876455013504 c0.2809453360497004,-1.1232934898521316 1.3071762163423555,-1.5249362202353072 2.5831362842347434,-1.5249362202353072 c1.4437468658109593,0 1.693476053410693,0.8359393412853072 1.4554529214796967,1.7665749360755902 h-0.8467380267053469 c0.148276705137342,-0.7706315802473926 0,-1.1853358628381505 -0.975504639061459,-1.1853358628381505 a1.3461964019048138,1.1265588779040272 0 0 0 -1.338392364792322,0.8816547740118477 c-0.39020185562458376,1.5282016082872028 3.000652269753048,1.11676271374834 2.477781783216106,3.1608956342350676 C121.25132461678311,47.452619170148765 120.30703612617161,48.03385824338621 118.9452316500418,48.03385824338621 z" fill="#ffffff" id="svg_18"/>
      <path d="M124.47439194424216,48.03385824338621 c-1.5803175152795637,0 -2.036853686360326,-0.6530776103791461 -1.6973780719669387,-1.936375114774169 h0.8857582122678047 c-0.2146110205935211,0.8359393412853072 -0.12096257524362104,1.3943206981594771 0.9911127132864423,1.3943206981594771 a1.4554529214796967,1.2179897433571079 0 0 0 1.5178852183796305,-1.0775780571255913 c0.39020185562458376,-1.6000401454289084 -2.981142176971819,-1.191866638941942 -2.466075727547368,-3.209876455013504 c0.28484735460594657,-1.1232934898521316 1.3071762163423555,-1.5249362202353072 2.5870383027909893,-1.5249362202353072 c1.4437468658109593,0 1.693476053410693,0.8359393412853072 1.4554529214796967,1.7665749360755902 h-0.8545420638178383 c0.15217872369358787,-0.7706315802473926 0,-1.1853358628381505 -0.9716026205052131,-1.1853358628381505 a1.3461964019048138,1.1265588779040272 0 0 0 -1.338392364792322,0.8816547740118477 c-0.39020185562458376,1.5282016082872028 3.000652269753048,1.11676271374834 2.485585820328598,3.1608956342350676 C126.77268087387095,47.452619170148765 125.83619642037195,48.03385824338621 124.47439194424216,48.03385824338621 z" fill="#ffffff" id="svg_19"/>
      <path d="M137.24960069739103,39.184656622748776 h1.2486459379986676 l0.148276705137342,7.65733498169549 h0.027314129893720868 L142.84899732560382,39.184656622748776 h0.913072342161526 l-4.811188879851117,8.731647650769185 h-1.213527770992455 l-0.12486459379986684,-7.76509278740805 h-0.027314129893720868 l-4.12443361395185,7.76509278740805 h-1.170605566873751 L132.00138573924042,39.184656622748776 h0.9872106947301967 l0.14437468658109612,7.7161119666296125 h0.035118167006212606 z" fill="#ffffff" id="svg_20"/>
      <path d="M142.62268024934156,45.5129786673227 l0.39020185562458376,-1.449832295041705 c0.19510092781229185,-0.7738969682992886 0.624322968999334,-2.383733277883884 3.1216148449966687,-2.383733277883884 s2.107090020372752,1.6098363095845953 1.9119890925604597,2.383733277883884 l-0.366789744287109,1.449832295041705 c-0.409711948405813,1.5902439812732214 -1.2954701606736174,2.520879576063505 -3.1567330120028814,2.520879576063505 S142.22077233804825,47.10322264859592 142.62268024934156,45.5129786673227 zm3.706917628433545,1.1298242659559232 a10.925651957488341,9.143086545308048 0 0 0 0.6282249875555804,-1.792698040490757 c0.4604381896370085,-1.8024942046464436 0.44092809685577933,-2.589452725153315 -0.9911127132864423,-2.589452725153315 s-1.8495567956605263,0.7869585205068715 -2.306092966741289,2.589452725153315 a10.726649011119804,8.976551754661365 0 0 0 -0.28484735460594657,1.792698040490757 c0.042922204118704295,0.14367707428341234 0.07413835256867093,0.8098162368701418 1.2759600678923884,0.8098162368701418 A1.7715164245356096,1.4824861755606622 0 0 0 146.3295978777751,46.642802933278624 z" fill="#ffffff" id="svg_21"/>
      <path d="M151.0471383122763,42.62311024139497 h0.027314129893720868 a2.8406695089469687,2.377202501780092 0 0 1 2.2553667255100938,-0.9436971469978667 l-0.1872968906998004,0.7379776997284354 a2.235856632728864,1.871067353736254 0 0 0 -2.4387615976536474,1.5608554888061597 l-1.00281876895518,3.918465662274878 H148.83859580944113 l1.5608074224983344,-6.1062756570450185 h0.8662481194865753 z" fill="#ffffff" id="svg_22"/>
      <path d="M152.80304666258695,47.909773497414186 L155.02329522109085,39.184656622748776 h0.8662481194865753 l-2.220248558503881,8.731647650769185 z" fill="#ffffff" id="svg_23"/>
      <path d="M159.73693363703578,47.13914191716678 l-0.031216148449966737,0 a2.5909403213472357,2.1682176664587662 0 0 1 -2.071971853366539,0.8816547740118477 c-2.1109920389289973,0 -1.7793204616481013,-1.7567787719199037 -1.4203347544734843,-3.183753350598338 c0.2965534102746839,-1.1755396986824636 0.803815822586642,-3.1706917983907554 3.047476492427999,-3.1706917983907554 a1.7793204616481013,1.4890169516644538 0 0 1 1.5608074224983344,0.728181535572748 l0.023412111337475054,0 l0.8272279339241173,-3.239264947480565 h0.8662481194865753 L160.66171203486604,46.69504914210896 a9.64188785248346,8.068773876234351 0 0 0 -0.22241505770601291,1.2081935792014207 h-0.8350319710366089 zm0.39020185562458376,-1.7339210555566338 l0.2770433174934547,-1.0873742212812785 c0.08974642679365426,-0.3624580737604265 0.5189684679806963,-2.0571944726943108 -1.1120752885300633,-2.0571944726943108 c-1.5608074224983344,0 -1.8612628513292637,1.1853358628381505 -2.228052595616372,2.6123104415165854 c-0.5774987463243839,2.285771636327012 0,2.5796565609976287 0.9403864720552464,2.5796565609976287 C158.835567350543,47.452619170148765 159.76034574837328,46.8942378132746 160.13493952977288,45.40522086161015 z" fill="#ffffff" id="svg_24"/>
      <path d="M162.93268683460116,41.79696706426537 h0.9247783978302634 l0.2770433174934547,5.348705629005208 H164.1735287354873 L167.06492448566547,41.79696706426537 h1.0730551029676048 l0.2614352432684716,5.348705629005208 h0.027314129893720868 L171.4156751758796,41.79696706426537 h0.8701501380428215 l-3.562542941852448,6.1062756570450185 h-1.0808591400800966 l-0.2809453360497004,-5.224620883033171 h-0.027314129893720868 l-2.864081620284443,5.224620883033171 H163.39312502423812 z" fill="#ffffff" id="svg_25"/>
      <path d="M171.82148510572918,47.909773497414186 l1.5608074224983344,-6.1062756570450185 h0.8662481194865753 l-1.5608074224983344,6.1062756570450185 zm1.8807729441104934,-7.814073608186485 L173.9285751261019,39.184656622748776 h1.0730551029676048 l-0.23802313193099628,0.9175740425827006 z" fill="#ffffff" id="svg_26"/>
      <path d="M178.70854785750305,47.13914191716678 l-0.031216148449966737,0 a2.5909403213472357,2.1682176664587662 0 0 1 -2.071971853366539,0.8816547740118477 c-2.114894057485243,0 -1.7832224802043477,-1.7567787719199037 -1.4242367730297303,-3.180487962546442 c0.2965534102746839,-1.1788050867343594 0.803815822586642,-3.173957186442651 3.047476492427999,-3.173957186442651 a1.7715164245356096,1.4824861755606622 0 0 1 1.5803175152795637,0.728181535572748 l0.027314129893720868,0 l0.8233259153678709,-3.239264947480565 h0.8662481194865753 l-1.9119890925604597,7.510392519360183 a8.79905184433436,7.363450057024874 0 0 0 -0.2146110205935211,1.2081935792014207 h-0.8428360081491006 zm0.39020185562458376,-1.7339210555566338 l0.27314129893720906,-1.0873742212812785 c0.08974642679365426,-0.3624580737604265 0.522870486536942,-2.0571944726943108 -1.1120752885300633,-2.0571944726943108 c-1.5608074224983344,0 -1.8573608327730176,1.1853358628381505 -2.228052595616372,2.6123104415165854 c-0.573596727768138,2.285771636327012 0,2.5796565609976287 0.9403864720552464,2.5796565609976287 C177.803279552454,47.452619170148765 178.724155931728,46.8942378132746 179.1065537502401,45.40522086161015 z" fill="#ffffff" id="svg_27"/>
      <path d="M182.59105632096765,45.01010890733075 l-0.11706055668737522,0.47348126752488073 c-0.21851303914976697,0.8424701173890988 -0.22631707626225872,1.959232831137439 1.14329143698003,1.959232831137439 a1.9197931296729511,1.6065709215327002 0 0 0 1.951009278122918,-1.4041168623151647 h0.913072342161526 c-0.47994828241823767,1.4759553994568704 -1.5608074224983344,1.985355935552605 -3.020162362534277,1.985355935552605 c-1.2564499751111597,0 -2.4075454492036807,-0.42776583479834096 -1.951009278122918,-2.285771636327012 l0.39020185562458376,-1.498813115820141 c0.4487321339682713,-1.7665749360755902 1.5373953111608596,-2.5796565609976287 3.176243104784111,-2.5796565609976287 c2.516801968778565,0 2.1266001131539802,1.5118746680277237 1.670063942073218,3.3306958129336457 zm3.4454823851650733,-0.5845044612893361 c0.34337763294963386,-1.3518706534848328 0.28874937316219235,-2.16495227840687 -1.100369232861326,-2.16495227840687 s-1.8534588142167725,0.8130816249220373 -2.2007384657226527,2.16495227840687 z" fill="#ffffff" id="svg_28"/>
    </g>
  </g></g></svg>