<?xml version="1.0" encoding="utf-8"?>
<!-- Generator: Adobe Illustrator 23.0.3, SVG Export Plug-In . SVG Version: 6.00 Build 0)  -->
<svg version="1.1" id="Layer_1" xmlns="http://www.w3.org/2000/svg" xmlns:xlink="http://www.w3.org/1999/xlink" x="0px" y="0px"
	 viewBox="0 0 147 147" style="enable-background:new 0 0 147 147;" xml:space="preserve">
<style type="text/css">
	.st0{fill:#478AFF;}
</style>
<title>ionic-logo-landscape</title>
<path class="st0" d="M73.5,40C55,40,40,55,40,73.5S55,107,73.5,107S107,92,107,73.5l0,0C107,55,92,40,73.5,40z"/>
<circle class="st0" cx="121.6" cy="27.7" r="15.3"/>
<path class="st0" d="M140.4,43.1l-0.6-1.4l-1,1.2c-2.5,2.8-5.7,5-9.2,6.3l-1,0.4l0.4,1c12.7,30.6-1.8,65.8-32.4,78.6
	c-30.6,12.7-65.8-1.8-78.6-32.4s1.8-65.8,32.4-78.6c15.7-6.5,33.5-6.1,48.8,1.2l0.9,0.4l0.4-1c1.5-3.5,3.8-6.5,6.8-8.9l1.2-1
	l-1.4-0.7C96.8,2.7,85.2-0.1,73.5,0C32.9,0,0,32.9,0,73.5S32.9,147,73.5,147S147,114.1,147,73.5C147,62.9,144.7,52.5,140.4,43.1
	L140.4,43.1z"/>
</svg>
