<svg version="1.1" xmlns="http://www.w3.org/2000/svg"  width="64" height="64" viewBox="0 0 64 64">

									<path fill="#007bc1" fill-rule="evenodd" clip-rule="evenodd" d="M35.4,33.9l3.4-3.4c0,0-12.8-5.5-13.3-5.7c-0.3-0.1-0.6-0.2-0.9-0.2
										c-1.4,0-2.4,1.1-2.4,2.4c0,0.3,0.1,0.6,0.2,0.9c0.2,0.5,5.7,13.4,5.7,13.4l3.4-3.4l3.4,3.4c1.1,1.1,2.9,1.1,4,0
										c1.1-1.1,1.1-2.9,0-4L35.4,33.9z M51.3,0H4.7C2.1,0,0,2.1,0,4.7v44.1c0,2.6,2.1,4.7,4.7,4.7h46.7c2.6,0,4.7-2.1,4.7-4.7V4.7
										C56,2.1,53.9,0,51.3,0z M50.7,45.5c0,1.4-1.1,2.6-2.6,2.6H7.9c-1.4,0-2.6-1.1-2.6-2.6V19.3c0,0,0,0,0,0v-8.7C5.3,9.2,6.5,8,8,8
										h13.3c1.5,0,2.7,1.2,2.7,2.7V16h24.1c1.4,0,2.6,1.1,2.6,2.6V45.5z"></path>

							</svg>
