<?xml version="1.0" encoding="iso-8859-1"?>
<!-- Generator: Adobe Illustrator 16.0.0, SVG Export Plug-In . SVG Version: 6.00 Build 0)  -->
<!DOCTYPE svg PUBLIC "-//W3C//DTD SVG 1.1//EN" "http://www.w3.org/Graphics/SVG/1.1/DTD/svg11.dtd">
<svg version="1.1" id="Capa_1" xmlns="http://www.w3.org/2000/svg" xmlns:xlink="http://www.w3.org/1999/xlink" x="0px" y="0px"
	 width="31px" height="31px" viewBox="0 0 31 31" style="enable-background:new 0 0 31 31;" xml:space="preserve">
<g>
	<path fill="white" d="M30.5,15h-2.303l1.201-1.2c0.193-0.195,0.193-0.512,0-0.707c-0.195-0.195-0.512-0.195-0.707,0L26.785,15h-1.51l0.822-0.823
		c0.193-0.195,0.193-0.512,0-0.707c-0.195-0.195-0.514-0.195-0.707,0L23.861,15h-1.938l-1.502-3.717l1.972-1.969l2.408-0.002
		c0.276,0,0.5-0.224,0.5-0.5s-0.224-0.5-0.5-0.5l-1.408,0.001l3.064-3.065c0.193-0.195,0.193-0.512,0-0.707s-0.514-0.195-0.707,0
		l-3.064,3.066v-1.41c0-0.276-0.226-0.5-0.5-0.5c-0.276,0-0.5,0.224-0.5,0.5v2.41l-1.996,1.996L16,9.038v-1.9l1.527-1.53
		c0.195-0.195,0.195-0.512,0-0.707c-0.195-0.194-0.512-0.195-0.708,0.001L16,5.724V4.215l1.904-1.906
		c0.195-0.195,0.195-0.512,0-0.707s-0.512-0.195-0.707,0L16,2.8V0.5C16,0.224,15.775,0,15.5,0S15,0.224,15,0.5v2.3l-1.199-1.199
		c-0.195-0.195-0.512-0.195-0.707,0c-0.195,0.195-0.195,0.512,0,0.707L15,4.215v1.51l-0.824-0.823c-0.195-0.195-0.512-0.195-0.707,0
		c-0.195,0.195-0.195,0.512,0,0.707L15,7.139v1.935l-3.717,1.503L9.312,8.606L9.31,6.197c0-0.276-0.225-0.5-0.5-0.5
		c-0.276,0-0.5,0.224-0.5,0.5v1.408L5.246,4.539c-0.195-0.195-0.512-0.195-0.707,0c-0.195,0.195-0.195,0.512,0,0.707L7.603,8.31
		H6.195c-0.276,0-0.5,0.224-0.5,0.5s0.224,0.5,0.5,0.5h2.408l1.998,1.999L9.035,15H7.137l-1.529-1.528
		c-0.194-0.195-0.512-0.195-0.707,0c-0.194,0.195-0.194,0.512,0,0.707L5.723,15h-1.91l-1.908-1.907
		c-0.194-0.195-0.512-0.195-0.706,0c-0.195,0.195-0.195,0.512,0,0.707l1.2,1.2H0.5C0.225,15,0,15.224,0,15.5S0.225,16,0.5,16h1.895
		l-1.196,1.198c-0.195,0.194-0.195,0.512,0,0.706c0.098,0.099,0.226,0.146,0.354,0.146c0.128,0,0.257-0.049,0.354-0.146L3.809,16
		h1.914L4.9,16.823c-0.195,0.194-0.195,0.512,0,0.706c0.098,0.099,0.226,0.146,0.354,0.146s0.256-0.049,0.354-0.146L7.137,16h1.938
		l1.503,3.716l-1.972,1.97l-2.41,0.002c-0.275,0-0.5,0.226-0.5,0.5c0,0.276,0.225,0.5,0.5,0.5h1.41l-3.065,3.064
		c-0.194,0.195-0.194,0.512,0,0.707c0.099,0.098,0.226,0.146,0.354,0.146c0.127,0,0.256-0.049,0.354-0.146l3.066-3.066v1.41
		c0,0.276,0.224,0.5,0.5,0.5c0.275,0,0.5-0.224,0.5-0.5v-2.41l1.996-1.996L15,21.963v1.898l-1.529,1.529
		c-0.195,0.194-0.195,0.512,0,0.707c0.195,0.194,0.512,0.194,0.707,0L15,25.275v1.51l-1.906,1.906c-0.195,0.193-0.195,0.512,0,0.707
		c0.195,0.193,0.512,0.193,0.707,0L15,28.199V30.5c0,0.275,0.225,0.5,0.5,0.5s0.5-0.225,0.5-0.5v-2.301l1.199,1.199
		c0.098,0.098,0.226,0.146,0.354,0.146c0.129,0,0.256-0.049,0.354-0.146c0.194-0.195,0.194-0.514,0-0.707L16,26.785v-1.51
		l0.822,0.824c0.098,0.098,0.226,0.146,0.354,0.146c0.129,0,0.256-0.05,0.354-0.146c0.195-0.195,0.195-0.514,0-0.707L16,23.861
		v-1.938l3.715-1.502l1.973,1.974v2.406c0,0.276,0.226,0.5,0.5,0.5c0.276,0,0.5-0.224,0.5-0.5v-1.406l3.064,3.063
		c0.098,0.099,0.227,0.146,0.354,0.146c0.129,0,0.256-0.049,0.354-0.146c0.194-0.194,0.194-0.513,0-0.707l-3.065-3.063l1.412-0.002
		c0.275,0,0.5-0.225,0.5-0.5s-0.225-0.5-0.5-0.5l-2.41,0.002l-2-1.998L21.963,16h1.898l1.529,1.527
		c0.098,0.099,0.226,0.146,0.354,0.146s0.256-0.049,0.354-0.146c0.195-0.194,0.195-0.512,0-0.707L25.275,16h1.511l1.905,1.904
		c0.099,0.098,0.227,0.146,0.354,0.146s0.256-0.049,0.354-0.146c0.195-0.195,0.195-0.512,0-0.707L28.2,16h2.3
		c0.275,0,0.5-0.224,0.5-0.5S30.775,15,30.5,15z M20.876,16l-1.242,2.927l-0.231,0.544l-0.453,0.185L16,20.848l-0.548,0.221
		L15,20.876l-2.93-1.242l-0.543-0.229l-0.185-0.457L10.15,16l-0.221-0.548L10.121,15l1.241-2.927l0.232-0.544l0.454-0.184
		l2.95-1.193l0.546-0.221l0.454,0.193l2.927,1.241l0.546,0.231l0.184,0.455L20.846,15l0.221,0.548L20.876,16z"/>
</g>
<g>
</g>
<g>
</g>
<g>
</g>
<g>
</g>
<g>
</g>
<g>
</g>
<g>
</g>
<g>
</g>
<g>
</g>
<g>
</g>
<g>
</g>
<g>
</g>
<g>
</g>
<g>
</g>
<g>
</g>
</svg>
