<svg width="256" height="256" viewBox="0 0 256 256" fill="none" xmlns="http://www.w3.org/2000/svg">
<g clip-path="url(#clip0)">
<rect width="256" height="256" fill="#2E6750"/>
<path d="M-34 -15C-34 -24.3888 -26.3888 -32 -17 -32H88C97.3888 -32 105 -24.3888 105 -15V153C105 162.389 97.3888 170 88 170H-17C-26.3888 170 -34 162.389 -34 153V-15Z" fill="#1D4A37"/>
<path d="M-34 -19C-34 -28.3888 -26.3888 -36 -17 -36H88C97.3888 -36 105 -28.3888 105 -19V149C105 158.389 97.3888 166 88 166H-17C-26.3888 166 -34 158.389 -34 149V-19Z" fill="#235440"/>
<path d="M-34 215C-34 205.611 -26.3888 198 -17 198H88C97.3888 198 105 205.611 105 215V383C105 392.389 97.3888 400 88 400H-17C-26.3888 400 -34 392.389 -34 383V215Z" fill="#1D4A37"/>
<path d="M-34 211C-34 201.611 -26.3888 194 -17 194H88C97.3888 194 105 201.611 105 211V379C105 388.389 97.3888 396 88 396H-17C-26.3888 396 -34 388.389 -34 379V211Z" fill="#235440"/>
<path d="M132 129C132 119.611 139.611 112 149 112H254C263.389 112 271 119.611 271 129V297C271 306.389 263.389 314 254 314H149C139.611 314 132 306.389 132 297V129Z" fill="#1D4A37"/>
<path d="M132 125C132 115.611 139.611 108 149 108H254C263.389 108 271 115.611 271 125V293C271 302.389 263.389 310 254 310H149C139.611 310 132 302.389 132 293V125Z" fill="#235440"/>
<path d="M132 -102C132 -111.389 139.611 -119 149 -119H254C263.389 -119 271 -111.389 271 -102V66C271 75.3888 263.389 83 254 83H149C139.611 83 132 75.3888 132 66V-102Z" fill="#1D4A37"/>
<path d="M132 -106C132 -115.389 139.611 -123 149 -123H254C263.389 -123 271 -115.389 271 -106V62C271 71.3888 263.389 79 254 79H149C139.611 79 132 71.3888 132 62V-106Z" fill="#235440"/>
<path d="M-62 112C-62 107.582 -58.4183 104 -54 104H71C75.4183 104 79 107.582 79 112V139C79 143.418 75.4183 147 71 147H-54C-58.4183 147 -62 143.418 -62 139V112Z" fill="#4D7E6A"/>
<path d="M144 9C144 4.58172 147.582 1 152 1H277C281.418 1 285 4.58172 285 9V36C285 40.4183 281.418 44 277 44H152C147.582 44 144 40.4183 144 36V9Z" fill="#4D7E6A"/>
<path d="M144 153C144 148.582 147.582 145 152 145H277C281.418 145 285 148.582 285 153V220H144V153Z" fill="#4D7E6A"/>
<path d="M169 164H217V172H169V164Z" fill="#2E6750"/>
<path d="M169 178H217V186H169V178Z" fill="#2E6750"/>
<path d="M169 192H217V200H169V192Z" fill="#2E6750"/>
<path d="M52 115H65V136H52V115Z" fill="#2E6750"/>
<path d="M35 115H48V136H35V115Z" fill="#2E6750"/>
<path d="M18 115H31V136H18V115Z" fill="#2E6750"/>
<path d="M1 115H14V136H1V115Z" fill="#2E6750"/>
<path d="M198 4.5C198 11.9558 191.956 18 184.5 18C177.044 18 171 11.9558 171 4.5C171 -2.95584 177.044 -9 184.5 -9C191.956 -9 198 -2.95584 198 4.5Z" fill="#2E6750"/>
<path d="M258 4.5C258 11.9558 251.956 18 244.5 18C237.044 18 231 11.9558 231 4.5C231 -2.95584 237.044 -9 244.5 -9C251.956 -9 258 -2.95584 258 4.5Z" fill="#2E6750"/>
<path d="M171 24H197V32H171V24Z" fill="#2E6750"/>
<path d="M231 24H257V32H231V24Z" fill="#2E6750"/>
<path fill-rule="evenodd" clip-rule="evenodd" d="M79 129C81.2091 129 83 127.209 83 125C83 122.791 81.2091 121 79 121C76.7909 121 75 122.791 75 125C75 127.209 76.7909 129 79 129ZM79 133C83.4183 133 87 129.418 87 125C87 120.582 83.4183 117 79 117C74.5817 117 71 120.582 71 125C71 129.418 74.5817 133 79 133Z" fill="white"/>
<path fill-rule="evenodd" clip-rule="evenodd" d="M169 186C171.209 186 173 184.209 173 182C173 179.791 171.209 178 169 178C166.791 178 165 179.791 165 182C165 184.209 166.791 186 169 186ZM169 190C173.418 190 177 186.418 177 182C177 177.582 173.418 174 169 174C164.582 174 161 177.582 161 182C161 186.418 164.582 190 169 190Z" fill="white"/>
<path fill-rule="evenodd" clip-rule="evenodd" d="M120.686 11.8579L133.414 24.5858C134.195 25.3669 134.195 26.6332 133.414 27.4142L120.686 40.1422C119.905 40.9232 118.639 40.9232 117.858 40.1422C117.077 39.3611 117.077 38.0948 117.858 37.3137L127.171 28H118.326C115.549 28 113.483 29.179 111.825 31.4376C110.095 33.7936 108.827 37.3207 107.95 41.8492C106.197 50.898 106.152 63.0606 106.224 75.4885C106.228 76.3142 106.234 77.1411 106.239 77.9681C106.312 89.4604 106.386 100.989 105.081 109.824C104.383 114.549 103.261 118.739 101.38 121.795C99.4333 124.956 96.5903 127 92.686 127H83.0006L83 123H92.686C94.9067 123 96.5861 121.951 97.9738 119.697C99.426 117.339 100.451 113.795 101.124 109.239C102.381 100.723 102.311 89.4937 102.238 77.8732C102.233 77.0875 102.228 76.3 102.224 75.5115C102.153 63.1895 102.18 50.602 104.023 41.0883C104.944 36.3356 106.356 32.1283 108.601 29.0703C110.918 25.9147 114.123 24 118.326 24H127.171L117.858 14.6863C117.077 13.9053 117.077 12.6389 117.858 11.8579C118.639 11.0768 119.905 11.0768 120.686 11.8579Z" fill="white"/>
<path fill-rule="evenodd" clip-rule="evenodd" d="M14.3137 295.142L1.58577 282.414C0.804719 281.633 0.804719 280.367 1.58577 279.586L14.3137 266.858C15.0947 266.077 16.3611 266.077 17.1421 266.858C17.9232 267.639 17.9232 268.905 17.1421 269.686L7.82842 279L47.6512 279C70.1172 279 80.9047 272.913 86.2517 264.462C91.7502 255.771 91.9328 244.028 91.698 231.538C91.683 230.736 91.6663 229.932 91.6497 229.126C91.5387 223.761 91.4264 218.329 91.7675 213.192C92.1603 207.275 93.1614 201.571 95.5591 196.6C97.9814 191.578 101.796 187.377 107.654 184.463C113.466 181.573 121.185 180 131.372 180L162.999 180C162.999 180 163 180 163 182C163 184 163 184 163 184L131.372 184C121.559 184 114.51 185.521 109.436 188.045C104.408 190.545 101.216 194.078 99.1619 198.338C97.0828 202.648 96.1362 207.772 95.7587 213.457C95.43 218.406 95.5379 223.646 95.6487 229.028C95.6653 229.836 95.682 230.648 95.6973 231.462C95.9277 243.722 95.8777 256.729 89.632 266.601C83.2349 276.712 70.7666 283 47.6512 283L7.82842 283L17.1421 292.314C17.9232 293.095 17.9232 294.361 17.1421 295.142C16.3611 295.923 15.0947 295.923 14.3137 295.142Z" fill="white"/>
<path fill-rule="evenodd" clip-rule="evenodd" d="M-48.6863 97.1421L-61.4142 84.4142C-62.1953 83.6331 -62.1953 82.3668 -61.4142 81.5858L-48.6863 68.8578C-47.9053 68.0768 -46.6389 68.0768 -45.8579 68.8578C-45.0768 69.6389 -45.0768 70.9052 -45.8579 71.6863L-55.1716 81L-5.5 81C2.31835 81 7.86173 79.499 11.832 77.0448C15.7745 74.6078 18.3431 71.1217 20.0305 66.8033C21.7336 62.4449 22.5253 57.2695 22.8844 51.5504C23.1707 46.9922 23.1781 42.2001 23.1857 37.286C23.1876 36.0279 23.1896 34.7618 23.1962 33.4895C23.2605 21.1978 23.7398 8.27353 29.4923 -1.54248C35.4054 -11.6324 46.5689 -18 66.7674 -18L97.999 -18C97.9992 -18 98 -18 98 -16C98 -14 97.9999 -14 97.9998 -14L66.7674 -14C47.466 -14 37.9086 -7.99264 32.9434 0.47996C27.8176 9.22644 27.2613 21.0522 27.1962 33.5104C27.1897 34.7458 27.1879 35.9871 27.186 37.2298C27.1787 42.1575 27.1713 47.1083 26.8766 51.8011C26.5072 57.6836 25.6798 63.3363 23.7562 68.2591C21.817 73.222 18.7514 77.4702 13.9351 80.4473C9.14664 83.4072 2.80666 85 -5.5 85L-55.1716 85L-45.8579 94.3137C-45.0768 95.0947 -45.0768 96.3611 -45.8579 97.1421C-46.6389 97.9232 -47.9053 97.9232 -48.6863 97.1421Z" fill="white"/>
<path fill-rule="evenodd" clip-rule="evenodd" d="M155.314 322.142L142.586 309.414C141.805 308.633 141.805 307.367 142.586 306.586L155.314 293.858C156.095 293.077 157.361 293.077 158.142 293.858C158.923 294.639 158.923 295.905 158.142 296.686L148.828 306L198.5 306C206.318 306 211.862 304.499 215.832 302.045C219.774 299.608 222.343 296.122 224.031 291.803C225.734 287.445 226.525 282.269 226.884 276.55C227.171 271.992 227.178 267.2 227.186 262.286C227.188 261.028 227.19 259.762 227.196 258.49C227.26 246.198 227.74 233.274 233.492 223.458C239.405 213.368 250.569 207 270.767 207L301.999 207C301.999 207 302 207 302 209C302 211 302 211 302 211L270.767 211C251.466 211 241.909 217.007 236.943 225.48C231.818 234.226 231.261 246.052 231.196 258.51C231.19 259.746 231.188 260.987 231.186 262.23C231.179 267.157 231.171 272.108 230.877 276.801C230.507 282.684 229.68 288.336 227.756 293.259C225.817 298.222 222.751 302.47 217.935 305.447C213.147 308.407 206.807 310 198.5 310L148.828 310L158.142 319.314C158.923 320.095 158.923 321.361 158.142 322.142C157.361 322.923 156.095 322.923 155.314 322.142Z" fill="white"/>
<path fill-rule="evenodd" clip-rule="evenodd" d="M220.142 96.6863L207.414 109.414C206.633 110.195 205.367 110.195 204.586 109.414L191.858 96.6863C191.077 95.9052 191.077 94.6389 191.858 93.8579C192.639 93.0768 193.905 93.0768 194.686 93.8579L204 103.172L204 -55L208 -55L208 103.172L217.314 93.8579C218.095 93.0768 219.361 93.0768 220.142 93.8579C220.923 94.6389 220.923 95.9052 220.142 96.6863Z" fill="white"/>
</g>
<defs>
<clipPath id="clip0">
<rect width="256" height="256" fill="white"/>
</clipPath>
</defs>
</svg>
