<svg width="362" height="202" viewBox="0 0 362 202" fill="none" xmlns="http://www.w3.org/2000/svg">
<rect width="362" height="202" fill="white"/>
<rect x="42" y="43" width="130" height="78" fill="#ECEEEE"/>
<rect x="189" y="43" width="130" height="78" fill="#ECEEEE"/>
<rect x="42" y="124" width="130" height="4" fill="#E7F6E4"/>
<rect x="189" y="124" width="130" height="4" fill="#F9E8E8"/>
<rect x="42" y="131" width="15" height="7" fill="#39B620"/>
<rect x="189" y="131" width="15" height="7" fill="#CA3C3D"/>
<rect x="70" y="60" width="33" height="44" fill="#E2E5E5"/>
<rect x="217" y="60" width="33" height="44" fill="#E2E5E5"/>
<rect x="42" y="141" width="130" height="4" fill="#E2E5E5"/>
<rect x="42" y="172" width="277" height="5" fill="#E2E5E5"/>
<rect x="42" y="3" width="277" height="5" fill="#E2E5E5"/>
<rect x="42" y="182" width="277" height="5" fill="#E2E5E5"/>
<rect x="42" y="13" width="277" height="5" fill="#E2E5E5"/>
<rect x="42" y="192" width="91" height="5" fill="#E2E5E5"/>
<rect x="42" y="23" width="91" height="5" fill="#E2E5E5"/>
<rect x="189" y="141" width="130" height="4" fill="#E2E5E5"/>
<rect x="42" y="148" width="30" height="4" fill="#E2E5E5"/>
<rect x="189" y="148" width="74" height="4" fill="#E2E5E5"/>
<rect x="110" y="60" width="33" height="44" fill="#E2E5E5"/>
<rect x="257" y="60" width="33" height="44" fill="#E2E5E5"/>
</svg>
