<svg id="Layer_1" data-name="Layer 1" xmlns="http://www.w3.org/2000/svg" viewBox="0 0 4364.78 3030.55"><defs><style>.cls-1{fill:#fd9d9e;}.cls-2{fill:#fe6868;}.cls-3{fill:#f33;}.cls-4{fill:#6e2121;}.cls-5{fill:#d2c5fc;}.cls-6{fill:#c3b2fb;}.cls-7{fill:#ac95f9;}.cls-8{fill:#472e6e;}.cls-9{fill:#ffd8d1;}.cls-10{fill:#ffc0b6;}.cls-11{fill:#ffa99a;}.cls-12{fill:#d6410a;}.cls-13{fill:#fee3ca;}.cls-14{fill:#fed3a8;}.cls-15{fill:#ffc68f;}.cls-16{fill:#ba5b19;}.cls-17{fill:#ffeb26;}.cls-18{fill:#ffd94c;}.cls-19{fill:#ffcb69;}.cls-20{fill:#644d07;}.cls-21{fill:#eef0f0;}.cls-22{fill:#d5d8da;}.cls-23{fill:#b9bfc2;}.cls-24{fill:#9ca5a9;}.cls-25{fill:#879196;}.cls-26{fill:#727e84;}.cls-27{fill:#6a767c;}.cls-28{fill:#5f6b71;}.cls-29{fill:#556167;}.cls-30{fill:#424e54;}.cls-31{fill:#e8eaea;}.cls-32{fill:#c6cacc;}.cls-33{fill:#a1a7aa;}.cls-34{fill:#7b8387;}.cls-35{fill:#5e696e;}.cls-36{fill:#3c474d;}.cls-37{fill:#333d43;}.cls-38{fill:#2b353a;}.cls-39{fill:#1d2529;}.cls-40{fill:#f9e8e8;}.cls-41{fill:#efc5c5;}.cls-42{fill:#e59e9e;}.cls-43{fill:#da7777;}.cls-44{fill:#d2595a;}.cls-45{fill:#ca3c3d;}.cls-46{fill:#c53637;}.cls-47{fill:#bd2e2f;}.cls-48{fill:#b72727;}.cls-49{fill:#ab1a1a;}.cls-50{fill:#fdf5e4;}.cls-51{fill:#fbe6bc;}.cls-52{fill:#f8d58f;}.cls-53{fill:#f5c462;}.cls-54{fill:#f2b741;}.cls-55{fill:#f0aa1e;}.cls-56{fill:#eea31b;}.cls-57{fill:#ec9917;}.cls-58{fill:#e99012;}.cls-59{fill:#e57f0a;}.cls-60{fill:#fdf9e6;}.cls-61{fill:#fbefc1;}.cls-62{fill:#f8e597;}.cls-63{fill:#f5db6d;}.cls-64{fill:#f2d34e;}.cls-65{fill:#f0cb2f;}.cls-66{fill:#eec62a;}.cls-67{fill:#ecbe23;}.cls-68{fill:#e9b81d;}.cls-69{fill:#e5ac12;}.cls-70{fill:#e7f6e4;}.cls-71{fill:#c4e9bc;}.cls-72{fill:#9cdb90;}.cls-73{fill:#74cc63;}.cls-74{fill:#57c141;}.cls-75{fill:#39b620;}.cls-76{fill:#33af1c;}.cls-77{fill:#2ba618;}.cls-78{fill:#249e13;}.cls-79{fill:#178e0b;}.cls-80{fill:#feefe4;}.cls-81{fill:#fcd6bc;}.cls-82{fill:#fabb90;}.cls-83{fill:#f7a064;}.cls-84{fill:#f68b42;}.cls-85{fill:#f47721;}.cls-86{fill:#f36f1d;}.cls-87{fill:#f16418;}.cls-88{fill:#ef5a14;}.cls-89{fill:#ec470b;}.cls-113,.cls-90{fill:#e0eef8;}.cls-91{fill:#b3d7ec;}.cls-92{fill:#80bde0;}.cls-93{fill:#4da3d4;}.cls-94{fill:#268fca;}.cls-95{fill:#007bc1;}.cls-96{fill:#0073bb;}.cls-97{fill:#0068b3;}.cls-98{fill:#005eab;}.cls-99{fill:#004b9e;}.cls-100{fill:#f3e8fd;}.cls-101{fill:#e0c5fa;}.cls-102{fill:#cc9ff7;}.cls-103{fill:#b779f4;}.cls-104{fill:#a75cf1;}.cls-105{fill:#983fef;}.cls-106{fill:#9039ed;}.cls-107{fill:#8531eb;}.cls-108{fill:#7b29e8;}.cls-109{fill:#6a1be4;}.cls-110,.cls-111{font-size:24px;}.cls-110,.cls-111,.cls-113,.cls-122{font-family:OpenSans-Light, Open Sans;}.cls-111{fill:#fff;}.cls-112{opacity:0.6;}.cls-113,.cls-124{font-size:18px;}.cls-114{fill:#9bffc4;}.cls-115{fill:#4dff96;}.cls-116{fill:#00ff69;}.cls-117{fill:#14800a;}.cls-118{fill:#c2dafe;}.cls-119{fill:#95c0fe;}.cls-120{fill:#67a5ff;}.cls-121{fill:#00466e;}.cls-122{font-size:52.7px;}.cls-123,.cls-124,.cls-125{font-family:OpenSans-Semibold, Open Sans;font-weight:700;}.cls-125{font-size:16.74px;}</style></defs><title>Artboard 1</title><rect class="cls-1" x="3137" y="1115.63" width="210" height="210"/><rect class="cls-2" x="3377" y="1115.63" width="210" height="210"/><rect class="cls-3" x="3617" y="1115.63" width="210" height="210"/><rect class="cls-4" x="3857" y="1115.63" width="210" height="210"/><rect class="cls-5" x="3137" y="1354.45" width="210" height="210"/><rect class="cls-6" x="3377" y="1354.45" width="210" height="210"/><rect class="cls-7" x="3617" y="1354.45" width="210" height="210"/><rect class="cls-8" x="3857" y="1354.45" width="210" height="210"/><rect class="cls-9" x="3137" y="1595.63" width="210" height="210"/><rect class="cls-10" x="3377" y="1595.63" width="210" height="210"/><rect class="cls-11" x="3617" y="1595.63" width="210" height="210"/><rect class="cls-12" x="3857" y="1595.63" width="210" height="210"/><rect class="cls-13" x="3137" y="1835.63" width="210" height="210"/><rect class="cls-14" x="3377" y="1835.63" width="210" height="210"/><rect class="cls-15" x="3617" y="1835.63" width="210" height="210"/><rect class="cls-16" x="3857" y="1835.63" width="210" height="210"/><rect class="cls-17" x="3137" y="2068.57" width="210" height="210"/><rect class="cls-18" x="3377" y="2068.57" width="210" height="210"/><rect class="cls-19" x="3617" y="2068.57" width="210" height="210"/><rect class="cls-20" x="3857" y="2068.57" width="210" height="210"/><rect class="cls-21" x="588" y="2628.57" width="210" height="210"/><rect class="cls-22" x="828" y="2628.57" width="210" height="210"/><rect class="cls-23" x="1068" y="2628.57" width="210" height="210"/><rect class="cls-24" x="1308" y="2628.57" width="210" height="210"/><rect class="cls-25" x="1548" y="2628.57" width="210" height="210"/><rect class="cls-26" x="1788" y="2628.57" width="210" height="210"/><rect class="cls-27" x="2028" y="2628.57" width="210" height="210"/><rect class="cls-28" x="2268" y="2628.57" width="210" height="210"/><rect class="cls-29" x="2508" y="2628.57" width="210" height="210"/><rect class="cls-30" x="2748" y="2628.57" width="210" height="210"/><rect class="cls-31" x="588" y="2388.57" width="210" height="210"/><rect class="cls-32" x="828" y="2388.57" width="210" height="210"/><rect class="cls-33" x="1068" y="2388.57" width="210" height="210"/><rect class="cls-34" x="1308" y="2388.57" width="210" height="210"/><rect class="cls-35" x="1548" y="2388.57" width="210" height="210"/><rect class="cls-30" x="1788" y="2388.57" width="210" height="210"/><rect class="cls-36" x="2028" y="2388.57" width="210" height="210"/><rect class="cls-37" x="2268" y="2388.57" width="210" height="210"/><rect class="cls-38" x="2508" y="2388.57" width="210" height="210"/><rect class="cls-39" x="2748" y="2388.57" width="210" height="210"/><rect class="cls-40" x="588" y="1108.57" width="210" height="210"/><rect class="cls-41" x="828" y="1108.57" width="210" height="210"/><rect class="cls-42" x="1068" y="1108.57" width="210" height="210"/><rect class="cls-43" x="1308" y="1108.57" width="210" height="210"/><rect class="cls-44" x="1548" y="1108.57" width="210" height="210"/><rect class="cls-45" x="1788" y="1108.57" width="210" height="210"/><rect class="cls-46" x="2028" y="1108.57" width="210" height="210"/><rect class="cls-47" x="2268" y="1108.57" width="210" height="210"/><rect class="cls-48" x="2508" y="1108.57" width="210" height="210"/><rect class="cls-49" x="2748" y="1108.57" width="210" height="210"/><rect class="cls-50" x="588" y="1828.57" width="210" height="210"/><rect class="cls-51" x="828" y="1828.57" width="210" height="210"/><rect class="cls-52" x="1068" y="1828.57" width="210" height="210"/><rect class="cls-53" x="1308" y="1828.57" width="210" height="210"/><rect class="cls-54" x="1548" y="1828.57" width="210" height="210"/><rect class="cls-55" x="1788" y="1828.57" width="210" height="210"/><rect class="cls-56" x="2028" y="1828.57" width="210" height="210"/><rect class="cls-57" x="2268" y="1828.57" width="210" height="210"/><rect class="cls-58" x="2508" y="1828.57" width="210" height="210"/><rect class="cls-59" x="2748" y="1828.57" width="210" height="210"/><rect class="cls-60" x="588" y="2068.57" width="210" height="210"/><rect class="cls-61" x="828" y="2068.57" width="210" height="210"/><rect class="cls-62" x="1068" y="2068.57" width="210" height="210"/><rect class="cls-63" x="1308" y="2068.57" width="210" height="210"/><rect class="cls-64" x="1548" y="2068.57" width="210" height="210"/><rect class="cls-65" x="1788" y="2068.57" width="210" height="210"/><rect class="cls-66" x="2028" y="2068.57" width="210" height="210"/><rect class="cls-67" x="2268" y="2068.57" width="210" height="210"/><rect class="cls-68" x="2508" y="2068.57" width="210" height="210"/><rect class="cls-69" x="2748" y="2068.57" width="210" height="210"/><rect class="cls-70" x="588" y="868.57" width="210" height="210"/><rect class="cls-71" x="828" y="868.57" width="210" height="210"/><rect class="cls-72" x="1068" y="868.57" width="210" height="210"/><rect class="cls-73" x="1308" y="868.57" width="210" height="210"/><rect class="cls-74" x="1548" y="868.57" width="210" height="210"/><rect class="cls-75" x="1788" y="868.57" width="210" height="210"/><rect class="cls-76" x="2028" y="868.57" width="210" height="210"/><rect class="cls-77" x="2268" y="868.57" width="210" height="210"/><rect class="cls-78" x="2508" y="868.57" width="210" height="210"/><rect class="cls-79" x="2748" y="868.57" width="210" height="210"/><rect class="cls-80" x="588" y="1588.57" width="210" height="210"/><rect class="cls-81" x="828" y="1588.57" width="210" height="210"/><rect class="cls-82" x="1068" y="1588.57" width="210" height="210"/><rect class="cls-83" x="1308" y="1588.57" width="210" height="210"/><rect class="cls-84" x="1548" y="1588.57" width="210" height="210"/><rect class="cls-85" x="1788" y="1588.57" width="210" height="210"/><rect class="cls-86" x="2028" y="1588.57" width="210" height="210"/><rect class="cls-87" x="2268" y="1588.57" width="210" height="210"/><rect class="cls-88" x="2508" y="1588.57" width="210" height="210"/><rect class="cls-89" x="2748" y="1588.57" width="210" height="210"/><rect class="cls-90" x="588" y="628.57" width="210" height="210"/><rect class="cls-91" x="828" y="628.57" width="210" height="210"/><rect class="cls-92" x="1068" y="628.57" width="210" height="210"/><rect class="cls-93" x="1308" y="628.57" width="210" height="210"/><rect class="cls-94" x="1548" y="628.57" width="210" height="210"/><rect class="cls-95" x="1788" y="628.57" width="210" height="210"/><rect class="cls-96" x="2028" y="628.57" width="210" height="210"/><rect class="cls-97" x="2268" y="628.57" width="210" height="210"/><rect class="cls-98" x="2508" y="628.57" width="210" height="210"/><rect class="cls-99" x="2748" y="628.57" width="210" height="210"/><rect class="cls-100" x="588" y="1348.57" width="210" height="210"/><rect class="cls-101" x="828" y="1348.57" width="210" height="210"/><rect class="cls-102" x="1068" y="1348.57" width="210" height="210"/><rect class="cls-103" x="1308" y="1348.57" width="210" height="210"/><rect class="cls-104" x="1548" y="1348.57" width="210" height="210"/><rect class="cls-105" x="1788" y="1348.57" width="210" height="210"/><rect class="cls-106" x="2028" y="1348.57" width="210" height="210"/><rect class="cls-107" x="2268" y="1348.57" width="210" height="210"/><rect class="cls-108" x="2508" y="1348.57" width="210" height="210"/><rect class="cls-109" x="2748" y="1348.57" width="210" height="210"/><text class="cls-110" transform="translate(845.61 738.43)"><tspan xml:space="preserve">  100 : #B3D7EC</tspan></text><text class="cls-110" transform="translate(1086.21 738.43)"><tspan xml:space="preserve">  200 : #80BDE0</tspan></text><text class="cls-110" transform="translate(1324.68 738.43)"><tspan xml:space="preserve">  300 : #4DA3D4</tspan></text><text class="cls-111" transform="translate(1568.15 738.43)"><tspan xml:space="preserve">  400 : #268FCA</tspan></text><text class="cls-111" transform="translate(1813.24 738.43)">500 : #007BC1</text><text class="cls-111" transform="translate(2046.93 738.43)"><tspan xml:space="preserve">  600 : #0073BB</tspan></text><text class="cls-111" transform="translate(2290.72 738.43)"><tspan xml:space="preserve"> 700 : #0068B3</tspan></text><text class="cls-111" transform="translate(2527.48 738.43)"><tspan xml:space="preserve">  800 : #005EAB</tspan></text><text class="cls-110" transform="translate(623.47 738.43)">50 : #E0EFF8</text><text class="cls-111" transform="translate(2774.07 738.43)">900 : #004B9E</text><text class="cls-110" transform="translate(846.63 988.28)"><tspan xml:space="preserve">  100 : #C4E9BC</tspan></text><text class="cls-110" transform="translate(1082.8 988.28)"><tspan xml:space="preserve">  200 : #9CDB90,</tspan></text><text class="cls-110" transform="translate(1327.07 988.28)"><tspan xml:space="preserve">  300 : #74CC63</tspan></text><text class="cls-111" transform="translate(1567.68 988.28)"><tspan xml:space="preserve">  400 : #57C141</tspan></text><text class="cls-111" transform="translate(1813.84 988.28)">500 : #39B620</text><text class="cls-111" transform="translate(2051.27 988.28)"><tspan xml:space="preserve">  600 :#33AF1C</tspan></text><text class="cls-111" transform="translate(2290.44 988.28)"><tspan xml:space="preserve"> 700 : #2CA618</tspan></text><text class="cls-111" transform="translate(2528.51 988.28)"><tspan xml:space="preserve">  800 : #249E13</tspan></text><text class="cls-110" transform="translate(622.65 988.28)">50 : #E7F6E4</text><text class="cls-111" transform="translate(2774.07 988.28)">900 : #178E0B</text><text class="cls-110" transform="translate(848.13 1220.63)"><tspan xml:space="preserve">  100 : #EFC5C5</tspan></text><text class="cls-110" transform="translate(1095.2 1220.63)">200 : #E59E9E</text><text class="cls-110" transform="translate(1332.54 1220.63)">300 : #DA7777</text><text class="cls-111" transform="translate(1572.54 1220.63)">400 : #D2595A</text><text class="cls-111" transform="translate(1811.33 1220.63)">500 : #CA3C3D</text><text class="cls-111" transform="translate(2057.03 1220.63)">600 :#C53637</text><text class="cls-111" transform="translate(2293.27 1220.63)">700 : #BD2E2F</text><text class="cls-111" transform="translate(2530.72 1220.63)"><tspan xml:space="preserve"> 800 : #B72727</tspan></text><text class="cls-110" transform="translate(622.65 1220.63)">50 : #F9E8E8</text><text class="cls-111" transform="translate(2772.79 1220.63)">900 : #AB1A1A</text><text class="cls-110" transform="translate(3190.96 1220.63)">#FD9D9E</text><text class="cls-110" transform="translate(3434.2 1220.63)">#FE6868</text><text class="cls-111" transform="translate(3913.38 1220.63)">#6E2121</text><text class="cls-110" transform="translate(3674.8 1220.63)">#FF3333</text><text class="cls-110" transform="translate(848.38 1459.45)"><tspan xml:space="preserve">  100 : #E0C5FA</tspan></text><text class="cls-110" transform="translate(1094.96 1459.45)">200 : #CC9FF7</text><text class="cls-110" transform="translate(1334.67 1459.45)">300 : #B779F4</text><text class="cls-111" transform="translate(1574.38 1459.45)">400 : #A75CF1</text><text class="cls-111" transform="translate(1816.39 1459.45)">500 : #983FEF</text><text class="cls-111" transform="translate(2056.24 1459.45)">600 :#9039ED</text><text class="cls-111" transform="translate(2294.07 1459.45)">700 : #8531EB</text><text class="cls-111" transform="translate(2530.95 1459.45)"><tspan xml:space="preserve"> 800 : #7B29E8</tspan></text><text class="cls-110" transform="translate(621.62 1459.45)">50 : #F3E8FD</text><text class="cls-111" transform="translate(2773.72 1459.45)">900 : #6A1BE4</text><text class="cls-110" transform="translate(845.6 1700.63)"><tspan xml:space="preserve">  100 : #FCD6BC</tspan></text><text class="cls-110" transform="translate(1093.64 1700.63)">200 : #FABB90</text><text class="cls-110" transform="translate(1334.99 1700.63)">300 : #F7A064</text><text class="cls-110" transform="translate(1574.67 1700.63)">400 : #F68B42</text><text class="cls-110" transform="translate(1815.34 1700.63)">500 : #F47721</text><text class="cls-111" transform="translate(2057.66 1700.63)">600 :#F36F1D</text><text class="cls-111" transform="translate(2295.34 1700.63)">700 : #F16418</text><text class="cls-111" transform="translate(2532.1 1700.63)"><tspan xml:space="preserve"> 800 : #EF5A14</tspan></text><text class="cls-110" transform="translate(623.7 1700.63)">50 : #FEEFE4</text><text class="cls-111" transform="translate(2773.46 1700.63)">900 : #EC470B</text><text class="cls-110" transform="translate(3191.15 1462.41)">#D2C5FC</text><text class="cls-110" transform="translate(3432.02 1462.41)">#C3B2FB</text><text class="cls-111" transform="translate(3913.61 1462.41)">#472E6E</text><text class="cls-110" transform="translate(3673.02 1462.41)">#AC95F9</text><text class="cls-110" transform="translate(3191.56 1710.63)">#FFD8D1</text><text class="cls-110" transform="translate(3433.52 1710.63)">#FFC0B6</text><text class="cls-111" transform="translate(3911.18 1710.63)">#D6410A</text><text class="cls-110" transform="translate(3674.1 1710.63)">#FFA99A</text><text class="cls-110" transform="translate(844.27 1940.63)"><tspan xml:space="preserve">  100 :  #FBE6BC</tspan></text><text class="cls-110" transform="translate(1094.54 1940.63)">200 : #F8D58F</text><text class="cls-110" transform="translate(1334.74 1940.63)">300 : #F5C462</text><text class="cls-110" transform="translate(1574.67 1940.63)">400 : #F2B741</text><text class="cls-110" transform="translate(1815.46 1940.63)">500 : #F0AA1F</text><text class="cls-110" transform="translate(2057.06 1940.63)">600 :#EEA31B</text><text class="cls-110" transform="translate(2294.14 1940.63)">700 : #EC9917</text><text class="cls-110" transform="translate(2531.62 1940.63)"><tspan xml:space="preserve"> 800 : #E99012</tspan></text><text class="cls-110" transform="translate(621.62 1940.63)">50 : #FDF5E4</text><text class="cls-110" transform="translate(2775.22 1940.63)">900 : #E57F0A</text><text class="cls-110" transform="translate(852 2180.63)"><tspan xml:space="preserve">100 :  #FBEFC1</tspan></text><text class="cls-110" transform="translate(1095.57 2180.63)">200 : #F8E597</text><text class="cls-110" transform="translate(1331.42 2180.63)">300 : #F5DB6D</text><text class="cls-110" transform="translate(1573.94 2180.63)">400 : #F2D34E</text><text class="cls-110" transform="translate(1814.89 2180.63)">500 : #F0CB2F</text><text class="cls-110" transform="translate(2057.13 2180.63)">600 :#EEC62A</text><text class="cls-110" transform="translate(2293.69 2180.63)">700 : #ECBE23</text><text class="cls-110" transform="translate(2529.33 2180.63)"><tspan xml:space="preserve"> 800 : #E9B81D</tspan></text><text class="cls-110" transform="translate(621.62 2180.63)">50 : #FDF9E6</text><text class="cls-110" transform="translate(2773.79 2180.63)">900 : #E5AC12</text><text class="cls-110" transform="translate(851.75 2500.63)">100 : #C6CACC</text><text class="cls-110" transform="translate(1093.11 2500.63)">200 : #A1A7AA</text><text class="cls-110" transform="translate(1333.84 2500.63)">300 : #7B8387</text><text class="cls-111" transform="translate(1571.85 2500.63)"><tspan xml:space="preserve">400 :  #5E696E</tspan></text><text class="cls-111" transform="translate(1814.74 2500.63)">500 : #424E54</text><text class="cls-111" transform="translate(2055.4 2500.63)">600 :#3C474D</text><text class="cls-111" transform="translate(2292.89 2500.63)">700 : #333D43</text><text class="cls-111" transform="translate(2530.37 2500.63)"><tspan xml:space="preserve"> 800 : #2B353A</tspan></text><text class="cls-110" transform="translate(621.35 2500.63)">50 : #E8EAEA</text><text class="cls-111" transform="translate(2772.89 2500.63)">900 : #1D2529</text><text class="cls-110" transform="translate(3193.48 1947.63)">#FEE3CA</text><text class="cls-110" transform="translate(3432.23 1947.63)">#FED3A8</text><text class="cls-111" transform="translate(3911.45 1947.63)">#BA5B19</text><text class="cls-110" transform="translate(3675.02 1947.63)">#FFC68F</text><text class="cls-110" transform="translate(3194.36 2180.63)">#FFEB26</text><text class="cls-110" transform="translate(3432.57 2180.63)">#FFD94C</text><text class="cls-111" transform="translate(3911.53 2180.63)">#644D07</text><text class="cls-110" transform="translate(3673.52 2180.63)">#FFCB69</text><g class="cls-112"><text class="cls-110" transform="translate(3515.85 2500.63)">NO ACCENTS</text></g><g class="cls-112"><text class="cls-110" transform="translate(3515.85 2733.57)">NO ACCENTS</text></g><text class="cls-113" transform="translate(2596.66 772.22)">USE<tspan x="-49.57" y="21.6">AS BRAND BLUE</tspan><tspan x="-51.4" y="43.2">WHEN POSSIBLE</tspan></text><text class="cls-110" transform="translate(846.18 2740.63)"><tspan xml:space="preserve">100 :  #D5D8DA</tspan></text><text class="cls-110" transform="translate(1093.39 2740.63)">200 : #B9BFC2</text><text class="cls-110" transform="translate(1333.21 2740.63)">300 : #9CA5A9</text><text class="cls-111" transform="translate(1574.51 2740.63)">400 : #879196</text><text class="cls-111" transform="translate(1814.74 2740.63)">500 : #727E84</text><text class="cls-111" transform="translate(2056.68 2740.63)">600 :#6A767C</text><text class="cls-111" transform="translate(2294.67 2740.63)">700 : #5F6B71</text><text class="cls-111" transform="translate(2531.4 2740.63)"><tspan xml:space="preserve"> 800 : #556167</tspan></text><text class="cls-110" transform="translate(623.47 2740.63)">50 : #EEF0F0</text><text class="cls-111" transform="translate(2774.74 2740.63)">900 : #424E54</text><rect class="cls-114" x="3137" y="868.57" width="210" height="210"/><rect class="cls-115" x="3377" y="868.57" width="210" height="210"/><rect class="cls-116" x="3617" y="868.57" width="210" height="210"/><rect class="cls-117" x="3857" y="868.57" width="210" height="210"/><text class="cls-110" transform="translate(3433.18 981.95)">#4DFF96</text><text class="cls-110" transform="translate(3672.8 981.95)">#14800A</text><text class="cls-110" transform="translate(3187.24 981.95)">#9BFFC4T</text><text class="cls-111" transform="translate(3914.8 981.95)">#00FF69</text><rect class="cls-118" x="3137" y="628.57" width="210" height="210"/><rect class="cls-119" x="3377" y="628.57" width="210" height="210"/><rect class="cls-120" x="3617" y="628.57" width="210" height="210"/><rect class="cls-121" x="3857" y="628.57" width="210" height="210"/><text class="cls-110" transform="translate(3433.6 741.95)">#95C0FE</text><text class="cls-110" transform="translate(3674.45 741.95)">#67A5FF</text><text class="cls-110" transform="translate(3191.63 741.95)">#C2DAFE</text><text class="cls-111" transform="translate(3913.38 741.95)">#00466E</text><rect class="cls-92" x="1068" y="628.57" width="210" height="210"/><text class="cls-122" transform="translate(290 272.06)"><tspan xml:space="preserve">PRIMARY COLOR PALETTE   |   </tspan><tspan class="cls-123" x="724.21" y="0">PX BLUE VERSION 2.0</tspan></text><text class="cls-122" transform="translate(3137 272.06)">ACCENT COLOR PALETTE</text><text class="cls-124" transform="translate(3137 611.54)">A100</text><text class="cls-125" transform="translate(3377 609.49)">A200</text><text class="cls-124" transform="translate(3617 611.54)">A400</text><text class="cls-124" transform="translate(3857 611.54)">A700</text><text class="cls-124" transform="translate(588 611.54)">50</text><text class="cls-125" transform="translate(828 609.49)">100</text><text class="cls-124" transform="translate(1068 611.54)">200</text><text class="cls-124" transform="translate(1308 611.54)">300</text><text class="cls-124" transform="translate(1548 611.54)">400</text><text class="cls-125" transform="translate(1788 609.49)">500</text><text class="cls-124" transform="translate(2028 611.54)">600</text><text class="cls-124" transform="translate(2268 611.54)">700</text><text class="cls-124" transform="translate(2508 611.54)">800</text><text class="cls-124" transform="translate(2748 611.54)">900</text><text class="cls-124" transform="translate(455.59 733.57)">$eaton-blue</text><text class="cls-124" transform="translate(443.69 988.28)">$eaton-green</text><text class="cls-124" transform="translate(464.28 1213.57)">$eaton-red</text><text class="cls-124" transform="translate(436.62 1453.57)">$eaton-purple</text><text class="cls-124" transform="translate(432.62 1700.63)">$eaton-orange</text><text class="cls-124" transform="translate(456.39 1940.63)">$eaton-gold</text><text class="cls-124" transform="translate(439.87 2176.65)">$eaton-yellow</text><text class="cls-124" transform="translate(449.75 2502.68)">$eaton-black</text><text class="cls-124" transform="translate(457.76 2743.76)">$eaton-gray</text><rect class="cls-31" x="603" y="461.54" width="2370" height="49"/><text class="cls-124" transform="translate(1688.87 491.22)">COLOR SHADE WEIGHT</text><rect class="cls-31" x="-790.5" y="1709.07" width="2210" height="49" transform="translate(-1419.07 2048.07) rotate(-90)"/><text class="cls-124" transform="translate(319.67 1940.23) rotate(-90)">COLOR REFERENCE IN THEME</text></svg>