<svg id="Layer_1" data-name="Layer 1" xmlns="http://www.w3.org/2000/svg" viewBox="0 0 2370 243.42"><defs><style>.cls-1{fill:#e0edf8;}.cls-2{fill:#b5d8eb;}.cls-3{fill:#82bde0;}.cls-4{fill:#4ea3d3;}.cls-5{fill:#2a8fc9;}.cls-6{fill:#077cc1;}.cls-7{fill:#0874bb;}.cls-8{fill:#0769b3;}.cls-9{fill:#095fab;}.cls-10{fill:#0a4e9c;}.cls-11{font-size:18px;}.cls-11,.cls-12{fill:#010101;font-family:OpenSans-Semibold, Open Sans;font-weight:700;}.cls-12{font-size:16.74px;}</style></defs><title>Artboard 1</title><rect class="cls-1" y="33.42" width="210" height="210"/><rect class="cls-2" x="240" y="33.42" width="210" height="210"/><rect class="cls-3" x="480" y="33.42" width="210" height="210"/><rect class="cls-4" x="720" y="33.42" width="210" height="210"/><rect class="cls-5" x="960" y="33.42" width="210" height="210"/><rect class="cls-6" x="1200" y="33.42" width="210" height="210"/><rect class="cls-7" x="1440" y="33.42" width="210" height="210"/><rect class="cls-8" x="1680" y="33.42" width="210" height="210"/><rect class="cls-9" x="1920" y="33.42" width="210" height="210"/><rect class="cls-10" x="2160" y="33.42" width="210" height="210"/><rect class="cls-3" x="480" y="33.42" width="210" height="210"/><text class="cls-11" transform="translate(0 16.39)">50</text><text class="cls-12" transform="translate(240 14.34)">100</text><text class="cls-11" transform="translate(480 16.39)">200</text><text class="cls-11" transform="translate(720 16.39)">300</text><text class="cls-11" transform="translate(960 16.39)">400</text><text class="cls-12" transform="translate(1200 14.34)">500</text><text class="cls-11" transform="translate(1440 16.39)">600</text><text class="cls-11" transform="translate(1680 16.39)">700</text><text class="cls-11" transform="translate(1920 16.39)">800</text><text class="cls-11" transform="translate(2160 16.39)">900</text></svg>