<svg xmlns="http://www.w3.org/2000/svg" viewBox="0 0 620 82"><defs><style>.a{fill:#58595b;}.b{fill:none;stroke:#e6e6e6;stroke-miterlimit:10;}</style></defs><title>typo-hierarchy</title><path class="a" d="M38.82,33.69l-1.42-3.63H32.82l-1.41,3.63H30.07l4.52-11.47H35.7l4.49,11.47ZM37,28.86l-1.33-3.54q-.26-.67-.53-1.65a14.65,14.65,0,0,1-.49,1.65l-1.34,3.54Z"/><path class="a" d="M45,33.84a3.66,3.66,0,0,1-2.88-1.14,4.71,4.71,0,0,1-1-3.24,4.85,4.85,0,0,1,1-3.32A3.73,3.73,0,0,1,45.07,25a5.83,5.83,0,0,1,1.23.13,4.07,4.07,0,0,1,1,.31l-.4,1.1a6.08,6.08,0,0,0-.94-.29,4.21,4.21,0,0,0-.9-.11q-2.61,0-2.61,3.33a4,4,0,0,0,.64,2.42,2.22,2.22,0,0,0,1.89.84,5.76,5.76,0,0,0,2.2-.46V33.4A4.68,4.68,0,0,1,45,33.84Z"/><path class="a" d="M51.95,32.77a4.2,4.2,0,0,0,.66-.05,4.42,4.42,0,0,0,.51-.11v1a2.37,2.37,0,0,1-.62.17,4.7,4.7,0,0,1-.74.07q-2.48,0-2.48-2.62V26.13H48.05v-.62L49.28,25l.55-1.83h.75v2h2.48v1H50.57v5a1.73,1.73,0,0,0,.37,1.19A1.28,1.28,0,0,0,51.95,32.77Z"/><path class="a" d="M54.72,22.8a.86.86,0,0,1,.22-.65.81.81,0,0,1,1.09,0,.84.84,0,0,1,.23.65.86.86,0,0,1-.23.65.76.76,0,0,1-.54.21.75.75,0,0,1-.55-.21A.88.88,0,0,1,54.72,22.8Zm1.41,10.88h-1.3V25.12h1.3Z"/><path class="a" d="M60.75,33.69,57.5,25.12h1.39l1.84,5.08a24,24,0,0,1,.73,2.31h.06a17.53,17.53,0,0,1,.54-1.71q.46-1.3,2.05-5.68h1.39l-3.25,8.56Z"/><path class="a" d="M70.51,33.84a3.93,3.93,0,0,1-3-1.16,4.48,4.48,0,0,1-1.1-3.21,5,5,0,0,1,1-3.29A3.39,3.39,0,0,1,70.18,25,3.23,3.23,0,0,1,72.72,26a4.06,4.06,0,0,1,.94,2.79v.82h-5.9a3.4,3.4,0,0,0,.76,2.29,2.64,2.64,0,0,0,2,.78,6.89,6.89,0,0,0,2.73-.58v1.16a6.82,6.82,0,0,1-1.3.43A7.31,7.31,0,0,1,70.51,33.84Zm-.35-7.79a2.12,2.12,0,0,0-1.64.67,3.1,3.1,0,0,0-.72,1.86h4.48a2.85,2.85,0,0,0-.55-1.88A1.93,1.93,0,0,0,70.16,26.05Z"/><path class="a" d="M75.68,26q0-1.05.92-1.05t1,1.05a1.1,1.1,0,0,1-.26.78,1,1,0,0,1-1.36,0A1.07,1.07,0,0,1,75.68,26Zm0,6.9a1.16,1.16,0,0,1,.24-.79.86.86,0,0,1,.68-.27.92.92,0,0,1,.71.27,1.12,1.12,0,0,1,.25.79,1.1,1.1,0,0,1-.26.78,1,1,0,0,1-1.36,0A1.07,1.07,0,0,1,75.68,32.86Z"/><path class="a" d="M84.48,22.26h3.23a6.09,6.09,0,0,1,3.29.68,2.4,2.4,0,0,1,1,2.15,2.48,2.48,0,0,1-.57,1.68,2.73,2.73,0,0,1-1.65.86v.08q2.6.45,2.6,2.73a2.94,2.94,0,0,1-1,2.39,4.41,4.41,0,0,1-2.89.86h-4Zm1.33,4.89H88a3.56,3.56,0,0,0,2-.44,1.7,1.7,0,0,0,.62-1.49,1.51,1.51,0,0,0-.69-1.39,4.29,4.29,0,0,0-2.19-.43h-2Zm0,1.13v4.27h2.38A3.4,3.4,0,0,0,90.27,32a2,2,0,0,0,.7-1.68,1.77,1.77,0,0,0-.71-1.56,3.82,3.82,0,0,0-2.18-.5Z"/><path class="a" d="M98.56,25a5.07,5.07,0,0,1,1,.09l-.18,1.2a4.42,4.42,0,0,0-.94-.12,2.28,2.28,0,0,0-1.78.84,3.08,3.08,0,0,0-.74,2.1v4.59h-1.3V25.12h1.07l.15,1.59h.06a3.75,3.75,0,0,1,1.15-1.29A2.59,2.59,0,0,1,98.56,25Z"/><path class="a" d="M104.8,33.84a3.93,3.93,0,0,1-3-1.16,4.48,4.48,0,0,1-1.1-3.21,5,5,0,0,1,1-3.29A3.39,3.39,0,0,1,104.47,25,3.23,3.23,0,0,1,107,26a4.06,4.06,0,0,1,.94,2.79v.82h-5.9a3.4,3.4,0,0,0,.76,2.29,2.64,2.64,0,0,0,2,.78,6.89,6.89,0,0,0,2.73-.58v1.16a6.82,6.82,0,0,1-1.3.43A7.31,7.31,0,0,1,104.8,33.84Zm-.35-7.79a2.12,2.12,0,0,0-1.64.67,3.1,3.1,0,0,0-.72,1.86h4.48a2.85,2.85,0,0,0-.55-1.88A1.93,1.93,0,0,0,104.45,26.05Z"/><path class="a" d="M115.43,33.69l-.26-1.22h-.06a3.6,3.6,0,0,1-1.28,1.09,3.89,3.89,0,0,1-1.59.29,2.86,2.86,0,0,1-2-.66,2.39,2.39,0,0,1-.72-1.87q0-2.59,4.15-2.72l1.45,0V28a2.17,2.17,0,0,0-.43-1.49,1.78,1.78,0,0,0-1.39-.48,5.65,5.65,0,0,0-2.42.66l-.4-1a6.23,6.23,0,0,1,2.9-.73,3.26,3.26,0,0,1,2.27.68,2.84,2.84,0,0,1,.74,2.18v5.84Zm-2.93-.91a2.63,2.63,0,0,0,1.9-.66,2.46,2.46,0,0,0,.69-1.86v-.77l-1.3.05a4.71,4.71,0,0,0-2.23.48,1.45,1.45,0,0,0-.68,1.32,1.34,1.34,0,0,0,.43,1.07A1.77,1.77,0,0,0,112.5,32.77Z"/><path class="a" d="M120.34,29.3a15.31,15.31,0,0,1,1-1.25l2.77-2.93h1.54l-3.47,3.65,3.71,4.91h-1.57l-3-4-1,.84v3.2h-1.28V21.53h1.28V28q0,.43-.06,1.33Z"/><path class="a" d="M131.07,33.84a3.93,3.93,0,0,1-3-1.16,4.48,4.48,0,0,1-1.1-3.21,5,5,0,0,1,1-3.29A3.39,3.39,0,0,1,130.74,25,3.23,3.23,0,0,1,133.29,26a4.06,4.06,0,0,1,.94,2.79v.82h-5.9a3.4,3.4,0,0,0,.76,2.29,2.64,2.64,0,0,0,2,.78,6.89,6.89,0,0,0,2.73-.58v1.16a6.82,6.82,0,0,1-1.3.43A7.31,7.31,0,0,1,131.07,33.84Zm-.35-7.79a2.12,2.12,0,0,0-1.64.67,3.1,3.1,0,0,0-.72,1.86h4.48a2.85,2.85,0,0,0-.55-1.88A1.93,1.93,0,0,0,130.72,26.05Z"/><path class="a" d="M140.34,25a5.07,5.07,0,0,1,1,.09l-.18,1.2a4.42,4.42,0,0,0-.94-.12,2.28,2.28,0,0,0-1.78.84,3.08,3.08,0,0,0-.74,2.1v4.59h-1.3V25.12h1.07l.15,1.59h.06a3.75,3.75,0,0,1,1.15-1.29A2.59,2.59,0,0,1,140.34,25Z"/><path class="a" d="M150.83,33.69H149.5V23.44h-3.62V22.26h8.56v1.18h-3.62Z"/><path class="a" d="M159.88,25a5.07,5.07,0,0,1,1,.09l-.18,1.2a4.42,4.42,0,0,0-.94-.12A2.28,2.28,0,0,0,158,27a3.08,3.08,0,0,0-.74,2.1v4.59H156V25.12H157l.15,1.59h.06a3.75,3.75,0,0,1,1.15-1.29A2.59,2.59,0,0,1,159.88,25Z"/><path class="a" d="M162.39,22.8a.86.86,0,0,1,.22-.65.81.81,0,0,1,1.09,0,.84.84,0,0,1,.23.65.86.86,0,0,1-.23.65.76.76,0,0,1-.54.21.75.75,0,0,1-.55-.21A.88.88,0,0,1,162.39,22.8Zm1.41,10.88h-1.3V25.12h1.3Z"/><path class="a" d="M170.54,33.84a3.7,3.7,0,0,1-1.53-.31,2.88,2.88,0,0,1-1.16-.95h-.09a11.48,11.48,0,0,1,.09,1.42v3.52h-1.3V25.12h1.05l.18,1.17h.06a3,3,0,0,1,1.16-1,3.54,3.54,0,0,1,1.52-.31,3.16,3.16,0,0,1,2.63,1.16,5.12,5.12,0,0,1,.93,3.27,5.09,5.09,0,0,1-.94,3.28A3.17,3.17,0,0,1,170.54,33.84Zm-.19-7.77a2.3,2.3,0,0,0-1.9.73,3.74,3.74,0,0,0-.6,2.31v.29a4.28,4.28,0,0,0,.6,2.58,2.29,2.29,0,0,0,1.93.78,2,2,0,0,0,1.74-.9,4.26,4.26,0,0,0,.63-2.48,4.1,4.1,0,0,0-.63-2.46A2.07,2.07,0,0,0,170.35,26.07Z"/><path class="a" d="M180.34,33.84a3.7,3.7,0,0,1-1.53-.31,2.88,2.88,0,0,1-1.16-.95h-.09a11.48,11.48,0,0,1,.09,1.42v3.52h-1.3V25.12h1.05l.18,1.17h.06a3,3,0,0,1,1.16-1,3.54,3.54,0,0,1,1.52-.31A3.16,3.16,0,0,1,183,26.13a5.12,5.12,0,0,1,.93,3.27,5.09,5.09,0,0,1-.94,3.28A3.17,3.17,0,0,1,180.34,33.84Zm-.19-7.77a2.3,2.3,0,0,0-1.9.73,3.74,3.74,0,0,0-.6,2.31v.29a4.28,4.28,0,0,0,.6,2.58,2.29,2.29,0,0,0,1.93.78,2,2,0,0,0,1.74-.9,4.26,4.26,0,0,0,.63-2.48,4.1,4.1,0,0,0-.63-2.46A2.07,2.07,0,0,0,180.15,26.07Z"/><path class="a" d="M189.78,33.84a3.93,3.93,0,0,1-3-1.16,4.48,4.48,0,0,1-1.1-3.21,5,5,0,0,1,1-3.29A3.39,3.39,0,0,1,189.44,25,3.23,3.23,0,0,1,192,26a4.06,4.06,0,0,1,.94,2.79v.82H187a3.4,3.4,0,0,0,.76,2.29,2.64,2.64,0,0,0,2,.78,6.89,6.89,0,0,0,2.73-.58v1.16a6.82,6.82,0,0,1-1.3.43A7.31,7.31,0,0,1,189.78,33.84Zm-.35-7.79a2.12,2.12,0,0,0-1.64.67,3.1,3.1,0,0,0-.72,1.86h4.48a2.85,2.85,0,0,0-.55-1.88A1.93,1.93,0,0,0,189.43,26.05Z"/><path class="a" d="M201,32.54h-.07a3,3,0,0,1-2.69,1.3,3.18,3.18,0,0,1-2.61-1.15,5.06,5.06,0,0,1-.93-3.27,5.14,5.14,0,0,1,.94-3.29A3.16,3.16,0,0,1,198.21,25a3.11,3.11,0,0,1,2.67,1.27h.1l-.05-.62,0-.6V21.53h1.3V33.69h-1.05Zm-2.59.22A2.36,2.36,0,0,0,200.3,32a3.65,3.65,0,0,0,.6-2.33v-.27a4.3,4.3,0,0,0-.61-2.6,2.3,2.3,0,0,0-1.93-.78,2,2,0,0,0-1.75.89,4.41,4.41,0,0,0-.61,2.5,4.23,4.23,0,0,0,.6,2.48A2,2,0,0,0,198.37,32.76Z"/><path class="a" d="M208.38,30V28.8h3.84V30Z"/><path class="a" d="M225.78,33.69l-1.42-3.63h-4.58l-1.41,3.63H217l4.52-11.47h1.12l4.49,11.47Zm-1.84-4.83-1.33-3.54q-.26-.67-.53-1.65a14.65,14.65,0,0,1-.49,1.65l-1.34,3.54Z"/><path class="a" d="M231.95,33.84a3.66,3.66,0,0,1-2.88-1.14,4.71,4.71,0,0,1-1-3.24,4.85,4.85,0,0,1,1-3.32A3.73,3.73,0,0,1,232,25a5.83,5.83,0,0,1,1.23.13,4.07,4.07,0,0,1,1,.31l-.4,1.1a6.08,6.08,0,0,0-.94-.29,4.21,4.21,0,0,0-.9-.11q-2.61,0-2.61,3.33a4,4,0,0,0,.64,2.42,2.22,2.22,0,0,0,1.89.84,5.76,5.76,0,0,0,2.2-.46V33.4A4.68,4.68,0,0,1,231.95,33.84Z"/><path class="a" d="M237.43,29.3a15.31,15.31,0,0,1,1-1.25l2.77-2.93h1.54l-3.47,3.65L243,33.69h-1.57l-3-4-1,.84v3.2h-1.28V21.53h1.28V28q0,.43-.06,1.33Z"/><path class="a" d="M250.4,33.69V28.15a2.24,2.24,0,0,0-.48-1.56,1.94,1.94,0,0,0-1.49-.52,2.46,2.46,0,0,0-2,.73,3.67,3.67,0,0,0-.62,2.4v4.49h-1.3V25.12h1.05l.21,1.17h.06a2.64,2.64,0,0,1,1.12-1,3.63,3.63,0,0,1,1.6-.35,3.25,3.25,0,0,1,2.33.75,3.18,3.18,0,0,1,.78,2.39v5.59Z"/><path class="a" d="M261.75,29.4a4.72,4.72,0,0,1-1.05,3.27,3.71,3.71,0,0,1-2.91,1.18,3.86,3.86,0,0,1-2-.54,3.56,3.56,0,0,1-1.37-1.55,5.39,5.39,0,0,1-.48-2.36,4.71,4.71,0,0,1,1-3.26A3.7,3.7,0,0,1,257.84,25a3.62,3.62,0,0,1,2.86,1.2A4.7,4.7,0,0,1,261.75,29.4Zm-6.52,0a4.06,4.06,0,0,0,.66,2.5,2.6,2.6,0,0,0,3.86,0,4,4,0,0,0,.66-2.5,4,4,0,0,0-.66-2.48,2.32,2.32,0,0,0-1.95-.85,2.28,2.28,0,0,0-1.92.84A4,4,0,0,0,255.23,29.4Z"/><path class="a" d="M271,33.69l-1.57-5q-.15-.46-.55-2.09h-.06q-.31,1.37-.55,2.11l-1.62,5h-1.5l-2.34-8.56h1.36L265.45,30a20,20,0,0,1,.5,2.27H266q.09-.45.28-1.15t.33-1.12l1.57-4.91h1.41L271.13,30a16.57,16.57,0,0,1,.59,2.26h.06a8.28,8.28,0,0,1,.17-.87q.14-.59,1.63-6.3h1.34l-2.37,8.56Z"/><path class="a" d="M277.77,33.69h-1.3V21.53h1.3Z"/><path class="a" d="M284.14,33.84a3.93,3.93,0,0,1-3-1.16,4.48,4.48,0,0,1-1.1-3.21,5,5,0,0,1,1-3.29A3.39,3.39,0,0,1,283.8,25,3.23,3.23,0,0,1,286.35,26a4.06,4.06,0,0,1,.94,2.79v.82h-5.9a3.4,3.4,0,0,0,.76,2.29,2.64,2.64,0,0,0,2,.78,6.89,6.89,0,0,0,2.73-.58v1.16a6.82,6.82,0,0,1-1.3.43A7.31,7.31,0,0,1,284.14,33.84Zm-.35-7.79a2.12,2.12,0,0,0-1.64.67,3.1,3.1,0,0,0-.72,1.86h4.48a2.85,2.85,0,0,0-.55-1.88A1.93,1.93,0,0,0,283.79,26.05Z"/><path class="a" d="M295.32,32.54h-.07a3,3,0,0,1-2.69,1.3A3.18,3.18,0,0,1,290,32.69a5.06,5.06,0,0,1-.93-3.27,5.14,5.14,0,0,1,.94-3.29A3.16,3.16,0,0,1,292.57,25a3.11,3.11,0,0,1,2.67,1.27h.1l-.05-.62,0-.6V21.53h1.3V33.69H295.5Zm-2.59.22a2.36,2.36,0,0,0,1.93-.72,3.65,3.65,0,0,0,.6-2.33v-.27a4.3,4.3,0,0,0-.61-2.6,2.3,2.3,0,0,0-1.93-.78,2,2,0,0,0-1.75.89,4.41,4.41,0,0,0-.61,2.5,4.23,4.23,0,0,0,.6,2.48A2,2,0,0,0,292.73,32.76Z"/><path class="a" d="M306.31,25.12v.82l-1.59.19a2.79,2.79,0,0,1,.56,1.71,2.53,2.53,0,0,1-.86,2,3.47,3.47,0,0,1-2.36.75,3.9,3.9,0,0,1-.72-.06,1.28,1.28,0,0,0-.83,1.1.56.56,0,0,0,.29.52,2.11,2.11,0,0,0,1,.17h1.52a3.39,3.39,0,0,1,2.14.59,2,2,0,0,1,.75,1.7,2.43,2.43,0,0,1-1.14,2.17,6.11,6.11,0,0,1-3.33.75,4.54,4.54,0,0,1-2.59-.62,2,2,0,0,1-.91-1.77,2,2,0,0,1,.5-1.35,2.55,2.55,0,0,1,1.41-.77,1.36,1.36,0,0,1-.55-.46,1.22,1.22,0,0,1-.22-.73,1.38,1.38,0,0,1,.25-.82,2.63,2.63,0,0,1,.79-.68,2.31,2.31,0,0,1-1.08-.93,2.73,2.73,0,0,1-.42-1.5,2.77,2.77,0,0,1,.84-2.17,3.44,3.44,0,0,1,2.39-.76,4.33,4.33,0,0,1,1.21.16Zm-6.83,10a1.16,1.16,0,0,0,.59,1.05,3.24,3.24,0,0,0,1.68.36,4.69,4.69,0,0,0,2.42-.49,1.49,1.49,0,0,0,.79-1.32,1,1,0,0,0-.43-1,3.34,3.34,0,0,0-1.62-.27h-1.55a2,2,0,0,0-1.37.42A1.51,1.51,0,0,0,299.48,35.12Zm.7-7.26a1.74,1.74,0,0,0,.51,1.36,2,2,0,0,0,1.41.46,1.65,1.65,0,0,0,1.9-1.84,1.7,1.7,0,0,0-1.92-1.93,1.9,1.9,0,0,0-1.41.49A2,2,0,0,0,300.18,27.87Z"/><path class="a" d="M311.68,33.84a3.93,3.93,0,0,1-3-1.16,4.48,4.48,0,0,1-1.1-3.21,5,5,0,0,1,1-3.29A3.39,3.39,0,0,1,311.35,25,3.23,3.23,0,0,1,313.89,26a4.06,4.06,0,0,1,.94,2.79v.82h-5.9a3.4,3.4,0,0,0,.76,2.29,2.64,2.64,0,0,0,2,.78,6.89,6.89,0,0,0,2.73-.58v1.16a6.82,6.82,0,0,1-1.3.43A7.31,7.31,0,0,1,311.68,33.84Zm-.35-7.79a2.12,2.12,0,0,0-1.64.67,3.1,3.1,0,0,0-.72,1.86h4.48a2.85,2.85,0,0,0-.55-1.88A1.93,1.93,0,0,0,311.33,26.05Z"/><path class="a" d="M322.87,32.54h-.07a3,3,0,0,1-2.69,1.3,3.18,3.18,0,0,1-2.61-1.15,5.06,5.06,0,0,1-.93-3.27,5.14,5.14,0,0,1,.94-3.29A3.16,3.16,0,0,1,320.11,25a3.11,3.11,0,0,1,2.67,1.27h.1l-.05-.62,0-.6V21.53h1.3V33.69H323Zm-2.59.22A2.36,2.36,0,0,0,322.2,32a3.65,3.65,0,0,0,.6-2.33v-.27a4.3,4.3,0,0,0-.61-2.6,2.3,2.3,0,0,0-1.93-.78,2,2,0,0,0-1.75.89,4.41,4.41,0,0,0-.61,2.5,4.23,4.23,0,0,0,.6,2.48A2,2,0,0,0,320.28,32.76Z"/><path class="a" d="M31.64,46.26h3.23a6.09,6.09,0,0,1,3.29.68,2.4,2.4,0,0,1,1,2.15,2.48,2.48,0,0,1-.57,1.68,2.73,2.73,0,0,1-1.65.86v.08q2.6.45,2.6,2.73a2.94,2.94,0,0,1-1,2.39,4.41,4.41,0,0,1-2.89.86h-4ZM33,51.16h2.19a3.56,3.56,0,0,0,2-.44,1.7,1.7,0,0,0,.62-1.49,1.51,1.51,0,0,0-.69-1.39,4.29,4.29,0,0,0-2.19-.43H33Zm0,1.13v4.27h2.38A3.4,3.4,0,0,0,37.43,56a2,2,0,0,0,.7-1.68,1.77,1.77,0,0,0-.71-1.56,3.82,3.82,0,0,0-2.18-.5Z"/><path class="a" d="M45.72,49a5.07,5.07,0,0,1,1,.09l-.18,1.2a4.42,4.42,0,0,0-.94-.12,2.28,2.28,0,0,0-1.78.84,3.08,3.08,0,0,0-.74,2.1v4.59h-1.3V49.12h1.07L43,50.71h.06a3.75,3.75,0,0,1,1.15-1.29A2.59,2.59,0,0,1,45.72,49Z"/><path class="a" d="M52,57.84a3.93,3.93,0,0,1-3-1.16,4.48,4.48,0,0,1-1.1-3.21,5,5,0,0,1,1-3.29A3.39,3.39,0,0,1,51.62,49,3.23,3.23,0,0,1,54.17,50a4.06,4.06,0,0,1,.94,2.79v.82h-5.9A3.4,3.4,0,0,0,50,55.93a2.64,2.64,0,0,0,2,.78,6.89,6.89,0,0,0,2.73-.58v1.16a6.82,6.82,0,0,1-1.3.43A7.31,7.31,0,0,1,52,57.84Zm-.35-7.79a2.12,2.12,0,0,0-1.64.67,3.1,3.1,0,0,0-.72,1.86h4.48a2.85,2.85,0,0,0-.55-1.88A1.93,1.93,0,0,0,51.61,50.05Z"/><path class="a" d="M62.58,57.69l-.26-1.22h-.06A3.6,3.6,0,0,1,61,57.56a3.89,3.89,0,0,1-1.59.29,2.86,2.86,0,0,1-2-.66,2.39,2.39,0,0,1-.72-1.87q0-2.59,4.15-2.72l1.45,0V52a2.17,2.17,0,0,0-.43-1.49,1.78,1.78,0,0,0-1.39-.48,5.65,5.65,0,0,0-2.42.66l-.4-1a6.23,6.23,0,0,1,2.9-.73,3.26,3.26,0,0,1,2.27.68,2.84,2.84,0,0,1,.74,2.18v5.84Zm-2.93-.91a2.63,2.63,0,0,0,1.9-.66,2.46,2.46,0,0,0,.69-1.86v-.77l-1.3.05a4.71,4.71,0,0,0-2.23.48A1.45,1.45,0,0,0,58,55.34a1.34,1.34,0,0,0,.43,1.07A1.77,1.77,0,0,0,59.65,56.77Z"/><path class="a" d="M67.5,53.3a15.31,15.31,0,0,1,1-1.25l2.77-2.93h1.54l-3.47,3.65,3.71,4.91H71.5l-3-4-1,.84v3.2H66.22V45.53H67.5V52q0,.43-.06,1.33Z"/><path class="a" d="M78.23,57.84a3.93,3.93,0,0,1-3-1.16,4.48,4.48,0,0,1-1.1-3.21,5,5,0,0,1,1-3.29A3.39,3.39,0,0,1,77.89,49,3.23,3.23,0,0,1,80.44,50a4.06,4.06,0,0,1,.94,2.79v.82h-5.9a3.4,3.4,0,0,0,.76,2.29,2.64,2.64,0,0,0,2,.78A6.89,6.89,0,0,0,81,56.13v1.16a6.82,6.82,0,0,1-1.3.43A7.31,7.31,0,0,1,78.23,57.84Zm-.35-7.79a2.12,2.12,0,0,0-1.64.67,3.1,3.1,0,0,0-.72,1.86H80a2.85,2.85,0,0,0-.55-1.88A1.93,1.93,0,0,0,77.88,50.05Z"/><path class="a" d="M87.5,49a5.07,5.07,0,0,1,1,.09l-.18,1.2a4.42,4.42,0,0,0-.94-.12,2.28,2.28,0,0,0-1.78.84,3.08,3.08,0,0,0-.74,2.1v4.59h-1.3V49.12h1.07l.15,1.59h.06A3.75,3.75,0,0,1,86,49.42,2.59,2.59,0,0,1,87.5,49Z"/><path class="a" d="M101.19,57.69H93.68V56.57l3-3a22.15,22.15,0,0,0,1.81-2,5,5,0,0,0,.66-1.16,3.32,3.32,0,0,0,.22-1.21,1.92,1.92,0,0,0-.55-1.45,2.13,2.13,0,0,0-1.54-.54,3.87,3.87,0,0,0-1.35.23,5.37,5.37,0,0,0-1.42.85l-.69-.88a5.27,5.27,0,0,1,3.44-1.31,3.63,3.63,0,0,1,2.52.82,2.84,2.84,0,0,1,.91,2.21,4.28,4.28,0,0,1-.61,2.15A13.65,13.65,0,0,1,97.82,54l-2.5,2.45v.06h5.88Z"/><path class="a" d="M110.8,57.69l-1.42-3.63H104.8l-1.41,3.63h-1.34l4.52-11.47h1.12l4.49,11.47ZM109,52.86l-1.33-3.54q-.26-.67-.53-1.65a14.65,14.65,0,0,1-.49,1.65l-1.34,3.54Z"/><path class="a" d="M117,54V52.8h3.84V54Z"/><path class="a" d="M136.32,51.87a5.77,5.77,0,0,1-1.54,4.32,6.08,6.08,0,0,1-4.42,1.5h-3.16V46.26h3.5a5.13,5.13,0,0,1,5.62,5.6Zm-1.41,0a4.6,4.6,0,0,0-1.12-3.37,4.49,4.49,0,0,0-3.33-1.13h-1.93v9.13h1.62a4.92,4.92,0,0,0,3.57-1.17A4.62,4.62,0,0,0,134.92,51.91Z"/><path class="a" d="M142.39,57.69h-1.33V47.44h-3.62V46.26H146v1.18h-3.62Z"/><path class="a" d="M151.74,57.69h-1.27V49.55q0-1,.06-1.92l-.37.34-1.86,1.52-.69-.89,3-2.34h1.09Z"/><path class="a" d="M160.89,57.69h-1.27V49.55q0-1,.06-1.92l-.37.34-1.86,1.52-.69-.89,3-2.34h1.09Z"/><path class="a" d="M168.8,50.71a4.2,4.2,0,0,1,2.84.89,3.07,3.07,0,0,1,1,2.45,3.54,3.54,0,0,1-1.13,2.78,4.51,4.51,0,0,1-3.11,1,5.73,5.73,0,0,1-2.95-.62V56a4.47,4.47,0,0,0,1.36.55,6.71,6.71,0,0,0,1.6.2,3.2,3.2,0,0,0,2.14-.65,2.33,2.33,0,0,0,.76-1.87q0-2.39-2.93-2.39a11.63,11.63,0,0,0-2,.23l-.67-.43.43-5.34h5.68v1.2H167.3L167,50.89A9.08,9.08,0,0,1,168.8,50.71Z"/><path class="a" d="M181.95,52a8.34,8.34,0,0,1-.93,4.42,3.45,3.45,0,0,1-5.66,0,8.18,8.18,0,0,1-1-4.39,8.34,8.34,0,0,1,.93-4.43,3.45,3.45,0,0,1,5.66.06A8.14,8.14,0,0,1,181.95,52Zm-6.24,0a8.37,8.37,0,0,0,.59,3.63,2.1,2.1,0,0,0,3.75,0,8.44,8.44,0,0,0,.58-3.61,8.38,8.38,0,0,0-.58-3.61,2.11,2.11,0,0,0-3.75,0A8.31,8.31,0,0,0,175.71,52Z"/><line class="b" y1="1" x2="620" y2="1"/><line class="b" y1="81" x2="620" y2="81"/></svg>