<svg xmlns="http://www.w3.org/2000/svg" viewBox="0 0 620 82"><defs><style>.a{fill:#ff1d25;}.b{fill:#58595b;}.c{fill:none;stroke:#e6e6e6;stroke-miterlimit:10;}.d{fill:#b3b3b3;}</style></defs><title>typo-hierarchy</title><path class="a" d="M38.5,33.69,37.67,31H33.5l-.83,2.72H30.07l4-11.47h3l4,11.47Zm-1.41-4.75q-1.15-3.7-1.29-4.18c-.1-.32-.17-.58-.21-.77q-.26,1-1.48,4.95Z"/><path class="a" d="M47.39,24.12a2.47,2.47,0,0,0-2.12,1A4.78,4.78,0,0,0,44.53,28q0,3.82,2.87,3.82a9.06,9.06,0,0,0,2.91-.6v2a8.09,8.09,0,0,1-3.14.59,4.79,4.79,0,0,1-3.81-1.51A6.4,6.4,0,0,1,42,28a7.08,7.08,0,0,1,.65-3.12,4.69,4.69,0,0,1,1.86-2.05,5.51,5.51,0,0,1,2.85-.71,7.69,7.69,0,0,1,3.34.8l-.78,2a13,13,0,0,0-1.29-.53A3.84,3.84,0,0,0,47.39,24.12Z"/><path class="a" d="M57.14,33.69H54.72V24.28h-3.1v-2h8.63v2h-3.1Z"/><path class="a" d="M62,33.69V22.27h2.42V33.69Z"/><path class="a" d="M73.82,22.27h2.45L72.38,33.69H69.74L65.86,22.27h2.45l2.15,6.8q.18.6.37,1.4t.24,1.11a20.13,20.13,0,0,1,.59-2.52Z"/><path class="a" d="M84.28,33.69H77.7V22.27h6.58v2H80.12v2.51H84v2H80.12v2.95h4.16Z"/><path class="a" d="M86.14,26.12a1.31,1.31,0,0,1,.35-1,1.43,1.43,0,0,1,1-.34,1.38,1.38,0,0,1,1,.34,1.31,1.31,0,0,1,.36,1,1.29,1.29,0,0,1-.36,1,1.38,1.38,0,0,1-1,.35,1.41,1.41,0,0,1-1-.34A1.3,1.3,0,0,1,86.14,26.12Zm0,6.45a1.31,1.31,0,0,1,.35-1,1.43,1.43,0,0,1,1-.34,1.38,1.38,0,0,1,1,.34,1.52,1.52,0,0,1,0,2,1.36,1.36,0,0,1-1,.36,1.4,1.4,0,0,1-1-.35A1.3,1.3,0,0,1,86.14,32.57Z"/><path class="b" d="M95.45,22.27h3.39a6.44,6.44,0,0,1,3.41.69,2.41,2.41,0,0,1,1.05,2.17,2.63,2.63,0,0,1-.52,1.66,2.31,2.31,0,0,1-1.48.84v.08a3,3,0,0,1,1.77.89,2.7,2.7,0,0,1,.57,1.81,2.93,2.93,0,0,1-1.07,2.41,4.62,4.62,0,0,1-3,.87H95.45ZM97.32,27h1.8a3.08,3.08,0,0,0,1.71-.37,1.42,1.42,0,0,0,.54-1.26,1.26,1.26,0,0,0-.58-1.16,3.64,3.64,0,0,0-1.85-.36H97.32Zm0,1.52v3.62h2a2.92,2.92,0,0,0,1.77-.45,1.66,1.66,0,0,0,.6-1.42,1.51,1.51,0,0,0-.61-1.32,3.23,3.23,0,0,0-1.85-.43Z"/><path class="b" d="M110.2,24.89a4.44,4.44,0,0,1,.91.08l-.18,1.71a3.47,3.47,0,0,0-.81-.09,2.35,2.35,0,0,0-1.79.72,2.6,2.6,0,0,0-.68,1.87v4.52h-1.84V25h1.44l.24,1.52h.09a3.42,3.42,0,0,1,1.12-1.23A2.67,2.67,0,0,1,110.2,24.89Z"/><path class="b" d="M116.49,33.84a4.18,4.18,0,0,1-3.15-1.18,4.46,4.46,0,0,1-1.14-3.24,4.9,4.9,0,0,1,1.05-3.33,3.64,3.64,0,0,1,2.9-1.21,3.56,3.56,0,0,1,2.7,1,4,4,0,0,1,1,2.86v1h-5.76a2.84,2.84,0,0,0,.68,1.93,2.37,2.37,0,0,0,1.8.68,6.64,6.64,0,0,0,1.43-.14,7.5,7.5,0,0,0,1.42-.48v1.49a5.65,5.65,0,0,1-1.36.45A8.3,8.3,0,0,1,116.49,33.84Zm-.34-7.56a1.84,1.84,0,0,0-1.4.55,2.64,2.64,0,0,0-.63,1.62H118a2.39,2.39,0,0,0-.52-1.62A1.76,1.76,0,0,0,116.15,26.28Z"/><path class="b" d="M127.34,33.69l-.37-1.2h-.06a3.54,3.54,0,0,1-1.26,1.07,4,4,0,0,1-1.62.29,2.75,2.75,0,0,1-2-.69,2.57,2.57,0,0,1-.71-1.95,2.28,2.28,0,0,1,1-2,5.72,5.72,0,0,1,3-.74l1.49,0v-.46a1.75,1.75,0,0,0-.39-1.24,1.58,1.58,0,0,0-1.2-.41,4.16,4.16,0,0,0-1.27.2,9.61,9.61,0,0,0-1.17.46l-.59-1.31a6.38,6.38,0,0,1,1.54-.56,7.06,7.06,0,0,1,1.58-.19,3.74,3.74,0,0,1,2.49.72,2.82,2.82,0,0,1,.84,2.26v5.82Zm-2.73-1.25a2.27,2.27,0,0,0,1.61-.56,2,2,0,0,0,.61-1.57v-.75l-1.11,0a3.8,3.8,0,0,0-1.89.43,1.32,1.32,0,0,0-.59,1.18,1.15,1.15,0,0,0,.34.89A1.48,1.48,0,0,0,124.61,32.44Z"/><path class="b" d="M133,29.13l1-1.3L136.64,25h2.12l-3.48,3.71,3.7,4.93h-2.16L134,29.9l-1,.83v3h-1.82V21.53H133v5.93l-.09,1.66Z"/><path class="b" d="M144.14,33.84A4.18,4.18,0,0,1,141,32.67a4.46,4.46,0,0,1-1.14-3.24,4.9,4.9,0,0,1,1.05-3.33,3.64,3.64,0,0,1,2.9-1.21,3.56,3.56,0,0,1,2.7,1,4,4,0,0,1,1,2.86v1h-5.76a2.84,2.84,0,0,0,.68,1.93,2.37,2.37,0,0,0,1.8.68,6.64,6.64,0,0,0,1.43-.14,7.5,7.5,0,0,0,1.42-.48v1.49a5.65,5.65,0,0,1-1.36.45A8.3,8.3,0,0,1,144.14,33.84Zm-.34-7.56a1.84,1.84,0,0,0-1.4.55,2.64,2.64,0,0,0-.63,1.62h3.92a2.39,2.39,0,0,0-.52-1.62A1.76,1.76,0,0,0,143.8,26.28Z"/><path class="b" d="M154,24.89a4.44,4.44,0,0,1,.91.08l-.18,1.71a3.47,3.47,0,0,0-.81-.09,2.35,2.35,0,0,0-1.79.72,2.6,2.6,0,0,0-.68,1.87v4.52h-1.84V25H151l.24,1.52h.09a3.42,3.42,0,0,1,1.12-1.23A2.67,2.67,0,0,1,154,24.89Z"/><path class="b" d="M164.78,33.69h-1.87V23.87h-3.36v-1.6h8.59v1.6h-3.36Z"/><path class="b" d="M174.07,24.89A4.44,4.44,0,0,1,175,25l-.18,1.71a3.47,3.47,0,0,0-.81-.09,2.35,2.35,0,0,0-1.79.72,2.6,2.6,0,0,0-.68,1.87v4.52h-1.84V25h1.44l.24,1.52h.09a3.42,3.42,0,0,1,1.12-1.23A2.67,2.67,0,0,1,174.07,24.89Z"/><path class="b" d="M176.48,22.76a1,1,0,0,1,.27-.76,1.05,1.05,0,0,1,.77-.27,1,1,0,0,1,.75.27,1,1,0,0,1,.27.76,1,1,0,0,1-.27.74,1,1,0,0,1-.75.27,1,1,0,0,1-.77-.27A1,1,0,0,1,176.48,22.76Zm1.95,10.93h-1.84V25h1.84Z"/><path class="b" d="M185.43,33.84a3,3,0,0,1-2.55-1.18h-.11q.11,1.09.11,1.33v3.54h-1.84V25h1.48q.06.24.26,1.16h.09a2.88,2.88,0,0,1,2.58-1.31A3,3,0,0,1,188,26.06a5.28,5.28,0,0,1,.9,3.29,5.29,5.29,0,0,1-.92,3.3A3,3,0,0,1,185.43,33.84ZM185,26.39a1.91,1.91,0,0,0-1.6.64,3.32,3.32,0,0,0-.5,2v.27a4,4,0,0,0,.5,2.29,1.86,1.86,0,0,0,1.63.71,1.66,1.66,0,0,0,1.47-.78,4,4,0,0,0,.52-2.23,3.9,3.9,0,0,0-.51-2.2A1.71,1.71,0,0,0,185,26.39Z"/><path class="b" d="M195.4,33.84a3,3,0,0,1-2.55-1.18h-.11q.11,1.09.11,1.33v3.54H191V25h1.48q.06.24.26,1.16h.09a2.88,2.88,0,0,1,2.58-1.31A3,3,0,0,1,198,26.06a5.28,5.28,0,0,1,.9,3.29,5.29,5.29,0,0,1-.92,3.3A3,3,0,0,1,195.4,33.84ZM195,26.39a1.91,1.91,0,0,0-1.6.64,3.32,3.32,0,0,0-.5,2v.27a4,4,0,0,0,.5,2.29,1.86,1.86,0,0,0,1.63.71,1.66,1.66,0,0,0,1.47-.78,4,4,0,0,0,.52-2.23,3.9,3.9,0,0,0-.51-2.2A1.71,1.71,0,0,0,195,26.39Z"/><path class="b" d="M204.76,33.84a4.18,4.18,0,0,1-3.15-1.18,4.46,4.46,0,0,1-1.14-3.24,4.9,4.9,0,0,1,1.05-3.33,3.64,3.64,0,0,1,2.9-1.21,3.56,3.56,0,0,1,2.7,1,4,4,0,0,1,1,2.86v1h-5.76a2.84,2.84,0,0,0,.68,1.93,2.37,2.37,0,0,0,1.8.68,6.64,6.64,0,0,0,1.43-.14,7.5,7.5,0,0,0,1.42-.48v1.49a5.65,5.65,0,0,1-1.36.45A8.3,8.3,0,0,1,204.76,33.84Zm-.34-7.56a1.84,1.84,0,0,0-1.4.55,2.64,2.64,0,0,0-.63,1.62h3.92a2.39,2.39,0,0,0-.52-1.62A1.76,1.76,0,0,0,204.43,26.28Z"/><path class="b" d="M213.12,33.84a3,3,0,0,1-2.52-1.17,5.27,5.27,0,0,1-.91-3.29,5.28,5.28,0,0,1,.92-3.31,3,3,0,0,1,2.54-1.18,3,3,0,0,1,2.59,1.26h.09a11,11,0,0,1-.13-1.47V21.53h1.84V33.69h-1.44l-.32-1.13h-.09A2.94,2.94,0,0,1,213.12,33.84Zm.49-1.48a2,2,0,0,0,1.65-.64,3.35,3.35,0,0,0,.53-2.07V29.4a3.87,3.87,0,0,0-.53-2.32,2,2,0,0,0-1.66-.69,1.69,1.69,0,0,0-1.49.79,4,4,0,0,0-.52,2.24,3.92,3.92,0,0,0,.51,2.19A1.71,1.71,0,0,0,213.61,32.36Z"/><path class="b" d="M31.64,46.27h3.23a6.09,6.09,0,0,1,3.29.68,2.4,2.4,0,0,1,1,2.15,2.48,2.48,0,0,1-.57,1.68,2.73,2.73,0,0,1-1.65.86v.08q2.6.45,2.6,2.73a2.94,2.94,0,0,1-1,2.39,4.41,4.41,0,0,1-2.89.86h-4ZM33,51.16h2.19a3.56,3.56,0,0,0,2-.44,1.7,1.7,0,0,0,.62-1.49,1.51,1.51,0,0,0-.69-1.39,4.29,4.29,0,0,0-2.19-.43H33Zm0,1.13v4.27h2.38A3.4,3.4,0,0,0,37.43,56a2,2,0,0,0,.7-1.68,1.77,1.77,0,0,0-.71-1.56,3.82,3.82,0,0,0-2.18-.5Z"/><path class="b" d="M45.72,49a5.07,5.07,0,0,1,1,.09l-.18,1.2a4.42,4.42,0,0,0-.94-.12,2.28,2.28,0,0,0-1.78.84,3.08,3.08,0,0,0-.74,2.1v4.59h-1.3V49.13h1.07L43,50.71h.06a3.75,3.75,0,0,1,1.15-1.29A2.59,2.59,0,0,1,45.72,49Z"/><path class="b" d="M52,57.84a3.93,3.93,0,0,1-3-1.16,4.48,4.48,0,0,1-1.1-3.21,5,5,0,0,1,1-3.29A3.39,3.39,0,0,1,51.62,49,3.23,3.23,0,0,1,54.17,50a4.06,4.06,0,0,1,.94,2.79v.82h-5.9A3.4,3.4,0,0,0,50,55.93a2.64,2.64,0,0,0,2,.78,6.89,6.89,0,0,0,2.73-.58v1.16a6.82,6.82,0,0,1-1.3.43A7.31,7.31,0,0,1,52,57.84Zm-.35-7.79a2.12,2.12,0,0,0-1.64.67,3.1,3.1,0,0,0-.72,1.86h4.48a2.85,2.85,0,0,0-.55-1.88A1.93,1.93,0,0,0,51.61,50.05Z"/><path class="b" d="M62.58,57.69l-.26-1.22h-.06A3.6,3.6,0,0,1,61,57.56a3.89,3.89,0,0,1-1.59.29,2.86,2.86,0,0,1-2-.66,2.39,2.39,0,0,1-.72-1.87q0-2.59,4.15-2.72l1.45,0V52a2.17,2.17,0,0,0-.43-1.49,1.78,1.78,0,0,0-1.39-.48,5.65,5.65,0,0,0-2.42.66l-.4-1a6.23,6.23,0,0,1,2.9-.73,3.26,3.26,0,0,1,2.27.68,2.84,2.84,0,0,1,.74,2.18v5.84Zm-2.93-.91a2.63,2.63,0,0,0,1.9-.66,2.46,2.46,0,0,0,.69-1.86v-.77l-1.3.05a4.71,4.71,0,0,0-2.23.48A1.45,1.45,0,0,0,58,55.34a1.34,1.34,0,0,0,.43,1.07A1.77,1.77,0,0,0,59.65,56.77Z"/><path class="b" d="M67.5,53.3a15.31,15.31,0,0,1,1-1.25l2.77-2.93h1.54l-3.47,3.65,3.71,4.91H71.5l-3-4-1,.84v3.2H66.22V45.53H67.5V52q0,.43-.06,1.33Z"/><path class="b" d="M78.23,57.84a3.93,3.93,0,0,1-3-1.16,4.48,4.48,0,0,1-1.1-3.21,5,5,0,0,1,1-3.29A3.39,3.39,0,0,1,77.89,49,3.23,3.23,0,0,1,80.44,50a4.06,4.06,0,0,1,.94,2.79v.82h-5.9a3.4,3.4,0,0,0,.76,2.29,2.64,2.64,0,0,0,2,.78A6.89,6.89,0,0,0,81,56.13v1.16a6.82,6.82,0,0,1-1.3.43A7.31,7.31,0,0,1,78.23,57.84Zm-.35-7.79a2.12,2.12,0,0,0-1.64.67,3.1,3.1,0,0,0-.72,1.86H80a2.85,2.85,0,0,0-.55-1.88A1.93,1.93,0,0,0,77.88,50.05Z"/><path class="b" d="M87.5,49a5.07,5.07,0,0,1,1,.09l-.18,1.2a4.42,4.42,0,0,0-.94-.12,2.28,2.28,0,0,0-1.78.84,3.08,3.08,0,0,0-.74,2.1v4.59h-1.3V49.13h1.07l.15,1.59h.06A3.75,3.75,0,0,1,86,49.42,2.59,2.59,0,0,1,87.5,49Z"/><path class="b" d="M101.19,57.69H93.68V56.57l3-3a22.15,22.15,0,0,0,1.81-2,5,5,0,0,0,.66-1.16,3.32,3.32,0,0,0,.22-1.21,1.92,1.92,0,0,0-.55-1.45,2.13,2.13,0,0,0-1.54-.54,3.87,3.87,0,0,0-1.35.23,5.37,5.37,0,0,0-1.42.85l-.69-.88a5.27,5.27,0,0,1,3.44-1.31,3.63,3.63,0,0,1,2.52.82,2.84,2.84,0,0,1,.91,2.21,4.28,4.28,0,0,1-.61,2.15A13.65,13.65,0,0,1,97.82,54l-2.5,2.45v.06h5.88Z"/><path class="b" d="M110.8,57.69l-1.42-3.63H104.8l-1.41,3.63h-1.34l4.52-11.47h1.12l4.49,11.47ZM109,52.86l-1.33-3.54q-.26-.67-.53-1.65a14.65,14.65,0,0,1-.49,1.65l-1.34,3.54Z"/><path class="b" d="M117,54V52.8h3.84V54Z"/><path class="b" d="M136.32,51.87a5.77,5.77,0,0,1-1.54,4.32,6.08,6.08,0,0,1-4.42,1.5h-3.16V46.27h3.5a5.13,5.13,0,0,1,5.62,5.6Zm-1.41,0a4.6,4.6,0,0,0-1.12-3.37,4.49,4.49,0,0,0-3.33-1.13h-1.93v9.13h1.62a4.92,4.92,0,0,0,3.57-1.17A4.62,4.62,0,0,0,134.92,51.91Z"/><path class="b" d="M142.39,57.69h-1.33V47.45h-3.62V46.27H146v1.18h-3.62Z"/><path class="b" d="M151.74,57.69h-1.27V49.55q0-1,.06-1.92l-.37.34-1.86,1.52-.69-.89,3-2.34h1.09Z"/><path class="b" d="M160.89,57.69h-1.27V49.55q0-1,.06-1.92l-.37.34-1.86,1.52-.69-.89,3-2.34h1.09Z"/><path class="b" d="M168.8,50.71a4.2,4.2,0,0,1,2.84.89,3.07,3.07,0,0,1,1,2.45,3.54,3.54,0,0,1-1.13,2.78,4.51,4.51,0,0,1-3.11,1,5.73,5.73,0,0,1-2.95-.62V56a4.47,4.47,0,0,0,1.36.55,6.71,6.71,0,0,0,1.6.2,3.2,3.2,0,0,0,2.14-.65,2.33,2.33,0,0,0,.76-1.87q0-2.39-2.93-2.39a11.63,11.63,0,0,0-2,.23l-.67-.43.43-5.34h5.68v1.2H167.3L167,50.89A9.08,9.08,0,0,1,168.8,50.71Z"/><path class="b" d="M181.95,52a8.34,8.34,0,0,1-.93,4.42,3.45,3.45,0,0,1-5.66,0,8.18,8.18,0,0,1-1-4.39,8.34,8.34,0,0,1,.93-4.43,3.45,3.45,0,0,1,5.66.06A8.14,8.14,0,0,1,181.95,52Zm-6.24,0a8.37,8.37,0,0,0,.59,3.63,2.1,2.1,0,0,0,3.75,0,8.44,8.44,0,0,0,.58-3.61,8.38,8.38,0,0,0-.58-3.61,2.11,2.11,0,0,0-3.75,0A8.31,8.31,0,0,0,175.71,52Z"/><line class="c" y1="1" x2="620" y2="1"/><line class="c" y1="81" x2="620" y2="81"/><path class="d" d="M413.59,45.6l-.72-2.38h-3.64l-.72,2.38h-2.28l3.53-10h2.59l3.54,10Zm-1.23-4.16q-1-3.23-1.13-3.66t-.18-.67q-.23.87-1.29,4.33Z"/><path class="d" d="M421.38,37.22a2.16,2.16,0,0,0-1.85.9,4.18,4.18,0,0,0-.66,2.5q0,3.34,2.51,3.34a7.94,7.94,0,0,0,2.55-.53v1.78a7.08,7.08,0,0,1-2.75.51,4.19,4.19,0,0,1-3.34-1.32,5.61,5.61,0,0,1-1.16-3.8,6.2,6.2,0,0,1,.57-2.73,4.1,4.1,0,0,1,1.63-1.8,4.81,4.81,0,0,1,2.49-.63,6.72,6.72,0,0,1,2.93.7l-.68,1.72a11.21,11.21,0,0,0-1.13-.46A3.37,3.37,0,0,0,421.38,37.22Z"/><path class="d" d="M434.09,45.6h-2.41l-2.62-4.21-.9.64V45.6h-2.12v-10h2.12v4.57L429,39l2.71-3.4h2.35L430.58,40Z"/><path class="d" d="M444.22,45.6h-2.69L437.18,38h-.06q.13,2,.13,2.86v4.7h-1.89v-10H438l4.34,7.49h0q-.1-1.95-.1-2.75V35.6h1.91Z"/><path class="d" d="M455.8,40.59a5.42,5.42,0,0,1-1.23,3.81,5.33,5.33,0,0,1-7.05,0,5.44,5.44,0,0,1-1.23-3.83,5.37,5.37,0,0,1,1.23-3.81,4.62,4.62,0,0,1,3.54-1.32,4.55,4.55,0,0,1,3.52,1.33A5.44,5.44,0,0,1,455.8,40.59Zm-7.29,0a4.18,4.18,0,0,0,.64,2.52A2.22,2.22,0,0,0,451,44q2.54,0,2.54-3.37t-2.52-3.38a2.24,2.24,0,0,0-1.91.85A4.16,4.16,0,0,0,448.51,40.59Z"/><path class="d" d="M467.61,45.6H465.2l-1.35-5.25q-.08-.28-.26-1.16T463.38,38q0,.37-.21,1.19t-.25,1.17l-1.35,5.24h-2.41l-2.55-10h2.08L460,41.06q.33,1.51.49,2.62,0-.39.19-1.21t.28-1.27l1.46-5.6h2l1.46,5.6q.1.38.24,1.15t.22,1.33q.07-.53.22-1.33t.27-1.29l1.27-5.46h2.08Z"/><path class="d" d="M471.41,45.6v-10h2.12v8.24h4.05V45.6Z"/><path class="d" d="M485.07,45.6h-5.76v-10h5.76v1.74h-3.64v2.19h3.38v1.74h-3.38v2.58h3.64Z"/><path class="d" d="M495.45,40.51a4.92,4.92,0,0,1-1.4,3.78A5.73,5.73,0,0,1,490,45.6h-2.83v-10h3.14a5.28,5.28,0,0,1,3.8,1.29A4.75,4.75,0,0,1,495.45,40.51Zm-2.2.05q0-3.22-2.84-3.22h-1.13v6.51h.91Q493.25,43.85,493.25,40.56Z"/><path class="d" d="M501.32,40h4v5.18a11.11,11.11,0,0,1-1.81.44,11.73,11.73,0,0,1-1.74.13,4.4,4.4,0,0,1-3.46-1.33,5.53,5.53,0,0,1-1.19-3.82,5,5,0,0,1,1.38-3.77,5.26,5.26,0,0,1,3.84-1.35,7.43,7.43,0,0,1,3,.62l-.7,1.7a5,5,0,0,0-2.28-.55,2.81,2.81,0,0,0-2.2.92,3.58,3.58,0,0,0-.83,2.48,4,4,0,0,0,.67,2.49,2.31,2.31,0,0,0,1.94.86,6.88,6.88,0,0,0,1.35-.14V41.75h-1.89Z"/><path class="d" d="M513.42,45.6h-5.76v-10h5.76v1.74h-3.64v2.19h3.38v1.74h-3.38v2.58h3.64Z"/><path class="d" d="M523.79,40.51a4.92,4.92,0,0,1-1.4,3.78,5.73,5.73,0,0,1-4.06,1.31H515.5v-10h3.14a5.28,5.28,0,0,1,3.8,1.29A4.75,4.75,0,0,1,523.79,40.51Zm-2.2.05q0-3.22-2.84-3.22h-1.13v6.51h.91Q521.59,43.85,521.59,40.56Z"/></svg>