<svg xmlns="http://www.w3.org/2000/svg" viewBox="0 0 620 82"><defs><style>.a{fill:#58595b;}.b{fill:none;stroke:#e6e6e6;stroke-miterlimit:10;}</style></defs><title>typo-hierarchy</title><path class="a" d="M38.5,33.69,37.67,31H33.5l-.83,2.72H30.07l4-11.47h3l4,11.47Zm-1.41-4.75q-1.15-3.7-1.29-4.18c-.1-.32-.17-.58-.21-.77q-.26,1-1.48,4.95Z"/><path class="a" d="M45.9,33.84q-4.08,0-4.08-4.48A4.78,4.78,0,0,1,42.93,26a4.16,4.16,0,0,1,3.18-1.18,6.06,6.06,0,0,1,2.72.59l-.7,1.84q-.56-.23-1-.37a3.36,3.36,0,0,0-1-.14q-1.86,0-1.86,2.64t1.86,2.56a4.25,4.25,0,0,0,1.27-.18,4.58,4.58,0,0,0,1.17-.57v2a3.83,3.83,0,0,1-1.17.51A6.57,6.57,0,0,1,45.9,33.84Z"/><path class="a" d="M54.26,31.94a5.15,5.15,0,0,0,1.5-.27v1.77a5.35,5.35,0,0,1-2.19.4,2.68,2.68,0,0,1-2.08-.72A3.15,3.15,0,0,1,50.84,31V26.74H49.7v-1l1.31-.8.69-1.84h1.52V25h2.45v1.79H53.22V31a.93.93,0,0,0,.29.75A1.13,1.13,0,0,0,54.26,31.94Z"/><path class="a" d="M57.43,22.69q0-1.16,1.3-1.16T60,22.69a1.14,1.14,0,0,1-.32.86,1.36,1.36,0,0,1-1,.31Q57.43,23.87,57.43,22.69Zm2.48,11H57.53V25h2.38Z"/><path class="a" d="M64.49,33.69,61.16,25h2.49l1.69,5a8.88,8.88,0,0,1,.35,1.79h0a7.81,7.81,0,0,1,.35-1.79l1.68-5h2.49l-3.33,8.73Z"/><path class="a" d="M75.47,33.84a4.51,4.51,0,0,1-3.3-1.16A4.41,4.41,0,0,1,71,29.38,4.85,4.85,0,0,1,72.08,26a3.91,3.91,0,0,1,3-1.2A3.85,3.85,0,0,1,78,25.84a4,4,0,0,1,1,2.91v1.16H73.39A2.3,2.3,0,0,0,74,31.5a2.12,2.12,0,0,0,1.58.57,6.55,6.55,0,0,0,1.49-.16,7.49,7.49,0,0,0,1.47-.52v1.84a5.62,5.62,0,0,1-1.34.46A8.42,8.42,0,0,1,75.47,33.84Zm-.34-7.36a1.51,1.51,0,0,0-1.19.48,2.23,2.23,0,0,0-.49,1.36h3.34A2,2,0,0,0,76.33,27,1.56,1.56,0,0,0,75.13,26.48Z"/><path class="a" d="M80.63,26.12a1.31,1.31,0,0,1,.35-1,1.43,1.43,0,0,1,1-.34,1.38,1.38,0,0,1,1,.34,1.31,1.31,0,0,1,.36,1,1.29,1.29,0,0,1-.36,1,1.38,1.38,0,0,1-1,.35,1.41,1.41,0,0,1-1-.34A1.3,1.3,0,0,1,80.63,26.12Zm0,6.45a1.31,1.31,0,0,1,.35-1,1.43,1.43,0,0,1,1-.34,1.38,1.38,0,0,1,1,.34,1.52,1.52,0,0,1,0,2,1.36,1.36,0,0,1-1,.36,1.4,1.4,0,0,1-1-.35A1.3,1.3,0,0,1,80.63,32.57Z"/><path class="a" d="M89.94,22.26h3.39a6.44,6.44,0,0,1,3.41.69,2.41,2.41,0,0,1,1.05,2.17,2.63,2.63,0,0,1-.52,1.66,2.31,2.31,0,0,1-1.48.84v.08a3,3,0,0,1,1.77.89,2.7,2.7,0,0,1,.57,1.81,2.93,2.93,0,0,1-1.07,2.41,4.62,4.62,0,0,1-3,.87H89.94ZM91.81,27h1.8a3.08,3.08,0,0,0,1.71-.37,1.42,1.42,0,0,0,.54-1.26,1.26,1.26,0,0,0-.58-1.16,3.64,3.64,0,0,0-1.85-.36H91.81Zm0,1.52v3.62h2a2.92,2.92,0,0,0,1.77-.45,1.66,1.66,0,0,0,.6-1.42,1.51,1.51,0,0,0-.61-1.32,3.23,3.23,0,0,0-1.85-.43Z"/><path class="a" d="M104.69,24.89a4.44,4.44,0,0,1,.91.08l-.18,1.71a3.47,3.47,0,0,0-.81-.09,2.35,2.35,0,0,0-1.79.72,2.6,2.6,0,0,0-.68,1.87v4.52h-1.84V25h1.44l.24,1.52h.09a3.42,3.42,0,0,1,1.12-1.23A2.67,2.67,0,0,1,104.69,24.89Z"/><path class="a" d="M111,33.84a4.18,4.18,0,0,1-3.15-1.18,4.46,4.46,0,0,1-1.14-3.24,4.9,4.9,0,0,1,1.05-3.33,3.64,3.64,0,0,1,2.9-1.21,3.56,3.56,0,0,1,2.7,1,4,4,0,0,1,1,2.86v1h-5.76a2.84,2.84,0,0,0,.68,1.93,2.37,2.37,0,0,0,1.8.68,6.64,6.64,0,0,0,1.43-.14,7.5,7.5,0,0,0,1.42-.48v1.49a5.65,5.65,0,0,1-1.36.45A8.3,8.3,0,0,1,111,33.84Zm-.34-7.56a1.84,1.84,0,0,0-1.4.55,2.64,2.64,0,0,0-.63,1.62h3.92a2.39,2.39,0,0,0-.52-1.62A1.76,1.76,0,0,0,110.64,26.28Z"/><path class="a" d="M121.83,33.69l-.37-1.2h-.06a3.54,3.54,0,0,1-1.26,1.07,4,4,0,0,1-1.62.29,2.75,2.75,0,0,1-2-.69,2.57,2.57,0,0,1-.71-1.95,2.28,2.28,0,0,1,1-2,5.72,5.72,0,0,1,3-.74l1.49,0v-.46a1.75,1.75,0,0,0-.39-1.24,1.58,1.58,0,0,0-1.2-.41,4.16,4.16,0,0,0-1.27.2,9.61,9.61,0,0,0-1.17.46l-.59-1.31a6.38,6.38,0,0,1,1.54-.56,7.06,7.06,0,0,1,1.58-.19,3.74,3.74,0,0,1,2.49.72,2.82,2.82,0,0,1,.84,2.26v5.82Zm-2.73-1.25a2.27,2.27,0,0,0,1.61-.56,2,2,0,0,0,.61-1.57v-.75l-1.11,0a3.8,3.8,0,0,0-1.89.43,1.32,1.32,0,0,0-.59,1.18,1.15,1.15,0,0,0,.34.89A1.48,1.48,0,0,0,119.1,32.44Z"/><path class="a" d="M127.48,29.12l1-1.3L131.13,25h2.12l-3.48,3.71,3.7,4.93h-2.16l-2.77-3.79-1,.83v3h-1.82V21.53h1.82v5.93l-.09,1.66Z"/><path class="a" d="M138.63,33.84a4.18,4.18,0,0,1-3.15-1.18,4.46,4.46,0,0,1-1.14-3.24,4.9,4.9,0,0,1,1.05-3.33,3.64,3.64,0,0,1,2.9-1.21,3.56,3.56,0,0,1,2.7,1,4,4,0,0,1,1,2.86v1h-5.76a2.84,2.84,0,0,0,.68,1.93,2.37,2.37,0,0,0,1.8.68,6.64,6.64,0,0,0,1.43-.14,7.5,7.5,0,0,0,1.42-.48v1.49a5.65,5.65,0,0,1-1.36.45A8.3,8.3,0,0,1,138.63,33.84Zm-.34-7.56a1.84,1.84,0,0,0-1.4.55,2.64,2.64,0,0,0-.63,1.62h3.92a2.39,2.39,0,0,0-.52-1.62A1.76,1.76,0,0,0,138.29,26.28Z"/><path class="a" d="M148.46,24.89a4.44,4.44,0,0,1,.91.08l-.18,1.71a3.47,3.47,0,0,0-.81-.09,2.35,2.35,0,0,0-1.79.72,2.6,2.6,0,0,0-.68,1.87v4.52h-1.84V25h1.44l.24,1.52h.09A3.42,3.42,0,0,1,147,25.34,2.67,2.67,0,0,1,148.46,24.89Z"/><path class="a" d="M159.27,33.69H157.4V23.87H154v-1.6h8.59v1.6h-3.36Z"/><path class="a" d="M168.57,24.89a4.44,4.44,0,0,1,.91.08l-.18,1.71a3.47,3.47,0,0,0-.81-.09,2.35,2.35,0,0,0-1.79.72,2.6,2.6,0,0,0-.68,1.87v4.52h-1.84V25h1.44l.24,1.52H166a3.42,3.42,0,0,1,1.12-1.23A2.67,2.67,0,0,1,168.57,24.89Z"/><path class="a" d="M171,22.76a1,1,0,0,1,.27-.76,1.05,1.05,0,0,1,.77-.27,1,1,0,0,1,.75.27,1,1,0,0,1,.27.76,1,1,0,0,1-.27.74,1,1,0,0,1-.75.27,1,1,0,0,1-.77-.27A1,1,0,0,1,171,22.76Zm1.95,10.93h-1.84V25h1.84Z"/><path class="a" d="M179.93,33.84a3,3,0,0,1-2.55-1.18h-.11q.11,1.09.11,1.33v3.54h-1.84V25H177q.06.24.26,1.16h.09A2.88,2.88,0,0,1,180,24.89a3,3,0,0,1,2.52,1.17,5.28,5.28,0,0,1,.9,3.29,5.29,5.29,0,0,1-.92,3.3A3,3,0,0,1,179.93,33.84Zm-.45-7.45a1.91,1.91,0,0,0-1.6.64,3.32,3.32,0,0,0-.5,2v.27a4,4,0,0,0,.5,2.29,1.86,1.86,0,0,0,1.63.71,1.66,1.66,0,0,0,1.47-.78,4,4,0,0,0,.52-2.23,3.9,3.9,0,0,0-.51-2.2A1.71,1.71,0,0,0,179.48,26.39Z"/><path class="a" d="M189.89,33.84a3,3,0,0,1-2.55-1.18h-.11q.11,1.09.11,1.33v3.54h-1.84V25H187q.06.24.26,1.16h.09a2.88,2.88,0,0,1,2.58-1.31,3,3,0,0,1,2.52,1.17,5.28,5.28,0,0,1,.9,3.29,5.29,5.29,0,0,1-.92,3.3A3,3,0,0,1,189.89,33.84Zm-.45-7.45a1.91,1.91,0,0,0-1.6.64,3.32,3.32,0,0,0-.5,2v.27a4,4,0,0,0,.5,2.29,1.86,1.86,0,0,0,1.63.71,1.66,1.66,0,0,0,1.47-.78,4,4,0,0,0,.52-2.23,3.9,3.9,0,0,0-.51-2.2A1.71,1.71,0,0,0,189.45,26.39Z"/><path class="a" d="M199.25,33.84a4.18,4.18,0,0,1-3.15-1.18A4.46,4.46,0,0,1,195,29.43,4.9,4.9,0,0,1,196,26.1a3.64,3.64,0,0,1,2.9-1.21,3.56,3.56,0,0,1,2.7,1,4,4,0,0,1,1,2.86v1h-5.76a2.84,2.84,0,0,0,.68,1.93,2.37,2.37,0,0,0,1.8.68,6.64,6.64,0,0,0,1.43-.14,7.5,7.5,0,0,0,1.42-.48v1.49a5.65,5.65,0,0,1-1.36.45A8.3,8.3,0,0,1,199.25,33.84Zm-.34-7.56a1.84,1.84,0,0,0-1.4.55,2.64,2.64,0,0,0-.63,1.62h3.92a2.39,2.39,0,0,0-.52-1.62A1.76,1.76,0,0,0,198.92,26.28Z"/><path class="a" d="M207.61,33.84a3,3,0,0,1-2.52-1.17,5.27,5.27,0,0,1-.91-3.29,5.28,5.28,0,0,1,.92-3.31,3,3,0,0,1,2.54-1.18,3,3,0,0,1,2.59,1.26h.09a11,11,0,0,1-.13-1.47V21.53H212V33.69h-1.44l-.32-1.13h-.09A2.94,2.94,0,0,1,207.61,33.84Zm.49-1.48a2,2,0,0,0,1.65-.64,3.35,3.35,0,0,0,.53-2.07V29.4a3.87,3.87,0,0,0-.53-2.32,2,2,0,0,0-1.66-.69,1.69,1.69,0,0,0-1.49.79,4,4,0,0,0-.52,2.24,3.92,3.92,0,0,0,.51,2.19A1.71,1.71,0,0,0,208.11,32.36Z"/><path class="a" d="M218.07,30.18V28.62h4v1.56Z"/><path class="a" d="M234.19,33.69l-.72-2.38h-3.64l-.72,2.38h-2.28l3.53-10h2.59l3.54,10ZM233,29.53l-1.13-3.66q-.13-.42-.18-.67-.23.87-1.29,4.33Z"/><path class="a" d="M240.67,33.82q-3.57,0-3.57-3.92a4.18,4.18,0,0,1,1-3,3.64,3.64,0,0,1,2.78-1,5.3,5.3,0,0,1,2.38.52L242.62,28q-.49-.2-.92-.33a3,3,0,0,0-.85-.13q-1.63,0-1.63,2.31t1.63,2.24A3.7,3.7,0,0,0,242,32a4,4,0,0,0,1-.5v1.78a3.37,3.37,0,0,1-1,.44A5.75,5.75,0,0,1,240.67,33.82Z"/><path class="a" d="M246.77,29.53l.91-1.16L249.82,26h2.35l-3,3.32,3.22,4.33h-2.41l-2.2-3.1-.9.72v2.38h-2.08V23h2.08v4.74l-.11,1.74Z"/><path class="a" d="M260.5,33.69h-2.08V29.22a2.14,2.14,0,0,0-.29-1.24,1.07,1.07,0,0,0-.94-.41,1.41,1.41,0,0,0-1.26.58,3.62,3.62,0,0,0-.39,1.94v3.6h-2.08V26H255l.28,1h.12a2.2,2.2,0,0,1,1-.84,3.27,3.27,0,0,1,1.39-.28,2.67,2.67,0,0,1,2,.72,2.89,2.89,0,0,1,.69,2.08Z"/><path class="a" d="M269.6,29.85a4.11,4.11,0,0,1-1,2.92,3.57,3.57,0,0,1-2.74,1.05,3.83,3.83,0,0,1-1.94-.48A3.2,3.2,0,0,1,262.64,32a4.65,4.65,0,0,1-.45-2.11,4.08,4.08,0,0,1,1-2.91,3.59,3.59,0,0,1,2.75-1,3.85,3.85,0,0,1,1.94.48,3.2,3.2,0,0,1,1.29,1.37A4.61,4.61,0,0,1,269.6,29.85Zm-5.28,0a3.21,3.21,0,0,0,.37,1.72,1.33,1.33,0,0,0,1.21.58,1.31,1.31,0,0,0,1.2-.58,3.26,3.26,0,0,0,.37-1.72,3.16,3.16,0,0,0-.37-1.7,1.57,1.57,0,0,0-2.41,0A3.16,3.16,0,0,0,264.31,29.85Z"/><path class="a" d="M277.6,33.69,277,31l-.79-3.38h0l-1.39,6h-2.24L270.36,26h2.08l.88,3.38q.21.91.43,2.51h0a14,14,0,0,1,.24-1.65l.11-.58.94-3.66h2.3l.9,3.66.09.44c0,.2.08.4.11.63s.07.44.1.65,0,.38.05.51h0q.06-.49.22-1.35t.23-1.16L280,26h2l-2.2,7.64Z"/><path class="a" d="M285.39,33.69H283.3V23h2.08Z"/><path class="a" d="M291,33.82a4,4,0,0,1-2.88-1,3.86,3.86,0,0,1-1-2.88,4.24,4.24,0,0,1,1-3,3.42,3.42,0,0,1,2.66-1,3.37,3.37,0,0,1,2.52.92,3.49,3.49,0,0,1,.9,2.55v1h-4.93a2,2,0,0,0,.53,1.39,1.85,1.85,0,0,0,1.38.5,5.73,5.73,0,0,0,1.31-.14,6.5,6.5,0,0,0,1.29-.46v1.61a4.92,4.92,0,0,1-1.17.41A7.45,7.45,0,0,1,291,33.82Zm-.29-6.44a1.33,1.33,0,0,0-1,.42,2,2,0,0,0-.43,1.19h2.93a1.74,1.74,0,0,0-.4-1.19A1.37,1.37,0,0,0,290.74,27.38Z"/><path class="a" d="M298.27,33.82a2.48,2.48,0,0,1-2.12-1,4.8,4.8,0,0,1-.77-2.9,4.81,4.81,0,0,1,.78-2.93,2.54,2.54,0,0,1,2.16-1,2.49,2.49,0,0,1,2.2,1.12h.07a8.55,8.55,0,0,1-.16-1.52V23h2.09V33.69h-1.6l-.4-1h-.09A2.39,2.39,0,0,1,298.27,33.82Zm.73-1.66a1.42,1.42,0,0,0,1.17-.46,2.7,2.7,0,0,0,.41-1.58v-.23a3.13,3.13,0,0,0-.38-1.76A1.41,1.41,0,0,0,299,27.6a1.23,1.23,0,0,0-1.08.59,3.16,3.16,0,0,0-.39,1.72,3,3,0,0,0,.39,1.69A1.27,1.27,0,0,0,299,32.16Z"/><path class="a" d="M311.36,26V27.1l-1.2.31a2.09,2.09,0,0,1,.33,1.15,2.32,2.32,0,0,1-.86,1.92,3.72,3.72,0,0,1-2.38.69l-.38,0-.31,0a.69.69,0,0,0-.32.55q0,.45,1.15.45h1.3a3,3,0,0,1,1.92.54,1.93,1.93,0,0,1,.66,1.59,2.35,2.35,0,0,1-1.12,2.08,5.82,5.82,0,0,1-3.21.74,4.45,4.45,0,0,1-2.44-.56,1.77,1.77,0,0,1-.84-1.56,1.64,1.64,0,0,1,.43-1.16,2.45,2.45,0,0,1,1.26-.66,1.39,1.39,0,0,1-.56-.45,1.1,1.1,0,0,1,0-1.39,2.92,2.92,0,0,1,.73-.57,2.05,2.05,0,0,1-1-.83,2.54,2.54,0,0,1-.35-1.35,2.39,2.39,0,0,1,.81-1.93,3.52,3.52,0,0,1,2.32-.68,6.08,6.08,0,0,1,.76.06l.56.09Zm-5.9,8.72a.75.75,0,0,0,.41.68,2.27,2.27,0,0,0,1.16.25,4.11,4.11,0,0,0,1.76-.31.94.94,0,0,0,.64-.84.59.59,0,0,0-.38-.59,3.08,3.08,0,0,0-1.16-.16H306.8a1.63,1.63,0,0,0-1,.27A.83.83,0,0,0,305.46,34.77Zm.76-6.22a1.55,1.55,0,0,0,.28,1,1,1,0,0,0,.86.36,1,1,0,0,0,.86-.36,1.59,1.59,0,0,0,.27-1q0-1.38-1.13-1.38T306.22,28.55Z"/><path class="a" d="M316.07,33.82a4,4,0,0,1-2.88-1,3.86,3.86,0,0,1-1-2.88,4.24,4.24,0,0,1,1-3,3.42,3.42,0,0,1,2.66-1,3.37,3.37,0,0,1,2.52.92,3.49,3.49,0,0,1,.9,2.55v1h-4.93a2,2,0,0,0,.53,1.39,1.85,1.85,0,0,0,1.38.5,5.73,5.73,0,0,0,1.31-.14,6.5,6.5,0,0,0,1.29-.46v1.61a4.92,4.92,0,0,1-1.17.41A7.45,7.45,0,0,1,316.07,33.82Zm-.29-6.44a1.33,1.33,0,0,0-1,.42,2,2,0,0,0-.43,1.19h2.93a1.74,1.74,0,0,0-.4-1.19A1.37,1.37,0,0,0,315.78,27.38Z"/><path class="a" d="M323.31,33.82a2.48,2.48,0,0,1-2.12-1,4.8,4.8,0,0,1-.77-2.9A4.81,4.81,0,0,1,321.2,27a2.54,2.54,0,0,1,2.16-1,2.49,2.49,0,0,1,2.2,1.12h.07a8.55,8.55,0,0,1-.16-1.52V23h2.09V33.69H326l-.4-1h-.09A2.39,2.39,0,0,1,323.31,33.82Zm.73-1.66a1.42,1.42,0,0,0,1.17-.46,2.7,2.7,0,0,0,.41-1.58v-.23a3.13,3.13,0,0,0-.38-1.76A1.41,1.41,0,0,0,324,27.6a1.23,1.23,0,0,0-1.08.59,3.16,3.16,0,0,0-.39,1.72,3,3,0,0,0,.39,1.69A1.27,1.27,0,0,0,324,32.16Z"/><path class="a" d="M31.64,46.26h3.23a6.09,6.09,0,0,1,3.29.68,2.4,2.4,0,0,1,1,2.15,2.48,2.48,0,0,1-.57,1.68,2.73,2.73,0,0,1-1.65.86v.08q2.6.45,2.6,2.73a2.94,2.94,0,0,1-1,2.39,4.41,4.41,0,0,1-2.89.86h-4ZM33,51.16h2.19a3.56,3.56,0,0,0,2-.44,1.7,1.7,0,0,0,.62-1.49,1.51,1.51,0,0,0-.69-1.39,4.29,4.29,0,0,0-2.19-.43H33Zm0,1.13v4.27h2.38A3.4,3.4,0,0,0,37.43,56a2,2,0,0,0,.7-1.68,1.77,1.77,0,0,0-.71-1.56,3.82,3.82,0,0,0-2.18-.5Z"/><path class="a" d="M45.72,49a5.07,5.07,0,0,1,1,.09l-.18,1.2a4.42,4.42,0,0,0-.94-.12,2.28,2.28,0,0,0-1.78.84,3.08,3.08,0,0,0-.74,2.1v4.59h-1.3V49.12h1.07L43,50.71h.06a3.75,3.75,0,0,1,1.15-1.29A2.59,2.59,0,0,1,45.72,49Z"/><path class="a" d="M52,57.84a3.93,3.93,0,0,1-3-1.16,4.48,4.48,0,0,1-1.1-3.21,5,5,0,0,1,1-3.29A3.39,3.39,0,0,1,51.62,49,3.23,3.23,0,0,1,54.17,50a4.06,4.06,0,0,1,.94,2.79v.82h-5.9A3.4,3.4,0,0,0,50,55.93a2.64,2.64,0,0,0,2,.78,6.89,6.89,0,0,0,2.73-.58v1.16a6.82,6.82,0,0,1-1.3.43A7.31,7.31,0,0,1,52,57.84Zm-.35-7.79a2.12,2.12,0,0,0-1.64.67,3.1,3.1,0,0,0-.72,1.86h4.48a2.85,2.85,0,0,0-.55-1.88A1.93,1.93,0,0,0,51.61,50.05Z"/><path class="a" d="M62.58,57.69l-.26-1.22h-.06A3.6,3.6,0,0,1,61,57.56a3.89,3.89,0,0,1-1.59.29,2.86,2.86,0,0,1-2-.66,2.39,2.39,0,0,1-.72-1.87q0-2.59,4.15-2.72l1.45,0V52a2.17,2.17,0,0,0-.43-1.49,1.78,1.78,0,0,0-1.39-.48,5.65,5.65,0,0,0-2.42.66l-.4-1a6.23,6.23,0,0,1,2.9-.73,3.26,3.26,0,0,1,2.27.68,2.84,2.84,0,0,1,.74,2.18v5.84Zm-2.93-.91a2.63,2.63,0,0,0,1.9-.66,2.46,2.46,0,0,0,.69-1.86v-.77l-1.3.05a4.71,4.71,0,0,0-2.23.48A1.45,1.45,0,0,0,58,55.34a1.34,1.34,0,0,0,.43,1.07A1.77,1.77,0,0,0,59.65,56.77Z"/><path class="a" d="M67.5,53.3a15.31,15.31,0,0,1,1-1.25l2.77-2.93h1.54l-3.47,3.65,3.71,4.91H71.5l-3-4-1,.84v3.2H66.22V45.53H67.5V52q0,.43-.06,1.33Z"/><path class="a" d="M78.23,57.84a3.93,3.93,0,0,1-3-1.16,4.48,4.48,0,0,1-1.1-3.21,5,5,0,0,1,1-3.29A3.39,3.39,0,0,1,77.89,49,3.23,3.23,0,0,1,80.44,50a4.06,4.06,0,0,1,.94,2.79v.82h-5.9a3.4,3.4,0,0,0,.76,2.29,2.64,2.64,0,0,0,2,.78A6.89,6.89,0,0,0,81,56.13v1.16a6.82,6.82,0,0,1-1.3.43A7.31,7.31,0,0,1,78.23,57.84Zm-.35-7.79a2.12,2.12,0,0,0-1.64.67,3.1,3.1,0,0,0-.72,1.86H80a2.85,2.85,0,0,0-.55-1.88A1.93,1.93,0,0,0,77.88,50.05Z"/><path class="a" d="M87.5,49a5.07,5.07,0,0,1,1,.09l-.18,1.2a4.42,4.42,0,0,0-.94-.12,2.28,2.28,0,0,0-1.78.84,3.08,3.08,0,0,0-.74,2.1v4.59h-1.3V49.12h1.07l.15,1.59h.06A3.75,3.75,0,0,1,86,49.42,2.59,2.59,0,0,1,87.5,49Z"/><path class="a" d="M101.19,57.69H93.68V56.57l3-3a22.15,22.15,0,0,0,1.81-2,5,5,0,0,0,.66-1.16,3.32,3.32,0,0,0,.22-1.21,1.92,1.92,0,0,0-.55-1.45,2.13,2.13,0,0,0-1.54-.54,3.87,3.87,0,0,0-1.35.23,5.37,5.37,0,0,0-1.42.85l-.69-.88a5.27,5.27,0,0,1,3.44-1.31,3.63,3.63,0,0,1,2.52.82,2.84,2.84,0,0,1,.91,2.21,4.28,4.28,0,0,1-.61,2.15A13.65,13.65,0,0,1,97.82,54l-2.5,2.45v.06h5.88Z"/><path class="a" d="M110.8,57.69l-1.42-3.63H104.8l-1.41,3.63h-1.34l4.52-11.47h1.12l4.49,11.47ZM109,52.86l-1.33-3.54q-.26-.67-.53-1.65a14.65,14.65,0,0,1-.49,1.65l-1.34,3.54Z"/><path class="a" d="M117,54V52.8h3.84V54Z"/><path class="a" d="M136.32,51.87a5.77,5.77,0,0,1-1.54,4.32,6.08,6.08,0,0,1-4.42,1.5h-3.16V46.26h3.5a5.13,5.13,0,0,1,5.62,5.6Zm-1.41,0a4.6,4.6,0,0,0-1.12-3.37,4.49,4.49,0,0,0-3.33-1.13h-1.93v9.13h1.62a4.92,4.92,0,0,0,3.57-1.17A4.62,4.62,0,0,0,134.92,51.91Z"/><path class="a" d="M142.39,57.69h-1.33V47.44h-3.62V46.26H146v1.18h-3.62Z"/><path class="a" d="M151.74,57.69h-1.27V49.55q0-1,.06-1.92l-.37.34-1.86,1.52-.69-.89,3-2.34h1.09Z"/><path class="a" d="M160.89,57.69h-1.27V49.55q0-1,.06-1.92l-.37.34-1.86,1.52-.69-.89,3-2.34h1.09Z"/><path class="a" d="M168.8,50.71a4.2,4.2,0,0,1,2.84.89,3.07,3.07,0,0,1,1,2.45,3.54,3.54,0,0,1-1.13,2.78,4.51,4.51,0,0,1-3.11,1,5.73,5.73,0,0,1-2.95-.62V56a4.47,4.47,0,0,0,1.36.55,6.71,6.71,0,0,0,1.6.2,3.2,3.2,0,0,0,2.14-.65,2.33,2.33,0,0,0,.76-1.87q0-2.39-2.93-2.39a11.63,11.63,0,0,0-2,.23l-.67-.43.43-5.34h5.68v1.2H167.3L167,50.89A9.08,9.08,0,0,1,168.8,50.71Z"/><path class="a" d="M181.95,52a8.34,8.34,0,0,1-.93,4.42,3.45,3.45,0,0,1-5.66,0,8.18,8.18,0,0,1-1-4.39,8.34,8.34,0,0,1,.93-4.43,3.45,3.45,0,0,1,5.66.06A8.14,8.14,0,0,1,181.95,52Zm-6.24,0a8.37,8.37,0,0,0,.59,3.63,2.1,2.1,0,0,0,3.75,0,8.44,8.44,0,0,0,.58-3.61,8.38,8.38,0,0,0-.58-3.61,2.11,2.11,0,0,0-3.75,0A8.31,8.31,0,0,0,175.71,52Z"/><line class="b" y1="1" x2="620" y2="1"/><line class="b" y1="81" x2="620" y2="81"/></svg>