<svg width="24" height="24" viewBox="0 0 24 24" fill="none" xmlns="http://www.w3.org/2000/svg">
<g clip-path="url(#clip0_5122_239446)">
<path fill-rule="evenodd" clip-rule="evenodd" d="M0 0H8.5H12H15.5H24V8.5V12V15.5V24H15.5H12H8.5H0V15.5V12V8.5V0ZM8.5 8.5C7.60433 9.39576 7.05 10.6332 7.05 12C7.05 13.3668 7.60433 14.6042 8.5 15.5C9.39576 16.3957 10.6332 16.95 12 16.95C13.3668 16.95 14.6042 16.3957 15.5 15.5C16.3957 14.6042 16.95 13.3668 16.95 12C16.95 10.6332 16.3957 9.39576 15.5 8.5C14.6042 7.60433 13.3668 7.05 12 7.05C10.6332 7.05 9.39576 7.60433 8.5 8.5Z" fill="#56DCB7" fill-opacity="0.12"/>
<path d="M8.5 12H7.05C7.05 13.3668 7.60433 14.6042 8.5 15.5V12Z" fill="#56DCB7" fill-opacity="0.12"/>
<path d="M7.05 12H8.5V8.5C7.60433 9.39576 7.05 10.6332 7.05 12Z" fill="#56DCB7" fill-opacity="0.12"/>
<path d="M12 12L8.5 8.5V12H12Z" fill="#56DCB7" fill-opacity="0.12"/>
<path d="M12 8.5H8.5L12 12V8.5Z" fill="#56DCB7" fill-opacity="0.12"/>
<path d="M8.5 8.5H12L12 7.05C10.6332 7.05 9.39576 7.60433 8.5 8.5Z" fill="#56DCB7" fill-opacity="0.12"/>
<path d="M12 8.5H15.5C14.6042 7.60433 13.3668 7.05 12 7.05L12 8.5Z" fill="#56DCB7" fill-opacity="0.12"/>
<path d="M15.5 8.5H12V12L15.5 8.5Z" fill="#56DCB7" fill-opacity="0.12"/>
<path d="M15.5 8.5L12 12H15.5V8.5Z" fill="#56DCB7" fill-opacity="0.12"/>
<path d="M15.5 12H16.95C16.95 10.6332 16.3957 9.39576 15.5 8.5V12Z" fill="#56DCB7" fill-opacity="0.12"/>
<path d="M16.95 12H15.5V15.5C16.3957 14.6042 16.95 13.3668 16.95 12Z" fill="#56DCB7" fill-opacity="0.12"/>
<path d="M12 12L15.5 15.5V12H12Z" fill="#56DCB7" fill-opacity="0.12"/>
<path d="M15.5 15.5L12 12V15.5H15.5Z" fill="#56DCB7" fill-opacity="0.12"/>
<path d="M12 12L8.5 15.5H12V12Z" fill="#56DCB7" fill-opacity="0.12"/>
<path d="M8.5 15.5L12 12H8.5V15.5Z" fill="#56DCB7" fill-opacity="0.12"/>
<path d="M12 16.95L12 15.5H8.5C9.39576 16.3957 10.6332 16.95 12 16.95Z" fill="#56DCB7" fill-opacity="0.12"/>
<path d="M12 15.5L12 16.95C13.3668 16.95 14.6042 16.3957 15.5 15.5H12Z" fill="#56DCB7" fill-opacity="0.12"/>
<path d="M8.5 0H0M8.5 0H12M8.5 0V8.5M0 0V8.5M0 0L8.5 8.5M8.5 8.5H12M8.5 8.5L12 12M8.5 8.5V12M8.5 8.5C7.60433 9.39576 7.05 10.6332 7.05 12M8.5 8.5H0M8.5 8.5C9.39576 7.60433 10.6332 7.05 12 7.05M8.5 8.5C8.50012 8.49988 8.49988 8.50012 8.5 8.5ZM24 0H15.5M24 0V8.5M24 0L15.5 8.5M15.5 0H12M15.5 0V8.5M15.5 8.5H12M15.5 8.5L12 12M15.5 8.5V12M15.5 8.5C14.6042 7.60433 13.3668 7.05 12 7.05M15.5 8.5C16.3957 9.39576 16.95 10.6332 16.95 12M15.5 8.5C15.5001 8.50012 15.4999 8.49988 15.5 8.5ZM15.5 8.5H24M24 8.5V12M0 8.5V12M12 8.5V0M12 8.5V12M12 8.5L12 7.05M0 15.5V24M0 15.5V12M0 15.5H8.5M0 24H8.5M0 24L8.5 15.5M8.5 15.5L12 12M8.5 15.5V12M8.5 15.5H12M8.5 15.5C7.60433 14.6042 7.05 13.3668 7.05 12M8.5 15.5C9.39576 16.3957 10.6332 16.95 12 16.95M8.5 15.5C8.49988 15.4999 8.50012 15.5001 8.5 15.5ZM8.5 15.5V24M15.5 15.5L12 12M15.5 15.5V12M15.5 15.5H12M15.5 15.5C16.3957 14.6042 16.95 13.3668 16.95 12M15.5 15.5H24M15.5 15.5C14.6042 16.3957 13.3668 16.95 12 16.95M15.5 15.5C15.4999 15.5001 15.5001 15.4999 15.5 15.5ZM15.5 15.5V24M15.5 15.5L24 24M24 24V15.5M24 24H15.5M24 15.5V12M24 12H15.5M15.5 12H12M15.5 12H16.95M12 12V15.5M12 12H8.5M0 12H8.5M8.5 12H7.05M12 15.5V24M12 15.5L12 16.95M12 24H8.5M12 24H15.5" stroke="#56DCB7" stroke-opacity="0.24" stroke-width="0.125" stroke-dasharray="0.5 0.25"/>
<rect x="4.0625" y="2.0625" width="15.875" height="19.875" rx="1.9375" stroke="#56DCB7" stroke-opacity="0.48" stroke-width="0.125"/>
<rect x="2.0625" y="4.0625" width="19.875" height="15.875" rx="1.9375" stroke="#56DCB7" stroke-opacity="0.48" stroke-width="0.125"/>
<rect x="3.0625" y="3.0625" width="17.875" height="17.875" rx="1.9375" stroke="#56DCB7" stroke-opacity="0.48" stroke-width="0.125"/>
<circle cx="12" cy="12" r="9.9375" stroke="#56DCB7" stroke-opacity="0.48" stroke-width="0.125"/>
</g>
<path d="M3 5V19C3 20.1 3.9 21 5 21H19C20.1 21 21 20.1 21 19V5C21 3.9 20.1 3 19 3H5C3.9 3 3 3.9 3 5ZM17 15C18.1 15 19 15.9 19 17C19 18.1 18.1 19 17 19C15.9 19 15 18.1 15 17C15 15.9 15.9 15 17 15ZM19 8H5V5H19V8Z" stroke="#ED7BA4" stroke-width="0.4"/>
<defs>
<clipPath id="clip0_5122_239446">
<rect width="24" height="24" fill="white"/>
</clipPath>
</defs>
</svg>
