<svg width="814" height="451" viewBox="0 0 814 451" fill="none" xmlns="http://www.w3.org/2000/svg">
<g clip-path="url(#clip0)">
<rect width="814" height="451" fill="#727E84"/>
<rect width="486" height="762" transform="translate(164 -156)" fill="white"/>
<path fill-rule="evenodd" clip-rule="evenodd" d="M407.5 37.0834C360.35 37.0834 322.083 75.35 322.083 122.5C322.083 169.65 360.35 207.917 407.5 207.917C454.65 207.917 492.917 169.65 492.917 122.5C492.917 75.35 454.65 37.0834 407.5 37.0834ZM398.958 182.292V165.208H416.042V182.292H398.958ZM426.035 123.952L433.723 116.094C438.592 111.225 441.667 104.392 441.667 96.875C441.667 77.998 426.377 62.7084 407.5 62.7084C388.623 62.7084 373.333 77.998 373.333 96.875H390.417C390.417 87.4792 398.104 79.7917 407.5 79.7917C416.896 79.7917 424.583 87.4792 424.583 96.875C424.583 101.573 422.704 105.844 419.544 108.919L408.952 119.681C402.802 125.917 398.958 134.458 398.958 143.854V148.125H416.042C416.042 135.313 419.885 130.188 426.035 123.952Z" fill="#268FCA"/>
<rect x="266" y="247" width="285" height="39" fill="#80BDE0"/>
<rect x="297" y="294" width="221" height="30" fill="#9CA5A9"/>
<rect x="348" y="354" width="119" height="49" rx="12" fill="#268FCA"/>
<path d="M378 379H372V385H370V379H364V377H370V371H372V377H378V379Z" fill="white"/>
<rect x="691" width="123" height="451" fill="#B9BFC2"/>
<rect x="650" width="9" height="451" fill="#6A767C"/>
<rect width="123" height="451" fill="#B9BFC2"/>
<rect x="123" width="9" height="451" fill="#6A767C"/>
</g>
<defs>
<clipPath id="clip0">
<rect width="814" height="451" fill="white"/>
</clipPath>
</defs>
</svg>
