<svg width="818" height="356" viewBox="0 0 818 356" fill="none" xmlns="http://www.w3.org/2000/svg">
<path d="M4.67578 63.5547C4.67578 62.4531 5.01562 61.5273 5.69531 60.7773C6.39844 60.0039 7.40625 59.6172 8.71875 59.6172C10.0312 59.6172 11.0273 60.0039 11.707 60.7773C12.4102 61.5273 12.7617 62.4531 12.7617 63.5547C12.7617 64.6328 12.4102 65.5469 11.707 66.2969C11.0273 67.0469 10.0312 67.4219 8.71875 67.4219C7.40625 67.4219 6.39844 67.0469 5.69531 66.2969C5.01562 65.5469 4.67578 64.6328 4.67578 63.5547ZM4.71094 32.5117C4.71094 31.4102 5.05078 30.4844 5.73047 29.7344C6.43359 28.9609 7.44141 28.5742 8.75391 28.5742C10.0664 28.5742 11.0625 28.9609 11.7422 29.7344C12.4453 30.4844 12.7969 31.4102 12.7969 32.5117C12.7969 33.5898 12.4453 34.5039 11.7422 35.2539C11.0625 36.0039 10.0664 36.3789 8.75391 36.3789C7.44141 36.3789 6.43359 36.0039 5.73047 35.2539C5.05078 34.5039 4.71094 33.5898 4.71094 32.5117ZM22.1484 46.5391V46.1875C22.1484 41.0781 22.7227 36.4609 23.8711 32.3359C25.0195 28.1875 26.4844 24.5547 28.2656 21.4375C30.0469 18.3203 31.9219 15.7422 33.8906 13.7031C35.8594 11.6406 37.6758 10.1523 39.3398 9.23828L40.7109 13.5273C39.3281 14.582 37.9219 16.0352 36.4922 17.8867C35.0859 19.7383 33.7852 22.0117 32.5898 24.707C31.418 27.4023 30.4688 30.5313 29.7422 34.0938C29.0156 37.6562 28.6523 41.6641 28.6523 46.1172V46.6094C28.6523 51.0625 29.0156 55.082 29.7422 58.668C30.4688 62.2305 31.418 65.3711 32.5898 68.0898C33.7852 70.8086 35.0859 73.1172 36.4922 75.0156C37.9219 76.9375 39.3281 78.4609 40.7109 79.5859L39.3398 83.5234C37.6758 82.6094 35.8594 81.1211 33.8906 79.0586C31.9219 77.0195 30.0469 74.4414 28.2656 71.3242C26.4844 68.2305 25.0195 64.6094 23.8711 60.4609C22.7227 56.3125 22.1484 51.6719 22.1484 46.5391Z" fill="white"/>
<path d="M10.7402 135.363L18.5625 121.406H21.0586L11.8125 137.367V147H9.65039V137.367L0.421875 121.406H2.98828L10.7402 135.363ZM21.9727 137.209C21.9727 135.381 22.3242 133.734 23.0273 132.27C23.7422 130.805 24.7441 129.668 26.0332 128.859C27.334 128.039 28.8047 127.629 30.4453 127.629C32.9766 127.629 35.0273 128.52 36.5977 130.301C38.168 132.07 38.9531 134.42 38.9531 137.35V137.789C38.9531 139.629 38.5957 141.287 37.8809 142.764C37.1777 144.229 36.1816 145.359 34.8926 146.156C33.6035 146.953 32.1328 147.352 30.4805 147.352C27.9609 147.352 25.9102 146.467 24.3281 144.697C22.7578 142.916 21.9727 140.561 21.9727 137.631V137.209ZM24.082 137.789C24.082 140.062 24.668 141.932 25.8398 143.396C27.0234 144.85 28.5703 145.576 30.4805 145.576C32.3789 145.576 33.9141 144.85 35.0859 143.396C36.2695 141.932 36.8613 140.004 36.8613 137.613V137.209C36.8613 135.756 36.5918 134.426 36.0527 133.219C35.5137 132.012 34.7578 131.08 33.7852 130.424C32.8125 129.756 31.6992 129.422 30.4453 129.422C28.5703 129.422 27.041 130.16 25.8574 131.637C24.6738 133.102 24.082 135.023 24.082 137.402V137.789ZM55.5469 144.592C54.2812 146.432 52.2598 147.352 49.4824 147.352C47.4551 147.352 45.9141 146.766 44.8594 145.594C43.8047 144.41 43.2656 142.664 43.2422 140.355V127.98H45.334V140.092C45.334 143.713 46.7988 145.523 49.7285 145.523C52.7754 145.523 54.7031 144.264 55.5117 141.744V127.98H57.6211V147H55.582L55.5469 144.592ZM71.8945 129.773C71.4492 129.691 70.9746 129.65 70.4707 129.65C69.1582 129.65 68.0449 130.02 67.1309 130.758C66.2285 131.484 65.584 132.545 65.1973 133.939V147H63.1055V127.98H65.1621L65.1973 131.004C66.3105 128.754 68.0977 127.629 70.5586 127.629C71.1445 127.629 71.6074 127.705 71.9473 127.857L71.8945 129.773ZM86.6426 136.576V147H84.4805V121.406H93.1992C95.8594 121.406 97.957 122.086 99.4922 123.445C101.039 124.805 101.812 126.674 101.812 129.053C101.812 131.455 101.068 133.312 99.5801 134.625C98.1035 135.926 95.959 136.576 93.1465 136.576H86.6426ZM86.6426 134.748H93.1992C95.2969 134.748 96.8965 134.25 97.998 133.254C99.0996 132.258 99.6504 130.869 99.6504 129.088C99.6504 127.318 99.0996 125.912 97.998 124.869C96.9082 123.814 95.3555 123.275 93.3398 123.252H86.6426V134.748ZM124.787 139.02C124.494 141.715 123.527 143.777 121.887 145.207C120.258 146.637 118.084 147.352 115.365 147.352C113.467 147.352 111.785 146.877 110.32 145.928C108.867 144.979 107.742 143.637 106.945 141.902C106.148 140.156 105.744 138.164 105.732 135.926V132.604C105.732 130.33 106.131 128.314 106.928 126.557C107.725 124.799 108.867 123.445 110.355 122.496C111.855 121.535 113.578 121.055 115.523 121.055C118.266 121.055 120.428 121.799 122.01 123.287C123.604 124.764 124.529 126.809 124.787 129.422H122.607C122.068 125.074 119.707 122.9 115.523 122.9C113.203 122.9 111.352 123.768 109.969 125.502C108.598 127.236 107.912 129.633 107.912 132.691V135.82C107.912 138.773 108.58 141.129 109.916 142.887C111.264 144.645 113.08 145.523 115.365 145.523C117.627 145.523 119.332 144.984 120.48 143.906C121.629 142.816 122.338 141.188 122.607 139.02H124.787ZM147.094 129.773C146.648 129.691 146.174 129.65 145.67 129.65C144.357 129.65 143.244 130.02 142.33 130.758C141.428 131.484 140.783 132.545 140.396 133.939V147H138.305V127.98H140.361L140.396 131.004C141.51 128.754 143.297 127.629 145.758 127.629C146.344 127.629 146.807 127.705 147.146 127.857L147.094 129.773ZM161.736 147C161.525 146.402 161.391 145.518 161.332 144.346C160.594 145.307 159.65 146.051 158.502 146.578C157.365 147.094 156.158 147.352 154.881 147.352C153.053 147.352 151.57 146.842 150.434 145.822C149.309 144.803 148.746 143.514 148.746 141.955C148.746 140.104 149.514 138.639 151.049 137.561C152.596 136.482 154.746 135.943 157.5 135.943H161.314V133.781C161.314 132.422 160.893 131.355 160.049 130.582C159.217 129.797 157.998 129.404 156.393 129.404C154.928 129.404 153.715 129.779 152.754 130.529C151.793 131.279 151.312 132.182 151.312 133.236L149.203 133.219C149.203 131.707 149.906 130.4 151.312 129.299C152.719 128.186 154.447 127.629 156.498 127.629C158.619 127.629 160.289 128.162 161.508 129.229C162.738 130.283 163.371 131.76 163.406 133.658V142.658C163.406 144.498 163.6 145.875 163.986 146.789V147H161.736ZM155.127 145.488C156.533 145.488 157.787 145.148 158.889 144.469C160.002 143.789 160.811 142.881 161.314 141.744V137.561H157.553C155.455 137.584 153.814 137.971 152.631 138.721C151.447 139.459 150.855 140.479 150.855 141.779C150.855 142.846 151.248 143.73 152.033 144.434C152.83 145.137 153.861 145.488 155.127 145.488ZM171.035 127.98L171.105 131.232C171.82 130.061 172.711 129.17 173.777 128.561C174.844 127.939 176.021 127.629 177.311 127.629C179.35 127.629 180.867 128.203 181.863 129.352C182.859 130.5 183.363 132.223 183.375 134.52V147H181.283V134.502C181.271 132.803 180.908 131.537 180.193 130.705C179.49 129.873 178.359 129.457 176.801 129.457C175.5 129.457 174.346 129.867 173.338 130.688C172.342 131.496 171.604 132.592 171.123 133.975V147H169.031V127.98H171.035ZM199.934 147H197.824V127.98H199.934V147ZM197.455 122.479C197.455 122.08 197.584 121.746 197.842 121.477C198.1 121.195 198.451 121.055 198.896 121.055C199.342 121.055 199.693 121.195 199.951 121.477C200.221 121.746 200.355 122.08 200.355 122.479C200.355 122.877 200.221 123.211 199.951 123.48C199.693 123.75 199.342 123.885 198.896 123.885C198.451 123.885 198.1 123.75 197.842 123.48C197.584 123.211 197.455 122.877 197.455 122.479ZM207.668 127.98L207.738 131.232C208.453 130.061 209.344 129.17 210.41 128.561C211.477 127.939 212.654 127.629 213.943 127.629C215.982 127.629 217.5 128.203 218.496 129.352C219.492 130.5 219.996 132.223 220.008 134.52V147H217.916V134.502C217.904 132.803 217.541 131.537 216.826 130.705C216.123 129.873 214.992 129.457 213.434 129.457C212.133 129.457 210.979 129.867 209.971 130.688C208.975 131.496 208.236 132.592 207.756 133.975V147H205.664V127.98H207.668ZM228.727 123.111V127.98H232.664V129.703H228.727V142.377C228.727 143.432 228.914 144.217 229.289 144.732C229.676 145.248 230.314 145.506 231.205 145.506C231.557 145.506 232.125 145.447 232.91 145.33L232.998 147.053C232.447 147.252 231.697 147.352 230.748 147.352C229.307 147.352 228.258 146.936 227.602 146.104C226.945 145.26 226.617 144.023 226.617 142.395V129.703H223.119V127.98H226.617V123.111H228.727ZM235.512 137.209C235.512 135.381 235.863 133.734 236.566 132.27C237.281 130.805 238.283 129.668 239.572 128.859C240.873 128.039 242.344 127.629 243.984 127.629C246.516 127.629 248.566 128.52 250.137 130.301C251.707 132.07 252.492 134.42 252.492 137.35V137.789C252.492 139.629 252.135 141.287 251.42 142.764C250.717 144.229 249.721 145.359 248.432 146.156C247.143 146.953 245.672 147.352 244.02 147.352C241.5 147.352 239.449 146.467 237.867 144.697C236.297 142.916 235.512 140.561 235.512 137.631V137.209ZM237.621 137.789C237.621 140.062 238.207 141.932 239.379 143.396C240.562 144.85 242.109 145.576 244.02 145.576C245.918 145.576 247.453 144.85 248.625 143.396C249.809 141.932 250.4 140.004 250.4 137.613V137.209C250.4 135.756 250.131 134.426 249.592 133.219C249.053 132.012 248.297 131.08 247.324 130.424C246.352 129.756 245.238 129.422 243.984 129.422C242.109 129.422 240.58 130.16 239.396 131.637C238.213 133.102 237.621 135.023 237.621 137.402V137.789ZM277.611 147C277.4 146.402 277.266 145.518 277.207 144.346C276.469 145.307 275.525 146.051 274.377 146.578C273.24 147.094 272.033 147.352 270.756 147.352C268.928 147.352 267.445 146.842 266.309 145.822C265.184 144.803 264.621 143.514 264.621 141.955C264.621 140.104 265.389 138.639 266.924 137.561C268.471 136.482 270.621 135.943 273.375 135.943H277.189V133.781C277.189 132.422 276.768 131.355 275.924 130.582C275.092 129.797 273.873 129.404 272.268 129.404C270.803 129.404 269.59 129.779 268.629 130.529C267.668 131.279 267.188 132.182 267.188 133.236L265.078 133.219C265.078 131.707 265.781 130.4 267.188 129.299C268.594 128.186 270.322 127.629 272.373 127.629C274.494 127.629 276.164 128.162 277.383 129.229C278.613 130.283 279.246 131.76 279.281 133.658V142.658C279.281 144.498 279.475 145.875 279.861 146.789V147H277.611ZM271.002 145.488C272.408 145.488 273.662 145.148 274.764 144.469C275.877 143.789 276.686 142.881 277.189 141.744V137.561H273.428C271.33 137.584 269.689 137.971 268.506 138.721C267.322 139.459 266.73 140.479 266.73 141.779C266.73 142.846 267.123 143.73 267.908 144.434C268.705 145.137 269.736 145.488 271.002 145.488ZM308.953 137.684C308.953 140.648 308.297 143.004 306.984 144.75C305.672 146.484 303.914 147.352 301.711 147.352C299.109 147.352 297.117 146.438 295.734 144.609V154.312H293.643V127.98H295.594L295.699 130.67C297.07 128.643 299.057 127.629 301.658 127.629C303.932 127.629 305.713 128.49 307.002 130.213C308.303 131.936 308.953 134.326 308.953 137.385V137.684ZM306.844 137.314C306.844 134.889 306.346 132.973 305.35 131.566C304.354 130.16 302.965 129.457 301.184 129.457C299.895 129.457 298.787 129.768 297.861 130.389C296.936 131.01 296.227 131.912 295.734 133.096V142.219C296.238 143.309 296.959 144.141 297.896 144.715C298.834 145.289 299.941 145.576 301.219 145.576C302.988 145.576 304.365 144.873 305.35 143.467C306.346 142.049 306.844 139.998 306.844 137.314ZM322.418 129.773C321.973 129.691 321.498 129.65 320.994 129.65C319.682 129.65 318.568 130.02 317.654 130.758C316.752 131.484 316.107 132.545 315.721 133.939V147H313.629V127.98H315.686L315.721 131.004C316.834 128.754 318.621 127.629 321.082 127.629C321.668 127.629 322.131 127.705 322.471 127.857L322.418 129.773ZM324.246 137.209C324.246 135.381 324.598 133.734 325.301 132.27C326.016 130.805 327.018 129.668 328.307 128.859C329.607 128.039 331.078 127.629 332.719 127.629C335.25 127.629 337.301 128.52 338.871 130.301C340.441 132.07 341.227 134.42 341.227 137.35V137.789C341.227 139.629 340.869 141.287 340.154 142.764C339.451 144.229 338.455 145.359 337.166 146.156C335.877 146.953 334.406 147.352 332.754 147.352C330.234 147.352 328.184 146.467 326.602 144.697C325.031 142.916 324.246 140.561 324.246 137.631V137.209ZM326.355 137.789C326.355 140.062 326.941 141.932 328.113 143.396C329.297 144.85 330.844 145.576 332.754 145.576C334.652 145.576 336.188 144.85 337.359 143.396C338.543 141.932 339.135 140.004 339.135 137.613V137.209C339.135 135.756 338.865 134.426 338.326 133.219C337.787 132.012 337.031 131.08 336.059 130.424C335.086 129.756 333.973 129.422 332.719 129.422C330.844 129.422 329.314 130.16 328.131 131.637C326.947 133.102 326.355 135.023 326.355 137.402V137.789ZM360.896 137.684C360.896 140.648 360.24 143.004 358.928 144.75C357.615 146.484 355.852 147.352 353.637 147.352C350.988 147.352 348.984 146.367 347.625 144.398L347.537 147H345.568V120H347.66V130.74C348.996 128.666 350.977 127.629 353.602 127.629C355.852 127.629 357.627 128.49 358.928 130.213C360.24 131.924 360.896 134.309 360.896 137.367V137.684ZM358.787 137.314C358.787 134.807 358.301 132.873 357.328 131.514C356.355 130.143 354.984 129.457 353.215 129.457C351.867 129.457 350.725 129.791 349.787 130.459C348.85 131.115 348.141 132.082 347.66 133.359V141.938C348.715 144.328 350.578 145.523 353.25 145.523C354.984 145.523 356.338 144.838 357.311 143.467C358.295 142.096 358.787 140.045 358.787 137.314ZM367.91 147H365.801V120H367.91V147ZM381.006 147.352C379.389 147.352 377.924 146.953 376.611 146.156C375.311 145.359 374.297 144.252 373.57 142.834C372.844 141.404 372.48 139.805 372.48 138.035V137.279C372.48 135.451 372.832 133.805 373.535 132.34C374.25 130.875 375.24 129.727 376.506 128.895C377.771 128.051 379.143 127.629 380.619 127.629C382.928 127.629 384.756 128.42 386.104 130.002C387.463 131.572 388.143 133.723 388.143 136.453V137.631H374.572V138.035C374.572 140.191 375.188 141.99 376.418 143.432C377.66 144.861 379.219 145.576 381.094 145.576C382.219 145.576 383.209 145.371 384.064 144.961C384.932 144.551 385.717 143.895 386.42 142.992L387.738 143.994C386.191 146.232 383.947 147.352 381.006 147.352ZM380.619 129.422C379.037 129.422 377.701 130.002 376.611 131.162C375.533 132.322 374.877 133.881 374.643 135.838H386.051V135.609C385.992 133.781 385.471 132.293 384.486 131.145C383.502 129.996 382.213 129.422 380.619 129.422ZM394.154 127.98L394.225 131.074C394.928 129.926 395.807 129.064 396.861 128.49C397.916 127.916 399.088 127.629 400.377 127.629C403.377 127.629 405.281 128.859 406.09 131.32C406.77 130.137 407.678 129.229 408.814 128.596C409.951 127.951 411.205 127.629 412.576 127.629C416.654 127.629 418.734 129.855 418.816 134.309V147H416.707V134.467C416.695 132.768 416.326 131.508 415.6 130.688C414.885 129.867 413.713 129.457 412.084 129.457C410.572 129.48 409.295 129.973 408.252 130.934C407.209 131.883 406.629 133.043 406.512 134.414V147H404.402V134.309C404.391 132.68 404.004 131.467 403.242 130.67C402.492 129.861 401.332 129.457 399.762 129.457C398.438 129.457 397.301 129.838 396.352 130.6C395.402 131.35 394.699 132.469 394.242 133.957V147H392.133V127.98H394.154ZM444.92 147C444.709 146.402 444.574 145.518 444.516 144.346C443.777 145.307 442.834 146.051 441.686 146.578C440.549 147.094 439.342 147.352 438.064 147.352C436.236 147.352 434.754 146.842 433.617 145.822C432.492 144.803 431.93 143.514 431.93 141.955C431.93 140.104 432.697 138.639 434.232 137.561C435.779 136.482 437.93 135.943 440.684 135.943H444.498V133.781C444.498 132.422 444.076 131.355 443.232 130.582C442.4 129.797 441.182 129.404 439.576 129.404C438.111 129.404 436.898 129.779 435.938 130.529C434.977 131.279 434.496 132.182 434.496 133.236L432.387 133.219C432.387 131.707 433.09 130.4 434.496 129.299C435.902 128.186 437.631 127.629 439.682 127.629C441.803 127.629 443.473 128.162 444.691 129.229C445.922 130.283 446.555 131.76 446.59 133.658V142.658C446.59 144.498 446.783 145.875 447.17 146.789V147H444.92ZM438.311 145.488C439.717 145.488 440.971 145.148 442.072 144.469C443.186 143.789 443.994 142.881 444.498 141.744V137.561H440.736C438.639 137.584 436.998 137.971 435.814 138.721C434.631 139.459 434.039 140.479 434.039 141.779C434.039 142.846 434.432 143.73 435.217 144.434C436.014 145.137 437.045 145.488 438.311 145.488ZM454.219 127.98L454.289 131.232C455.004 130.061 455.895 129.17 456.961 128.561C458.027 127.939 459.205 127.629 460.494 127.629C462.533 127.629 464.051 128.203 465.047 129.352C466.043 130.5 466.547 132.223 466.559 134.52V147H464.467V134.502C464.455 132.803 464.092 131.537 463.377 130.705C462.674 129.873 461.543 129.457 459.984 129.457C458.684 129.457 457.529 129.867 456.521 130.688C455.525 131.496 454.787 132.592 454.307 133.975V147H452.215V127.98H454.219ZM471.164 137.314C471.164 134.361 471.82 132.012 473.133 130.266C474.457 128.508 476.25 127.629 478.512 127.629C481.078 127.629 483.035 128.643 484.383 130.67V120H486.475V147H484.506L484.418 144.469C483.07 146.391 481.09 147.352 478.477 147.352C476.285 147.352 474.516 146.473 473.168 144.715C471.832 142.945 471.164 140.561 471.164 137.561V137.314ZM473.291 137.684C473.291 140.109 473.777 142.025 474.75 143.432C475.723 144.826 477.094 145.523 478.863 145.523C481.453 145.523 483.293 144.381 484.383 142.096V133.166C483.293 130.693 481.465 129.457 478.898 129.457C477.129 129.457 475.752 130.154 474.768 131.549C473.783 132.932 473.291 134.977 473.291 137.684ZM502.77 127.98L502.84 131.232C503.555 130.061 504.445 129.17 505.512 128.561C506.578 127.939 507.756 127.629 509.045 127.629C511.084 127.629 512.602 128.203 513.598 129.352C514.594 130.5 515.098 132.223 515.109 134.52V147H513.018V134.502C513.006 132.803 512.643 131.537 511.928 130.705C511.225 129.873 510.094 129.457 508.535 129.457C507.234 129.457 506.08 129.867 505.072 130.688C504.076 131.496 503.338 132.592 502.857 133.975V147H500.766V127.98H502.77ZM527.924 147.352C526.307 147.352 524.842 146.953 523.529 146.156C522.229 145.359 521.215 144.252 520.488 142.834C519.762 141.404 519.398 139.805 519.398 138.035V137.279C519.398 135.451 519.75 133.805 520.453 132.34C521.168 130.875 522.158 129.727 523.424 128.895C524.689 128.051 526.061 127.629 527.537 127.629C529.846 127.629 531.674 128.42 533.021 130.002C534.381 131.572 535.061 133.723 535.061 136.453V137.631H521.49V138.035C521.49 140.191 522.105 141.99 523.336 143.432C524.578 144.861 526.137 145.576 528.012 145.576C529.137 145.576 530.127 145.371 530.982 144.961C531.85 144.551 532.635 143.895 533.338 142.992L534.656 143.994C533.109 146.232 530.865 147.352 527.924 147.352ZM527.537 129.422C525.955 129.422 524.619 130.002 523.529 131.162C522.451 132.322 521.795 133.881 521.561 135.838H532.969V135.609C532.91 133.781 532.389 132.293 531.404 131.145C530.42 129.996 529.131 129.422 527.537 129.422ZM546.521 147.352C544.904 147.352 543.439 146.953 542.127 146.156C540.826 145.359 539.812 144.252 539.086 142.834C538.359 141.404 537.996 139.805 537.996 138.035V137.279C537.996 135.451 538.348 133.805 539.051 132.34C539.766 130.875 540.756 129.727 542.021 128.895C543.287 128.051 544.658 127.629 546.135 127.629C548.443 127.629 550.271 128.42 551.619 130.002C552.979 131.572 553.658 133.723 553.658 136.453V137.631H540.088V138.035C540.088 140.191 540.703 141.99 541.934 143.432C543.176 144.861 544.734 145.576 546.609 145.576C547.734 145.576 548.725 145.371 549.58 144.961C550.447 144.551 551.232 143.895 551.936 142.992L553.254 143.994C551.707 146.232 549.463 147.352 546.521 147.352ZM546.135 129.422C544.553 129.422 543.217 130.002 542.127 131.162C541.049 132.322 540.393 133.881 540.158 135.838H551.566V135.609C551.508 133.781 550.986 132.293 550.002 131.145C549.018 129.996 547.729 129.422 546.135 129.422ZM556.91 137.314C556.91 134.361 557.566 132.012 558.879 130.266C560.203 128.508 561.996 127.629 564.258 127.629C566.824 127.629 568.781 128.643 570.129 130.67V120H572.221V147H570.252L570.164 144.469C568.816 146.391 566.836 147.352 564.223 147.352C562.031 147.352 560.262 146.473 558.914 144.715C557.578 142.945 556.91 140.561 556.91 137.561V137.314ZM559.037 137.684C559.037 140.109 559.523 142.025 560.496 143.432C561.469 144.826 562.84 145.523 564.609 145.523C567.199 145.523 569.039 144.381 570.129 142.096V133.166C569.039 130.693 567.211 129.457 564.645 129.457C562.875 129.457 561.498 130.154 560.514 131.549C559.529 132.932 559.037 134.977 559.037 137.684ZM589.148 142.166C589.148 141.123 588.727 140.285 587.883 139.652C587.051 139.02 585.791 138.527 584.104 138.176C582.416 137.812 581.104 137.402 580.166 136.945C579.24 136.477 578.549 135.908 578.092 135.24C577.646 134.572 577.424 133.764 577.424 132.814C577.424 131.314 578.051 130.078 579.305 129.105C580.559 128.121 582.164 127.629 584.121 127.629C586.242 127.629 587.941 128.156 589.219 129.211C590.508 130.254 591.152 131.619 591.152 133.307H589.043C589.043 132.193 588.574 131.268 587.637 130.529C586.711 129.791 585.539 129.422 584.121 129.422C582.738 129.422 581.625 129.732 580.781 130.354C579.949 130.963 579.533 131.76 579.533 132.744C579.533 133.693 579.879 134.432 580.57 134.959C581.273 135.475 582.545 135.949 584.385 136.383C586.236 136.816 587.619 137.279 588.533 137.771C589.459 138.264 590.145 138.855 590.59 139.547C591.035 140.238 591.258 141.076 591.258 142.061C591.258 143.666 590.607 144.949 589.307 145.91C588.018 146.871 586.33 147.352 584.244 147.352C582.029 147.352 580.23 146.818 578.848 145.752C577.477 144.674 576.791 143.314 576.791 141.674H578.9C578.982 142.904 579.498 143.865 580.447 144.557C581.408 145.236 582.674 145.576 584.244 145.576C585.709 145.576 586.893 145.254 587.795 144.609C588.697 143.965 589.148 143.15 589.148 142.166ZM608.027 123.111V127.98H611.965V129.703H608.027V142.377C608.027 143.432 608.215 144.217 608.59 144.732C608.977 145.248 609.615 145.506 610.506 145.506C610.857 145.506 611.426 145.447 612.211 145.33L612.299 147.053C611.748 147.252 610.998 147.352 610.049 147.352C608.607 147.352 607.559 146.936 606.902 146.104C606.246 145.26 605.918 144.023 605.918 142.395V129.703H602.42V127.98H605.918V123.111H608.027ZM614.812 137.209C614.812 135.381 615.164 133.734 615.867 132.27C616.582 130.805 617.584 129.668 618.873 128.859C620.174 128.039 621.645 127.629 623.285 127.629C625.816 127.629 627.867 128.52 629.438 130.301C631.008 132.07 631.793 134.42 631.793 137.35V137.789C631.793 139.629 631.436 141.287 630.721 142.764C630.018 144.229 629.021 145.359 627.732 146.156C626.443 146.953 624.973 147.352 623.32 147.352C620.801 147.352 618.75 146.467 617.168 144.697C615.598 142.916 614.812 140.561 614.812 137.631V137.209ZM616.922 137.789C616.922 140.062 617.508 141.932 618.68 143.396C619.863 144.85 621.41 145.576 623.32 145.576C625.219 145.576 626.754 144.85 627.926 143.396C629.109 141.932 629.701 140.004 629.701 137.613V137.209C629.701 135.756 629.432 134.426 628.893 133.219C628.354 132.012 627.598 131.08 626.625 130.424C625.652 129.756 624.539 129.422 623.285 129.422C621.41 129.422 619.881 130.16 618.697 131.637C617.514 133.102 616.922 135.023 616.922 137.402V137.789ZM653.695 129.773C653.25 129.691 652.775 129.65 652.271 129.65C650.959 129.65 649.846 130.02 648.932 130.758C648.029 131.484 647.385 132.545 646.998 133.939V147H644.906V127.98H646.963L646.998 131.004C648.111 128.754 649.898 127.629 652.359 127.629C652.945 127.629 653.408 127.705 653.748 127.857L653.695 129.773ZM664.049 147.352C662.432 147.352 660.967 146.953 659.654 146.156C658.354 145.359 657.34 144.252 656.613 142.834C655.887 141.404 655.523 139.805 655.523 138.035V137.279C655.523 135.451 655.875 133.805 656.578 132.34C657.293 130.875 658.283 129.727 659.549 128.895C660.814 128.051 662.186 127.629 663.662 127.629C665.971 127.629 667.799 128.42 669.146 130.002C670.506 131.572 671.186 133.723 671.186 136.453V137.631H657.615V138.035C657.615 140.191 658.23 141.99 659.461 143.432C660.703 144.861 662.262 145.576 664.137 145.576C665.262 145.576 666.252 145.371 667.107 144.961C667.975 144.551 668.76 143.895 669.463 142.992L670.781 143.994C669.234 146.232 666.99 147.352 664.049 147.352ZM663.662 129.422C662.08 129.422 660.744 130.002 659.654 131.162C658.576 132.322 657.92 133.881 657.686 135.838H669.094V135.609C669.035 133.781 668.514 132.293 667.529 131.145C666.545 129.996 665.256 129.422 663.662 129.422ZM686.672 142.166C686.672 141.123 686.25 140.285 685.406 139.652C684.574 139.02 683.314 138.527 681.627 138.176C679.939 137.812 678.627 137.402 677.689 136.945C676.764 136.477 676.072 135.908 675.615 135.24C675.17 134.572 674.947 133.764 674.947 132.814C674.947 131.314 675.574 130.078 676.828 129.105C678.082 128.121 679.688 127.629 681.645 127.629C683.766 127.629 685.465 128.156 686.742 129.211C688.031 130.254 688.676 131.619 688.676 133.307H686.566C686.566 132.193 686.098 131.268 685.16 130.529C684.234 129.791 683.062 129.422 681.645 129.422C680.262 129.422 679.148 129.732 678.305 130.354C677.473 130.963 677.057 131.76 677.057 132.744C677.057 133.693 677.402 134.432 678.094 134.959C678.797 135.475 680.068 135.949 681.908 136.383C683.76 136.816 685.143 137.279 686.057 137.771C686.982 138.264 687.668 138.855 688.113 139.547C688.559 140.238 688.781 141.076 688.781 142.061C688.781 143.666 688.131 144.949 686.83 145.91C685.541 146.871 683.854 147.352 681.768 147.352C679.553 147.352 677.754 146.818 676.371 145.752C675 144.674 674.314 143.314 674.314 141.674H676.424C676.506 142.904 677.021 143.865 677.971 144.557C678.932 145.236 680.197 145.576 681.768 145.576C683.232 145.576 684.416 145.254 685.318 144.609C686.221 143.965 686.672 143.15 686.672 142.166ZM696.797 123.111V127.98H700.734V129.703H696.797V142.377C696.797 143.432 696.984 144.217 697.359 144.732C697.746 145.248 698.385 145.506 699.275 145.506C699.627 145.506 700.195 145.447 700.98 145.33L701.068 147.053C700.518 147.252 699.768 147.352 698.818 147.352C697.377 147.352 696.328 146.936 695.672 146.104C695.016 145.26 694.688 144.023 694.688 142.395V129.703H691.189V127.98H694.688V123.111H696.797ZM717.1 147C716.889 146.402 716.754 145.518 716.695 144.346C715.957 145.307 715.014 146.051 713.865 146.578C712.729 147.094 711.521 147.352 710.244 147.352C708.416 147.352 706.934 146.842 705.797 145.822C704.672 144.803 704.109 143.514 704.109 141.955C704.109 140.104 704.877 138.639 706.412 137.561C707.959 136.482 710.109 135.943 712.863 135.943H716.678V133.781C716.678 132.422 716.256 131.355 715.412 130.582C714.58 129.797 713.361 129.404 711.756 129.404C710.291 129.404 709.078 129.779 708.117 130.529C707.156 131.279 706.676 132.182 706.676 133.236L704.566 133.219C704.566 131.707 705.27 130.4 706.676 129.299C708.082 128.186 709.811 127.629 711.861 127.629C713.982 127.629 715.652 128.162 716.871 129.229C718.102 130.283 718.734 131.76 718.77 133.658V142.658C718.77 144.498 718.963 145.875 719.35 146.789V147H717.1ZM710.49 145.488C711.896 145.488 713.15 145.148 714.252 144.469C715.365 143.789 716.174 142.881 716.678 141.744V137.561H712.916C710.818 137.584 709.178 137.971 707.994 138.721C706.811 139.459 706.219 140.479 706.219 141.779C706.219 142.846 706.611 143.73 707.396 144.434C708.193 145.137 709.225 145.488 710.49 145.488ZM733.184 129.773C732.738 129.691 732.264 129.65 731.76 129.65C730.447 129.65 729.334 130.02 728.42 130.758C727.518 131.484 726.873 132.545 726.486 133.939V147H724.395V127.98H726.451L726.486 131.004C727.6 128.754 729.387 127.629 731.848 127.629C732.434 127.629 732.896 127.705 733.236 127.857L733.184 129.773ZM740.672 123.111V127.98H744.609V129.703H740.672V142.377C740.672 143.432 740.859 144.217 741.234 144.732C741.621 145.248 742.26 145.506 743.15 145.506C743.502 145.506 744.07 145.447 744.855 145.33L744.943 147.053C744.393 147.252 743.643 147.352 742.693 147.352C741.252 147.352 740.203 146.936 739.547 146.104C738.891 145.26 738.562 144.023 738.562 142.395V129.703H735.064V127.98H738.562V123.111H740.672ZM748.775 145.734C748.775 145.324 748.904 144.979 749.162 144.697C749.432 144.404 749.801 144.258 750.27 144.258C750.738 144.258 751.107 144.404 751.377 144.697C751.646 144.979 751.781 145.324 751.781 145.734C751.781 146.145 751.646 146.484 751.377 146.754C751.107 147.012 750.738 147.141 750.27 147.141C749.801 147.141 749.432 147.012 749.162 146.754C748.904 146.484 748.775 146.145 748.775 145.734ZM7.96289 182.092L8.75391 186.064L9.7207 182.268L15.2754 163.406H17.2266L22.7109 182.268L23.6602 186.1L24.5039 182.092L29.127 163.406H31.3418L24.7852 189H22.7109L16.9102 168.979L16.2598 166.447L15.627 168.979L9.68555 189H7.61133L1.07227 163.406H3.28711L7.96289 182.092ZM41.8184 189.352C40.2012 189.352 38.7363 188.953 37.4238 188.156C36.123 187.359 35.1094 186.252 34.3828 184.834C33.6562 183.404 33.293 181.805 33.293 180.035V179.279C33.293 177.451 33.6445 175.805 34.3477 174.34C35.0625 172.875 36.0527 171.727 37.3184 170.895C38.584 170.051 39.9551 169.629 41.4316 169.629C43.7402 169.629 45.5684 170.42 46.916 172.002C48.2754 173.572 48.9551 175.723 48.9551 178.453V179.631H35.3848V180.035C35.3848 182.191 36 183.99 37.2305 185.432C38.4727 186.861 40.0312 187.576 41.9062 187.576C43.0312 187.576 44.0215 187.371 44.877 186.961C45.7441 186.551 46.5293 185.895 47.2324 184.992L48.5508 185.994C47.0039 188.232 44.7598 189.352 41.8184 189.352ZM41.4316 171.422C39.8496 171.422 38.5137 172.002 37.4238 173.162C36.3457 174.322 35.6895 175.881 35.4551 177.838H46.8633V177.609C46.8047 175.781 46.2832 174.293 45.2988 173.145C44.3145 171.996 43.0254 171.422 41.4316 171.422ZM51.2402 169.682L49.9922 168.768C51.0469 167.35 51.5918 165.861 51.627 164.303V162H53.7012V163.775C53.7012 166.225 52.8809 168.193 51.2402 169.682ZM66.832 171.773C66.3867 171.691 65.9121 171.65 65.4082 171.65C64.0957 171.65 62.9824 172.02 62.0684 172.758C61.166 173.484 60.5215 174.545 60.1348 175.939V189H58.043V169.98H60.0996L60.1348 173.004C61.248 170.754 63.0352 169.629 65.4961 169.629C66.082 169.629 66.5449 169.705 66.8848 169.857L66.832 171.773ZM77.1855 189.352C75.5684 189.352 74.1035 188.953 72.791 188.156C71.4902 187.359 70.4766 186.252 69.75 184.834C69.0234 183.404 68.6602 181.805 68.6602 180.035V179.279C68.6602 177.451 69.0117 175.805 69.7148 174.34C70.4297 172.875 71.4199 171.727 72.6855 170.895C73.9512 170.051 75.3223 169.629 76.7988 169.629C79.1074 169.629 80.9355 170.42 82.2832 172.002C83.6426 173.572 84.3223 175.723 84.3223 178.453V179.631H70.752V180.035C70.752 182.191 71.3672 183.99 72.5977 185.432C73.8398 186.861 75.3984 187.576 77.2734 187.576C78.3984 187.576 79.3887 187.371 80.2441 186.961C81.1113 186.551 81.8965 185.895 82.5996 184.992L83.918 185.994C82.3711 188.232 80.127 189.352 77.1855 189.352ZM76.7988 171.422C75.2168 171.422 73.8809 172.002 72.791 173.162C71.7129 174.322 71.0566 175.881 70.8223 177.838H82.2305V177.609C82.1719 175.781 81.6504 174.293 80.666 173.145C79.6816 171.996 78.3926 171.422 76.7988 171.422ZM99.4395 169.98V191.268C99.4395 193.025 99.0176 194.367 98.1738 195.293C97.3301 196.219 96.0879 196.682 94.4473 196.682C93.8145 196.682 93.1992 196.57 92.6016 196.348L92.6367 194.607C93.1523 194.76 93.6797 194.836 94.2188 194.836C96.3047 194.836 97.3477 193.635 97.3477 191.232V169.98H99.4395ZM98.4023 163.055C98.8594 163.055 99.2168 163.195 99.4746 163.477C99.7324 163.746 99.8613 164.08 99.8613 164.479C99.8613 164.877 99.7324 165.211 99.4746 165.48C99.2168 165.75 98.8594 165.885 98.4023 165.885C97.957 165.885 97.6055 165.75 97.3477 165.48C97.1016 165.211 96.9785 164.877 96.9785 164.479C96.9785 164.08 97.1016 163.746 97.3477 163.477C97.6055 163.195 97.957 163.055 98.4023 163.055ZM117.633 186.592C116.367 188.432 114.346 189.352 111.568 189.352C109.541 189.352 108 188.766 106.945 187.594C105.891 186.41 105.352 184.664 105.328 182.355V169.98H107.42V182.092C107.42 185.713 108.885 187.523 111.814 187.523C114.861 187.523 116.789 186.264 117.598 183.744V169.98H119.707V189H117.668L117.633 186.592ZM136.582 184.166C136.582 183.123 136.16 182.285 135.316 181.652C134.484 181.02 133.225 180.527 131.537 180.176C129.85 179.812 128.537 179.402 127.6 178.945C126.674 178.477 125.982 177.908 125.525 177.24C125.08 176.572 124.857 175.764 124.857 174.814C124.857 173.314 125.484 172.078 126.738 171.105C127.992 170.121 129.598 169.629 131.555 169.629C133.676 169.629 135.375 170.156 136.652 171.211C137.941 172.254 138.586 173.619 138.586 175.307H136.477C136.477 174.193 136.008 173.268 135.07 172.529C134.145 171.791 132.973 171.422 131.555 171.422C130.172 171.422 129.059 171.732 128.215 172.354C127.383 172.963 126.967 173.76 126.967 174.744C126.967 175.693 127.312 176.432 128.004 176.959C128.707 177.475 129.979 177.949 131.818 178.383C133.67 178.816 135.053 179.279 135.967 179.771C136.893 180.264 137.578 180.855 138.023 181.547C138.469 182.238 138.691 183.076 138.691 184.061C138.691 185.666 138.041 186.949 136.74 187.91C135.451 188.871 133.764 189.352 131.678 189.352C129.463 189.352 127.664 188.818 126.281 187.752C124.91 186.674 124.225 185.314 124.225 183.674H126.334C126.416 184.904 126.932 185.865 127.881 186.557C128.842 187.236 130.107 187.576 131.678 187.576C133.143 187.576 134.326 187.254 135.229 186.609C136.131 185.965 136.582 185.15 136.582 184.166ZM146.707 165.111V169.98H150.645V171.703H146.707V184.377C146.707 185.432 146.895 186.217 147.27 186.732C147.656 187.248 148.295 187.506 149.186 187.506C149.537 187.506 150.105 187.447 150.891 187.33L150.979 189.053C150.428 189.252 149.678 189.352 148.729 189.352C147.287 189.352 146.238 188.936 145.582 188.104C144.926 187.26 144.598 186.023 144.598 184.395V171.703H141.1V169.98H144.598V165.111H146.707ZM165.674 169.98L165.744 173.074C166.447 171.926 167.326 171.064 168.381 170.49C169.436 169.916 170.607 169.629 171.896 169.629C174.896 169.629 176.801 170.859 177.609 173.32C178.289 172.137 179.197 171.229 180.334 170.596C181.471 169.951 182.725 169.629 184.096 169.629C188.174 169.629 190.254 171.855 190.336 176.309V189H188.227V176.467C188.215 174.768 187.846 173.508 187.119 172.688C186.404 171.867 185.232 171.457 183.604 171.457C182.092 171.48 180.814 171.973 179.771 172.934C178.729 173.883 178.148 175.043 178.031 176.414V189H175.922V176.309C175.91 174.68 175.523 173.467 174.762 172.67C174.012 171.861 172.852 171.457 171.281 171.457C169.957 171.457 168.82 171.838 167.871 172.6C166.922 173.35 166.219 174.469 165.762 175.957V189H163.652V169.98H165.674ZM203.045 189.352C201.428 189.352 199.963 188.953 198.65 188.156C197.35 187.359 196.336 186.252 195.609 184.834C194.883 183.404 194.52 181.805 194.52 180.035V179.279C194.52 177.451 194.871 175.805 195.574 174.34C196.289 172.875 197.279 171.727 198.545 170.895C199.811 170.051 201.182 169.629 202.658 169.629C204.967 169.629 206.795 170.42 208.143 172.002C209.502 173.572 210.182 175.723 210.182 178.453V179.631H196.611V180.035C196.611 182.191 197.227 183.99 198.457 185.432C199.699 186.861 201.258 187.576 203.133 187.576C204.258 187.576 205.248 187.371 206.104 186.961C206.971 186.551 207.756 185.895 208.459 184.992L209.777 185.994C208.23 188.232 205.986 189.352 203.045 189.352ZM202.658 171.422C201.076 171.422 199.74 172.002 198.65 173.162C197.572 174.322 196.916 175.881 196.682 177.838H208.09V177.609C208.031 175.781 207.51 174.293 206.525 173.145C205.541 171.996 204.252 171.422 202.658 171.422ZM225.668 184.166C225.668 183.123 225.246 182.285 224.402 181.652C223.57 181.02 222.311 180.527 220.623 180.176C218.936 179.812 217.623 179.402 216.686 178.945C215.76 178.477 215.068 177.908 214.611 177.24C214.166 176.572 213.943 175.764 213.943 174.814C213.943 173.314 214.57 172.078 215.824 171.105C217.078 170.121 218.684 169.629 220.641 169.629C222.762 169.629 224.461 170.156 225.738 171.211C227.027 172.254 227.672 173.619 227.672 175.307H225.562C225.562 174.193 225.094 173.268 224.156 172.529C223.23 171.791 222.059 171.422 220.641 171.422C219.258 171.422 218.145 171.732 217.301 172.354C216.469 172.963 216.053 173.76 216.053 174.744C216.053 175.693 216.398 176.432 217.09 176.959C217.793 177.475 219.064 177.949 220.904 178.383C222.756 178.816 224.139 179.279 225.053 179.771C225.979 180.264 226.664 180.855 227.109 181.547C227.555 182.238 227.777 183.076 227.777 184.061C227.777 185.666 227.127 186.949 225.826 187.91C224.537 188.871 222.85 189.352 220.764 189.352C218.549 189.352 216.75 188.818 215.367 187.752C213.996 186.674 213.311 185.314 213.311 183.674H215.42C215.502 184.904 216.018 185.865 216.967 186.557C217.928 187.236 219.193 187.576 220.764 187.576C222.229 187.576 223.412 187.254 224.314 186.609C225.217 185.965 225.668 185.15 225.668 184.166ZM243.914 184.166C243.914 183.123 243.492 182.285 242.648 181.652C241.816 181.02 240.557 180.527 238.869 180.176C237.182 179.812 235.869 179.402 234.932 178.945C234.006 178.477 233.314 177.908 232.857 177.24C232.412 176.572 232.189 175.764 232.189 174.814C232.189 173.314 232.816 172.078 234.07 171.105C235.324 170.121 236.93 169.629 238.887 169.629C241.008 169.629 242.707 170.156 243.984 171.211C245.273 172.254 245.918 173.619 245.918 175.307H243.809C243.809 174.193 243.34 173.268 242.402 172.529C241.477 171.791 240.305 171.422 238.887 171.422C237.504 171.422 236.391 171.732 235.547 172.354C234.715 172.963 234.299 173.76 234.299 174.744C234.299 175.693 234.645 176.432 235.336 176.959C236.039 177.475 237.311 177.949 239.15 178.383C241.002 178.816 242.385 179.279 243.299 179.771C244.225 180.264 244.91 180.855 245.355 181.547C245.801 182.238 246.023 183.076 246.023 184.061C246.023 185.666 245.373 186.949 244.072 187.91C242.783 188.871 241.096 189.352 239.01 189.352C236.795 189.352 234.996 188.818 233.613 187.752C232.242 186.674 231.557 185.314 231.557 183.674H233.666C233.748 184.904 234.264 185.865 235.213 186.557C236.174 187.236 237.439 187.576 239.01 187.576C240.475 187.576 241.658 187.254 242.561 186.609C243.463 185.965 243.914 185.15 243.914 184.166ZM253.125 189H251.016V169.98H253.125V189ZM250.646 164.479C250.646 164.08 250.775 163.746 251.033 163.477C251.291 163.195 251.643 163.055 252.088 163.055C252.533 163.055 252.885 163.195 253.143 163.477C253.412 163.746 253.547 164.08 253.547 164.479C253.547 164.877 253.412 165.211 253.143 165.48C252.885 165.75 252.533 165.885 252.088 165.885C251.643 165.885 251.291 165.75 251.033 165.48C250.775 165.211 250.646 164.877 250.646 164.479ZM260.859 169.98L260.93 173.232C261.645 172.061 262.535 171.17 263.602 170.561C264.668 169.939 265.846 169.629 267.135 169.629C269.174 169.629 270.691 170.203 271.688 171.352C272.684 172.5 273.188 174.223 273.199 176.52V189H271.107V176.502C271.096 174.803 270.732 173.537 270.018 172.705C269.314 171.873 268.184 171.457 266.625 171.457C265.324 171.457 264.17 171.867 263.162 172.688C262.166 173.496 261.428 174.592 260.947 175.975V189H258.855V169.98H260.859ZM277.805 179.314C277.805 176.338 278.461 173.982 279.773 172.248C281.098 170.502 282.891 169.629 285.152 169.629C287.742 169.629 289.711 170.66 291.059 172.723L291.164 169.98H293.133V188.613C293.133 191.062 292.447 193.002 291.076 194.432C289.705 195.861 287.848 196.576 285.504 196.576C284.18 196.576 282.914 196.277 281.707 195.68C280.512 195.094 279.568 194.309 278.877 193.324L280.055 192.059C281.543 193.887 283.312 194.801 285.363 194.801C287.121 194.801 288.492 194.279 289.477 193.236C290.461 192.205 290.971 190.77 291.006 188.93V186.539C289.658 188.414 287.695 189.352 285.117 189.352C282.914 189.352 281.145 188.473 279.809 186.715C278.473 184.957 277.805 182.584 277.805 179.596V179.314ZM279.932 179.684C279.932 182.109 280.418 184.025 281.391 185.432C282.363 186.826 283.734 187.523 285.504 187.523C288.094 187.523 289.928 186.363 291.006 184.043V175.201C290.514 173.982 289.805 173.057 288.879 172.424C287.953 171.779 286.84 171.457 285.539 171.457C283.77 171.457 282.393 172.154 281.408 173.549C280.424 174.932 279.932 176.977 279.932 179.684ZM319.377 189C319.166 188.402 319.031 187.518 318.973 186.346C318.234 187.307 317.291 188.051 316.143 188.578C315.006 189.094 313.799 189.352 312.521 189.352C310.693 189.352 309.211 188.842 308.074 187.822C306.949 186.803 306.387 185.514 306.387 183.955C306.387 182.104 307.154 180.639 308.689 179.561C310.236 178.482 312.387 177.943 315.141 177.943H318.955V175.781C318.955 174.422 318.533 173.355 317.689 172.582C316.857 171.797 315.639 171.404 314.033 171.404C312.568 171.404 311.355 171.779 310.395 172.529C309.434 173.279 308.953 174.182 308.953 175.236L306.844 175.219C306.844 173.707 307.547 172.4 308.953 171.299C310.359 170.186 312.088 169.629 314.139 169.629C316.26 169.629 317.93 170.162 319.148 171.229C320.379 172.283 321.012 173.76 321.047 175.658V184.658C321.047 186.498 321.24 187.875 321.627 188.789V189H319.377ZM312.768 187.488C314.174 187.488 315.428 187.148 316.529 186.469C317.643 185.789 318.451 184.881 318.955 183.744V179.561H315.193C313.096 179.584 311.455 179.971 310.271 180.721C309.088 181.459 308.496 182.479 308.496 183.779C308.496 184.846 308.889 185.73 309.674 186.434C310.471 187.137 311.502 187.488 312.768 187.488ZM335.461 171.773C335.016 171.691 334.541 171.65 334.037 171.65C332.725 171.65 331.611 172.02 330.697 172.758C329.795 173.484 329.15 174.545 328.764 175.939V189H326.672V169.98H328.729L328.764 173.004C329.877 170.754 331.664 169.629 334.125 169.629C334.711 169.629 335.174 169.705 335.514 169.857L335.461 171.773ZM337.289 179.209C337.289 177.381 337.641 175.734 338.344 174.27C339.059 172.805 340.061 171.668 341.35 170.859C342.65 170.039 344.121 169.629 345.762 169.629C348.293 169.629 350.344 170.52 351.914 172.301C353.484 174.07 354.27 176.42 354.27 179.35V179.789C354.27 181.629 353.912 183.287 353.197 184.764C352.494 186.229 351.498 187.359 350.209 188.156C348.92 188.953 347.449 189.352 345.797 189.352C343.277 189.352 341.227 188.467 339.645 186.697C338.074 184.916 337.289 182.561 337.289 179.631V179.209ZM339.398 179.789C339.398 182.062 339.984 183.932 341.156 185.396C342.34 186.85 343.887 187.576 345.797 187.576C347.695 187.576 349.23 186.85 350.402 185.396C351.586 183.932 352.178 182.004 352.178 179.613V179.209C352.178 177.756 351.908 176.426 351.369 175.219C350.83 174.012 350.074 173.08 349.102 172.424C348.129 171.756 347.016 171.422 345.762 171.422C343.887 171.422 342.357 172.16 341.174 173.637C339.99 175.102 339.398 177.023 339.398 179.402V179.789ZM370.863 186.592C369.598 188.432 367.576 189.352 364.799 189.352C362.771 189.352 361.23 188.766 360.176 187.594C359.121 186.41 358.582 184.664 358.559 182.355V169.98H360.65V182.092C360.65 185.713 362.115 187.523 365.045 187.523C368.092 187.523 370.02 186.264 370.828 183.744V169.98H372.938V189H370.898L370.863 186.592ZM380.426 169.98L380.496 173.232C381.211 172.061 382.102 171.17 383.168 170.561C384.234 169.939 385.412 169.629 386.701 169.629C388.74 169.629 390.258 170.203 391.254 171.352C392.25 172.5 392.754 174.223 392.766 176.52V189H390.674V176.502C390.662 174.803 390.299 173.537 389.584 172.705C388.881 171.873 387.75 171.457 386.191 171.457C384.891 171.457 383.736 171.867 382.729 172.688C381.732 173.496 380.994 174.592 380.514 175.975V189H378.422V169.98H380.426ZM397.371 179.314C397.371 176.361 398.027 174.012 399.34 172.266C400.664 170.508 402.457 169.629 404.719 169.629C407.285 169.629 409.242 170.643 410.59 172.67V162H412.682V189H410.713L410.625 186.469C409.277 188.391 407.297 189.352 404.684 189.352C402.492 189.352 400.723 188.473 399.375 186.715C398.039 184.945 397.371 182.561 397.371 179.561V179.314ZM399.498 179.684C399.498 182.109 399.984 184.025 400.957 185.432C401.93 186.826 403.301 187.523 405.07 187.523C407.66 187.523 409.5 186.381 410.59 184.096V175.166C409.5 172.693 407.672 171.457 405.105 171.457C403.336 171.457 401.959 172.154 400.975 173.549C399.99 174.932 399.498 176.977 399.498 179.684ZM431.525 184.623L431.842 186.258L432.264 184.535L436.834 169.98H438.627L443.145 184.412L443.637 186.416L444.041 184.57L447.943 169.98H450.123L444.586 189H442.793L437.906 173.918L437.678 172.881L437.449 173.936L432.65 189H430.857L425.338 169.98H427.5L431.525 184.623ZM456.469 189H454.359V169.98H456.469V189ZM453.99 164.479C453.99 164.08 454.119 163.746 454.377 163.477C454.635 163.195 454.986 163.055 455.432 163.055C455.877 163.055 456.229 163.195 456.486 163.477C456.756 163.746 456.891 164.08 456.891 164.479C456.891 164.877 456.756 165.211 456.486 165.48C456.229 165.75 455.877 165.885 455.432 165.885C454.986 165.885 454.635 165.75 454.377 165.48C454.119 165.211 453.99 164.877 453.99 164.479ZM465.469 165.111V169.98H469.406V171.703H465.469V184.377C465.469 185.432 465.656 186.217 466.031 186.732C466.418 187.248 467.057 187.506 467.947 187.506C468.299 187.506 468.867 187.447 469.652 187.33L469.74 189.053C469.189 189.252 468.439 189.352 467.49 189.352C466.049 189.352 465 188.936 464.344 188.104C463.688 187.26 463.359 186.023 463.359 184.395V171.703H459.861V169.98H463.359V165.111H465.469ZM475.857 173.197C476.549 172.061 477.434 171.182 478.512 170.561C479.59 169.939 480.768 169.629 482.045 169.629C484.084 169.629 485.602 170.203 486.598 171.352C487.594 172.5 488.098 174.223 488.109 176.52V189H486.018V176.502C486.006 174.803 485.643 173.537 484.928 172.705C484.225 171.873 483.094 171.457 481.535 171.457C480.234 171.457 479.08 171.867 478.072 172.688C477.076 173.496 476.338 174.592 475.857 175.975V189H473.766V162H475.857V173.197ZM508.307 185.977L513.861 169.98H516.129L508.008 192.234L507.586 193.219C506.543 195.527 504.932 196.682 502.752 196.682C502.248 196.682 501.709 196.6 501.135 196.436L501.117 194.695L502.207 194.801C503.238 194.801 504.07 194.543 504.703 194.027C505.348 193.523 505.893 192.65 506.338 191.408L507.27 188.842L500.098 169.98H502.4L508.307 185.977ZM517.957 179.209C517.957 177.381 518.309 175.734 519.012 174.27C519.727 172.805 520.729 171.668 522.018 170.859C523.318 170.039 524.789 169.629 526.43 169.629C528.961 169.629 531.012 170.52 532.582 172.301C534.152 174.07 534.938 176.42 534.938 179.35V179.789C534.938 181.629 534.58 183.287 533.865 184.764C533.162 186.229 532.166 187.359 530.877 188.156C529.588 188.953 528.117 189.352 526.465 189.352C523.945 189.352 521.895 188.467 520.312 186.697C518.742 184.916 517.957 182.561 517.957 179.631V179.209ZM520.066 179.789C520.066 182.062 520.652 183.932 521.824 185.396C523.008 186.85 524.555 187.576 526.465 187.576C528.363 187.576 529.898 186.85 531.07 185.396C532.254 183.932 532.846 182.004 532.846 179.613V179.209C532.846 177.756 532.576 176.426 532.037 175.219C531.498 174.012 530.742 173.08 529.77 172.424C528.797 171.756 527.684 171.422 526.43 171.422C524.555 171.422 523.025 172.16 521.842 173.637C520.658 175.102 520.066 177.023 520.066 179.402V179.789ZM551.531 186.592C550.266 188.432 548.244 189.352 545.467 189.352C543.439 189.352 541.898 188.766 540.844 187.594C539.789 186.41 539.25 184.664 539.227 182.355V169.98H541.318V182.092C541.318 185.713 542.783 187.523 545.713 187.523C548.76 187.523 550.688 186.264 551.496 183.744V169.98H553.605V189H551.566L551.531 186.592ZM558.65 193.781L557.402 192.867C558.469 191.438 559.02 189.955 559.055 188.42V185.695H561.111V187.893C561.111 190.33 560.291 192.293 558.65 193.781ZM586.125 184.166C586.125 183.123 585.703 182.285 584.859 181.652C584.027 181.02 582.768 180.527 581.08 180.176C579.393 179.812 578.08 179.402 577.143 178.945C576.217 178.477 575.525 177.908 575.068 177.24C574.623 176.572 574.4 175.764 574.4 174.814C574.4 173.314 575.027 172.078 576.281 171.105C577.535 170.121 579.141 169.629 581.098 169.629C583.219 169.629 584.918 170.156 586.195 171.211C587.484 172.254 588.129 173.619 588.129 175.307H586.02C586.02 174.193 585.551 173.268 584.613 172.529C583.688 171.791 582.516 171.422 581.098 171.422C579.715 171.422 578.602 171.732 577.758 172.354C576.926 172.963 576.51 173.76 576.51 174.744C576.51 175.693 576.855 176.432 577.547 176.959C578.25 177.475 579.521 177.949 581.361 178.383C583.213 178.816 584.596 179.279 585.51 179.771C586.436 180.264 587.121 180.855 587.566 181.547C588.012 182.238 588.234 183.076 588.234 184.061C588.234 185.666 587.584 186.949 586.283 187.91C584.994 188.871 583.307 189.352 581.221 189.352C579.006 189.352 577.207 188.818 575.824 187.752C574.453 186.674 573.768 185.314 573.768 183.674H575.877C575.959 184.904 576.475 185.865 577.424 186.557C578.385 187.236 579.65 187.576 581.221 187.576C582.686 187.576 583.869 187.254 584.771 186.609C585.674 185.965 586.125 185.15 586.125 184.166ZM591.82 179.209C591.82 177.381 592.172 175.734 592.875 174.27C593.59 172.805 594.592 171.668 595.881 170.859C597.182 170.039 598.652 169.629 600.293 169.629C602.824 169.629 604.875 170.52 606.445 172.301C608.016 174.07 608.801 176.42 608.801 179.35V179.789C608.801 181.629 608.443 183.287 607.729 184.764C607.025 186.229 606.029 187.359 604.74 188.156C603.451 188.953 601.98 189.352 600.328 189.352C597.809 189.352 595.758 188.467 594.176 186.697C592.605 184.916 591.82 182.561 591.82 179.631V179.209ZM593.93 179.789C593.93 182.062 594.516 183.932 595.688 185.396C596.871 186.85 598.418 187.576 600.328 187.576C602.227 187.576 603.762 186.85 604.934 185.396C606.117 183.932 606.709 182.004 606.709 179.613V179.209C606.709 177.756 606.439 176.426 605.9 175.219C605.361 174.012 604.605 173.08 603.633 172.424C602.66 171.756 601.547 171.422 600.293 171.422C598.418 171.422 596.889 172.16 595.705 173.637C594.521 175.102 593.93 177.023 593.93 179.402V179.789ZM624.006 173.197C624.697 172.061 625.582 171.182 626.66 170.561C627.738 169.939 628.916 169.629 630.193 169.629C632.232 169.629 633.75 170.203 634.746 171.352C635.742 172.5 636.246 174.223 636.258 176.52V189H634.166V176.502C634.154 174.803 633.791 173.537 633.076 172.705C632.373 171.873 631.242 171.457 629.684 171.457C628.383 171.457 627.229 171.867 626.221 172.688C625.225 173.496 624.486 174.592 624.006 175.975V189H621.914V162H624.006V173.197ZM653.678 189C653.467 188.402 653.332 187.518 653.273 186.346C652.535 187.307 651.592 188.051 650.443 188.578C649.307 189.094 648.1 189.352 646.822 189.352C644.994 189.352 643.512 188.842 642.375 187.822C641.25 186.803 640.688 185.514 640.688 183.955C640.688 182.104 641.455 180.639 642.99 179.561C644.537 178.482 646.688 177.943 649.441 177.943H653.256V175.781C653.256 174.422 652.834 173.355 651.99 172.582C651.158 171.797 649.939 171.404 648.334 171.404C646.869 171.404 645.656 171.779 644.695 172.529C643.734 173.279 643.254 174.182 643.254 175.236L641.145 175.219C641.145 173.707 641.848 172.4 643.254 171.299C644.66 170.186 646.389 169.629 648.439 169.629C650.561 169.629 652.23 170.162 653.449 171.229C654.68 172.283 655.312 173.76 655.348 175.658V184.658C655.348 186.498 655.541 187.875 655.928 188.789V189H653.678ZM647.068 187.488C648.475 187.488 649.729 187.148 650.83 186.469C651.943 185.789 652.752 184.881 653.256 183.744V179.561H649.494C647.396 179.584 645.756 179.971 644.572 180.721C643.389 181.459 642.797 182.479 642.797 183.779C642.797 184.846 643.189 185.73 643.975 186.434C644.771 187.137 645.803 187.488 647.068 187.488ZM666.615 186.1L672.398 169.98H674.561L667.459 189H665.754L658.617 169.98H660.779L666.615 186.1ZM685.143 189.352C683.525 189.352 682.061 188.953 680.748 188.156C679.447 187.359 678.434 186.252 677.707 184.834C676.98 183.404 676.617 181.805 676.617 180.035V179.279C676.617 177.451 676.969 175.805 677.672 174.34C678.387 172.875 679.377 171.727 680.643 170.895C681.908 170.051 683.279 169.629 684.756 169.629C687.064 169.629 688.893 170.42 690.24 172.002C691.6 173.572 692.279 175.723 692.279 178.453V179.631H678.709V180.035C678.709 182.191 679.324 183.99 680.555 185.432C681.797 186.861 683.355 187.576 685.23 187.576C686.355 187.576 687.346 187.371 688.201 186.961C689.068 186.551 689.854 185.895 690.557 184.992L691.875 185.994C690.328 188.232 688.084 189.352 685.143 189.352ZM684.756 171.422C683.174 171.422 681.838 172.002 680.748 173.162C679.67 174.322 679.014 175.881 678.779 177.838H690.188V177.609C690.129 175.781 689.607 174.293 688.623 173.145C687.639 171.996 686.35 171.422 684.756 171.422ZM717.135 189C716.924 188.402 716.789 187.518 716.73 186.346C715.992 187.307 715.049 188.051 713.9 188.578C712.764 189.094 711.557 189.352 710.279 189.352C708.451 189.352 706.969 188.842 705.832 187.822C704.707 186.803 704.145 185.514 704.145 183.955C704.145 182.104 704.912 180.639 706.447 179.561C707.994 178.482 710.145 177.943 712.898 177.943H716.713V175.781C716.713 174.422 716.291 173.355 715.447 172.582C714.615 171.797 713.396 171.404 711.791 171.404C710.326 171.404 709.113 171.779 708.152 172.529C707.191 173.279 706.711 174.182 706.711 175.236L704.602 175.219C704.602 173.707 705.305 172.4 706.711 171.299C708.117 170.186 709.846 169.629 711.896 169.629C714.018 169.629 715.688 170.162 716.906 171.229C718.137 172.283 718.77 173.76 718.805 175.658V184.658C718.805 186.498 718.998 187.875 719.385 188.789V189H717.135ZM710.525 187.488C711.932 187.488 713.186 187.148 714.287 186.469C715.4 185.789 716.209 184.881 716.713 183.744V179.561H712.951C710.854 179.584 709.213 179.971 708.029 180.721C706.846 181.459 706.254 182.479 706.254 183.779C706.254 184.846 706.646 185.73 707.432 186.434C708.229 187.137 709.26 187.488 710.525 187.488ZM732.34 179.314C732.34 176.338 732.996 173.982 734.309 172.248C735.633 170.502 737.426 169.629 739.688 169.629C742.277 169.629 744.246 170.66 745.594 172.723L745.699 169.98H747.668V188.613C747.668 191.062 746.982 193.002 745.611 194.432C744.24 195.861 742.383 196.576 740.039 196.576C738.715 196.576 737.449 196.277 736.242 195.68C735.047 195.094 734.104 194.309 733.412 193.324L734.59 192.059C736.078 193.887 737.848 194.801 739.898 194.801C741.656 194.801 743.027 194.279 744.012 193.236C744.996 192.205 745.506 190.77 745.541 188.93V186.539C744.193 188.414 742.23 189.352 739.652 189.352C737.449 189.352 735.68 188.473 734.344 186.715C733.008 184.957 732.34 182.584 732.34 179.596V179.314ZM734.467 179.684C734.467 182.109 734.953 184.025 735.926 185.432C736.898 186.826 738.27 187.523 740.039 187.523C742.629 187.523 744.463 186.363 745.541 184.043V175.201C745.049 173.982 744.34 173.057 743.414 172.424C742.488 171.779 741.375 171.457 740.074 171.457C738.305 171.457 736.928 172.154 735.943 173.549C734.959 174.932 734.467 176.977 734.467 179.684ZM761.941 171.773C761.496 171.691 761.021 171.65 760.518 171.65C759.205 171.65 758.092 172.02 757.178 172.758C756.275 173.484 755.631 174.545 755.244 175.939V189H753.152V169.98H755.209L755.244 173.004C756.357 170.754 758.145 169.629 760.605 169.629C761.191 169.629 761.654 169.705 761.994 169.857L761.941 171.773ZM772.295 189.352C770.678 189.352 769.213 188.953 767.9 188.156C766.6 187.359 765.586 186.252 764.859 184.834C764.133 183.404 763.77 181.805 763.77 180.035V179.279C763.77 177.451 764.121 175.805 764.824 174.34C765.539 172.875 766.529 171.727 767.795 170.895C769.061 170.051 770.432 169.629 771.908 169.629C774.217 169.629 776.045 170.42 777.393 172.002C778.752 173.572 779.432 175.723 779.432 178.453V179.631H765.861V180.035C765.861 182.191 766.477 183.99 767.707 185.432C768.949 186.861 770.508 187.576 772.383 187.576C773.508 187.576 774.498 187.371 775.354 186.961C776.221 186.551 777.006 185.895 777.709 184.992L779.027 185.994C777.48 188.232 775.236 189.352 772.295 189.352ZM771.908 171.422C770.326 171.422 768.99 172.002 767.9 173.162C766.822 174.322 766.166 175.881 765.932 177.838H777.34V177.609C777.281 175.781 776.76 174.293 775.775 173.145C774.791 171.996 773.502 171.422 771.908 171.422ZM795.533 189C795.322 188.402 795.188 187.518 795.129 186.346C794.391 187.307 793.447 188.051 792.299 188.578C791.162 189.094 789.955 189.352 788.678 189.352C786.85 189.352 785.367 188.842 784.23 187.822C783.105 186.803 782.543 185.514 782.543 183.955C782.543 182.104 783.311 180.639 784.846 179.561C786.393 178.482 788.543 177.943 791.297 177.943H795.111V175.781C795.111 174.422 794.689 173.355 793.846 172.582C793.014 171.797 791.795 171.404 790.189 171.404C788.725 171.404 787.512 171.779 786.551 172.529C785.59 173.279 785.109 174.182 785.109 175.236L783 175.219C783 173.707 783.703 172.4 785.109 171.299C786.516 170.186 788.244 169.629 790.295 169.629C792.416 169.629 794.086 170.162 795.305 171.229C796.535 172.283 797.168 173.76 797.203 175.658V184.658C797.203 186.498 797.396 187.875 797.783 188.789V189H795.533ZM788.924 187.488C790.33 187.488 791.584 187.148 792.686 186.469C793.799 185.789 794.607 184.881 795.111 183.744V179.561H791.35C789.252 179.584 787.611 179.971 786.428 180.721C785.244 181.459 784.652 182.479 784.652 183.779C784.652 184.846 785.045 185.73 785.83 186.434C786.627 187.137 787.658 187.488 788.924 187.488ZM806.098 165.111V169.98H810.035V171.703H806.098V184.377C806.098 185.432 806.285 186.217 806.66 186.732C807.047 187.248 807.686 187.506 808.576 187.506C808.928 187.506 809.496 187.447 810.281 187.33L810.369 189.053C809.818 189.252 809.068 189.352 808.119 189.352C806.678 189.352 805.629 188.936 804.973 188.104C804.316 187.26 803.988 186.023 803.988 184.395V171.703H800.49V169.98H803.988V165.111H806.098ZM17.0508 223.828H5.43164L2.79492 231H0.527344L10.2129 205.406H12.2695L21.9551 231H19.7051L17.0508 223.828ZM6.09961 221.982H16.3652L11.2324 208.043L6.09961 221.982ZM40.5352 221.684C40.5352 224.648 39.8789 227.004 38.5664 228.75C37.2539 230.484 35.4961 231.352 33.293 231.352C30.6914 231.352 28.6992 230.438 27.3164 228.609V238.312H25.2246V211.98H27.1758L27.2812 214.67C28.6523 212.643 30.6387 211.629 33.2402 211.629C35.5137 211.629 37.2949 212.49 38.584 214.213C39.8848 215.936 40.5352 218.326 40.5352 221.385V221.684ZM38.4258 221.314C38.4258 218.889 37.9277 216.973 36.9316 215.566C35.9355 214.16 34.5469 213.457 32.7656 213.457C31.4766 213.457 30.3691 213.768 29.4434 214.389C28.5176 215.01 27.8086 215.912 27.3164 217.096V226.219C27.8203 227.309 28.541 228.141 29.4785 228.715C30.416 229.289 31.5234 229.576 32.8008 229.576C34.5703 229.576 35.9473 228.873 36.9316 227.467C37.9277 226.049 38.4258 223.998 38.4258 221.314ZM54 213.773C53.5547 213.691 53.0801 213.65 52.5762 213.65C51.2637 213.65 50.1504 214.02 49.2363 214.758C48.334 215.484 47.6895 216.545 47.3027 217.939V231H45.2109V211.98H47.2676L47.3027 215.004C48.416 212.754 50.2031 211.629 52.6641 211.629C53.25 211.629 53.7129 211.705 54.0527 211.857L54 213.773ZM59.6953 231H57.5859V211.98H59.6953V231ZM57.2168 206.479C57.2168 206.08 57.3457 205.746 57.6035 205.477C57.8613 205.195 58.2129 205.055 58.6582 205.055C59.1035 205.055 59.4551 205.195 59.7129 205.477C59.9824 205.746 60.1172 206.08 60.1172 206.479C60.1172 206.877 59.9824 207.211 59.7129 207.48C59.4551 207.75 59.1035 207.885 58.6582 207.885C58.2129 207.885 57.8613 207.75 57.6035 207.48C57.3457 207.211 57.2168 206.877 57.2168 206.479ZM67.7812 231H65.6719V204H67.7812V231ZM96.8555 219.047H84.9199V231H82.7578V205.406H98.6133V207.252H84.9199V217.201H96.8555V219.047ZM100.969 221.209C100.969 219.381 101.32 217.734 102.023 216.27C102.738 214.805 103.74 213.668 105.029 212.859C106.33 212.039 107.801 211.629 109.441 211.629C111.973 211.629 114.023 212.52 115.594 214.301C117.164 216.07 117.949 218.42 117.949 221.35V221.789C117.949 223.629 117.592 225.287 116.877 226.764C116.174 228.229 115.178 229.359 113.889 230.156C112.6 230.953 111.129 231.352 109.477 231.352C106.957 231.352 104.906 230.467 103.324 228.697C101.754 226.916 100.969 224.561 100.969 221.631V221.209ZM103.078 221.789C103.078 224.062 103.664 225.932 104.836 227.396C106.02 228.85 107.566 229.576 109.477 229.576C111.375 229.576 112.91 228.85 114.082 227.396C115.266 225.932 115.857 224.004 115.857 221.613V221.209C115.857 219.756 115.588 218.426 115.049 217.219C114.51 216.012 113.754 215.08 112.781 214.424C111.809 213.756 110.695 213.422 109.441 213.422C107.566 213.422 106.037 214.16 104.854 215.637C103.67 217.102 103.078 219.023 103.078 221.402V221.789ZM121.148 221.209C121.148 219.381 121.5 217.734 122.203 216.27C122.918 214.805 123.92 213.668 125.209 212.859C126.51 212.039 127.98 211.629 129.621 211.629C132.152 211.629 134.203 212.52 135.773 214.301C137.344 216.07 138.129 218.42 138.129 221.35V221.789C138.129 223.629 137.771 225.287 137.057 226.764C136.354 228.229 135.357 229.359 134.068 230.156C132.779 230.953 131.309 231.352 129.656 231.352C127.137 231.352 125.086 230.467 123.504 228.697C121.934 226.916 121.148 224.561 121.148 221.631V221.209ZM123.258 221.789C123.258 224.062 123.844 225.932 125.016 227.396C126.199 228.85 127.746 229.576 129.656 229.576C131.555 229.576 133.09 228.85 134.262 227.396C135.445 225.932 136.037 224.004 136.037 221.613V221.209C136.037 219.756 135.768 218.426 135.229 217.219C134.689 216.012 133.934 215.08 132.961 214.424C131.988 213.756 130.875 213.422 129.621 213.422C127.746 213.422 126.217 214.16 125.033 215.637C123.85 217.102 123.258 219.023 123.258 221.402V221.789ZM144.844 231H142.734V204H144.844V231ZM150.17 211.682L148.922 210.768C149.977 209.35 150.521 207.861 150.557 206.303V204H152.631V205.775C152.631 208.225 151.811 210.193 150.17 211.682ZM166.395 226.166C166.395 225.123 165.973 224.285 165.129 223.652C164.297 223.02 163.037 222.527 161.35 222.176C159.662 221.812 158.35 221.402 157.412 220.945C156.486 220.477 155.795 219.908 155.338 219.24C154.893 218.572 154.67 217.764 154.67 216.814C154.67 215.314 155.297 214.078 156.551 213.105C157.805 212.121 159.41 211.629 161.367 211.629C163.488 211.629 165.188 212.156 166.465 213.211C167.754 214.254 168.398 215.619 168.398 217.307H166.289C166.289 216.193 165.82 215.268 164.883 214.529C163.957 213.791 162.785 213.422 161.367 213.422C159.984 213.422 158.871 213.732 158.027 214.354C157.195 214.963 156.779 215.76 156.779 216.744C156.779 217.693 157.125 218.432 157.816 218.959C158.52 219.475 159.791 219.949 161.631 220.383C163.482 220.816 164.865 221.279 165.779 221.771C166.705 222.264 167.391 222.855 167.836 223.547C168.281 224.238 168.504 225.076 168.504 226.061C168.504 227.666 167.854 228.949 166.553 229.91C165.264 230.871 163.576 231.352 161.49 231.352C159.275 231.352 157.477 230.818 156.094 229.752C154.723 228.674 154.037 227.314 154.037 225.674H156.146C156.229 226.904 156.744 227.865 157.693 228.557C158.654 229.236 159.92 229.576 161.49 229.576C162.955 229.576 164.139 229.254 165.041 228.609C165.943 227.965 166.395 227.15 166.395 226.166ZM182.496 231V205.406H189.65C191.748 205.406 193.629 205.887 195.293 206.848C196.957 207.797 198.252 209.162 199.178 210.943C200.115 212.725 200.584 214.752 200.584 217.025V219.381C200.584 221.666 200.121 223.693 199.195 225.463C198.27 227.232 196.963 228.598 195.275 229.559C193.6 230.52 191.672 231 189.492 231H182.496ZM184.658 207.252V229.172H189.51C192.205 229.172 194.367 228.281 195.996 226.5C197.625 224.707 198.439 222.287 198.439 219.24V216.99C198.439 214.049 197.637 211.693 196.031 209.924C194.426 208.154 192.311 207.264 189.686 207.252H184.658ZM217.6 231C217.389 230.402 217.254 229.518 217.195 228.346C216.457 229.307 215.514 230.051 214.365 230.578C213.229 231.094 212.021 231.352 210.744 231.352C208.916 231.352 207.434 230.842 206.297 229.822C205.172 228.803 204.609 227.514 204.609 225.955C204.609 224.104 205.377 222.639 206.912 221.561C208.459 220.482 210.609 219.943 213.363 219.943H217.178V217.781C217.178 216.422 216.756 215.355 215.912 214.582C215.08 213.797 213.861 213.404 212.256 213.404C210.791 213.404 209.578 213.779 208.617 214.529C207.656 215.279 207.176 216.182 207.176 217.236L205.066 217.219C205.066 215.707 205.77 214.4 207.176 213.299C208.582 212.186 210.311 211.629 212.361 211.629C214.482 211.629 216.152 212.162 217.371 213.229C218.602 214.283 219.234 215.76 219.27 217.658V226.658C219.27 228.498 219.463 229.875 219.85 230.789V231H217.6ZM210.99 229.488C212.396 229.488 213.65 229.148 214.752 228.469C215.865 227.789 216.674 226.881 217.178 225.744V221.561H213.416C211.318 221.584 209.678 221.971 208.494 222.721C207.311 223.459 206.719 224.479 206.719 225.779C206.719 226.846 207.111 227.73 207.896 228.434C208.693 229.137 209.725 229.488 210.99 229.488ZM230.643 227.977L236.197 211.98H238.465L230.344 234.234L229.922 235.219C228.879 237.527 227.268 238.682 225.088 238.682C224.584 238.682 224.045 238.6 223.471 238.436L223.453 236.695L224.543 236.801C225.574 236.801 226.406 236.543 227.039 236.027C227.684 235.523 228.229 234.65 228.674 233.408L229.605 230.842L222.434 211.98H224.736L230.643 227.977ZM239.643 229.734C239.643 229.324 239.771 228.979 240.029 228.697C240.299 228.404 240.668 228.258 241.137 228.258C241.605 228.258 241.975 228.404 242.244 228.697C242.514 228.979 242.648 229.324 242.648 229.734C242.648 230.145 242.514 230.484 242.244 230.754C241.975 231.012 241.605 231.141 241.137 231.141C240.668 231.141 240.299 231.012 240.029 230.754C239.771 230.484 239.643 230.145 239.643 229.734ZM15.3281 280.756H19.3184V282.531H15.3281V289H13.2188V282.531H1.17773V281.336L13.0254 263.406H15.3281V280.756ZM3.76172 280.756H13.2188V266.131L12.2871 267.748L3.76172 280.756ZM38.4082 289H22.377V287.383L31.1484 277.434C32.6016 275.758 33.6094 274.375 34.1719 273.285C34.7344 272.195 35.0156 271.135 35.0156 270.104C35.0156 268.486 34.541 267.209 33.5918 266.271C32.6426 265.322 31.3359 264.848 29.6719 264.848C27.9492 264.848 26.5547 265.398 25.4883 266.5C24.4336 267.602 23.9062 269.031 23.9062 270.789H21.8145C21.8145 269.348 22.1367 268.035 22.7812 266.852C23.4375 265.668 24.3633 264.742 25.5586 264.074C26.7656 263.395 28.1367 263.055 29.6719 263.055C32.0156 263.055 33.8438 263.67 35.1562 264.9C36.4805 266.131 37.1426 267.807 37.1426 269.928C37.1426 271.123 36.7676 272.43 36.0176 273.848C35.2793 275.266 33.9727 277.035 32.0977 279.156L24.9609 287.225H38.4082V289ZM41.8535 268.328C41.8535 266.805 42.3223 265.545 43.2598 264.549C44.209 263.541 45.4102 263.037 46.8633 263.037C48.3164 263.037 49.5117 263.541 50.4492 264.549C51.3984 265.545 51.873 266.84 51.873 268.434V269.682C51.873 271.182 51.4043 272.436 50.4668 273.443C49.541 274.439 48.3516 274.938 46.8984 274.938C45.457 274.938 44.2559 274.445 43.2949 273.461C42.334 272.477 41.8535 271.176 41.8535 269.559V268.328ZM43.5586 269.682C43.5586 270.771 43.8574 271.668 44.4551 272.371C45.0645 273.074 45.8789 273.426 46.8984 273.426C47.8945 273.426 48.6855 273.074 49.2715 272.371C49.8691 271.656 50.168 270.736 50.168 269.611V268.328C50.168 267.238 49.8633 266.342 49.2539 265.639C48.6445 264.924 47.8477 264.566 46.8633 264.566C45.8906 264.566 45.0938 264.918 44.4727 265.621C43.8633 266.324 43.5586 267.262 43.5586 268.434V269.682ZM54.7383 282.725C54.7383 281.201 55.207 279.941 56.1445 278.945C57.0938 277.949 58.2891 277.451 59.7305 277.451C61.1719 277.451 62.3672 277.949 63.3164 278.945C64.2773 279.93 64.7578 281.23 64.7578 282.848V284.096C64.7578 285.619 64.2832 286.879 63.334 287.875C62.3965 288.871 61.207 289.369 59.7656 289.369C58.3242 289.369 57.123 288.877 56.1621 287.893C55.2129 286.896 54.7383 285.602 54.7383 284.008V282.725ZM56.4258 284.096C56.4258 285.197 56.7246 286.1 57.3223 286.803C57.9316 287.506 58.7461 287.857 59.7656 287.857C60.7734 287.857 61.5703 287.506 62.1562 286.803C62.7539 286.088 63.0527 285.156 63.0527 284.008V282.725C63.0527 281.6 62.748 280.697 62.1387 280.018C61.541 279.326 60.7383 278.98 59.7305 278.98C58.7461 278.98 57.9492 279.326 57.3398 280.018C56.7305 280.709 56.4258 281.635 56.4258 282.795V284.096ZM47.5664 286.873L46.248 286.029L58.7461 266.025L60.0645 266.869L47.5664 286.873ZM96.6621 281.02C96.3691 283.715 95.4023 285.777 93.7617 287.207C92.1328 288.637 89.959 289.352 87.2402 289.352C85.3418 289.352 83.6602 288.877 82.1953 287.928C80.7422 286.979 79.6172 285.637 78.8203 283.902C78.0234 282.156 77.6191 280.164 77.6074 277.926V274.604C77.6074 272.33 78.0059 270.314 78.8027 268.557C79.5996 266.799 80.7422 265.445 82.2305 264.496C83.7305 263.535 85.4531 263.055 87.3984 263.055C90.1406 263.055 92.3027 263.799 93.8848 265.287C95.4785 266.764 96.4043 268.809 96.6621 271.422H94.4824C93.9434 267.074 91.582 264.9 87.3984 264.9C85.0781 264.9 83.2266 265.768 81.8438 267.502C80.4727 269.236 79.7871 271.633 79.7871 274.691V277.82C79.7871 280.773 80.4551 283.129 81.791 284.887C83.1387 286.645 84.9551 287.523 87.2402 287.523C89.502 287.523 91.207 286.984 92.3555 285.906C93.5039 284.816 94.2129 283.188 94.4824 281.02H96.6621ZM100.266 279.209C100.266 277.381 100.617 275.734 101.32 274.27C102.035 272.805 103.037 271.668 104.326 270.859C105.627 270.039 107.098 269.629 108.738 269.629C111.27 269.629 113.32 270.52 114.891 272.301C116.461 274.07 117.246 276.42 117.246 279.35V279.789C117.246 281.629 116.889 283.287 116.174 284.764C115.471 286.229 114.475 287.359 113.186 288.156C111.896 288.953 110.426 289.352 108.773 289.352C106.254 289.352 104.203 288.467 102.621 286.697C101.051 284.916 100.266 282.561 100.266 279.631V279.209ZM102.375 279.789C102.375 282.062 102.961 283.932 104.133 285.396C105.316 286.85 106.863 287.576 108.773 287.576C110.672 287.576 112.207 286.85 113.379 285.396C114.562 283.932 115.154 282.004 115.154 279.613V279.209C115.154 277.756 114.885 276.426 114.346 275.219C113.807 274.012 113.051 273.08 112.078 272.424C111.105 271.756 109.992 271.422 108.738 271.422C106.863 271.422 105.334 272.16 104.15 273.637C102.967 275.102 102.375 277.023 102.375 279.402V279.789ZM123.521 269.98L123.592 273.074C124.295 271.926 125.174 271.064 126.229 270.49C127.283 269.916 128.455 269.629 129.744 269.629C132.744 269.629 134.648 270.859 135.457 273.32C136.137 272.137 137.045 271.229 138.182 270.596C139.318 269.951 140.572 269.629 141.943 269.629C146.021 269.629 148.102 271.855 148.184 276.309V289H146.074V276.467C146.062 274.768 145.693 273.508 144.967 272.688C144.252 271.867 143.08 271.457 141.451 271.457C139.939 271.48 138.662 271.973 137.619 272.934C136.576 273.883 135.996 275.043 135.879 276.414V289H133.77V276.309C133.758 274.68 133.371 273.467 132.609 272.67C131.859 271.861 130.699 271.457 129.129 271.457C127.805 271.457 126.668 271.838 125.719 272.6C124.77 273.35 124.066 274.469 123.609 275.957V289H121.5V269.98H123.521ZM168.82 279.684C168.82 282.648 168.164 285.004 166.852 286.75C165.539 288.484 163.781 289.352 161.578 289.352C158.977 289.352 156.984 288.438 155.602 286.609V296.312H153.51V269.98H155.461L155.566 272.67C156.938 270.643 158.924 269.629 161.525 269.629C163.799 269.629 165.58 270.49 166.869 272.213C168.17 273.936 168.82 276.326 168.82 279.385V279.684ZM166.711 279.314C166.711 276.889 166.213 274.973 165.217 273.566C164.221 272.16 162.832 271.457 161.051 271.457C159.762 271.457 158.654 271.768 157.729 272.389C156.803 273.01 156.094 273.912 155.602 275.096V284.219C156.105 285.309 156.826 286.141 157.764 286.715C158.701 287.289 159.809 287.576 161.086 287.576C162.855 287.576 164.232 286.873 165.217 285.467C166.213 284.049 166.711 281.998 166.711 279.314ZM175.852 289H173.742V262H175.852V289ZM188.947 289.352C187.33 289.352 185.865 288.953 184.553 288.156C183.252 287.359 182.238 286.252 181.512 284.834C180.785 283.404 180.422 281.805 180.422 280.035V279.279C180.422 277.451 180.773 275.805 181.477 274.34C182.191 272.875 183.182 271.727 184.447 270.895C185.713 270.051 187.084 269.629 188.561 269.629C190.869 269.629 192.697 270.42 194.045 272.002C195.404 273.572 196.084 275.723 196.084 278.453V279.631H182.514V280.035C182.514 282.191 183.129 283.99 184.359 285.432C185.602 286.861 187.16 287.576 189.035 287.576C190.16 287.576 191.15 287.371 192.006 286.961C192.873 286.551 193.658 285.895 194.361 284.992L195.68 285.994C194.133 288.232 191.889 289.352 188.947 289.352ZM188.561 271.422C186.979 271.422 185.643 272.002 184.553 273.162C183.475 274.322 182.818 275.881 182.584 277.838H193.992V277.609C193.934 275.781 193.412 274.293 192.428 273.145C191.443 271.996 190.154 271.422 188.561 271.422ZM203.449 265.111V269.98H207.387V271.703H203.449V284.377C203.449 285.432 203.637 286.217 204.012 286.732C204.398 287.248 205.037 287.506 205.928 287.506C206.279 287.506 206.848 287.447 207.633 287.33L207.721 289.053C207.17 289.252 206.42 289.352 205.471 289.352C204.029 289.352 202.98 288.936 202.324 288.104C201.668 287.26 201.34 286.023 201.34 284.395V271.703H197.842V269.98H201.34V265.111H203.449ZM219.111 289.352C217.494 289.352 216.029 288.953 214.717 288.156C213.416 287.359 212.402 286.252 211.676 284.834C210.949 283.404 210.586 281.805 210.586 280.035V279.279C210.586 277.451 210.938 275.805 211.641 274.34C212.355 272.875 213.346 271.727 214.611 270.895C215.877 270.051 217.248 269.629 218.725 269.629C221.033 269.629 222.861 270.42 224.209 272.002C225.568 273.572 226.248 275.723 226.248 278.453V279.631H212.678V280.035C212.678 282.191 213.293 283.99 214.523 285.432C215.766 286.861 217.324 287.576 219.199 287.576C220.324 287.576 221.314 287.371 222.17 286.961C223.037 286.551 223.822 285.895 224.525 284.992L225.844 285.994C224.297 288.232 222.053 289.352 219.111 289.352ZM218.725 271.422C217.143 271.422 215.807 272.002 214.717 273.162C213.639 274.322 212.982 275.881 212.748 277.838H224.156V277.609C224.098 275.781 223.576 274.293 222.592 273.145C221.607 271.996 220.318 271.422 218.725 271.422ZM229.5 279.314C229.5 276.361 230.156 274.012 231.469 272.266C232.793 270.508 234.586 269.629 236.848 269.629C239.414 269.629 241.371 270.643 242.719 272.67V262H244.811V289H242.842L242.754 286.469C241.406 288.391 239.426 289.352 236.812 289.352C234.621 289.352 232.852 288.473 231.504 286.715C230.168 284.945 229.5 282.561 229.5 279.561V279.314ZM231.627 279.684C231.627 282.109 232.113 284.025 233.086 285.432C234.059 286.826 235.43 287.523 237.199 287.523C239.789 287.523 241.629 286.381 242.719 284.096V275.166C241.629 272.693 239.801 271.457 237.234 271.457C235.465 271.457 234.088 272.154 233.104 273.549C232.119 274.932 231.627 276.977 231.627 279.684Z" fill="white"/>
<path d="M2.15625 350V332.938H7.19531C9.02344 332.938 10.4102 333.316 11.3555 334.074C12.3008 334.824 12.7734 335.934 12.7734 337.402C12.7734 338.285 12.5312 339.055 12.0469 339.711C11.5703 340.359 10.9141 340.824 10.0781 341.105C11.0703 341.324 11.8672 341.812 12.4688 342.57C13.0781 343.328 13.3828 344.203 13.3828 345.195C13.3828 346.703 12.8945 347.883 11.918 348.734C10.9492 349.578 9.59766 350 7.86328 350H2.15625ZM3.59766 341.797V348.781H7.92188C9.15625 348.781 10.1328 348.469 10.8516 347.844C11.5781 347.211 11.9414 346.336 11.9414 345.219C11.9414 344.164 11.5938 343.332 10.8984 342.723C10.2109 342.105 9.25781 341.797 8.03906 341.797H3.59766ZM3.59766 340.59H7.53516C8.73828 340.566 9.66797 340.285 10.3242 339.746C10.9883 339.199 11.3203 338.406 11.3203 337.367C11.3203 336.273 10.9766 335.469 10.2891 334.953C9.60938 334.43 8.57812 334.168 7.19531 334.168H3.59766V340.59ZM23.25 342.898H18.293V350H16.8398V332.938H22.3828C24.2031 332.938 25.625 333.379 26.6484 334.262C27.6719 335.145 28.1836 336.379 28.1836 337.965C28.1836 339.059 27.8633 340.023 27.2227 340.859C26.582 341.695 25.7227 342.273 24.6445 342.594L28.9102 349.848V350H27.375L23.25 342.898ZM18.293 341.668H22.7109C23.9219 341.668 24.8945 341.324 25.6289 340.637C26.3633 339.949 26.7305 339.059 26.7305 337.965C26.7305 336.762 26.3477 335.828 25.582 335.164C24.8164 334.5 23.7422 334.168 22.3594 334.168H18.293V341.668ZM33.8672 350H32.4258V332.938H33.8672V350ZM50.8242 347.973C50.3242 348.684 49.5391 349.238 48.4688 349.637C47.4062 350.035 46.2148 350.234 44.8945 350.234C43.5586 350.234 42.3711 349.914 41.332 349.273C40.293 348.633 39.4883 347.727 38.918 346.555C38.3477 345.383 38.0586 344.039 38.0508 342.523V340.367C38.0508 338 38.6484 336.133 39.8438 334.766C41.0391 333.391 42.6445 332.703 44.6602 332.703C46.418 332.703 47.832 333.152 48.9023 334.051C49.9727 334.941 50.6094 336.172 50.8125 337.742H49.3711C49.1602 336.492 48.6484 335.547 47.8359 334.906C47.0312 334.258 45.9766 333.934 44.6719 333.934C43.0781 333.934 41.8164 334.5 40.8867 335.633C39.957 336.766 39.4922 338.363 39.4922 340.426V342.441C39.4922 343.738 39.7109 344.887 40.1484 345.887C40.5938 346.879 41.2266 347.648 42.0469 348.195C42.875 348.742 43.8242 349.016 44.8945 349.016C46.1367 349.016 47.2031 348.82 48.0938 348.43C48.6719 348.172 49.1016 347.871 49.3828 347.527V343.121H44.8008V341.902H50.8242V347.973ZM67.5586 350H66.1055V341.82H56.3555V350H54.9141V332.938H56.3555V340.602H66.1055V332.938H67.5586V350ZM83.1328 334.168H77.2852V350H75.8438V334.168H70.0078V332.938H83.1328V334.168ZM87.3516 348.781H95.7773V350H85.8984V332.938H87.3516V348.781ZM108 345.219H100.254L98.4961 350H96.9844L103.441 332.938H104.812L111.27 350H109.77L108 345.219ZM100.699 343.988H107.543L104.121 334.695L100.699 343.988ZM117.691 342.242L122.906 332.938H124.57L118.406 343.578V350H116.965V343.578L110.812 332.938H112.523L117.691 342.242ZM136.477 341.82H128.496V348.781H137.672V350H127.055V332.938H137.613V334.168H128.496V340.602H136.477V341.82ZM147.094 342.898H142.137V350H140.684V332.938H146.227C148.047 332.938 149.469 333.379 150.492 334.262C151.516 335.145 152.027 336.379 152.027 337.965C152.027 339.059 151.707 340.023 151.066 340.859C150.426 341.695 149.566 342.273 148.488 342.594L152.754 349.848V350H151.219L147.094 342.898ZM142.137 341.668H146.555C147.766 341.668 148.738 341.324 149.473 340.637C150.207 339.949 150.574 339.059 150.574 337.965C150.574 336.762 150.191 335.828 149.426 335.164C148.66 334.5 147.586 334.168 146.203 334.168H142.137V341.668ZM164.133 351.184H153.809V350H164.133V351.184ZM178.066 332.938V344.586C178.059 345.734 177.805 346.734 177.305 347.586C176.805 348.438 176.098 349.094 175.184 349.555C174.277 350.008 173.234 350.234 172.055 350.234C170.258 350.234 168.816 349.746 167.73 348.77C166.652 347.785 166.094 346.426 166.055 344.691V332.938H167.484V344.48C167.484 345.918 167.895 347.035 168.715 347.832C169.535 348.621 170.648 349.016 172.055 349.016C173.461 349.016 174.57 348.617 175.383 347.82C176.203 347.023 176.613 345.914 176.613 344.492V332.938H178.066ZM191.742 345.805C191.742 344.859 191.41 344.113 190.746 343.566C190.082 343.012 188.867 342.488 187.102 341.996C185.336 341.496 184.047 340.953 183.234 340.367C182.078 339.539 181.5 338.453 181.5 337.109C181.5 335.805 182.035 334.746 183.105 333.934C184.184 333.113 185.559 332.703 187.23 332.703C188.363 332.703 189.375 332.922 190.266 333.359C191.164 333.797 191.859 334.406 192.352 335.188C192.844 335.969 193.09 336.84 193.09 337.801H191.637C191.637 336.637 191.238 335.703 190.441 335C189.645 334.289 188.574 333.934 187.23 333.934C185.926 333.934 184.887 334.227 184.113 334.812C183.34 335.391 182.953 336.148 182.953 337.086C182.953 337.953 183.301 338.66 183.996 339.207C184.691 339.754 185.805 340.238 187.336 340.66C188.867 341.074 190.027 341.508 190.816 341.961C191.605 342.406 192.199 342.941 192.598 343.566C192.996 344.191 193.195 344.93 193.195 345.781C193.195 347.125 192.656 348.203 191.578 349.016C190.508 349.828 189.094 350.234 187.336 350.234C186.133 350.234 185.027 350.02 184.02 349.59C183.02 349.16 182.258 348.559 181.734 347.785C181.219 347.012 180.961 346.125 180.961 345.125H182.402C182.402 346.328 182.852 347.277 183.75 347.973C184.648 348.668 185.844 349.016 187.336 349.016C188.664 349.016 189.73 348.723 190.535 348.137C191.34 347.551 191.742 346.773 191.742 345.805ZM205.734 341.82H197.754V348.781H206.93V350H196.312V332.938H206.871V334.168H197.754V340.602H205.734V341.82ZM216.352 342.898H211.395V350H209.941V332.938H215.484C217.305 332.938 218.727 333.379 219.75 334.262C220.773 335.145 221.285 336.379 221.285 337.965C221.285 339.059 220.965 340.023 220.324 340.859C219.684 341.695 218.824 342.273 217.746 342.594L222.012 349.848V350H220.477L216.352 342.898ZM211.395 341.668H215.812C217.023 341.668 217.996 341.324 218.73 340.637C219.465 339.949 219.832 339.059 219.832 337.965C219.832 336.762 219.449 335.828 218.684 335.164C217.918 334.5 216.844 334.168 215.461 334.168H211.395V341.668ZM233.391 351.184H223.066V350H233.391V351.184ZM237.328 350H235.887V332.938H237.328V350ZM254.672 350H253.23L243.422 335.398V350H241.969V332.938H243.422L253.242 347.551V332.938H254.672V350ZM270.234 334.168H264.387V350H262.945V334.168H257.109V332.938H270.234V334.168ZM282.422 341.82H274.441V348.781H283.617V350H273V332.938H283.559V334.168H274.441V340.602H282.422V341.82ZM293.039 342.898H288.082V350H286.629V332.938H292.172C293.992 332.938 295.414 333.379 296.438 334.262C297.461 335.145 297.973 336.379 297.973 337.965C297.973 339.059 297.652 340.023 297.012 340.859C296.371 341.695 295.512 342.273 294.434 342.594L298.699 349.848V350H297.164L293.039 342.898ZM288.082 341.668H292.5C293.711 341.668 294.684 341.324 295.418 340.637C296.152 339.949 296.52 339.059 296.52 337.965C296.52 336.762 296.137 335.828 295.371 335.164C294.605 334.5 293.531 334.168 292.148 334.168H288.082V341.668ZM311.297 342.031H303.34V350H301.898V332.938H312.469V334.168H303.34V340.801H311.297V342.031ZM322.617 345.219H314.871L313.113 350H311.602L318.059 332.938H319.43L325.887 350H324.387L322.617 345.219ZM315.316 343.988H322.16L318.738 334.695L315.316 343.988ZM340.348 344.68C340.152 346.477 339.508 347.852 338.414 348.805C337.328 349.758 335.879 350.234 334.066 350.234C332.801 350.234 331.68 349.918 330.703 349.285C329.734 348.652 328.984 347.758 328.453 346.602C327.922 345.438 327.652 344.109 327.645 342.617V340.402C327.645 338.887 327.91 337.543 328.441 336.371C328.973 335.199 329.734 334.297 330.727 333.664C331.727 333.023 332.875 332.703 334.172 332.703C336 332.703 337.441 333.199 338.496 334.191C339.559 335.176 340.176 336.539 340.348 338.281H338.895C338.535 335.383 336.961 333.934 334.172 333.934C332.625 333.934 331.391 334.512 330.469 335.668C329.555 336.824 329.098 338.422 329.098 340.461V342.547C329.098 344.516 329.543 346.086 330.434 347.258C331.332 348.43 332.543 349.016 334.066 349.016C335.574 349.016 336.711 348.656 337.477 347.938C338.242 347.211 338.715 346.125 338.895 344.68H340.348ZM353.273 341.82H345.293V348.781H354.469V350H343.852V332.938H354.41V334.168H345.293V340.602H353.273V341.82Z" fill="white"/>
</svg>
