<svg width="300" height="300" viewBox="0 0 300 300" fill="none" xmlns="http://www.w3.org/2000/svg">
<rect width="300" height="300" fill="#E2E5E5"/>
<g filter="url(#filter0_d)">
<rect x="28" y="66" width="244" height="168" rx="4" fill="white"/>
<rect x="28.5" y="66.5" width="243" height="167" rx="3.5" stroke="black"/>
</g>
<line x1="29" y1="110.5" x2="272" y2="110.5" stroke="black"/>
<rect x="41" y="82" width="42" height="13" fill="#CE8799"/>
<rect x="41" y="132" width="32" height="13" rx="6.5" fill="#CE8799"/>
<rect x="98" y="132" width="42" height="13" rx="6.5" fill="#87C6D4"/>
<rect x="41" y="167" width="38" height="13" rx="6.5" fill="#CE8799"/>
<rect x="98" y="167" width="35" height="13" rx="6.5" fill="#87C6D4"/>
<rect x="41" y="202" width="21" height="13" rx="6.5" fill="#CE8799"/>
<rect x="98" y="202" width="27" height="13" rx="6.5" fill="#87C6D4"/>
<rect x="98" y="82" width="42" height="13" fill="#87C6D4"/>
<rect x="155" y="82" width="42" height="13" fill="#C0D49F"/>
<rect x="155" y="132" width="24" height="13" rx="6.5" fill="#C0D49F"/>
<rect x="155" y="167" width="42" height="13" rx="6.5" fill="#C0D49F"/>
<rect x="155" y="202" width="38" height="13" rx="6.5" fill="#C0D49F"/>
<rect x="214" y="82" width="42" height="13" fill="#F5BF33"/>
<rect x="214" y="132" width="42" height="13" rx="6.5" fill="#F5BF33"/>
<rect x="214" y="167" width="24" height="13" rx="6.5" fill="#F5BF33"/>
<rect x="214" y="202" width="35" height="13" rx="6.5" fill="#F5BF33"/>
<defs>
<filter id="filter0_d" x="28" y="66" width="248" height="172" filterUnits="userSpaceOnUse" color-interpolation-filters="sRGB">
<feFlood flood-opacity="0" result="BackgroundImageFix"/>
<feColorMatrix in="SourceAlpha" type="matrix" values="0 0 0 0 0 0 0 0 0 0 0 0 0 0 0 0 0 0 127 0" result="hardAlpha"/>
<feOffset dx="4" dy="4"/>
<feComposite in2="hardAlpha" operator="out"/>
<feColorMatrix type="matrix" values="0 0 0 0 0 0 0 0 0 0 0 0 0 0 0 0 0 0 0.25 0"/>
<feBlend mode="normal" in2="BackgroundImageFix" result="effect1_dropShadow"/>
<feBlend mode="normal" in="SourceGraphic" in2="effect1_dropShadow" result="shape"/>
</filter>
</defs>
</svg>
