<svg width="814" height="458" viewBox="0 0 814 458" fill="none" xmlns="http://www.w3.org/2000/svg">
<rect width="814" height="458" fill="#D5D8DA"/>
<rect x="112" y="42" width="614" height="390" fill="#B9BFC2"/>
<rect x="104" y="34" width="614" height="390" fill="white"/>
<rect x="211" y="53" width="77" height="30" fill="#80BDE0"/>
<rect x="211" y="125" width="67" height="30" fill="#E9ECEC"/>
<rect x="211" y="223" width="91" height="30" fill="#E9ECEC"/>
<rect x="211" y="174" width="74" height="30" fill="#E9ECEC"/>
<rect x="211" y="272" width="74" height="30" fill="#E9ECEC"/>
<rect x="211" y="321" width="89" height="30" fill="#E9ECEC"/>
<rect x="211" y="370" width="38" height="30" fill="#E9ECEC"/>
<rect x="326" y="53" width="132" height="30" fill="#E9ECEC"/>
<rect x="326" y="125" width="94" height="30" fill="#E9ECEC"/>
<rect x="326" y="223" width="66" height="30" fill="#E9ECEC"/>
<rect x="326" y="174" width="114" height="30" fill="#E9ECEC"/>
<rect x="326" y="272" width="114" height="30" fill="#E9ECEC"/>
<rect x="326" y="321" width="132" height="30" fill="#E9ECEC"/>
<rect x="326" y="370" width="94" height="30" fill="#E9ECEC"/>
<rect x="482" y="53" width="94" height="30" fill="#E9ECEC"/>
<rect x="482" y="125" width="27" height="30" fill="#E0EEF8"/>
<rect x="482" y="223" width="42" height="30" fill="#E0EEF8"/>
<rect x="482" y="174" width="56" height="30" fill="#B3D7EC"/>
<rect x="482" y="272" width="48" height="30" fill="#B3D7EC"/>
<rect x="482" y="321" width="87" height="30" fill="#80BDE0"/>
<rect x="482" y="370" width="48" height="30" fill="#E0EEF8"/>
<rect x="600" y="53" width="94" height="30" fill="#E9ECEC"/>
<rect x="600" y="125" width="94" height="30" fill="#E9ECEC"/>
<rect x="600" y="223" width="94" height="30" fill="#E9ECEC"/>
<rect x="600" y="174" width="94" height="30" fill="#E9ECEC"/>
<rect x="600" y="272" width="94" height="30" fill="#E9ECEC"/>
<rect x="600" y="321" width="94" height="30" fill="#E9ECEC"/>
<rect x="600" y="370" width="94" height="30" fill="#E9ECEC"/>
<rect x="126" y="53" width="61" height="30" fill="#E9ECEC"/>
<rect x="126" y="125" width="61" height="30" fill="#E9ECEC"/>
<rect x="126" y="223" width="61" height="30" fill="#E9ECEC"/>
<rect x="126" y="174" width="61" height="30" fill="#E9ECEC"/>
<rect x="126" y="272" width="61" height="30" fill="#E9ECEC"/>
<rect x="126" y="321" width="61" height="30" fill="#E9ECEC"/>
<rect x="126" y="370" width="61" height="30" fill="#E9ECEC"/>
<rect x="104" y="103" width="614" height="3" fill="#D5D8DA"/>
<path d="M297.061 81.0607L298.121 80L297.061 78.9393L295.651 77.5293L294.591 76.4696L293.53 77.5284L290.5 80.5533V72V70.5H289H287H285.5V72V80.5441L282.482 77.5203L281.421 76.4577L280.359 77.5193L278.939 78.9393L277.879 80L278.939 81.0607L286.939 89.0607L288 90.1213L289.061 89.0607L297.061 81.0607Z" fill="#4DA3D4" stroke="white" stroke-width="3"/>
</svg>
