<svg width="800" height="450" viewBox="0 0 800 450" fill="none" xmlns="http://www.w3.org/2000/svg">
<g clip-path="url(#clip0)">
<rect width="800" height="450" fill="#1D2529"/>
<rect x="33" y="24" width="50" height="17" rx="6" fill="#3C474D"/>
<rect x="475" y="24" width="50" height="17" rx="6" fill="#3C474D"/>
<rect x="33" y="65" width="78" height="17" rx="6" fill="#3C474D"/>
<rect x="475" y="65" width="78" height="17" rx="6" fill="#3C474D"/>
<rect x="33" y="311" width="78" height="17" rx="6" fill="#3C474D"/>
<rect x="475" y="311" width="78" height="17" rx="6" fill="#3C474D"/>
<rect x="33" y="106" width="62" height="17" rx="6" fill="#3C474D"/>
<rect x="475" y="106" width="62" height="17" rx="6" fill="#3C474D"/>
<rect x="33" y="352" width="62" height="17" rx="6" fill="#3C474D"/>
<rect x="475" y="352" width="62" height="17" rx="6" fill="#3C474D"/>
<rect x="33" y="393" width="73" height="17" rx="6" fill="#3C474D"/>
<rect x="475" y="393" width="73" height="17" rx="6" fill="#3C474D"/>
<rect x="33" y="434" width="73" height="17" rx="6" fill="#3C474D"/>
<rect x="475" y="434" width="73" height="17" rx="6" fill="#3C474D"/>
<rect x="33" y="147" width="78" height="17" rx="6" fill="#3C474D"/>
<rect x="475" y="147" width="78" height="17" rx="6" fill="#3C474D"/>
<rect x="33" y="188" width="35" height="17" rx="6" fill="#3C474D"/>
<rect x="475" y="188" width="35" height="17" rx="6" fill="#3C474D"/>
<rect x="33" y="229" width="62" height="17" rx="6" fill="#3C474D"/>
<rect x="475" y="229" width="62" height="17" rx="6" fill="#3C474D"/>
<rect x="33" y="270" width="52" height="17" rx="6" fill="#3C474D"/>
<rect x="475" y="270" width="52" height="17" rx="6" fill="#3C474D"/>
<rect x="153" y="188" width="50" height="17" rx="6" fill="#3C474D"/>
<rect x="623" y="188" width="50" height="17" rx="6" fill="#3C474D"/>
<rect x="289" y="147" width="82" height="17" rx="6" fill="#3C474D"/>
<rect x="715" y="147" width="82" height="17" rx="6" fill="#3C474D"/>
<rect x="153" y="229" width="78" height="17" rx="6" fill="#3C474D"/>
<rect x="595" y="229" width="78" height="17" rx="6" fill="#3C474D"/>
<rect x="289" y="229" width="128" height="17" rx="6" fill="#3C474D"/>
<rect x="715" y="229" width="128" height="17" rx="6" fill="#3C474D"/>
<rect x="153" y="24" width="78" height="17" rx="6" fill="#3C474D"/>
<rect x="595" y="24" width="78" height="17" rx="6" fill="#3C474D"/>
<rect x="289" y="65" width="128" height="17" rx="6" fill="#3C474D"/>
<rect x="715" y="65" width="128" height="17" rx="6" fill="#3C474D"/>
<rect x="153" y="270" width="62" height="17" rx="6" fill="#3C474D"/>
<rect x="611" y="270" width="62" height="17" rx="6" fill="#3C474D"/>
<rect x="289" y="270" width="102" height="17" rx="6" fill="#3C474D"/>
<rect x="715" y="270" width="102" height="17" rx="6" fill="#3C474D"/>
<rect x="153" y="65" width="62" height="17" rx="6" fill="#3C474D"/>
<rect x="611" y="65" width="62" height="17" rx="6" fill="#3C474D"/>
<rect x="289" y="434" width="128" height="17" rx="6" fill="#3C474D"/>
<rect x="715" y="434" width="128" height="17" rx="6" fill="#3C474D"/>
<rect x="153" y="106" width="73" height="17" rx="6" fill="#3C474D"/>
<rect x="600" y="106" width="73" height="17" rx="6" fill="#3C474D"/>
<rect x="289" y="24" width="120" height="17" rx="6" fill="#3C474D"/>
<rect x="715" y="24" width="120" height="17" rx="6" fill="#3C474D"/>
<rect x="153" y="147" width="73" height="17" rx="6" fill="#3C474D"/>
<rect x="600" y="147" width="73" height="17" rx="6" fill="#3C474D"/>
<rect x="289" y="188" width="120" height="17" rx="6" fill="#3C474D"/>
<rect x="715" y="188" width="120" height="17" rx="6" fill="#3C474D"/>
<rect x="153" y="311" width="78" height="17" rx="6" fill="#3C474D"/>
<rect x="595" y="311" width="78" height="17" rx="6" fill="#3C474D"/>
<rect x="289" y="311" width="128" height="17" rx="6" fill="#3C474D"/>
<rect x="715" y="311" width="128" height="17" rx="6" fill="#3C474D"/>
<rect x="153" y="352" width="35" height="17" rx="6" fill="#3C474D"/>
<rect x="638" y="352" width="35" height="17" rx="6" fill="#3C474D"/>
<rect x="289" y="106" width="57" height="17" rx="6" fill="#3C474D"/>
<rect x="715" y="106" width="57" height="17" rx="6" fill="#3C474D"/>
<rect x="153" y="393" width="62" height="17" rx="6" fill="#3C474D"/>
<rect x="611" y="393" width="62" height="17" rx="6" fill="#3C474D"/>
<rect x="289" y="352" width="102" height="17" rx="6" fill="#3C474D"/>
<rect x="715" y="352" width="102" height="17" rx="6" fill="#3C474D"/>
<rect x="153" y="434" width="52" height="17" rx="6" fill="#3C474D"/>
<rect x="621" y="434" width="52" height="17" rx="6" fill="#3C474D"/>
<rect x="289" y="393" width="85" height="17" rx="6" fill="#3C474D"/>
<rect x="715" y="393" width="85" height="17" rx="6" fill="#3C474D"/>
<g filter="url(#filter0_ddd)">
<g clip-path="url(#clip1)">
<rect x="313" y="72" width="174" height="306" rx="8" fill="#EEF0F0" fill-opacity="0.6"/>
<g style="mix-blend-mode:lighten" opacity="0.4">
<rect x="475" y="65" width="78" height="17" rx="6" fill="#EEF0F0"/>
</g>
<g style="mix-blend-mode:lighten" opacity="0.4">
<rect x="475" y="311" width="78" height="17" rx="6" fill="#EEF0F0"/>
</g>
<g style="mix-blend-mode:lighten" opacity="0.4">
<rect x="475" y="106" width="62" height="17" rx="6" fill="#EEF0F0"/>
</g>
<g style="mix-blend-mode:lighten" opacity="0.4">
<rect x="475" y="352" width="62" height="17" rx="6" fill="#EEF0F0"/>
</g>
<g style="mix-blend-mode:lighten" opacity="0.4">
<rect x="475" y="147" width="78" height="17" rx="6" fill="#EEF0F0"/>
</g>
<g style="mix-blend-mode:lighten" opacity="0.4">
<rect x="475" y="188" width="35" height="17" rx="6" fill="#EEF0F0"/>
</g>
<g style="mix-blend-mode:lighten" opacity="0.4">
<rect x="475" y="229" width="62" height="17" rx="6" fill="#EEF0F0"/>
</g>
<g style="mix-blend-mode:lighten" opacity="0.4">
<rect x="475" y="270" width="52" height="17" rx="6" fill="#EEF0F0"/>
</g>
<g style="mix-blend-mode:lighten" opacity="0.4">
<rect x="289" y="147" width="82" height="17" rx="6" fill="#EEF0F0"/>
</g>
<g style="mix-blend-mode:lighten" opacity="0.4">
<rect x="289" y="229" width="128" height="17" rx="6" fill="#EEF0F0"/>
</g>
<g style="mix-blend-mode:lighten" opacity="0.4">
<rect x="289" y="65" width="128" height="17" rx="6" fill="#EEF0F0"/>
</g>
<g style="mix-blend-mode:lighten" opacity="0.4">
<rect x="289" y="270" width="102" height="17" rx="6" fill="#EEF0F0"/>
</g>
<g style="mix-blend-mode:lighten" opacity="0.4">
<rect x="289" y="188" width="120" height="17" rx="6" fill="#EEF0F0"/>
</g>
<g style="mix-blend-mode:lighten" opacity="0.4">
<rect x="289" y="311" width="128" height="17" rx="6" fill="#EEF0F0"/>
</g>
<g style="mix-blend-mode:lighten" opacity="0.4">
<rect x="289" y="106" width="57" height="17" rx="6" fill="#EEF0F0"/>
</g>
<g style="mix-blend-mode:lighten" opacity="0.4">
<rect x="289" y="352" width="102" height="17" rx="6" fill="#EEF0F0"/>
</g>
<rect x="313" y="344" width="174" height="35" fill="white"/>
<rect x="313" y="72" width="174" height="38" fill="white"/>
<rect x="376" y="94" width="48" height="4" rx="2" fill="#D5D8DA"/>
<rect x="376" y="356" width="48" height="10" rx="3" fill="#D5D8DA"/>
<circle cx="400" cy="84" r="4" fill="#D5D8DA"/>
</g>
<rect x="314" y="73" width="172" height="304" rx="7" stroke="white" stroke-width="2"/>
</g>
</g>
<defs>
<filter id="filter0_ddd" x="259" y="27" width="282" height="416" filterUnits="userSpaceOnUse" color-interpolation-filters="sRGB">
<feFlood flood-opacity="0" result="BackgroundImageFix"/>
<feColorMatrix in="SourceAlpha" type="matrix" values="0 0 0 0 0 0 0 0 0 0 0 0 0 0 0 0 0 0 127 0" result="hardAlpha"/>
<feMorphology radius="8" operator="dilate" in="SourceAlpha" result="effect1_dropShadow"/>
<feOffset dy="9"/>
<feGaussianBlur stdDeviation="23"/>
<feColorMatrix type="matrix" values="0 0 0 0 0 0 0 0 0 0 0 0 0 0 0 0 0 0 0.24 0"/>
<feBlend mode="normal" in2="BackgroundImageFix" result="effect1_dropShadow"/>
<feColorMatrix in="SourceAlpha" type="matrix" values="0 0 0 0 0 0 0 0 0 0 0 0 0 0 0 0 0 0 127 0" result="hardAlpha"/>
<feMorphology radius="3" operator="dilate" in="SourceAlpha" result="effect2_dropShadow"/>
<feOffset dy="24"/>
<feGaussianBlur stdDeviation="19"/>
<feColorMatrix type="matrix" values="0 0 0 0 0 0 0 0 0 0 0 0 0 0 0 0 0 0 0.28 0"/>
<feBlend mode="normal" in2="effect1_dropShadow" result="effect2_dropShadow"/>
<feColorMatrix in="SourceAlpha" type="matrix" values="0 0 0 0 0 0 0 0 0 0 0 0 0 0 0 0 0 0 127 0" result="hardAlpha"/>
<feMorphology radius="7" operator="erode" in="SourceAlpha" result="effect3_dropShadow"/>
<feOffset dy="11"/>
<feGaussianBlur stdDeviation="7.5"/>
<feColorMatrix type="matrix" values="0 0 0 0 0 0 0 0 0 0 0 0 0 0 0 0 0 0 0.4 0"/>
<feBlend mode="normal" in2="effect2_dropShadow" result="effect3_dropShadow"/>
<feBlend mode="normal" in="SourceGraphic" in2="effect3_dropShadow" result="shape"/>
</filter>
<clipPath id="clip0">
<rect width="800" height="450" fill="white"/>
</clipPath>
<clipPath id="clip1">
<rect x="313" y="72" width="174" height="306" rx="8" fill="white"/>
</clipPath>
</defs>
</svg>
