<svg width="814" height="458" viewBox="0 0 814 458" fill="none" xmlns="http://www.w3.org/2000/svg">
<g clip-path="url(#clip0)">
<rect width="814" height="458" fill="#B9BFC2"/>
<rect x="40" y="40" width="734" height="418" fill="#D5D8DA"/>
<rect x="50" y="50" width="714" height="408" fill="#B3D7EC"/>
<circle r="59.5" transform="matrix(-1 0 0 1 149.5 149.5)" fill="white"/>
<path d="M149.5 90C140.341 90 131.305 92.1145 123.097 96.1789C114.889 100.243 107.73 106.148 102.178 113.432C96.6259 120.717 92.8305 129.185 91.0874 138.177C89.3443 147.169 89.7007 156.441 92.1287 165.273C94.5567 174.104 98.9909 182.256 105.086 189.093C111.181 195.93 118.772 201.268 127.267 204.69C135.763 208.113 144.934 209.527 154.066 208.825C163.199 208.122 172.045 205.32 179.917 200.637L149.5 149.5L149.5 90Z" fill="#004B9E"/>
<circle r="59.5" transform="matrix(-1 0 0 1 149.5 308.5)" fill="white"/>
<path d="M149.5 249C139.268 249 129.209 251.639 120.294 256.661C111.38 261.683 103.911 268.92 98.6095 277.671C93.308 286.423 90.3529 296.394 90.0297 306.62C89.7065 316.847 92.026 326.985 96.7643 336.054L149.5 308.5L149.5 249Z" fill="#4DA3D4"/>
<circle r="59.5" transform="matrix(-1 0 0 1 149.5 467.5)" fill="white"/>
<path d="M149.5 408C134.809 408 120.638 413.435 109.715 423.258C98.791 433.081 91.8878 446.598 90.3338 461.206C88.7799 475.814 92.6851 490.481 101.298 502.382C109.91 514.284 122.621 522.578 136.983 525.669C151.345 528.759 166.342 526.427 179.088 519.122C191.834 511.816 201.426 500.054 206.018 486.1C210.61 472.145 209.878 456.985 203.962 443.538C198.046 430.092 187.364 419.309 173.974 413.266L149.5 467.5L149.5 408Z" fill="#E0EEF8"/>
<path d="M249 181.495L367.75 170.55L486.5 209L605.25 170.55L724 162.972" stroke="#007BC1" stroke-width="10"/>
<path d="M249 142.203L367.75 164.936L486.5 169.708L605.25 120.031L724 120" stroke="#4DA3D4" stroke-width="10"/>
<path d="M249 163.814L367.75 118.627L486.5 175.321L605.25 208.158L724 179.811" stroke="#E0EEF8" stroke-width="10"/>
<path d="M249 340.495L367.75 259.55L486.5 368L605.25 259.55L724 321.972" stroke="#007BC1" stroke-width="10"/>
<path d="M249 301.203L367.75 323.936L486.5 328.708L605.25 279.031L724 309" stroke="#4DA3D4" stroke-width="10"/>
<path d="M249 322.814L367.75 367.627L486.5 294.321L605.25 346.158L724 358.811" stroke="#E0EEF8" stroke-width="10"/>
<path d="M249 460.203L367.75 482.936L486.5 487.708L605.25 438.031L724 408" stroke="#4DA3D4" stroke-width="10"/>
<path d="M249 481.814L367.75 436.627L486.5 493.321L605.25 526.158L724 497.811" stroke="#E0EEF8" stroke-width="10"/>
</g>
<defs>
<clipPath id="clip0">
<rect width="814" height="458" fill="white"/>
</clipPath>
</defs>
</svg>
