<svg width="814" height="458" viewBox="0 0 814 458" fill="none" xmlns="http://www.w3.org/2000/svg">
<rect width="814" height="458" fill="#F7F8F8"/>
<path d="M178 230.512L323.25 219.573L468.5 258L613.75 219.573L759 212" stroke="#268FCA" stroke-width="10"/>
<path d="M178 191.333L323.25 214.201L468.5 219L613.75 169.031L759 169" stroke="#80BDE0" stroke-width="10"/>
<path d="M178 110.423L323.25 65L468.5 121.991L613.75 155L759 126.505" stroke="#4DA3D4" stroke-width="10" stroke-dasharray="20 30"/>
<path d="M178 300.374L323.25 345L468.5 272L613.75 323.62L759 336.221" stroke="#007BC1" stroke-width="10" stroke-dasharray="20 30"/>
<line x1="178" y1="394" x2="759" y2="394" stroke="#E2E5E5" stroke-width="10"/>
<line x1="179" y1="399" x2="179" y2="58" stroke="#E2E5E5" stroke-width="10"/>
<rect x="104" y="82" width="43" height="24" fill="#D5D8DA"/>
<rect x="41" y="82" width="43" height="24" fill="#D5D8DA"/>
<rect x="104" y="214" width="43" height="25" fill="#D5D8DA"/>
<rect x="41" y="214" width="43" height="25" fill="#D5D8DA"/>
<rect x="104" y="148" width="43" height="24" fill="#D5D8DA"/>
<rect x="41" y="148" width="43" height="24" fill="#D5D8DA"/>
<rect x="104" y="281" width="43" height="24" fill="#D5D8DA"/>
<rect x="41" y="281" width="43" height="24" fill="#D5D8DA"/>
<rect x="104" y="347" width="43" height="24" fill="#D5D8DA"/>
<rect x="41" y="347" width="43" height="24" fill="#D5D8DA"/>
<circle cx="612.5" cy="219.5" r="11" fill="white" stroke="#268FCA" stroke-width="11"/>
<g filter="url(#filter0_d)">
<path d="M577 116H648V184.566H616.09L612.101 195L608.112 184.566H577V116Z" fill="white"/>
<path d="M608.112 184.066H577.5V116.5H647.5V184.066H616.09H615.746L615.623 184.387L612.101 193.6L608.579 184.387L608.457 184.066H608.112Z" stroke="#D5D8DA"/>
</g>
<path fill-rule="evenodd" clip-rule="evenodd" d="M613 133.5C603.34 133.5 595.5 141.34 595.5 151C595.5 160.66 603.34 168.5 613 168.5C622.66 168.5 630.5 160.66 630.5 151C630.5 141.34 622.66 133.5 613 133.5ZM611.25 159.75V149.25H614.75V159.75H611.25ZM611.25 142.25V145.75H614.75V142.25H611.25Z" fill="#007BC1"/>
<defs>
<filter id="filter0_d" x="577" y="116" width="76" height="87" filterUnits="userSpaceOnUse" color-interpolation-filters="sRGB">
<feFlood flood-opacity="0" result="BackgroundImageFix"/>
<feColorMatrix in="SourceAlpha" type="matrix" values="0 0 0 0 0 0 0 0 0 0 0 0 0 0 0 0 0 0 127 0"/>
<feOffset dx="5" dy="8"/>
<feColorMatrix type="matrix" values="0 0 0 0 0.0232986 0 0 0 0 0.14335 0 0 0 0 0.254167 0 0 0 0.2 0"/>
<feBlend mode="normal" in2="BackgroundImageFix" result="effect1_dropShadow"/>
<feBlend mode="normal" in="SourceGraphic" in2="effect1_dropShadow" result="shape"/>
</filter>
</defs>
</svg>
