<svg width="500" height="500" viewBox="0 0 500 500" fill="none" xmlns="http://www.w3.org/2000/svg">
<rect width="500" height="500" fill="#E2E5E5"/>
<g filter="url(#filter0_ddd_5174_239769)">
<g clip-path="url(#clip0_5174_239769)">
<rect x="100" y="119" width="300" height="263" rx="4" fill="white"/>
<path d="M134.742 156L133.316 152.035H127.857L126.461 156H124L129.342 141.664H131.881L137.223 156H134.742ZM132.701 150.023L131.363 146.137C131.266 145.876 131.129 145.466 130.953 144.906C130.784 144.346 130.667 143.936 130.602 143.676C130.426 144.477 130.169 145.352 129.83 146.303L128.541 150.023H132.701ZM144.342 145.004C144.804 145.004 145.185 145.036 145.484 145.102L145.26 147.24C144.934 147.162 144.596 147.123 144.244 147.123C143.326 147.123 142.581 147.423 142.008 148.021C141.441 148.62 141.158 149.398 141.158 150.355V156H138.863V145.199H140.66L140.963 147.104H141.08C141.438 146.459 141.904 145.948 142.477 145.57C143.056 145.193 143.678 145.004 144.342 145.004ZM152.213 156.195C150.533 156.195 149.218 155.707 148.268 154.73C147.324 153.747 146.852 152.396 146.852 150.678C146.852 148.913 147.291 147.527 148.17 146.518C149.049 145.508 150.257 145.004 151.793 145.004C153.219 145.004 154.345 145.437 155.172 146.303C155.999 147.169 156.412 148.36 156.412 149.877V151.117H149.215C149.247 152.165 149.531 152.973 150.064 153.539C150.598 154.099 151.35 154.379 152.32 154.379C152.958 154.379 153.551 154.32 154.098 154.203C154.651 154.079 155.243 153.878 155.875 153.598V155.463C155.315 155.73 154.749 155.919 154.176 156.029C153.603 156.14 152.949 156.195 152.213 156.195ZM151.793 146.742C151.064 146.742 150.478 146.973 150.035 147.436C149.599 147.898 149.339 148.572 149.254 149.457H154.156C154.143 148.565 153.928 147.891 153.512 147.436C153.095 146.973 152.522 146.742 151.793 146.742ZM162.574 145.199H165.074L167.271 151.322C167.604 152.195 167.825 153.015 167.936 153.783H168.014C168.072 153.425 168.18 152.992 168.336 152.484C168.492 151.97 169.319 149.542 170.816 145.199H173.297L168.678 157.436C167.838 159.682 166.438 160.805 164.479 160.805C163.971 160.805 163.476 160.749 162.994 160.639V158.822C163.339 158.9 163.733 158.939 164.176 158.939C165.283 158.939 166.061 158.298 166.51 157.016L166.91 156L162.574 145.199ZM184.518 150.58C184.518 152.344 184.065 153.721 183.16 154.711C182.255 155.701 180.995 156.195 179.381 156.195C178.372 156.195 177.48 155.967 176.705 155.512C175.93 155.056 175.335 154.402 174.918 153.549C174.501 152.696 174.293 151.706 174.293 150.58C174.293 148.829 174.742 147.462 175.641 146.479C176.539 145.495 177.805 145.004 179.439 145.004C181.002 145.004 182.239 145.508 183.15 146.518C184.062 147.52 184.518 148.874 184.518 150.58ZM176.656 150.58C176.656 153.074 177.577 154.32 179.42 154.32C181.243 154.32 182.154 153.074 182.154 150.58C182.154 148.113 181.236 146.879 179.4 146.879C178.437 146.879 177.737 147.198 177.301 147.836C176.871 148.474 176.656 149.389 176.656 150.58ZM194.781 156L194.459 154.584H194.342C194.023 155.085 193.567 155.479 192.975 155.766C192.389 156.052 191.718 156.195 190.963 156.195C189.654 156.195 188.678 155.87 188.033 155.219C187.389 154.568 187.066 153.581 187.066 152.26V145.199H189.381V151.859C189.381 152.686 189.55 153.308 189.889 153.725C190.227 154.135 190.758 154.34 191.48 154.34C192.444 154.34 193.15 154.053 193.6 153.48C194.055 152.901 194.283 151.934 194.283 150.58V145.199H196.588V156H194.781ZM212.311 152.924C212.311 153.979 211.926 154.789 211.158 155.355C210.39 155.915 209.29 156.195 207.857 156.195C206.419 156.195 205.263 155.977 204.391 155.541V153.559C205.66 154.145 206.842 154.438 207.936 154.438C209.348 154.438 210.055 154.011 210.055 153.158C210.055 152.885 209.977 152.657 209.82 152.475C209.664 152.292 209.407 152.104 209.049 151.908C208.691 151.713 208.193 151.492 207.555 151.244C206.311 150.762 205.468 150.281 205.025 149.799C204.589 149.317 204.371 148.692 204.371 147.924C204.371 146.999 204.742 146.283 205.484 145.775C206.233 145.261 207.249 145.004 208.531 145.004C209.801 145.004 211.002 145.261 212.135 145.775L211.393 147.504C210.227 147.022 209.247 146.781 208.453 146.781C207.242 146.781 206.637 147.126 206.637 147.816C206.637 148.155 206.793 148.441 207.105 148.676C207.424 148.91 208.115 149.232 209.176 149.643C210.068 149.988 210.715 150.303 211.119 150.59C211.523 150.876 211.822 151.208 212.018 151.586C212.213 151.957 212.311 152.403 212.311 152.924ZM222.418 156L222.096 154.584H221.979C221.66 155.085 221.204 155.479 220.611 155.766C220.025 156.052 219.355 156.195 218.6 156.195C217.291 156.195 216.314 155.87 215.67 155.219C215.025 154.568 214.703 153.581 214.703 152.26V145.199H217.018V151.859C217.018 152.686 217.187 153.308 217.525 153.725C217.864 154.135 218.395 154.34 219.117 154.34C220.081 154.34 220.787 154.053 221.236 153.48C221.692 152.901 221.92 151.934 221.92 150.58V145.199H224.225V156H222.418ZM232.975 145.004C233.437 145.004 233.818 145.036 234.117 145.102L233.893 147.24C233.567 147.162 233.229 147.123 232.877 147.123C231.959 147.123 231.214 147.423 230.641 148.021C230.074 148.62 229.791 149.398 229.791 150.355V156H227.496V145.199H229.293L229.596 147.104H229.713C230.071 146.459 230.536 145.948 231.109 145.57C231.689 145.193 232.311 145.004 232.975 145.004ZM240.846 156.195C239.166 156.195 237.851 155.707 236.9 154.73C235.956 153.747 235.484 152.396 235.484 150.678C235.484 148.913 235.924 147.527 236.803 146.518C237.682 145.508 238.889 145.004 240.426 145.004C241.852 145.004 242.978 145.437 243.805 146.303C244.632 147.169 245.045 148.36 245.045 149.877V151.117H237.848C237.88 152.165 238.163 152.973 238.697 153.539C239.231 154.099 239.983 154.379 240.953 154.379C241.591 154.379 242.184 154.32 242.73 154.203C243.284 154.079 243.876 153.878 244.508 153.598V155.463C243.948 155.73 243.382 155.919 242.809 156.029C242.236 156.14 241.581 156.195 240.846 156.195ZM240.426 146.742C239.697 146.742 239.111 146.973 238.668 147.436C238.232 147.898 237.971 148.572 237.887 149.457H242.789C242.776 148.565 242.561 147.891 242.145 147.436C241.728 146.973 241.155 146.742 240.426 146.742ZM251.207 145.199H253.707L255.904 151.322C256.236 152.195 256.458 153.015 256.568 153.783H256.646C256.705 153.425 256.812 152.992 256.969 152.484C257.125 151.97 257.952 149.542 259.449 145.199H261.93L257.311 157.436C256.471 159.682 255.071 160.805 253.111 160.805C252.604 160.805 252.109 160.749 251.627 160.639V158.822C251.972 158.9 252.366 158.939 252.809 158.939C253.915 158.939 254.693 158.298 255.143 157.016L255.543 156L251.207 145.199ZM273.15 150.58C273.15 152.344 272.698 153.721 271.793 154.711C270.888 155.701 269.628 156.195 268.014 156.195C267.005 156.195 266.113 155.967 265.338 155.512C264.563 155.056 263.967 154.402 263.551 153.549C263.134 152.696 262.926 151.706 262.926 150.58C262.926 148.829 263.375 147.462 264.273 146.479C265.172 145.495 266.438 145.004 268.072 145.004C269.635 145.004 270.872 145.508 271.783 146.518C272.695 147.52 273.15 148.874 273.15 150.58ZM265.289 150.58C265.289 153.074 266.21 154.32 268.053 154.32C269.876 154.32 270.787 153.074 270.787 150.58C270.787 148.113 269.869 146.879 268.033 146.879C267.07 146.879 266.37 147.198 265.934 147.836C265.504 148.474 265.289 149.389 265.289 150.58ZM283.414 156L283.092 154.584H282.975C282.656 155.085 282.2 155.479 281.607 155.766C281.021 156.052 280.351 156.195 279.596 156.195C278.287 156.195 277.311 155.87 276.666 155.219C276.021 154.568 275.699 153.581 275.699 152.26V145.199H278.014V151.859C278.014 152.686 278.183 153.308 278.521 153.725C278.86 154.135 279.391 154.34 280.113 154.34C281.077 154.34 281.783 154.053 282.232 153.48C282.688 152.901 282.916 151.934 282.916 150.58V145.199H285.221V156H283.414ZM302.545 156L301.148 150.961C300.979 150.427 300.673 149.187 300.23 147.24H300.143C299.765 148.998 299.465 150.245 299.244 150.98L297.809 156H295.27L292.242 145.199H294.586L295.963 150.521C296.275 151.837 296.497 152.963 296.627 153.9H296.686C296.751 153.425 296.848 152.882 296.979 152.27C297.115 151.651 297.232 151.189 297.33 150.883L298.971 145.199H301.49L303.082 150.883C303.18 151.202 303.3 151.69 303.443 152.348C303.593 153.005 303.681 153.516 303.707 153.881H303.785C303.883 153.08 304.111 151.96 304.469 150.521L305.865 145.199H308.17L305.123 156H302.545ZM316.793 156L316.334 154.496H316.256C315.735 155.154 315.211 155.603 314.684 155.844C314.156 156.078 313.479 156.195 312.652 156.195C311.591 156.195 310.761 155.909 310.162 155.336C309.57 154.763 309.273 153.952 309.273 152.904C309.273 151.791 309.687 150.951 310.514 150.385C311.34 149.818 312.6 149.509 314.293 149.457L316.158 149.398V148.822C316.158 148.132 315.995 147.618 315.67 147.279C315.351 146.934 314.853 146.762 314.176 146.762C313.622 146.762 313.092 146.843 312.584 147.006C312.076 147.169 311.588 147.361 311.119 147.582L310.377 145.941C310.963 145.635 311.604 145.404 312.301 145.248C312.997 145.085 313.655 145.004 314.273 145.004C315.647 145.004 316.682 145.303 317.379 145.902C318.082 146.501 318.434 147.442 318.434 148.725V156H316.793ZM313.375 154.438C314.208 154.438 314.876 154.206 315.377 153.744C315.885 153.275 316.139 152.621 316.139 151.781V150.844L314.752 150.902C313.671 150.941 312.883 151.124 312.389 151.449C311.9 151.768 311.656 152.26 311.656 152.924C311.656 153.406 311.799 153.78 312.086 154.047C312.372 154.307 312.802 154.438 313.375 154.438ZM331.139 156H328.834V149.359C328.834 148.526 328.665 147.904 328.326 147.494C327.994 147.084 327.464 146.879 326.734 146.879C325.764 146.879 325.055 147.165 324.605 147.738C324.156 148.311 323.932 149.271 323.932 150.619V156H321.637V145.199H323.434L323.756 146.615H323.873C324.199 146.101 324.661 145.704 325.26 145.424C325.859 145.144 326.523 145.004 327.252 145.004C329.843 145.004 331.139 146.322 331.139 148.959V156ZM338.355 154.34C338.915 154.34 339.475 154.252 340.035 154.076V155.805C339.781 155.915 339.452 156.007 339.049 156.078C338.652 156.156 338.238 156.195 337.809 156.195C335.634 156.195 334.547 155.049 334.547 152.758V146.938H333.072V145.922L334.654 145.082L335.436 142.797H336.852V145.199H339.928V146.938H336.852V152.719C336.852 153.272 336.988 153.682 337.262 153.949C337.542 154.21 337.906 154.34 338.355 154.34ZM351.422 154.34C351.982 154.34 352.542 154.252 353.102 154.076V155.805C352.848 155.915 352.519 156.007 352.115 156.078C351.718 156.156 351.305 156.195 350.875 156.195C348.701 156.195 347.613 155.049 347.613 152.758V146.938H346.139V145.922L347.721 145.082L348.502 142.797H349.918V145.199H352.994V146.938H349.918V152.719C349.918 153.272 350.055 153.682 350.328 153.949C350.608 154.21 350.973 154.34 351.422 154.34ZM364.85 150.58C364.85 152.344 364.397 153.721 363.492 154.711C362.587 155.701 361.327 156.195 359.713 156.195C358.704 156.195 357.812 155.967 357.037 155.512C356.262 155.056 355.667 154.402 355.25 153.549C354.833 152.696 354.625 151.706 354.625 150.58C354.625 148.829 355.074 147.462 355.973 146.479C356.871 145.495 358.137 145.004 359.771 145.004C361.334 145.004 362.571 145.508 363.482 146.518C364.394 147.52 364.85 148.874 364.85 150.58ZM356.988 150.58C356.988 153.074 357.91 154.32 359.752 154.32C361.575 154.32 362.486 153.074 362.486 150.58C362.486 148.113 361.568 146.879 359.732 146.879C358.769 146.879 358.069 147.198 357.633 147.836C357.203 148.474 356.988 149.389 356.988 150.58ZM129.283 183.195C127.936 183.195 126.884 182.707 126.129 181.73C125.374 180.754 124.996 179.383 124.996 177.619C124.996 175.848 125.377 174.471 126.139 173.488C126.907 172.499 127.968 172.004 129.322 172.004C130.742 172.004 131.822 172.528 132.564 173.576H132.682C132.571 172.801 132.516 172.189 132.516 171.74V167.805H134.82V183H133.023L132.623 181.584H132.516C131.78 182.658 130.702 183.195 129.283 183.195ZM129.898 181.34C130.842 181.34 131.529 181.076 131.959 180.549C132.389 180.015 132.61 179.152 132.623 177.961V177.639C132.623 176.278 132.402 175.311 131.959 174.738C131.516 174.165 130.823 173.879 129.879 173.879C129.072 173.879 128.45 174.208 128.014 174.865C127.577 175.516 127.359 176.447 127.359 177.658C127.359 178.856 127.571 179.771 127.994 180.402C128.417 181.027 129.052 181.34 129.898 181.34ZM142.818 183.195C141.139 183.195 139.824 182.707 138.873 181.73C137.929 180.747 137.457 179.396 137.457 177.678C137.457 175.913 137.896 174.527 138.775 173.518C139.654 172.508 140.862 172.004 142.398 172.004C143.824 172.004 144.951 172.437 145.777 173.303C146.604 174.169 147.018 175.36 147.018 176.877V178.117H139.82C139.853 179.165 140.136 179.973 140.67 180.539C141.204 181.099 141.956 181.379 142.926 181.379C143.564 181.379 144.156 181.32 144.703 181.203C145.257 181.079 145.849 180.878 146.48 180.598V182.463C145.921 182.73 145.354 182.919 144.781 183.029C144.208 183.14 143.554 183.195 142.818 183.195ZM142.398 173.742C141.669 173.742 141.083 173.973 140.641 174.436C140.204 174.898 139.944 175.572 139.859 176.457H144.762C144.749 175.565 144.534 174.891 144.117 174.436C143.701 173.973 143.128 173.742 142.398 173.742ZM151.92 183H149.625V167.805H151.92V183ZM159.928 183.195C158.248 183.195 156.933 182.707 155.982 181.73C155.038 180.747 154.566 179.396 154.566 177.678C154.566 175.913 155.006 174.527 155.885 173.518C156.764 172.508 157.971 172.004 159.508 172.004C160.934 172.004 162.06 172.437 162.887 173.303C163.714 174.169 164.127 175.36 164.127 176.877V178.117H156.93C156.962 179.165 157.245 179.973 157.779 180.539C158.313 181.099 159.065 181.379 160.035 181.379C160.673 181.379 161.266 181.32 161.812 181.203C162.366 181.079 162.958 180.878 163.59 180.598V182.463C163.03 182.73 162.464 182.919 161.891 183.029C161.318 183.14 160.663 183.195 159.928 183.195ZM159.508 173.742C158.779 173.742 158.193 173.973 157.75 174.436C157.314 174.898 157.053 175.572 156.969 176.457H161.871C161.858 175.565 161.643 174.891 161.227 174.436C160.81 173.973 160.237 173.742 159.508 173.742ZM170.758 181.34C171.318 181.34 171.878 181.252 172.438 181.076V182.805C172.184 182.915 171.855 183.007 171.451 183.078C171.054 183.156 170.641 183.195 170.211 183.195C168.036 183.195 166.949 182.049 166.949 179.758V173.938H165.475V172.922L167.057 172.082L167.838 169.797H169.254V172.199H172.33V173.938H169.254V179.719C169.254 180.272 169.391 180.682 169.664 180.949C169.944 181.21 170.309 181.34 170.758 181.34ZM179.322 183.195C177.643 183.195 176.327 182.707 175.377 181.73C174.433 180.747 173.961 179.396 173.961 177.678C173.961 175.913 174.4 174.527 175.279 173.518C176.158 172.508 177.366 172.004 178.902 172.004C180.328 172.004 181.454 172.437 182.281 173.303C183.108 174.169 183.521 175.36 183.521 176.877V178.117H176.324C176.357 179.165 176.64 179.973 177.174 180.539C177.708 181.099 178.46 181.379 179.43 181.379C180.068 181.379 180.66 181.32 181.207 181.203C181.76 181.079 182.353 180.878 182.984 180.598V182.463C182.424 182.73 181.858 182.919 181.285 183.029C180.712 183.14 180.058 183.195 179.322 183.195ZM178.902 173.742C178.173 173.742 177.587 173.973 177.145 174.436C176.708 174.898 176.448 175.572 176.363 176.457H181.266C181.253 175.565 181.038 174.891 180.621 174.436C180.204 173.973 179.632 173.742 178.902 173.742ZM198.082 183L197.623 181.496H197.545C197.024 182.154 196.5 182.603 195.973 182.844C195.445 183.078 194.768 183.195 193.941 183.195C192.88 183.195 192.05 182.909 191.451 182.336C190.859 181.763 190.562 180.952 190.562 179.904C190.562 178.791 190.976 177.951 191.803 177.385C192.63 176.818 193.889 176.509 195.582 176.457L197.447 176.398V175.822C197.447 175.132 197.285 174.618 196.959 174.279C196.64 173.934 196.142 173.762 195.465 173.762C194.911 173.762 194.381 173.843 193.873 174.006C193.365 174.169 192.877 174.361 192.408 174.582L191.666 172.941C192.252 172.635 192.893 172.404 193.59 172.248C194.286 172.085 194.944 172.004 195.562 172.004C196.936 172.004 197.971 172.303 198.668 172.902C199.371 173.501 199.723 174.442 199.723 175.725V183H198.082ZM194.664 181.438C195.497 181.438 196.165 181.206 196.666 180.744C197.174 180.275 197.428 179.621 197.428 178.781V177.844L196.041 177.902C194.96 177.941 194.173 178.124 193.678 178.449C193.189 178.768 192.945 179.26 192.945 179.924C192.945 180.406 193.089 180.78 193.375 181.047C193.661 181.307 194.091 181.438 194.664 181.438ZM205.221 183H202.926V167.805H205.221V183ZM210.807 183H208.512V167.805H210.807V183ZM222.936 183.195C221.588 183.195 220.536 182.707 219.781 181.73C219.026 180.754 218.648 179.383 218.648 177.619C218.648 175.848 219.029 174.471 219.791 173.488C220.559 172.499 221.62 172.004 222.975 172.004C224.394 172.004 225.475 172.528 226.217 173.576H226.334C226.223 172.801 226.168 172.189 226.168 171.74V167.805H228.473V183H226.676L226.275 181.584H226.168C225.432 182.658 224.355 183.195 222.936 183.195ZM223.551 181.34C224.495 181.34 225.182 181.076 225.611 180.549C226.041 180.015 226.262 179.152 226.275 177.961V177.639C226.275 176.278 226.054 175.311 225.611 174.738C225.169 174.165 224.475 173.879 223.531 173.879C222.724 173.879 222.102 174.208 221.666 174.865C221.23 175.516 221.012 176.447 221.012 177.658C221.012 178.856 221.223 179.771 221.646 180.402C222.07 181.027 222.704 181.34 223.551 181.34ZM236.471 183.195C234.791 183.195 233.476 182.707 232.525 181.73C231.581 180.747 231.109 179.396 231.109 177.678C231.109 175.913 231.549 174.527 232.428 173.518C233.307 172.508 234.514 172.004 236.051 172.004C237.477 172.004 238.603 172.437 239.43 173.303C240.257 174.169 240.67 175.36 240.67 176.877V178.117H233.473C233.505 179.165 233.788 179.973 234.322 180.539C234.856 181.099 235.608 181.379 236.578 181.379C237.216 181.379 237.809 181.32 238.355 181.203C238.909 181.079 239.501 180.878 240.133 180.598V182.463C239.573 182.73 239.007 182.919 238.434 183.029C237.861 183.14 237.206 183.195 236.471 183.195ZM236.051 173.742C235.322 173.742 234.736 173.973 234.293 174.436C233.857 174.898 233.596 175.572 233.512 176.457H238.414C238.401 175.565 238.186 174.891 237.77 174.436C237.353 173.973 236.78 173.742 236.051 173.742ZM245.738 183L241.637 172.199H244.059L246.256 178.479C246.633 179.533 246.861 180.386 246.939 181.037H247.018C247.076 180.568 247.304 179.715 247.701 178.479L249.898 172.199H252.34L248.219 183H245.738ZM256.275 183H253.98V172.199H256.275V183ZM253.844 169.338C253.844 168.928 253.954 168.612 254.176 168.391C254.404 168.169 254.726 168.059 255.143 168.059C255.546 168.059 255.859 168.169 256.08 168.391C256.308 168.612 256.422 168.928 256.422 169.338C256.422 169.729 256.308 170.038 256.08 170.266C255.859 170.487 255.546 170.598 255.143 170.598C254.726 170.598 254.404 170.487 254.176 170.266C253.954 170.038 253.844 169.729 253.844 169.338ZM263.922 183.195C262.288 183.195 261.044 182.72 260.191 181.77C259.345 180.812 258.922 179.442 258.922 177.658C258.922 175.842 259.365 174.445 260.25 173.469C261.142 172.492 262.428 172.004 264.107 172.004C265.247 172.004 266.272 172.215 267.184 172.639L266.49 174.484C265.52 174.107 264.719 173.918 264.088 173.918C262.219 173.918 261.285 175.158 261.285 177.639C261.285 178.85 261.516 179.761 261.979 180.373C262.447 180.979 263.131 181.281 264.029 181.281C265.051 181.281 266.018 181.027 266.93 180.52V182.521C266.52 182.762 266.08 182.935 265.611 183.039C265.149 183.143 264.586 183.195 263.922 183.195ZM274.186 183.195C272.506 183.195 271.191 182.707 270.24 181.73C269.296 180.747 268.824 179.396 268.824 177.678C268.824 175.913 269.264 174.527 270.143 173.518C271.021 172.508 272.229 172.004 273.766 172.004C275.191 172.004 276.318 172.437 277.145 173.303C277.971 174.169 278.385 175.36 278.385 176.877V178.117H271.188C271.22 179.165 271.503 179.973 272.037 180.539C272.571 181.099 273.323 181.379 274.293 181.379C274.931 181.379 275.523 181.32 276.07 181.203C276.624 181.079 277.216 180.878 277.848 180.598V182.463C277.288 182.73 276.721 182.919 276.148 183.029C275.576 183.14 274.921 183.195 274.186 183.195ZM273.766 173.742C273.036 173.742 272.451 173.973 272.008 174.436C271.572 174.898 271.311 175.572 271.227 176.457H276.129C276.116 175.565 275.901 174.891 275.484 174.436C275.068 173.973 274.495 173.742 273.766 173.742ZM288.248 179.924C288.248 180.979 287.864 181.789 287.096 182.355C286.327 182.915 285.227 183.195 283.795 183.195C282.356 183.195 281.201 182.977 280.328 182.541V180.559C281.598 181.145 282.779 181.438 283.873 181.438C285.286 181.438 285.992 181.011 285.992 180.158C285.992 179.885 285.914 179.657 285.758 179.475C285.602 179.292 285.344 179.104 284.986 178.908C284.628 178.713 284.13 178.492 283.492 178.244C282.249 177.762 281.406 177.281 280.963 176.799C280.527 176.317 280.309 175.692 280.309 174.924C280.309 173.999 280.68 173.283 281.422 172.775C282.171 172.261 283.186 172.004 284.469 172.004C285.738 172.004 286.939 172.261 288.072 172.775L287.33 174.504C286.165 174.022 285.185 173.781 284.391 173.781C283.18 173.781 282.574 174.126 282.574 174.816C282.574 175.155 282.73 175.441 283.043 175.676C283.362 175.91 284.052 176.232 285.113 176.643C286.005 176.988 286.653 177.303 287.057 177.59C287.46 177.876 287.76 178.208 287.955 178.586C288.15 178.957 288.248 179.403 288.248 179.924ZM131.119 210.195C129.752 210.195 128.691 209.704 127.936 208.721H127.799C127.89 209.632 127.936 210.186 127.936 210.381V214.805H125.641V199.199H127.496C127.548 199.401 127.656 199.883 127.818 200.645H127.936C128.652 199.551 129.726 199.004 131.158 199.004C132.506 199.004 133.554 199.492 134.303 200.469C135.058 201.445 135.436 202.816 135.436 204.58C135.436 206.344 135.051 207.721 134.283 208.711C133.521 209.701 132.467 210.195 131.119 210.195ZM130.562 200.879C129.651 200.879 128.984 201.146 128.561 201.68C128.144 202.214 127.936 203.066 127.936 204.238V204.58C127.936 205.895 128.144 206.849 128.561 207.441C128.977 208.027 129.658 208.32 130.602 208.32C131.396 208.32 132.008 207.995 132.438 207.344C132.867 206.693 133.082 205.765 133.082 204.561C133.082 203.35 132.867 202.435 132.438 201.816C132.014 201.191 131.389 200.879 130.562 200.879ZM142.818 210.195C141.139 210.195 139.824 209.707 138.873 208.73C137.929 207.747 137.457 206.396 137.457 204.678C137.457 202.913 137.896 201.527 138.775 200.518C139.654 199.508 140.862 199.004 142.398 199.004C143.824 199.004 144.951 199.437 145.777 200.303C146.604 201.169 147.018 202.36 147.018 203.877V205.117H139.82C139.853 206.165 140.136 206.973 140.67 207.539C141.204 208.099 141.956 208.379 142.926 208.379C143.564 208.379 144.156 208.32 144.703 208.203C145.257 208.079 145.849 207.878 146.48 207.598V209.463C145.921 209.73 145.354 209.919 144.781 210.029C144.208 210.14 143.554 210.195 142.818 210.195ZM142.398 200.742C141.669 200.742 141.083 200.973 140.641 201.436C140.204 201.898 139.944 202.572 139.859 203.457H144.762C144.749 202.565 144.534 201.891 144.117 201.436C143.701 200.973 143.128 200.742 142.398 200.742ZM155.104 199.004C155.566 199.004 155.947 199.036 156.246 199.102L156.021 201.24C155.696 201.162 155.357 201.123 155.006 201.123C154.088 201.123 153.342 201.423 152.77 202.021C152.203 202.62 151.92 203.398 151.92 204.355V210H149.625V199.199H151.422L151.725 201.104H151.842C152.2 200.459 152.665 199.948 153.238 199.57C153.818 199.193 154.439 199.004 155.104 199.004ZM167.359 210H165.055V203.34C165.055 202.513 164.898 201.898 164.586 201.494C164.273 201.084 163.785 200.879 163.121 200.879C162.236 200.879 161.585 201.169 161.168 201.748C160.758 202.321 160.553 203.278 160.553 204.619V210H158.258V199.199H160.055L160.377 200.615H160.494C160.794 200.101 161.227 199.704 161.793 199.424C162.366 199.144 162.994 199.004 163.678 199.004C165.338 199.004 166.438 199.57 166.979 200.703H167.135C167.454 200.169 167.903 199.753 168.482 199.453C169.062 199.154 169.726 199.004 170.475 199.004C171.764 199.004 172.701 199.329 173.287 199.98C173.88 200.632 174.176 201.624 174.176 202.959V210H171.881V203.34C171.881 202.513 171.721 201.898 171.402 201.494C171.09 201.084 170.602 200.879 169.938 200.879C169.046 200.879 168.391 201.159 167.975 201.719C167.564 202.272 167.359 203.125 167.359 204.277V210ZM184.137 210L183.678 208.496H183.6C183.079 209.154 182.555 209.603 182.027 209.844C181.5 210.078 180.823 210.195 179.996 210.195C178.935 210.195 178.105 209.909 177.506 209.336C176.913 208.763 176.617 207.952 176.617 206.904C176.617 205.791 177.031 204.951 177.857 204.385C178.684 203.818 179.944 203.509 181.637 203.457L183.502 203.398V202.822C183.502 202.132 183.339 201.618 183.014 201.279C182.695 200.934 182.197 200.762 181.52 200.762C180.966 200.762 180.436 200.843 179.928 201.006C179.42 201.169 178.932 201.361 178.463 201.582L177.721 199.941C178.307 199.635 178.948 199.404 179.645 199.248C180.341 199.085 180.999 199.004 181.617 199.004C182.991 199.004 184.026 199.303 184.723 199.902C185.426 200.501 185.777 201.442 185.777 202.725V210H184.137ZM180.719 208.438C181.552 208.438 182.219 208.206 182.721 207.744C183.229 207.275 183.482 206.621 183.482 205.781V204.844L182.096 204.902C181.015 204.941 180.227 205.124 179.732 205.449C179.244 205.768 179 206.26 179 206.924C179 207.406 179.143 207.78 179.43 208.047C179.716 208.307 180.146 208.438 180.719 208.438ZM198.482 210H196.178V203.359C196.178 202.526 196.008 201.904 195.67 201.494C195.338 201.084 194.807 200.879 194.078 200.879C193.108 200.879 192.398 201.165 191.949 201.738C191.5 202.311 191.275 203.271 191.275 204.619V210H188.98V199.199H190.777L191.1 200.615H191.217C191.542 200.101 192.005 199.704 192.604 199.424C193.202 199.144 193.867 199.004 194.596 199.004C197.187 199.004 198.482 200.322 198.482 202.959V210ZM206.393 210.195C204.713 210.195 203.398 209.707 202.447 208.73C201.503 207.747 201.031 206.396 201.031 204.678C201.031 202.913 201.471 201.527 202.35 200.518C203.229 199.508 204.436 199.004 205.973 199.004C207.398 199.004 208.525 199.437 209.352 200.303C210.178 201.169 210.592 202.36 210.592 203.877V205.117H203.395C203.427 206.165 203.71 206.973 204.244 207.539C204.778 208.099 205.53 208.379 206.5 208.379C207.138 208.379 207.73 208.32 208.277 208.203C208.831 208.079 209.423 207.878 210.055 207.598V209.463C209.495 209.73 208.928 209.919 208.355 210.029C207.783 210.14 207.128 210.195 206.393 210.195ZM205.973 200.742C205.243 200.742 204.658 200.973 204.215 201.436C203.779 201.898 203.518 202.572 203.434 203.457H208.336C208.323 202.565 208.108 201.891 207.691 201.436C207.275 200.973 206.702 200.742 205.973 200.742ZM222.701 210H220.396V203.359C220.396 202.526 220.227 201.904 219.889 201.494C219.557 201.084 219.026 200.879 218.297 200.879C217.327 200.879 216.617 201.165 216.168 201.738C215.719 202.311 215.494 203.271 215.494 204.619V210H213.199V199.199H214.996L215.318 200.615H215.436C215.761 200.101 216.223 199.704 216.822 199.424C217.421 199.144 218.085 199.004 218.814 199.004C221.406 199.004 222.701 200.322 222.701 202.959V210ZM229.918 208.34C230.478 208.34 231.038 208.252 231.598 208.076V209.805C231.344 209.915 231.015 210.007 230.611 210.078C230.214 210.156 229.801 210.195 229.371 210.195C227.197 210.195 226.109 209.049 226.109 206.758V200.938H224.635V199.922L226.217 199.082L226.998 196.797H228.414V199.199H231.49V200.938H228.414V206.719C228.414 207.272 228.551 207.682 228.824 207.949C229.104 208.21 229.469 208.34 229.918 208.34ZM236.061 210H233.766V194.805H236.061V210ZM237.711 199.199H240.211L242.408 205.322C242.74 206.195 242.962 207.015 243.072 207.783H243.15C243.209 207.425 243.316 206.992 243.473 206.484C243.629 205.97 244.456 203.542 245.953 199.199H248.434L243.814 211.436C242.975 213.682 241.575 214.805 239.615 214.805C239.107 214.805 238.613 214.749 238.131 214.639V212.822C238.476 212.9 238.87 212.939 239.312 212.939C240.419 212.939 241.197 212.298 241.646 211.016L242.047 210L237.711 199.199ZM251.197 205.664V205.039C251.197 204.323 251.327 203.727 251.588 203.252C251.848 202.777 252.304 202.285 252.955 201.777C253.73 201.165 254.228 200.69 254.449 200.352C254.677 200.013 254.791 199.609 254.791 199.141C254.791 198.594 254.609 198.174 254.244 197.881C253.88 197.588 253.355 197.441 252.672 197.441C252.053 197.441 251.48 197.529 250.953 197.705C250.426 197.881 249.911 198.092 249.41 198.34L248.59 196.621C249.911 195.885 251.327 195.518 252.838 195.518C254.114 195.518 255.126 195.83 255.875 196.455C256.624 197.08 256.998 197.943 256.998 199.043C256.998 199.531 256.926 199.967 256.783 200.352C256.64 200.729 256.422 201.09 256.129 201.436C255.842 201.781 255.344 202.23 254.635 202.783C254.029 203.258 253.622 203.652 253.414 203.965C253.212 204.277 253.111 204.697 253.111 205.225V205.664H251.197ZM250.797 208.779C250.797 207.796 251.275 207.305 252.232 207.305C252.701 207.305 253.059 207.435 253.307 207.695C253.554 207.949 253.678 208.311 253.678 208.779C253.678 209.242 253.551 209.609 253.297 209.883C253.049 210.15 252.695 210.283 252.232 210.283C251.77 210.283 251.415 210.153 251.168 209.893C250.921 209.626 250.797 209.255 250.797 208.779Z" fill="#424E54"/>
<path d="M129.086 257H127.758V246.758H124.141V245.578H132.703V246.758H129.086V257ZM140.094 257V251.461C140.094 250.763 139.935 250.242 139.617 249.898C139.299 249.555 138.802 249.383 138.125 249.383C137.224 249.383 136.565 249.628 136.148 250.117C135.737 250.607 135.531 251.409 135.531 252.523V257H134.234V244.844H135.531V248.523C135.531 248.966 135.51 249.333 135.469 249.625H135.547C135.802 249.214 136.164 248.891 136.633 248.656C137.107 248.417 137.646 248.297 138.25 248.297C139.297 248.297 140.081 248.547 140.602 249.047C141.128 249.542 141.391 250.331 141.391 251.414V257H140.094ZM147.68 257.156C146.414 257.156 145.414 256.771 144.68 256C143.951 255.229 143.586 254.159 143.586 252.789C143.586 251.409 143.924 250.312 144.602 249.5C145.284 248.688 146.198 248.281 147.344 248.281C148.417 248.281 149.266 248.635 149.891 249.344C150.516 250.047 150.828 250.977 150.828 252.133V252.953H144.93C144.956 253.958 145.208 254.721 145.688 255.242C146.172 255.763 146.852 256.023 147.727 256.023C148.648 256.023 149.56 255.831 150.461 255.445V256.602C150.003 256.799 149.568 256.94 149.156 257.023C148.75 257.112 148.258 257.156 147.68 257.156ZM147.328 249.367C146.641 249.367 146.091 249.591 145.68 250.039C145.273 250.487 145.034 251.107 144.961 251.898H149.438C149.438 251.081 149.255 250.456 148.891 250.023C148.526 249.586 148.005 249.367 147.328 249.367ZM163.031 255.852H162.961C162.362 256.721 161.466 257.156 160.273 257.156C159.154 257.156 158.281 256.773 157.656 256.008C157.036 255.242 156.727 254.154 156.727 252.742C156.727 251.331 157.039 250.234 157.664 249.453C158.289 248.672 159.159 248.281 160.273 248.281C161.435 248.281 162.326 248.703 162.945 249.547H163.047L162.992 248.93L162.961 248.328V244.844H164.258V257H163.203L163.031 255.852ZM160.438 256.07C161.323 256.07 161.964 255.831 162.359 255.352C162.76 254.867 162.961 254.089 162.961 253.016V252.742C162.961 251.529 162.758 250.664 162.352 250.148C161.951 249.628 161.307 249.367 160.422 249.367C159.661 249.367 159.078 249.664 158.672 250.258C158.271 250.846 158.07 251.68 158.07 252.758C158.07 253.852 158.271 254.677 158.672 255.234C159.073 255.792 159.661 256.07 160.438 256.07ZM172.281 257L172.023 255.781H171.961C171.534 256.318 171.107 256.682 170.68 256.875C170.258 257.062 169.729 257.156 169.094 257.156C168.245 257.156 167.578 256.938 167.094 256.5C166.615 256.062 166.375 255.44 166.375 254.633C166.375 252.904 167.758 251.997 170.523 251.914L171.977 251.867V251.336C171.977 250.664 171.831 250.169 171.539 249.852C171.253 249.529 170.792 249.367 170.156 249.367C169.443 249.367 168.635 249.586 167.734 250.023L167.336 249.031C167.758 248.802 168.219 248.622 168.719 248.492C169.224 248.362 169.729 248.297 170.234 248.297C171.255 248.297 172.01 248.523 172.5 248.977C172.995 249.43 173.242 250.156 173.242 251.156V257H172.281ZM169.352 256.086C170.159 256.086 170.792 255.865 171.25 255.422C171.714 254.979 171.945 254.359 171.945 253.562V252.789L170.648 252.844C169.617 252.88 168.872 253.042 168.414 253.328C167.961 253.609 167.734 254.049 167.734 254.648C167.734 255.117 167.875 255.474 168.156 255.719C168.443 255.964 168.841 256.086 169.352 256.086ZM178.688 256.086C178.917 256.086 179.138 256.07 179.352 256.039C179.565 256.003 179.734 255.966 179.859 255.93V256.922C179.719 256.99 179.51 257.044 179.234 257.086C178.964 257.133 178.719 257.156 178.5 257.156C176.844 257.156 176.016 256.284 176.016 254.539V249.445H174.789V248.82L176.016 248.281L176.562 246.453H177.312V248.438H179.797V249.445H177.312V254.484C177.312 255 177.435 255.396 177.68 255.672C177.924 255.948 178.26 256.086 178.688 256.086ZM186.844 257L186.586 255.781H186.523C186.096 256.318 185.669 256.682 185.242 256.875C184.82 257.062 184.292 257.156 183.656 257.156C182.807 257.156 182.141 256.938 181.656 256.5C181.177 256.062 180.938 255.44 180.938 254.633C180.938 252.904 182.32 251.997 185.086 251.914L186.539 251.867V251.336C186.539 250.664 186.393 250.169 186.102 249.852C185.815 249.529 185.354 249.367 184.719 249.367C184.005 249.367 183.198 249.586 182.297 250.023L181.898 249.031C182.32 248.802 182.781 248.622 183.281 248.492C183.786 248.362 184.292 248.297 184.797 248.297C185.818 248.297 186.573 248.523 187.062 248.977C187.557 249.43 187.805 250.156 187.805 251.156V257H186.844ZM183.914 256.086C184.721 256.086 185.354 255.865 185.812 255.422C186.276 254.979 186.508 254.359 186.508 253.562V252.789L185.211 252.844C184.18 252.88 183.435 253.042 182.977 253.328C182.523 253.609 182.297 254.049 182.297 254.648C182.297 255.117 182.438 255.474 182.719 255.719C183.005 255.964 183.404 256.086 183.914 256.086ZM201.633 257L200.062 251.977C199.964 251.669 199.779 250.971 199.508 249.883H199.445C199.237 250.794 199.055 251.497 198.898 251.992L197.281 257H195.781L193.445 248.438H194.805C195.357 250.589 195.776 252.227 196.062 253.352C196.354 254.477 196.521 255.234 196.562 255.625H196.625C196.682 255.328 196.773 254.945 196.898 254.477C197.029 254.003 197.141 253.628 197.234 253.352L198.805 248.438H200.211L201.742 253.352C202.034 254.247 202.232 255 202.336 255.609H202.398C202.419 255.422 202.474 255.133 202.562 254.742C202.656 254.352 203.201 252.25 204.195 248.438H205.539L203.172 257H201.633ZM208.391 257H207.094V248.438H208.391V257ZM206.984 246.117C206.984 245.82 207.057 245.604 207.203 245.469C207.349 245.328 207.531 245.258 207.75 245.258C207.958 245.258 208.138 245.328 208.289 245.469C208.44 245.609 208.516 245.826 208.516 246.117C208.516 246.409 208.44 246.628 208.289 246.773C208.138 246.914 207.958 246.984 207.75 246.984C207.531 246.984 207.349 246.914 207.203 246.773C207.057 246.628 206.984 246.409 206.984 246.117ZM212.438 257H211.141V244.844H212.438V257ZM216.484 257H215.188V244.844H216.484V257ZM227.375 248.297C228.5 248.297 229.372 248.682 229.992 249.453C230.617 250.219 230.93 251.305 230.93 252.711C230.93 254.117 230.615 255.211 229.984 255.992C229.359 256.768 228.49 257.156 227.375 257.156C226.818 257.156 226.307 257.055 225.844 256.852C225.385 256.643 225 256.326 224.688 255.898H224.594L224.32 257H223.391V244.844H224.688V247.797C224.688 248.458 224.667 249.052 224.625 249.578H224.688C225.292 248.724 226.188 248.297 227.375 248.297ZM227.188 249.383C226.302 249.383 225.664 249.638 225.273 250.148C224.883 250.654 224.688 251.508 224.688 252.711C224.688 253.914 224.888 254.776 225.289 255.297C225.69 255.812 226.333 256.07 227.219 256.07C228.016 256.07 228.609 255.781 229 255.203C229.391 254.62 229.586 253.784 229.586 252.695C229.586 251.581 229.391 250.75 229 250.203C228.609 249.656 228.005 249.383 227.188 249.383ZM236.82 257.156C235.555 257.156 234.555 256.771 233.82 256C233.091 255.229 232.727 254.159 232.727 252.789C232.727 251.409 233.065 250.312 233.742 249.5C234.424 248.688 235.339 248.281 236.484 248.281C237.557 248.281 238.406 248.635 239.031 249.344C239.656 250.047 239.969 250.977 239.969 252.133V252.953H234.07C234.096 253.958 234.349 254.721 234.828 255.242C235.312 255.763 235.992 256.023 236.867 256.023C237.789 256.023 238.701 255.831 239.602 255.445V256.602C239.143 256.799 238.708 256.94 238.297 257.023C237.891 257.112 237.398 257.156 236.82 257.156ZM236.469 249.367C235.781 249.367 235.232 249.591 234.82 250.039C234.414 250.487 234.174 251.107 234.102 251.898H238.578C238.578 251.081 238.396 250.456 238.031 250.023C237.667 249.586 237.146 249.367 236.469 249.367ZM250.328 257.156C249.771 257.156 249.26 257.055 248.797 256.852C248.339 256.643 247.953 256.326 247.641 255.898H247.547C247.609 256.398 247.641 256.872 247.641 257.32V260.844H246.344V248.438H247.398L247.578 249.609H247.641C247.974 249.141 248.362 248.802 248.805 248.594C249.247 248.385 249.755 248.281 250.328 248.281C251.464 248.281 252.339 248.669 252.953 249.445C253.573 250.221 253.883 251.31 253.883 252.711C253.883 254.117 253.568 255.211 252.938 255.992C252.312 256.768 251.443 257.156 250.328 257.156ZM250.141 249.383C249.266 249.383 248.633 249.625 248.242 250.109C247.852 250.594 247.651 251.365 247.641 252.422V252.711C247.641 253.914 247.841 254.776 248.242 255.297C248.643 255.812 249.286 256.07 250.172 256.07C250.911 256.07 251.49 255.771 251.906 255.172C252.328 254.573 252.539 253.747 252.539 252.695C252.539 251.628 252.328 250.81 251.906 250.242C251.49 249.669 250.901 249.383 250.141 249.383ZM259.773 257.156C258.508 257.156 257.508 256.771 256.773 256C256.044 255.229 255.68 254.159 255.68 252.789C255.68 251.409 256.018 250.312 256.695 249.5C257.378 248.688 258.292 248.281 259.438 248.281C260.51 248.281 261.359 248.635 261.984 249.344C262.609 250.047 262.922 250.977 262.922 252.133V252.953H257.023C257.049 253.958 257.302 254.721 257.781 255.242C258.266 255.763 258.945 256.023 259.82 256.023C260.742 256.023 261.654 255.831 262.555 255.445V256.602C262.096 256.799 261.661 256.94 261.25 257.023C260.844 257.112 260.352 257.156 259.773 257.156ZM259.422 249.367C258.734 249.367 258.185 249.591 257.773 250.039C257.367 250.487 257.128 251.107 257.055 251.898H261.531C261.531 251.081 261.349 250.456 260.984 250.023C260.62 249.586 260.099 249.367 259.422 249.367ZM269.047 248.281C269.427 248.281 269.768 248.312 270.07 248.375L269.891 249.578C269.536 249.5 269.224 249.461 268.953 249.461C268.26 249.461 267.667 249.742 267.172 250.305C266.682 250.867 266.438 251.568 266.438 252.406V257H265.141V248.438H266.211L266.359 250.023H266.422C266.74 249.466 267.122 249.036 267.57 248.734C268.018 248.432 268.51 248.281 269.047 248.281ZM282.586 257V251.43C282.586 250.747 282.44 250.237 282.148 249.898C281.857 249.555 281.404 249.383 280.789 249.383C279.982 249.383 279.385 249.615 279 250.078C278.615 250.542 278.422 251.255 278.422 252.219V257H277.125V251.43C277.125 250.747 276.979 250.237 276.688 249.898C276.396 249.555 275.94 249.383 275.32 249.383C274.508 249.383 273.911 249.628 273.531 250.117C273.156 250.602 272.969 251.398 272.969 252.508V257H271.672V248.438H272.727L272.938 249.609H273C273.245 249.193 273.589 248.867 274.031 248.633C274.479 248.398 274.979 248.281 275.531 248.281C276.87 248.281 277.745 248.766 278.156 249.734H278.219C278.474 249.286 278.844 248.932 279.328 248.672C279.812 248.411 280.365 248.281 280.984 248.281C281.953 248.281 282.677 248.531 283.156 249.031C283.641 249.526 283.883 250.32 283.883 251.414V257H282.586ZM291.828 257L291.57 255.781H291.508C291.081 256.318 290.654 256.682 290.227 256.875C289.805 257.062 289.276 257.156 288.641 257.156C287.792 257.156 287.125 256.938 286.641 256.5C286.161 256.062 285.922 255.44 285.922 254.633C285.922 252.904 287.305 251.997 290.07 251.914L291.523 251.867V251.336C291.523 250.664 291.378 250.169 291.086 249.852C290.799 249.529 290.339 249.367 289.703 249.367C288.99 249.367 288.182 249.586 287.281 250.023L286.883 249.031C287.305 248.802 287.766 248.622 288.266 248.492C288.771 248.362 289.276 248.297 289.781 248.297C290.802 248.297 291.557 248.523 292.047 248.977C292.542 249.43 292.789 250.156 292.789 251.156V257H291.828ZM288.898 256.086C289.706 256.086 290.339 255.865 290.797 255.422C291.26 254.979 291.492 254.359 291.492 253.562V252.789L290.195 252.844C289.164 252.88 288.419 253.042 287.961 253.328C287.508 253.609 287.281 254.049 287.281 254.648C287.281 255.117 287.422 255.474 287.703 255.719C287.99 255.964 288.388 256.086 288.898 256.086ZM301.328 257V251.461C301.328 250.763 301.169 250.242 300.852 249.898C300.534 249.555 300.036 249.383 299.359 249.383C298.464 249.383 297.807 249.625 297.391 250.109C296.974 250.594 296.766 251.393 296.766 252.508V257H295.469V248.438H296.523L296.734 249.609H296.797C297.062 249.188 297.435 248.862 297.914 248.633C298.393 248.398 298.927 248.281 299.516 248.281C300.547 248.281 301.323 248.531 301.844 249.031C302.365 249.526 302.625 250.32 302.625 251.414V257H301.328ZM308.914 257.156C307.648 257.156 306.648 256.771 305.914 256C305.185 255.229 304.82 254.159 304.82 252.789C304.82 251.409 305.159 250.312 305.836 249.5C306.518 248.688 307.432 248.281 308.578 248.281C309.651 248.281 310.5 248.635 311.125 249.344C311.75 250.047 312.062 250.977 312.062 252.133V252.953H306.164C306.19 253.958 306.443 254.721 306.922 255.242C307.406 255.763 308.086 256.023 308.961 256.023C309.883 256.023 310.794 255.831 311.695 255.445V256.602C311.237 256.799 310.802 256.94 310.391 257.023C309.984 257.112 309.492 257.156 308.914 257.156ZM308.562 249.367C307.875 249.367 307.326 249.591 306.914 250.039C306.508 250.487 306.268 251.107 306.195 251.898H310.672C310.672 251.081 310.49 250.456 310.125 250.023C309.76 249.586 309.24 249.367 308.562 249.367ZM320.141 257V251.461C320.141 250.763 319.982 250.242 319.664 249.898C319.346 249.555 318.849 249.383 318.172 249.383C317.276 249.383 316.62 249.625 316.203 250.109C315.786 250.594 315.578 251.393 315.578 252.508V257H314.281V248.438H315.336L315.547 249.609H315.609C315.875 249.188 316.247 248.862 316.727 248.633C317.206 248.398 317.74 248.281 318.328 248.281C319.359 248.281 320.135 248.531 320.656 249.031C321.177 249.526 321.438 250.32 321.438 251.414V257H320.141ZM326.875 256.086C327.104 256.086 327.326 256.07 327.539 256.039C327.753 256.003 327.922 255.966 328.047 255.93V256.922C327.906 256.99 327.698 257.044 327.422 257.086C327.151 257.133 326.906 257.156 326.688 257.156C325.031 257.156 324.203 256.284 324.203 254.539V249.445H322.977V248.82L324.203 248.281L324.75 246.453H325.5V248.438H327.984V249.445H325.5V254.484C325.5 255 325.622 255.396 325.867 255.672C326.112 255.948 326.448 256.086 326.875 256.086ZM331.062 257H329.766V244.844H331.062V257ZM332.453 248.438H333.844L335.719 253.32C336.13 254.435 336.385 255.24 336.484 255.734H336.547C336.615 255.469 336.755 255.016 336.969 254.375C337.188 253.729 337.896 251.75 339.094 248.438H340.484L336.805 258.188C336.44 259.151 336.013 259.833 335.523 260.234C335.039 260.641 334.443 260.844 333.734 260.844C333.339 260.844 332.948 260.799 332.562 260.711V259.672C332.849 259.734 333.169 259.766 333.523 259.766C334.414 259.766 335.049 259.266 335.43 258.266L335.906 257.047L332.453 248.438ZM128.992 279.156C127.727 279.156 126.727 278.771 125.992 278C125.263 277.229 124.898 276.159 124.898 274.789C124.898 273.409 125.237 272.312 125.914 271.5C126.596 270.688 127.51 270.281 128.656 270.281C129.729 270.281 130.578 270.635 131.203 271.344C131.828 272.047 132.141 272.977 132.141 274.133V274.953H126.242C126.268 275.958 126.521 276.721 127 277.242C127.484 277.763 128.164 278.023 129.039 278.023C129.961 278.023 130.872 277.831 131.773 277.445V278.602C131.315 278.799 130.88 278.94 130.469 279.023C130.062 279.112 129.57 279.156 128.992 279.156ZM128.641 271.367C127.953 271.367 127.404 271.591 126.992 272.039C126.586 272.487 126.346 273.107 126.273 273.898H130.75C130.75 273.081 130.568 272.456 130.203 272.023C129.839 271.586 129.318 271.367 128.641 271.367ZM138.266 270.281C138.646 270.281 138.987 270.312 139.289 270.375L139.109 271.578C138.755 271.5 138.443 271.461 138.172 271.461C137.479 271.461 136.885 271.742 136.391 272.305C135.901 272.867 135.656 273.568 135.656 274.406V279H134.359V270.438H135.43L135.578 272.023H135.641C135.958 271.466 136.341 271.036 136.789 270.734C137.237 270.432 137.729 270.281 138.266 270.281ZM146.156 279L145.898 277.781H145.836C145.409 278.318 144.982 278.682 144.555 278.875C144.133 279.062 143.604 279.156 142.969 279.156C142.12 279.156 141.453 278.938 140.969 278.5C140.49 278.062 140.25 277.44 140.25 276.633C140.25 274.904 141.633 273.997 144.398 273.914L145.852 273.867V273.336C145.852 272.664 145.706 272.169 145.414 271.852C145.128 271.529 144.667 271.367 144.031 271.367C143.318 271.367 142.51 271.586 141.609 272.023L141.211 271.031C141.633 270.802 142.094 270.622 142.594 270.492C143.099 270.362 143.604 270.297 144.109 270.297C145.13 270.297 145.885 270.523 146.375 270.977C146.87 271.43 147.117 272.156 147.117 273.156V279H146.156ZM143.227 278.086C144.034 278.086 144.667 277.865 145.125 277.422C145.589 276.979 145.82 276.359 145.82 275.562V274.789L144.523 274.844C143.492 274.88 142.747 275.042 142.289 275.328C141.836 275.609 141.609 276.049 141.609 276.648C141.609 277.117 141.75 277.474 142.031 277.719C142.318 277.964 142.716 278.086 143.227 278.086ZM155.32 276.664C155.32 277.461 155.023 278.076 154.43 278.508C153.836 278.94 153.003 279.156 151.93 279.156C150.794 279.156 149.909 278.977 149.273 278.617V277.414C149.685 277.622 150.125 277.786 150.594 277.906C151.068 278.026 151.523 278.086 151.961 278.086C152.638 278.086 153.159 277.979 153.523 277.766C153.888 277.547 154.07 277.216 154.07 276.773C154.07 276.44 153.924 276.156 153.633 275.922C153.346 275.682 152.784 275.401 151.945 275.078C151.148 274.781 150.581 274.523 150.242 274.305C149.909 274.081 149.659 273.828 149.492 273.547C149.331 273.266 149.25 272.93 149.25 272.539C149.25 271.841 149.534 271.292 150.102 270.891C150.669 270.484 151.448 270.281 152.438 270.281C153.359 270.281 154.26 270.469 155.141 270.844L154.68 271.898C153.82 271.544 153.042 271.367 152.344 271.367C151.729 271.367 151.266 271.464 150.953 271.656C150.641 271.849 150.484 272.115 150.484 272.453C150.484 272.682 150.542 272.878 150.656 273.039C150.776 273.201 150.966 273.354 151.227 273.5C151.487 273.646 151.987 273.857 152.727 274.133C153.742 274.503 154.427 274.875 154.781 275.25C155.141 275.625 155.32 276.096 155.32 276.664ZM161.055 279.156C159.789 279.156 158.789 278.771 158.055 278C157.326 277.229 156.961 276.159 156.961 274.789C156.961 273.409 157.299 272.312 157.977 271.5C158.659 270.688 159.573 270.281 160.719 270.281C161.792 270.281 162.641 270.635 163.266 271.344C163.891 272.047 164.203 272.977 164.203 274.133V274.953H158.305C158.331 275.958 158.583 276.721 159.062 277.242C159.547 277.763 160.227 278.023 161.102 278.023C162.023 278.023 162.935 277.831 163.836 277.445V278.602C163.378 278.799 162.943 278.94 162.531 279.023C162.125 279.112 161.633 279.156 161.055 279.156ZM160.703 271.367C160.016 271.367 159.466 271.591 159.055 272.039C158.648 272.487 158.409 273.107 158.336 273.898H162.812C162.812 273.081 162.63 272.456 162.266 272.023C161.901 271.586 161.38 271.367 160.703 271.367ZM172.25 277.852H172.18C171.581 278.721 170.685 279.156 169.492 279.156C168.372 279.156 167.5 278.773 166.875 278.008C166.255 277.242 165.945 276.154 165.945 274.742C165.945 273.331 166.258 272.234 166.883 271.453C167.508 270.672 168.378 270.281 169.492 270.281C170.654 270.281 171.544 270.703 172.164 271.547H172.266L172.211 270.93L172.18 270.328V266.844H173.477V279H172.422L172.25 277.852ZM169.656 278.07C170.542 278.07 171.182 277.831 171.578 277.352C171.979 276.867 172.18 276.089 172.18 275.016V274.742C172.18 273.529 171.977 272.664 171.57 272.148C171.169 271.628 170.526 271.367 169.641 271.367C168.88 271.367 168.297 271.664 167.891 272.258C167.49 272.846 167.289 273.68 167.289 274.758C167.289 275.852 167.49 276.677 167.891 277.234C168.292 277.792 168.88 278.07 169.656 278.07ZM177.406 275.852H176.586L176.188 267.578H177.805L177.406 275.852ZM176.047 278.172C176.047 277.464 176.359 277.109 176.984 277.109C177.286 277.109 177.518 277.201 177.68 277.383C177.846 277.565 177.93 277.828 177.93 278.172C177.93 278.505 177.846 278.766 177.68 278.953C177.513 279.135 177.281 279.227 176.984 279.227C176.714 279.227 176.49 279.146 176.312 278.984C176.135 278.818 176.047 278.547 176.047 278.172ZM181.688 275.852H180.867L180.469 267.578H182.086L181.688 275.852ZM180.328 278.172C180.328 277.464 180.641 277.109 181.266 277.109C181.568 277.109 181.799 277.201 181.961 277.383C182.128 277.565 182.211 277.828 182.211 278.172C182.211 278.505 182.128 278.766 181.961 278.953C181.794 279.135 181.562 279.227 181.266 279.227C180.995 279.227 180.771 279.146 180.594 278.984C180.417 278.818 180.328 278.547 180.328 278.172ZM185.969 275.852H185.148L184.75 267.578H186.367L185.969 275.852ZM184.609 278.172C184.609 277.464 184.922 277.109 185.547 277.109C185.849 277.109 186.081 277.201 186.242 277.383C186.409 277.565 186.492 277.828 186.492 278.172C186.492 278.505 186.409 278.766 186.242 278.953C186.076 279.135 185.844 279.227 185.547 279.227C185.276 279.227 185.052 279.146 184.875 278.984C184.698 278.818 184.609 278.547 184.609 278.172ZM200.609 279L199.188 275.367H194.609L193.203 279H191.859L196.375 267.531H197.492L201.984 279H200.609ZM198.773 274.172L197.445 270.633C197.273 270.185 197.096 269.635 196.914 268.984C196.799 269.484 196.635 270.034 196.422 270.633L195.078 274.172H198.773ZM207.266 270.281C207.646 270.281 207.987 270.312 208.289 270.375L208.109 271.578C207.755 271.5 207.443 271.461 207.172 271.461C206.479 271.461 205.885 271.742 205.391 272.305C204.901 272.867 204.656 273.568 204.656 274.406V279H203.359V270.438H204.43L204.578 272.023H204.641C204.958 271.466 205.341 271.036 205.789 270.734C206.237 270.432 206.729 270.281 207.266 270.281ZM213.508 279.156C212.242 279.156 211.242 278.771 210.508 278C209.779 277.229 209.414 276.159 209.414 274.789C209.414 273.409 209.753 272.312 210.43 271.5C211.112 270.688 212.026 270.281 213.172 270.281C214.245 270.281 215.094 270.635 215.719 271.344C216.344 272.047 216.656 272.977 216.656 274.133V274.953H210.758C210.784 275.958 211.036 276.721 211.516 277.242C212 277.763 212.68 278.023 213.555 278.023C214.477 278.023 215.388 277.831 216.289 277.445V278.602C215.831 278.799 215.396 278.94 214.984 279.023C214.578 279.112 214.086 279.156 213.508 279.156ZM213.156 271.367C212.469 271.367 211.919 271.591 211.508 272.039C211.102 272.487 210.862 273.107 210.789 273.898H215.266C215.266 273.081 215.083 272.456 214.719 272.023C214.354 271.586 213.833 271.367 213.156 271.367ZM221.672 270.438H223.062L224.938 275.32C225.349 276.435 225.604 277.24 225.703 277.734H225.766C225.833 277.469 225.974 277.016 226.188 276.375C226.406 275.729 227.115 273.75 228.312 270.438H229.703L226.023 280.188C225.659 281.151 225.232 281.833 224.742 282.234C224.258 282.641 223.661 282.844 222.953 282.844C222.557 282.844 222.167 282.799 221.781 282.711V281.672C222.068 281.734 222.388 281.766 222.742 281.766C223.633 281.766 224.268 281.266 224.648 280.266L225.125 279.047L221.672 270.438ZM238.484 274.711C238.484 276.107 238.133 277.198 237.43 277.984C236.727 278.766 235.755 279.156 234.516 279.156C233.75 279.156 233.07 278.977 232.477 278.617C231.883 278.258 231.424 277.742 231.102 277.07C230.779 276.398 230.617 275.612 230.617 274.711C230.617 273.315 230.966 272.229 231.664 271.453C232.362 270.672 233.331 270.281 234.57 270.281C235.768 270.281 236.719 270.68 237.422 271.477C238.13 272.273 238.484 273.352 238.484 274.711ZM231.961 274.711C231.961 275.805 232.18 276.638 232.617 277.211C233.055 277.784 233.698 278.07 234.547 278.07C235.396 278.07 236.039 277.786 236.477 277.219C236.919 276.646 237.141 275.81 237.141 274.711C237.141 273.622 236.919 272.797 236.477 272.234C236.039 271.667 235.391 271.383 234.531 271.383C233.682 271.383 233.042 271.661 232.609 272.219C232.177 272.776 231.961 273.607 231.961 274.711ZM241.984 270.438V275.992C241.984 276.69 242.143 277.211 242.461 277.555C242.779 277.898 243.276 278.07 243.953 278.07C244.849 278.07 245.503 277.826 245.914 277.336C246.331 276.846 246.539 276.047 246.539 274.938V270.438H247.836V279H246.766L246.578 277.852H246.508C246.242 278.273 245.872 278.596 245.398 278.82C244.93 279.044 244.393 279.156 243.789 279.156C242.747 279.156 241.966 278.909 241.445 278.414C240.93 277.919 240.672 277.128 240.672 276.039V270.438H241.984ZM260.273 276.664C260.273 277.461 259.977 278.076 259.383 278.508C258.789 278.94 257.956 279.156 256.883 279.156C255.747 279.156 254.862 278.977 254.227 278.617V277.414C254.638 277.622 255.078 277.786 255.547 277.906C256.021 278.026 256.477 278.086 256.914 278.086C257.591 278.086 258.112 277.979 258.477 277.766C258.841 277.547 259.023 277.216 259.023 276.773C259.023 276.44 258.878 276.156 258.586 275.922C258.299 275.682 257.737 275.401 256.898 275.078C256.102 274.781 255.534 274.523 255.195 274.305C254.862 274.081 254.612 273.828 254.445 273.547C254.284 273.266 254.203 272.93 254.203 272.539C254.203 271.841 254.487 271.292 255.055 270.891C255.622 270.484 256.401 270.281 257.391 270.281C258.312 270.281 259.214 270.469 260.094 270.844L259.633 271.898C258.773 271.544 257.995 271.367 257.297 271.367C256.682 271.367 256.219 271.464 255.906 271.656C255.594 271.849 255.438 272.115 255.438 272.453C255.438 272.682 255.495 272.878 255.609 273.039C255.729 273.201 255.919 273.354 256.18 273.5C256.44 273.646 256.94 273.857 257.68 274.133C258.695 274.503 259.38 274.875 259.734 275.25C260.094 275.625 260.273 276.096 260.273 276.664ZM263.609 270.438V275.992C263.609 276.69 263.768 277.211 264.086 277.555C264.404 277.898 264.901 278.07 265.578 278.07C266.474 278.07 267.128 277.826 267.539 277.336C267.956 276.846 268.164 276.047 268.164 274.938V270.438H269.461V279H268.391L268.203 277.852H268.133C267.867 278.273 267.497 278.596 267.023 278.82C266.555 279.044 266.018 279.156 265.414 279.156C264.372 279.156 263.591 278.909 263.07 278.414C262.555 277.919 262.297 277.128 262.297 276.039V270.438H263.609ZM276.125 270.281C276.505 270.281 276.846 270.312 277.148 270.375L276.969 271.578C276.615 271.5 276.302 271.461 276.031 271.461C275.339 271.461 274.745 271.742 274.25 272.305C273.76 272.867 273.516 273.568 273.516 274.406V279H272.219V270.438H273.289L273.438 272.023H273.5C273.818 271.466 274.201 271.036 274.648 270.734C275.096 270.432 275.589 270.281 276.125 270.281ZM282.367 279.156C281.102 279.156 280.102 278.771 279.367 278C278.638 277.229 278.273 276.159 278.273 274.789C278.273 273.409 278.612 272.312 279.289 271.5C279.971 270.688 280.885 270.281 282.031 270.281C283.104 270.281 283.953 270.635 284.578 271.344C285.203 272.047 285.516 272.977 285.516 274.133V274.953H279.617C279.643 275.958 279.896 276.721 280.375 277.242C280.859 277.763 281.539 278.023 282.414 278.023C283.336 278.023 284.247 277.831 285.148 277.445V278.602C284.69 278.799 284.255 278.94 283.844 279.023C283.438 279.112 282.945 279.156 282.367 279.156ZM282.016 271.367C281.328 271.367 280.779 271.591 280.367 272.039C279.961 272.487 279.721 273.107 279.648 273.898H284.125C284.125 273.081 283.943 272.456 283.578 272.023C283.214 271.586 282.693 271.367 282.016 271.367ZM290.531 270.438H291.922L293.797 275.32C294.208 276.435 294.464 277.24 294.562 277.734H294.625C294.693 277.469 294.833 277.016 295.047 276.375C295.266 275.729 295.974 273.75 297.172 270.438H298.562L294.883 280.188C294.518 281.151 294.091 281.833 293.602 282.234C293.117 282.641 292.521 282.844 291.812 282.844C291.417 282.844 291.026 282.799 290.641 282.711V281.672C290.927 281.734 291.247 281.766 291.602 281.766C292.492 281.766 293.128 281.266 293.508 280.266L293.984 279.047L290.531 270.438ZM307.344 274.711C307.344 276.107 306.992 277.198 306.289 277.984C305.586 278.766 304.615 279.156 303.375 279.156C302.609 279.156 301.93 278.977 301.336 278.617C300.742 278.258 300.284 277.742 299.961 277.07C299.638 276.398 299.477 275.612 299.477 274.711C299.477 273.315 299.826 272.229 300.523 271.453C301.221 270.672 302.19 270.281 303.43 270.281C304.628 270.281 305.578 270.68 306.281 271.477C306.99 272.273 307.344 273.352 307.344 274.711ZM300.82 274.711C300.82 275.805 301.039 276.638 301.477 277.211C301.914 277.784 302.557 278.07 303.406 278.07C304.255 278.07 304.898 277.786 305.336 277.219C305.779 276.646 306 275.81 306 274.711C306 273.622 305.779 272.797 305.336 272.234C304.898 271.667 304.25 271.383 303.391 271.383C302.542 271.383 301.901 271.661 301.469 272.219C301.036 272.776 300.82 273.607 300.82 274.711ZM310.844 270.438V275.992C310.844 276.69 311.003 277.211 311.32 277.555C311.638 277.898 312.135 278.07 312.812 278.07C313.708 278.07 314.362 277.826 314.773 277.336C315.19 276.846 315.398 276.047 315.398 274.938V270.438H316.695V279H315.625L315.438 277.852H315.367C315.102 278.273 314.732 278.596 314.258 278.82C313.789 279.044 313.253 279.156 312.648 279.156C311.607 279.156 310.826 278.909 310.305 278.414C309.789 277.919 309.531 277.128 309.531 276.039V270.438H310.844ZM330.602 279L329.031 273.977C328.932 273.669 328.747 272.971 328.477 271.883H328.414C328.206 272.794 328.023 273.497 327.867 273.992L326.25 279H324.75L322.414 270.438H323.773C324.326 272.589 324.745 274.227 325.031 275.352C325.323 276.477 325.49 277.234 325.531 277.625H325.594C325.651 277.328 325.742 276.945 325.867 276.477C325.997 276.003 326.109 275.628 326.203 275.352L327.773 270.438H329.18L330.711 275.352C331.003 276.247 331.201 277 331.305 277.609H331.367C331.388 277.422 331.443 277.133 331.531 276.742C331.625 276.352 332.169 274.25 333.164 270.438H334.508L332.141 279H330.602ZM341.328 279L341.07 277.781H341.008C340.581 278.318 340.154 278.682 339.727 278.875C339.305 279.062 338.776 279.156 338.141 279.156C337.292 279.156 336.625 278.938 336.141 278.5C335.661 278.062 335.422 277.44 335.422 276.633C335.422 274.904 336.805 273.997 339.57 273.914L341.023 273.867V273.336C341.023 272.664 340.878 272.169 340.586 271.852C340.299 271.529 339.839 271.367 339.203 271.367C338.49 271.367 337.682 271.586 336.781 272.023L336.383 271.031C336.805 270.802 337.266 270.622 337.766 270.492C338.271 270.362 338.776 270.297 339.281 270.297C340.302 270.297 341.057 270.523 341.547 270.977C342.042 271.43 342.289 272.156 342.289 273.156V279H341.328ZM338.398 278.086C339.206 278.086 339.839 277.865 340.297 277.422C340.76 276.979 340.992 276.359 340.992 275.562V274.789L339.695 274.844C338.664 274.88 337.919 275.042 337.461 275.328C337.008 275.609 336.781 276.049 336.781 276.648C336.781 277.117 336.922 277.474 337.203 277.719C337.49 277.964 337.888 278.086 338.398 278.086ZM350.828 279V273.461C350.828 272.763 350.669 272.242 350.352 271.898C350.034 271.555 349.536 271.383 348.859 271.383C347.964 271.383 347.307 271.625 346.891 272.109C346.474 272.594 346.266 273.393 346.266 274.508V279H344.969V270.438H346.023L346.234 271.609H346.297C346.562 271.188 346.935 270.862 347.414 270.633C347.893 270.398 348.427 270.281 349.016 270.281C350.047 270.281 350.823 270.531 351.344 271.031C351.865 271.526 352.125 272.32 352.125 273.414V279H350.828ZM357.562 278.086C357.792 278.086 358.013 278.07 358.227 278.039C358.44 278.003 358.609 277.966 358.734 277.93V278.922C358.594 278.99 358.385 279.044 358.109 279.086C357.839 279.133 357.594 279.156 357.375 279.156C355.719 279.156 354.891 278.284 354.891 276.539V271.445H353.664V270.82L354.891 270.281L355.438 268.453H356.188V270.438H358.672V271.445H356.188V276.484C356.188 277 356.31 277.396 356.555 277.672C356.799 277.948 357.135 278.086 357.562 278.086ZM128.141 300.086C128.37 300.086 128.591 300.07 128.805 300.039C129.018 300.003 129.188 299.966 129.312 299.93V300.922C129.172 300.99 128.964 301.044 128.688 301.086C128.417 301.133 128.172 301.156 127.953 301.156C126.297 301.156 125.469 300.284 125.469 298.539V293.445H124.242V292.82L125.469 292.281L126.016 290.453H126.766V292.438H129.25V293.445H126.766V298.484C126.766 299 126.888 299.396 127.133 299.672C127.378 299.948 127.714 300.086 128.141 300.086ZM138.422 296.711C138.422 298.107 138.07 299.198 137.367 299.984C136.664 300.766 135.693 301.156 134.453 301.156C133.688 301.156 133.008 300.977 132.414 300.617C131.82 300.258 131.362 299.742 131.039 299.07C130.716 298.398 130.555 297.612 130.555 296.711C130.555 295.315 130.904 294.229 131.602 293.453C132.299 292.672 133.268 292.281 134.508 292.281C135.706 292.281 136.656 292.68 137.359 293.477C138.068 294.273 138.422 295.352 138.422 296.711ZM131.898 296.711C131.898 297.805 132.117 298.638 132.555 299.211C132.992 299.784 133.635 300.07 134.484 300.07C135.333 300.07 135.977 299.786 136.414 299.219C136.857 298.646 137.078 297.81 137.078 296.711C137.078 295.622 136.857 294.797 136.414 294.234C135.977 293.667 135.328 293.383 134.469 293.383C133.62 293.383 132.979 293.661 132.547 294.219C132.115 294.776 131.898 295.607 131.898 296.711ZM148.477 301.156C147.211 301.156 146.211 300.771 145.477 300C144.747 299.229 144.383 298.159 144.383 296.789C144.383 295.409 144.721 294.312 145.398 293.5C146.081 292.688 146.995 292.281 148.141 292.281C149.214 292.281 150.062 292.635 150.688 293.344C151.312 294.047 151.625 294.977 151.625 296.133V296.953H145.727C145.753 297.958 146.005 298.721 146.484 299.242C146.969 299.763 147.648 300.023 148.523 300.023C149.445 300.023 150.357 299.831 151.258 299.445V300.602C150.799 300.799 150.365 300.94 149.953 301.023C149.547 301.112 149.055 301.156 148.477 301.156ZM148.125 293.367C147.438 293.367 146.888 293.591 146.477 294.039C146.07 294.487 145.831 295.107 145.758 295.898H150.234C150.234 295.081 150.052 294.456 149.688 294.023C149.323 293.586 148.802 293.367 148.125 293.367ZM155.906 296.617L152.93 292.438H154.406L156.664 295.719L158.914 292.438H160.375L157.398 296.617L160.531 301H159.062L156.664 297.531L154.242 301H152.773L155.906 296.617ZM165.852 301.156C164.586 301.156 163.586 300.771 162.852 300C162.122 299.229 161.758 298.159 161.758 296.789C161.758 295.409 162.096 294.312 162.773 293.5C163.456 292.688 164.37 292.281 165.516 292.281C166.589 292.281 167.438 292.635 168.062 293.344C168.688 294.047 169 294.977 169 296.133V296.953H163.102C163.128 297.958 163.38 298.721 163.859 299.242C164.344 299.763 165.023 300.023 165.898 300.023C166.82 300.023 167.732 299.831 168.633 299.445V300.602C168.174 300.799 167.74 300.94 167.328 301.023C166.922 301.112 166.43 301.156 165.852 301.156ZM165.5 293.367C164.812 293.367 164.263 293.591 163.852 294.039C163.445 294.487 163.206 295.107 163.133 295.898H167.609C167.609 295.081 167.427 294.456 167.062 294.023C166.698 293.586 166.177 293.367 165.5 293.367ZM174.641 301.156C173.401 301.156 172.44 300.776 171.758 300.016C171.081 299.25 170.742 298.169 170.742 296.773C170.742 295.341 171.086 294.234 171.773 293.453C172.466 292.672 173.451 292.281 174.727 292.281C175.138 292.281 175.549 292.326 175.961 292.414C176.372 292.503 176.695 292.607 176.93 292.727L176.531 293.828C176.245 293.714 175.932 293.62 175.594 293.547C175.255 293.469 174.956 293.43 174.695 293.43C172.956 293.43 172.086 294.539 172.086 296.758C172.086 297.81 172.297 298.617 172.719 299.18C173.146 299.742 173.776 300.023 174.609 300.023C175.323 300.023 176.055 299.87 176.805 299.562V300.711C176.232 301.008 175.51 301.156 174.641 301.156ZM180.062 292.438V297.992C180.062 298.69 180.221 299.211 180.539 299.555C180.857 299.898 181.354 300.07 182.031 300.07C182.927 300.07 183.581 299.826 183.992 299.336C184.409 298.846 184.617 298.047 184.617 296.938V292.438H185.914V301H184.844L184.656 299.852H184.586C184.32 300.273 183.951 300.596 183.477 300.82C183.008 301.044 182.471 301.156 181.867 301.156C180.826 301.156 180.044 300.909 179.523 300.414C179.008 299.919 178.75 299.128 178.75 298.039V292.438H180.062ZM191.438 300.086C191.667 300.086 191.888 300.07 192.102 300.039C192.315 300.003 192.484 299.966 192.609 299.93V300.922C192.469 300.99 192.26 301.044 191.984 301.086C191.714 301.133 191.469 301.156 191.25 301.156C189.594 301.156 188.766 300.284 188.766 298.539V293.445H187.539V292.82L188.766 292.281L189.312 290.453H190.062V292.438H192.547V293.445H190.062V298.484C190.062 299 190.185 299.396 190.43 299.672C190.674 299.948 191.01 300.086 191.438 300.086ZM197.945 301.156C196.68 301.156 195.68 300.771 194.945 300C194.216 299.229 193.852 298.159 193.852 296.789C193.852 295.409 194.19 294.312 194.867 293.5C195.549 292.688 196.464 292.281 197.609 292.281C198.682 292.281 199.531 292.635 200.156 293.344C200.781 294.047 201.094 294.977 201.094 296.133V296.953H195.195C195.221 297.958 195.474 298.721 195.953 299.242C196.438 299.763 197.117 300.023 197.992 300.023C198.914 300.023 199.826 299.831 200.727 299.445V300.602C200.268 300.799 199.833 300.94 199.422 301.023C199.016 301.112 198.523 301.156 197.945 301.156ZM197.594 293.367C196.906 293.367 196.357 293.591 195.945 294.039C195.539 294.487 195.299 295.107 195.227 295.898H199.703C199.703 295.081 199.521 294.456 199.156 294.023C198.792 293.586 198.271 293.367 197.594 293.367ZM210.234 300.086C210.464 300.086 210.685 300.07 210.898 300.039C211.112 300.003 211.281 299.966 211.406 299.93V300.922C211.266 300.99 211.057 301.044 210.781 301.086C210.51 301.133 210.266 301.156 210.047 301.156C208.391 301.156 207.562 300.284 207.562 298.539V293.445H206.336V292.82L207.562 292.281L208.109 290.453H208.859V292.438H211.344V293.445H208.859V298.484C208.859 299 208.982 299.396 209.227 299.672C209.471 299.948 209.807 300.086 210.234 300.086ZM218.984 301V295.461C218.984 294.763 218.826 294.242 218.508 293.898C218.19 293.555 217.693 293.383 217.016 293.383C216.115 293.383 215.456 293.628 215.039 294.117C214.628 294.607 214.422 295.409 214.422 296.523V301H213.125V288.844H214.422V292.523C214.422 292.966 214.401 293.333 214.359 293.625H214.438C214.693 293.214 215.055 292.891 215.523 292.656C215.997 292.417 216.536 292.297 217.141 292.297C218.188 292.297 218.971 292.547 219.492 293.047C220.018 293.542 220.281 294.331 220.281 295.414V301H218.984ZM226.57 301.156C225.305 301.156 224.305 300.771 223.57 300C222.841 299.229 222.477 298.159 222.477 296.789C222.477 295.409 222.815 294.312 223.492 293.5C224.174 292.688 225.089 292.281 226.234 292.281C227.307 292.281 228.156 292.635 228.781 293.344C229.406 294.047 229.719 294.977 229.719 296.133V296.953H223.82C223.846 297.958 224.099 298.721 224.578 299.242C225.062 299.763 225.742 300.023 226.617 300.023C227.539 300.023 228.451 299.831 229.352 299.445V300.602C228.893 300.799 228.458 300.94 228.047 301.023C227.641 301.112 227.148 301.156 226.57 301.156ZM226.219 293.367C225.531 293.367 224.982 293.591 224.57 294.039C224.164 294.487 223.924 295.107 223.852 295.898H228.328C228.328 295.081 228.146 294.456 227.781 294.023C227.417 293.586 226.896 293.367 226.219 293.367ZM241.922 299.852H241.852C241.253 300.721 240.357 301.156 239.164 301.156C238.044 301.156 237.172 300.773 236.547 300.008C235.927 299.242 235.617 298.154 235.617 296.742C235.617 295.331 235.93 294.234 236.555 293.453C237.18 292.672 238.049 292.281 239.164 292.281C240.326 292.281 241.216 292.703 241.836 293.547H241.938L241.883 292.93L241.852 292.328V288.844H243.148V301H242.094L241.922 299.852ZM239.328 300.07C240.214 300.07 240.854 299.831 241.25 299.352C241.651 298.867 241.852 298.089 241.852 297.016V296.742C241.852 295.529 241.648 294.664 241.242 294.148C240.841 293.628 240.198 293.367 239.312 293.367C238.552 293.367 237.969 293.664 237.562 294.258C237.161 294.846 236.961 295.68 236.961 296.758C236.961 297.852 237.161 298.677 237.562 299.234C237.964 299.792 238.552 300.07 239.328 300.07ZM249.523 301.156C248.258 301.156 247.258 300.771 246.523 300C245.794 299.229 245.43 298.159 245.43 296.789C245.43 295.409 245.768 294.312 246.445 293.5C247.128 292.688 248.042 292.281 249.188 292.281C250.26 292.281 251.109 292.635 251.734 293.344C252.359 294.047 252.672 294.977 252.672 296.133V296.953H246.773C246.799 297.958 247.052 298.721 247.531 299.242C248.016 299.763 248.695 300.023 249.57 300.023C250.492 300.023 251.404 299.831 252.305 299.445V300.602C251.846 300.799 251.411 300.94 251 301.023C250.594 301.112 250.102 301.156 249.523 301.156ZM249.172 293.367C248.484 293.367 247.935 293.591 247.523 294.039C247.117 294.487 246.878 295.107 246.805 295.898H251.281C251.281 295.081 251.099 294.456 250.734 294.023C250.37 293.586 249.849 293.367 249.172 293.367ZM256.188 301H254.891V288.844H256.188V301ZM262.555 301.156C261.289 301.156 260.289 300.771 259.555 300C258.826 299.229 258.461 298.159 258.461 296.789C258.461 295.409 258.799 294.312 259.477 293.5C260.159 292.688 261.073 292.281 262.219 292.281C263.292 292.281 264.141 292.635 264.766 293.344C265.391 294.047 265.703 294.977 265.703 296.133V296.953H259.805C259.831 297.958 260.083 298.721 260.562 299.242C261.047 299.763 261.727 300.023 262.602 300.023C263.523 300.023 264.435 299.831 265.336 299.445V300.602C264.878 300.799 264.443 300.94 264.031 301.023C263.625 301.112 263.133 301.156 262.555 301.156ZM262.203 293.367C261.516 293.367 260.966 293.591 260.555 294.039C260.148 294.487 259.909 295.107 259.836 295.898H264.312C264.312 295.081 264.13 294.456 263.766 294.023C263.401 293.586 262.88 293.367 262.203 293.367ZM270.688 300.086C270.917 300.086 271.138 300.07 271.352 300.039C271.565 300.003 271.734 299.966 271.859 299.93V300.922C271.719 300.99 271.51 301.044 271.234 301.086C270.964 301.133 270.719 301.156 270.5 301.156C268.844 301.156 268.016 300.284 268.016 298.539V293.445H266.789V292.82L268.016 292.281L268.562 290.453H269.312V292.438H271.797V293.445H269.312V298.484C269.312 299 269.435 299.396 269.68 299.672C269.924 299.948 270.26 300.086 270.688 300.086ZM277.195 301.156C275.93 301.156 274.93 300.771 274.195 300C273.466 299.229 273.102 298.159 273.102 296.789C273.102 295.409 273.44 294.312 274.117 293.5C274.799 292.688 275.714 292.281 276.859 292.281C277.932 292.281 278.781 292.635 279.406 293.344C280.031 294.047 280.344 294.977 280.344 296.133V296.953H274.445C274.471 297.958 274.724 298.721 275.203 299.242C275.688 299.763 276.367 300.023 277.242 300.023C278.164 300.023 279.076 299.831 279.977 299.445V300.602C279.518 300.799 279.083 300.94 278.672 301.023C278.266 301.112 277.773 301.156 277.195 301.156ZM276.844 293.367C276.156 293.367 275.607 293.591 275.195 294.039C274.789 294.487 274.549 295.107 274.477 295.898H278.953C278.953 295.081 278.771 294.456 278.406 294.023C278.042 293.586 277.521 293.367 276.844 293.367ZM294.109 296.711C294.109 298.107 293.758 299.198 293.055 299.984C292.352 300.766 291.38 301.156 290.141 301.156C289.375 301.156 288.695 300.977 288.102 300.617C287.508 300.258 287.049 299.742 286.727 299.07C286.404 298.398 286.242 297.612 286.242 296.711C286.242 295.315 286.591 294.229 287.289 293.453C287.987 292.672 288.956 292.281 290.195 292.281C291.393 292.281 292.344 292.68 293.047 293.477C293.755 294.273 294.109 295.352 294.109 296.711ZM287.586 296.711C287.586 297.805 287.805 298.638 288.242 299.211C288.68 299.784 289.323 300.07 290.172 300.07C291.021 300.07 291.664 299.786 292.102 299.219C292.544 298.646 292.766 297.81 292.766 296.711C292.766 295.622 292.544 294.797 292.102 294.234C291.664 293.667 291.016 293.383 290.156 293.383C289.307 293.383 288.667 293.661 288.234 294.219C287.802 294.776 287.586 295.607 287.586 296.711ZM300.375 301.156C299.818 301.156 299.307 301.055 298.844 300.852C298.385 300.643 298 300.326 297.688 299.898H297.594C297.656 300.398 297.688 300.872 297.688 301.32V304.844H296.391V292.438H297.445L297.625 293.609H297.688C298.021 293.141 298.409 292.802 298.852 292.594C299.294 292.385 299.802 292.281 300.375 292.281C301.51 292.281 302.385 292.669 303 293.445C303.62 294.221 303.93 295.31 303.93 296.711C303.93 298.117 303.615 299.211 302.984 299.992C302.359 300.768 301.49 301.156 300.375 301.156ZM300.188 293.383C299.312 293.383 298.68 293.625 298.289 294.109C297.898 294.594 297.698 295.365 297.688 296.422V296.711C297.688 297.914 297.888 298.776 298.289 299.297C298.69 299.812 299.333 300.07 300.219 300.07C300.958 300.07 301.536 299.771 301.953 299.172C302.375 298.573 302.586 297.747 302.586 296.695C302.586 295.628 302.375 294.81 301.953 294.242C301.536 293.669 300.948 293.383 300.188 293.383ZM309.82 301.156C308.555 301.156 307.555 300.771 306.82 300C306.091 299.229 305.727 298.159 305.727 296.789C305.727 295.409 306.065 294.312 306.742 293.5C307.424 292.688 308.339 292.281 309.484 292.281C310.557 292.281 311.406 292.635 312.031 293.344C312.656 294.047 312.969 294.977 312.969 296.133V296.953H307.07C307.096 297.958 307.349 298.721 307.828 299.242C308.312 299.763 308.992 300.023 309.867 300.023C310.789 300.023 311.701 299.831 312.602 299.445V300.602C312.143 300.799 311.708 300.94 311.297 301.023C310.891 301.112 310.398 301.156 309.82 301.156ZM309.469 293.367C308.781 293.367 308.232 293.591 307.82 294.039C307.414 294.487 307.174 295.107 307.102 295.898H311.578C311.578 295.081 311.396 294.456 311.031 294.023C310.667 293.586 310.146 293.367 309.469 293.367ZM319.094 292.281C319.474 292.281 319.815 292.312 320.117 292.375L319.938 293.578C319.583 293.5 319.271 293.461 319 293.461C318.307 293.461 317.714 293.742 317.219 294.305C316.729 294.867 316.484 295.568 316.484 296.406V301H315.188V292.438H316.258L316.406 294.023H316.469C316.786 293.466 317.169 293.036 317.617 292.734C318.065 292.432 318.557 292.281 319.094 292.281ZM326.984 301L326.727 299.781H326.664C326.237 300.318 325.81 300.682 325.383 300.875C324.961 301.062 324.432 301.156 323.797 301.156C322.948 301.156 322.281 300.938 321.797 300.5C321.318 300.062 321.078 299.44 321.078 298.633C321.078 296.904 322.461 295.997 325.227 295.914L326.68 295.867V295.336C326.68 294.664 326.534 294.169 326.242 293.852C325.956 293.529 325.495 293.367 324.859 293.367C324.146 293.367 323.339 293.586 322.438 294.023L322.039 293.031C322.461 292.802 322.922 292.622 323.422 292.492C323.927 292.362 324.432 292.297 324.938 292.297C325.958 292.297 326.714 292.523 327.203 292.977C327.698 293.43 327.945 294.156 327.945 295.156V301H326.984ZM324.055 300.086C324.862 300.086 325.495 299.865 325.953 299.422C326.417 298.979 326.648 298.359 326.648 297.562V296.789L325.352 296.844C324.32 296.88 323.576 297.042 323.117 297.328C322.664 297.609 322.438 298.049 322.438 298.648C322.438 299.117 322.578 299.474 322.859 299.719C323.146 299.964 323.544 300.086 324.055 300.086ZM333.391 300.086C333.62 300.086 333.841 300.07 334.055 300.039C334.268 300.003 334.438 299.966 334.562 299.93V300.922C334.422 300.99 334.214 301.044 333.938 301.086C333.667 301.133 333.422 301.156 333.203 301.156C331.547 301.156 330.719 300.284 330.719 298.539V293.445H329.492V292.82L330.719 292.281L331.266 290.453H332.016V292.438H334.5V293.445H332.016V298.484C332.016 299 332.138 299.396 332.383 299.672C332.628 299.948 332.964 300.086 333.391 300.086ZM337.578 301H336.281V292.438H337.578V301ZM336.172 290.117C336.172 289.82 336.245 289.604 336.391 289.469C336.536 289.328 336.719 289.258 336.938 289.258C337.146 289.258 337.326 289.328 337.477 289.469C337.628 289.609 337.703 289.826 337.703 290.117C337.703 290.409 337.628 290.628 337.477 290.773C337.326 290.914 337.146 290.984 336.938 290.984C336.719 290.984 336.536 290.914 336.391 290.773C336.245 290.628 336.172 290.409 336.172 290.117ZM347.719 296.711C347.719 298.107 347.367 299.198 346.664 299.984C345.961 300.766 344.99 301.156 343.75 301.156C342.984 301.156 342.305 300.977 341.711 300.617C341.117 300.258 340.659 299.742 340.336 299.07C340.013 298.398 339.852 297.612 339.852 296.711C339.852 295.315 340.201 294.229 340.898 293.453C341.596 292.672 342.565 292.281 343.805 292.281C345.003 292.281 345.953 292.68 346.656 293.477C347.365 294.273 347.719 295.352 347.719 296.711ZM341.195 296.711C341.195 297.805 341.414 298.638 341.852 299.211C342.289 299.784 342.932 300.07 343.781 300.07C344.63 300.07 345.273 299.786 345.711 299.219C346.154 298.646 346.375 297.81 346.375 296.711C346.375 295.622 346.154 294.797 345.711 294.234C345.273 293.667 344.625 293.383 343.766 293.383C342.917 293.383 342.276 293.661 341.844 294.219C341.411 294.776 341.195 295.607 341.195 296.711ZM355.859 301V295.461C355.859 294.763 355.701 294.242 355.383 293.898C355.065 293.555 354.568 293.383 353.891 293.383C352.995 293.383 352.339 293.625 351.922 294.109C351.505 294.594 351.297 295.393 351.297 296.508V301H350V292.438H351.055L351.266 293.609H351.328C351.594 293.188 351.966 292.862 352.445 292.633C352.924 292.398 353.458 292.281 354.047 292.281C355.078 292.281 355.854 292.531 356.375 293.031C356.896 293.526 357.156 294.32 357.156 295.414V301H355.859ZM360.711 297.852V297.43C360.711 296.82 360.805 296.32 360.992 295.93C361.18 295.534 361.529 295.117 362.039 294.68C362.747 294.081 363.193 293.63 363.375 293.328C363.562 293.026 363.656 292.661 363.656 292.234C363.656 291.703 363.484 291.294 363.141 291.008C362.802 290.716 362.312 290.57 361.672 290.57C361.26 290.57 360.859 290.62 360.469 290.719C360.078 290.812 359.63 290.987 359.125 291.242L358.664 290.188C359.648 289.672 360.677 289.414 361.75 289.414C362.745 289.414 363.518 289.659 364.07 290.148C364.622 290.638 364.898 291.328 364.898 292.219C364.898 292.599 364.846 292.935 364.742 293.227C364.643 293.513 364.495 293.786 364.297 294.047C364.099 294.302 363.672 294.716 363.016 295.289C362.49 295.737 362.141 296.109 361.969 296.406C361.802 296.703 361.719 297.099 361.719 297.594V297.852H360.711ZM360.328 300.172C360.328 299.464 360.641 299.109 361.266 299.109C361.568 299.109 361.799 299.201 361.961 299.383C362.128 299.565 362.211 299.828 362.211 300.172C362.211 300.505 362.128 300.766 361.961 300.953C361.794 301.135 361.562 301.227 361.266 301.227C360.995 301.227 360.771 301.146 360.594 300.984C360.417 300.818 360.328 300.547 360.328 300.172Z" fill="#424E54"/>
<path d="M229.571 344.764C228.632 344.764 227.894 345.096 227.356 345.762C226.819 346.427 226.55 347.345 226.55 348.517C226.55 349.743 226.807 350.67 227.322 351.299C227.842 351.928 228.591 352.242 229.571 352.242C229.995 352.242 230.405 352.201 230.802 352.119C231.198 352.033 231.611 351.923 232.039 351.791V353.192C231.255 353.489 230.367 353.637 229.373 353.637C227.91 353.637 226.787 353.195 226.003 352.311C225.219 351.422 224.827 350.153 224.827 348.503C224.827 347.464 225.016 346.555 225.395 345.775C225.777 344.996 226.329 344.399 227.049 343.984C227.769 343.57 228.614 343.362 229.585 343.362C230.606 343.362 231.549 343.576 232.415 344.005L231.827 345.365C231.49 345.206 231.132 345.067 230.754 344.948C230.38 344.825 229.986 344.764 229.571 344.764ZM238.752 353.5L238.431 352.447H238.376C238.011 352.908 237.645 353.222 237.275 353.391C236.906 353.555 236.432 353.637 235.854 353.637C235.111 353.637 234.53 353.436 234.11 353.035C233.696 352.634 233.488 352.067 233.488 351.333C233.488 350.554 233.778 349.966 234.356 349.569C234.935 349.173 235.817 348.956 237.002 348.92L238.308 348.879V348.476C238.308 347.993 238.194 347.632 237.966 347.396C237.743 347.154 237.394 347.033 236.92 347.033C236.533 347.033 236.161 347.09 235.806 347.204C235.45 347.318 235.108 347.452 234.78 347.607L234.261 346.459C234.671 346.245 235.12 346.083 235.607 345.974C236.095 345.86 236.555 345.803 236.988 345.803C237.95 345.803 238.674 346.012 239.162 346.432C239.654 346.851 239.9 347.509 239.9 348.407V353.5H238.752ZM236.359 352.406C236.943 352.406 237.41 352.244 237.761 351.921C238.116 351.593 238.294 351.135 238.294 350.547V349.891L237.323 349.932C236.567 349.959 236.015 350.087 235.669 350.314C235.327 350.538 235.156 350.882 235.156 351.347C235.156 351.684 235.257 351.946 235.457 352.133C235.658 352.315 235.958 352.406 236.359 352.406ZM248.794 353.5H247.181V348.852C247.181 348.268 247.062 347.833 246.825 347.546C246.593 347.259 246.221 347.115 245.711 347.115C245.032 347.115 244.535 347.316 244.221 347.717C243.906 348.118 243.749 348.79 243.749 349.733V353.5H242.143V345.939H243.4L243.626 346.931H243.708C243.936 346.571 244.259 346.293 244.679 346.097C245.098 345.901 245.563 345.803 246.073 345.803C247.887 345.803 248.794 346.726 248.794 348.571V353.5ZM254.078 353.637C252.934 353.637 252.064 353.304 251.467 352.639C250.874 351.969 250.578 351.009 250.578 349.761C250.578 348.489 250.888 347.512 251.508 346.828C252.132 346.145 253.032 345.803 254.208 345.803C255.006 345.803 255.723 345.951 256.361 346.247L255.876 347.539C255.197 347.275 254.636 347.143 254.194 347.143C252.886 347.143 252.232 348.011 252.232 349.747C252.232 350.595 252.394 351.233 252.718 351.661C253.046 352.085 253.524 352.297 254.153 352.297C254.869 352.297 255.546 352.119 256.184 351.764V353.165C255.896 353.334 255.589 353.454 255.261 353.527C254.937 353.6 254.543 353.637 254.078 353.637ZM261.263 353.637C260.087 353.637 259.166 353.295 258.501 352.611C257.84 351.923 257.51 350.978 257.51 349.774C257.51 348.539 257.817 347.569 258.433 346.862C259.048 346.156 259.893 345.803 260.969 345.803C261.967 345.803 262.755 346.106 263.334 346.712C263.913 347.318 264.202 348.152 264.202 349.214V350.082H259.164C259.187 350.816 259.385 351.381 259.759 351.777C260.132 352.169 260.659 352.365 261.338 352.365C261.785 352.365 262.199 352.324 262.582 352.242C262.969 352.156 263.384 352.014 263.826 351.818V353.124C263.434 353.311 263.038 353.443 262.637 353.521C262.236 353.598 261.778 353.637 261.263 353.637ZM260.969 347.02C260.458 347.02 260.048 347.181 259.738 347.505C259.433 347.828 259.251 348.3 259.191 348.92H262.623C262.614 348.296 262.464 347.824 262.172 347.505C261.88 347.181 261.479 347.02 260.969 347.02ZM267.634 353.5H266.027V342.863H267.634V353.5Z" fill="#007BC1"/>
<rect x="208.5" y="330.5" width="76" height="35" rx="3.5" stroke="#007BC1"/>
<path d="M318.571 344.764C317.632 344.764 316.894 345.096 316.356 345.762C315.819 346.427 315.55 347.345 315.55 348.517C315.55 349.743 315.807 350.67 316.322 351.299C316.842 351.928 317.591 352.242 318.571 352.242C318.995 352.242 319.405 352.201 319.802 352.119C320.198 352.033 320.611 351.923 321.039 351.791V353.192C320.255 353.489 319.367 353.637 318.373 353.637C316.91 353.637 315.787 353.195 315.003 352.311C314.219 351.422 313.827 350.153 313.827 348.503C313.827 347.464 314.016 346.555 314.395 345.775C314.777 344.996 315.329 344.399 316.049 343.984C316.769 343.57 317.614 343.362 318.585 343.362C319.606 343.362 320.549 343.576 321.415 344.005L320.827 345.365C320.49 345.206 320.132 345.067 319.754 344.948C319.38 344.825 318.986 344.764 318.571 344.764ZM329.728 349.706C329.728 350.941 329.411 351.905 328.777 352.598C328.144 353.29 327.262 353.637 326.132 353.637C325.425 353.637 324.801 353.477 324.259 353.158C323.716 352.839 323.299 352.381 323.008 351.784C322.716 351.187 322.57 350.494 322.57 349.706C322.57 348.48 322.885 347.523 323.514 346.835C324.143 346.147 325.029 345.803 326.173 345.803C327.267 345.803 328.132 346.156 328.771 346.862C329.409 347.564 329.728 348.512 329.728 349.706ZM324.225 349.706C324.225 351.451 324.869 352.324 326.159 352.324C327.435 352.324 328.073 351.451 328.073 349.706C328.073 347.979 327.431 347.115 326.146 347.115C325.471 347.115 324.981 347.339 324.676 347.785C324.375 348.232 324.225 348.872 324.225 349.706ZM338.231 353.5H336.618V348.852C336.618 348.268 336.5 347.833 336.263 347.546C336.03 347.259 335.659 347.115 335.148 347.115C334.469 347.115 333.973 347.316 333.658 347.717C333.344 348.118 333.187 348.79 333.187 349.733V353.5H331.58V345.939H332.838L333.063 346.931H333.146C333.373 346.571 333.697 346.293 334.116 346.097C334.535 345.901 335 345.803 335.511 345.803C337.325 345.803 338.231 346.726 338.231 348.571V353.5ZM344.261 347.156H342.415V353.5H340.802V347.156H339.558V346.404L340.802 345.912V345.42C340.802 344.527 341.011 343.866 341.431 343.438C341.85 343.005 342.49 342.788 343.352 342.788C343.917 342.788 344.473 342.882 345.02 343.068L344.596 344.285C344.199 344.158 343.821 344.094 343.461 344.094C343.096 344.094 342.83 344.208 342.661 344.436C342.497 344.659 342.415 344.996 342.415 345.447V345.939H344.261V347.156ZM347.159 353.5H345.553V345.939H347.159V353.5ZM345.457 343.937C345.457 343.649 345.535 343.428 345.689 343.273C345.849 343.118 346.075 343.041 346.366 343.041C346.649 343.041 346.868 343.118 347.022 343.273C347.182 343.428 347.262 343.649 347.262 343.937C347.262 344.21 347.182 344.426 347.022 344.586C346.868 344.741 346.649 344.818 346.366 344.818C346.075 344.818 345.849 344.741 345.689 344.586C345.535 344.426 345.457 344.21 345.457 343.937ZM353.298 345.803C353.621 345.803 353.888 345.826 354.098 345.871L353.94 347.368C353.713 347.313 353.476 347.286 353.229 347.286C352.587 347.286 352.065 347.496 351.664 347.915C351.268 348.334 351.069 348.879 351.069 349.549V353.5H349.463V345.939H350.721L350.933 347.272H351.015C351.265 346.821 351.591 346.464 351.992 346.199C352.398 345.935 352.833 345.803 353.298 345.803ZM361.877 353.5H360.264V348.838C360.264 348.259 360.154 347.828 359.936 347.546C359.717 347.259 359.375 347.115 358.91 347.115C358.29 347.115 357.835 347.318 357.543 347.724C357.256 348.125 357.112 348.795 357.112 349.733V353.5H355.506V345.939H356.764L356.989 346.931H357.071C357.281 346.571 357.584 346.293 357.98 346.097C358.382 345.901 358.821 345.803 359.3 345.803C360.462 345.803 361.232 346.199 361.61 346.992H361.72C361.943 346.618 362.257 346.327 362.663 346.117C363.069 345.908 363.534 345.803 364.058 345.803C364.96 345.803 365.616 346.031 366.026 346.486C366.441 346.942 366.648 347.637 366.648 348.571V353.5H365.042V348.838C365.042 348.259 364.93 347.828 364.707 347.546C364.488 347.259 364.146 347.115 363.682 347.115C363.057 347.115 362.599 347.311 362.308 347.703C362.021 348.09 361.877 348.688 361.877 349.494V353.5Z" fill="#CA3C3D"/>
<rect x="297.5" y="330.5" width="86" height="35" rx="3.5" stroke="#CA3C3D"/>
</g>
</g>
<defs>
<filter id="filter0_ddd_5174_239769" x="74" y="98" width="352" height="315" filterUnits="userSpaceOnUse" color-interpolation-filters="sRGB">
<feFlood flood-opacity="0" result="BackgroundImageFix"/>
<feColorMatrix in="SourceAlpha" type="matrix" values="0 0 0 0 0 0 0 0 0 0 0 0 0 0 0 0 0 0 127 0" result="hardAlpha"/>
<feMorphology radius="4" operator="dilate" in="SourceAlpha" result="effect1_dropShadow_5174_239769"/>
<feOffset dy="5"/>
<feGaussianBlur stdDeviation="11"/>
<feColorMatrix type="matrix" values="0 0 0 0 0 0 0 0 0 0 0 0 0 0 0 0 0 0 0.12 0"/>
<feBlend mode="normal" in2="BackgroundImageFix" result="effect1_dropShadow_5174_239769"/>
<feColorMatrix in="SourceAlpha" type="matrix" values="0 0 0 0 0 0 0 0 0 0 0 0 0 0 0 0 0 0 127 0" result="hardAlpha"/>
<feMorphology radius="2" operator="dilate" in="SourceAlpha" result="effect2_dropShadow_5174_239769"/>
<feOffset dy="12"/>
<feGaussianBlur stdDeviation="8.5"/>
<feColorMatrix type="matrix" values="0 0 0 0 0.258824 0 0 0 0 0.305882 0 0 0 0 0.329412 0 0 0 0.14 0"/>
<feBlend mode="normal" in2="effect1_dropShadow_5174_239769" result="effect2_dropShadow_5174_239769"/>
<feColorMatrix in="SourceAlpha" type="matrix" values="0 0 0 0 0 0 0 0 0 0 0 0 0 0 0 0 0 0 127 0" result="hardAlpha"/>
<feMorphology radius="4" operator="erode" in="SourceAlpha" result="effect3_dropShadow_5174_239769"/>
<feOffset dy="7"/>
<feGaussianBlur stdDeviation="4"/>
<feColorMatrix type="matrix" values="0 0 0 0 0 0 0 0 0 0 0 0 0 0 0 0 0 0 0.2 0"/>
<feBlend mode="normal" in2="effect2_dropShadow_5174_239769" result="effect3_dropShadow_5174_239769"/>
<feBlend mode="normal" in="SourceGraphic" in2="effect3_dropShadow_5174_239769" result="shape"/>
</filter>
<clipPath id="clip0_5174_239769">
<rect x="100" y="119" width="300" height="263" rx="4" fill="white"/>
</clipPath>
</defs>
</svg>
