<svg width="500" height="500" viewBox="0 0 500 500" fill="none" xmlns="http://www.w3.org/2000/svg">
<rect width="500" height="500" fill="#E2E5E5"/>
<g filter="url(#filter0_ddd_5174_239819)">
<g clip-path="url(#clip0_5174_239819)">
<rect x="100" y="89" width="300" height="323" rx="4" fill="white"/>
<path d="M135.338 116.039C135.338 117.53 134.85 118.673 133.873 119.467C132.896 120.261 131.507 120.658 129.703 120.658H128.219V126H125.885V111.723H129.996C131.78 111.723 133.115 112.087 134 112.816C134.892 113.546 135.338 114.62 135.338 116.039ZM128.219 118.695H129.459C130.657 118.695 131.536 118.487 132.096 118.07C132.656 117.654 132.936 117.003 132.936 116.117C132.936 115.297 132.685 114.685 132.184 114.281C131.682 113.878 130.901 113.676 129.84 113.676H128.219V118.695ZM142.662 126.195C140.982 126.195 139.667 125.707 138.717 124.73C137.773 123.747 137.301 122.396 137.301 120.678C137.301 118.913 137.74 117.527 138.619 116.518C139.498 115.508 140.706 115.004 142.242 115.004C143.668 115.004 144.794 115.437 145.621 116.303C146.448 117.169 146.861 118.36 146.861 119.877V121.117H139.664C139.697 122.165 139.98 122.973 140.514 123.539C141.048 124.099 141.799 124.379 142.77 124.379C143.408 124.379 144 124.32 144.547 124.203C145.1 124.079 145.693 123.878 146.324 123.598V125.463C145.764 125.73 145.198 125.919 144.625 126.029C144.052 126.14 143.398 126.195 142.662 126.195ZM142.242 116.742C141.513 116.742 140.927 116.973 140.484 117.436C140.048 117.898 139.788 118.572 139.703 119.457H144.605C144.592 118.565 144.378 117.891 143.961 117.436C143.544 116.973 142.971 116.742 142.242 116.742ZM154.947 115.004C155.41 115.004 155.79 115.036 156.09 115.102L155.865 117.24C155.54 117.162 155.201 117.123 154.85 117.123C153.932 117.123 153.186 117.423 152.613 118.021C152.047 118.62 151.764 119.398 151.764 120.355V126H149.469V115.199H151.266L151.568 117.104H151.686C152.044 116.459 152.509 115.948 153.082 115.57C153.661 115.193 154.283 115.004 154.947 115.004ZM167.203 126H164.898V119.34C164.898 118.513 164.742 117.898 164.43 117.494C164.117 117.084 163.629 116.879 162.965 116.879C162.079 116.879 161.428 117.169 161.012 117.748C160.602 118.321 160.396 119.278 160.396 120.619V126H158.102V115.199H159.898L160.221 116.615H160.338C160.637 116.101 161.07 115.704 161.637 115.424C162.21 115.144 162.838 115.004 163.521 115.004C165.182 115.004 166.282 115.57 166.822 116.703H166.979C167.298 116.169 167.747 115.753 168.326 115.453C168.906 115.154 169.57 115.004 170.318 115.004C171.607 115.004 172.545 115.329 173.131 115.98C173.723 116.632 174.02 117.624 174.02 118.959V126H171.725V119.34C171.725 118.513 171.565 117.898 171.246 117.494C170.934 117.084 170.445 116.879 169.781 116.879C168.889 116.879 168.235 117.159 167.818 117.719C167.408 118.272 167.203 119.125 167.203 120.277V126ZM183.98 126L183.521 124.496H183.443C182.923 125.154 182.398 125.603 181.871 125.844C181.344 126.078 180.667 126.195 179.84 126.195C178.779 126.195 177.949 125.909 177.35 125.336C176.757 124.763 176.461 123.952 176.461 122.904C176.461 121.791 176.874 120.951 177.701 120.385C178.528 119.818 179.788 119.509 181.48 119.457L183.346 119.398V118.822C183.346 118.132 183.183 117.618 182.857 117.279C182.538 116.934 182.04 116.762 181.363 116.762C180.81 116.762 180.279 116.843 179.771 117.006C179.264 117.169 178.775 117.361 178.307 117.582L177.564 115.941C178.15 115.635 178.792 115.404 179.488 115.248C180.185 115.085 180.842 115.004 181.461 115.004C182.835 115.004 183.87 115.303 184.566 115.902C185.27 116.501 185.621 117.442 185.621 118.725V126H183.98ZM180.562 124.438C181.396 124.438 182.063 124.206 182.564 123.744C183.072 123.275 183.326 122.621 183.326 121.781V120.844L181.939 120.902C180.859 120.941 180.071 121.124 179.576 121.449C179.088 121.768 178.844 122.26 178.844 122.924C178.844 123.406 178.987 123.78 179.273 124.047C179.56 124.307 179.99 124.438 180.562 124.438ZM198.326 126H196.021V119.359C196.021 118.526 195.852 117.904 195.514 117.494C195.182 117.084 194.651 116.879 193.922 116.879C192.952 116.879 192.242 117.165 191.793 117.738C191.344 118.311 191.119 119.271 191.119 120.619V126H188.824V115.199H190.621L190.943 116.615H191.061C191.386 116.101 191.848 115.704 192.447 115.424C193.046 115.144 193.71 115.004 194.439 115.004C197.031 115.004 198.326 116.322 198.326 118.959V126ZM206.236 126.195C204.557 126.195 203.242 125.707 202.291 124.73C201.347 123.747 200.875 122.396 200.875 120.678C200.875 118.913 201.314 117.527 202.193 116.518C203.072 115.508 204.28 115.004 205.816 115.004C207.242 115.004 208.368 115.437 209.195 116.303C210.022 117.169 210.436 118.36 210.436 119.877V121.117H203.238C203.271 122.165 203.554 122.973 204.088 123.539C204.622 124.099 205.374 124.379 206.344 124.379C206.982 124.379 207.574 124.32 208.121 124.203C208.674 124.079 209.267 123.878 209.898 123.598V125.463C209.339 125.73 208.772 125.919 208.199 126.029C207.626 126.14 206.972 126.195 206.236 126.195ZM205.816 116.742C205.087 116.742 204.501 116.973 204.059 117.436C203.622 117.898 203.362 118.572 203.277 119.457H208.18C208.167 118.565 207.952 117.891 207.535 117.436C207.118 116.973 206.546 116.742 205.816 116.742ZM222.545 126H220.24V119.359C220.24 118.526 220.071 117.904 219.732 117.494C219.4 117.084 218.87 116.879 218.141 116.879C217.171 116.879 216.461 117.165 216.012 117.738C215.562 118.311 215.338 119.271 215.338 120.619V126H213.043V115.199H214.84L215.162 116.615H215.279C215.605 116.101 216.067 115.704 216.666 115.424C217.265 115.144 217.929 115.004 218.658 115.004C221.249 115.004 222.545 116.322 222.545 118.959V126ZM229.762 124.34C230.322 124.34 230.882 124.252 231.441 124.076V125.805C231.188 125.915 230.859 126.007 230.455 126.078C230.058 126.156 229.645 126.195 229.215 126.195C227.04 126.195 225.953 125.049 225.953 122.758V116.938H224.479V115.922L226.061 115.082L226.842 112.797H228.258V115.199H231.334V116.938H228.258V122.719C228.258 123.272 228.395 123.682 228.668 123.949C228.948 124.21 229.312 124.34 229.762 124.34ZM235.904 126H233.609V110.805H235.904V126ZM237.555 115.199H240.055L242.252 121.322C242.584 122.195 242.805 123.015 242.916 123.783H242.994C243.053 123.425 243.16 122.992 243.316 122.484C243.473 121.97 244.299 119.542 245.797 115.199H248.277L243.658 127.436C242.818 129.682 241.419 130.805 239.459 130.805C238.951 130.805 238.456 130.749 237.975 130.639V128.822C238.32 128.9 238.714 128.939 239.156 128.939C240.263 128.939 241.041 128.298 241.49 127.016L241.891 126L237.555 115.199ZM258.756 126.195C257.408 126.195 256.357 125.707 255.602 124.73C254.846 123.754 254.469 122.383 254.469 120.619C254.469 118.848 254.85 117.471 255.611 116.488C256.38 115.499 257.441 115.004 258.795 115.004C260.214 115.004 261.295 115.528 262.037 116.576H262.154C262.044 115.801 261.988 115.189 261.988 114.74V110.805H264.293V126H262.496L262.096 124.584H261.988C261.253 125.658 260.175 126.195 258.756 126.195ZM259.371 124.34C260.315 124.34 261.002 124.076 261.432 123.549C261.861 123.015 262.083 122.152 262.096 120.961V120.639C262.096 119.278 261.874 118.311 261.432 117.738C260.989 117.165 260.296 116.879 259.352 116.879C258.544 116.879 257.923 117.208 257.486 117.865C257.05 118.516 256.832 119.447 256.832 120.658C256.832 121.856 257.044 122.771 257.467 123.402C257.89 124.027 258.525 124.34 259.371 124.34ZM272.291 126.195C270.611 126.195 269.296 125.707 268.346 124.73C267.402 123.747 266.93 122.396 266.93 120.678C266.93 118.913 267.369 117.527 268.248 116.518C269.127 115.508 270.335 115.004 271.871 115.004C273.297 115.004 274.423 115.437 275.25 116.303C276.077 117.169 276.49 118.36 276.49 119.877V121.117H269.293C269.326 122.165 269.609 122.973 270.143 123.539C270.676 124.099 271.428 124.379 272.398 124.379C273.036 124.379 273.629 124.32 274.176 124.203C274.729 124.079 275.322 123.878 275.953 123.598V125.463C275.393 125.73 274.827 125.919 274.254 126.029C273.681 126.14 273.027 126.195 272.291 126.195ZM271.871 116.742C271.142 116.742 270.556 116.973 270.113 117.436C269.677 117.898 269.417 118.572 269.332 119.457H274.234C274.221 118.565 274.007 117.891 273.59 117.436C273.173 116.973 272.6 116.742 271.871 116.742ZM281.393 126H279.098V110.805H281.393V126ZM289.4 126.195C287.721 126.195 286.406 125.707 285.455 124.73C284.511 123.747 284.039 122.396 284.039 120.678C284.039 118.913 284.479 117.527 285.357 116.518C286.236 115.508 287.444 115.004 288.98 115.004C290.406 115.004 291.533 115.437 292.359 116.303C293.186 117.169 293.6 118.36 293.6 119.877V121.117H286.402C286.435 122.165 286.718 122.973 287.252 123.539C287.786 124.099 288.538 124.379 289.508 124.379C290.146 124.379 290.738 124.32 291.285 124.203C291.839 124.079 292.431 123.878 293.062 123.598V125.463C292.503 125.73 291.936 125.919 291.363 126.029C290.79 126.14 290.136 126.195 289.4 126.195ZM288.98 116.742C288.251 116.742 287.665 116.973 287.223 117.436C286.786 117.898 286.526 118.572 286.441 119.457H291.344C291.331 118.565 291.116 117.891 290.699 117.436C290.283 116.973 289.71 116.742 288.98 116.742ZM300.23 124.34C300.79 124.34 301.35 124.252 301.91 124.076V125.805C301.656 125.915 301.327 126.007 300.924 126.078C300.527 126.156 300.113 126.195 299.684 126.195C297.509 126.195 296.422 125.049 296.422 122.758V116.938H294.947V115.922L296.529 115.082L297.311 112.797H298.727V115.199H301.803V116.938H298.727V122.719C298.727 123.272 298.863 123.682 299.137 123.949C299.417 124.21 299.781 124.34 300.23 124.34ZM308.795 126.195C307.115 126.195 305.8 125.707 304.85 124.73C303.906 123.747 303.434 122.396 303.434 120.678C303.434 118.913 303.873 117.527 304.752 116.518C305.631 115.508 306.839 115.004 308.375 115.004C309.801 115.004 310.927 115.437 311.754 116.303C312.581 117.169 312.994 118.36 312.994 119.877V121.117H305.797C305.829 122.165 306.113 122.973 306.646 123.539C307.18 124.099 307.932 124.379 308.902 124.379C309.54 124.379 310.133 124.32 310.68 124.203C311.233 124.079 311.826 123.878 312.457 123.598V125.463C311.897 125.73 311.331 125.919 310.758 126.029C310.185 126.14 309.531 126.195 308.795 126.195ZM308.375 116.742C307.646 116.742 307.06 116.973 306.617 117.436C306.181 117.898 305.921 118.572 305.836 119.457H310.738C310.725 118.565 310.51 117.891 310.094 117.436C309.677 116.973 309.104 116.742 308.375 116.742ZM327.555 126L327.096 124.496H327.018C326.497 125.154 325.973 125.603 325.445 125.844C324.918 126.078 324.241 126.195 323.414 126.195C322.353 126.195 321.523 125.909 320.924 125.336C320.331 124.763 320.035 123.952 320.035 122.904C320.035 121.791 320.449 120.951 321.275 120.385C322.102 119.818 323.362 119.509 325.055 119.457L326.92 119.398V118.822C326.92 118.132 326.757 117.618 326.432 117.279C326.113 116.934 325.615 116.762 324.938 116.762C324.384 116.762 323.854 116.843 323.346 117.006C322.838 117.169 322.35 117.361 321.881 117.582L321.139 115.941C321.725 115.635 322.366 115.404 323.062 115.248C323.759 115.085 324.417 115.004 325.035 115.004C326.409 115.004 327.444 115.303 328.141 115.902C328.844 116.501 329.195 117.442 329.195 118.725V126H327.555ZM324.137 124.438C324.97 124.438 325.637 124.206 326.139 123.744C326.646 123.275 326.9 122.621 326.9 121.781V120.844L325.514 120.902C324.433 120.941 323.645 121.124 323.15 121.449C322.662 121.768 322.418 122.26 322.418 122.924C322.418 123.406 322.561 123.78 322.848 124.047C323.134 124.307 323.564 124.438 324.137 124.438ZM334.693 126H332.398V110.805H334.693V126ZM340.279 126H337.984V110.805H340.279V126ZM129.283 153.195C127.936 153.195 126.884 152.707 126.129 151.73C125.374 150.754 124.996 149.383 124.996 147.619C124.996 145.848 125.377 144.471 126.139 143.488C126.907 142.499 127.968 142.004 129.322 142.004C130.742 142.004 131.822 142.528 132.564 143.576H132.682C132.571 142.801 132.516 142.189 132.516 141.74V137.805H134.82V153H133.023L132.623 151.584H132.516C131.78 152.658 130.702 153.195 129.283 153.195ZM129.898 151.34C130.842 151.34 131.529 151.076 131.959 150.549C132.389 150.015 132.61 149.152 132.623 147.961V147.639C132.623 146.278 132.402 145.311 131.959 144.738C131.516 144.165 130.823 143.879 129.879 143.879C129.072 143.879 128.45 144.208 128.014 144.865C127.577 145.516 127.359 146.447 127.359 147.658C127.359 148.856 127.571 149.771 127.994 150.402C128.417 151.027 129.052 151.34 129.898 151.34ZM142.818 153.195C141.139 153.195 139.824 152.707 138.873 151.73C137.929 150.747 137.457 149.396 137.457 147.678C137.457 145.913 137.896 144.527 138.775 143.518C139.654 142.508 140.862 142.004 142.398 142.004C143.824 142.004 144.951 142.437 145.777 143.303C146.604 144.169 147.018 145.36 147.018 146.877V148.117H139.82C139.853 149.165 140.136 149.973 140.67 150.539C141.204 151.099 141.956 151.379 142.926 151.379C143.564 151.379 144.156 151.32 144.703 151.203C145.257 151.079 145.849 150.878 146.48 150.598V152.463C145.921 152.73 145.354 152.919 144.781 153.029C144.208 153.14 143.554 153.195 142.818 153.195ZM142.398 143.742C141.669 143.742 141.083 143.973 140.641 144.436C140.204 144.898 139.944 145.572 139.859 146.457H144.762C144.749 145.565 144.534 144.891 144.117 144.436C143.701 143.973 143.128 143.742 142.398 143.742ZM152.086 153L147.984 142.199H150.406L152.604 148.479C152.981 149.533 153.209 150.386 153.287 151.037H153.365C153.424 150.568 153.652 149.715 154.049 148.479L156.246 142.199H158.688L154.566 153H152.086ZM162.623 153H160.328V142.199H162.623V153ZM160.191 139.338C160.191 138.928 160.302 138.612 160.523 138.391C160.751 138.169 161.074 138.059 161.49 138.059C161.894 138.059 162.206 138.169 162.428 138.391C162.656 138.612 162.77 138.928 162.77 139.338C162.77 139.729 162.656 140.038 162.428 140.266C162.206 140.487 161.894 140.598 161.49 140.598C161.074 140.598 160.751 140.487 160.523 140.266C160.302 140.038 160.191 139.729 160.191 139.338ZM170.27 153.195C168.635 153.195 167.392 152.72 166.539 151.77C165.693 150.812 165.27 149.442 165.27 147.658C165.27 145.842 165.712 144.445 166.598 143.469C167.49 142.492 168.775 142.004 170.455 142.004C171.594 142.004 172.62 142.215 173.531 142.639L172.838 144.484C171.868 144.107 171.067 143.918 170.436 143.918C168.567 143.918 167.633 145.158 167.633 147.639C167.633 148.85 167.864 149.761 168.326 150.373C168.795 150.979 169.479 151.281 170.377 151.281C171.399 151.281 172.366 151.027 173.277 150.52V152.521C172.867 152.762 172.428 152.935 171.959 153.039C171.497 153.143 170.934 153.195 170.27 153.195ZM180.533 153.195C178.854 153.195 177.538 152.707 176.588 151.73C175.644 150.747 175.172 149.396 175.172 147.678C175.172 145.913 175.611 144.527 176.49 143.518C177.369 142.508 178.577 142.004 180.113 142.004C181.539 142.004 182.665 142.437 183.492 143.303C184.319 144.169 184.732 145.36 184.732 146.877V148.117H177.535C177.568 149.165 177.851 149.973 178.385 150.539C178.919 151.099 179.671 151.379 180.641 151.379C181.279 151.379 181.871 151.32 182.418 151.203C182.971 151.079 183.564 150.878 184.195 150.598V152.463C183.635 152.73 183.069 152.919 182.496 153.029C181.923 153.14 181.269 153.195 180.533 153.195ZM180.113 143.742C179.384 143.742 178.798 143.973 178.355 144.436C177.919 144.898 177.659 145.572 177.574 146.457H182.477C182.464 145.565 182.249 144.891 181.832 144.436C181.415 143.973 180.842 143.742 180.113 143.742ZM194.596 149.924C194.596 150.979 194.212 151.789 193.443 152.355C192.675 152.915 191.575 153.195 190.143 153.195C188.704 153.195 187.548 152.977 186.676 152.541V150.559C187.945 151.145 189.127 151.438 190.221 151.438C191.633 151.438 192.34 151.011 192.34 150.158C192.34 149.885 192.262 149.657 192.105 149.475C191.949 149.292 191.692 149.104 191.334 148.908C190.976 148.713 190.478 148.492 189.84 148.244C188.596 147.762 187.753 147.281 187.311 146.799C186.874 146.317 186.656 145.692 186.656 144.924C186.656 143.999 187.027 143.283 187.77 142.775C188.518 142.261 189.534 142.004 190.816 142.004C192.086 142.004 193.287 142.261 194.42 142.775L193.678 144.504C192.512 144.022 191.533 143.781 190.738 143.781C189.527 143.781 188.922 144.126 188.922 144.816C188.922 145.155 189.078 145.441 189.391 145.676C189.71 145.91 190.4 146.232 191.461 146.643C192.353 146.988 193.001 147.303 193.404 147.59C193.808 147.876 194.107 148.208 194.303 148.586C194.498 148.957 194.596 149.403 194.596 149.924ZM209.039 153L208.58 151.496H208.502C207.981 152.154 207.457 152.603 206.93 152.844C206.402 153.078 205.725 153.195 204.898 153.195C203.837 153.195 203.007 152.909 202.408 152.336C201.816 151.763 201.52 150.952 201.52 149.904C201.52 148.791 201.933 147.951 202.76 147.385C203.587 146.818 204.846 146.509 206.539 146.457L208.404 146.398V145.822C208.404 145.132 208.242 144.618 207.916 144.279C207.597 143.934 207.099 143.762 206.422 143.762C205.868 143.762 205.338 143.843 204.83 144.006C204.322 144.169 203.834 144.361 203.365 144.582L202.623 142.941C203.209 142.635 203.85 142.404 204.547 142.248C205.243 142.085 205.901 142.004 206.52 142.004C207.893 142.004 208.928 142.303 209.625 142.902C210.328 143.501 210.68 144.442 210.68 145.725V153H209.039ZM205.621 151.438C206.454 151.438 207.122 151.206 207.623 150.744C208.131 150.275 208.385 149.621 208.385 148.781V147.844L206.998 147.902C205.917 147.941 205.13 148.124 204.635 148.449C204.146 148.768 203.902 149.26 203.902 149.924C203.902 150.406 204.046 150.78 204.332 151.047C204.618 151.307 205.048 151.438 205.621 151.438ZM217.906 151.34C218.466 151.34 219.026 151.252 219.586 151.076V152.805C219.332 152.915 219.003 153.007 218.6 153.078C218.202 153.156 217.789 153.195 217.359 153.195C215.185 153.195 214.098 152.049 214.098 149.758V143.938H212.623V142.922L214.205 142.082L214.986 139.797H216.402V142.199H219.479V143.938H216.402V149.719C216.402 150.272 216.539 150.682 216.812 150.949C217.092 151.21 217.457 151.34 217.906 151.34ZM229.605 143.4C229.951 142.079 230.53 140.52 231.344 138.723H233.004C232.555 140.65 232.229 142.281 232.027 143.615H229.752L229.605 143.4ZM225.553 143.4C225.683 142.86 225.914 142.131 226.246 141.213C226.578 140.295 226.92 139.465 227.271 138.723H228.932C228.515 140.389 228.186 142.02 227.945 143.615H225.67L225.553 143.4ZM241.217 140.52C239.876 140.52 238.821 140.995 238.053 141.945C237.285 142.896 236.9 144.208 236.9 145.881C236.9 147.632 237.268 148.957 238.004 149.855C238.746 150.754 239.817 151.203 241.217 151.203C241.822 151.203 242.408 151.145 242.975 151.027C243.541 150.904 244.13 150.747 244.742 150.559V152.561C243.622 152.984 242.353 153.195 240.934 153.195C238.844 153.195 237.239 152.564 236.119 151.301C234.999 150.031 234.439 148.218 234.439 145.861C234.439 144.377 234.71 143.078 235.25 141.965C235.797 140.852 236.585 139.999 237.613 139.406C238.642 138.814 239.85 138.518 241.236 138.518C242.695 138.518 244.042 138.824 245.279 139.436L244.439 141.379C243.958 141.151 243.447 140.952 242.906 140.783C242.372 140.607 241.809 140.52 241.217 140.52ZM257.076 153H254.771V146.359C254.771 145.526 254.602 144.904 254.264 144.494C253.932 144.084 253.401 143.879 252.672 143.879C251.708 143.879 250.999 144.169 250.543 144.748C250.094 145.321 249.869 146.285 249.869 147.639V153H247.574V137.805H249.869V141.662C249.869 142.281 249.83 142.941 249.752 143.645H249.898C250.211 143.124 250.644 142.72 251.197 142.434C251.757 142.147 252.408 142.004 253.15 142.004C255.768 142.004 257.076 143.322 257.076 145.959V153ZM264.986 153.195C263.307 153.195 261.992 152.707 261.041 151.73C260.097 150.747 259.625 149.396 259.625 147.678C259.625 145.913 260.064 144.527 260.943 143.518C261.822 142.508 263.03 142.004 264.566 142.004C265.992 142.004 267.118 142.437 267.945 143.303C268.772 144.169 269.186 145.36 269.186 146.877V148.117H261.988C262.021 149.165 262.304 149.973 262.838 150.539C263.372 151.099 264.124 151.379 265.094 151.379C265.732 151.379 266.324 151.32 266.871 151.203C267.424 151.079 268.017 150.878 268.648 150.598V152.463C268.089 152.73 267.522 152.919 266.949 153.029C266.376 153.14 265.722 153.195 264.986 153.195ZM264.566 143.742C263.837 143.742 263.251 143.973 262.809 144.436C262.372 144.898 262.112 145.572 262.027 146.457H266.93C266.917 145.565 266.702 144.891 266.285 144.436C265.868 143.973 265.296 143.742 264.566 143.742ZM277.271 142.004C277.734 142.004 278.115 142.036 278.414 142.102L278.189 144.24C277.864 144.162 277.525 144.123 277.174 144.123C276.256 144.123 275.51 144.423 274.938 145.021C274.371 145.62 274.088 146.398 274.088 147.355V153H271.793V142.199H273.59L273.893 144.104H274.01C274.368 143.459 274.833 142.948 275.406 142.57C275.986 142.193 276.607 142.004 277.271 142.004ZM285.904 142.004C286.367 142.004 286.747 142.036 287.047 142.102L286.822 144.24C286.497 144.162 286.158 144.123 285.807 144.123C284.889 144.123 284.143 144.423 283.57 145.021C283.004 145.62 282.721 146.398 282.721 147.355V153H280.426V142.199H282.223L282.525 144.104H282.643C283.001 143.459 283.466 142.948 284.039 142.57C284.618 142.193 285.24 142.004 285.904 142.004ZM291.354 153H289.059V142.199H291.354V153ZM288.922 139.338C288.922 138.928 289.033 138.612 289.254 138.391C289.482 138.169 289.804 138.059 290.221 138.059C290.624 138.059 290.937 138.169 291.158 138.391C291.386 138.612 291.5 138.928 291.5 139.338C291.5 139.729 291.386 140.038 291.158 140.266C290.937 140.487 290.624 140.598 290.221 140.598C289.804 140.598 289.482 140.487 289.254 140.266C289.033 140.038 288.922 139.729 288.922 139.338ZM304.146 153H301.842V146.359C301.842 145.526 301.673 144.904 301.334 144.494C301.002 144.084 300.471 143.879 299.742 143.879C298.772 143.879 298.062 144.165 297.613 144.738C297.164 145.311 296.939 146.271 296.939 147.619V153H294.645V142.199H296.441L296.764 143.615H296.881C297.206 143.101 297.669 142.704 298.268 142.424C298.867 142.144 299.531 142.004 300.26 142.004C302.851 142.004 304.146 143.322 304.146 145.959V153ZM316.461 142.199V143.459L314.615 143.801C314.785 144.029 314.924 144.309 315.035 144.641C315.146 144.973 315.201 145.324 315.201 145.695C315.201 146.809 314.817 147.684 314.049 148.322C313.281 148.96 312.223 149.279 310.875 149.279C310.53 149.279 310.217 149.253 309.938 149.201C309.443 149.507 309.195 149.865 309.195 150.275C309.195 150.523 309.309 150.708 309.537 150.832C309.771 150.956 310.198 151.018 310.816 151.018H312.701C313.893 151.018 314.798 151.271 315.416 151.779C316.035 152.287 316.344 153.02 316.344 153.977C316.344 155.201 315.839 156.145 314.83 156.809C313.821 157.473 312.363 157.805 310.455 157.805C308.984 157.805 307.861 157.544 307.086 157.023C306.311 156.503 305.924 155.76 305.924 154.797C305.924 154.133 306.132 153.573 306.549 153.117C306.972 152.668 307.561 152.355 308.316 152.18C308.01 152.049 307.757 151.841 307.555 151.555C307.359 151.262 307.262 150.956 307.262 150.637C307.262 150.233 307.376 149.891 307.604 149.611C307.831 149.331 308.17 149.055 308.619 148.781C308.059 148.54 307.604 148.15 307.252 147.609C306.907 147.062 306.734 146.424 306.734 145.695C306.734 144.523 307.102 143.615 307.838 142.971C308.58 142.326 309.635 142.004 311.002 142.004C311.308 142.004 311.627 142.027 311.959 142.072C312.298 142.111 312.551 142.154 312.721 142.199H316.461ZM307.975 154.68C307.975 155.174 308.196 155.555 308.639 155.822C309.088 156.089 309.716 156.223 310.523 156.223C311.773 156.223 312.704 156.044 313.316 155.686C313.928 155.327 314.234 154.852 314.234 154.26C314.234 153.791 314.065 153.456 313.727 153.254C313.395 153.059 312.773 152.961 311.861 152.961H310.123C309.465 152.961 308.941 153.114 308.551 153.42C308.167 153.732 307.975 154.152 307.975 154.68ZM308.961 145.695C308.961 146.372 309.133 146.893 309.479 147.258C309.83 147.622 310.331 147.805 310.982 147.805C312.311 147.805 312.975 147.095 312.975 145.676C312.975 144.973 312.809 144.432 312.477 144.055C312.151 143.671 311.653 143.479 310.982 143.479C310.318 143.479 309.814 143.667 309.469 144.045C309.13 144.423 308.961 144.973 308.961 145.695ZM322.496 151.34C323.056 151.34 323.616 151.252 324.176 151.076V152.805C323.922 152.915 323.593 153.007 323.189 153.078C322.792 153.156 322.379 153.195 321.949 153.195C319.775 153.195 318.688 152.049 318.688 149.758V143.938H317.213V142.922L318.795 142.082L319.576 139.797H320.992V142.199H324.068V143.938H320.992V149.719C320.992 150.272 321.129 150.682 321.402 150.949C321.682 151.21 322.047 151.34 322.496 151.34ZM335.924 147.58C335.924 149.344 335.471 150.721 334.566 151.711C333.661 152.701 332.402 153.195 330.787 153.195C329.778 153.195 328.886 152.967 328.111 152.512C327.337 152.056 326.741 151.402 326.324 150.549C325.908 149.696 325.699 148.706 325.699 147.58C325.699 145.829 326.148 144.462 327.047 143.479C327.945 142.495 329.212 142.004 330.846 142.004C332.408 142.004 333.645 142.508 334.557 143.518C335.468 144.52 335.924 145.874 335.924 147.58ZM328.062 147.58C328.062 150.074 328.984 151.32 330.826 151.32C332.649 151.32 333.561 150.074 333.561 147.58C333.561 145.113 332.643 143.879 330.807 143.879C329.843 143.879 329.143 144.198 328.707 144.836C328.277 145.474 328.062 146.389 328.062 147.58ZM348.072 153H345.768V146.359C345.768 145.526 345.598 144.904 345.26 144.494C344.928 144.084 344.397 143.879 343.668 143.879C342.698 143.879 341.988 144.165 341.539 144.738C341.09 145.311 340.865 146.271 340.865 147.619V153H338.57V142.199H340.367L340.689 143.615H340.807C341.132 143.101 341.594 142.704 342.193 142.424C342.792 142.144 343.456 142.004 344.186 142.004C346.777 142.004 348.072 143.322 348.072 145.959V153ZM138.561 172.842C138.561 175.166 137.978 176.973 136.812 178.262C135.654 179.551 134.01 180.195 131.881 180.195C129.726 180.195 128.069 179.557 126.91 178.281C125.758 176.999 125.182 175.179 125.182 172.822C125.182 170.465 125.761 168.656 126.92 167.393C128.085 166.13 129.745 165.498 131.9 165.498C134.023 165.498 135.663 166.139 136.822 167.422C137.981 168.704 138.561 170.511 138.561 172.842ZM127.662 172.842C127.662 174.6 128.017 175.934 128.727 176.846C129.436 177.751 130.488 178.203 131.881 178.203C133.268 178.203 134.312 177.754 135.016 176.855C135.725 175.957 136.08 174.619 136.08 172.842C136.08 171.09 135.729 169.762 135.025 168.857C134.329 167.952 133.287 167.5 131.9 167.5C130.501 167.5 129.443 167.952 128.727 168.857C128.017 169.762 127.662 171.09 127.662 172.842ZM146.803 170.938H144.166V180H141.861V170.938H140.084V169.863L141.861 169.16V168.457C141.861 167.181 142.161 166.237 142.76 165.625C143.359 165.007 144.273 164.697 145.504 164.697C146.311 164.697 147.105 164.831 147.887 165.098L147.281 166.836C146.715 166.654 146.174 166.562 145.66 166.562C145.139 166.562 144.758 166.725 144.518 167.051C144.283 167.37 144.166 167.852 144.166 168.496V169.199H146.803V170.938ZM154.068 170.938H151.432V180H149.127V170.938H147.35V169.863L149.127 169.16V168.457C149.127 167.181 149.426 166.237 150.025 165.625C150.624 165.007 151.539 164.697 152.77 164.697C153.577 164.697 154.371 164.831 155.152 165.098L154.547 166.836C153.98 166.654 153.44 166.562 152.926 166.562C152.405 166.562 152.024 166.725 151.783 167.051C151.549 167.37 151.432 167.852 151.432 168.496V169.199H154.068V170.938ZM158.209 180H155.914V169.199H158.209V180ZM155.777 166.338C155.777 165.928 155.888 165.612 156.109 165.391C156.337 165.169 156.66 165.059 157.076 165.059C157.48 165.059 157.792 165.169 158.014 165.391C158.242 165.612 158.355 165.928 158.355 166.338C158.355 166.729 158.242 167.038 158.014 167.266C157.792 167.487 157.48 167.598 157.076 167.598C156.66 167.598 156.337 167.487 156.109 167.266C155.888 167.038 155.777 166.729 155.777 166.338ZM165.855 180.195C164.221 180.195 162.978 179.72 162.125 178.77C161.279 177.812 160.855 176.442 160.855 174.658C160.855 172.842 161.298 171.445 162.184 170.469C163.076 169.492 164.361 169.004 166.041 169.004C167.18 169.004 168.206 169.215 169.117 169.639L168.424 171.484C167.454 171.107 166.653 170.918 166.021 170.918C164.153 170.918 163.219 172.158 163.219 174.639C163.219 175.85 163.45 176.761 163.912 177.373C164.381 177.979 165.064 178.281 165.963 178.281C166.985 178.281 167.952 178.027 168.863 177.52V179.521C168.453 179.762 168.014 179.935 167.545 180.039C167.083 180.143 166.52 180.195 165.855 180.195ZM176.119 180.195C174.439 180.195 173.124 179.707 172.174 178.73C171.23 177.747 170.758 176.396 170.758 174.678C170.758 172.913 171.197 171.527 172.076 170.518C172.955 169.508 174.163 169.004 175.699 169.004C177.125 169.004 178.251 169.437 179.078 170.303C179.905 171.169 180.318 172.36 180.318 173.877V175.117H173.121C173.154 176.165 173.437 176.973 173.971 177.539C174.505 178.099 175.257 178.379 176.227 178.379C176.865 178.379 177.457 178.32 178.004 178.203C178.557 178.079 179.15 177.878 179.781 177.598V179.463C179.221 179.73 178.655 179.919 178.082 180.029C177.509 180.14 176.855 180.195 176.119 180.195ZM175.699 170.742C174.97 170.742 174.384 170.973 173.941 171.436C173.505 171.898 173.245 172.572 173.16 173.457H178.062C178.049 172.565 177.835 171.891 177.418 171.436C177.001 170.973 176.428 170.742 175.699 170.742ZM184.908 165.938C184.563 167.298 183.99 168.857 183.189 170.615H181.529C181.979 168.734 182.304 167.103 182.506 165.723H184.762L184.908 165.938ZM188.98 165.938C188.635 167.298 188.062 168.857 187.262 170.615H185.582C186.031 168.851 186.367 167.22 186.588 165.723H188.844L188.98 165.938ZM191.998 175.664V175.039C191.998 174.323 192.128 173.727 192.389 173.252C192.649 172.777 193.105 172.285 193.756 171.777C194.531 171.165 195.029 170.69 195.25 170.352C195.478 170.013 195.592 169.609 195.592 169.141C195.592 168.594 195.41 168.174 195.045 167.881C194.68 167.588 194.156 167.441 193.473 167.441C192.854 167.441 192.281 167.529 191.754 167.705C191.227 167.881 190.712 168.092 190.211 168.34L189.391 166.621C190.712 165.885 192.128 165.518 193.639 165.518C194.915 165.518 195.927 165.83 196.676 166.455C197.424 167.08 197.799 167.943 197.799 169.043C197.799 169.531 197.727 169.967 197.584 170.352C197.441 170.729 197.223 171.09 196.93 171.436C196.643 171.781 196.145 172.23 195.436 172.783C194.83 173.258 194.423 173.652 194.215 173.965C194.013 174.277 193.912 174.697 193.912 175.225V175.664H191.998ZM191.598 178.779C191.598 177.796 192.076 177.305 193.033 177.305C193.502 177.305 193.86 177.435 194.107 177.695C194.355 177.949 194.479 178.311 194.479 178.779C194.479 179.242 194.352 179.609 194.098 179.883C193.85 180.15 193.495 180.283 193.033 180.283C192.571 180.283 192.216 180.153 191.969 179.893C191.721 179.626 191.598 179.255 191.598 178.779Z" fill="#424E54"/>
<path d="M129.086 227H127.758V216.758H124.141V215.578H132.703V216.758H129.086V227ZM140.094 227V221.461C140.094 220.763 139.935 220.242 139.617 219.898C139.299 219.555 138.802 219.383 138.125 219.383C137.224 219.383 136.565 219.628 136.148 220.117C135.737 220.607 135.531 221.409 135.531 222.523V227H134.234V214.844H135.531V218.523C135.531 218.966 135.51 219.333 135.469 219.625H135.547C135.802 219.214 136.164 218.891 136.633 218.656C137.107 218.417 137.646 218.297 138.25 218.297C139.297 218.297 140.081 218.547 140.602 219.047C141.128 219.542 141.391 220.331 141.391 221.414V227H140.094ZM145.359 227H144.062V218.438H145.359V227ZM143.953 216.117C143.953 215.82 144.026 215.604 144.172 215.469C144.318 215.328 144.5 215.258 144.719 215.258C144.927 215.258 145.107 215.328 145.258 215.469C145.409 215.609 145.484 215.826 145.484 216.117C145.484 216.409 145.409 216.628 145.258 216.773C145.107 216.914 144.927 216.984 144.719 216.984C144.5 216.984 144.318 216.914 144.172 216.773C144.026 216.628 143.953 216.409 143.953 216.117ZM153.633 224.664C153.633 225.461 153.336 226.076 152.742 226.508C152.148 226.94 151.315 227.156 150.242 227.156C149.107 227.156 148.221 226.977 147.586 226.617V225.414C147.997 225.622 148.438 225.786 148.906 225.906C149.38 226.026 149.836 226.086 150.273 226.086C150.951 226.086 151.471 225.979 151.836 225.766C152.201 225.547 152.383 225.216 152.383 224.773C152.383 224.44 152.237 224.156 151.945 223.922C151.659 223.682 151.096 223.401 150.258 223.078C149.461 222.781 148.893 222.523 148.555 222.305C148.221 222.081 147.971 221.828 147.805 221.547C147.643 221.266 147.562 220.93 147.562 220.539C147.562 219.841 147.846 219.292 148.414 218.891C148.982 218.484 149.76 218.281 150.75 218.281C151.672 218.281 152.573 218.469 153.453 218.844L152.992 219.898C152.133 219.544 151.354 219.367 150.656 219.367C150.042 219.367 149.578 219.464 149.266 219.656C148.953 219.849 148.797 220.115 148.797 220.453C148.797 220.682 148.854 220.878 148.969 221.039C149.089 221.201 149.279 221.354 149.539 221.5C149.799 221.646 150.299 221.857 151.039 222.133C152.055 222.503 152.74 222.875 153.094 223.25C153.453 223.625 153.633 224.096 153.633 224.664ZM163.328 227.156C162.089 227.156 161.128 226.776 160.445 226.016C159.768 225.25 159.43 224.169 159.43 222.773C159.43 221.341 159.773 220.234 160.461 219.453C161.154 218.672 162.138 218.281 163.414 218.281C163.826 218.281 164.237 218.326 164.648 218.414C165.06 218.503 165.383 218.607 165.617 218.727L165.219 219.828C164.932 219.714 164.62 219.62 164.281 219.547C163.943 219.469 163.643 219.43 163.383 219.43C161.643 219.43 160.773 220.539 160.773 222.758C160.773 223.81 160.984 224.617 161.406 225.18C161.833 225.742 162.464 226.023 163.297 226.023C164.01 226.023 164.742 225.87 165.492 225.562V226.711C164.919 227.008 164.198 227.156 163.328 227.156ZM172.797 227L172.539 225.781H172.477C172.049 226.318 171.622 226.682 171.195 226.875C170.773 227.062 170.245 227.156 169.609 227.156C168.76 227.156 168.094 226.938 167.609 226.5C167.13 226.062 166.891 225.44 166.891 224.633C166.891 222.904 168.273 221.997 171.039 221.914L172.492 221.867V221.336C172.492 220.664 172.346 220.169 172.055 219.852C171.768 219.529 171.307 219.367 170.672 219.367C169.958 219.367 169.151 219.586 168.25 220.023L167.852 219.031C168.273 218.802 168.734 218.622 169.234 218.492C169.74 218.362 170.245 218.297 170.75 218.297C171.771 218.297 172.526 218.523 173.016 218.977C173.51 219.43 173.758 220.156 173.758 221.156V227H172.797ZM169.867 226.086C170.674 226.086 171.307 225.865 171.766 225.422C172.229 224.979 172.461 224.359 172.461 223.562V222.789L171.164 222.844C170.133 222.88 169.388 223.042 168.93 223.328C168.477 223.609 168.25 224.049 168.25 224.648C168.25 225.117 168.391 225.474 168.672 225.719C168.958 225.964 169.357 226.086 169.867 226.086ZM182.297 227V221.461C182.297 220.763 182.138 220.242 181.82 219.898C181.503 219.555 181.005 219.383 180.328 219.383C179.432 219.383 178.776 219.625 178.359 220.109C177.943 220.594 177.734 221.393 177.734 222.508V227H176.438V218.438H177.492L177.703 219.609H177.766C178.031 219.188 178.404 218.862 178.883 218.633C179.362 218.398 179.896 218.281 180.484 218.281C181.516 218.281 182.292 218.531 182.812 219.031C183.333 219.526 183.594 220.32 183.594 221.414V227H182.297ZM192.125 227V221.461C192.125 220.763 191.966 220.242 191.648 219.898C191.331 219.555 190.833 219.383 190.156 219.383C189.26 219.383 188.604 219.625 188.188 220.109C187.771 220.594 187.562 221.393 187.562 222.508V227H186.266V218.438H187.32L187.531 219.609H187.594C187.859 219.188 188.232 218.862 188.711 218.633C189.19 218.398 189.724 218.281 190.312 218.281C191.344 218.281 192.12 218.531 192.641 219.031C193.161 219.526 193.422 220.32 193.422 221.414V227H192.125ZM203.484 222.711C203.484 224.107 203.133 225.198 202.43 225.984C201.727 226.766 200.755 227.156 199.516 227.156C198.75 227.156 198.07 226.977 197.477 226.617C196.883 226.258 196.424 225.742 196.102 225.07C195.779 224.398 195.617 223.612 195.617 222.711C195.617 221.315 195.966 220.229 196.664 219.453C197.362 218.672 198.331 218.281 199.57 218.281C200.768 218.281 201.719 218.68 202.422 219.477C203.13 220.273 203.484 221.352 203.484 222.711ZM196.961 222.711C196.961 223.805 197.18 224.638 197.617 225.211C198.055 225.784 198.698 226.07 199.547 226.07C200.396 226.07 201.039 225.786 201.477 225.219C201.919 224.646 202.141 223.81 202.141 222.711C202.141 221.622 201.919 220.797 201.477 220.234C201.039 219.667 200.391 219.383 199.531 219.383C198.682 219.383 198.042 219.661 197.609 220.219C197.177 220.776 196.961 221.607 196.961 222.711ZM208.531 226.086C208.76 226.086 208.982 226.07 209.195 226.039C209.409 226.003 209.578 225.966 209.703 225.93V226.922C209.562 226.99 209.354 227.044 209.078 227.086C208.807 227.133 208.562 227.156 208.344 227.156C206.688 227.156 205.859 226.284 205.859 224.539V219.445H204.633V218.82L205.859 218.281L206.406 216.453H207.156V218.438H209.641V219.445H207.156V224.484C207.156 225 207.279 225.396 207.523 225.672C207.768 225.948 208.104 226.086 208.531 226.086ZM219.562 218.297C220.688 218.297 221.56 218.682 222.18 219.453C222.805 220.219 223.117 221.305 223.117 222.711C223.117 224.117 222.802 225.211 222.172 225.992C221.547 226.768 220.677 227.156 219.562 227.156C219.005 227.156 218.495 227.055 218.031 226.852C217.573 226.643 217.188 226.326 216.875 225.898H216.781L216.508 227H215.578V214.844H216.875V217.797C216.875 218.458 216.854 219.052 216.812 219.578H216.875C217.479 218.724 218.375 218.297 219.562 218.297ZM219.375 219.383C218.49 219.383 217.852 219.638 217.461 220.148C217.07 220.654 216.875 221.508 216.875 222.711C216.875 223.914 217.076 224.776 217.477 225.297C217.878 225.812 218.521 226.07 219.406 226.07C220.203 226.07 220.797 225.781 221.188 225.203C221.578 224.62 221.773 223.784 221.773 222.695C221.773 221.581 221.578 220.75 221.188 220.203C220.797 219.656 220.193 219.383 219.375 219.383ZM229.008 227.156C227.742 227.156 226.742 226.771 226.008 226C225.279 225.229 224.914 224.159 224.914 222.789C224.914 221.409 225.253 220.312 225.93 219.5C226.612 218.688 227.526 218.281 228.672 218.281C229.745 218.281 230.594 218.635 231.219 219.344C231.844 220.047 232.156 220.977 232.156 222.133V222.953H226.258C226.284 223.958 226.536 224.721 227.016 225.242C227.5 225.763 228.18 226.023 229.055 226.023C229.977 226.023 230.888 225.831 231.789 225.445V226.602C231.331 226.799 230.896 226.94 230.484 227.023C230.078 227.112 229.586 227.156 229.008 227.156ZM228.656 219.367C227.969 219.367 227.419 219.591 227.008 220.039C226.602 220.487 226.362 221.107 226.289 221.898H230.766C230.766 221.081 230.583 220.456 230.219 220.023C229.854 219.586 229.333 219.367 228.656 219.367ZM239.75 218.438V223.992C239.75 224.69 239.909 225.211 240.227 225.555C240.544 225.898 241.042 226.07 241.719 226.07C242.615 226.07 243.268 225.826 243.68 225.336C244.096 224.846 244.305 224.047 244.305 222.938V218.438H245.602V227H244.531L244.344 225.852H244.273C244.008 226.273 243.638 226.596 243.164 226.82C242.695 227.044 242.159 227.156 241.555 227.156C240.513 227.156 239.732 226.909 239.211 226.414C238.695 225.919 238.438 225.128 238.438 224.039V218.438H239.75ZM254.219 227V221.461C254.219 220.763 254.06 220.242 253.742 219.898C253.424 219.555 252.927 219.383 252.25 219.383C251.354 219.383 250.698 219.625 250.281 220.109C249.865 220.594 249.656 221.393 249.656 222.508V227H248.359V218.438H249.414L249.625 219.609H249.688C249.953 219.188 250.326 218.862 250.805 218.633C251.284 218.398 251.818 218.281 252.406 218.281C253.438 218.281 254.214 218.531 254.734 219.031C255.255 219.526 255.516 220.32 255.516 221.414V227H254.219ZM264.016 225.852H263.945C263.346 226.721 262.451 227.156 261.258 227.156C260.138 227.156 259.266 226.773 258.641 226.008C258.021 225.242 257.711 224.154 257.711 222.742C257.711 221.331 258.023 220.234 258.648 219.453C259.273 218.672 260.143 218.281 261.258 218.281C262.419 218.281 263.31 218.703 263.93 219.547H264.031L263.977 218.93L263.945 218.328V214.844H265.242V227H264.188L264.016 225.852ZM261.422 226.07C262.307 226.07 262.948 225.831 263.344 225.352C263.745 224.867 263.945 224.089 263.945 223.016V222.742C263.945 221.529 263.742 220.664 263.336 220.148C262.935 219.628 262.292 219.367 261.406 219.367C260.646 219.367 260.062 219.664 259.656 220.258C259.255 220.846 259.055 221.68 259.055 222.758C259.055 223.852 259.255 224.677 259.656 225.234C260.057 225.792 260.646 226.07 261.422 226.07ZM275.391 222.711C275.391 224.107 275.039 225.198 274.336 225.984C273.633 226.766 272.661 227.156 271.422 227.156C270.656 227.156 269.977 226.977 269.383 226.617C268.789 226.258 268.331 225.742 268.008 225.07C267.685 224.398 267.523 223.612 267.523 222.711C267.523 221.315 267.872 220.229 268.57 219.453C269.268 218.672 270.237 218.281 271.477 218.281C272.674 218.281 273.625 218.68 274.328 219.477C275.036 220.273 275.391 221.352 275.391 222.711ZM268.867 222.711C268.867 223.805 269.086 224.638 269.523 225.211C269.961 225.784 270.604 226.07 271.453 226.07C272.302 226.07 272.945 225.786 273.383 225.219C273.826 224.646 274.047 223.81 274.047 222.711C274.047 221.622 273.826 220.797 273.383 220.234C272.945 219.667 272.297 219.383 271.438 219.383C270.589 219.383 269.948 219.661 269.516 220.219C269.083 220.776 268.867 221.607 268.867 222.711ZM283.531 227V221.461C283.531 220.763 283.372 220.242 283.055 219.898C282.737 219.555 282.24 219.383 281.562 219.383C280.667 219.383 280.01 219.625 279.594 220.109C279.177 220.594 278.969 221.393 278.969 222.508V227H277.672V218.438H278.727L278.938 219.609H279C279.266 219.188 279.638 218.862 280.117 218.633C280.596 218.398 281.13 218.281 281.719 218.281C282.75 218.281 283.526 218.531 284.047 219.031C284.568 219.526 284.828 220.32 284.828 221.414V227H283.531ZM291.117 227.156C289.852 227.156 288.852 226.771 288.117 226C287.388 225.229 287.023 224.159 287.023 222.789C287.023 221.409 287.362 220.312 288.039 219.5C288.721 218.688 289.635 218.281 290.781 218.281C291.854 218.281 292.703 218.635 293.328 219.344C293.953 220.047 294.266 220.977 294.266 222.133V222.953H288.367C288.393 223.958 288.646 224.721 289.125 225.242C289.609 225.763 290.289 226.023 291.164 226.023C292.086 226.023 292.997 225.831 293.898 225.445V226.602C293.44 226.799 293.005 226.94 292.594 227.023C292.188 227.112 291.695 227.156 291.117 227.156ZM290.766 219.367C290.078 219.367 289.529 219.591 289.117 220.039C288.711 220.487 288.471 221.107 288.398 221.898H292.875C292.875 221.081 292.693 220.456 292.328 220.023C291.964 219.586 291.443 219.367 290.766 219.367ZM296.297 226.172C296.297 225.823 296.375 225.56 296.531 225.383C296.693 225.201 296.922 225.109 297.219 225.109C297.521 225.109 297.755 225.201 297.922 225.383C298.094 225.56 298.18 225.823 298.18 226.172C298.18 226.51 298.094 226.771 297.922 226.953C297.75 227.135 297.516 227.227 297.219 227.227C296.953 227.227 296.732 227.146 296.555 226.984C296.383 226.818 296.297 226.547 296.297 226.172Z" fill="#424E54"/>
<path d="M210.189 282.407C210.189 284.057 209.731 285.319 208.815 286.194C207.899 287.065 206.58 287.5 204.857 287.5H202.062V277.506H205.151C206.742 277.506 207.979 277.934 208.863 278.791C209.747 279.648 210.189 280.853 210.189 282.407ZM208.467 282.462C208.467 280.069 207.348 278.873 205.11 278.873H203.695V286.126H204.857C207.264 286.126 208.467 284.905 208.467 282.462ZM215.474 287.637C214.298 287.637 213.377 287.295 212.712 286.611C212.051 285.923 211.721 284.978 211.721 283.774C211.721 282.539 212.028 281.569 212.644 280.862C213.259 280.156 214.104 279.803 215.18 279.803C216.178 279.803 216.966 280.106 217.545 280.712C218.124 281.318 218.413 282.152 218.413 283.214V284.082H213.375C213.398 284.816 213.596 285.381 213.97 285.777C214.343 286.169 214.87 286.365 215.549 286.365C215.995 286.365 216.41 286.324 216.793 286.242C217.18 286.156 217.595 286.014 218.037 285.818V287.124C217.645 287.311 217.249 287.443 216.848 287.521C216.447 287.598 215.989 287.637 215.474 287.637ZM215.18 281.02C214.669 281.02 214.259 281.181 213.949 281.505C213.644 281.828 213.462 282.3 213.402 282.92H216.834C216.825 282.296 216.674 281.824 216.383 281.505C216.091 281.181 215.69 281.02 215.18 281.02ZM221.845 287.5H220.238V276.863H221.845V287.5ZM227.45 287.637C226.274 287.637 225.354 287.295 224.688 286.611C224.028 285.923 223.697 284.978 223.697 283.774C223.697 282.539 224.005 281.569 224.62 280.862C225.235 280.156 226.081 279.803 227.156 279.803C228.154 279.803 228.943 280.106 229.521 280.712C230.1 281.318 230.39 282.152 230.39 283.214V284.082H225.352C225.374 284.816 225.573 285.381 225.946 285.777C226.32 286.169 226.846 286.365 227.525 286.365C227.972 286.365 228.387 286.324 228.77 286.242C229.157 286.156 229.572 286.014 230.014 285.818V287.124C229.622 287.311 229.225 287.443 228.824 287.521C228.423 287.598 227.965 287.637 227.45 287.637ZM227.156 281.02C226.646 281.02 226.236 281.181 225.926 281.505C225.62 281.828 225.438 282.3 225.379 282.92H228.811C228.801 282.296 228.651 281.824 228.359 281.505C228.068 281.181 227.667 281.02 227.156 281.02ZM235.031 286.338C235.423 286.338 235.815 286.276 236.207 286.153V287.363C236.029 287.441 235.799 287.505 235.517 287.555C235.239 287.609 234.949 287.637 234.648 287.637C233.126 287.637 232.365 286.835 232.365 285.23V281.156H231.333V280.445L232.44 279.857L232.987 278.258H233.979V279.939H236.132V281.156H233.979V285.203C233.979 285.59 234.074 285.878 234.266 286.064C234.462 286.247 234.717 286.338 235.031 286.338ZM241.026 287.637C239.851 287.637 238.93 287.295 238.265 286.611C237.604 285.923 237.273 284.978 237.273 283.774C237.273 282.539 237.581 281.569 238.196 280.862C238.812 280.156 239.657 279.803 240.732 279.803C241.73 279.803 242.519 280.106 243.098 280.712C243.676 281.318 243.966 282.152 243.966 283.214V284.082H238.928C238.951 284.816 239.149 285.381 239.522 285.777C239.896 286.169 240.423 286.365 241.102 286.365C241.548 286.365 241.963 286.324 242.346 286.242C242.733 286.156 243.148 286.014 243.59 285.818V287.124C243.198 287.311 242.801 287.443 242.4 287.521C241.999 287.598 241.541 287.637 241.026 287.637ZM240.732 281.02C240.222 281.02 239.812 281.181 239.502 281.505C239.197 281.828 239.014 282.3 238.955 282.92H242.387C242.378 282.296 242.227 281.824 241.936 281.505C241.644 281.181 241.243 281.02 240.732 281.02ZM251.219 287.5H249.599V277.506H255.238V278.887H251.219V282.011H254.985V283.398H251.219V287.5ZM263.585 283.706C263.585 284.941 263.268 285.905 262.635 286.598C262.001 287.29 261.119 287.637 259.989 287.637C259.283 287.637 258.659 287.477 258.116 287.158C257.574 286.839 257.157 286.381 256.865 285.784C256.574 285.187 256.428 284.494 256.428 283.706C256.428 282.48 256.742 281.523 257.371 280.835C258 280.147 258.886 279.803 260.03 279.803C261.124 279.803 261.99 280.156 262.628 280.862C263.266 281.564 263.585 282.512 263.585 283.706ZM258.082 283.706C258.082 285.451 258.727 286.324 260.017 286.324C261.293 286.324 261.931 285.451 261.931 283.706C261.931 281.979 261.288 281.115 260.003 281.115C259.328 281.115 258.839 281.339 258.533 281.785C258.232 282.232 258.082 282.872 258.082 283.706ZM269.272 279.803C269.596 279.803 269.863 279.826 270.072 279.871L269.915 281.368C269.687 281.313 269.45 281.286 269.204 281.286C268.562 281.286 268.04 281.496 267.639 281.915C267.242 282.334 267.044 282.879 267.044 283.549V287.5H265.438V279.939H266.695L266.907 281.272H266.989C267.24 280.821 267.566 280.464 267.967 280.199C268.372 279.935 268.808 279.803 269.272 279.803ZM274.782 287.637C273.606 287.637 272.686 287.295 272.021 286.611C271.36 285.923 271.029 284.978 271.029 283.774C271.029 282.539 271.337 281.569 271.952 280.862C272.567 280.156 273.413 279.803 274.488 279.803C275.486 279.803 276.275 280.106 276.854 280.712C277.432 281.318 277.722 282.152 277.722 283.214V284.082H272.684C272.706 284.816 272.905 285.381 273.278 285.777C273.652 286.169 274.178 286.365 274.857 286.365C275.304 286.365 275.719 286.324 276.102 286.242C276.489 286.156 276.904 286.014 277.346 285.818V287.124C276.954 287.311 276.557 287.443 276.156 287.521C275.755 287.598 275.297 287.637 274.782 287.637ZM274.488 281.02C273.978 281.02 273.568 281.181 273.258 281.505C272.952 281.828 272.77 282.3 272.711 282.92H276.143C276.133 282.296 275.983 281.824 275.691 281.505C275.4 281.181 274.999 281.02 274.488 281.02ZM281.27 287.5L278.398 279.939H280.094L281.632 284.335C281.896 285.073 282.056 285.67 282.11 286.126H282.165C282.206 285.798 282.366 285.201 282.644 284.335L284.182 279.939H285.891L283.006 287.5H281.27ZM290.341 287.637C289.165 287.637 288.244 287.295 287.579 286.611C286.918 285.923 286.588 284.978 286.588 283.774C286.588 282.539 286.896 281.569 287.511 280.862C288.126 280.156 288.971 279.803 290.047 279.803C291.045 279.803 291.833 280.106 292.412 280.712C292.991 281.318 293.28 282.152 293.28 283.214V284.082H288.242C288.265 284.816 288.463 285.381 288.837 285.777C289.211 286.169 289.737 286.365 290.416 286.365C290.863 286.365 291.277 286.324 291.66 286.242C292.048 286.156 292.462 286.014 292.904 285.818V287.124C292.512 287.311 292.116 287.443 291.715 287.521C291.314 287.598 290.856 287.637 290.341 287.637ZM290.047 281.02C289.536 281.02 289.126 281.181 288.816 281.505C288.511 281.828 288.329 282.3 288.27 282.92H291.701C291.692 282.296 291.542 281.824 291.25 281.505C290.958 281.181 290.557 281.02 290.047 281.02ZM298.94 279.803C299.264 279.803 299.531 279.826 299.74 279.871L299.583 281.368C299.355 281.313 299.118 281.286 298.872 281.286C298.229 281.286 297.708 281.496 297.307 281.915C296.91 282.334 296.712 282.879 296.712 283.549V287.5H295.105V279.939H296.363L296.575 281.272H296.657C296.908 280.821 297.234 280.464 297.635 280.199C298.04 279.935 298.476 279.803 298.94 279.803Z" fill="#CA3C3D"/>
<rect x="116.5" y="264.5" width="267" height="35" rx="3.5" stroke="#CA3C3D"/>
<path d="M155.771 335.5H154.138V326.907H151.198V325.506H158.711V326.907H155.771V335.5ZM163.913 327.803C164.237 327.803 164.503 327.826 164.713 327.871L164.556 329.368C164.328 329.313 164.091 329.286 163.845 329.286C163.202 329.286 162.68 329.496 162.279 329.915C161.883 330.334 161.685 330.879 161.685 331.549V335.5H160.078V327.939H161.336L161.548 329.272H161.63C161.881 328.821 162.206 328.464 162.607 328.199C163.013 327.935 163.448 327.803 163.913 327.803ZM170.852 335.5L170.53 334.447H170.476C170.111 334.908 169.744 335.222 169.375 335.391C169.006 335.555 168.532 335.637 167.953 335.637C167.21 335.637 166.629 335.436 166.21 335.035C165.795 334.634 165.588 334.067 165.588 333.333C165.588 332.554 165.877 331.966 166.456 331.569C167.035 331.173 167.917 330.956 169.102 330.92L170.407 330.879V330.476C170.407 329.993 170.293 329.632 170.065 329.396C169.842 329.154 169.493 329.033 169.02 329.033C168.632 329.033 168.261 329.09 167.905 329.204C167.55 329.318 167.208 329.452 166.88 329.607L166.36 328.459C166.771 328.245 167.219 328.083 167.707 327.974C168.195 327.86 168.655 327.803 169.088 327.803C170.049 327.803 170.774 328.012 171.262 328.432C171.754 328.851 172 329.509 172 330.407V335.5H170.852ZM168.459 334.406C169.042 334.406 169.509 334.244 169.86 333.921C170.216 333.593 170.394 333.135 170.394 332.547V331.891L169.423 331.932C168.666 331.959 168.115 332.087 167.769 332.314C167.427 332.538 167.256 332.882 167.256 333.347C167.256 333.684 167.356 333.946 167.557 334.133C167.757 334.315 168.058 334.406 168.459 334.406ZM180.894 335.5H179.28V330.852C179.28 330.268 179.162 329.833 178.925 329.546C178.692 329.259 178.321 329.115 177.811 329.115C177.132 329.115 176.635 329.316 176.32 329.717C176.006 330.118 175.849 330.79 175.849 331.733V335.5H174.242V327.939H175.5L175.726 328.931H175.808C176.035 328.571 176.359 328.293 176.778 328.097C177.198 327.901 177.662 327.803 178.173 327.803C179.987 327.803 180.894 328.726 180.894 330.571V335.5ZM188.208 333.347C188.208 334.085 187.939 334.652 187.401 335.049C186.864 335.441 186.093 335.637 185.091 335.637C184.084 335.637 183.275 335.484 182.664 335.179V333.791C183.553 334.201 184.38 334.406 185.146 334.406C186.134 334.406 186.629 334.108 186.629 333.511C186.629 333.319 186.574 333.16 186.465 333.032C186.355 332.905 186.175 332.772 185.925 332.636C185.674 332.499 185.326 332.344 184.879 332.171C184.008 331.834 183.418 331.496 183.108 331.159C182.803 330.822 182.65 330.384 182.65 329.847C182.65 329.2 182.91 328.698 183.43 328.343C183.954 327.983 184.665 327.803 185.562 327.803C186.451 327.803 187.292 327.983 188.085 328.343L187.565 329.553C186.75 329.215 186.064 329.047 185.508 329.047C184.66 329.047 184.236 329.288 184.236 329.771C184.236 330.008 184.346 330.209 184.564 330.373C184.788 330.537 185.271 330.763 186.014 331.05C186.638 331.291 187.091 331.512 187.374 331.713C187.657 331.913 187.866 332.146 188.003 332.41C188.14 332.67 188.208 332.982 188.208 333.347ZM193.745 329.156H191.899V335.5H190.286V329.156H189.042V328.404L190.286 327.912V327.42C190.286 326.527 190.496 325.866 190.915 325.438C191.334 325.005 191.975 324.788 192.836 324.788C193.401 324.788 193.957 324.882 194.504 325.068L194.08 326.285C193.684 326.158 193.305 326.094 192.945 326.094C192.581 326.094 192.314 326.208 192.146 326.436C191.981 326.659 191.899 326.996 191.899 327.447V327.939H193.745V329.156ZM198.339 335.637C197.163 335.637 196.243 335.295 195.577 334.611C194.916 333.923 194.586 332.978 194.586 331.774C194.586 330.539 194.894 329.569 195.509 328.862C196.124 328.156 196.969 327.803 198.045 327.803C199.043 327.803 199.831 328.106 200.41 328.712C200.989 329.318 201.278 330.152 201.278 331.214V332.082H196.24C196.263 332.816 196.461 333.381 196.835 333.777C197.209 334.169 197.735 334.365 198.414 334.365C198.861 334.365 199.275 334.324 199.658 334.242C200.046 334.156 200.46 334.014 200.902 333.818V335.124C200.51 335.311 200.114 335.443 199.713 335.521C199.312 335.598 198.854 335.637 198.339 335.637ZM198.045 329.02C197.535 329.02 197.124 329.181 196.814 329.505C196.509 329.828 196.327 330.3 196.268 330.92H199.699C199.69 330.296 199.54 329.824 199.248 329.505C198.956 329.181 198.555 329.02 198.045 329.02ZM206.938 327.803C207.262 327.803 207.529 327.826 207.738 327.871L207.581 329.368C207.353 329.313 207.116 329.286 206.87 329.286C206.228 329.286 205.706 329.496 205.305 329.915C204.908 330.334 204.71 330.879 204.71 331.549V335.5H203.104V327.939H204.361L204.573 329.272H204.655C204.906 328.821 205.232 328.464 205.633 328.199C206.038 327.935 206.474 327.803 206.938 327.803ZM216.406 335.5H214.772V326.907H211.833V325.506H219.346V326.907H216.406V335.5ZM227.419 331.706C227.419 332.941 227.102 333.905 226.469 334.598C225.835 335.29 224.953 335.637 223.823 335.637C223.117 335.637 222.493 335.477 221.95 335.158C221.408 334.839 220.991 334.381 220.699 333.784C220.408 333.187 220.262 332.494 220.262 331.706C220.262 330.48 220.576 329.523 221.205 328.835C221.834 328.147 222.72 327.803 223.864 327.803C224.958 327.803 225.824 328.156 226.462 328.862C227.1 329.564 227.419 330.512 227.419 331.706ZM221.916 331.706C221.916 333.451 222.561 334.324 223.851 334.324C225.127 334.324 225.765 333.451 225.765 331.706C225.765 329.979 225.122 329.115 223.837 329.115C223.162 329.115 222.673 329.339 222.367 329.785C222.066 330.232 221.916 330.872 221.916 331.706ZM239.279 335.5L238.281 332.725H234.46L233.482 335.5H231.76L235.499 325.465H237.276L241.016 335.5H239.279ZM237.851 331.316L236.914 328.596C236.846 328.413 236.75 328.126 236.627 327.734C236.508 327.342 236.426 327.055 236.381 326.873C236.258 327.434 236.078 328.047 235.841 328.712L234.938 331.316H237.851ZM248.815 335.5H247.202V330.852C247.202 330.268 247.084 329.833 246.847 329.546C246.614 329.259 246.243 329.115 245.732 329.115C245.053 329.115 244.557 329.316 244.242 329.717C243.928 330.118 243.771 330.79 243.771 331.733V335.5H242.164V327.939H243.422L243.647 328.931H243.729C243.957 328.571 244.281 328.293 244.7 328.097C245.119 327.901 245.584 327.803 246.095 327.803C247.909 327.803 248.815 328.726 248.815 330.571V335.5ZM257.757 331.706C257.757 332.941 257.44 333.905 256.807 334.598C256.173 335.29 255.291 335.637 254.161 335.637C253.455 335.637 252.83 335.477 252.288 335.158C251.746 334.839 251.329 334.381 251.037 333.784C250.745 333.187 250.6 332.494 250.6 331.706C250.6 330.48 250.914 329.523 251.543 328.835C252.172 328.147 253.058 327.803 254.202 327.803C255.296 327.803 256.162 328.156 256.8 328.862C257.438 329.564 257.757 330.512 257.757 331.706ZM252.254 331.706C252.254 333.451 252.899 334.324 254.188 334.324C255.465 334.324 256.103 333.451 256.103 331.706C256.103 329.979 255.46 329.115 254.175 329.115C253.5 329.115 253.01 329.339 252.705 329.785C252.404 330.232 252.254 330.872 252.254 331.706ZM262.426 334.338C262.818 334.338 263.21 334.276 263.602 334.153V335.363C263.424 335.441 263.194 335.505 262.911 335.555C262.633 335.609 262.344 335.637 262.043 335.637C260.521 335.637 259.76 334.835 259.76 333.23V329.156H258.728V328.445L259.835 327.857L260.382 326.258H261.373V327.939H263.526V329.156H261.373V333.203C261.373 333.59 261.469 333.878 261.66 334.064C261.856 334.247 262.111 334.338 262.426 334.338ZM271.771 335.5H270.157V330.852C270.157 330.268 270.039 329.833 269.802 329.546C269.569 329.259 269.198 329.115 268.688 329.115C268.013 329.115 267.516 329.318 267.197 329.724C266.883 330.125 266.726 330.799 266.726 331.747V335.5H265.119V324.863H266.726V327.563C266.726 327.996 266.698 328.459 266.644 328.951H266.746C266.965 328.587 267.268 328.304 267.655 328.104C268.047 327.903 268.503 327.803 269.022 327.803C270.854 327.803 271.771 328.726 271.771 330.571V335.5ZM277.308 335.637C276.132 335.637 275.211 335.295 274.546 334.611C273.885 333.923 273.555 332.978 273.555 331.774C273.555 330.539 273.862 329.569 274.478 328.862C275.093 328.156 275.938 327.803 277.014 327.803C278.012 327.803 278.8 328.106 279.379 328.712C279.958 329.318 280.247 330.152 280.247 331.214V332.082H275.209C275.232 332.816 275.43 333.381 275.804 333.777C276.177 334.169 276.704 334.365 277.383 334.365C277.829 334.365 278.244 334.324 278.627 334.242C279.014 334.156 279.429 334.014 279.871 333.818V335.124C279.479 335.311 279.083 335.443 278.682 335.521C278.281 335.598 277.823 335.637 277.308 335.637ZM277.014 329.02C276.503 329.02 276.093 329.181 275.783 329.505C275.478 329.828 275.296 330.3 275.236 330.92H278.668C278.659 330.296 278.508 329.824 278.217 329.505C277.925 329.181 277.524 329.02 277.014 329.02ZM285.907 327.803C286.231 327.803 286.497 327.826 286.707 327.871L286.55 329.368C286.322 329.313 286.085 329.286 285.839 329.286C285.196 329.286 284.674 329.496 284.273 329.915C283.877 330.334 283.679 330.879 283.679 331.549V335.5H282.072V327.939H283.33L283.542 329.272H283.624C283.875 328.821 284.201 328.464 284.602 328.199C285.007 327.935 285.442 327.803 285.907 327.803ZM291.923 335.5V325.506H293.557V334.099H297.788V335.5H291.923ZM306.046 331.706C306.046 332.941 305.729 333.905 305.096 334.598C304.462 335.29 303.58 335.637 302.45 335.637C301.744 335.637 301.119 335.477 300.577 335.158C300.035 334.839 299.618 334.381 299.326 333.784C299.035 333.187 298.889 332.494 298.889 331.706C298.889 330.48 299.203 329.523 299.832 328.835C300.461 328.147 301.347 327.803 302.491 327.803C303.585 327.803 304.451 328.156 305.089 328.862C305.727 329.564 306.046 330.512 306.046 331.706ZM300.543 331.706C300.543 333.451 301.188 334.324 302.478 334.324C303.754 334.324 304.392 333.451 304.392 331.706C304.392 329.979 303.749 329.115 302.464 329.115C301.789 329.115 301.299 329.339 300.994 329.785C300.693 330.232 300.543 330.872 300.543 331.706ZM310.947 335.637C309.803 335.637 308.933 335.304 308.336 334.639C307.743 333.969 307.447 333.009 307.447 331.761C307.447 330.489 307.757 329.512 308.377 328.828C309.001 328.145 309.901 327.803 311.077 327.803C311.875 327.803 312.592 327.951 313.23 328.247L312.745 329.539C312.066 329.275 311.506 329.143 311.063 329.143C309.756 329.143 309.102 330.011 309.102 331.747C309.102 332.595 309.263 333.233 309.587 333.661C309.915 334.085 310.394 334.297 311.022 334.297C311.738 334.297 312.415 334.119 313.053 333.764V335.165C312.766 335.334 312.458 335.454 312.13 335.527C311.806 335.6 311.412 335.637 310.947 335.637ZM319.561 335.5L319.239 334.447H319.185C318.82 334.908 318.453 335.222 318.084 335.391C317.715 335.555 317.241 335.637 316.662 335.637C315.919 335.637 315.338 335.436 314.919 335.035C314.504 334.634 314.297 334.067 314.297 333.333C314.297 332.554 314.586 331.966 315.165 331.569C315.744 331.173 316.626 330.956 317.811 330.92L319.116 330.879V330.476C319.116 329.993 319.002 329.632 318.774 329.396C318.551 329.154 318.202 329.033 317.729 329.033C317.341 329.033 316.97 329.09 316.614 329.204C316.259 329.318 315.917 329.452 315.589 329.607L315.069 328.459C315.479 328.245 315.928 328.083 316.416 327.974C316.904 327.86 317.364 327.803 317.797 327.803C318.758 327.803 319.483 328.012 319.971 328.432C320.463 328.851 320.709 329.509 320.709 330.407V335.5H319.561ZM317.168 334.406C317.751 334.406 318.218 334.244 318.569 333.921C318.925 333.593 319.103 333.135 319.103 332.547V331.891L318.132 331.932C317.375 331.959 316.824 332.087 316.478 332.314C316.136 332.538 315.965 332.882 315.965 333.347C315.965 333.684 316.065 333.946 316.266 334.133C316.466 334.315 316.767 334.406 317.168 334.406ZM325.768 334.338C326.16 334.338 326.551 334.276 326.943 334.153V335.363C326.766 335.441 326.535 335.505 326.253 335.555C325.975 335.609 325.686 335.637 325.385 335.637C323.863 335.637 323.102 334.835 323.102 333.23V329.156H322.069V328.445L323.177 327.857L323.724 326.258H324.715V327.939H326.868V329.156H324.715V333.203C324.715 333.59 324.811 333.878 325.002 334.064C325.198 334.247 325.453 334.338 325.768 334.338ZM330.067 335.5H328.461V327.939H330.067V335.5ZM328.365 325.937C328.365 325.649 328.443 325.428 328.598 325.273C328.757 325.118 328.983 325.041 329.274 325.041C329.557 325.041 329.776 325.118 329.931 325.273C330.09 325.428 330.17 325.649 330.17 325.937C330.17 326.21 330.09 326.426 329.931 326.586C329.776 326.741 329.557 326.818 329.274 326.818C328.983 326.818 328.757 326.741 328.598 326.586C328.443 326.426 328.365 326.21 328.365 325.937ZM339.077 331.706C339.077 332.941 338.76 333.905 338.127 334.598C337.493 335.29 336.612 335.637 335.481 335.637C334.775 335.637 334.151 335.477 333.608 335.158C333.066 334.839 332.649 334.381 332.357 333.784C332.066 333.187 331.92 332.494 331.92 331.706C331.92 330.48 332.234 329.523 332.863 328.835C333.492 328.147 334.379 327.803 335.522 327.803C336.616 327.803 337.482 328.156 338.12 328.862C338.758 329.564 339.077 330.512 339.077 331.706ZM333.574 331.706C333.574 333.451 334.219 334.324 335.509 334.324C336.785 334.324 337.423 333.451 337.423 331.706C337.423 329.979 336.78 329.115 335.495 329.115C334.821 329.115 334.331 329.339 334.025 329.785C333.725 330.232 333.574 330.872 333.574 331.706ZM347.581 335.5H345.968V330.852C345.968 330.268 345.849 329.833 345.612 329.546C345.38 329.259 345.008 329.115 344.498 329.115C343.819 329.115 343.322 329.316 343.008 329.717C342.693 330.118 342.536 330.79 342.536 331.733V335.5H340.93V327.939H342.188L342.413 328.931H342.495C342.723 328.571 343.047 328.293 343.466 328.097C343.885 327.901 344.35 327.803 344.86 327.803C346.674 327.803 347.581 328.726 347.581 330.571V335.5Z" fill="#007BC1"/>
<rect x="116.5" y="312.5" width="267" height="35" rx="3.5" stroke="#007BC1"/>
<path d="M233.071 374.764C232.132 374.764 231.394 375.096 230.856 375.762C230.319 376.427 230.05 377.345 230.05 378.517C230.05 379.743 230.307 380.67 230.822 381.299C231.342 381.928 232.091 382.242 233.071 382.242C233.495 382.242 233.905 382.201 234.302 382.119C234.698 382.033 235.111 381.923 235.539 381.791V383.192C234.755 383.489 233.867 383.637 232.873 383.637C231.41 383.637 230.287 383.195 229.503 382.311C228.719 381.422 228.327 380.153 228.327 378.503C228.327 377.464 228.516 376.555 228.895 375.775C229.277 374.996 229.829 374.399 230.549 373.984C231.269 373.57 232.114 373.362 233.085 373.362C234.106 373.362 235.049 373.576 235.915 374.005L235.327 375.365C234.99 375.206 234.632 375.067 234.254 374.948C233.88 374.825 233.486 374.764 233.071 374.764ZM242.252 383.5L241.931 382.447H241.876C241.511 382.908 241.145 383.222 240.775 383.391C240.406 383.555 239.932 383.637 239.354 383.637C238.611 383.637 238.03 383.436 237.61 383.035C237.196 382.634 236.988 382.067 236.988 381.333C236.988 380.554 237.278 379.966 237.856 379.569C238.435 379.173 239.317 378.956 240.502 378.92L241.808 378.879V378.476C241.808 377.993 241.694 377.632 241.466 377.396C241.243 377.154 240.894 377.033 240.42 377.033C240.033 377.033 239.661 377.09 239.306 377.204C238.95 377.318 238.608 377.452 238.28 377.607L237.761 376.459C238.171 376.245 238.62 376.083 239.107 375.974C239.595 375.86 240.055 375.803 240.488 375.803C241.45 375.803 242.174 376.012 242.662 376.432C243.154 376.851 243.4 377.509 243.4 378.407V383.5H242.252ZM239.859 382.406C240.443 382.406 240.91 382.244 241.261 381.921C241.616 381.593 241.794 381.135 241.794 380.547V379.891L240.823 379.932C240.067 379.959 239.515 380.087 239.169 380.314C238.827 380.538 238.656 380.882 238.656 381.347C238.656 381.684 238.757 381.946 238.957 382.133C239.158 382.315 239.458 382.406 239.859 382.406ZM252.294 383.5H250.681V378.852C250.681 378.268 250.562 377.833 250.325 377.546C250.093 377.259 249.721 377.115 249.211 377.115C248.532 377.115 248.035 377.316 247.721 377.717C247.406 378.118 247.249 378.79 247.249 379.733V383.5H245.643V375.939H246.9L247.126 376.931H247.208C247.436 376.571 247.759 376.293 248.179 376.097C248.598 375.901 249.063 375.803 249.573 375.803C251.387 375.803 252.294 376.726 252.294 378.571V383.5ZM257.578 383.637C256.434 383.637 255.564 383.304 254.967 382.639C254.374 381.969 254.078 381.009 254.078 379.761C254.078 378.489 254.388 377.512 255.008 376.828C255.632 376.145 256.532 375.803 257.708 375.803C258.506 375.803 259.223 375.951 259.861 376.247L259.376 377.539C258.697 377.275 258.136 377.143 257.694 377.143C256.386 377.143 255.732 378.011 255.732 379.747C255.732 380.595 255.894 381.233 256.218 381.661C256.546 382.085 257.024 382.297 257.653 382.297C258.369 382.297 259.046 382.119 259.684 381.764V383.165C259.396 383.334 259.089 383.454 258.761 383.527C258.437 383.6 258.043 383.637 257.578 383.637ZM264.763 383.637C263.587 383.637 262.666 383.295 262.001 382.611C261.34 381.923 261.01 380.978 261.01 379.774C261.01 378.539 261.317 377.569 261.933 376.862C262.548 376.156 263.393 375.803 264.469 375.803C265.467 375.803 266.255 376.106 266.834 376.712C267.413 377.318 267.702 378.152 267.702 379.214V380.082H262.664C262.687 380.816 262.885 381.381 263.259 381.777C263.632 382.169 264.159 382.365 264.838 382.365C265.285 382.365 265.699 382.324 266.082 382.242C266.469 382.156 266.884 382.014 267.326 381.818V383.124C266.934 383.311 266.538 383.443 266.137 383.521C265.736 383.598 265.278 383.637 264.763 383.637ZM264.469 377.02C263.958 377.02 263.548 377.181 263.238 377.505C262.933 377.828 262.751 378.3 262.691 378.92H266.123C266.114 378.296 265.964 377.824 265.672 377.505C265.38 377.181 264.979 377.02 264.469 377.02ZM271.134 383.5H269.527V372.863H271.134V383.5Z" fill="#007BC1"/>
<rect x="116.5" y="360.5" width="267" height="35" rx="3.5" stroke="#007BC1"/>
</g>
</g>
<defs>
<filter id="filter0_ddd_5174_239819" x="74" y="68" width="352" height="375" filterUnits="userSpaceOnUse" color-interpolation-filters="sRGB">
<feFlood flood-opacity="0" result="BackgroundImageFix"/>
<feColorMatrix in="SourceAlpha" type="matrix" values="0 0 0 0 0 0 0 0 0 0 0 0 0 0 0 0 0 0 127 0" result="hardAlpha"/>
<feMorphology radius="4" operator="dilate" in="SourceAlpha" result="effect1_dropShadow_5174_239819"/>
<feOffset dy="5"/>
<feGaussianBlur stdDeviation="11"/>
<feColorMatrix type="matrix" values="0 0 0 0 0 0 0 0 0 0 0 0 0 0 0 0 0 0 0.12 0"/>
<feBlend mode="normal" in2="BackgroundImageFix" result="effect1_dropShadow_5174_239819"/>
<feColorMatrix in="SourceAlpha" type="matrix" values="0 0 0 0 0 0 0 0 0 0 0 0 0 0 0 0 0 0 127 0" result="hardAlpha"/>
<feMorphology radius="2" operator="dilate" in="SourceAlpha" result="effect2_dropShadow_5174_239819"/>
<feOffset dy="12"/>
<feGaussianBlur stdDeviation="8.5"/>
<feColorMatrix type="matrix" values="0 0 0 0 0.258824 0 0 0 0 0.305882 0 0 0 0 0.329412 0 0 0 0.14 0"/>
<feBlend mode="normal" in2="effect1_dropShadow_5174_239819" result="effect2_dropShadow_5174_239819"/>
<feColorMatrix in="SourceAlpha" type="matrix" values="0 0 0 0 0 0 0 0 0 0 0 0 0 0 0 0 0 0 127 0" result="hardAlpha"/>
<feMorphology radius="4" operator="erode" in="SourceAlpha" result="effect3_dropShadow_5174_239819"/>
<feOffset dy="7"/>
<feGaussianBlur stdDeviation="4"/>
<feColorMatrix type="matrix" values="0 0 0 0 0 0 0 0 0 0 0 0 0 0 0 0 0 0 0.2 0"/>
<feBlend mode="normal" in2="effect2_dropShadow_5174_239819" result="effect3_dropShadow_5174_239819"/>
<feBlend mode="normal" in="SourceGraphic" in2="effect3_dropShadow_5174_239819" result="shape"/>
</filter>
<clipPath id="clip0_5174_239819">
<rect x="100" y="89" width="300" height="323" rx="4" fill="white"/>
</clipPath>
</defs>
</svg>
