<svg width="500" height="500" viewBox="0 0 500 500" fill="none" xmlns="http://www.w3.org/2000/svg">
<rect width="500" height="500" fill="#E2E5E5"/>
<g filter="url(#filter0_ddd_5174_239805)">
<g clip-path="url(#clip0_5174_239805)">
<rect x="100" y="157" width="300" height="187" rx="4" fill="white"/>
<path d="M134.742 194L133.316 190.035H127.857L126.461 194H124L129.342 179.664H131.881L137.223 194H134.742ZM132.701 188.023L131.363 184.137C131.266 183.876 131.129 183.466 130.953 182.906C130.784 182.346 130.667 181.936 130.602 181.676C130.426 182.477 130.169 183.352 129.83 184.303L128.541 188.023H132.701ZM141.158 194H138.863V178.805H141.158V194ZM149.166 194.195C147.486 194.195 146.171 193.707 145.221 192.73C144.277 191.747 143.805 190.396 143.805 188.678C143.805 186.913 144.244 185.527 145.123 184.518C146.002 183.508 147.21 183.004 148.746 183.004C150.172 183.004 151.298 183.437 152.125 184.303C152.952 185.169 153.365 186.36 153.365 187.877V189.117H146.168C146.201 190.165 146.484 190.973 147.018 191.539C147.551 192.099 148.303 192.379 149.273 192.379C149.911 192.379 150.504 192.32 151.051 192.203C151.604 192.079 152.197 191.878 152.828 191.598V193.463C152.268 193.73 151.702 193.919 151.129 194.029C150.556 194.14 149.902 194.195 149.166 194.195ZM148.746 184.742C148.017 184.742 147.431 184.973 146.988 185.436C146.552 185.898 146.292 186.572 146.207 187.457H151.109C151.096 186.565 150.882 185.891 150.465 185.436C150.048 184.973 149.475 184.742 148.746 184.742ZM161.451 183.004C161.913 183.004 162.294 183.036 162.594 183.102L162.369 185.24C162.044 185.162 161.705 185.123 161.354 185.123C160.436 185.123 159.69 185.423 159.117 186.021C158.551 186.62 158.268 187.398 158.268 188.355V194H155.973V183.199H157.77L158.072 185.104H158.189C158.548 184.459 159.013 183.948 159.586 183.57C160.165 183.193 160.787 183.004 161.451 183.004ZM168.629 192.34C169.189 192.34 169.749 192.252 170.309 192.076V193.805C170.055 193.915 169.726 194.007 169.322 194.078C168.925 194.156 168.512 194.195 168.082 194.195C165.908 194.195 164.82 193.049 164.82 190.758V184.938H163.346V183.922L164.928 183.082L165.709 180.797H167.125V183.199H170.201V184.938H167.125V190.719C167.125 191.272 167.262 191.682 167.535 191.949C167.815 192.21 168.18 192.34 168.629 192.34ZM174.459 189.664H172.76L172.252 179.723H174.957L174.459 189.664ZM172.135 192.779C172.135 192.298 172.262 191.933 172.516 191.686C172.77 191.432 173.131 191.305 173.6 191.305C174.062 191.305 174.417 191.435 174.664 191.695C174.911 191.956 175.035 192.317 175.035 192.779C175.035 193.242 174.908 193.609 174.654 193.883C174.407 194.15 174.055 194.283 173.6 194.283C173.137 194.283 172.776 194.153 172.516 193.893C172.262 193.632 172.135 193.261 172.135 192.779Z" fill="#424E54"/>
<path d="M129.086 241H127.758V230.758H124.141V229.578H132.703V230.758H129.086V241ZM140.094 241V235.461C140.094 234.763 139.935 234.242 139.617 233.898C139.299 233.555 138.802 233.383 138.125 233.383C137.224 233.383 136.565 233.628 136.148 234.117C135.737 234.607 135.531 235.409 135.531 236.523V241H134.234V228.844H135.531V232.523C135.531 232.966 135.51 233.333 135.469 233.625H135.547C135.802 233.214 136.164 232.891 136.633 232.656C137.107 232.417 137.646 232.297 138.25 232.297C139.297 232.297 140.081 232.547 140.602 233.047C141.128 233.542 141.391 234.331 141.391 235.414V241H140.094ZM145.359 241H144.062V232.438H145.359V241ZM143.953 230.117C143.953 229.82 144.026 229.604 144.172 229.469C144.318 229.328 144.5 229.258 144.719 229.258C144.927 229.258 145.107 229.328 145.258 229.469C145.409 229.609 145.484 229.826 145.484 230.117C145.484 230.409 145.409 230.628 145.258 230.773C145.107 230.914 144.927 230.984 144.719 230.984C144.5 230.984 144.318 230.914 144.172 230.773C144.026 230.628 143.953 230.409 143.953 230.117ZM153.633 238.664C153.633 239.461 153.336 240.076 152.742 240.508C152.148 240.94 151.315 241.156 150.242 241.156C149.107 241.156 148.221 240.977 147.586 240.617V239.414C147.997 239.622 148.438 239.786 148.906 239.906C149.38 240.026 149.836 240.086 150.273 240.086C150.951 240.086 151.471 239.979 151.836 239.766C152.201 239.547 152.383 239.216 152.383 238.773C152.383 238.44 152.237 238.156 151.945 237.922C151.659 237.682 151.096 237.401 150.258 237.078C149.461 236.781 148.893 236.523 148.555 236.305C148.221 236.081 147.971 235.828 147.805 235.547C147.643 235.266 147.562 234.93 147.562 234.539C147.562 233.841 147.846 233.292 148.414 232.891C148.982 232.484 149.76 232.281 150.75 232.281C151.672 232.281 152.573 232.469 153.453 232.844L152.992 233.898C152.133 233.544 151.354 233.367 150.656 233.367C150.042 233.367 149.578 233.464 149.266 233.656C148.953 233.849 148.797 234.115 148.797 234.453C148.797 234.682 148.854 234.878 148.969 235.039C149.089 235.201 149.279 235.354 149.539 235.5C149.799 235.646 150.299 235.857 151.039 236.133C152.055 236.503 152.74 236.875 153.094 237.25C153.453 237.625 153.633 238.096 153.633 238.664ZM165.734 239.852H165.664C165.065 240.721 164.169 241.156 162.977 241.156C161.857 241.156 160.984 240.773 160.359 240.008C159.74 239.242 159.43 238.154 159.43 236.742C159.43 235.331 159.742 234.234 160.367 233.453C160.992 232.672 161.862 232.281 162.977 232.281C164.138 232.281 165.029 232.703 165.648 233.547H165.75L165.695 232.93L165.664 232.328V228.844H166.961V241H165.906L165.734 239.852ZM163.141 240.07C164.026 240.07 164.667 239.831 165.062 239.352C165.464 238.867 165.664 238.089 165.664 237.016V236.742C165.664 235.529 165.461 234.664 165.055 234.148C164.654 233.628 164.01 233.367 163.125 233.367C162.365 233.367 161.781 233.664 161.375 234.258C160.974 234.846 160.773 235.68 160.773 236.758C160.773 237.852 160.974 238.677 161.375 239.234C161.776 239.792 162.365 240.07 163.141 240.07ZM174.984 241L174.727 239.781H174.664C174.237 240.318 173.81 240.682 173.383 240.875C172.961 241.062 172.432 241.156 171.797 241.156C170.948 241.156 170.281 240.938 169.797 240.5C169.318 240.062 169.078 239.44 169.078 238.633C169.078 236.904 170.461 235.997 173.227 235.914L174.68 235.867V235.336C174.68 234.664 174.534 234.169 174.242 233.852C173.956 233.529 173.495 233.367 172.859 233.367C172.146 233.367 171.339 233.586 170.438 234.023L170.039 233.031C170.461 232.802 170.922 232.622 171.422 232.492C171.927 232.362 172.432 232.297 172.938 232.297C173.958 232.297 174.714 232.523 175.203 232.977C175.698 233.43 175.945 234.156 175.945 235.156V241H174.984ZM172.055 240.086C172.862 240.086 173.495 239.865 173.953 239.422C174.417 238.979 174.648 238.359 174.648 237.562V236.789L173.352 236.844C172.32 236.88 171.576 237.042 171.117 237.328C170.664 237.609 170.438 238.049 170.438 238.648C170.438 239.117 170.578 239.474 170.859 239.719C171.146 239.964 171.544 240.086 172.055 240.086ZM181.391 240.086C181.62 240.086 181.841 240.07 182.055 240.039C182.268 240.003 182.438 239.966 182.562 239.93V240.922C182.422 240.99 182.214 241.044 181.938 241.086C181.667 241.133 181.422 241.156 181.203 241.156C179.547 241.156 178.719 240.284 178.719 238.539V233.445H177.492V232.82L178.719 232.281L179.266 230.453H180.016V232.438H182.5V233.445H180.016V238.484C180.016 239 180.138 239.396 180.383 239.672C180.628 239.948 180.964 240.086 181.391 240.086ZM189.547 241L189.289 239.781H189.227C188.799 240.318 188.372 240.682 187.945 240.875C187.523 241.062 186.995 241.156 186.359 241.156C185.51 241.156 184.844 240.938 184.359 240.5C183.88 240.062 183.641 239.44 183.641 238.633C183.641 236.904 185.023 235.997 187.789 235.914L189.242 235.867V235.336C189.242 234.664 189.096 234.169 188.805 233.852C188.518 233.529 188.057 233.367 187.422 233.367C186.708 233.367 185.901 233.586 185 234.023L184.602 233.031C185.023 232.802 185.484 232.622 185.984 232.492C186.49 232.362 186.995 232.297 187.5 232.297C188.521 232.297 189.276 232.523 189.766 232.977C190.26 233.43 190.508 234.156 190.508 235.156V241H189.547ZM186.617 240.086C187.424 240.086 188.057 239.865 188.516 239.422C188.979 238.979 189.211 238.359 189.211 237.562V236.789L187.914 236.844C186.883 236.88 186.138 237.042 185.68 237.328C185.227 237.609 185 238.049 185 238.648C185 239.117 185.141 239.474 185.422 239.719C185.708 239.964 186.107 240.086 186.617 240.086ZM204.336 241L202.766 235.977C202.667 235.669 202.482 234.971 202.211 233.883H202.148C201.94 234.794 201.758 235.497 201.602 235.992L199.984 241H198.484L196.148 232.438H197.508C198.06 234.589 198.479 236.227 198.766 237.352C199.057 238.477 199.224 239.234 199.266 239.625H199.328C199.385 239.328 199.477 238.945 199.602 238.477C199.732 238.003 199.844 237.628 199.938 237.352L201.508 232.438H202.914L204.445 237.352C204.737 238.247 204.935 239 205.039 239.609H205.102C205.122 239.422 205.177 239.133 205.266 238.742C205.359 238.352 205.904 236.25 206.898 232.438H208.242L205.875 241H204.336ZM211.094 241H209.797V232.438H211.094V241ZM209.688 230.117C209.688 229.82 209.76 229.604 209.906 229.469C210.052 229.328 210.234 229.258 210.453 229.258C210.661 229.258 210.841 229.328 210.992 229.469C211.143 229.609 211.219 229.826 211.219 230.117C211.219 230.409 211.143 230.628 210.992 230.773C210.841 230.914 210.661 230.984 210.453 230.984C210.234 230.984 210.052 230.914 209.906 230.773C209.76 230.628 209.688 230.409 209.688 230.117ZM215.141 241H213.844V228.844H215.141V241ZM219.188 241H217.891V228.844H219.188V241ZM230.078 232.297C231.203 232.297 232.076 232.682 232.695 233.453C233.32 234.219 233.633 235.305 233.633 236.711C233.633 238.117 233.318 239.211 232.688 239.992C232.062 240.768 231.193 241.156 230.078 241.156C229.521 241.156 229.01 241.055 228.547 240.852C228.089 240.643 227.703 240.326 227.391 239.898H227.297L227.023 241H226.094V228.844H227.391V231.797C227.391 232.458 227.37 233.052 227.328 233.578H227.391C227.995 232.724 228.891 232.297 230.078 232.297ZM229.891 233.383C229.005 233.383 228.367 233.638 227.977 234.148C227.586 234.654 227.391 235.508 227.391 236.711C227.391 237.914 227.591 238.776 227.992 239.297C228.393 239.812 229.036 240.07 229.922 240.07C230.719 240.07 231.312 239.781 231.703 239.203C232.094 238.62 232.289 237.784 232.289 236.695C232.289 235.581 232.094 234.75 231.703 234.203C231.312 233.656 230.708 233.383 229.891 233.383ZM239.523 241.156C238.258 241.156 237.258 240.771 236.523 240C235.794 239.229 235.43 238.159 235.43 236.789C235.43 235.409 235.768 234.312 236.445 233.5C237.128 232.688 238.042 232.281 239.188 232.281C240.26 232.281 241.109 232.635 241.734 233.344C242.359 234.047 242.672 234.977 242.672 236.133V236.953H236.773C236.799 237.958 237.052 238.721 237.531 239.242C238.016 239.763 238.695 240.023 239.57 240.023C240.492 240.023 241.404 239.831 242.305 239.445V240.602C241.846 240.799 241.411 240.94 241 241.023C240.594 241.112 240.102 241.156 239.523 241.156ZM239.172 233.367C238.484 233.367 237.935 233.591 237.523 234.039C237.117 234.487 236.878 235.107 236.805 235.898H241.281C241.281 235.081 241.099 234.456 240.734 234.023C240.37 233.586 239.849 233.367 239.172 233.367ZM253.031 241.156C252.474 241.156 251.964 241.055 251.5 240.852C251.042 240.643 250.656 240.326 250.344 239.898H250.25C250.312 240.398 250.344 240.872 250.344 241.32V244.844H249.047V232.438H250.102L250.281 233.609H250.344C250.677 233.141 251.065 232.802 251.508 232.594C251.951 232.385 252.458 232.281 253.031 232.281C254.167 232.281 255.042 232.669 255.656 233.445C256.276 234.221 256.586 235.31 256.586 236.711C256.586 238.117 256.271 239.211 255.641 239.992C255.016 240.768 254.146 241.156 253.031 241.156ZM252.844 233.383C251.969 233.383 251.336 233.625 250.945 234.109C250.555 234.594 250.354 235.365 250.344 236.422V236.711C250.344 237.914 250.544 238.776 250.945 239.297C251.346 239.812 251.99 240.07 252.875 240.07C253.615 240.07 254.193 239.771 254.609 239.172C255.031 238.573 255.242 237.747 255.242 236.695C255.242 235.628 255.031 234.81 254.609 234.242C254.193 233.669 253.604 233.383 252.844 233.383ZM262.477 241.156C261.211 241.156 260.211 240.771 259.477 240C258.747 239.229 258.383 238.159 258.383 236.789C258.383 235.409 258.721 234.312 259.398 233.5C260.081 232.688 260.995 232.281 262.141 232.281C263.214 232.281 264.062 232.635 264.688 233.344C265.312 234.047 265.625 234.977 265.625 236.133V236.953H259.727C259.753 237.958 260.005 238.721 260.484 239.242C260.969 239.763 261.648 240.023 262.523 240.023C263.445 240.023 264.357 239.831 265.258 239.445V240.602C264.799 240.799 264.365 240.94 263.953 241.023C263.547 241.112 263.055 241.156 262.477 241.156ZM262.125 233.367C261.438 233.367 260.888 233.591 260.477 234.039C260.07 234.487 259.831 235.107 259.758 235.898H264.234C264.234 235.081 264.052 234.456 263.688 234.023C263.323 233.586 262.802 233.367 262.125 233.367ZM271.75 232.281C272.13 232.281 272.471 232.312 272.773 232.375L272.594 233.578C272.24 233.5 271.927 233.461 271.656 233.461C270.964 233.461 270.37 233.742 269.875 234.305C269.385 234.867 269.141 235.568 269.141 236.406V241H267.844V232.438H268.914L269.062 234.023H269.125C269.443 233.466 269.826 233.036 270.273 232.734C270.721 232.432 271.214 232.281 271.75 232.281ZM285.289 241V235.43C285.289 234.747 285.143 234.237 284.852 233.898C284.56 233.555 284.107 233.383 283.492 233.383C282.685 233.383 282.089 233.615 281.703 234.078C281.318 234.542 281.125 235.255 281.125 236.219V241H279.828V235.43C279.828 234.747 279.682 234.237 279.391 233.898C279.099 233.555 278.643 233.383 278.023 233.383C277.211 233.383 276.615 233.628 276.234 234.117C275.859 234.602 275.672 235.398 275.672 236.508V241H274.375V232.438H275.43L275.641 233.609H275.703C275.948 233.193 276.292 232.867 276.734 232.633C277.182 232.398 277.682 232.281 278.234 232.281C279.573 232.281 280.448 232.766 280.859 233.734H280.922C281.177 233.286 281.547 232.932 282.031 232.672C282.516 232.411 283.068 232.281 283.688 232.281C284.656 232.281 285.38 232.531 285.859 233.031C286.344 233.526 286.586 234.32 286.586 235.414V241H285.289ZM294.531 241L294.273 239.781H294.211C293.784 240.318 293.357 240.682 292.93 240.875C292.508 241.062 291.979 241.156 291.344 241.156C290.495 241.156 289.828 240.938 289.344 240.5C288.865 240.062 288.625 239.44 288.625 238.633C288.625 236.904 290.008 235.997 292.773 235.914L294.227 235.867V235.336C294.227 234.664 294.081 234.169 293.789 233.852C293.503 233.529 293.042 233.367 292.406 233.367C291.693 233.367 290.885 233.586 289.984 234.023L289.586 233.031C290.008 232.802 290.469 232.622 290.969 232.492C291.474 232.362 291.979 232.297 292.484 232.297C293.505 232.297 294.26 232.523 294.75 232.977C295.245 233.43 295.492 234.156 295.492 235.156V241H294.531ZM291.602 240.086C292.409 240.086 293.042 239.865 293.5 239.422C293.964 238.979 294.195 238.359 294.195 237.562V236.789L292.898 236.844C291.867 236.88 291.122 237.042 290.664 237.328C290.211 237.609 289.984 238.049 289.984 238.648C289.984 239.117 290.125 239.474 290.406 239.719C290.693 239.964 291.091 240.086 291.602 240.086ZM304.031 241V235.461C304.031 234.763 303.872 234.242 303.555 233.898C303.237 233.555 302.74 233.383 302.062 233.383C301.167 233.383 300.51 233.625 300.094 234.109C299.677 234.594 299.469 235.393 299.469 236.508V241H298.172V232.438H299.227L299.438 233.609H299.5C299.766 233.188 300.138 232.862 300.617 232.633C301.096 232.398 301.63 232.281 302.219 232.281C303.25 232.281 304.026 232.531 304.547 233.031C305.068 233.526 305.328 234.32 305.328 235.414V241H304.031ZM311.617 241.156C310.352 241.156 309.352 240.771 308.617 240C307.888 239.229 307.523 238.159 307.523 236.789C307.523 235.409 307.862 234.312 308.539 233.5C309.221 232.688 310.135 232.281 311.281 232.281C312.354 232.281 313.203 232.635 313.828 233.344C314.453 234.047 314.766 234.977 314.766 236.133V236.953H308.867C308.893 237.958 309.146 238.721 309.625 239.242C310.109 239.763 310.789 240.023 311.664 240.023C312.586 240.023 313.497 239.831 314.398 239.445V240.602C313.94 240.799 313.505 240.94 313.094 241.023C312.688 241.112 312.195 241.156 311.617 241.156ZM311.266 233.367C310.578 233.367 310.029 233.591 309.617 234.039C309.211 234.487 308.971 235.107 308.898 235.898H313.375C313.375 235.081 313.193 234.456 312.828 234.023C312.464 233.586 311.943 233.367 311.266 233.367ZM322.844 241V235.461C322.844 234.763 322.685 234.242 322.367 233.898C322.049 233.555 321.552 233.383 320.875 233.383C319.979 233.383 319.323 233.625 318.906 234.109C318.49 234.594 318.281 235.393 318.281 236.508V241H316.984V232.438H318.039L318.25 233.609H318.312C318.578 233.188 318.951 232.862 319.43 232.633C319.909 232.398 320.443 232.281 321.031 232.281C322.062 232.281 322.839 232.531 323.359 233.031C323.88 233.526 324.141 234.32 324.141 235.414V241H322.844ZM329.578 240.086C329.807 240.086 330.029 240.07 330.242 240.039C330.456 240.003 330.625 239.966 330.75 239.93V240.922C330.609 240.99 330.401 241.044 330.125 241.086C329.854 241.133 329.609 241.156 329.391 241.156C327.734 241.156 326.906 240.284 326.906 238.539V233.445H325.68V232.82L326.906 232.281L327.453 230.453H328.203V232.438H330.688V233.445H328.203V238.484C328.203 239 328.326 239.396 328.57 239.672C328.815 239.948 329.151 240.086 329.578 240.086ZM333.766 241H332.469V228.844H333.766V241ZM335.156 232.438H336.547L338.422 237.32C338.833 238.435 339.089 239.24 339.188 239.734H339.25C339.318 239.469 339.458 239.016 339.672 238.375C339.891 237.729 340.599 235.75 341.797 232.438H343.188L339.508 242.188C339.143 243.151 338.716 243.833 338.227 244.234C337.742 244.641 337.146 244.844 336.438 244.844C336.042 244.844 335.651 244.799 335.266 244.711V243.672C335.552 243.734 335.872 243.766 336.227 243.766C337.117 243.766 337.753 243.266 338.133 242.266L338.609 241.047L335.156 232.438ZM128.992 263.156C127.727 263.156 126.727 262.771 125.992 262C125.263 261.229 124.898 260.159 124.898 258.789C124.898 257.409 125.237 256.312 125.914 255.5C126.596 254.688 127.51 254.281 128.656 254.281C129.729 254.281 130.578 254.635 131.203 255.344C131.828 256.047 132.141 256.977 132.141 258.133V258.953H126.242C126.268 259.958 126.521 260.721 127 261.242C127.484 261.763 128.164 262.023 129.039 262.023C129.961 262.023 130.872 261.831 131.773 261.445V262.602C131.315 262.799 130.88 262.94 130.469 263.023C130.062 263.112 129.57 263.156 128.992 263.156ZM128.641 255.367C127.953 255.367 127.404 255.591 126.992 256.039C126.586 256.487 126.346 257.107 126.273 257.898H130.75C130.75 257.081 130.568 256.456 130.203 256.023C129.839 255.586 129.318 255.367 128.641 255.367ZM138.266 254.281C138.646 254.281 138.987 254.312 139.289 254.375L139.109 255.578C138.755 255.5 138.443 255.461 138.172 255.461C137.479 255.461 136.885 255.742 136.391 256.305C135.901 256.867 135.656 257.568 135.656 258.406V263H134.359V254.438H135.43L135.578 256.023H135.641C135.958 255.466 136.341 255.036 136.789 254.734C137.237 254.432 137.729 254.281 138.266 254.281ZM146.156 263L145.898 261.781H145.836C145.409 262.318 144.982 262.682 144.555 262.875C144.133 263.062 143.604 263.156 142.969 263.156C142.12 263.156 141.453 262.938 140.969 262.5C140.49 262.062 140.25 261.44 140.25 260.633C140.25 258.904 141.633 257.997 144.398 257.914L145.852 257.867V257.336C145.852 256.664 145.706 256.169 145.414 255.852C145.128 255.529 144.667 255.367 144.031 255.367C143.318 255.367 142.51 255.586 141.609 256.023L141.211 255.031C141.633 254.802 142.094 254.622 142.594 254.492C143.099 254.362 143.604 254.297 144.109 254.297C145.13 254.297 145.885 254.523 146.375 254.977C146.87 255.43 147.117 256.156 147.117 257.156V263H146.156ZM143.227 262.086C144.034 262.086 144.667 261.865 145.125 261.422C145.589 260.979 145.82 260.359 145.82 259.562V258.789L144.523 258.844C143.492 258.88 142.747 259.042 142.289 259.328C141.836 259.609 141.609 260.049 141.609 260.648C141.609 261.117 141.75 261.474 142.031 261.719C142.318 261.964 142.716 262.086 143.227 262.086ZM155.32 260.664C155.32 261.461 155.023 262.076 154.43 262.508C153.836 262.94 153.003 263.156 151.93 263.156C150.794 263.156 149.909 262.977 149.273 262.617V261.414C149.685 261.622 150.125 261.786 150.594 261.906C151.068 262.026 151.523 262.086 151.961 262.086C152.638 262.086 153.159 261.979 153.523 261.766C153.888 261.547 154.07 261.216 154.07 260.773C154.07 260.44 153.924 260.156 153.633 259.922C153.346 259.682 152.784 259.401 151.945 259.078C151.148 258.781 150.581 258.523 150.242 258.305C149.909 258.081 149.659 257.828 149.492 257.547C149.331 257.266 149.25 256.93 149.25 256.539C149.25 255.841 149.534 255.292 150.102 254.891C150.669 254.484 151.448 254.281 152.438 254.281C153.359 254.281 154.26 254.469 155.141 254.844L154.68 255.898C153.82 255.544 153.042 255.367 152.344 255.367C151.729 255.367 151.266 255.464 150.953 255.656C150.641 255.849 150.484 256.115 150.484 256.453C150.484 256.682 150.542 256.878 150.656 257.039C150.776 257.201 150.966 257.354 151.227 257.5C151.487 257.646 151.987 257.857 152.727 258.133C153.742 258.503 154.427 258.875 154.781 259.25C155.141 259.625 155.32 260.096 155.32 260.664ZM161.055 263.156C159.789 263.156 158.789 262.771 158.055 262C157.326 261.229 156.961 260.159 156.961 258.789C156.961 257.409 157.299 256.312 157.977 255.5C158.659 254.688 159.573 254.281 160.719 254.281C161.792 254.281 162.641 254.635 163.266 255.344C163.891 256.047 164.203 256.977 164.203 258.133V258.953H158.305C158.331 259.958 158.583 260.721 159.062 261.242C159.547 261.763 160.227 262.023 161.102 262.023C162.023 262.023 162.935 261.831 163.836 261.445V262.602C163.378 262.799 162.943 262.94 162.531 263.023C162.125 263.112 161.633 263.156 161.055 263.156ZM160.703 255.367C160.016 255.367 159.466 255.591 159.055 256.039C158.648 256.487 158.409 257.107 158.336 257.898H162.812C162.812 257.081 162.63 256.456 162.266 256.023C161.901 255.586 161.38 255.367 160.703 255.367ZM172.25 261.852H172.18C171.581 262.721 170.685 263.156 169.492 263.156C168.372 263.156 167.5 262.773 166.875 262.008C166.255 261.242 165.945 260.154 165.945 258.742C165.945 257.331 166.258 256.234 166.883 255.453C167.508 254.672 168.378 254.281 169.492 254.281C170.654 254.281 171.544 254.703 172.164 255.547H172.266L172.211 254.93L172.18 254.328V250.844H173.477V263H172.422L172.25 261.852ZM169.656 262.07C170.542 262.07 171.182 261.831 171.578 261.352C171.979 260.867 172.18 260.089 172.18 259.016V258.742C172.18 257.529 171.977 256.664 171.57 256.148C171.169 255.628 170.526 255.367 169.641 255.367C168.88 255.367 168.297 255.664 167.891 256.258C167.49 256.846 167.289 257.68 167.289 258.758C167.289 259.852 167.49 260.677 167.891 261.234C168.292 261.792 168.88 262.07 169.656 262.07ZM177.406 259.852H176.586L176.188 251.578H177.805L177.406 259.852ZM176.047 262.172C176.047 261.464 176.359 261.109 176.984 261.109C177.286 261.109 177.518 261.201 177.68 261.383C177.846 261.565 177.93 261.828 177.93 262.172C177.93 262.505 177.846 262.766 177.68 262.953C177.513 263.135 177.281 263.227 176.984 263.227C176.714 263.227 176.49 263.146 176.312 262.984C176.135 262.818 176.047 262.547 176.047 262.172ZM181.688 259.852H180.867L180.469 251.578H182.086L181.688 259.852ZM180.328 262.172C180.328 261.464 180.641 261.109 181.266 261.109C181.568 261.109 181.799 261.201 181.961 261.383C182.128 261.565 182.211 261.828 182.211 262.172C182.211 262.505 182.128 262.766 181.961 262.953C181.794 263.135 181.562 263.227 181.266 263.227C180.995 263.227 180.771 263.146 180.594 262.984C180.417 262.818 180.328 262.547 180.328 262.172ZM185.969 259.852H185.148L184.75 251.578H186.367L185.969 259.852ZM184.609 262.172C184.609 261.464 184.922 261.109 185.547 261.109C185.849 261.109 186.081 261.201 186.242 261.383C186.409 261.565 186.492 261.828 186.492 262.172C186.492 262.505 186.409 262.766 186.242 262.953C186.076 263.135 185.844 263.227 185.547 263.227C185.276 263.227 185.052 263.146 184.875 262.984C184.698 262.818 184.609 262.547 184.609 262.172Z" fill="#424E54"/>
<path d="M289.646 315.5H287.643L282.728 307.536H282.673L282.707 307.98C282.771 308.828 282.803 309.603 282.803 310.305V315.5H281.319V305.506H283.302L288.203 313.429H288.244C288.235 313.324 288.217 312.943 288.189 312.287C288.162 311.626 288.148 311.111 288.148 310.742V305.506H289.646V315.5ZM298.819 311.706C298.819 312.941 298.503 313.905 297.869 314.598C297.236 315.29 296.354 315.637 295.224 315.637C294.517 315.637 293.893 315.477 293.351 315.158C292.808 314.839 292.391 314.381 292.1 313.784C291.808 313.187 291.662 312.494 291.662 311.706C291.662 310.48 291.977 309.523 292.605 308.835C293.234 308.147 294.121 307.803 295.265 307.803C296.358 307.803 297.224 308.156 297.862 308.862C298.5 309.564 298.819 310.512 298.819 311.706ZM293.316 311.706C293.316 313.451 293.961 314.324 295.251 314.324C296.527 314.324 297.165 313.451 297.165 311.706C297.165 309.979 296.522 309.115 295.237 309.115C294.563 309.115 294.073 309.339 293.768 309.785C293.467 310.232 293.316 310.872 293.316 311.706Z" fill="#007BC1"/>
<rect x="264.5" y="292.5" width="51" height="35" rx="3.5" stroke="#007BC1"/>
<path d="M348.143 310.065L350.508 305.506H352.285L348.956 311.624V315.5H347.315V311.679L344 305.506H345.777L348.143 310.065ZM356.735 315.637C355.56 315.637 354.639 315.295 353.974 314.611C353.313 313.923 352.982 312.978 352.982 311.774C352.982 310.539 353.29 309.569 353.905 308.862C354.521 308.156 355.366 307.803 356.441 307.803C357.439 307.803 358.228 308.106 358.807 308.712C359.385 309.318 359.675 310.152 359.675 311.214V312.082H354.637C354.66 312.816 354.858 313.381 355.231 313.777C355.605 314.169 356.132 314.365 356.811 314.365C357.257 314.365 357.672 314.324 358.055 314.242C358.442 314.156 358.857 314.014 359.299 313.818V315.124C358.907 315.311 358.51 315.443 358.109 315.521C357.708 315.598 357.25 315.637 356.735 315.637ZM356.441 309.02C355.931 309.02 355.521 309.181 355.211 309.505C354.906 309.828 354.723 310.3 354.664 310.92H358.096C358.087 310.296 357.936 309.824 357.645 309.505C357.353 309.181 356.952 309.02 356.441 309.02ZM366.579 313.347C366.579 314.085 366.31 314.652 365.772 315.049C365.235 315.441 364.465 315.637 363.462 315.637C362.455 315.637 361.646 315.484 361.035 315.179V313.791C361.924 314.201 362.751 314.406 363.517 314.406C364.506 314.406 365 314.108 365 313.511C365 313.319 364.945 313.16 364.836 313.032C364.727 312.905 364.547 312.772 364.296 312.636C364.045 312.499 363.697 312.344 363.25 312.171C362.38 311.834 361.789 311.496 361.479 311.159C361.174 310.822 361.021 310.384 361.021 309.847C361.021 309.2 361.281 308.698 361.801 308.343C362.325 307.983 363.036 307.803 363.934 307.803C364.822 307.803 365.663 307.983 366.456 308.343L365.937 309.553C365.121 309.215 364.435 309.047 363.879 309.047C363.031 309.047 362.607 309.288 362.607 309.771C362.607 310.008 362.717 310.209 362.936 310.373C363.159 310.537 363.642 310.763 364.385 311.05C365.009 311.291 365.463 311.512 365.745 311.713C366.028 311.913 366.237 312.146 366.374 312.41C366.511 312.67 366.579 312.982 366.579 313.347Z" fill="#CA3C3D"/>
<rect x="328.5" y="292.5" width="55" height="35" rx="3.5" stroke="#CA3C3D"/>
</g>
</g>
<defs>
<filter id="filter0_ddd_5174_239805" x="74" y="136" width="352" height="239" filterUnits="userSpaceOnUse" color-interpolation-filters="sRGB">
<feFlood flood-opacity="0" result="BackgroundImageFix"/>
<feColorMatrix in="SourceAlpha" type="matrix" values="0 0 0 0 0 0 0 0 0 0 0 0 0 0 0 0 0 0 127 0" result="hardAlpha"/>
<feMorphology radius="4" operator="dilate" in="SourceAlpha" result="effect1_dropShadow_5174_239805"/>
<feOffset dy="5"/>
<feGaussianBlur stdDeviation="11"/>
<feColorMatrix type="matrix" values="0 0 0 0 0 0 0 0 0 0 0 0 0 0 0 0 0 0 0.12 0"/>
<feBlend mode="normal" in2="BackgroundImageFix" result="effect1_dropShadow_5174_239805"/>
<feColorMatrix in="SourceAlpha" type="matrix" values="0 0 0 0 0 0 0 0 0 0 0 0 0 0 0 0 0 0 127 0" result="hardAlpha"/>
<feMorphology radius="2" operator="dilate" in="SourceAlpha" result="effect2_dropShadow_5174_239805"/>
<feOffset dy="12"/>
<feGaussianBlur stdDeviation="8.5"/>
<feColorMatrix type="matrix" values="0 0 0 0 0.258824 0 0 0 0 0.305882 0 0 0 0 0.329412 0 0 0 0.14 0"/>
<feBlend mode="normal" in2="effect1_dropShadow_5174_239805" result="effect2_dropShadow_5174_239805"/>
<feColorMatrix in="SourceAlpha" type="matrix" values="0 0 0 0 0 0 0 0 0 0 0 0 0 0 0 0 0 0 127 0" result="hardAlpha"/>
<feMorphology radius="4" operator="erode" in="SourceAlpha" result="effect3_dropShadow_5174_239805"/>
<feOffset dy="7"/>
<feGaussianBlur stdDeviation="4"/>
<feColorMatrix type="matrix" values="0 0 0 0 0 0 0 0 0 0 0 0 0 0 0 0 0 0 0.2 0"/>
<feBlend mode="normal" in2="effect2_dropShadow_5174_239805" result="effect3_dropShadow_5174_239805"/>
<feBlend mode="normal" in="SourceGraphic" in2="effect3_dropShadow_5174_239805" result="shape"/>
</filter>
<clipPath id="clip0_5174_239805">
<rect x="100" y="157" width="300" height="187" rx="4" fill="white"/>
</clipPath>
</defs>
</svg>
