<svg width="500" height="500" viewBox="0 0 500 500" fill="none" xmlns="http://www.w3.org/2000/svg">
<rect width="500" height="500" fill="#E2E5E5"/>
<g filter="url(#filter0_ddd_5174_239782)">
<g clip-path="url(#clip0_5174_239782)">
<rect x="100" y="141" width="300" height="219" rx="4" fill="white"/>
<path d="M135.338 168.039C135.338 169.53 134.85 170.673 133.873 171.467C132.896 172.261 131.507 172.658 129.703 172.658H128.219V178H125.885V163.723H129.996C131.78 163.723 133.115 164.087 134 164.816C134.892 165.546 135.338 166.62 135.338 168.039ZM128.219 170.695H129.459C130.657 170.695 131.536 170.487 132.096 170.07C132.656 169.654 132.936 169.003 132.936 168.117C132.936 167.297 132.685 166.685 132.184 166.281C131.682 165.878 130.901 165.676 129.84 165.676H128.219V170.695ZM142.662 178.195C140.982 178.195 139.667 177.707 138.717 176.73C137.773 175.747 137.301 174.396 137.301 172.678C137.301 170.913 137.74 169.527 138.619 168.518C139.498 167.508 140.706 167.004 142.242 167.004C143.668 167.004 144.794 167.437 145.621 168.303C146.448 169.169 146.861 170.36 146.861 171.877V173.117H139.664C139.697 174.165 139.98 174.973 140.514 175.539C141.048 176.099 141.799 176.379 142.77 176.379C143.408 176.379 144 176.32 144.547 176.203C145.1 176.079 145.693 175.878 146.324 175.598V177.463C145.764 177.73 145.198 177.919 144.625 178.029C144.052 178.14 143.398 178.195 142.662 178.195ZM142.242 168.742C141.513 168.742 140.927 168.973 140.484 169.436C140.048 169.898 139.788 170.572 139.703 171.457H144.605C144.592 170.565 144.378 169.891 143.961 169.436C143.544 168.973 142.971 168.742 142.242 168.742ZM154.947 167.004C155.41 167.004 155.79 167.036 156.09 167.102L155.865 169.24C155.54 169.162 155.201 169.123 154.85 169.123C153.932 169.123 153.186 169.423 152.613 170.021C152.047 170.62 151.764 171.398 151.764 172.355V178H149.469V167.199H151.266L151.568 169.104H151.686C152.044 168.459 152.509 167.948 153.082 167.57C153.661 167.193 154.283 167.004 154.947 167.004ZM167.203 178H164.898V171.34C164.898 170.513 164.742 169.898 164.43 169.494C164.117 169.084 163.629 168.879 162.965 168.879C162.079 168.879 161.428 169.169 161.012 169.748C160.602 170.321 160.396 171.278 160.396 172.619V178H158.102V167.199H159.898L160.221 168.615H160.338C160.637 168.101 161.07 167.704 161.637 167.424C162.21 167.144 162.838 167.004 163.521 167.004C165.182 167.004 166.282 167.57 166.822 168.703H166.979C167.298 168.169 167.747 167.753 168.326 167.453C168.906 167.154 169.57 167.004 170.318 167.004C171.607 167.004 172.545 167.329 173.131 167.98C173.723 168.632 174.02 169.624 174.02 170.959V178H171.725V171.34C171.725 170.513 171.565 169.898 171.246 169.494C170.934 169.084 170.445 168.879 169.781 168.879C168.889 168.879 168.235 169.159 167.818 169.719C167.408 170.272 167.203 171.125 167.203 172.277V178ZM183.98 178L183.521 176.496H183.443C182.923 177.154 182.398 177.603 181.871 177.844C181.344 178.078 180.667 178.195 179.84 178.195C178.779 178.195 177.949 177.909 177.35 177.336C176.757 176.763 176.461 175.952 176.461 174.904C176.461 173.791 176.874 172.951 177.701 172.385C178.528 171.818 179.788 171.509 181.48 171.457L183.346 171.398V170.822C183.346 170.132 183.183 169.618 182.857 169.279C182.538 168.934 182.04 168.762 181.363 168.762C180.81 168.762 180.279 168.843 179.771 169.006C179.264 169.169 178.775 169.361 178.307 169.582L177.564 167.941C178.15 167.635 178.792 167.404 179.488 167.248C180.185 167.085 180.842 167.004 181.461 167.004C182.835 167.004 183.87 167.303 184.566 167.902C185.27 168.501 185.621 169.442 185.621 170.725V178H183.98ZM180.562 176.438C181.396 176.438 182.063 176.206 182.564 175.744C183.072 175.275 183.326 174.621 183.326 173.781V172.844L181.939 172.902C180.859 172.941 180.071 173.124 179.576 173.449C179.088 173.768 178.844 174.26 178.844 174.924C178.844 175.406 178.987 175.78 179.273 176.047C179.56 176.307 179.99 176.438 180.562 176.438ZM198.326 178H196.021V171.359C196.021 170.526 195.852 169.904 195.514 169.494C195.182 169.084 194.651 168.879 193.922 168.879C192.952 168.879 192.242 169.165 191.793 169.738C191.344 170.311 191.119 171.271 191.119 172.619V178H188.824V167.199H190.621L190.943 168.615H191.061C191.386 168.101 191.848 167.704 192.447 167.424C193.046 167.144 193.71 167.004 194.439 167.004C197.031 167.004 198.326 168.322 198.326 170.959V178ZM206.236 178.195C204.557 178.195 203.242 177.707 202.291 176.73C201.347 175.747 200.875 174.396 200.875 172.678C200.875 170.913 201.314 169.527 202.193 168.518C203.072 167.508 204.28 167.004 205.816 167.004C207.242 167.004 208.368 167.437 209.195 168.303C210.022 169.169 210.436 170.36 210.436 171.877V173.117H203.238C203.271 174.165 203.554 174.973 204.088 175.539C204.622 176.099 205.374 176.379 206.344 176.379C206.982 176.379 207.574 176.32 208.121 176.203C208.674 176.079 209.267 175.878 209.898 175.598V177.463C209.339 177.73 208.772 177.919 208.199 178.029C207.626 178.14 206.972 178.195 206.236 178.195ZM205.816 168.742C205.087 168.742 204.501 168.973 204.059 169.436C203.622 169.898 203.362 170.572 203.277 171.457H208.18C208.167 170.565 207.952 169.891 207.535 169.436C207.118 168.973 206.546 168.742 205.816 168.742ZM222.545 178H220.24V171.359C220.24 170.526 220.071 169.904 219.732 169.494C219.4 169.084 218.87 168.879 218.141 168.879C217.171 168.879 216.461 169.165 216.012 169.738C215.562 170.311 215.338 171.271 215.338 172.619V178H213.043V167.199H214.84L215.162 168.615H215.279C215.605 168.101 216.067 167.704 216.666 167.424C217.265 167.144 217.929 167.004 218.658 167.004C221.249 167.004 222.545 168.322 222.545 170.959V178ZM229.762 176.34C230.322 176.34 230.882 176.252 231.441 176.076V177.805C231.188 177.915 230.859 178.007 230.455 178.078C230.058 178.156 229.645 178.195 229.215 178.195C227.04 178.195 225.953 177.049 225.953 174.758V168.938H224.479V167.922L226.061 167.082L226.842 164.797H228.258V167.199H231.334V168.938H228.258V174.719C228.258 175.272 228.395 175.682 228.668 175.949C228.948 176.21 229.312 176.34 229.762 176.34ZM235.904 178H233.609V162.805H235.904V178ZM237.555 167.199H240.055L242.252 173.322C242.584 174.195 242.805 175.015 242.916 175.783H242.994C243.053 175.425 243.16 174.992 243.316 174.484C243.473 173.97 244.299 171.542 245.797 167.199H248.277L243.658 179.436C242.818 181.682 241.419 182.805 239.459 182.805C238.951 182.805 238.456 182.749 237.975 182.639V180.822C238.32 180.9 238.714 180.939 239.156 180.939C240.263 180.939 241.041 180.298 241.49 179.016L241.891 178L237.555 167.199ZM258.756 178.195C257.408 178.195 256.357 177.707 255.602 176.73C254.846 175.754 254.469 174.383 254.469 172.619C254.469 170.848 254.85 169.471 255.611 168.488C256.38 167.499 257.441 167.004 258.795 167.004C260.214 167.004 261.295 167.528 262.037 168.576H262.154C262.044 167.801 261.988 167.189 261.988 166.74V162.805H264.293V178H262.496L262.096 176.584H261.988C261.253 177.658 260.175 178.195 258.756 178.195ZM259.371 176.34C260.315 176.34 261.002 176.076 261.432 175.549C261.861 175.015 262.083 174.152 262.096 172.961V172.639C262.096 171.278 261.874 170.311 261.432 169.738C260.989 169.165 260.296 168.879 259.352 168.879C258.544 168.879 257.923 169.208 257.486 169.865C257.05 170.516 256.832 171.447 256.832 172.658C256.832 173.856 257.044 174.771 257.467 175.402C257.89 176.027 258.525 176.34 259.371 176.34ZM272.291 178.195C270.611 178.195 269.296 177.707 268.346 176.73C267.402 175.747 266.93 174.396 266.93 172.678C266.93 170.913 267.369 169.527 268.248 168.518C269.127 167.508 270.335 167.004 271.871 167.004C273.297 167.004 274.423 167.437 275.25 168.303C276.077 169.169 276.49 170.36 276.49 171.877V173.117H269.293C269.326 174.165 269.609 174.973 270.143 175.539C270.676 176.099 271.428 176.379 272.398 176.379C273.036 176.379 273.629 176.32 274.176 176.203C274.729 176.079 275.322 175.878 275.953 175.598V177.463C275.393 177.73 274.827 177.919 274.254 178.029C273.681 178.14 273.027 178.195 272.291 178.195ZM271.871 168.742C271.142 168.742 270.556 168.973 270.113 169.436C269.677 169.898 269.417 170.572 269.332 171.457H274.234C274.221 170.565 274.007 169.891 273.59 169.436C273.173 168.973 272.6 168.742 271.871 168.742ZM281.393 178H279.098V162.805H281.393V178ZM289.4 178.195C287.721 178.195 286.406 177.707 285.455 176.73C284.511 175.747 284.039 174.396 284.039 172.678C284.039 170.913 284.479 169.527 285.357 168.518C286.236 167.508 287.444 167.004 288.98 167.004C290.406 167.004 291.533 167.437 292.359 168.303C293.186 169.169 293.6 170.36 293.6 171.877V173.117H286.402C286.435 174.165 286.718 174.973 287.252 175.539C287.786 176.099 288.538 176.379 289.508 176.379C290.146 176.379 290.738 176.32 291.285 176.203C291.839 176.079 292.431 175.878 293.062 175.598V177.463C292.503 177.73 291.936 177.919 291.363 178.029C290.79 178.14 290.136 178.195 289.4 178.195ZM288.98 168.742C288.251 168.742 287.665 168.973 287.223 169.436C286.786 169.898 286.526 170.572 286.441 171.457H291.344C291.331 170.565 291.116 169.891 290.699 169.436C290.283 168.973 289.71 168.742 288.98 168.742ZM300.23 176.34C300.79 176.34 301.35 176.252 301.91 176.076V177.805C301.656 177.915 301.327 178.007 300.924 178.078C300.527 178.156 300.113 178.195 299.684 178.195C297.509 178.195 296.422 177.049 296.422 174.758V168.938H294.947V167.922L296.529 167.082L297.311 164.797H298.727V167.199H301.803V168.938H298.727V174.719C298.727 175.272 298.863 175.682 299.137 175.949C299.417 176.21 299.781 176.34 300.23 176.34ZM308.795 178.195C307.115 178.195 305.8 177.707 304.85 176.73C303.906 175.747 303.434 174.396 303.434 172.678C303.434 170.913 303.873 169.527 304.752 168.518C305.631 167.508 306.839 167.004 308.375 167.004C309.801 167.004 310.927 167.437 311.754 168.303C312.581 169.169 312.994 170.36 312.994 171.877V173.117H305.797C305.829 174.165 306.113 174.973 306.646 175.539C307.18 176.099 307.932 176.379 308.902 176.379C309.54 176.379 310.133 176.32 310.68 176.203C311.233 176.079 311.826 175.878 312.457 175.598V177.463C311.897 177.73 311.331 177.919 310.758 178.029C310.185 178.14 309.531 178.195 308.795 178.195ZM308.375 168.742C307.646 168.742 307.06 168.973 306.617 169.436C306.181 169.898 305.921 170.572 305.836 171.457H310.738C310.725 170.565 310.51 169.891 310.094 169.436C309.677 168.973 309.104 168.742 308.375 168.742ZM327.555 178L327.096 176.496H327.018C326.497 177.154 325.973 177.603 325.445 177.844C324.918 178.078 324.241 178.195 323.414 178.195C322.353 178.195 321.523 177.909 320.924 177.336C320.331 176.763 320.035 175.952 320.035 174.904C320.035 173.791 320.449 172.951 321.275 172.385C322.102 171.818 323.362 171.509 325.055 171.457L326.92 171.398V170.822C326.92 170.132 326.757 169.618 326.432 169.279C326.113 168.934 325.615 168.762 324.938 168.762C324.384 168.762 323.854 168.843 323.346 169.006C322.838 169.169 322.35 169.361 321.881 169.582L321.139 167.941C321.725 167.635 322.366 167.404 323.062 167.248C323.759 167.085 324.417 167.004 325.035 167.004C326.409 167.004 327.444 167.303 328.141 167.902C328.844 168.501 329.195 169.442 329.195 170.725V178H327.555ZM324.137 176.438C324.97 176.438 325.637 176.206 326.139 175.744C326.646 175.275 326.9 174.621 326.9 173.781V172.844L325.514 172.902C324.433 172.941 323.645 173.124 323.15 173.449C322.662 173.768 322.418 174.26 322.418 174.924C322.418 175.406 322.561 175.78 322.848 176.047C323.134 176.307 323.564 176.438 324.137 176.438ZM334.693 178H332.398V162.805H334.693V178ZM340.279 178H337.984V162.805H340.279V178ZM129.283 205.195C127.936 205.195 126.884 204.707 126.129 203.73C125.374 202.754 124.996 201.383 124.996 199.619C124.996 197.848 125.377 196.471 126.139 195.488C126.907 194.499 127.968 194.004 129.322 194.004C130.742 194.004 131.822 194.528 132.564 195.576H132.682C132.571 194.801 132.516 194.189 132.516 193.74V189.805H134.82V205H133.023L132.623 203.584H132.516C131.78 204.658 130.702 205.195 129.283 205.195ZM129.898 203.34C130.842 203.34 131.529 203.076 131.959 202.549C132.389 202.015 132.61 201.152 132.623 199.961V199.639C132.623 198.278 132.402 197.311 131.959 196.738C131.516 196.165 130.823 195.879 129.879 195.879C129.072 195.879 128.45 196.208 128.014 196.865C127.577 197.516 127.359 198.447 127.359 199.658C127.359 200.856 127.571 201.771 127.994 202.402C128.417 203.027 129.052 203.34 129.898 203.34ZM142.818 205.195C141.139 205.195 139.824 204.707 138.873 203.73C137.929 202.747 137.457 201.396 137.457 199.678C137.457 197.913 137.896 196.527 138.775 195.518C139.654 194.508 140.862 194.004 142.398 194.004C143.824 194.004 144.951 194.437 145.777 195.303C146.604 196.169 147.018 197.36 147.018 198.877V200.117H139.82C139.853 201.165 140.136 201.973 140.67 202.539C141.204 203.099 141.956 203.379 142.926 203.379C143.564 203.379 144.156 203.32 144.703 203.203C145.257 203.079 145.849 202.878 146.48 202.598V204.463C145.921 204.73 145.354 204.919 144.781 205.029C144.208 205.14 143.554 205.195 142.818 205.195ZM142.398 195.742C141.669 195.742 141.083 195.973 140.641 196.436C140.204 196.898 139.944 197.572 139.859 198.457H144.762C144.749 197.565 144.534 196.891 144.117 196.436C143.701 195.973 143.128 195.742 142.398 195.742ZM152.086 205L147.984 194.199H150.406L152.604 200.479C152.981 201.533 153.209 202.386 153.287 203.037H153.365C153.424 202.568 153.652 201.715 154.049 200.479L156.246 194.199H158.688L154.566 205H152.086ZM162.623 205H160.328V194.199H162.623V205ZM160.191 191.338C160.191 190.928 160.302 190.612 160.523 190.391C160.751 190.169 161.074 190.059 161.49 190.059C161.894 190.059 162.206 190.169 162.428 190.391C162.656 190.612 162.77 190.928 162.77 191.338C162.77 191.729 162.656 192.038 162.428 192.266C162.206 192.487 161.894 192.598 161.49 192.598C161.074 192.598 160.751 192.487 160.523 192.266C160.302 192.038 160.191 191.729 160.191 191.338ZM170.27 205.195C168.635 205.195 167.392 204.72 166.539 203.77C165.693 202.812 165.27 201.442 165.27 199.658C165.27 197.842 165.712 196.445 166.598 195.469C167.49 194.492 168.775 194.004 170.455 194.004C171.594 194.004 172.62 194.215 173.531 194.639L172.838 196.484C171.868 196.107 171.067 195.918 170.436 195.918C168.567 195.918 167.633 197.158 167.633 199.639C167.633 200.85 167.864 201.761 168.326 202.373C168.795 202.979 169.479 203.281 170.377 203.281C171.399 203.281 172.366 203.027 173.277 202.52V204.521C172.867 204.762 172.428 204.935 171.959 205.039C171.497 205.143 170.934 205.195 170.27 205.195ZM180.533 205.195C178.854 205.195 177.538 204.707 176.588 203.73C175.644 202.747 175.172 201.396 175.172 199.678C175.172 197.913 175.611 196.527 176.49 195.518C177.369 194.508 178.577 194.004 180.113 194.004C181.539 194.004 182.665 194.437 183.492 195.303C184.319 196.169 184.732 197.36 184.732 198.877V200.117H177.535C177.568 201.165 177.851 201.973 178.385 202.539C178.919 203.099 179.671 203.379 180.641 203.379C181.279 203.379 181.871 203.32 182.418 203.203C182.971 203.079 183.564 202.878 184.195 202.598V204.463C183.635 204.73 183.069 204.919 182.496 205.029C181.923 205.14 181.269 205.195 180.533 205.195ZM180.113 195.742C179.384 195.742 178.798 195.973 178.355 196.436C177.919 196.898 177.659 197.572 177.574 198.457H182.477C182.464 197.565 182.249 196.891 181.832 196.436C181.415 195.973 180.842 195.742 180.113 195.742ZM194.596 201.924C194.596 202.979 194.212 203.789 193.443 204.355C192.675 204.915 191.575 205.195 190.143 205.195C188.704 205.195 187.548 204.977 186.676 204.541V202.559C187.945 203.145 189.127 203.438 190.221 203.438C191.633 203.438 192.34 203.011 192.34 202.158C192.34 201.885 192.262 201.657 192.105 201.475C191.949 201.292 191.692 201.104 191.334 200.908C190.976 200.713 190.478 200.492 189.84 200.244C188.596 199.762 187.753 199.281 187.311 198.799C186.874 198.317 186.656 197.692 186.656 196.924C186.656 195.999 187.027 195.283 187.77 194.775C188.518 194.261 189.534 194.004 190.816 194.004C192.086 194.004 193.287 194.261 194.42 194.775L193.678 196.504C192.512 196.022 191.533 195.781 190.738 195.781C189.527 195.781 188.922 196.126 188.922 196.816C188.922 197.155 189.078 197.441 189.391 197.676C189.71 197.91 190.4 198.232 191.461 198.643C192.353 198.988 193.001 199.303 193.404 199.59C193.808 199.876 194.107 200.208 194.303 200.586C194.498 200.957 194.596 201.403 194.596 201.924ZM209.039 205L208.58 203.496H208.502C207.981 204.154 207.457 204.603 206.93 204.844C206.402 205.078 205.725 205.195 204.898 205.195C203.837 205.195 203.007 204.909 202.408 204.336C201.816 203.763 201.52 202.952 201.52 201.904C201.52 200.791 201.933 199.951 202.76 199.385C203.587 198.818 204.846 198.509 206.539 198.457L208.404 198.398V197.822C208.404 197.132 208.242 196.618 207.916 196.279C207.597 195.934 207.099 195.762 206.422 195.762C205.868 195.762 205.338 195.843 204.83 196.006C204.322 196.169 203.834 196.361 203.365 196.582L202.623 194.941C203.209 194.635 203.85 194.404 204.547 194.248C205.243 194.085 205.901 194.004 206.52 194.004C207.893 194.004 208.928 194.303 209.625 194.902C210.328 195.501 210.68 196.442 210.68 197.725V205H209.039ZM205.621 203.438C206.454 203.438 207.122 203.206 207.623 202.744C208.131 202.275 208.385 201.621 208.385 200.781V199.844L206.998 199.902C205.917 199.941 205.13 200.124 204.635 200.449C204.146 200.768 203.902 201.26 203.902 201.924C203.902 202.406 204.046 202.78 204.332 203.047C204.618 203.307 205.048 203.438 205.621 203.438ZM217.906 203.34C218.466 203.34 219.026 203.252 219.586 203.076V204.805C219.332 204.915 219.003 205.007 218.6 205.078C218.202 205.156 217.789 205.195 217.359 205.195C215.185 205.195 214.098 204.049 214.098 201.758V195.938H212.623V194.922L214.205 194.082L214.986 191.797H216.402V194.199H219.479V195.938H216.402V201.719C216.402 202.272 216.539 202.682 216.812 202.949C217.092 203.21 217.457 203.34 217.906 203.34ZM229.605 195.4C229.951 194.079 230.53 192.52 231.344 190.723H233.004C232.555 192.65 232.229 194.281 232.027 195.615H229.752L229.605 195.4ZM225.553 195.4C225.683 194.86 225.914 194.131 226.246 193.213C226.578 192.295 226.92 191.465 227.271 190.723H228.932C228.515 192.389 228.186 194.02 227.945 195.615H225.67L225.553 195.4ZM241.217 192.52C239.876 192.52 238.821 192.995 238.053 193.945C237.285 194.896 236.9 196.208 236.9 197.881C236.9 199.632 237.268 200.957 238.004 201.855C238.746 202.754 239.817 203.203 241.217 203.203C241.822 203.203 242.408 203.145 242.975 203.027C243.541 202.904 244.13 202.747 244.742 202.559V204.561C243.622 204.984 242.353 205.195 240.934 205.195C238.844 205.195 237.239 204.564 236.119 203.301C234.999 202.031 234.439 200.218 234.439 197.861C234.439 196.377 234.71 195.078 235.25 193.965C235.797 192.852 236.585 191.999 237.613 191.406C238.642 190.814 239.85 190.518 241.236 190.518C242.695 190.518 244.042 190.824 245.279 191.436L244.439 193.379C243.958 193.151 243.447 192.952 242.906 192.783C242.372 192.607 241.809 192.52 241.217 192.52ZM257.076 205H254.771V198.359C254.771 197.526 254.602 196.904 254.264 196.494C253.932 196.084 253.401 195.879 252.672 195.879C251.708 195.879 250.999 196.169 250.543 196.748C250.094 197.321 249.869 198.285 249.869 199.639V205H247.574V189.805H249.869V193.662C249.869 194.281 249.83 194.941 249.752 195.645H249.898C250.211 195.124 250.644 194.72 251.197 194.434C251.757 194.147 252.408 194.004 253.15 194.004C255.768 194.004 257.076 195.322 257.076 197.959V205ZM264.986 205.195C263.307 205.195 261.992 204.707 261.041 203.73C260.097 202.747 259.625 201.396 259.625 199.678C259.625 197.913 260.064 196.527 260.943 195.518C261.822 194.508 263.03 194.004 264.566 194.004C265.992 194.004 267.118 194.437 267.945 195.303C268.772 196.169 269.186 197.36 269.186 198.877V200.117H261.988C262.021 201.165 262.304 201.973 262.838 202.539C263.372 203.099 264.124 203.379 265.094 203.379C265.732 203.379 266.324 203.32 266.871 203.203C267.424 203.079 268.017 202.878 268.648 202.598V204.463C268.089 204.73 267.522 204.919 266.949 205.029C266.376 205.14 265.722 205.195 264.986 205.195ZM264.566 195.742C263.837 195.742 263.251 195.973 262.809 196.436C262.372 196.898 262.112 197.572 262.027 198.457H266.93C266.917 197.565 266.702 196.891 266.285 196.436C265.868 195.973 265.296 195.742 264.566 195.742ZM277.271 194.004C277.734 194.004 278.115 194.036 278.414 194.102L278.189 196.24C277.864 196.162 277.525 196.123 277.174 196.123C276.256 196.123 275.51 196.423 274.938 197.021C274.371 197.62 274.088 198.398 274.088 199.355V205H271.793V194.199H273.59L273.893 196.104H274.01C274.368 195.459 274.833 194.948 275.406 194.57C275.986 194.193 276.607 194.004 277.271 194.004ZM285.904 194.004C286.367 194.004 286.747 194.036 287.047 194.102L286.822 196.24C286.497 196.162 286.158 196.123 285.807 196.123C284.889 196.123 284.143 196.423 283.57 197.021C283.004 197.62 282.721 198.398 282.721 199.355V205H280.426V194.199H282.223L282.525 196.104H282.643C283.001 195.459 283.466 194.948 284.039 194.57C284.618 194.193 285.24 194.004 285.904 194.004ZM291.354 205H289.059V194.199H291.354V205ZM288.922 191.338C288.922 190.928 289.033 190.612 289.254 190.391C289.482 190.169 289.804 190.059 290.221 190.059C290.624 190.059 290.937 190.169 291.158 190.391C291.386 190.612 291.5 190.928 291.5 191.338C291.5 191.729 291.386 192.038 291.158 192.266C290.937 192.487 290.624 192.598 290.221 192.598C289.804 192.598 289.482 192.487 289.254 192.266C289.033 192.038 288.922 191.729 288.922 191.338ZM304.146 205H301.842V198.359C301.842 197.526 301.673 196.904 301.334 196.494C301.002 196.084 300.471 195.879 299.742 195.879C298.772 195.879 298.062 196.165 297.613 196.738C297.164 197.311 296.939 198.271 296.939 199.619V205H294.645V194.199H296.441L296.764 195.615H296.881C297.206 195.101 297.669 194.704 298.268 194.424C298.867 194.144 299.531 194.004 300.26 194.004C302.851 194.004 304.146 195.322 304.146 197.959V205ZM316.461 194.199V195.459L314.615 195.801C314.785 196.029 314.924 196.309 315.035 196.641C315.146 196.973 315.201 197.324 315.201 197.695C315.201 198.809 314.817 199.684 314.049 200.322C313.281 200.96 312.223 201.279 310.875 201.279C310.53 201.279 310.217 201.253 309.938 201.201C309.443 201.507 309.195 201.865 309.195 202.275C309.195 202.523 309.309 202.708 309.537 202.832C309.771 202.956 310.198 203.018 310.816 203.018H312.701C313.893 203.018 314.798 203.271 315.416 203.779C316.035 204.287 316.344 205.02 316.344 205.977C316.344 207.201 315.839 208.145 314.83 208.809C313.821 209.473 312.363 209.805 310.455 209.805C308.984 209.805 307.861 209.544 307.086 209.023C306.311 208.503 305.924 207.76 305.924 206.797C305.924 206.133 306.132 205.573 306.549 205.117C306.972 204.668 307.561 204.355 308.316 204.18C308.01 204.049 307.757 203.841 307.555 203.555C307.359 203.262 307.262 202.956 307.262 202.637C307.262 202.233 307.376 201.891 307.604 201.611C307.831 201.331 308.17 201.055 308.619 200.781C308.059 200.54 307.604 200.15 307.252 199.609C306.907 199.062 306.734 198.424 306.734 197.695C306.734 196.523 307.102 195.615 307.838 194.971C308.58 194.326 309.635 194.004 311.002 194.004C311.308 194.004 311.627 194.027 311.959 194.072C312.298 194.111 312.551 194.154 312.721 194.199H316.461ZM307.975 206.68C307.975 207.174 308.196 207.555 308.639 207.822C309.088 208.089 309.716 208.223 310.523 208.223C311.773 208.223 312.704 208.044 313.316 207.686C313.928 207.327 314.234 206.852 314.234 206.26C314.234 205.791 314.065 205.456 313.727 205.254C313.395 205.059 312.773 204.961 311.861 204.961H310.123C309.465 204.961 308.941 205.114 308.551 205.42C308.167 205.732 307.975 206.152 307.975 206.68ZM308.961 197.695C308.961 198.372 309.133 198.893 309.479 199.258C309.83 199.622 310.331 199.805 310.982 199.805C312.311 199.805 312.975 199.095 312.975 197.676C312.975 196.973 312.809 196.432 312.477 196.055C312.151 195.671 311.653 195.479 310.982 195.479C310.318 195.479 309.814 195.667 309.469 196.045C309.13 196.423 308.961 196.973 308.961 197.695ZM322.496 203.34C323.056 203.34 323.616 203.252 324.176 203.076V204.805C323.922 204.915 323.593 205.007 323.189 205.078C322.792 205.156 322.379 205.195 321.949 205.195C319.775 205.195 318.688 204.049 318.688 201.758V195.938H317.213V194.922L318.795 194.082L319.576 191.797H320.992V194.199H324.068V195.938H320.992V201.719C320.992 202.272 321.129 202.682 321.402 202.949C321.682 203.21 322.047 203.34 322.496 203.34ZM335.924 199.58C335.924 201.344 335.471 202.721 334.566 203.711C333.661 204.701 332.402 205.195 330.787 205.195C329.778 205.195 328.886 204.967 328.111 204.512C327.337 204.056 326.741 203.402 326.324 202.549C325.908 201.696 325.699 200.706 325.699 199.58C325.699 197.829 326.148 196.462 327.047 195.479C327.945 194.495 329.212 194.004 330.846 194.004C332.408 194.004 333.645 194.508 334.557 195.518C335.468 196.52 335.924 197.874 335.924 199.58ZM328.062 199.58C328.062 202.074 328.984 203.32 330.826 203.32C332.649 203.32 333.561 202.074 333.561 199.58C333.561 197.113 332.643 195.879 330.807 195.879C329.843 195.879 329.143 196.198 328.707 196.836C328.277 197.474 328.062 198.389 328.062 199.58ZM348.072 205H345.768V198.359C345.768 197.526 345.598 196.904 345.26 196.494C344.928 196.084 344.397 195.879 343.668 195.879C342.698 195.879 341.988 196.165 341.539 196.738C341.09 197.311 340.865 198.271 340.865 199.619V205H338.57V194.199H340.367L340.689 195.615H340.807C341.132 195.101 341.594 194.704 342.193 194.424C342.792 194.144 343.456 194.004 344.186 194.004C346.777 194.004 348.072 195.322 348.072 197.959V205ZM138.561 224.842C138.561 227.166 137.978 228.973 136.812 230.262C135.654 231.551 134.01 232.195 131.881 232.195C129.726 232.195 128.069 231.557 126.91 230.281C125.758 228.999 125.182 227.179 125.182 224.822C125.182 222.465 125.761 220.656 126.92 219.393C128.085 218.13 129.745 217.498 131.9 217.498C134.023 217.498 135.663 218.139 136.822 219.422C137.981 220.704 138.561 222.511 138.561 224.842ZM127.662 224.842C127.662 226.6 128.017 227.934 128.727 228.846C129.436 229.751 130.488 230.203 131.881 230.203C133.268 230.203 134.312 229.754 135.016 228.855C135.725 227.957 136.08 226.619 136.08 224.842C136.08 223.09 135.729 221.762 135.025 220.857C134.329 219.952 133.287 219.5 131.9 219.5C130.501 219.5 129.443 219.952 128.727 220.857C128.017 221.762 127.662 223.09 127.662 224.842ZM146.803 222.938H144.166V232H141.861V222.938H140.084V221.863L141.861 221.16V220.457C141.861 219.181 142.161 218.237 142.76 217.625C143.359 217.007 144.273 216.697 145.504 216.697C146.311 216.697 147.105 216.831 147.887 217.098L147.281 218.836C146.715 218.654 146.174 218.562 145.66 218.562C145.139 218.562 144.758 218.725 144.518 219.051C144.283 219.37 144.166 219.852 144.166 220.496V221.199H146.803V222.938ZM154.068 222.938H151.432V232H149.127V222.938H147.35V221.863L149.127 221.16V220.457C149.127 219.181 149.426 218.237 150.025 217.625C150.624 217.007 151.539 216.697 152.77 216.697C153.577 216.697 154.371 216.831 155.152 217.098L154.547 218.836C153.98 218.654 153.44 218.562 152.926 218.562C152.405 218.562 152.024 218.725 151.783 219.051C151.549 219.37 151.432 219.852 151.432 220.496V221.199H154.068V222.938ZM158.209 232H155.914V221.199H158.209V232ZM155.777 218.338C155.777 217.928 155.888 217.612 156.109 217.391C156.337 217.169 156.66 217.059 157.076 217.059C157.48 217.059 157.792 217.169 158.014 217.391C158.242 217.612 158.355 217.928 158.355 218.338C158.355 218.729 158.242 219.038 158.014 219.266C157.792 219.487 157.48 219.598 157.076 219.598C156.66 219.598 156.337 219.487 156.109 219.266C155.888 219.038 155.777 218.729 155.777 218.338ZM165.855 232.195C164.221 232.195 162.978 231.72 162.125 230.77C161.279 229.812 160.855 228.442 160.855 226.658C160.855 224.842 161.298 223.445 162.184 222.469C163.076 221.492 164.361 221.004 166.041 221.004C167.18 221.004 168.206 221.215 169.117 221.639L168.424 223.484C167.454 223.107 166.653 222.918 166.021 222.918C164.153 222.918 163.219 224.158 163.219 226.639C163.219 227.85 163.45 228.761 163.912 229.373C164.381 229.979 165.064 230.281 165.963 230.281C166.985 230.281 167.952 230.027 168.863 229.52V231.521C168.453 231.762 168.014 231.935 167.545 232.039C167.083 232.143 166.52 232.195 165.855 232.195ZM176.119 232.195C174.439 232.195 173.124 231.707 172.174 230.73C171.23 229.747 170.758 228.396 170.758 226.678C170.758 224.913 171.197 223.527 172.076 222.518C172.955 221.508 174.163 221.004 175.699 221.004C177.125 221.004 178.251 221.437 179.078 222.303C179.905 223.169 180.318 224.36 180.318 225.877V227.117H173.121C173.154 228.165 173.437 228.973 173.971 229.539C174.505 230.099 175.257 230.379 176.227 230.379C176.865 230.379 177.457 230.32 178.004 230.203C178.557 230.079 179.15 229.878 179.781 229.598V231.463C179.221 231.73 178.655 231.919 178.082 232.029C177.509 232.14 176.855 232.195 176.119 232.195ZM175.699 222.742C174.97 222.742 174.384 222.973 173.941 223.436C173.505 223.898 173.245 224.572 173.16 225.457H178.062C178.049 224.565 177.835 223.891 177.418 223.436C177.001 222.973 176.428 222.742 175.699 222.742ZM184.908 217.938C184.563 219.298 183.99 220.857 183.189 222.615H181.529C181.979 220.734 182.304 219.103 182.506 217.723H184.762L184.908 217.938ZM188.98 217.938C188.635 219.298 188.062 220.857 187.262 222.615H185.582C186.031 220.851 186.367 219.22 186.588 217.723H188.844L188.98 217.938ZM191.998 227.664V227.039C191.998 226.323 192.128 225.727 192.389 225.252C192.649 224.777 193.105 224.285 193.756 223.777C194.531 223.165 195.029 222.69 195.25 222.352C195.478 222.013 195.592 221.609 195.592 221.141C195.592 220.594 195.41 220.174 195.045 219.881C194.68 219.588 194.156 219.441 193.473 219.441C192.854 219.441 192.281 219.529 191.754 219.705C191.227 219.881 190.712 220.092 190.211 220.34L189.391 218.621C190.712 217.885 192.128 217.518 193.639 217.518C194.915 217.518 195.927 217.83 196.676 218.455C197.424 219.08 197.799 219.943 197.799 221.043C197.799 221.531 197.727 221.967 197.584 222.352C197.441 222.729 197.223 223.09 196.93 223.436C196.643 223.781 196.145 224.23 195.436 224.783C194.83 225.258 194.423 225.652 194.215 225.965C194.013 226.277 193.912 226.697 193.912 227.225V227.664H191.998ZM191.598 230.779C191.598 229.796 192.076 229.305 193.033 229.305C193.502 229.305 193.86 229.435 194.107 229.695C194.355 229.949 194.479 230.311 194.479 230.779C194.479 231.242 194.352 231.609 194.098 231.883C193.85 232.15 193.495 232.283 193.033 232.283C192.571 232.283 192.216 232.153 191.969 231.893C191.721 231.626 191.598 231.255 191.598 230.779Z" fill="#424E54"/>
<path d="M129.086 279H127.758V268.758H124.141V267.578H132.703V268.758H129.086V279ZM140.094 279V273.461C140.094 272.763 139.935 272.242 139.617 271.898C139.299 271.555 138.802 271.383 138.125 271.383C137.224 271.383 136.565 271.628 136.148 272.117C135.737 272.607 135.531 273.409 135.531 274.523V279H134.234V266.844H135.531V270.523C135.531 270.966 135.51 271.333 135.469 271.625H135.547C135.802 271.214 136.164 270.891 136.633 270.656C137.107 270.417 137.646 270.297 138.25 270.297C139.297 270.297 140.081 270.547 140.602 271.047C141.128 271.542 141.391 272.331 141.391 273.414V279H140.094ZM145.359 279H144.062V270.438H145.359V279ZM143.953 268.117C143.953 267.82 144.026 267.604 144.172 267.469C144.318 267.328 144.5 267.258 144.719 267.258C144.927 267.258 145.107 267.328 145.258 267.469C145.409 267.609 145.484 267.826 145.484 268.117C145.484 268.409 145.409 268.628 145.258 268.773C145.107 268.914 144.927 268.984 144.719 268.984C144.5 268.984 144.318 268.914 144.172 268.773C144.026 268.628 143.953 268.409 143.953 268.117ZM153.633 276.664C153.633 277.461 153.336 278.076 152.742 278.508C152.148 278.94 151.315 279.156 150.242 279.156C149.107 279.156 148.221 278.977 147.586 278.617V277.414C147.997 277.622 148.438 277.786 148.906 277.906C149.38 278.026 149.836 278.086 150.273 278.086C150.951 278.086 151.471 277.979 151.836 277.766C152.201 277.547 152.383 277.216 152.383 276.773C152.383 276.44 152.237 276.156 151.945 275.922C151.659 275.682 151.096 275.401 150.258 275.078C149.461 274.781 148.893 274.523 148.555 274.305C148.221 274.081 147.971 273.828 147.805 273.547C147.643 273.266 147.562 272.93 147.562 272.539C147.562 271.841 147.846 271.292 148.414 270.891C148.982 270.484 149.76 270.281 150.75 270.281C151.672 270.281 152.573 270.469 153.453 270.844L152.992 271.898C152.133 271.544 151.354 271.367 150.656 271.367C150.042 271.367 149.578 271.464 149.266 271.656C148.953 271.849 148.797 272.115 148.797 272.453C148.797 272.682 148.854 272.878 148.969 273.039C149.089 273.201 149.279 273.354 149.539 273.5C149.799 273.646 150.299 273.857 151.039 274.133C152.055 274.503 152.74 274.875 153.094 275.25C153.453 275.625 153.633 276.096 153.633 276.664ZM163.328 279.156C162.089 279.156 161.128 278.776 160.445 278.016C159.768 277.25 159.43 276.169 159.43 274.773C159.43 273.341 159.773 272.234 160.461 271.453C161.154 270.672 162.138 270.281 163.414 270.281C163.826 270.281 164.237 270.326 164.648 270.414C165.06 270.503 165.383 270.607 165.617 270.727L165.219 271.828C164.932 271.714 164.62 271.62 164.281 271.547C163.943 271.469 163.643 271.43 163.383 271.43C161.643 271.43 160.773 272.539 160.773 274.758C160.773 275.81 160.984 276.617 161.406 277.18C161.833 277.742 162.464 278.023 163.297 278.023C164.01 278.023 164.742 277.87 165.492 277.562V278.711C164.919 279.008 164.198 279.156 163.328 279.156ZM172.797 279L172.539 277.781H172.477C172.049 278.318 171.622 278.682 171.195 278.875C170.773 279.062 170.245 279.156 169.609 279.156C168.76 279.156 168.094 278.938 167.609 278.5C167.13 278.062 166.891 277.44 166.891 276.633C166.891 274.904 168.273 273.997 171.039 273.914L172.492 273.867V273.336C172.492 272.664 172.346 272.169 172.055 271.852C171.768 271.529 171.307 271.367 170.672 271.367C169.958 271.367 169.151 271.586 168.25 272.023L167.852 271.031C168.273 270.802 168.734 270.622 169.234 270.492C169.74 270.362 170.245 270.297 170.75 270.297C171.771 270.297 172.526 270.523 173.016 270.977C173.51 271.43 173.758 272.156 173.758 273.156V279H172.797ZM169.867 278.086C170.674 278.086 171.307 277.865 171.766 277.422C172.229 276.979 172.461 276.359 172.461 275.562V274.789L171.164 274.844C170.133 274.88 169.388 275.042 168.93 275.328C168.477 275.609 168.25 276.049 168.25 276.648C168.25 277.117 168.391 277.474 168.672 277.719C168.958 277.964 169.357 278.086 169.867 278.086ZM182.297 279V273.461C182.297 272.763 182.138 272.242 181.82 271.898C181.503 271.555 181.005 271.383 180.328 271.383C179.432 271.383 178.776 271.625 178.359 272.109C177.943 272.594 177.734 273.393 177.734 274.508V279H176.438V270.438H177.492L177.703 271.609H177.766C178.031 271.188 178.404 270.862 178.883 270.633C179.362 270.398 179.896 270.281 180.484 270.281C181.516 270.281 182.292 270.531 182.812 271.031C183.333 271.526 183.594 272.32 183.594 273.414V279H182.297ZM192.125 279V273.461C192.125 272.763 191.966 272.242 191.648 271.898C191.331 271.555 190.833 271.383 190.156 271.383C189.26 271.383 188.604 271.625 188.188 272.109C187.771 272.594 187.562 273.393 187.562 274.508V279H186.266V270.438H187.32L187.531 271.609H187.594C187.859 271.188 188.232 270.862 188.711 270.633C189.19 270.398 189.724 270.281 190.312 270.281C191.344 270.281 192.12 270.531 192.641 271.031C193.161 271.526 193.422 272.32 193.422 273.414V279H192.125ZM203.484 274.711C203.484 276.107 203.133 277.198 202.43 277.984C201.727 278.766 200.755 279.156 199.516 279.156C198.75 279.156 198.07 278.977 197.477 278.617C196.883 278.258 196.424 277.742 196.102 277.07C195.779 276.398 195.617 275.612 195.617 274.711C195.617 273.315 195.966 272.229 196.664 271.453C197.362 270.672 198.331 270.281 199.57 270.281C200.768 270.281 201.719 270.68 202.422 271.477C203.13 272.273 203.484 273.352 203.484 274.711ZM196.961 274.711C196.961 275.805 197.18 276.638 197.617 277.211C198.055 277.784 198.698 278.07 199.547 278.07C200.396 278.07 201.039 277.786 201.477 277.219C201.919 276.646 202.141 275.81 202.141 274.711C202.141 273.622 201.919 272.797 201.477 272.234C201.039 271.667 200.391 271.383 199.531 271.383C198.682 271.383 198.042 271.661 197.609 272.219C197.177 272.776 196.961 273.607 196.961 274.711ZM208.531 278.086C208.76 278.086 208.982 278.07 209.195 278.039C209.409 278.003 209.578 277.966 209.703 277.93V278.922C209.562 278.99 209.354 279.044 209.078 279.086C208.807 279.133 208.562 279.156 208.344 279.156C206.688 279.156 205.859 278.284 205.859 276.539V271.445H204.633V270.82L205.859 270.281L206.406 268.453H207.156V270.438H209.641V271.445H207.156V276.484C207.156 277 207.279 277.396 207.523 277.672C207.768 277.948 208.104 278.086 208.531 278.086ZM219.562 270.297C220.688 270.297 221.56 270.682 222.18 271.453C222.805 272.219 223.117 273.305 223.117 274.711C223.117 276.117 222.802 277.211 222.172 277.992C221.547 278.768 220.677 279.156 219.562 279.156C219.005 279.156 218.495 279.055 218.031 278.852C217.573 278.643 217.188 278.326 216.875 277.898H216.781L216.508 279H215.578V266.844H216.875V269.797C216.875 270.458 216.854 271.052 216.812 271.578H216.875C217.479 270.724 218.375 270.297 219.562 270.297ZM219.375 271.383C218.49 271.383 217.852 271.638 217.461 272.148C217.07 272.654 216.875 273.508 216.875 274.711C216.875 275.914 217.076 276.776 217.477 277.297C217.878 277.812 218.521 278.07 219.406 278.07C220.203 278.07 220.797 277.781 221.188 277.203C221.578 276.62 221.773 275.784 221.773 274.695C221.773 273.581 221.578 272.75 221.188 272.203C220.797 271.656 220.193 271.383 219.375 271.383ZM229.008 279.156C227.742 279.156 226.742 278.771 226.008 278C225.279 277.229 224.914 276.159 224.914 274.789C224.914 273.409 225.253 272.312 225.93 271.5C226.612 270.688 227.526 270.281 228.672 270.281C229.745 270.281 230.594 270.635 231.219 271.344C231.844 272.047 232.156 272.977 232.156 274.133V274.953H226.258C226.284 275.958 226.536 276.721 227.016 277.242C227.5 277.763 228.18 278.023 229.055 278.023C229.977 278.023 230.888 277.831 231.789 277.445V278.602C231.331 278.799 230.896 278.94 230.484 279.023C230.078 279.112 229.586 279.156 229.008 279.156ZM228.656 271.367C227.969 271.367 227.419 271.591 227.008 272.039C226.602 272.487 226.362 273.107 226.289 273.898H230.766C230.766 273.081 230.583 272.456 230.219 272.023C229.854 271.586 229.333 271.367 228.656 271.367ZM239.75 270.438V275.992C239.75 276.69 239.909 277.211 240.227 277.555C240.544 277.898 241.042 278.07 241.719 278.07C242.615 278.07 243.268 277.826 243.68 277.336C244.096 276.846 244.305 276.047 244.305 274.938V270.438H245.602V279H244.531L244.344 277.852H244.273C244.008 278.273 243.638 278.596 243.164 278.82C242.695 279.044 242.159 279.156 241.555 279.156C240.513 279.156 239.732 278.909 239.211 278.414C238.695 277.919 238.438 277.128 238.438 276.039V270.438H239.75ZM254.219 279V273.461C254.219 272.763 254.06 272.242 253.742 271.898C253.424 271.555 252.927 271.383 252.25 271.383C251.354 271.383 250.698 271.625 250.281 272.109C249.865 272.594 249.656 273.393 249.656 274.508V279H248.359V270.438H249.414L249.625 271.609H249.688C249.953 271.188 250.326 270.862 250.805 270.633C251.284 270.398 251.818 270.281 252.406 270.281C253.438 270.281 254.214 270.531 254.734 271.031C255.255 271.526 255.516 272.32 255.516 273.414V279H254.219ZM264.016 277.852H263.945C263.346 278.721 262.451 279.156 261.258 279.156C260.138 279.156 259.266 278.773 258.641 278.008C258.021 277.242 257.711 276.154 257.711 274.742C257.711 273.331 258.023 272.234 258.648 271.453C259.273 270.672 260.143 270.281 261.258 270.281C262.419 270.281 263.31 270.703 263.93 271.547H264.031L263.977 270.93L263.945 270.328V266.844H265.242V279H264.188L264.016 277.852ZM261.422 278.07C262.307 278.07 262.948 277.831 263.344 277.352C263.745 276.867 263.945 276.089 263.945 275.016V274.742C263.945 273.529 263.742 272.664 263.336 272.148C262.935 271.628 262.292 271.367 261.406 271.367C260.646 271.367 260.062 271.664 259.656 272.258C259.255 272.846 259.055 273.68 259.055 274.758C259.055 275.852 259.255 276.677 259.656 277.234C260.057 277.792 260.646 278.07 261.422 278.07ZM275.391 274.711C275.391 276.107 275.039 277.198 274.336 277.984C273.633 278.766 272.661 279.156 271.422 279.156C270.656 279.156 269.977 278.977 269.383 278.617C268.789 278.258 268.331 277.742 268.008 277.07C267.685 276.398 267.523 275.612 267.523 274.711C267.523 273.315 267.872 272.229 268.57 271.453C269.268 270.672 270.237 270.281 271.477 270.281C272.674 270.281 273.625 270.68 274.328 271.477C275.036 272.273 275.391 273.352 275.391 274.711ZM268.867 274.711C268.867 275.805 269.086 276.638 269.523 277.211C269.961 277.784 270.604 278.07 271.453 278.07C272.302 278.07 272.945 277.786 273.383 277.219C273.826 276.646 274.047 275.81 274.047 274.711C274.047 273.622 273.826 272.797 273.383 272.234C272.945 271.667 272.297 271.383 271.438 271.383C270.589 271.383 269.948 271.661 269.516 272.219C269.083 272.776 268.867 273.607 268.867 274.711ZM283.531 279V273.461C283.531 272.763 283.372 272.242 283.055 271.898C282.737 271.555 282.24 271.383 281.562 271.383C280.667 271.383 280.01 271.625 279.594 272.109C279.177 272.594 278.969 273.393 278.969 274.508V279H277.672V270.438H278.727L278.938 271.609H279C279.266 271.188 279.638 270.862 280.117 270.633C280.596 270.398 281.13 270.281 281.719 270.281C282.75 270.281 283.526 270.531 284.047 271.031C284.568 271.526 284.828 272.32 284.828 273.414V279H283.531ZM291.117 279.156C289.852 279.156 288.852 278.771 288.117 278C287.388 277.229 287.023 276.159 287.023 274.789C287.023 273.409 287.362 272.312 288.039 271.5C288.721 270.688 289.635 270.281 290.781 270.281C291.854 270.281 292.703 270.635 293.328 271.344C293.953 272.047 294.266 272.977 294.266 274.133V274.953H288.367C288.393 275.958 288.646 276.721 289.125 277.242C289.609 277.763 290.289 278.023 291.164 278.023C292.086 278.023 292.997 277.831 293.898 277.445V278.602C293.44 278.799 293.005 278.94 292.594 279.023C292.188 279.112 291.695 279.156 291.117 279.156ZM290.766 271.367C290.078 271.367 289.529 271.591 289.117 272.039C288.711 272.487 288.471 273.107 288.398 273.898H292.875C292.875 273.081 292.693 272.456 292.328 272.023C291.964 271.586 291.443 271.367 290.766 271.367ZM296.297 278.172C296.297 277.823 296.375 277.56 296.531 277.383C296.693 277.201 296.922 277.109 297.219 277.109C297.521 277.109 297.755 277.201 297.922 277.383C298.094 277.56 298.18 277.823 298.18 278.172C298.18 278.51 298.094 278.771 297.922 278.953C297.75 279.135 297.516 279.227 297.219 279.227C296.953 279.227 296.732 279.146 296.555 278.984C296.383 278.818 296.297 278.547 296.297 278.172Z" fill="#424E54"/>
<path d="M229.571 322.764C228.632 322.764 227.894 323.096 227.356 323.762C226.819 324.427 226.55 325.345 226.55 326.517C226.55 327.743 226.807 328.67 227.322 329.299C227.842 329.928 228.591 330.242 229.571 330.242C229.995 330.242 230.405 330.201 230.802 330.119C231.198 330.033 231.611 329.923 232.039 329.791V331.192C231.255 331.489 230.367 331.637 229.373 331.637C227.91 331.637 226.787 331.195 226.003 330.311C225.219 329.422 224.827 328.153 224.827 326.503C224.827 325.464 225.016 324.555 225.395 323.775C225.777 322.996 226.329 322.399 227.049 321.984C227.769 321.57 228.614 321.362 229.585 321.362C230.606 321.362 231.549 321.576 232.415 322.005L231.827 323.365C231.49 323.206 231.132 323.067 230.754 322.948C230.38 322.825 229.986 322.764 229.571 322.764ZM238.752 331.5L238.431 330.447H238.376C238.011 330.908 237.645 331.222 237.275 331.391C236.906 331.555 236.432 331.637 235.854 331.637C235.111 331.637 234.53 331.436 234.11 331.035C233.696 330.634 233.488 330.067 233.488 329.333C233.488 328.554 233.778 327.966 234.356 327.569C234.935 327.173 235.817 326.956 237.002 326.92L238.308 326.879V326.476C238.308 325.993 238.194 325.632 237.966 325.396C237.743 325.154 237.394 325.033 236.92 325.033C236.533 325.033 236.161 325.09 235.806 325.204C235.45 325.318 235.108 325.452 234.78 325.607L234.261 324.459C234.671 324.245 235.12 324.083 235.607 323.974C236.095 323.86 236.555 323.803 236.988 323.803C237.95 323.803 238.674 324.012 239.162 324.432C239.654 324.851 239.9 325.509 239.9 326.407V331.5H238.752ZM236.359 330.406C236.943 330.406 237.41 330.244 237.761 329.921C238.116 329.593 238.294 329.135 238.294 328.547V327.891L237.323 327.932C236.567 327.959 236.015 328.087 235.669 328.314C235.327 328.538 235.156 328.882 235.156 329.347C235.156 329.684 235.257 329.946 235.457 330.133C235.658 330.315 235.958 330.406 236.359 330.406ZM248.794 331.5H247.181V326.852C247.181 326.268 247.062 325.833 246.825 325.546C246.593 325.259 246.221 325.115 245.711 325.115C245.032 325.115 244.535 325.316 244.221 325.717C243.906 326.118 243.749 326.79 243.749 327.733V331.5H242.143V323.939H243.4L243.626 324.931H243.708C243.936 324.571 244.259 324.293 244.679 324.097C245.098 323.901 245.563 323.803 246.073 323.803C247.887 323.803 248.794 324.726 248.794 326.571V331.5ZM254.078 331.637C252.934 331.637 252.064 331.304 251.467 330.639C250.874 329.969 250.578 329.009 250.578 327.761C250.578 326.489 250.888 325.512 251.508 324.828C252.132 324.145 253.032 323.803 254.208 323.803C255.006 323.803 255.723 323.951 256.361 324.247L255.876 325.539C255.197 325.275 254.636 325.143 254.194 325.143C252.886 325.143 252.232 326.011 252.232 327.747C252.232 328.595 252.394 329.233 252.718 329.661C253.046 330.085 253.524 330.297 254.153 330.297C254.869 330.297 255.546 330.119 256.184 329.764V331.165C255.896 331.334 255.589 331.454 255.261 331.527C254.937 331.6 254.543 331.637 254.078 331.637ZM261.263 331.637C260.087 331.637 259.166 331.295 258.501 330.611C257.84 329.923 257.51 328.978 257.51 327.774C257.51 326.539 257.817 325.569 258.433 324.862C259.048 324.156 259.893 323.803 260.969 323.803C261.967 323.803 262.755 324.106 263.334 324.712C263.913 325.318 264.202 326.152 264.202 327.214V328.082H259.164C259.187 328.816 259.385 329.381 259.759 329.777C260.132 330.169 260.659 330.365 261.338 330.365C261.785 330.365 262.199 330.324 262.582 330.242C262.969 330.156 263.384 330.014 263.826 329.818V331.124C263.434 331.311 263.038 331.443 262.637 331.521C262.236 331.598 261.778 331.637 261.263 331.637ZM260.969 325.02C260.458 325.02 260.048 325.181 259.738 325.505C259.433 325.828 259.251 326.3 259.191 326.92H262.623C262.614 326.296 262.464 325.824 262.172 325.505C261.88 325.181 261.479 325.02 260.969 325.02ZM267.634 331.5H266.027V320.863H267.634V331.5Z" fill="#007BC1"/>
<rect x="208.5" y="308.5" width="76" height="35" rx="3.5" stroke="#007BC1"/>
<rect x="297" y="308" width="87" height="36" rx="4" fill="#007BC1"/>
<path d="M318.571 322.764C317.632 322.764 316.894 323.096 316.356 323.762C315.819 324.427 315.55 325.345 315.55 326.517C315.55 327.743 315.807 328.67 316.322 329.299C316.842 329.928 317.591 330.242 318.571 330.242C318.995 330.242 319.405 330.201 319.802 330.119C320.198 330.033 320.611 329.923 321.039 329.791V331.192C320.255 331.489 319.367 331.637 318.373 331.637C316.91 331.637 315.787 331.195 315.003 330.311C314.219 329.422 313.827 328.153 313.827 326.503C313.827 325.464 314.016 324.555 314.395 323.775C314.777 322.996 315.329 322.399 316.049 321.984C316.769 321.57 317.614 321.362 318.585 321.362C319.606 321.362 320.549 321.576 321.415 322.005L320.827 323.365C320.49 323.206 320.132 323.067 319.754 322.948C319.38 322.825 318.986 322.764 318.571 322.764ZM329.728 327.706C329.728 328.941 329.411 329.905 328.777 330.598C328.144 331.29 327.262 331.637 326.132 331.637C325.425 331.637 324.801 331.477 324.259 331.158C323.716 330.839 323.299 330.381 323.008 329.784C322.716 329.187 322.57 328.494 322.57 327.706C322.57 326.48 322.885 325.523 323.514 324.835C324.143 324.147 325.029 323.803 326.173 323.803C327.267 323.803 328.132 324.156 328.771 324.862C329.409 325.564 329.728 326.512 329.728 327.706ZM324.225 327.706C324.225 329.451 324.869 330.324 326.159 330.324C327.435 330.324 328.073 329.451 328.073 327.706C328.073 325.979 327.431 325.115 326.146 325.115C325.471 325.115 324.981 325.339 324.676 325.785C324.375 326.232 324.225 326.872 324.225 327.706ZM338.231 331.5H336.618V326.852C336.618 326.268 336.5 325.833 336.263 325.546C336.03 325.259 335.659 325.115 335.148 325.115C334.469 325.115 333.973 325.316 333.658 325.717C333.344 326.118 333.187 326.79 333.187 327.733V331.5H331.58V323.939H332.838L333.063 324.931H333.146C333.373 324.571 333.697 324.293 334.116 324.097C334.535 323.901 335 323.803 335.511 323.803C337.325 323.803 338.231 324.726 338.231 326.571V331.5ZM344.261 325.156H342.415V331.5H340.802V325.156H339.558V324.404L340.802 323.912V323.42C340.802 322.527 341.011 321.866 341.431 321.438C341.85 321.005 342.49 320.788 343.352 320.788C343.917 320.788 344.473 320.882 345.02 321.068L344.596 322.285C344.199 322.158 343.821 322.094 343.461 322.094C343.096 322.094 342.83 322.208 342.661 322.436C342.497 322.659 342.415 322.996 342.415 323.447V323.939H344.261V325.156ZM347.159 331.5H345.553V323.939H347.159V331.5ZM345.457 321.937C345.457 321.649 345.535 321.428 345.689 321.273C345.849 321.118 346.075 321.041 346.366 321.041C346.649 321.041 346.868 321.118 347.022 321.273C347.182 321.428 347.262 321.649 347.262 321.937C347.262 322.21 347.182 322.426 347.022 322.586C346.868 322.741 346.649 322.818 346.366 322.818C346.075 322.818 345.849 322.741 345.689 322.586C345.535 322.426 345.457 322.21 345.457 321.937ZM353.298 323.803C353.621 323.803 353.888 323.826 354.098 323.871L353.94 325.368C353.713 325.313 353.476 325.286 353.229 325.286C352.587 325.286 352.065 325.496 351.664 325.915C351.268 326.334 351.069 326.879 351.069 327.549V331.5H349.463V323.939H350.721L350.933 325.272H351.015C351.265 324.821 351.591 324.464 351.992 324.199C352.398 323.935 352.833 323.803 353.298 323.803ZM361.877 331.5H360.264V326.838C360.264 326.259 360.154 325.828 359.936 325.546C359.717 325.259 359.375 325.115 358.91 325.115C358.29 325.115 357.835 325.318 357.543 325.724C357.256 326.125 357.112 326.795 357.112 327.733V331.5H355.506V323.939H356.764L356.989 324.931H357.071C357.281 324.571 357.584 324.293 357.98 324.097C358.382 323.901 358.821 323.803 359.3 323.803C360.462 323.803 361.232 324.199 361.61 324.992H361.72C361.943 324.618 362.257 324.327 362.663 324.117C363.069 323.908 363.534 323.803 364.058 323.803C364.96 323.803 365.616 324.031 366.026 324.486C366.441 324.942 366.648 325.637 366.648 326.571V331.5H365.042V326.838C365.042 326.259 364.93 325.828 364.707 325.546C364.488 325.259 364.146 325.115 363.682 325.115C363.057 325.115 362.599 325.311 362.308 325.703C362.021 326.09 361.877 326.688 361.877 327.494V331.5Z" fill="white"/>
</g>
</g>
<defs>
<filter id="filter0_ddd_5174_239782" x="74" y="120" width="352" height="271" filterUnits="userSpaceOnUse" color-interpolation-filters="sRGB">
<feFlood flood-opacity="0" result="BackgroundImageFix"/>
<feColorMatrix in="SourceAlpha" type="matrix" values="0 0 0 0 0 0 0 0 0 0 0 0 0 0 0 0 0 0 127 0" result="hardAlpha"/>
<feMorphology radius="4" operator="dilate" in="SourceAlpha" result="effect1_dropShadow_5174_239782"/>
<feOffset dy="5"/>
<feGaussianBlur stdDeviation="11"/>
<feColorMatrix type="matrix" values="0 0 0 0 0 0 0 0 0 0 0 0 0 0 0 0 0 0 0.12 0"/>
<feBlend mode="normal" in2="BackgroundImageFix" result="effect1_dropShadow_5174_239782"/>
<feColorMatrix in="SourceAlpha" type="matrix" values="0 0 0 0 0 0 0 0 0 0 0 0 0 0 0 0 0 0 127 0" result="hardAlpha"/>
<feMorphology radius="2" operator="dilate" in="SourceAlpha" result="effect2_dropShadow_5174_239782"/>
<feOffset dy="12"/>
<feGaussianBlur stdDeviation="8.5"/>
<feColorMatrix type="matrix" values="0 0 0 0 0.258824 0 0 0 0 0.305882 0 0 0 0 0.329412 0 0 0 0.14 0"/>
<feBlend mode="normal" in2="effect1_dropShadow_5174_239782" result="effect2_dropShadow_5174_239782"/>
<feColorMatrix in="SourceAlpha" type="matrix" values="0 0 0 0 0 0 0 0 0 0 0 0 0 0 0 0 0 0 127 0" result="hardAlpha"/>
<feMorphology radius="4" operator="erode" in="SourceAlpha" result="effect3_dropShadow_5174_239782"/>
<feOffset dy="7"/>
<feGaussianBlur stdDeviation="4"/>
<feColorMatrix type="matrix" values="0 0 0 0 0 0 0 0 0 0 0 0 0 0 0 0 0 0 0.2 0"/>
<feBlend mode="normal" in2="effect2_dropShadow_5174_239782" result="effect3_dropShadow_5174_239782"/>
<feBlend mode="normal" in="SourceGraphic" in2="effect3_dropShadow_5174_239782" result="shape"/>
</filter>
<clipPath id="clip0_5174_239782">
<rect x="100" y="141" width="300" height="219" rx="4" fill="white"/>
</clipPath>
</defs>
</svg>
