<svg width="500" height="500" viewBox="0 0 500 500" fill="none" xmlns="http://www.w3.org/2000/svg">
<rect width="500" height="500" fill="#E2E5E5"/>
<g filter="url(#filter0_ddd_5174_239782)">
<g clip-path="url(#clip0_5174_239782)">
<rect x="100" y="141" width="300" height="219" rx="4" fill="white"/>
<path d="M135.338 168.039C135.338 169.53 134.85 170.673 133.873 171.467C132.896 172.261 131.507 172.658 129.703 172.658H128.219V178H125.885V163.723H129.996C131.78 163.723 133.115 164.087 134 164.816C134.892 165.546 135.338 166.62 135.338 168.039ZM128.219 170.695H129.459C130.657 170.695 131.536 170.487 132.096 170.07C132.656 169.654 132.936 169.003 132.936 168.117C132.936 167.297 132.685 166.685 132.184 166.281C131.682 165.878 130.901 165.676 129.84 165.676H128.219V170.695ZM142.662 178.195C140.982 178.195 139.667 177.707 138.717 176.73C137.773 175.747 137.301 174.396 137.301 172.678C137.301 170.913 137.74 169.527 138.619 168.518C139.498 167.508 140.706 167.004 142.242 167.004C143.668 167.004 144.794 167.437 145.621 168.303C146.448 169.169 146.861 170.36 146.861 171.877V173.117H139.664C139.697 174.165 139.98 174.973 140.514 175.539C141.048 176.099 141.799 176.379 142.77 176.379C143.408 176.379 144 176.32 144.547 176.203C145.1 176.079 145.693 175.878 146.324 175.598V177.463C145.764 177.73 145.198 177.919 144.625 178.029C144.052 178.14 143.398 178.195 142.662 178.195ZM142.242 168.742C141.513 168.742 140.927 168.973 140.484 169.436C140.048 169.898 139.788 170.572 139.703 171.457H144.605C144.592 170.565 144.378 169.891 143.961 169.436C143.544 168.973 142.971 168.742 142.242 168.742ZM154.947 167.004C155.41 167.004 155.79 167.036 156.09 167.102L155.865 169.24C155.54 169.162 155.201 169.123 154.85 169.123C153.932 169.123 153.186 169.423 152.613 170.021C152.047 170.62 151.764 171.398 151.764 172.355V178H149.469V167.199H151.266L151.568 169.104H151.686C152.044 168.459 152.509 167.948 153.082 167.57C153.661 167.193 154.283 167.004 154.947 167.004ZM167.203 178H164.898V171.34C164.898 170.513 164.742 169.898 164.43 169.494C164.117 169.084 163.629 168.879 162.965 168.879C162.079 168.879 161.428 169.169 161.012 169.748C160.602 170.321 160.396 171.278 160.396 172.619V178H158.102V167.199H159.898L160.221 168.615H160.338C160.637 168.101 161.07 167.704 161.637 167.424C162.21 167.144 162.838 167.004 163.521 167.004C165.182 167.004 166.282 167.57 166.822 168.703H166.979C167.298 168.169 167.747 167.753 168.326 167.453C168.906 167.154 169.57 167.004 170.318 167.004C171.607 167.004 172.545 167.329 173.131 167.98C173.723 168.632 174.02 169.624 174.02 170.959V178H171.725V171.34C171.725 170.513 171.565 169.898 171.246 169.494C170.934 169.084 170.445 168.879 169.781 168.879C168.889 168.879 168.235 169.159 167.818 169.719C167.408 170.272 167.203 171.125 167.203 172.277V178ZM183.98 178L183.521 176.496H183.443C182.923 177.154 182.398 177.603 181.871 177.844C181.344 178.078 180.667 178.195 179.84 178.195C178.779 178.195 177.949 177.909 177.35 177.336C176.757 176.763 176.461 175.952 176.461 174.904C176.461 173.791 176.874 172.951 177.701 172.385C178.528 171.818 179.788 171.509 181.48 171.457L183.346 171.398V170.822C183.346 170.132 183.183 169.618 182.857 169.279C182.538 168.934 182.04 168.762 181.363 168.762C180.81 168.762 180.279 168.843 179.771 169.006C179.264 169.169 178.775 169.361 178.307 169.582L177.564 167.941C178.15 167.635 178.792 167.404 179.488 167.248C180.185 167.085 180.842 167.004 181.461 167.004C182.835 167.004 183.87 167.303 184.566 167.902C185.27 168.501 185.621 169.442 185.621 170.725V178H183.98ZM180.562 176.438C181.396 176.438 182.063 176.206 182.564 175.744C183.072 175.275 183.326 174.621 183.326 173.781V172.844L181.939 172.902C180.859 172.941 180.071 173.124 179.576 173.449C179.088 173.768 178.844 174.26 178.844 174.924C178.844 175.406 178.987 175.78 179.273 176.047C179.56 176.307 179.99 176.438 180.562 176.438ZM198.326 178H196.021V171.359C196.021 170.526 195.852 169.904 195.514 169.494C195.182 169.084 194.651 168.879 193.922 168.879C192.952 168.879 192.242 169.165 191.793 169.738C191.344 170.311 191.119 171.271 191.119 172.619V178H188.824V167.199H190.621L190.943 168.615H191.061C191.386 168.101 191.848 167.704 192.447 167.424C193.046 167.144 193.71 167.004 194.439 167.004C197.031 167.004 198.326 168.322 198.326 170.959V178ZM206.236 178.195C204.557 178.195 203.242 177.707 202.291 176.73C201.347 175.747 200.875 174.396 200.875 172.678C200.875 170.913 201.314 169.527 202.193 168.518C203.072 167.508 204.28 167.004 205.816 167.004C207.242 167.004 208.368 167.437 209.195 168.303C210.022 169.169 210.436 170.36 210.436 171.877V173.117H203.238C203.271 174.165 203.554 174.973 204.088 175.539C204.622 176.099 205.374 176.379 206.344 176.379C206.982 176.379 207.574 176.32 208.121 176.203C208.674 176.079 209.267 175.878 209.898 175.598V177.463C209.339 177.73 208.772 177.919 208.199 178.029C207.626 178.14 206.972 178.195 206.236 178.195ZM205.816 168.742C205.087 168.742 204.501 168.973 204.059 169.436C203.622 169.898 203.362 170.572 203.277 171.457H208.18C208.167 170.565 207.952 169.891 207.535 169.436C207.118 168.973 206.546 168.742 205.816 168.742ZM222.545 178H220.24V171.359C220.24 170.526 220.071 169.904 219.732 169.494C219.4 169.084 218.87 168.879 218.141 168.879C217.171 168.879 216.461 169.165 216.012 169.738C215.562 170.311 215.338 171.271 215.338 172.619V178H213.043V167.199H214.84L215.162 168.615H215.279C215.605 168.101 216.067 167.704 216.666 167.424C217.265 167.144 217.929 167.004 218.658 167.004C221.249 167.004 222.545 168.322 222.545 170.959V178ZM229.762 176.34C230.322 176.34 230.882 176.252 231.441 176.076V177.805C231.188 177.915 230.859 178.007 230.455 178.078C230.058 178.156 229.645 178.195 229.215 178.195C227.04 178.195 225.953 177.049 225.953 174.758V168.938H224.479V167.922L226.061 167.082L226.842 164.797H228.258V167.199H231.334V168.938H228.258V174.719C228.258 175.272 228.395 175.682 228.668 175.949C228.948 176.21 229.312 176.34 229.762 176.34ZM235.904 178H233.609V162.805H235.904V178ZM237.555 167.199H240.055L242.252 173.322C242.584 174.195 242.805 175.015 242.916 175.783H242.994C243.053 175.425 243.16 174.992 243.316 174.484C243.473 173.97 244.299 171.542 245.797 167.199H248.277L243.658 179.436C242.818 181.682 241.419 182.805 239.459 182.805C238.951 182.805 238.456 182.749 237.975 182.639V180.822C238.32 180.9 238.714 180.939 239.156 180.939C240.263 180.939 241.041 180.298 241.49 179.016L241.891 178L237.555 167.199ZM258.756 178.195C257.408 178.195 256.357 177.707 255.602 176.73C254.846 175.754 254.469 174.383 254.469 172.619C254.469 170.848 254.85 169.471 255.611 168.488C256.38 167.499 257.441 167.004 258.795 167.004C260.214 167.004 261.295 167.528 262.037 168.576H262.154C262.044 167.801 261.988 167.189 261.988 166.74V162.805H264.293V178H262.496L262.096 176.584H261.988C261.253 177.658 260.175 178.195 258.756 178.195ZM259.371 176.34C260.315 176.34 261.002 176.076 261.432 175.549C261.861 175.015 262.083 174.152 262.096 172.961V172.639C262.096 171.278 261.874 170.311 261.432 169.738C260.989 169.165 260.296 168.879 259.352 168.879C258.544 168.879 257.923 169.208 257.486 169.865C257.05 170.516 256.832 171.447 256.832 172.658C256.832 173.856 257.044 174.771 257.467 175.402C257.89 176.027 258.525 176.34 259.371 176.34ZM272.291 178.195C270.611 178.195 269.296 177.707 268.346 176.73C267.402 175.747 266.93 174.396 266.93 172.678C266.93 170.913 267.369 169.527 268.248 168.518C269.127 167.508 270.335 167.004 271.871 167.004C273.297 167.004 274.423 167.437 275.25 168.303C276.077 169.169 276.49 170.36 276.49 171.877V173.117H269.293C269.326 174.165 269.609 174.973 270.143 175.539C270.676 176.099 271.428 176.379 272.398 176.379C273.036 176.379 273.629 176.32 274.176 176.203C274.729 176.079 275.322 175.878 275.953 175.598V177.463C275.393 177.73 274.827 177.919 274.254 178.029C273.681 178.14 273.027 178.195 272.291 178.195ZM271.871 168.742C271.142 168.742 270.556 168.973 270.113 169.436C269.677 169.898 269.417 170.572 269.332 171.457H274.234C274.221 170.565 274.007 169.891 273.59 169.436C273.173 168.973 272.6 168.742 271.871 168.742ZM281.393 178H279.098V162.805H281.393V178ZM289.4 178.195C287.721 178.195 286.406 177.707 285.455 176.73C284.511 175.747 284.039 174.396 284.039 172.678C284.039 170.913 284.479 169.527 285.357 168.518C286.236 167.508 287.444 167.004 288.98 167.004C290.406 167.004 291.533 167.437 292.359 168.303C293.186 169.169 293.6 170.36 293.6 171.877V173.117H286.402C286.435 174.165 286.718 174.973 287.252 175.539C287.786 176.099 288.538 176.379 289.508 176.379C290.146 176.379 290.738 176.32 291.285 176.203C291.839 176.079 292.431 175.878 293.062 175.598V177.463C292.503 177.73 291.936 177.919 291.363 178.029C290.79 178.14 290.136 178.195 289.4 178.195ZM288.98 168.742C288.251 168.742 287.665 168.973 287.223 169.436C286.786 169.898 286.526 170.572 286.441 171.457H291.344C291.331 170.565 291.116 169.891 290.699 169.436C290.283 168.973 289.71 168.742 288.98 168.742ZM300.23 176.34C300.79 176.34 301.35 176.252 301.91 176.076V177.805C301.656 177.915 301.327 178.007 300.924 178.078C300.527 178.156 300.113 178.195 299.684 178.195C297.509 178.195 296.422 177.049 296.422 174.758V168.938H294.947V167.922L296.529 167.082L297.311 164.797H298.727V167.199H301.803V168.938H298.727V174.719C298.727 175.272 298.863 175.682 299.137 175.949C299.417 176.21 299.781 176.34 300.23 176.34ZM308.795 178.195C307.115 178.195 305.8 177.707 304.85 176.73C303.906 175.747 303.434 174.396 303.434 172.678C303.434 170.913 303.873 169.527 304.752 168.518C305.631 167.508 306.839 167.004 308.375 167.004C309.801 167.004 310.927 167.437 311.754 168.303C312.581 169.169 312.994 170.36 312.994 171.877V173.117H305.797C305.829 174.165 306.113 174.973 306.646 175.539C307.18 176.099 307.932 176.379 308.902 176.379C309.54 176.379 310.133 176.32 310.68 176.203C311.233 176.079 311.826 175.878 312.457 175.598V177.463C311.897 177.73 311.331 177.919 310.758 178.029C310.185 178.14 309.531 178.195 308.795 178.195ZM308.375 168.742C307.646 168.742 307.06 168.973 306.617 169.436C306.181 169.898 305.921 170.572 305.836 171.457H310.738C310.725 170.565 310.51 169.891 310.094 169.436C309.677 168.973 309.104 168.742 308.375 168.742ZM327.555 178L327.096 176.496H327.018C326.497 177.154 325.973 177.603 325.445 177.844C324.918 178.078 324.241 178.195 323.414 178.195C322.353 178.195 321.523 177.909 320.924 177.336C320.331 176.763 320.035 175.952 320.035 174.904C320.035 173.791 320.449 172.951 321.275 172.385C322.102 171.818 323.362 171.509 325.055 171.457L326.92 171.398V170.822C326.92 170.132 326.757 169.618 326.432 169.279C326.113 168.934 325.615 168.762 324.938 168.762C324.384 168.762 323.854 168.843 323.346 169.006C322.838 169.169 322.35 169.361 321.881 169.582L321.139 167.941C321.725 167.635 322.366 167.404 323.062 167.248C323.759 167.085 324.417 167.004 325.035 167.004C326.409 167.004 327.444 167.303 328.141 167.902C328.844 168.501 329.195 169.442 329.195 170.725V178H327.555ZM324.137 176.438C324.97 176.438 325.637 176.206 326.139 175.744C326.646 175.275 326.9 174.621 326.9 173.781V172.844L325.514 172.902C324.433 172.941 323.645 173.124 323.15 173.449C322.662 173.768 322.418 174.26 322.418 174.924C322.418 175.406 322.561 175.78 322.848 176.047C323.134 176.307 323.564 176.438 324.137 176.438ZM334.693 178H332.398V162.805H334.693V178ZM340.279 178H337.984V162.805H340.279V178ZM129.283 205.195C127.936 205.195 126.884 204.707 126.129 203.73C125.374 202.754 124.996 201.383 124.996 199.619C124.996 197.848 125.377 196.471 126.139 195.488C126.907 194.499 127.968 194.004 129.322 194.004C130.742 194.004 131.822 194.528 132.564 195.576H132.682C132.571 194.801 132.516 194.189 132.516 193.74V189.805H134.82V205H133.023L132.623 203.584H132.516C131.78 204.658 130.702 205.195 129.283 205.195ZM129.898 203.34C130.842 203.34 131.529 203.076 131.959 202.549C132.389 202.015 132.61 201.152 132.623 199.961V199.639C132.623 198.278 132.402 197.311 131.959 196.738C131.516 196.165 130.823 195.879 129.879 195.879C129.072 195.879 128.45 196.208 128.014 196.865C127.577 197.516 127.359 198.447 127.359 199.658C127.359 200.856 127.571 201.771 127.994 202.402C128.417 203.027 129.052 203.34 129.898 203.34ZM142.818 205.195C141.139 205.195 139.824 204.707 138.873 203.73C137.929 202.747 137.457 201.396 137.457 199.678C137.457 197.913 137.896 196.527 138.775 195.518C139.654 194.508 140.862 194.004 142.398 194.004C143.824 194.004 144.951 194.437 145.777 195.303C146.604 196.169 147.018 197.36 147.018 198.877V200.117H139.82C139.853 201.165 140.136 201.973 140.67 202.539C141.204 203.099 141.956 203.379 142.926 203.379C143.564 203.379 144.156 203.32 144.703 203.203C145.257 203.079 145.849 202.878 146.48 202.598V204.463C145.921 204.73 145.354 204.919 144.781 205.029C144.208 205.14 143.554 205.195 142.818 205.195ZM142.398 195.742C141.669 195.742 141.083 195.973 140.641 196.436C140.204 196.898 139.944 197.572 139.859 198.457H144.762C144.749 197.565 144.534 196.891 144.117 196.436C143.701 195.973 143.128 195.742 142.398 195.742ZM152.086 205L147.984 194.199H150.406L152.604 200.479C152.981 201.533 153.209 202.386 153.287 203.037H153.365C153.424 202.568 153.652 201.715 154.049 200.479L156.246 194.199H158.688L154.566 205H152.086ZM162.623 205H160.328V194.199H162.623V205ZM160.191 191.338C160.191 190.928 160.302 190.612 160.523 190.391C160.751 190.169 161.074 190.059 161.49 190.059C161.894 190.059 162.206 190.169 162.428 190.391C162.656 190.612 162.77 190.928 162.77 191.338C162.77 191.729 162.656 192.038 162.428 192.266C162.206 192.487 161.894 192.598 161.49 192.598C161.074 192.598 160.751 192.487 160.523 192.266C160.302 192.038 160.191 191.729 160.191 191.338ZM170.27 205.195C168.635 205.195 167.392 204.72 166.539 203.77C165.693 202.812 165.27 201.442 165.27 199.658C165.27 197.842 165.712 196.445 166.598 195.469C167.49 194.492 168.775 194.004 170.455 194.004C171.594 194.004 172.62 194.215 173.531 194.639L172.838 196.484C171.868 196.107 171.067 195.918 170.436 195.918C168.567 195.918 167.633 197.158 167.633 199.639C167.633 200.85 167.864 201.761 168.326 202.373C168.795 202.979 169.479 203.281 170.377 203.281C171.399 203.281 172.366 203.027 173.277 202.52V204.521C172.867 204.762 172.428 204.935 171.959 205.039C171.497 205.143 170.934 205.195 170.27 205.195ZM180.533 205.195C178.854 205.195 177.538 204.707 176.588 203.73C175.644 202.747 175.172 201.396 175.172 199.678C175.172 197.913 175.611 196.527 176.49 195.518C177.369 194.508 178.577 194.004 180.113 194.004C181.539 194.004 182.665 194.437 183.492 195.303C184.319 196.169 184.732 197.36 184.732 198.877V200.117H177.535C177.568 201.165 177.851 201.973 178.385 202.539C178.919 203.099 179.671 203.379 180.641 203.379C181.279 203.379 181.871 203.32 182.418 203.203C182.971 203.079 183.564 202.878 184.195 202.598V204.463C183.635 204.73 183.069 204.919 182.496 205.029C181.923 205.14 181.269 205.195 180.533 205.195ZM180.113 195.742C179.384 195.742 178.798 195.973 178.355 196.436C177.919 196.898 177.659 197.572 177.574 198.457H182.477C182.464 197.565 182.249 196.891 181.832 196.436C181.415 195.973 180.842 195.742 180.113 195.742ZM194.596 201.924C194.596 202.979 194.212 203.789 193.443 204.355C192.675 204.915 191.575 205.195 190.143 205.195C188.704 205.195 187.548 204.977 186.676 204.541V202.559C187.945 203.145 189.127 203.438 190.221 203.438C191.633 203.438 192.34 203.011 192.34 202.158C192.34 201.885 192.262 201.657 192.105 201.475C191.949 201.292 191.692 201.104 191.334 200.908C190.976 200.713 190.478 200.492 189.84 200.244C188.596 199.762 187.753 199.281 187.311 198.799C186.874 198.317 186.656 197.692 186.656 196.924C186.656 195.999 187.027 195.283 187.77 194.775C188.518 194.261 189.534 194.004 190.816 194.004C192.086 194.004 193.287 194.261 194.42 194.775L193.678 196.504C192.512 196.022 191.533 195.781 190.738 195.781C189.527 195.781 188.922 196.126 188.922 196.816C188.922 197.155 189.078 197.441 189.391 197.676C189.71 197.91 190.4 198.232 191.461 198.643C192.353 198.988 193.001 199.303 193.404 199.59C193.808 199.876 194.107 200.208 194.303 200.586C194.498 200.957 194.596 201.403 194.596 201.924ZM209.039 205L208.58 203.496H208.502C207.981 204.154 207.457 204.603 206.93 204.844C206.402 205.078 205.725 205.195 204.898 205.195C203.837 205.195 203.007 204.909 202.408 204.336C201.816 203.763 201.52 202.952 201.52 201.904C201.52 200.791 201.933 199.951 202.76 199.385C203.587 198.818 204.846 198.509 206.539 198.457L208.404 198.398V197.822C208.404 197.132 208.242 196.618 207.916 196.279C207.597 195.934 207.099 195.762 206.422 195.762C205.868 195.762 205.338 195.843 204.83 196.006C204.322 196.169 203.834 196.361 203.365 196.582L202.623 194.941C203.209 194.635 203.85 194.404 204.547 194.248C205.243 194.085 205.901 194.004 206.52 194.004C207.893 194.004 208.928 194.303 209.625 194.902C210.328 195.501 210.68 196.442 210.68 197.725V205H209.039ZM205.621 203.438C206.454 203.438 207.122 203.206 207.623 202.744C208.131 202.275 208.385 201.621 208.385 200.781V199.844L206.998 199.902C205.917 199.941 205.13 200.124 204.635 200.449C204.146 200.768 203.902 201.26 203.902 201.924C203.902 202.406 204.046 202.78 204.332 203.047C204.618 203.307 205.048 203.438 205.621 203.438ZM217.906 203.34C218.466 203.34 219.026 203.252 219.586 203.076V204.805C219.332 204.915 219.003 205.007 218.6 205.078C218.202 205.156 217.789 205.195 217.359 205.195C215.185 205.195 214.098 204.049 214.098 201.758V195.938H212.623V194.922L214.205 194.082L214.986 191.797H216.402V194.199H219.479V195.938H216.402V201.719C216.402 202.272 216.539 202.682 216.812 202.949C217.092 203.21 217.457 203.34 217.906 203.34ZM233.268 192.52C231.926 192.52 230.872 192.995 230.104 193.945C229.335 194.896 228.951 196.208 228.951 197.881C228.951 199.632 229.319 200.957 230.055 201.855C230.797 202.754 231.868 203.203 233.268 203.203C233.873 203.203 234.459 203.145 235.025 203.027C235.592 202.904 236.181 202.747 236.793 202.559V204.561C235.673 204.984 234.404 205.195 232.984 205.195C230.895 205.195 229.29 204.564 228.17 203.301C227.05 202.031 226.49 200.218 226.49 197.861C226.49 196.377 226.76 195.078 227.301 193.965C227.848 192.852 228.635 191.999 229.664 191.406C230.693 190.814 231.9 190.518 233.287 190.518C234.745 190.518 236.093 190.824 237.33 191.436L236.49 193.379C236.008 193.151 235.497 192.952 234.957 192.783C234.423 192.607 233.86 192.52 233.268 192.52ZM249.127 205H246.822V198.359C246.822 197.526 246.653 196.904 246.314 196.494C245.982 196.084 245.452 195.879 244.723 195.879C243.759 195.879 243.049 196.169 242.594 196.748C242.145 197.321 241.92 198.285 241.92 199.639V205H239.625V189.805H241.92V193.662C241.92 194.281 241.881 194.941 241.803 195.645H241.949C242.262 195.124 242.695 194.72 243.248 194.434C243.808 194.147 244.459 194.004 245.201 194.004C247.818 194.004 249.127 195.322 249.127 197.959V205ZM257.037 205.195C255.357 205.195 254.042 204.707 253.092 203.73C252.148 202.747 251.676 201.396 251.676 199.678C251.676 197.913 252.115 196.527 252.994 195.518C253.873 194.508 255.081 194.004 256.617 194.004C258.043 194.004 259.169 194.437 259.996 195.303C260.823 196.169 261.236 197.36 261.236 198.877V200.117H254.039C254.072 201.165 254.355 201.973 254.889 202.539C255.423 203.099 256.174 203.379 257.145 203.379C257.783 203.379 258.375 203.32 258.922 203.203C259.475 203.079 260.068 202.878 260.699 202.598V204.463C260.139 204.73 259.573 204.919 259 205.029C258.427 205.14 257.773 205.195 257.037 205.195ZM256.617 195.742C255.888 195.742 255.302 195.973 254.859 196.436C254.423 196.898 254.163 197.572 254.078 198.457H258.98C258.967 197.565 258.753 196.891 258.336 196.436C257.919 195.973 257.346 195.742 256.617 195.742ZM269.322 194.004C269.785 194.004 270.165 194.036 270.465 194.102L270.24 196.24C269.915 196.162 269.576 196.123 269.225 196.123C268.307 196.123 267.561 196.423 266.988 197.021C266.422 197.62 266.139 198.398 266.139 199.355V205H263.844V194.199H265.641L265.943 196.104H266.061C266.419 195.459 266.884 194.948 267.457 194.57C268.036 194.193 268.658 194.004 269.322 194.004ZM277.955 194.004C278.417 194.004 278.798 194.036 279.098 194.102L278.873 196.24C278.548 196.162 278.209 196.123 277.857 196.123C276.939 196.123 276.194 196.423 275.621 197.021C275.055 197.62 274.771 198.398 274.771 199.355V205H272.477V194.199H274.273L274.576 196.104H274.693C275.051 195.459 275.517 194.948 276.09 194.57C276.669 194.193 277.291 194.004 277.955 194.004ZM283.404 205H281.109V194.199H283.404V205ZM280.973 191.338C280.973 190.928 281.083 190.612 281.305 190.391C281.533 190.169 281.855 190.059 282.271 190.059C282.675 190.059 282.988 190.169 283.209 190.391C283.437 190.612 283.551 190.928 283.551 191.338C283.551 191.729 283.437 192.038 283.209 192.266C282.988 192.487 282.675 192.598 282.271 192.598C281.855 192.598 281.533 192.487 281.305 192.266C281.083 192.038 280.973 191.729 280.973 191.338ZM296.197 205H293.893V198.359C293.893 197.526 293.723 196.904 293.385 196.494C293.053 196.084 292.522 195.879 291.793 195.879C290.823 195.879 290.113 196.165 289.664 196.738C289.215 197.311 288.99 198.271 288.99 199.619V205H286.695V194.199H288.492L288.814 195.615H288.932C289.257 195.101 289.719 194.704 290.318 194.424C290.917 194.144 291.581 194.004 292.311 194.004C294.902 194.004 296.197 195.322 296.197 197.959V205ZM308.512 194.199V195.459L306.666 195.801C306.835 196.029 306.975 196.309 307.086 196.641C307.197 196.973 307.252 197.324 307.252 197.695C307.252 198.809 306.868 199.684 306.1 200.322C305.331 200.96 304.273 201.279 302.926 201.279C302.581 201.279 302.268 201.253 301.988 201.201C301.493 201.507 301.246 201.865 301.246 202.275C301.246 202.523 301.36 202.708 301.588 202.832C301.822 202.956 302.249 203.018 302.867 203.018H304.752C305.943 203.018 306.848 203.271 307.467 203.779C308.085 204.287 308.395 205.02 308.395 205.977C308.395 207.201 307.89 208.145 306.881 208.809C305.872 209.473 304.413 209.805 302.506 209.805C301.035 209.805 299.911 209.544 299.137 209.023C298.362 208.503 297.975 207.76 297.975 206.797C297.975 206.133 298.183 205.573 298.6 205.117C299.023 204.668 299.612 204.355 300.367 204.18C300.061 204.049 299.807 203.841 299.605 203.555C299.41 203.262 299.312 202.956 299.312 202.637C299.312 202.233 299.426 201.891 299.654 201.611C299.882 201.331 300.221 201.055 300.67 200.781C300.11 200.54 299.654 200.15 299.303 199.609C298.958 199.062 298.785 198.424 298.785 197.695C298.785 196.523 299.153 195.615 299.889 194.971C300.631 194.326 301.686 194.004 303.053 194.004C303.359 194.004 303.678 194.027 304.01 194.072C304.348 194.111 304.602 194.154 304.771 194.199H308.512ZM300.025 206.68C300.025 207.174 300.247 207.555 300.689 207.822C301.139 208.089 301.767 208.223 302.574 208.223C303.824 208.223 304.755 208.044 305.367 207.686C305.979 207.327 306.285 206.852 306.285 206.26C306.285 205.791 306.116 205.456 305.777 205.254C305.445 205.059 304.824 204.961 303.912 204.961H302.174C301.516 204.961 300.992 205.114 300.602 205.42C300.217 205.732 300.025 206.152 300.025 206.68ZM301.012 197.695C301.012 198.372 301.184 198.893 301.529 199.258C301.881 199.622 302.382 199.805 303.033 199.805C304.361 199.805 305.025 199.095 305.025 197.676C305.025 196.973 304.859 196.432 304.527 196.055C304.202 195.671 303.704 195.479 303.033 195.479C302.369 195.479 301.865 195.667 301.52 196.045C301.181 196.423 301.012 196.973 301.012 197.695ZM314.547 203.34C315.107 203.34 315.667 203.252 316.227 203.076V204.805C315.973 204.915 315.644 205.007 315.24 205.078C314.843 205.156 314.43 205.195 314 205.195C311.826 205.195 310.738 204.049 310.738 201.758V195.938H309.264V194.922L310.846 194.082L311.627 191.797H313.043V194.199H316.119V195.938H313.043V201.719C313.043 202.272 313.18 202.682 313.453 202.949C313.733 203.21 314.098 203.34 314.547 203.34ZM327.975 199.58C327.975 201.344 327.522 202.721 326.617 203.711C325.712 204.701 324.452 205.195 322.838 205.195C321.829 205.195 320.937 204.967 320.162 204.512C319.387 204.056 318.792 203.402 318.375 202.549C317.958 201.696 317.75 200.706 317.75 199.58C317.75 197.829 318.199 196.462 319.098 195.479C319.996 194.495 321.262 194.004 322.896 194.004C324.459 194.004 325.696 194.508 326.607 195.518C327.519 196.52 327.975 197.874 327.975 199.58ZM320.113 199.58C320.113 202.074 321.035 203.32 322.877 203.32C324.7 203.32 325.611 202.074 325.611 199.58C325.611 197.113 324.693 195.879 322.857 195.879C321.894 195.879 321.194 196.198 320.758 196.836C320.328 197.474 320.113 198.389 320.113 199.58ZM340.123 205H337.818V198.359C337.818 197.526 337.649 196.904 337.311 196.494C336.979 196.084 336.448 195.879 335.719 195.879C334.749 195.879 334.039 196.165 333.59 196.738C333.141 197.311 332.916 198.271 332.916 199.619V205H330.621V194.199H332.418L332.74 195.615H332.857C333.183 195.101 333.645 194.704 334.244 194.424C334.843 194.144 335.507 194.004 336.236 194.004C338.827 194.004 340.123 195.322 340.123 197.959V205ZM138.561 224.842C138.561 227.166 137.978 228.973 136.812 230.262C135.654 231.551 134.01 232.195 131.881 232.195C129.726 232.195 128.069 231.557 126.91 230.281C125.758 228.999 125.182 227.179 125.182 224.822C125.182 222.465 125.761 220.656 126.92 219.393C128.085 218.13 129.745 217.498 131.9 217.498C134.023 217.498 135.663 218.139 136.822 219.422C137.981 220.704 138.561 222.511 138.561 224.842ZM127.662 224.842C127.662 226.6 128.017 227.934 128.727 228.846C129.436 229.751 130.488 230.203 131.881 230.203C133.268 230.203 134.312 229.754 135.016 228.855C135.725 227.957 136.08 226.619 136.08 224.842C136.08 223.09 135.729 221.762 135.025 220.857C134.329 219.952 133.287 219.5 131.9 219.5C130.501 219.5 129.443 219.952 128.727 220.857C128.017 221.762 127.662 223.09 127.662 224.842ZM146.803 222.938H144.166V232H141.861V222.938H140.084V221.863L141.861 221.16V220.457C141.861 219.181 142.161 218.237 142.76 217.625C143.359 217.007 144.273 216.697 145.504 216.697C146.311 216.697 147.105 216.831 147.887 217.098L147.281 218.836C146.715 218.654 146.174 218.562 145.66 218.562C145.139 218.562 144.758 218.725 144.518 219.051C144.283 219.37 144.166 219.852 144.166 220.496V221.199H146.803V222.938ZM154.068 222.938H151.432V232H149.127V222.938H147.35V221.863L149.127 221.16V220.457C149.127 219.181 149.426 218.237 150.025 217.625C150.624 217.007 151.539 216.697 152.77 216.697C153.577 216.697 154.371 216.831 155.152 217.098L154.547 218.836C153.98 218.654 153.44 218.562 152.926 218.562C152.405 218.562 152.024 218.725 151.783 219.051C151.549 219.37 151.432 219.852 151.432 220.496V221.199H154.068V222.938ZM158.209 232H155.914V221.199H158.209V232ZM155.777 218.338C155.777 217.928 155.888 217.612 156.109 217.391C156.337 217.169 156.66 217.059 157.076 217.059C157.48 217.059 157.792 217.169 158.014 217.391C158.242 217.612 158.355 217.928 158.355 218.338C158.355 218.729 158.242 219.038 158.014 219.266C157.792 219.487 157.48 219.598 157.076 219.598C156.66 219.598 156.337 219.487 156.109 219.266C155.888 219.038 155.777 218.729 155.777 218.338ZM165.855 232.195C164.221 232.195 162.978 231.72 162.125 230.77C161.279 229.812 160.855 228.442 160.855 226.658C160.855 224.842 161.298 223.445 162.184 222.469C163.076 221.492 164.361 221.004 166.041 221.004C167.18 221.004 168.206 221.215 169.117 221.639L168.424 223.484C167.454 223.107 166.653 222.918 166.021 222.918C164.153 222.918 163.219 224.158 163.219 226.639C163.219 227.85 163.45 228.761 163.912 229.373C164.381 229.979 165.064 230.281 165.963 230.281C166.985 230.281 167.952 230.027 168.863 229.52V231.521C168.453 231.762 168.014 231.935 167.545 232.039C167.083 232.143 166.52 232.195 165.855 232.195ZM176.119 232.195C174.439 232.195 173.124 231.707 172.174 230.73C171.23 229.747 170.758 228.396 170.758 226.678C170.758 224.913 171.197 223.527 172.076 222.518C172.955 221.508 174.163 221.004 175.699 221.004C177.125 221.004 178.251 221.437 179.078 222.303C179.905 223.169 180.318 224.36 180.318 225.877V227.117H173.121C173.154 228.165 173.437 228.973 173.971 229.539C174.505 230.099 175.257 230.379 176.227 230.379C176.865 230.379 177.457 230.32 178.004 230.203C178.557 230.079 179.15 229.878 179.781 229.598V231.463C179.221 231.73 178.655 231.919 178.082 232.029C177.509 232.14 176.855 232.195 176.119 232.195ZM175.699 222.742C174.97 222.742 174.384 222.973 173.941 223.436C173.505 223.898 173.245 224.572 173.16 225.457H178.062C178.049 224.565 177.835 223.891 177.418 223.436C177.001 222.973 176.428 222.742 175.699 222.742ZM184.049 227.664V227.039C184.049 226.323 184.179 225.727 184.439 225.252C184.7 224.777 185.156 224.285 185.807 223.777C186.581 223.165 187.079 222.69 187.301 222.352C187.529 222.013 187.643 221.609 187.643 221.141C187.643 220.594 187.46 220.174 187.096 219.881C186.731 219.588 186.207 219.441 185.523 219.441C184.905 219.441 184.332 219.529 183.805 219.705C183.277 219.881 182.763 220.092 182.262 220.34L181.441 218.621C182.763 217.885 184.179 217.518 185.689 217.518C186.965 217.518 187.978 217.83 188.727 218.455C189.475 219.08 189.85 219.943 189.85 221.043C189.85 221.531 189.778 221.967 189.635 222.352C189.492 222.729 189.273 223.09 188.98 223.436C188.694 223.781 188.196 224.23 187.486 224.783C186.881 225.258 186.474 225.652 186.266 225.965C186.064 226.277 185.963 226.697 185.963 227.225V227.664H184.049ZM183.648 230.779C183.648 229.796 184.127 229.305 185.084 229.305C185.553 229.305 185.911 229.435 186.158 229.695C186.406 229.949 186.529 230.311 186.529 230.779C186.529 231.242 186.402 231.609 186.148 231.883C185.901 232.15 185.546 232.283 185.084 232.283C184.622 232.283 184.267 232.153 184.02 231.893C183.772 231.626 183.648 231.255 183.648 230.779Z" fill="#424E54"/>
<path d="M129.086 279H127.758V268.758H124.141V267.578H132.703V268.758H129.086V279ZM140.094 279V273.461C140.094 272.763 139.935 272.242 139.617 271.898C139.299 271.555 138.802 271.383 138.125 271.383C137.224 271.383 136.565 271.628 136.148 272.117C135.737 272.607 135.531 273.409 135.531 274.523V279H134.234V266.844H135.531V270.523C135.531 270.966 135.51 271.333 135.469 271.625H135.547C135.802 271.214 136.164 270.891 136.633 270.656C137.107 270.417 137.646 270.297 138.25 270.297C139.297 270.297 140.081 270.547 140.602 271.047C141.128 271.542 141.391 272.331 141.391 273.414V279H140.094ZM145.359 279H144.062V270.438H145.359V279ZM143.953 268.117C143.953 267.82 144.026 267.604 144.172 267.469C144.318 267.328 144.5 267.258 144.719 267.258C144.927 267.258 145.107 267.328 145.258 267.469C145.409 267.609 145.484 267.826 145.484 268.117C145.484 268.409 145.409 268.628 145.258 268.773C145.107 268.914 144.927 268.984 144.719 268.984C144.5 268.984 144.318 268.914 144.172 268.773C144.026 268.628 143.953 268.409 143.953 268.117ZM153.633 276.664C153.633 277.461 153.336 278.076 152.742 278.508C152.148 278.94 151.315 279.156 150.242 279.156C149.107 279.156 148.221 278.977 147.586 278.617V277.414C147.997 277.622 148.438 277.786 148.906 277.906C149.38 278.026 149.836 278.086 150.273 278.086C150.951 278.086 151.471 277.979 151.836 277.766C152.201 277.547 152.383 277.216 152.383 276.773C152.383 276.44 152.237 276.156 151.945 275.922C151.659 275.682 151.096 275.401 150.258 275.078C149.461 274.781 148.893 274.523 148.555 274.305C148.221 274.081 147.971 273.828 147.805 273.547C147.643 273.266 147.562 272.93 147.562 272.539C147.562 271.841 147.846 271.292 148.414 270.891C148.982 270.484 149.76 270.281 150.75 270.281C151.672 270.281 152.573 270.469 153.453 270.844L152.992 271.898C152.133 271.544 151.354 271.367 150.656 271.367C150.042 271.367 149.578 271.464 149.266 271.656C148.953 271.849 148.797 272.115 148.797 272.453C148.797 272.682 148.854 272.878 148.969 273.039C149.089 273.201 149.279 273.354 149.539 273.5C149.799 273.646 150.299 273.857 151.039 274.133C152.055 274.503 152.74 274.875 153.094 275.25C153.453 275.625 153.633 276.096 153.633 276.664ZM165.172 279L164.914 277.781H164.852C164.424 278.318 163.997 278.682 163.57 278.875C163.148 279.062 162.62 279.156 161.984 279.156C161.135 279.156 160.469 278.938 159.984 278.5C159.505 278.062 159.266 277.44 159.266 276.633C159.266 274.904 160.648 273.997 163.414 273.914L164.867 273.867V273.336C164.867 272.664 164.721 272.169 164.43 271.852C164.143 271.529 163.682 271.367 163.047 271.367C162.333 271.367 161.526 271.586 160.625 272.023L160.227 271.031C160.648 270.802 161.109 270.622 161.609 270.492C162.115 270.362 162.62 270.297 163.125 270.297C164.146 270.297 164.901 270.523 165.391 270.977C165.885 271.43 166.133 272.156 166.133 273.156V279H165.172ZM162.242 278.086C163.049 278.086 163.682 277.865 164.141 277.422C164.604 276.979 164.836 276.359 164.836 275.562V274.789L163.539 274.844C162.508 274.88 161.763 275.042 161.305 275.328C160.852 275.609 160.625 276.049 160.625 276.648C160.625 277.117 160.766 277.474 161.047 277.719C161.333 277.964 161.732 278.086 162.242 278.086ZM172.234 279.156C170.995 279.156 170.034 278.776 169.352 278.016C168.674 277.25 168.336 276.169 168.336 274.773C168.336 273.341 168.68 272.234 169.367 271.453C170.06 270.672 171.044 270.281 172.32 270.281C172.732 270.281 173.143 270.326 173.555 270.414C173.966 270.503 174.289 270.607 174.523 270.727L174.125 271.828C173.839 271.714 173.526 271.62 173.188 271.547C172.849 271.469 172.549 271.43 172.289 271.43C170.549 271.43 169.68 272.539 169.68 274.758C169.68 275.81 169.891 276.617 170.312 277.18C170.74 277.742 171.37 278.023 172.203 278.023C172.917 278.023 173.648 277.87 174.398 277.562V278.711C173.826 279.008 173.104 279.156 172.234 279.156ZM179.203 278.086C179.432 278.086 179.654 278.07 179.867 278.039C180.081 278.003 180.25 277.966 180.375 277.93V278.922C180.234 278.99 180.026 279.044 179.75 279.086C179.479 279.133 179.234 279.156 179.016 279.156C177.359 279.156 176.531 278.284 176.531 276.539V271.445H175.305V270.82L176.531 270.281L177.078 268.453H177.828V270.438H180.312V271.445H177.828V276.484C177.828 277 177.951 277.396 178.195 277.672C178.44 277.948 178.776 278.086 179.203 278.086ZM183.391 279H182.094V270.438H183.391V279ZM181.984 268.117C181.984 267.82 182.057 267.604 182.203 267.469C182.349 267.328 182.531 267.258 182.75 267.258C182.958 267.258 183.138 267.328 183.289 267.469C183.44 267.609 183.516 267.826 183.516 268.117C183.516 268.409 183.44 268.628 183.289 268.773C183.138 268.914 182.958 268.984 182.75 268.984C182.531 268.984 182.349 268.914 182.203 268.773C182.057 268.628 181.984 268.409 181.984 268.117ZM193.531 274.711C193.531 276.107 193.18 277.198 192.477 277.984C191.773 278.766 190.802 279.156 189.562 279.156C188.797 279.156 188.117 278.977 187.523 278.617C186.93 278.258 186.471 277.742 186.148 277.07C185.826 276.398 185.664 275.612 185.664 274.711C185.664 273.315 186.013 272.229 186.711 271.453C187.409 270.672 188.378 270.281 189.617 270.281C190.815 270.281 191.766 270.68 192.469 271.477C193.177 272.273 193.531 273.352 193.531 274.711ZM187.008 274.711C187.008 275.805 187.227 276.638 187.664 277.211C188.102 277.784 188.745 278.07 189.594 278.07C190.443 278.07 191.086 277.786 191.523 277.219C191.966 276.646 192.188 275.81 192.188 274.711C192.188 273.622 191.966 272.797 191.523 272.234C191.086 271.667 190.438 271.383 189.578 271.383C188.729 271.383 188.089 271.661 187.656 272.219C187.224 272.776 187.008 273.607 187.008 274.711ZM201.672 279V273.461C201.672 272.763 201.513 272.242 201.195 271.898C200.878 271.555 200.38 271.383 199.703 271.383C198.807 271.383 198.151 271.625 197.734 272.109C197.318 272.594 197.109 273.393 197.109 274.508V279H195.812V270.438H196.867L197.078 271.609H197.141C197.406 271.188 197.779 270.862 198.258 270.633C198.737 270.398 199.271 270.281 199.859 270.281C200.891 270.281 201.667 270.531 202.188 271.031C202.708 271.526 202.969 272.32 202.969 273.414V279H201.672ZM213.219 279.156C211.979 279.156 211.018 278.776 210.336 278.016C209.659 277.25 209.32 276.169 209.32 274.773C209.32 273.341 209.664 272.234 210.352 271.453C211.044 270.672 212.029 270.281 213.305 270.281C213.716 270.281 214.128 270.326 214.539 270.414C214.951 270.503 215.273 270.607 215.508 270.727L215.109 271.828C214.823 271.714 214.51 271.62 214.172 271.547C213.833 271.469 213.534 271.43 213.273 271.43C211.534 271.43 210.664 272.539 210.664 274.758C210.664 275.81 210.875 276.617 211.297 277.18C211.724 277.742 212.354 278.023 213.188 278.023C213.901 278.023 214.633 277.87 215.383 277.562V278.711C214.81 279.008 214.089 279.156 213.219 279.156ZM222.688 279L222.43 277.781H222.367C221.94 278.318 221.513 278.682 221.086 278.875C220.664 279.062 220.135 279.156 219.5 279.156C218.651 279.156 217.984 278.938 217.5 278.5C217.021 278.062 216.781 277.44 216.781 276.633C216.781 274.904 218.164 273.997 220.93 273.914L222.383 273.867V273.336C222.383 272.664 222.237 272.169 221.945 271.852C221.659 271.529 221.198 271.367 220.562 271.367C219.849 271.367 219.042 271.586 218.141 272.023L217.742 271.031C218.164 270.802 218.625 270.622 219.125 270.492C219.63 270.362 220.135 270.297 220.641 270.297C221.661 270.297 222.417 270.523 222.906 270.977C223.401 271.43 223.648 272.156 223.648 273.156V279H222.688ZM219.758 278.086C220.565 278.086 221.198 277.865 221.656 277.422C222.12 276.979 222.352 276.359 222.352 275.562V274.789L221.055 274.844C220.023 274.88 219.279 275.042 218.82 275.328C218.367 275.609 218.141 276.049 218.141 276.648C218.141 277.117 218.281 277.474 218.562 277.719C218.849 277.964 219.247 278.086 219.758 278.086ZM232.188 279V273.461C232.188 272.763 232.029 272.242 231.711 271.898C231.393 271.555 230.896 271.383 230.219 271.383C229.323 271.383 228.667 271.625 228.25 272.109C227.833 272.594 227.625 273.393 227.625 274.508V279H226.328V270.438H227.383L227.594 271.609H227.656C227.922 271.188 228.294 270.862 228.773 270.633C229.253 270.398 229.786 270.281 230.375 270.281C231.406 270.281 232.182 270.531 232.703 271.031C233.224 271.526 233.484 272.32 233.484 273.414V279H232.188ZM242.016 279V273.461C242.016 272.763 241.857 272.242 241.539 271.898C241.221 271.555 240.724 271.383 240.047 271.383C239.151 271.383 238.495 271.625 238.078 272.109C237.661 272.594 237.453 273.393 237.453 274.508V279H236.156V270.438H237.211L237.422 271.609H237.484C237.75 271.188 238.122 270.862 238.602 270.633C239.081 270.398 239.615 270.281 240.203 270.281C241.234 270.281 242.01 270.531 242.531 271.031C243.052 271.526 243.312 272.32 243.312 273.414V279H242.016ZM253.375 274.711C253.375 276.107 253.023 277.198 252.32 277.984C251.617 278.766 250.646 279.156 249.406 279.156C248.641 279.156 247.961 278.977 247.367 278.617C246.773 278.258 246.315 277.742 245.992 277.07C245.669 276.398 245.508 275.612 245.508 274.711C245.508 273.315 245.857 272.229 246.555 271.453C247.253 270.672 248.221 270.281 249.461 270.281C250.659 270.281 251.609 270.68 252.312 271.477C253.021 272.273 253.375 273.352 253.375 274.711ZM246.852 274.711C246.852 275.805 247.07 276.638 247.508 277.211C247.945 277.784 248.589 278.07 249.438 278.07C250.286 278.07 250.93 277.786 251.367 277.219C251.81 276.646 252.031 275.81 252.031 274.711C252.031 273.622 251.81 272.797 251.367 272.234C250.93 271.667 250.281 271.383 249.422 271.383C248.573 271.383 247.932 271.661 247.5 272.219C247.068 272.776 246.852 273.607 246.852 274.711ZM258.422 278.086C258.651 278.086 258.872 278.07 259.086 278.039C259.299 278.003 259.469 277.966 259.594 277.93V278.922C259.453 278.99 259.245 279.044 258.969 279.086C258.698 279.133 258.453 279.156 258.234 279.156C256.578 279.156 255.75 278.284 255.75 276.539V271.445H254.523V270.82L255.75 270.281L256.297 268.453H257.047V270.438H259.531V271.445H257.047V276.484C257.047 277 257.169 277.396 257.414 277.672C257.659 277.948 257.995 278.086 258.422 278.086ZM269.453 270.297C270.578 270.297 271.451 270.682 272.07 271.453C272.695 272.219 273.008 273.305 273.008 274.711C273.008 276.117 272.693 277.211 272.062 277.992C271.438 278.768 270.568 279.156 269.453 279.156C268.896 279.156 268.385 279.055 267.922 278.852C267.464 278.643 267.078 278.326 266.766 277.898H266.672L266.398 279H265.469V266.844H266.766V269.797C266.766 270.458 266.745 271.052 266.703 271.578H266.766C267.37 270.724 268.266 270.297 269.453 270.297ZM269.266 271.383C268.38 271.383 267.742 271.638 267.352 272.148C266.961 272.654 266.766 273.508 266.766 274.711C266.766 275.914 266.966 276.776 267.367 277.297C267.768 277.812 268.411 278.07 269.297 278.07C270.094 278.07 270.688 277.781 271.078 277.203C271.469 276.62 271.664 275.784 271.664 274.695C271.664 273.581 271.469 272.75 271.078 272.203C270.688 271.656 270.083 271.383 269.266 271.383ZM278.898 279.156C277.633 279.156 276.633 278.771 275.898 278C275.169 277.229 274.805 276.159 274.805 274.789C274.805 273.409 275.143 272.312 275.82 271.5C276.503 270.688 277.417 270.281 278.562 270.281C279.635 270.281 280.484 270.635 281.109 271.344C281.734 272.047 282.047 272.977 282.047 274.133V274.953H276.148C276.174 275.958 276.427 276.721 276.906 277.242C277.391 277.763 278.07 278.023 278.945 278.023C279.867 278.023 280.779 277.831 281.68 277.445V278.602C281.221 278.799 280.786 278.94 280.375 279.023C279.969 279.112 279.477 279.156 278.898 279.156ZM278.547 271.367C277.859 271.367 277.31 271.591 276.898 272.039C276.492 272.487 276.253 273.107 276.18 273.898H280.656C280.656 273.081 280.474 272.456 280.109 272.023C279.745 271.586 279.224 271.367 278.547 271.367ZM289.641 270.438V275.992C289.641 276.69 289.799 277.211 290.117 277.555C290.435 277.898 290.932 278.07 291.609 278.07C292.505 278.07 293.159 277.826 293.57 277.336C293.987 276.846 294.195 276.047 294.195 274.938V270.438H295.492V279H294.422L294.234 277.852H294.164C293.898 278.273 293.529 278.596 293.055 278.82C292.586 279.044 292.049 279.156 291.445 279.156C290.404 279.156 289.622 278.909 289.102 278.414C288.586 277.919 288.328 277.128 288.328 276.039V270.438H289.641ZM304.109 279V273.461C304.109 272.763 303.951 272.242 303.633 271.898C303.315 271.555 302.818 271.383 302.141 271.383C301.245 271.383 300.589 271.625 300.172 272.109C299.755 272.594 299.547 273.393 299.547 274.508V279H298.25V270.438H299.305L299.516 271.609H299.578C299.844 271.188 300.216 270.862 300.695 270.633C301.174 270.398 301.708 270.281 302.297 270.281C303.328 270.281 304.104 270.531 304.625 271.031C305.146 271.526 305.406 272.32 305.406 273.414V279H304.109ZM313.906 277.852H313.836C313.237 278.721 312.341 279.156 311.148 279.156C310.029 279.156 309.156 278.773 308.531 278.008C307.911 277.242 307.602 276.154 307.602 274.742C307.602 273.331 307.914 272.234 308.539 271.453C309.164 270.672 310.034 270.281 311.148 270.281C312.31 270.281 313.201 270.703 313.82 271.547H313.922L313.867 270.93L313.836 270.328V266.844H315.133V279H314.078L313.906 277.852ZM311.312 278.07C312.198 278.07 312.839 277.831 313.234 277.352C313.635 276.867 313.836 276.089 313.836 275.016V274.742C313.836 273.529 313.633 272.664 313.227 272.148C312.826 271.628 312.182 271.367 311.297 271.367C310.536 271.367 309.953 271.664 309.547 272.258C309.146 272.846 308.945 273.68 308.945 274.758C308.945 275.852 309.146 276.677 309.547 277.234C309.948 277.792 310.536 278.07 311.312 278.07ZM325.281 274.711C325.281 276.107 324.93 277.198 324.227 277.984C323.523 278.766 322.552 279.156 321.312 279.156C320.547 279.156 319.867 278.977 319.273 278.617C318.68 278.258 318.221 277.742 317.898 277.07C317.576 276.398 317.414 275.612 317.414 274.711C317.414 273.315 317.763 272.229 318.461 271.453C319.159 270.672 320.128 270.281 321.367 270.281C322.565 270.281 323.516 270.68 324.219 271.477C324.927 272.273 325.281 273.352 325.281 274.711ZM318.758 274.711C318.758 275.805 318.977 276.638 319.414 277.211C319.852 277.784 320.495 278.07 321.344 278.07C322.193 278.07 322.836 277.786 323.273 277.219C323.716 276.646 323.938 275.81 323.938 274.711C323.938 273.622 323.716 272.797 323.273 272.234C322.836 271.667 322.188 271.383 321.328 271.383C320.479 271.383 319.839 271.661 319.406 272.219C318.974 272.776 318.758 273.607 318.758 274.711ZM333.422 279V273.461C333.422 272.763 333.263 272.242 332.945 271.898C332.628 271.555 332.13 271.383 331.453 271.383C330.557 271.383 329.901 271.625 329.484 272.109C329.068 272.594 328.859 273.393 328.859 274.508V279H327.562V270.438H328.617L328.828 271.609H328.891C329.156 271.188 329.529 270.862 330.008 270.633C330.487 270.398 331.021 270.281 331.609 270.281C332.641 270.281 333.417 270.531 333.938 271.031C334.458 271.526 334.719 272.32 334.719 273.414V279H333.422ZM341.008 279.156C339.742 279.156 338.742 278.771 338.008 278C337.279 277.229 336.914 276.159 336.914 274.789C336.914 273.409 337.253 272.312 337.93 271.5C338.612 270.688 339.526 270.281 340.672 270.281C341.745 270.281 342.594 270.635 343.219 271.344C343.844 272.047 344.156 272.977 344.156 274.133V274.953H338.258C338.284 275.958 338.536 276.721 339.016 277.242C339.5 277.763 340.18 278.023 341.055 278.023C341.977 278.023 342.888 277.831 343.789 277.445V278.602C343.331 278.799 342.896 278.94 342.484 279.023C342.078 279.112 341.586 279.156 341.008 279.156ZM340.656 271.367C339.969 271.367 339.419 271.591 339.008 272.039C338.602 272.487 338.362 273.107 338.289 273.898H342.766C342.766 273.081 342.583 272.456 342.219 272.023C341.854 271.586 341.333 271.367 340.656 271.367ZM346.188 278.172C346.188 277.823 346.266 277.56 346.422 277.383C346.583 277.201 346.812 277.109 347.109 277.109C347.411 277.109 347.646 277.201 347.812 277.383C347.984 277.56 348.07 277.823 348.07 278.172C348.07 278.51 347.984 278.771 347.812 278.953C347.641 279.135 347.406 279.227 347.109 279.227C346.844 279.227 346.622 279.146 346.445 278.984C346.273 278.818 346.188 278.547 346.188 278.172Z" fill="#424E54"/>
<path d="M229.571 322.764C228.632 322.764 227.894 323.096 227.356 323.762C226.819 324.427 226.55 325.345 226.55 326.517C226.55 327.743 226.807 328.67 227.322 329.299C227.842 329.928 228.591 330.242 229.571 330.242C229.995 330.242 230.405 330.201 230.802 330.119C231.198 330.033 231.611 329.923 232.039 329.791V331.192C231.255 331.489 230.367 331.637 229.373 331.637C227.91 331.637 226.787 331.195 226.003 330.311C225.219 329.422 224.827 328.153 224.827 326.503C224.827 325.464 225.016 324.555 225.395 323.775C225.777 322.996 226.329 322.399 227.049 321.984C227.769 321.57 228.614 321.362 229.585 321.362C230.606 321.362 231.549 321.576 232.415 322.005L231.827 323.365C231.49 323.206 231.132 323.067 230.754 322.948C230.38 322.825 229.986 322.764 229.571 322.764ZM238.752 331.5L238.431 330.447H238.376C238.011 330.908 237.645 331.222 237.275 331.391C236.906 331.555 236.432 331.637 235.854 331.637C235.111 331.637 234.53 331.436 234.11 331.035C233.696 330.634 233.488 330.067 233.488 329.333C233.488 328.554 233.778 327.966 234.356 327.569C234.935 327.173 235.817 326.956 237.002 326.92L238.308 326.879V326.476C238.308 325.993 238.194 325.632 237.966 325.396C237.743 325.154 237.394 325.033 236.92 325.033C236.533 325.033 236.161 325.09 235.806 325.204C235.45 325.318 235.108 325.452 234.78 325.607L234.261 324.459C234.671 324.245 235.12 324.083 235.607 323.974C236.095 323.86 236.555 323.803 236.988 323.803C237.95 323.803 238.674 324.012 239.162 324.432C239.654 324.851 239.9 325.509 239.9 326.407V331.5H238.752ZM236.359 330.406C236.943 330.406 237.41 330.244 237.761 329.921C238.116 329.593 238.294 329.135 238.294 328.547V327.891L237.323 327.932C236.567 327.959 236.015 328.087 235.669 328.314C235.327 328.538 235.156 328.882 235.156 329.347C235.156 329.684 235.257 329.946 235.457 330.133C235.658 330.315 235.958 330.406 236.359 330.406ZM248.794 331.5H247.181V326.852C247.181 326.268 247.062 325.833 246.825 325.546C246.593 325.259 246.221 325.115 245.711 325.115C245.032 325.115 244.535 325.316 244.221 325.717C243.906 326.118 243.749 326.79 243.749 327.733V331.5H242.143V323.939H243.4L243.626 324.931H243.708C243.936 324.571 244.259 324.293 244.679 324.097C245.098 323.901 245.563 323.803 246.073 323.803C247.887 323.803 248.794 324.726 248.794 326.571V331.5ZM254.078 331.637C252.934 331.637 252.064 331.304 251.467 330.639C250.874 329.969 250.578 329.009 250.578 327.761C250.578 326.489 250.888 325.512 251.508 324.828C252.132 324.145 253.032 323.803 254.208 323.803C255.006 323.803 255.723 323.951 256.361 324.247L255.876 325.539C255.197 325.275 254.636 325.143 254.194 325.143C252.886 325.143 252.232 326.011 252.232 327.747C252.232 328.595 252.394 329.233 252.718 329.661C253.046 330.085 253.524 330.297 254.153 330.297C254.869 330.297 255.546 330.119 256.184 329.764V331.165C255.896 331.334 255.589 331.454 255.261 331.527C254.937 331.6 254.543 331.637 254.078 331.637ZM261.263 331.637C260.087 331.637 259.166 331.295 258.501 330.611C257.84 329.923 257.51 328.978 257.51 327.774C257.51 326.539 257.817 325.569 258.433 324.862C259.048 324.156 259.893 323.803 260.969 323.803C261.967 323.803 262.755 324.106 263.334 324.712C263.913 325.318 264.202 326.152 264.202 327.214V328.082H259.164C259.187 328.816 259.385 329.381 259.759 329.777C260.132 330.169 260.659 330.365 261.338 330.365C261.785 330.365 262.199 330.324 262.582 330.242C262.969 330.156 263.384 330.014 263.826 329.818V331.124C263.434 331.311 263.038 331.443 262.637 331.521C262.236 331.598 261.778 331.637 261.263 331.637ZM260.969 325.02C260.458 325.02 260.048 325.181 259.738 325.505C259.433 325.828 259.251 326.3 259.191 326.92H262.623C262.614 326.296 262.464 325.824 262.172 325.505C261.88 325.181 261.479 325.02 260.969 325.02ZM267.634 331.5H266.027V320.863H267.634V331.5Z" fill="#007BC1"/>
<rect x="208.5" y="308.5" width="76" height="35" rx="3.5" stroke="#007BC1"/>
<rect x="297" y="308" width="87" height="36" rx="4" fill="#007BC1"/>
<path d="M318.571 322.764C317.632 322.764 316.894 323.096 316.356 323.762C315.819 324.427 315.55 325.345 315.55 326.517C315.55 327.743 315.807 328.67 316.322 329.299C316.842 329.928 317.591 330.242 318.571 330.242C318.995 330.242 319.405 330.201 319.802 330.119C320.198 330.033 320.611 329.923 321.039 329.791V331.192C320.255 331.489 319.367 331.637 318.373 331.637C316.91 331.637 315.787 331.195 315.003 330.311C314.219 329.422 313.827 328.153 313.827 326.503C313.827 325.464 314.016 324.555 314.395 323.775C314.777 322.996 315.329 322.399 316.049 321.984C316.769 321.57 317.614 321.362 318.585 321.362C319.606 321.362 320.549 321.576 321.415 322.005L320.827 323.365C320.49 323.206 320.132 323.067 319.754 322.948C319.38 322.825 318.986 322.764 318.571 322.764ZM329.728 327.706C329.728 328.941 329.411 329.905 328.777 330.598C328.144 331.29 327.262 331.637 326.132 331.637C325.425 331.637 324.801 331.477 324.259 331.158C323.716 330.839 323.299 330.381 323.008 329.784C322.716 329.187 322.57 328.494 322.57 327.706C322.57 326.48 322.885 325.523 323.514 324.835C324.143 324.147 325.029 323.803 326.173 323.803C327.267 323.803 328.132 324.156 328.771 324.862C329.409 325.564 329.728 326.512 329.728 327.706ZM324.225 327.706C324.225 329.451 324.869 330.324 326.159 330.324C327.435 330.324 328.073 329.451 328.073 327.706C328.073 325.979 327.431 325.115 326.146 325.115C325.471 325.115 324.981 325.339 324.676 325.785C324.375 326.232 324.225 326.872 324.225 327.706ZM338.231 331.5H336.618V326.852C336.618 326.268 336.5 325.833 336.263 325.546C336.03 325.259 335.659 325.115 335.148 325.115C334.469 325.115 333.973 325.316 333.658 325.717C333.344 326.118 333.187 326.79 333.187 327.733V331.5H331.58V323.939H332.838L333.063 324.931H333.146C333.373 324.571 333.697 324.293 334.116 324.097C334.535 323.901 335 323.803 335.511 323.803C337.325 323.803 338.231 324.726 338.231 326.571V331.5ZM344.261 325.156H342.415V331.5H340.802V325.156H339.558V324.404L340.802 323.912V323.42C340.802 322.527 341.011 321.866 341.431 321.438C341.85 321.005 342.49 320.788 343.352 320.788C343.917 320.788 344.473 320.882 345.02 321.068L344.596 322.285C344.199 322.158 343.821 322.094 343.461 322.094C343.096 322.094 342.83 322.208 342.661 322.436C342.497 322.659 342.415 322.996 342.415 323.447V323.939H344.261V325.156ZM347.159 331.5H345.553V323.939H347.159V331.5ZM345.457 321.937C345.457 321.649 345.535 321.428 345.689 321.273C345.849 321.118 346.075 321.041 346.366 321.041C346.649 321.041 346.868 321.118 347.022 321.273C347.182 321.428 347.262 321.649 347.262 321.937C347.262 322.21 347.182 322.426 347.022 322.586C346.868 322.741 346.649 322.818 346.366 322.818C346.075 322.818 345.849 322.741 345.689 322.586C345.535 322.426 345.457 322.21 345.457 321.937ZM353.298 323.803C353.621 323.803 353.888 323.826 354.098 323.871L353.94 325.368C353.713 325.313 353.476 325.286 353.229 325.286C352.587 325.286 352.065 325.496 351.664 325.915C351.268 326.334 351.069 326.879 351.069 327.549V331.5H349.463V323.939H350.721L350.933 325.272H351.015C351.265 324.821 351.591 324.464 351.992 324.199C352.398 323.935 352.833 323.803 353.298 323.803ZM361.877 331.5H360.264V326.838C360.264 326.259 360.154 325.828 359.936 325.546C359.717 325.259 359.375 325.115 358.91 325.115C358.29 325.115 357.835 325.318 357.543 325.724C357.256 326.125 357.112 326.795 357.112 327.733V331.5H355.506V323.939H356.764L356.989 324.931H357.071C357.281 324.571 357.584 324.293 357.98 324.097C358.382 323.901 358.821 323.803 359.3 323.803C360.462 323.803 361.232 324.199 361.61 324.992H361.72C361.943 324.618 362.257 324.327 362.663 324.117C363.069 323.908 363.534 323.803 364.058 323.803C364.96 323.803 365.616 324.031 366.026 324.486C366.441 324.942 366.648 325.637 366.648 326.571V331.5H365.042V326.838C365.042 326.259 364.93 325.828 364.707 325.546C364.488 325.259 364.146 325.115 363.682 325.115C363.057 325.115 362.599 325.311 362.308 325.703C362.021 326.09 361.877 326.688 361.877 327.494V331.5Z" fill="white"/>
</g>
</g>
<defs>
<filter id="filter0_ddd_5174_239782" x="74" y="120" width="352" height="271" filterUnits="userSpaceOnUse" color-interpolation-filters="sRGB">
<feFlood flood-opacity="0" result="BackgroundImageFix"/>
<feColorMatrix in="SourceAlpha" type="matrix" values="0 0 0 0 0 0 0 0 0 0 0 0 0 0 0 0 0 0 127 0" result="hardAlpha"/>
<feMorphology radius="4" operator="dilate" in="SourceAlpha" result="effect1_dropShadow_5174_239782"/>
<feOffset dy="5"/>
<feGaussianBlur stdDeviation="11"/>
<feColorMatrix type="matrix" values="0 0 0 0 0 0 0 0 0 0 0 0 0 0 0 0 0 0 0.12 0"/>
<feBlend mode="normal" in2="BackgroundImageFix" result="effect1_dropShadow_5174_239782"/>
<feColorMatrix in="SourceAlpha" type="matrix" values="0 0 0 0 0 0 0 0 0 0 0 0 0 0 0 0 0 0 127 0" result="hardAlpha"/>
<feMorphology radius="2" operator="dilate" in="SourceAlpha" result="effect2_dropShadow_5174_239782"/>
<feOffset dy="12"/>
<feGaussianBlur stdDeviation="8.5"/>
<feColorMatrix type="matrix" values="0 0 0 0 0.258824 0 0 0 0 0.305882 0 0 0 0 0.329412 0 0 0 0.14 0"/>
<feBlend mode="normal" in2="effect1_dropShadow_5174_239782" result="effect2_dropShadow_5174_239782"/>
<feColorMatrix in="SourceAlpha" type="matrix" values="0 0 0 0 0 0 0 0 0 0 0 0 0 0 0 0 0 0 127 0" result="hardAlpha"/>
<feMorphology radius="4" operator="erode" in="SourceAlpha" result="effect3_dropShadow_5174_239782"/>
<feOffset dy="7"/>
<feGaussianBlur stdDeviation="4"/>
<feColorMatrix type="matrix" values="0 0 0 0 0 0 0 0 0 0 0 0 0 0 0 0 0 0 0.2 0"/>
<feBlend mode="normal" in2="effect2_dropShadow_5174_239782" result="effect3_dropShadow_5174_239782"/>
<feBlend mode="normal" in="SourceGraphic" in2="effect3_dropShadow_5174_239782" result="shape"/>
</filter>
<clipPath id="clip0_5174_239782">
<rect x="100" y="141" width="300" height="219" rx="4" fill="white"/>
</clipPath>
</defs>
</svg>
