<svg width="500" height="500" viewBox="0 0 500 500" fill="none" xmlns="http://www.w3.org/2000/svg">
<rect width="500" height="500" fill="#E2E5E5"/>
<g filter="url(#filter0_ddd_5174_239593)">
<g clip-path="url(#clip0_5174_239593)">
<rect x="100" y="113" width="300" height="275" rx="4" fill="white"/>
<path d="M135.338 140.039C135.338 141.53 134.85 142.673 133.873 143.467C132.896 144.261 131.507 144.658 129.703 144.658H128.219V150H125.885V135.723H129.996C131.78 135.723 133.115 136.087 134 136.816C134.892 137.546 135.338 138.62 135.338 140.039ZM128.219 142.695H129.459C130.657 142.695 131.536 142.487 132.096 142.07C132.656 141.654 132.936 141.003 132.936 140.117C132.936 139.297 132.685 138.685 132.184 138.281C131.682 137.878 130.901 137.676 129.84 137.676H128.219V142.695ZM142.662 150.195C140.982 150.195 139.667 149.707 138.717 148.73C137.773 147.747 137.301 146.396 137.301 144.678C137.301 142.913 137.74 141.527 138.619 140.518C139.498 139.508 140.706 139.004 142.242 139.004C143.668 139.004 144.794 139.437 145.621 140.303C146.448 141.169 146.861 142.36 146.861 143.877V145.117H139.664C139.697 146.165 139.98 146.973 140.514 147.539C141.048 148.099 141.799 148.379 142.77 148.379C143.408 148.379 144 148.32 144.547 148.203C145.1 148.079 145.693 147.878 146.324 147.598V149.463C145.764 149.73 145.198 149.919 144.625 150.029C144.052 150.14 143.398 150.195 142.662 150.195ZM142.242 140.742C141.513 140.742 140.927 140.973 140.484 141.436C140.048 141.898 139.788 142.572 139.703 143.457H144.605C144.592 142.565 144.378 141.891 143.961 141.436C143.544 140.973 142.971 140.742 142.242 140.742ZM154.947 139.004C155.41 139.004 155.79 139.036 156.09 139.102L155.865 141.24C155.54 141.162 155.201 141.123 154.85 141.123C153.932 141.123 153.186 141.423 152.613 142.021C152.047 142.62 151.764 143.398 151.764 144.355V150H149.469V139.199H151.266L151.568 141.104H151.686C152.044 140.459 152.509 139.948 153.082 139.57C153.661 139.193 154.283 139.004 154.947 139.004ZM167.203 150H164.898V143.34C164.898 142.513 164.742 141.898 164.43 141.494C164.117 141.084 163.629 140.879 162.965 140.879C162.079 140.879 161.428 141.169 161.012 141.748C160.602 142.321 160.396 143.278 160.396 144.619V150H158.102V139.199H159.898L160.221 140.615H160.338C160.637 140.101 161.07 139.704 161.637 139.424C162.21 139.144 162.838 139.004 163.521 139.004C165.182 139.004 166.282 139.57 166.822 140.703H166.979C167.298 140.169 167.747 139.753 168.326 139.453C168.906 139.154 169.57 139.004 170.318 139.004C171.607 139.004 172.545 139.329 173.131 139.98C173.723 140.632 174.02 141.624 174.02 142.959V150H171.725V143.34C171.725 142.513 171.565 141.898 171.246 141.494C170.934 141.084 170.445 140.879 169.781 140.879C168.889 140.879 168.235 141.159 167.818 141.719C167.408 142.272 167.203 143.125 167.203 144.277V150ZM183.98 150L183.521 148.496H183.443C182.923 149.154 182.398 149.603 181.871 149.844C181.344 150.078 180.667 150.195 179.84 150.195C178.779 150.195 177.949 149.909 177.35 149.336C176.757 148.763 176.461 147.952 176.461 146.904C176.461 145.791 176.874 144.951 177.701 144.385C178.528 143.818 179.788 143.509 181.48 143.457L183.346 143.398V142.822C183.346 142.132 183.183 141.618 182.857 141.279C182.538 140.934 182.04 140.762 181.363 140.762C180.81 140.762 180.279 140.843 179.771 141.006C179.264 141.169 178.775 141.361 178.307 141.582L177.564 139.941C178.15 139.635 178.792 139.404 179.488 139.248C180.185 139.085 180.842 139.004 181.461 139.004C182.835 139.004 183.87 139.303 184.566 139.902C185.27 140.501 185.621 141.442 185.621 142.725V150H183.98ZM180.562 148.438C181.396 148.438 182.063 148.206 182.564 147.744C183.072 147.275 183.326 146.621 183.326 145.781V144.844L181.939 144.902C180.859 144.941 180.071 145.124 179.576 145.449C179.088 145.768 178.844 146.26 178.844 146.924C178.844 147.406 178.987 147.78 179.273 148.047C179.56 148.307 179.99 148.438 180.562 148.438ZM198.326 150H196.021V143.359C196.021 142.526 195.852 141.904 195.514 141.494C195.182 141.084 194.651 140.879 193.922 140.879C192.952 140.879 192.242 141.165 191.793 141.738C191.344 142.311 191.119 143.271 191.119 144.619V150H188.824V139.199H190.621L190.943 140.615H191.061C191.386 140.101 191.848 139.704 192.447 139.424C193.046 139.144 193.71 139.004 194.439 139.004C197.031 139.004 198.326 140.322 198.326 142.959V150ZM206.236 150.195C204.557 150.195 203.242 149.707 202.291 148.73C201.347 147.747 200.875 146.396 200.875 144.678C200.875 142.913 201.314 141.527 202.193 140.518C203.072 139.508 204.28 139.004 205.816 139.004C207.242 139.004 208.368 139.437 209.195 140.303C210.022 141.169 210.436 142.36 210.436 143.877V145.117H203.238C203.271 146.165 203.554 146.973 204.088 147.539C204.622 148.099 205.374 148.379 206.344 148.379C206.982 148.379 207.574 148.32 208.121 148.203C208.674 148.079 209.267 147.878 209.898 147.598V149.463C209.339 149.73 208.772 149.919 208.199 150.029C207.626 150.14 206.972 150.195 206.236 150.195ZM205.816 140.742C205.087 140.742 204.501 140.973 204.059 141.436C203.622 141.898 203.362 142.572 203.277 143.457H208.18C208.167 142.565 207.952 141.891 207.535 141.436C207.118 140.973 206.546 140.742 205.816 140.742ZM222.545 150H220.24V143.359C220.24 142.526 220.071 141.904 219.732 141.494C219.4 141.084 218.87 140.879 218.141 140.879C217.171 140.879 216.461 141.165 216.012 141.738C215.562 142.311 215.338 143.271 215.338 144.619V150H213.043V139.199H214.84L215.162 140.615H215.279C215.605 140.101 216.067 139.704 216.666 139.424C217.265 139.144 217.929 139.004 218.658 139.004C221.249 139.004 222.545 140.322 222.545 142.959V150ZM229.762 148.34C230.322 148.34 230.882 148.252 231.441 148.076V149.805C231.188 149.915 230.859 150.007 230.455 150.078C230.058 150.156 229.645 150.195 229.215 150.195C227.04 150.195 225.953 149.049 225.953 146.758V140.938H224.479V139.922L226.061 139.082L226.842 136.797H228.258V139.199H231.334V140.938H228.258V146.719C228.258 147.272 228.395 147.682 228.668 147.949C228.948 148.21 229.312 148.34 229.762 148.34ZM235.904 150H233.609V134.805H235.904V150ZM237.555 139.199H240.055L242.252 145.322C242.584 146.195 242.805 147.015 242.916 147.783H242.994C243.053 147.425 243.16 146.992 243.316 146.484C243.473 145.97 244.299 143.542 245.797 139.199H248.277L243.658 151.436C242.818 153.682 241.419 154.805 239.459 154.805C238.951 154.805 238.456 154.749 237.975 154.639V152.822C238.32 152.9 238.714 152.939 239.156 152.939C240.263 152.939 241.041 152.298 241.49 151.016L241.891 150L237.555 139.199ZM258.756 150.195C257.408 150.195 256.357 149.707 255.602 148.73C254.846 147.754 254.469 146.383 254.469 144.619C254.469 142.848 254.85 141.471 255.611 140.488C256.38 139.499 257.441 139.004 258.795 139.004C260.214 139.004 261.295 139.528 262.037 140.576H262.154C262.044 139.801 261.988 139.189 261.988 138.74V134.805H264.293V150H262.496L262.096 148.584H261.988C261.253 149.658 260.175 150.195 258.756 150.195ZM259.371 148.34C260.315 148.34 261.002 148.076 261.432 147.549C261.861 147.015 262.083 146.152 262.096 144.961V144.639C262.096 143.278 261.874 142.311 261.432 141.738C260.989 141.165 260.296 140.879 259.352 140.879C258.544 140.879 257.923 141.208 257.486 141.865C257.05 142.516 256.832 143.447 256.832 144.658C256.832 145.856 257.044 146.771 257.467 147.402C257.89 148.027 258.525 148.34 259.371 148.34ZM272.291 150.195C270.611 150.195 269.296 149.707 268.346 148.73C267.402 147.747 266.93 146.396 266.93 144.678C266.93 142.913 267.369 141.527 268.248 140.518C269.127 139.508 270.335 139.004 271.871 139.004C273.297 139.004 274.423 139.437 275.25 140.303C276.077 141.169 276.49 142.36 276.49 143.877V145.117H269.293C269.326 146.165 269.609 146.973 270.143 147.539C270.676 148.099 271.428 148.379 272.398 148.379C273.036 148.379 273.629 148.32 274.176 148.203C274.729 148.079 275.322 147.878 275.953 147.598V149.463C275.393 149.73 274.827 149.919 274.254 150.029C273.681 150.14 273.027 150.195 272.291 150.195ZM271.871 140.742C271.142 140.742 270.556 140.973 270.113 141.436C269.677 141.898 269.417 142.572 269.332 143.457H274.234C274.221 142.565 274.007 141.891 273.59 141.436C273.173 140.973 272.6 140.742 271.871 140.742ZM281.393 150H279.098V134.805H281.393V150ZM289.4 150.195C287.721 150.195 286.406 149.707 285.455 148.73C284.511 147.747 284.039 146.396 284.039 144.678C284.039 142.913 284.479 141.527 285.357 140.518C286.236 139.508 287.444 139.004 288.98 139.004C290.406 139.004 291.533 139.437 292.359 140.303C293.186 141.169 293.6 142.36 293.6 143.877V145.117H286.402C286.435 146.165 286.718 146.973 287.252 147.539C287.786 148.099 288.538 148.379 289.508 148.379C290.146 148.379 290.738 148.32 291.285 148.203C291.839 148.079 292.431 147.878 293.062 147.598V149.463C292.503 149.73 291.936 149.919 291.363 150.029C290.79 150.14 290.136 150.195 289.4 150.195ZM288.98 140.742C288.251 140.742 287.665 140.973 287.223 141.436C286.786 141.898 286.526 142.572 286.441 143.457H291.344C291.331 142.565 291.116 141.891 290.699 141.436C290.283 140.973 289.71 140.742 288.98 140.742ZM300.23 148.34C300.79 148.34 301.35 148.252 301.91 148.076V149.805C301.656 149.915 301.327 150.007 300.924 150.078C300.527 150.156 300.113 150.195 299.684 150.195C297.509 150.195 296.422 149.049 296.422 146.758V140.938H294.947V139.922L296.529 139.082L297.311 136.797H298.727V139.199H301.803V140.938H298.727V146.719C298.727 147.272 298.863 147.682 299.137 147.949C299.417 148.21 299.781 148.34 300.23 148.34ZM308.795 150.195C307.115 150.195 305.8 149.707 304.85 148.73C303.906 147.747 303.434 146.396 303.434 144.678C303.434 142.913 303.873 141.527 304.752 140.518C305.631 139.508 306.839 139.004 308.375 139.004C309.801 139.004 310.927 139.437 311.754 140.303C312.581 141.169 312.994 142.36 312.994 143.877V145.117H305.797C305.829 146.165 306.113 146.973 306.646 147.539C307.18 148.099 307.932 148.379 308.902 148.379C309.54 148.379 310.133 148.32 310.68 148.203C311.233 148.079 311.826 147.878 312.457 147.598V149.463C311.897 149.73 311.331 149.919 310.758 150.029C310.185 150.14 309.531 150.195 308.795 150.195ZM308.375 140.742C307.646 140.742 307.06 140.973 306.617 141.436C306.181 141.898 305.921 142.572 305.836 143.457H310.738C310.725 142.565 310.51 141.891 310.094 141.436C309.677 140.973 309.104 140.742 308.375 140.742ZM327.555 150L327.096 148.496H327.018C326.497 149.154 325.973 149.603 325.445 149.844C324.918 150.078 324.241 150.195 323.414 150.195C322.353 150.195 321.523 149.909 320.924 149.336C320.331 148.763 320.035 147.952 320.035 146.904C320.035 145.791 320.449 144.951 321.275 144.385C322.102 143.818 323.362 143.509 325.055 143.457L326.92 143.398V142.822C326.92 142.132 326.757 141.618 326.432 141.279C326.113 140.934 325.615 140.762 324.938 140.762C324.384 140.762 323.854 140.843 323.346 141.006C322.838 141.169 322.35 141.361 321.881 141.582L321.139 139.941C321.725 139.635 322.366 139.404 323.062 139.248C323.759 139.085 324.417 139.004 325.035 139.004C326.409 139.004 327.444 139.303 328.141 139.902C328.844 140.501 329.195 141.442 329.195 142.725V150H327.555ZM324.137 148.438C324.97 148.438 325.637 148.206 326.139 147.744C326.646 147.275 326.9 146.621 326.9 145.781V144.844L325.514 144.902C324.433 144.941 323.645 145.124 323.15 145.449C322.662 145.768 322.418 146.26 322.418 146.924C322.418 147.406 322.561 147.78 322.848 148.047C323.134 148.307 323.564 148.438 324.137 148.438ZM334.693 150H332.398V134.805H334.693V150ZM340.279 150H337.984V134.805H340.279V150ZM129.283 177.195C127.936 177.195 126.884 176.707 126.129 175.73C125.374 174.754 124.996 173.383 124.996 171.619C124.996 169.848 125.377 168.471 126.139 167.488C126.907 166.499 127.968 166.004 129.322 166.004C130.742 166.004 131.822 166.528 132.564 167.576H132.682C132.571 166.801 132.516 166.189 132.516 165.74V161.805H134.82V177H133.023L132.623 175.584H132.516C131.78 176.658 130.702 177.195 129.283 177.195ZM129.898 175.34C130.842 175.34 131.529 175.076 131.959 174.549C132.389 174.015 132.61 173.152 132.623 171.961V171.639C132.623 170.278 132.402 169.311 131.959 168.738C131.516 168.165 130.823 167.879 129.879 167.879C129.072 167.879 128.45 168.208 128.014 168.865C127.577 169.516 127.359 170.447 127.359 171.658C127.359 172.856 127.571 173.771 127.994 174.402C128.417 175.027 129.052 175.34 129.898 175.34ZM142.818 177.195C141.139 177.195 139.824 176.707 138.873 175.73C137.929 174.747 137.457 173.396 137.457 171.678C137.457 169.913 137.896 168.527 138.775 167.518C139.654 166.508 140.862 166.004 142.398 166.004C143.824 166.004 144.951 166.437 145.777 167.303C146.604 168.169 147.018 169.36 147.018 170.877V172.117H139.82C139.853 173.165 140.136 173.973 140.67 174.539C141.204 175.099 141.956 175.379 142.926 175.379C143.564 175.379 144.156 175.32 144.703 175.203C145.257 175.079 145.849 174.878 146.48 174.598V176.463C145.921 176.73 145.354 176.919 144.781 177.029C144.208 177.14 143.554 177.195 142.818 177.195ZM142.398 167.742C141.669 167.742 141.083 167.973 140.641 168.436C140.204 168.898 139.944 169.572 139.859 170.457H144.762C144.749 169.565 144.534 168.891 144.117 168.436C143.701 167.973 143.128 167.742 142.398 167.742ZM152.086 177L147.984 166.199H150.406L152.604 172.479C152.981 173.533 153.209 174.386 153.287 175.037H153.365C153.424 174.568 153.652 173.715 154.049 172.479L156.246 166.199H158.688L154.566 177H152.086ZM162.623 177H160.328V166.199H162.623V177ZM160.191 163.338C160.191 162.928 160.302 162.612 160.523 162.391C160.751 162.169 161.074 162.059 161.49 162.059C161.894 162.059 162.206 162.169 162.428 162.391C162.656 162.612 162.77 162.928 162.77 163.338C162.77 163.729 162.656 164.038 162.428 164.266C162.206 164.487 161.894 164.598 161.49 164.598C161.074 164.598 160.751 164.487 160.523 164.266C160.302 164.038 160.191 163.729 160.191 163.338ZM170.27 177.195C168.635 177.195 167.392 176.72 166.539 175.77C165.693 174.812 165.27 173.442 165.27 171.658C165.27 169.842 165.712 168.445 166.598 167.469C167.49 166.492 168.775 166.004 170.455 166.004C171.594 166.004 172.62 166.215 173.531 166.639L172.838 168.484C171.868 168.107 171.067 167.918 170.436 167.918C168.567 167.918 167.633 169.158 167.633 171.639C167.633 172.85 167.864 173.761 168.326 174.373C168.795 174.979 169.479 175.281 170.377 175.281C171.399 175.281 172.366 175.027 173.277 174.52V176.521C172.867 176.762 172.428 176.935 171.959 177.039C171.497 177.143 170.934 177.195 170.27 177.195ZM180.533 177.195C178.854 177.195 177.538 176.707 176.588 175.73C175.644 174.747 175.172 173.396 175.172 171.678C175.172 169.913 175.611 168.527 176.49 167.518C177.369 166.508 178.577 166.004 180.113 166.004C181.539 166.004 182.665 166.437 183.492 167.303C184.319 168.169 184.732 169.36 184.732 170.877V172.117H177.535C177.568 173.165 177.851 173.973 178.385 174.539C178.919 175.099 179.671 175.379 180.641 175.379C181.279 175.379 181.871 175.32 182.418 175.203C182.971 175.079 183.564 174.878 184.195 174.598V176.463C183.635 176.73 183.069 176.919 182.496 177.029C181.923 177.14 181.269 177.195 180.533 177.195ZM180.113 167.742C179.384 167.742 178.798 167.973 178.355 168.436C177.919 168.898 177.659 169.572 177.574 170.457H182.477C182.464 169.565 182.249 168.891 181.832 168.436C181.415 167.973 180.842 167.742 180.113 167.742ZM194.596 173.924C194.596 174.979 194.212 175.789 193.443 176.355C192.675 176.915 191.575 177.195 190.143 177.195C188.704 177.195 187.548 176.977 186.676 176.541V174.559C187.945 175.145 189.127 175.438 190.221 175.438C191.633 175.438 192.34 175.011 192.34 174.158C192.34 173.885 192.262 173.657 192.105 173.475C191.949 173.292 191.692 173.104 191.334 172.908C190.976 172.713 190.478 172.492 189.84 172.244C188.596 171.762 187.753 171.281 187.311 170.799C186.874 170.317 186.656 169.692 186.656 168.924C186.656 167.999 187.027 167.283 187.77 166.775C188.518 166.261 189.534 166.004 190.816 166.004C192.086 166.004 193.287 166.261 194.42 166.775L193.678 168.504C192.512 168.022 191.533 167.781 190.738 167.781C189.527 167.781 188.922 168.126 188.922 168.816C188.922 169.155 189.078 169.441 189.391 169.676C189.71 169.91 190.4 170.232 191.461 170.643C192.353 170.988 193.001 171.303 193.404 171.59C193.808 171.876 194.107 172.208 194.303 172.586C194.498 172.957 194.596 173.403 194.596 173.924ZM209.039 177L208.58 175.496H208.502C207.981 176.154 207.457 176.603 206.93 176.844C206.402 177.078 205.725 177.195 204.898 177.195C203.837 177.195 203.007 176.909 202.408 176.336C201.816 175.763 201.52 174.952 201.52 173.904C201.52 172.791 201.933 171.951 202.76 171.385C203.587 170.818 204.846 170.509 206.539 170.457L208.404 170.398V169.822C208.404 169.132 208.242 168.618 207.916 168.279C207.597 167.934 207.099 167.762 206.422 167.762C205.868 167.762 205.338 167.843 204.83 168.006C204.322 168.169 203.834 168.361 203.365 168.582L202.623 166.941C203.209 166.635 203.85 166.404 204.547 166.248C205.243 166.085 205.901 166.004 206.52 166.004C207.893 166.004 208.928 166.303 209.625 166.902C210.328 167.501 210.68 168.442 210.68 169.725V177H209.039ZM205.621 175.438C206.454 175.438 207.122 175.206 207.623 174.744C208.131 174.275 208.385 173.621 208.385 172.781V171.844L206.998 171.902C205.917 171.941 205.13 172.124 204.635 172.449C204.146 172.768 203.902 173.26 203.902 173.924C203.902 174.406 204.046 174.78 204.332 175.047C204.618 175.307 205.048 175.438 205.621 175.438ZM217.906 175.34C218.466 175.34 219.026 175.252 219.586 175.076V176.805C219.332 176.915 219.003 177.007 218.6 177.078C218.202 177.156 217.789 177.195 217.359 177.195C215.185 177.195 214.098 176.049 214.098 173.758V167.938H212.623V166.922L214.205 166.082L214.986 163.797H216.402V166.199H219.479V167.938H216.402V173.719C216.402 174.272 216.539 174.682 216.812 174.949C217.092 175.21 217.457 175.34 217.906 175.34ZM233.268 164.52C231.926 164.52 230.872 164.995 230.104 165.945C229.335 166.896 228.951 168.208 228.951 169.881C228.951 171.632 229.319 172.957 230.055 173.855C230.797 174.754 231.868 175.203 233.268 175.203C233.873 175.203 234.459 175.145 235.025 175.027C235.592 174.904 236.181 174.747 236.793 174.559V176.561C235.673 176.984 234.404 177.195 232.984 177.195C230.895 177.195 229.29 176.564 228.17 175.301C227.05 174.031 226.49 172.218 226.49 169.861C226.49 168.377 226.76 167.078 227.301 165.965C227.848 164.852 228.635 163.999 229.664 163.406C230.693 162.814 231.9 162.518 233.287 162.518C234.745 162.518 236.093 162.824 237.33 163.436L236.49 165.379C236.008 165.151 235.497 164.952 234.957 164.783C234.423 164.607 233.86 164.52 233.268 164.52ZM249.127 177H246.822V170.359C246.822 169.526 246.653 168.904 246.314 168.494C245.982 168.084 245.452 167.879 244.723 167.879C243.759 167.879 243.049 168.169 242.594 168.748C242.145 169.321 241.92 170.285 241.92 171.639V177H239.625V161.805H241.92V165.662C241.92 166.281 241.881 166.941 241.803 167.645H241.949C242.262 167.124 242.695 166.72 243.248 166.434C243.808 166.147 244.459 166.004 245.201 166.004C247.818 166.004 249.127 167.322 249.127 169.959V177ZM257.037 177.195C255.357 177.195 254.042 176.707 253.092 175.73C252.148 174.747 251.676 173.396 251.676 171.678C251.676 169.913 252.115 168.527 252.994 167.518C253.873 166.508 255.081 166.004 256.617 166.004C258.043 166.004 259.169 166.437 259.996 167.303C260.823 168.169 261.236 169.36 261.236 170.877V172.117H254.039C254.072 173.165 254.355 173.973 254.889 174.539C255.423 175.099 256.174 175.379 257.145 175.379C257.783 175.379 258.375 175.32 258.922 175.203C259.475 175.079 260.068 174.878 260.699 174.598V176.463C260.139 176.73 259.573 176.919 259 177.029C258.427 177.14 257.773 177.195 257.037 177.195ZM256.617 167.742C255.888 167.742 255.302 167.973 254.859 168.436C254.423 168.898 254.163 169.572 254.078 170.457H258.98C258.967 169.565 258.753 168.891 258.336 168.436C257.919 167.973 257.346 167.742 256.617 167.742ZM269.322 166.004C269.785 166.004 270.165 166.036 270.465 166.102L270.24 168.24C269.915 168.162 269.576 168.123 269.225 168.123C268.307 168.123 267.561 168.423 266.988 169.021C266.422 169.62 266.139 170.398 266.139 171.355V177H263.844V166.199H265.641L265.943 168.104H266.061C266.419 167.459 266.884 166.948 267.457 166.57C268.036 166.193 268.658 166.004 269.322 166.004ZM277.955 166.004C278.417 166.004 278.798 166.036 279.098 166.102L278.873 168.24C278.548 168.162 278.209 168.123 277.857 168.123C276.939 168.123 276.194 168.423 275.621 169.021C275.055 169.62 274.771 170.398 274.771 171.355V177H272.477V166.199H274.273L274.576 168.104H274.693C275.051 167.459 275.517 166.948 276.09 166.57C276.669 166.193 277.291 166.004 277.955 166.004ZM283.404 177H281.109V166.199H283.404V177ZM280.973 163.338C280.973 162.928 281.083 162.612 281.305 162.391C281.533 162.169 281.855 162.059 282.271 162.059C282.675 162.059 282.988 162.169 283.209 162.391C283.437 162.612 283.551 162.928 283.551 163.338C283.551 163.729 283.437 164.038 283.209 164.266C282.988 164.487 282.675 164.598 282.271 164.598C281.855 164.598 281.533 164.487 281.305 164.266C281.083 164.038 280.973 163.729 280.973 163.338ZM296.197 177H293.893V170.359C293.893 169.526 293.723 168.904 293.385 168.494C293.053 168.084 292.522 167.879 291.793 167.879C290.823 167.879 290.113 168.165 289.664 168.738C289.215 169.311 288.99 170.271 288.99 171.619V177H286.695V166.199H288.492L288.814 167.615H288.932C289.257 167.101 289.719 166.704 290.318 166.424C290.917 166.144 291.581 166.004 292.311 166.004C294.902 166.004 296.197 167.322 296.197 169.959V177ZM308.512 166.199V167.459L306.666 167.801C306.835 168.029 306.975 168.309 307.086 168.641C307.197 168.973 307.252 169.324 307.252 169.695C307.252 170.809 306.868 171.684 306.1 172.322C305.331 172.96 304.273 173.279 302.926 173.279C302.581 173.279 302.268 173.253 301.988 173.201C301.493 173.507 301.246 173.865 301.246 174.275C301.246 174.523 301.36 174.708 301.588 174.832C301.822 174.956 302.249 175.018 302.867 175.018H304.752C305.943 175.018 306.848 175.271 307.467 175.779C308.085 176.287 308.395 177.02 308.395 177.977C308.395 179.201 307.89 180.145 306.881 180.809C305.872 181.473 304.413 181.805 302.506 181.805C301.035 181.805 299.911 181.544 299.137 181.023C298.362 180.503 297.975 179.76 297.975 178.797C297.975 178.133 298.183 177.573 298.6 177.117C299.023 176.668 299.612 176.355 300.367 176.18C300.061 176.049 299.807 175.841 299.605 175.555C299.41 175.262 299.312 174.956 299.312 174.637C299.312 174.233 299.426 173.891 299.654 173.611C299.882 173.331 300.221 173.055 300.67 172.781C300.11 172.54 299.654 172.15 299.303 171.609C298.958 171.062 298.785 170.424 298.785 169.695C298.785 168.523 299.153 167.615 299.889 166.971C300.631 166.326 301.686 166.004 303.053 166.004C303.359 166.004 303.678 166.027 304.01 166.072C304.348 166.111 304.602 166.154 304.771 166.199H308.512ZM300.025 178.68C300.025 179.174 300.247 179.555 300.689 179.822C301.139 180.089 301.767 180.223 302.574 180.223C303.824 180.223 304.755 180.044 305.367 179.686C305.979 179.327 306.285 178.852 306.285 178.26C306.285 177.791 306.116 177.456 305.777 177.254C305.445 177.059 304.824 176.961 303.912 176.961H302.174C301.516 176.961 300.992 177.114 300.602 177.42C300.217 177.732 300.025 178.152 300.025 178.68ZM301.012 169.695C301.012 170.372 301.184 170.893 301.529 171.258C301.881 171.622 302.382 171.805 303.033 171.805C304.361 171.805 305.025 171.095 305.025 169.676C305.025 168.973 304.859 168.432 304.527 168.055C304.202 167.671 303.704 167.479 303.033 167.479C302.369 167.479 301.865 167.667 301.52 168.045C301.181 168.423 301.012 168.973 301.012 169.695ZM314.547 175.34C315.107 175.34 315.667 175.252 316.227 175.076V176.805C315.973 176.915 315.644 177.007 315.24 177.078C314.843 177.156 314.43 177.195 314 177.195C311.826 177.195 310.738 176.049 310.738 173.758V167.938H309.264V166.922L310.846 166.082L311.627 163.797H313.043V166.199H316.119V167.938H313.043V173.719C313.043 174.272 313.18 174.682 313.453 174.949C313.733 175.21 314.098 175.34 314.547 175.34ZM327.975 171.58C327.975 173.344 327.522 174.721 326.617 175.711C325.712 176.701 324.452 177.195 322.838 177.195C321.829 177.195 320.937 176.967 320.162 176.512C319.387 176.056 318.792 175.402 318.375 174.549C317.958 173.696 317.75 172.706 317.75 171.58C317.75 169.829 318.199 168.462 319.098 167.479C319.996 166.495 321.262 166.004 322.896 166.004C324.459 166.004 325.696 166.508 326.607 167.518C327.519 168.52 327.975 169.874 327.975 171.58ZM320.113 171.58C320.113 174.074 321.035 175.32 322.877 175.32C324.7 175.32 325.611 174.074 325.611 171.58C325.611 169.113 324.693 167.879 322.857 167.879C321.894 167.879 321.194 168.198 320.758 168.836C320.328 169.474 320.113 170.389 320.113 171.58ZM340.123 177H337.818V170.359C337.818 169.526 337.649 168.904 337.311 168.494C336.979 168.084 336.448 167.879 335.719 167.879C334.749 167.879 334.039 168.165 333.59 168.738C333.141 169.311 332.916 170.271 332.916 171.619V177H330.621V166.199H332.418L332.74 167.615H332.857C333.183 167.101 333.645 166.704 334.244 166.424C334.843 166.144 335.507 166.004 336.236 166.004C338.827 166.004 340.123 167.322 340.123 169.959V177ZM138.561 196.842C138.561 199.166 137.978 200.973 136.812 202.262C135.654 203.551 134.01 204.195 131.881 204.195C129.726 204.195 128.069 203.557 126.91 202.281C125.758 200.999 125.182 199.179 125.182 196.822C125.182 194.465 125.761 192.656 126.92 191.393C128.085 190.13 129.745 189.498 131.9 189.498C134.023 189.498 135.663 190.139 136.822 191.422C137.981 192.704 138.561 194.511 138.561 196.842ZM127.662 196.842C127.662 198.6 128.017 199.934 128.727 200.846C129.436 201.751 130.488 202.203 131.881 202.203C133.268 202.203 134.312 201.754 135.016 200.855C135.725 199.957 136.08 198.619 136.08 196.842C136.08 195.09 135.729 193.762 135.025 192.857C134.329 191.952 133.287 191.5 131.9 191.5C130.501 191.5 129.443 191.952 128.727 192.857C128.017 193.762 127.662 195.09 127.662 196.842ZM146.803 194.938H144.166V204H141.861V194.938H140.084V193.863L141.861 193.16V192.457C141.861 191.181 142.161 190.237 142.76 189.625C143.359 189.007 144.273 188.697 145.504 188.697C146.311 188.697 147.105 188.831 147.887 189.098L147.281 190.836C146.715 190.654 146.174 190.562 145.66 190.562C145.139 190.562 144.758 190.725 144.518 191.051C144.283 191.37 144.166 191.852 144.166 192.496V193.199H146.803V194.938ZM154.068 194.938H151.432V204H149.127V194.938H147.35V193.863L149.127 193.16V192.457C149.127 191.181 149.426 190.237 150.025 189.625C150.624 189.007 151.539 188.697 152.77 188.697C153.577 188.697 154.371 188.831 155.152 189.098L154.547 190.836C153.98 190.654 153.44 190.562 152.926 190.562C152.405 190.562 152.024 190.725 151.783 191.051C151.549 191.37 151.432 191.852 151.432 192.496V193.199H154.068V194.938ZM158.209 204H155.914V193.199H158.209V204ZM155.777 190.338C155.777 189.928 155.888 189.612 156.109 189.391C156.337 189.169 156.66 189.059 157.076 189.059C157.48 189.059 157.792 189.169 158.014 189.391C158.242 189.612 158.355 189.928 158.355 190.338C158.355 190.729 158.242 191.038 158.014 191.266C157.792 191.487 157.48 191.598 157.076 191.598C156.66 191.598 156.337 191.487 156.109 191.266C155.888 191.038 155.777 190.729 155.777 190.338ZM165.855 204.195C164.221 204.195 162.978 203.72 162.125 202.77C161.279 201.812 160.855 200.442 160.855 198.658C160.855 196.842 161.298 195.445 162.184 194.469C163.076 193.492 164.361 193.004 166.041 193.004C167.18 193.004 168.206 193.215 169.117 193.639L168.424 195.484C167.454 195.107 166.653 194.918 166.021 194.918C164.153 194.918 163.219 196.158 163.219 198.639C163.219 199.85 163.45 200.761 163.912 201.373C164.381 201.979 165.064 202.281 165.963 202.281C166.985 202.281 167.952 202.027 168.863 201.52V203.521C168.453 203.762 168.014 203.935 167.545 204.039C167.083 204.143 166.52 204.195 165.855 204.195ZM176.119 204.195C174.439 204.195 173.124 203.707 172.174 202.73C171.23 201.747 170.758 200.396 170.758 198.678C170.758 196.913 171.197 195.527 172.076 194.518C172.955 193.508 174.163 193.004 175.699 193.004C177.125 193.004 178.251 193.437 179.078 194.303C179.905 195.169 180.318 196.36 180.318 197.877V199.117H173.121C173.154 200.165 173.437 200.973 173.971 201.539C174.505 202.099 175.257 202.379 176.227 202.379C176.865 202.379 177.457 202.32 178.004 202.203C178.557 202.079 179.15 201.878 179.781 201.598V203.463C179.221 203.73 178.655 203.919 178.082 204.029C177.509 204.14 176.855 204.195 176.119 204.195ZM175.699 194.742C174.97 194.742 174.384 194.973 173.941 195.436C173.505 195.898 173.245 196.572 173.16 197.457H178.062C178.049 196.565 177.835 195.891 177.418 195.436C177.001 194.973 176.428 194.742 175.699 194.742ZM184.049 199.664V199.039C184.049 198.323 184.179 197.727 184.439 197.252C184.7 196.777 185.156 196.285 185.807 195.777C186.581 195.165 187.079 194.69 187.301 194.352C187.529 194.013 187.643 193.609 187.643 193.141C187.643 192.594 187.46 192.174 187.096 191.881C186.731 191.588 186.207 191.441 185.523 191.441C184.905 191.441 184.332 191.529 183.805 191.705C183.277 191.881 182.763 192.092 182.262 192.34L181.441 190.621C182.763 189.885 184.179 189.518 185.689 189.518C186.965 189.518 187.978 189.83 188.727 190.455C189.475 191.08 189.85 191.943 189.85 193.043C189.85 193.531 189.778 193.967 189.635 194.352C189.492 194.729 189.273 195.09 188.98 195.436C188.694 195.781 188.196 196.23 187.486 196.783C186.881 197.258 186.474 197.652 186.266 197.965C186.064 198.277 185.963 198.697 185.963 199.225V199.664H184.049ZM183.648 202.779C183.648 201.796 184.127 201.305 185.084 201.305C185.553 201.305 185.911 201.435 186.158 201.695C186.406 201.949 186.529 202.311 186.529 202.779C186.529 203.242 186.402 203.609 186.148 203.883C185.901 204.15 185.546 204.283 185.084 204.283C184.622 204.283 184.267 204.153 184.02 203.893C183.772 203.626 183.648 203.255 183.648 202.779Z" fill="#424E54"/>
<path d="M129.086 251H127.758V240.758H124.141V239.578H132.703V240.758H129.086V251ZM140.094 251V245.461C140.094 244.763 139.935 244.242 139.617 243.898C139.299 243.555 138.802 243.383 138.125 243.383C137.224 243.383 136.565 243.628 136.148 244.117C135.737 244.607 135.531 245.409 135.531 246.523V251H134.234V238.844H135.531V242.523C135.531 242.966 135.51 243.333 135.469 243.625H135.547C135.802 243.214 136.164 242.891 136.633 242.656C137.107 242.417 137.646 242.297 138.25 242.297C139.297 242.297 140.081 242.547 140.602 243.047C141.128 243.542 141.391 244.331 141.391 245.414V251H140.094ZM145.359 251H144.062V242.438H145.359V251ZM143.953 240.117C143.953 239.82 144.026 239.604 144.172 239.469C144.318 239.328 144.5 239.258 144.719 239.258C144.927 239.258 145.107 239.328 145.258 239.469C145.409 239.609 145.484 239.826 145.484 240.117C145.484 240.409 145.409 240.628 145.258 240.773C145.107 240.914 144.927 240.984 144.719 240.984C144.5 240.984 144.318 240.914 144.172 240.773C144.026 240.628 143.953 240.409 143.953 240.117ZM153.633 248.664C153.633 249.461 153.336 250.076 152.742 250.508C152.148 250.94 151.315 251.156 150.242 251.156C149.107 251.156 148.221 250.977 147.586 250.617V249.414C147.997 249.622 148.438 249.786 148.906 249.906C149.38 250.026 149.836 250.086 150.273 250.086C150.951 250.086 151.471 249.979 151.836 249.766C152.201 249.547 152.383 249.216 152.383 248.773C152.383 248.44 152.237 248.156 151.945 247.922C151.659 247.682 151.096 247.401 150.258 247.078C149.461 246.781 148.893 246.523 148.555 246.305C148.221 246.081 147.971 245.828 147.805 245.547C147.643 245.266 147.562 244.93 147.562 244.539C147.562 243.841 147.846 243.292 148.414 242.891C148.982 242.484 149.76 242.281 150.75 242.281C151.672 242.281 152.573 242.469 153.453 242.844L152.992 243.898C152.133 243.544 151.354 243.367 150.656 243.367C150.042 243.367 149.578 243.464 149.266 243.656C148.953 243.849 148.797 244.115 148.797 244.453C148.797 244.682 148.854 244.878 148.969 245.039C149.089 245.201 149.279 245.354 149.539 245.5C149.799 245.646 150.299 245.857 151.039 246.133C152.055 246.503 152.74 246.875 153.094 247.25C153.453 247.625 153.633 248.096 153.633 248.664ZM165.172 251L164.914 249.781H164.852C164.424 250.318 163.997 250.682 163.57 250.875C163.148 251.062 162.62 251.156 161.984 251.156C161.135 251.156 160.469 250.938 159.984 250.5C159.505 250.062 159.266 249.44 159.266 248.633C159.266 246.904 160.648 245.997 163.414 245.914L164.867 245.867V245.336C164.867 244.664 164.721 244.169 164.43 243.852C164.143 243.529 163.682 243.367 163.047 243.367C162.333 243.367 161.526 243.586 160.625 244.023L160.227 243.031C160.648 242.802 161.109 242.622 161.609 242.492C162.115 242.362 162.62 242.297 163.125 242.297C164.146 242.297 164.901 242.523 165.391 242.977C165.885 243.43 166.133 244.156 166.133 245.156V251H165.172ZM162.242 250.086C163.049 250.086 163.682 249.865 164.141 249.422C164.604 248.979 164.836 248.359 164.836 247.562V246.789L163.539 246.844C162.508 246.88 161.763 247.042 161.305 247.328C160.852 247.609 160.625 248.049 160.625 248.648C160.625 249.117 160.766 249.474 161.047 249.719C161.333 249.964 161.732 250.086 162.242 250.086ZM172.234 251.156C170.995 251.156 170.034 250.776 169.352 250.016C168.674 249.25 168.336 248.169 168.336 246.773C168.336 245.341 168.68 244.234 169.367 243.453C170.06 242.672 171.044 242.281 172.32 242.281C172.732 242.281 173.143 242.326 173.555 242.414C173.966 242.503 174.289 242.607 174.523 242.727L174.125 243.828C173.839 243.714 173.526 243.62 173.188 243.547C172.849 243.469 172.549 243.43 172.289 243.43C170.549 243.43 169.68 244.539 169.68 246.758C169.68 247.81 169.891 248.617 170.312 249.18C170.74 249.742 171.37 250.023 172.203 250.023C172.917 250.023 173.648 249.87 174.398 249.562V250.711C173.826 251.008 173.104 251.156 172.234 251.156ZM179.203 250.086C179.432 250.086 179.654 250.07 179.867 250.039C180.081 250.003 180.25 249.966 180.375 249.93V250.922C180.234 250.99 180.026 251.044 179.75 251.086C179.479 251.133 179.234 251.156 179.016 251.156C177.359 251.156 176.531 250.284 176.531 248.539V243.445H175.305V242.82L176.531 242.281L177.078 240.453H177.828V242.438H180.312V243.445H177.828V248.484C177.828 249 177.951 249.396 178.195 249.672C178.44 249.948 178.776 250.086 179.203 250.086ZM183.391 251H182.094V242.438H183.391V251ZM181.984 240.117C181.984 239.82 182.057 239.604 182.203 239.469C182.349 239.328 182.531 239.258 182.75 239.258C182.958 239.258 183.138 239.328 183.289 239.469C183.44 239.609 183.516 239.826 183.516 240.117C183.516 240.409 183.44 240.628 183.289 240.773C183.138 240.914 182.958 240.984 182.75 240.984C182.531 240.984 182.349 240.914 182.203 240.773C182.057 240.628 181.984 240.409 181.984 240.117ZM193.531 246.711C193.531 248.107 193.18 249.198 192.477 249.984C191.773 250.766 190.802 251.156 189.562 251.156C188.797 251.156 188.117 250.977 187.523 250.617C186.93 250.258 186.471 249.742 186.148 249.07C185.826 248.398 185.664 247.612 185.664 246.711C185.664 245.315 186.013 244.229 186.711 243.453C187.409 242.672 188.378 242.281 189.617 242.281C190.815 242.281 191.766 242.68 192.469 243.477C193.177 244.273 193.531 245.352 193.531 246.711ZM187.008 246.711C187.008 247.805 187.227 248.638 187.664 249.211C188.102 249.784 188.745 250.07 189.594 250.07C190.443 250.07 191.086 249.786 191.523 249.219C191.966 248.646 192.188 247.81 192.188 246.711C192.188 245.622 191.966 244.797 191.523 244.234C191.086 243.667 190.438 243.383 189.578 243.383C188.729 243.383 188.089 243.661 187.656 244.219C187.224 244.776 187.008 245.607 187.008 246.711ZM201.672 251V245.461C201.672 244.763 201.513 244.242 201.195 243.898C200.878 243.555 200.38 243.383 199.703 243.383C198.807 243.383 198.151 243.625 197.734 244.109C197.318 244.594 197.109 245.393 197.109 246.508V251H195.812V242.438H196.867L197.078 243.609H197.141C197.406 243.188 197.779 242.862 198.258 242.633C198.737 242.398 199.271 242.281 199.859 242.281C200.891 242.281 201.667 242.531 202.188 243.031C202.708 243.526 202.969 244.32 202.969 245.414V251H201.672ZM213.219 251.156C211.979 251.156 211.018 250.776 210.336 250.016C209.659 249.25 209.32 248.169 209.32 246.773C209.32 245.341 209.664 244.234 210.352 243.453C211.044 242.672 212.029 242.281 213.305 242.281C213.716 242.281 214.128 242.326 214.539 242.414C214.951 242.503 215.273 242.607 215.508 242.727L215.109 243.828C214.823 243.714 214.51 243.62 214.172 243.547C213.833 243.469 213.534 243.43 213.273 243.43C211.534 243.43 210.664 244.539 210.664 246.758C210.664 247.81 210.875 248.617 211.297 249.18C211.724 249.742 212.354 250.023 213.188 250.023C213.901 250.023 214.633 249.87 215.383 249.562V250.711C214.81 251.008 214.089 251.156 213.219 251.156ZM222.688 251L222.43 249.781H222.367C221.94 250.318 221.513 250.682 221.086 250.875C220.664 251.062 220.135 251.156 219.5 251.156C218.651 251.156 217.984 250.938 217.5 250.5C217.021 250.062 216.781 249.44 216.781 248.633C216.781 246.904 218.164 245.997 220.93 245.914L222.383 245.867V245.336C222.383 244.664 222.237 244.169 221.945 243.852C221.659 243.529 221.198 243.367 220.562 243.367C219.849 243.367 219.042 243.586 218.141 244.023L217.742 243.031C218.164 242.802 218.625 242.622 219.125 242.492C219.63 242.362 220.135 242.297 220.641 242.297C221.661 242.297 222.417 242.523 222.906 242.977C223.401 243.43 223.648 244.156 223.648 245.156V251H222.688ZM219.758 250.086C220.565 250.086 221.198 249.865 221.656 249.422C222.12 248.979 222.352 248.359 222.352 247.562V246.789L221.055 246.844C220.023 246.88 219.279 247.042 218.82 247.328C218.367 247.609 218.141 248.049 218.141 248.648C218.141 249.117 218.281 249.474 218.562 249.719C218.849 249.964 219.247 250.086 219.758 250.086ZM232.188 251V245.461C232.188 244.763 232.029 244.242 231.711 243.898C231.393 243.555 230.896 243.383 230.219 243.383C229.323 243.383 228.667 243.625 228.25 244.109C227.833 244.594 227.625 245.393 227.625 246.508V251H226.328V242.438H227.383L227.594 243.609H227.656C227.922 243.188 228.294 242.862 228.773 242.633C229.253 242.398 229.786 242.281 230.375 242.281C231.406 242.281 232.182 242.531 232.703 243.031C233.224 243.526 233.484 244.32 233.484 245.414V251H232.188ZM242.016 251V245.461C242.016 244.763 241.857 244.242 241.539 243.898C241.221 243.555 240.724 243.383 240.047 243.383C239.151 243.383 238.495 243.625 238.078 244.109C237.661 244.594 237.453 245.393 237.453 246.508V251H236.156V242.438H237.211L237.422 243.609H237.484C237.75 243.188 238.122 242.862 238.602 242.633C239.081 242.398 239.615 242.281 240.203 242.281C241.234 242.281 242.01 242.531 242.531 243.031C243.052 243.526 243.312 244.32 243.312 245.414V251H242.016ZM253.375 246.711C253.375 248.107 253.023 249.198 252.32 249.984C251.617 250.766 250.646 251.156 249.406 251.156C248.641 251.156 247.961 250.977 247.367 250.617C246.773 250.258 246.315 249.742 245.992 249.07C245.669 248.398 245.508 247.612 245.508 246.711C245.508 245.315 245.857 244.229 246.555 243.453C247.253 242.672 248.221 242.281 249.461 242.281C250.659 242.281 251.609 242.68 252.312 243.477C253.021 244.273 253.375 245.352 253.375 246.711ZM246.852 246.711C246.852 247.805 247.07 248.638 247.508 249.211C247.945 249.784 248.589 250.07 249.438 250.07C250.286 250.07 250.93 249.786 251.367 249.219C251.81 248.646 252.031 247.81 252.031 246.711C252.031 245.622 251.81 244.797 251.367 244.234C250.93 243.667 250.281 243.383 249.422 243.383C248.573 243.383 247.932 243.661 247.5 244.219C247.068 244.776 246.852 245.607 246.852 246.711ZM258.422 250.086C258.651 250.086 258.872 250.07 259.086 250.039C259.299 250.003 259.469 249.966 259.594 249.93V250.922C259.453 250.99 259.245 251.044 258.969 251.086C258.698 251.133 258.453 251.156 258.234 251.156C256.578 251.156 255.75 250.284 255.75 248.539V243.445H254.523V242.82L255.75 242.281L256.297 240.453H257.047V242.438H259.531V243.445H257.047V248.484C257.047 249 257.169 249.396 257.414 249.672C257.659 249.948 257.995 250.086 258.422 250.086ZM269.453 242.297C270.578 242.297 271.451 242.682 272.07 243.453C272.695 244.219 273.008 245.305 273.008 246.711C273.008 248.117 272.693 249.211 272.062 249.992C271.438 250.768 270.568 251.156 269.453 251.156C268.896 251.156 268.385 251.055 267.922 250.852C267.464 250.643 267.078 250.326 266.766 249.898H266.672L266.398 251H265.469V238.844H266.766V241.797C266.766 242.458 266.745 243.052 266.703 243.578H266.766C267.37 242.724 268.266 242.297 269.453 242.297ZM269.266 243.383C268.38 243.383 267.742 243.638 267.352 244.148C266.961 244.654 266.766 245.508 266.766 246.711C266.766 247.914 266.966 248.776 267.367 249.297C267.768 249.812 268.411 250.07 269.297 250.07C270.094 250.07 270.688 249.781 271.078 249.203C271.469 248.62 271.664 247.784 271.664 246.695C271.664 245.581 271.469 244.75 271.078 244.203C270.688 243.656 270.083 243.383 269.266 243.383ZM278.898 251.156C277.633 251.156 276.633 250.771 275.898 250C275.169 249.229 274.805 248.159 274.805 246.789C274.805 245.409 275.143 244.312 275.82 243.5C276.503 242.688 277.417 242.281 278.562 242.281C279.635 242.281 280.484 242.635 281.109 243.344C281.734 244.047 282.047 244.977 282.047 246.133V246.953H276.148C276.174 247.958 276.427 248.721 276.906 249.242C277.391 249.763 278.07 250.023 278.945 250.023C279.867 250.023 280.779 249.831 281.68 249.445V250.602C281.221 250.799 280.786 250.94 280.375 251.023C279.969 251.112 279.477 251.156 278.898 251.156ZM278.547 243.367C277.859 243.367 277.31 243.591 276.898 244.039C276.492 244.487 276.253 245.107 276.18 245.898H280.656C280.656 245.081 280.474 244.456 280.109 244.023C279.745 243.586 279.224 243.367 278.547 243.367ZM289.641 242.438V247.992C289.641 248.69 289.799 249.211 290.117 249.555C290.435 249.898 290.932 250.07 291.609 250.07C292.505 250.07 293.159 249.826 293.57 249.336C293.987 248.846 294.195 248.047 294.195 246.938V242.438H295.492V251H294.422L294.234 249.852H294.164C293.898 250.273 293.529 250.596 293.055 250.82C292.586 251.044 292.049 251.156 291.445 251.156C290.404 251.156 289.622 250.909 289.102 250.414C288.586 249.919 288.328 249.128 288.328 248.039V242.438H289.641ZM304.109 251V245.461C304.109 244.763 303.951 244.242 303.633 243.898C303.315 243.555 302.818 243.383 302.141 243.383C301.245 243.383 300.589 243.625 300.172 244.109C299.755 244.594 299.547 245.393 299.547 246.508V251H298.25V242.438H299.305L299.516 243.609H299.578C299.844 243.188 300.216 242.862 300.695 242.633C301.174 242.398 301.708 242.281 302.297 242.281C303.328 242.281 304.104 242.531 304.625 243.031C305.146 243.526 305.406 244.32 305.406 245.414V251H304.109ZM313.906 249.852H313.836C313.237 250.721 312.341 251.156 311.148 251.156C310.029 251.156 309.156 250.773 308.531 250.008C307.911 249.242 307.602 248.154 307.602 246.742C307.602 245.331 307.914 244.234 308.539 243.453C309.164 242.672 310.034 242.281 311.148 242.281C312.31 242.281 313.201 242.703 313.82 243.547H313.922L313.867 242.93L313.836 242.328V238.844H315.133V251H314.078L313.906 249.852ZM311.312 250.07C312.198 250.07 312.839 249.831 313.234 249.352C313.635 248.867 313.836 248.089 313.836 247.016V246.742C313.836 245.529 313.633 244.664 313.227 244.148C312.826 243.628 312.182 243.367 311.297 243.367C310.536 243.367 309.953 243.664 309.547 244.258C309.146 244.846 308.945 245.68 308.945 246.758C308.945 247.852 309.146 248.677 309.547 249.234C309.948 249.792 310.536 250.07 311.312 250.07ZM325.281 246.711C325.281 248.107 324.93 249.198 324.227 249.984C323.523 250.766 322.552 251.156 321.312 251.156C320.547 251.156 319.867 250.977 319.273 250.617C318.68 250.258 318.221 249.742 317.898 249.07C317.576 248.398 317.414 247.612 317.414 246.711C317.414 245.315 317.763 244.229 318.461 243.453C319.159 242.672 320.128 242.281 321.367 242.281C322.565 242.281 323.516 242.68 324.219 243.477C324.927 244.273 325.281 245.352 325.281 246.711ZM318.758 246.711C318.758 247.805 318.977 248.638 319.414 249.211C319.852 249.784 320.495 250.07 321.344 250.07C322.193 250.07 322.836 249.786 323.273 249.219C323.716 248.646 323.938 247.81 323.938 246.711C323.938 245.622 323.716 244.797 323.273 244.234C322.836 243.667 322.188 243.383 321.328 243.383C320.479 243.383 319.839 243.661 319.406 244.219C318.974 244.776 318.758 245.607 318.758 246.711ZM333.422 251V245.461C333.422 244.763 333.263 244.242 332.945 243.898C332.628 243.555 332.13 243.383 331.453 243.383C330.557 243.383 329.901 243.625 329.484 244.109C329.068 244.594 328.859 245.393 328.859 246.508V251H327.562V242.438H328.617L328.828 243.609H328.891C329.156 243.188 329.529 242.862 330.008 242.633C330.487 242.398 331.021 242.281 331.609 242.281C332.641 242.281 333.417 242.531 333.938 243.031C334.458 243.526 334.719 244.32 334.719 245.414V251H333.422ZM341.008 251.156C339.742 251.156 338.742 250.771 338.008 250C337.279 249.229 336.914 248.159 336.914 246.789C336.914 245.409 337.253 244.312 337.93 243.5C338.612 242.688 339.526 242.281 340.672 242.281C341.745 242.281 342.594 242.635 343.219 243.344C343.844 244.047 344.156 244.977 344.156 246.133V246.953H338.258C338.284 247.958 338.536 248.721 339.016 249.242C339.5 249.763 340.18 250.023 341.055 250.023C341.977 250.023 342.888 249.831 343.789 249.445V250.602C343.331 250.799 342.896 250.94 342.484 251.023C342.078 251.112 341.586 251.156 341.008 251.156ZM340.656 243.367C339.969 243.367 339.419 243.591 339.008 244.039C338.602 244.487 338.362 245.107 338.289 245.898H342.766C342.766 245.081 342.583 244.456 342.219 244.023C341.854 243.586 341.333 243.367 340.656 243.367ZM346.188 250.172C346.188 249.823 346.266 249.56 346.422 249.383C346.583 249.201 346.812 249.109 347.109 249.109C347.411 249.109 347.646 249.201 347.812 249.383C347.984 249.56 348.07 249.823 348.07 250.172C348.07 250.51 347.984 250.771 347.812 250.953C347.641 251.135 347.406 251.227 347.109 251.227C346.844 251.227 346.622 251.146 346.445 250.984C346.273 250.818 346.188 250.547 346.188 250.172Z" fill="#424E54"/>
<path d="M210.189 306.407C210.189 308.057 209.731 309.319 208.815 310.194C207.899 311.065 206.58 311.5 204.857 311.5H202.062V301.506H205.151C206.742 301.506 207.979 301.934 208.863 302.791C209.747 303.648 210.189 304.853 210.189 306.407ZM208.467 306.462C208.467 304.069 207.348 302.873 205.11 302.873H203.695V310.126H204.857C207.264 310.126 208.467 308.905 208.467 306.462ZM215.474 311.637C214.298 311.637 213.377 311.295 212.712 310.611C212.051 309.923 211.721 308.978 211.721 307.774C211.721 306.539 212.028 305.569 212.644 304.862C213.259 304.156 214.104 303.803 215.18 303.803C216.178 303.803 216.966 304.106 217.545 304.712C218.124 305.318 218.413 306.152 218.413 307.214V308.082H213.375C213.398 308.816 213.596 309.381 213.97 309.777C214.343 310.169 214.87 310.365 215.549 310.365C215.995 310.365 216.41 310.324 216.793 310.242C217.18 310.156 217.595 310.014 218.037 309.818V311.124C217.645 311.311 217.249 311.443 216.848 311.521C216.447 311.598 215.989 311.637 215.474 311.637ZM215.18 305.02C214.669 305.02 214.259 305.181 213.949 305.505C213.644 305.828 213.462 306.3 213.402 306.92H216.834C216.825 306.296 216.674 305.824 216.383 305.505C216.091 305.181 215.69 305.02 215.18 305.02ZM221.845 311.5H220.238V300.863H221.845V311.5ZM227.45 311.637C226.274 311.637 225.354 311.295 224.688 310.611C224.028 309.923 223.697 308.978 223.697 307.774C223.697 306.539 224.005 305.569 224.62 304.862C225.235 304.156 226.081 303.803 227.156 303.803C228.154 303.803 228.943 304.106 229.521 304.712C230.1 305.318 230.39 306.152 230.39 307.214V308.082H225.352C225.374 308.816 225.573 309.381 225.946 309.777C226.32 310.169 226.846 310.365 227.525 310.365C227.972 310.365 228.387 310.324 228.77 310.242C229.157 310.156 229.572 310.014 230.014 309.818V311.124C229.622 311.311 229.225 311.443 228.824 311.521C228.423 311.598 227.965 311.637 227.45 311.637ZM227.156 305.02C226.646 305.02 226.236 305.181 225.926 305.505C225.62 305.828 225.438 306.3 225.379 306.92H228.811C228.801 306.296 228.651 305.824 228.359 305.505C228.068 305.181 227.667 305.02 227.156 305.02ZM235.031 310.338C235.423 310.338 235.815 310.276 236.207 310.153V311.363C236.029 311.441 235.799 311.505 235.517 311.555C235.239 311.609 234.949 311.637 234.648 311.637C233.126 311.637 232.365 310.835 232.365 309.23V305.156H231.333V304.445L232.44 303.857L232.987 302.258H233.979V303.939H236.132V305.156H233.979V309.203C233.979 309.59 234.074 309.878 234.266 310.064C234.462 310.247 234.717 310.338 235.031 310.338ZM241.026 311.637C239.851 311.637 238.93 311.295 238.265 310.611C237.604 309.923 237.273 308.978 237.273 307.774C237.273 306.539 237.581 305.569 238.196 304.862C238.812 304.156 239.657 303.803 240.732 303.803C241.73 303.803 242.519 304.106 243.098 304.712C243.676 305.318 243.966 306.152 243.966 307.214V308.082H238.928C238.951 308.816 239.149 309.381 239.522 309.777C239.896 310.169 240.423 310.365 241.102 310.365C241.548 310.365 241.963 310.324 242.346 310.242C242.733 310.156 243.148 310.014 243.59 309.818V311.124C243.198 311.311 242.801 311.443 242.4 311.521C241.999 311.598 241.541 311.637 241.026 311.637ZM240.732 305.02C240.222 305.02 239.812 305.181 239.502 305.505C239.197 305.828 239.014 306.3 238.955 306.92H242.387C242.378 306.296 242.227 305.824 241.936 305.505C241.644 305.181 241.243 305.02 240.732 305.02ZM251.219 311.5H249.599V301.506H255.238V302.887H251.219V306.011H254.985V307.398H251.219V311.5ZM263.585 307.706C263.585 308.941 263.268 309.905 262.635 310.598C262.001 311.29 261.119 311.637 259.989 311.637C259.283 311.637 258.659 311.477 258.116 311.158C257.574 310.839 257.157 310.381 256.865 309.784C256.574 309.187 256.428 308.494 256.428 307.706C256.428 306.48 256.742 305.523 257.371 304.835C258 304.147 258.886 303.803 260.03 303.803C261.124 303.803 261.99 304.156 262.628 304.862C263.266 305.564 263.585 306.512 263.585 307.706ZM258.082 307.706C258.082 309.451 258.727 310.324 260.017 310.324C261.293 310.324 261.931 309.451 261.931 307.706C261.931 305.979 261.288 305.115 260.003 305.115C259.328 305.115 258.839 305.339 258.533 305.785C258.232 306.232 258.082 306.872 258.082 307.706ZM269.272 303.803C269.596 303.803 269.863 303.826 270.072 303.871L269.915 305.368C269.687 305.313 269.45 305.286 269.204 305.286C268.562 305.286 268.04 305.496 267.639 305.915C267.242 306.334 267.044 306.879 267.044 307.549V311.5H265.438V303.939H266.695L266.907 305.272H266.989C267.24 304.821 267.566 304.464 267.967 304.199C268.372 303.935 268.808 303.803 269.272 303.803ZM274.782 311.637C273.606 311.637 272.686 311.295 272.021 310.611C271.36 309.923 271.029 308.978 271.029 307.774C271.029 306.539 271.337 305.569 271.952 304.862C272.567 304.156 273.413 303.803 274.488 303.803C275.486 303.803 276.275 304.106 276.854 304.712C277.432 305.318 277.722 306.152 277.722 307.214V308.082H272.684C272.706 308.816 272.905 309.381 273.278 309.777C273.652 310.169 274.178 310.365 274.857 310.365C275.304 310.365 275.719 310.324 276.102 310.242C276.489 310.156 276.904 310.014 277.346 309.818V311.124C276.954 311.311 276.557 311.443 276.156 311.521C275.755 311.598 275.297 311.637 274.782 311.637ZM274.488 305.02C273.978 305.02 273.568 305.181 273.258 305.505C272.952 305.828 272.77 306.3 272.711 306.92H276.143C276.133 306.296 275.983 305.824 275.691 305.505C275.4 305.181 274.999 305.02 274.488 305.02ZM281.27 311.5L278.398 303.939H280.094L281.632 308.335C281.896 309.073 282.056 309.67 282.11 310.126H282.165C282.206 309.798 282.366 309.201 282.644 308.335L284.182 303.939H285.891L283.006 311.5H281.27ZM290.341 311.637C289.165 311.637 288.244 311.295 287.579 310.611C286.918 309.923 286.588 308.978 286.588 307.774C286.588 306.539 286.896 305.569 287.511 304.862C288.126 304.156 288.971 303.803 290.047 303.803C291.045 303.803 291.833 304.106 292.412 304.712C292.991 305.318 293.28 306.152 293.28 307.214V308.082H288.242C288.265 308.816 288.463 309.381 288.837 309.777C289.211 310.169 289.737 310.365 290.416 310.365C290.863 310.365 291.277 310.324 291.66 310.242C292.048 310.156 292.462 310.014 292.904 309.818V311.124C292.512 311.311 292.116 311.443 291.715 311.521C291.314 311.598 290.856 311.637 290.341 311.637ZM290.047 305.02C289.536 305.02 289.126 305.181 288.816 305.505C288.511 305.828 288.329 306.3 288.27 306.92H291.701C291.692 306.296 291.542 305.824 291.25 305.505C290.958 305.181 290.557 305.02 290.047 305.02ZM298.94 303.803C299.264 303.803 299.531 303.826 299.74 303.871L299.583 305.368C299.355 305.313 299.118 305.286 298.872 305.286C298.229 305.286 297.708 305.496 297.307 305.915C296.91 306.334 296.712 306.879 296.712 307.549V311.5H295.105V303.939H296.363L296.575 305.272H296.657C296.908 304.821 297.234 304.464 297.635 304.199C298.04 303.935 298.476 303.803 298.94 303.803Z" fill="#CA3C3D"/>
<rect x="116.5" y="288.5" width="267" height="35" rx="3.5" stroke="#CA3C3D"/>
<path d="M233.071 350.764C232.132 350.764 231.394 351.096 230.856 351.762C230.319 352.427 230.05 353.345 230.05 354.517C230.05 355.743 230.307 356.67 230.822 357.299C231.342 357.928 232.091 358.242 233.071 358.242C233.495 358.242 233.905 358.201 234.302 358.119C234.698 358.033 235.111 357.923 235.539 357.791V359.192C234.755 359.489 233.867 359.637 232.873 359.637C231.41 359.637 230.287 359.195 229.503 358.311C228.719 357.422 228.327 356.153 228.327 354.503C228.327 353.464 228.516 352.555 228.895 351.775C229.277 350.996 229.829 350.399 230.549 349.984C231.269 349.57 232.114 349.362 233.085 349.362C234.106 349.362 235.049 349.576 235.915 350.005L235.327 351.365C234.99 351.206 234.632 351.067 234.254 350.948C233.88 350.825 233.486 350.764 233.071 350.764ZM242.252 359.5L241.931 358.447H241.876C241.511 358.908 241.145 359.222 240.775 359.391C240.406 359.555 239.932 359.637 239.354 359.637C238.611 359.637 238.03 359.436 237.61 359.035C237.196 358.634 236.988 358.067 236.988 357.333C236.988 356.554 237.278 355.966 237.856 355.569C238.435 355.173 239.317 354.956 240.502 354.92L241.808 354.879V354.476C241.808 353.993 241.694 353.632 241.466 353.396C241.243 353.154 240.894 353.033 240.42 353.033C240.033 353.033 239.661 353.09 239.306 353.204C238.95 353.318 238.608 353.452 238.28 353.607L237.761 352.459C238.171 352.245 238.62 352.083 239.107 351.974C239.595 351.86 240.055 351.803 240.488 351.803C241.45 351.803 242.174 352.012 242.662 352.432C243.154 352.851 243.4 353.509 243.4 354.407V359.5H242.252ZM239.859 358.406C240.443 358.406 240.91 358.244 241.261 357.921C241.616 357.593 241.794 357.135 241.794 356.547V355.891L240.823 355.932C240.067 355.959 239.515 356.087 239.169 356.314C238.827 356.538 238.656 356.882 238.656 357.347C238.656 357.684 238.757 357.946 238.957 358.133C239.158 358.315 239.458 358.406 239.859 358.406ZM252.294 359.5H250.681V354.852C250.681 354.268 250.562 353.833 250.325 353.546C250.093 353.259 249.721 353.115 249.211 353.115C248.532 353.115 248.035 353.316 247.721 353.717C247.406 354.118 247.249 354.79 247.249 355.733V359.5H245.643V351.939H246.9L247.126 352.931H247.208C247.436 352.571 247.759 352.293 248.179 352.097C248.598 351.901 249.063 351.803 249.573 351.803C251.387 351.803 252.294 352.726 252.294 354.571V359.5ZM257.578 359.637C256.434 359.637 255.564 359.304 254.967 358.639C254.374 357.969 254.078 357.009 254.078 355.761C254.078 354.489 254.388 353.512 255.008 352.828C255.632 352.145 256.532 351.803 257.708 351.803C258.506 351.803 259.223 351.951 259.861 352.247L259.376 353.539C258.697 353.275 258.136 353.143 257.694 353.143C256.386 353.143 255.732 354.011 255.732 355.747C255.732 356.595 255.894 357.233 256.218 357.661C256.546 358.085 257.024 358.297 257.653 358.297C258.369 358.297 259.046 358.119 259.684 357.764V359.165C259.396 359.334 259.089 359.454 258.761 359.527C258.437 359.6 258.043 359.637 257.578 359.637ZM264.763 359.637C263.587 359.637 262.666 359.295 262.001 358.611C261.34 357.923 261.01 356.978 261.01 355.774C261.01 354.539 261.317 353.569 261.933 352.862C262.548 352.156 263.393 351.803 264.469 351.803C265.467 351.803 266.255 352.106 266.834 352.712C267.413 353.318 267.702 354.152 267.702 355.214V356.082H262.664C262.687 356.816 262.885 357.381 263.259 357.777C263.632 358.169 264.159 358.365 264.838 358.365C265.285 358.365 265.699 358.324 266.082 358.242C266.469 358.156 266.884 358.014 267.326 357.818V359.124C266.934 359.311 266.538 359.443 266.137 359.521C265.736 359.598 265.278 359.637 264.763 359.637ZM264.469 353.02C263.958 353.02 263.548 353.181 263.238 353.505C262.933 353.828 262.751 354.3 262.691 354.92H266.123C266.114 354.296 265.964 353.824 265.672 353.505C265.38 353.181 264.979 353.02 264.469 353.02ZM271.134 359.5H269.527V348.863H271.134V359.5Z" fill="#007BC1"/>
<rect x="116.5" y="336.5" width="267" height="35" rx="3.5" stroke="#007BC1"/>
</g>
</g>
<defs>
<filter id="filter0_ddd_5174_239593" x="74" y="92" width="352" height="327" filterUnits="userSpaceOnUse" color-interpolation-filters="sRGB">
<feFlood flood-opacity="0" result="BackgroundImageFix"/>
<feColorMatrix in="SourceAlpha" type="matrix" values="0 0 0 0 0 0 0 0 0 0 0 0 0 0 0 0 0 0 127 0" result="hardAlpha"/>
<feMorphology radius="4" operator="dilate" in="SourceAlpha" result="effect1_dropShadow_5174_239593"/>
<feOffset dy="5"/>
<feGaussianBlur stdDeviation="11"/>
<feColorMatrix type="matrix" values="0 0 0 0 0 0 0 0 0 0 0 0 0 0 0 0 0 0 0.12 0"/>
<feBlend mode="normal" in2="BackgroundImageFix" result="effect1_dropShadow_5174_239593"/>
<feColorMatrix in="SourceAlpha" type="matrix" values="0 0 0 0 0 0 0 0 0 0 0 0 0 0 0 0 0 0 127 0" result="hardAlpha"/>
<feMorphology radius="2" operator="dilate" in="SourceAlpha" result="effect2_dropShadow_5174_239593"/>
<feOffset dy="12"/>
<feGaussianBlur stdDeviation="8.5"/>
<feColorMatrix type="matrix" values="0 0 0 0 0.258824 0 0 0 0 0.305882 0 0 0 0 0.329412 0 0 0 0.14 0"/>
<feBlend mode="normal" in2="effect1_dropShadow_5174_239593" result="effect2_dropShadow_5174_239593"/>
<feColorMatrix in="SourceAlpha" type="matrix" values="0 0 0 0 0 0 0 0 0 0 0 0 0 0 0 0 0 0 127 0" result="hardAlpha"/>
<feMorphology radius="4" operator="erode" in="SourceAlpha" result="effect3_dropShadow_5174_239593"/>
<feOffset dy="7"/>
<feGaussianBlur stdDeviation="4"/>
<feColorMatrix type="matrix" values="0 0 0 0 0 0 0 0 0 0 0 0 0 0 0 0 0 0 0.2 0"/>
<feBlend mode="normal" in2="effect2_dropShadow_5174_239593" result="effect3_dropShadow_5174_239593"/>
<feBlend mode="normal" in="SourceGraphic" in2="effect3_dropShadow_5174_239593" result="shape"/>
</filter>
<clipPath id="clip0_5174_239593">
<rect x="100" y="113" width="300" height="275" rx="4" fill="white"/>
</clipPath>
</defs>
</svg>
