<svg width="500" height="500" viewBox="0 0 500 500" fill="none" xmlns="http://www.w3.org/2000/svg">
<rect width="500" height="500" fill="#E2E5E5"/>
<g filter="url(#filter0_ddd_5174_239805)">
<g clip-path="url(#clip0_5174_239805)">
<rect x="100" y="157" width="300" height="187" rx="4" fill="white"/>
<path d="M134.742 194L133.316 190.035H127.857L126.461 194H124L129.342 179.664H131.881L137.223 194H134.742ZM132.701 188.023L131.363 184.137C131.266 183.876 131.129 183.466 130.953 182.906C130.784 182.346 130.667 181.936 130.602 181.676C130.426 182.477 130.169 183.352 129.83 184.303L128.541 188.023H132.701ZM141.158 194H138.863V178.805H141.158V194ZM149.166 194.195C147.486 194.195 146.171 193.707 145.221 192.73C144.277 191.747 143.805 190.396 143.805 188.678C143.805 186.913 144.244 185.527 145.123 184.518C146.002 183.508 147.21 183.004 148.746 183.004C150.172 183.004 151.298 183.437 152.125 184.303C152.952 185.169 153.365 186.36 153.365 187.877V189.117H146.168C146.201 190.165 146.484 190.973 147.018 191.539C147.551 192.099 148.303 192.379 149.273 192.379C149.911 192.379 150.504 192.32 151.051 192.203C151.604 192.079 152.197 191.878 152.828 191.598V193.463C152.268 193.73 151.702 193.919 151.129 194.029C150.556 194.14 149.902 194.195 149.166 194.195ZM148.746 184.742C148.017 184.742 147.431 184.973 146.988 185.436C146.552 185.898 146.292 186.572 146.207 187.457H151.109C151.096 186.565 150.882 185.891 150.465 185.436C150.048 184.973 149.475 184.742 148.746 184.742ZM161.451 183.004C161.913 183.004 162.294 183.036 162.594 183.102L162.369 185.24C162.044 185.162 161.705 185.123 161.354 185.123C160.436 185.123 159.69 185.423 159.117 186.021C158.551 186.62 158.268 187.398 158.268 188.355V194H155.973V183.199H157.77L158.072 185.104H158.189C158.548 184.459 159.013 183.948 159.586 183.57C160.165 183.193 160.787 183.004 161.451 183.004ZM168.629 192.34C169.189 192.34 169.749 192.252 170.309 192.076V193.805C170.055 193.915 169.726 194.007 169.322 194.078C168.925 194.156 168.512 194.195 168.082 194.195C165.908 194.195 164.82 193.049 164.82 190.758V184.938H163.346V183.922L164.928 183.082L165.709 180.797H167.125V183.199H170.201V184.938H167.125V190.719C167.125 191.272 167.262 191.682 167.535 191.949C167.815 192.21 168.18 192.34 168.629 192.34ZM174.459 189.664H172.76L172.252 179.723H174.957L174.459 189.664ZM172.135 192.779C172.135 192.298 172.262 191.933 172.516 191.686C172.77 191.432 173.131 191.305 173.6 191.305C174.062 191.305 174.417 191.435 174.664 191.695C174.911 191.956 175.035 192.317 175.035 192.779C175.035 193.242 174.908 193.609 174.654 193.883C174.407 194.15 174.055 194.283 173.6 194.283C173.137 194.283 172.776 194.153 172.516 193.893C172.262 193.632 172.135 193.261 172.135 192.779Z" fill="#424E54"/>
<path d="M129.086 241H127.758V230.758H124.141V229.578H132.703V230.758H129.086V241ZM140.094 241V235.461C140.094 234.763 139.935 234.242 139.617 233.898C139.299 233.555 138.802 233.383 138.125 233.383C137.224 233.383 136.565 233.628 136.148 234.117C135.737 234.607 135.531 235.409 135.531 236.523V241H134.234V228.844H135.531V232.523C135.531 232.966 135.51 233.333 135.469 233.625H135.547C135.802 233.214 136.164 232.891 136.633 232.656C137.107 232.417 137.646 232.297 138.25 232.297C139.297 232.297 140.081 232.547 140.602 233.047C141.128 233.542 141.391 234.331 141.391 235.414V241H140.094ZM147.68 241.156C146.414 241.156 145.414 240.771 144.68 240C143.951 239.229 143.586 238.159 143.586 236.789C143.586 235.409 143.924 234.312 144.602 233.5C145.284 232.688 146.198 232.281 147.344 232.281C148.417 232.281 149.266 232.635 149.891 233.344C150.516 234.047 150.828 234.977 150.828 236.133V236.953H144.93C144.956 237.958 145.208 238.721 145.688 239.242C146.172 239.763 146.852 240.023 147.727 240.023C148.648 240.023 149.56 239.831 150.461 239.445V240.602C150.003 240.799 149.568 240.94 149.156 241.023C148.75 241.112 148.258 241.156 147.68 241.156ZM147.328 233.367C146.641 233.367 146.091 233.591 145.68 234.039C145.273 234.487 145.034 235.107 144.961 235.898H149.438C149.438 235.081 149.255 234.456 148.891 234.023C148.526 233.586 148.005 233.367 147.328 233.367ZM163.031 239.852H162.961C162.362 240.721 161.466 241.156 160.273 241.156C159.154 241.156 158.281 240.773 157.656 240.008C157.036 239.242 156.727 238.154 156.727 236.742C156.727 235.331 157.039 234.234 157.664 233.453C158.289 232.672 159.159 232.281 160.273 232.281C161.435 232.281 162.326 232.703 162.945 233.547H163.047L162.992 232.93L162.961 232.328V228.844H164.258V241H163.203L163.031 239.852ZM160.438 240.07C161.323 240.07 161.964 239.831 162.359 239.352C162.76 238.867 162.961 238.089 162.961 237.016V236.742C162.961 235.529 162.758 234.664 162.352 234.148C161.951 233.628 161.307 233.367 160.422 233.367C159.661 233.367 159.078 233.664 158.672 234.258C158.271 234.846 158.07 235.68 158.07 236.758C158.07 237.852 158.271 238.677 158.672 239.234C159.073 239.792 159.661 240.07 160.438 240.07ZM172.281 241L172.023 239.781H171.961C171.534 240.318 171.107 240.682 170.68 240.875C170.258 241.062 169.729 241.156 169.094 241.156C168.245 241.156 167.578 240.938 167.094 240.5C166.615 240.062 166.375 239.44 166.375 238.633C166.375 236.904 167.758 235.997 170.523 235.914L171.977 235.867V235.336C171.977 234.664 171.831 234.169 171.539 233.852C171.253 233.529 170.792 233.367 170.156 233.367C169.443 233.367 168.635 233.586 167.734 234.023L167.336 233.031C167.758 232.802 168.219 232.622 168.719 232.492C169.224 232.362 169.729 232.297 170.234 232.297C171.255 232.297 172.01 232.523 172.5 232.977C172.995 233.43 173.242 234.156 173.242 235.156V241H172.281ZM169.352 240.086C170.159 240.086 170.792 239.865 171.25 239.422C171.714 238.979 171.945 238.359 171.945 237.562V236.789L170.648 236.844C169.617 236.88 168.872 237.042 168.414 237.328C167.961 237.609 167.734 238.049 167.734 238.648C167.734 239.117 167.875 239.474 168.156 239.719C168.443 239.964 168.841 240.086 169.352 240.086ZM178.688 240.086C178.917 240.086 179.138 240.07 179.352 240.039C179.565 240.003 179.734 239.966 179.859 239.93V240.922C179.719 240.99 179.51 241.044 179.234 241.086C178.964 241.133 178.719 241.156 178.5 241.156C176.844 241.156 176.016 240.284 176.016 238.539V233.445H174.789V232.82L176.016 232.281L176.562 230.453H177.312V232.438H179.797V233.445H177.312V238.484C177.312 239 177.435 239.396 177.68 239.672C177.924 239.948 178.26 240.086 178.688 240.086ZM186.844 241L186.586 239.781H186.523C186.096 240.318 185.669 240.682 185.242 240.875C184.82 241.062 184.292 241.156 183.656 241.156C182.807 241.156 182.141 240.938 181.656 240.5C181.177 240.062 180.938 239.44 180.938 238.633C180.938 236.904 182.32 235.997 185.086 235.914L186.539 235.867V235.336C186.539 234.664 186.393 234.169 186.102 233.852C185.815 233.529 185.354 233.367 184.719 233.367C184.005 233.367 183.198 233.586 182.297 234.023L181.898 233.031C182.32 232.802 182.781 232.622 183.281 232.492C183.786 232.362 184.292 232.297 184.797 232.297C185.818 232.297 186.573 232.523 187.062 232.977C187.557 233.43 187.805 234.156 187.805 235.156V241H186.844ZM183.914 240.086C184.721 240.086 185.354 239.865 185.812 239.422C186.276 238.979 186.508 238.359 186.508 237.562V236.789L185.211 236.844C184.18 236.88 183.435 237.042 182.977 237.328C182.523 237.609 182.297 238.049 182.297 238.648C182.297 239.117 182.438 239.474 182.719 239.719C183.005 239.964 183.404 240.086 183.914 240.086ZM201.633 241L200.062 235.977C199.964 235.669 199.779 234.971 199.508 233.883H199.445C199.237 234.794 199.055 235.497 198.898 235.992L197.281 241H195.781L193.445 232.438H194.805C195.357 234.589 195.776 236.227 196.062 237.352C196.354 238.477 196.521 239.234 196.562 239.625H196.625C196.682 239.328 196.773 238.945 196.898 238.477C197.029 238.003 197.141 237.628 197.234 237.352L198.805 232.438H200.211L201.742 237.352C202.034 238.247 202.232 239 202.336 239.609H202.398C202.419 239.422 202.474 239.133 202.562 238.742C202.656 238.352 203.201 236.25 204.195 232.438H205.539L203.172 241H201.633ZM208.391 241H207.094V232.438H208.391V241ZM206.984 230.117C206.984 229.82 207.057 229.604 207.203 229.469C207.349 229.328 207.531 229.258 207.75 229.258C207.958 229.258 208.138 229.328 208.289 229.469C208.44 229.609 208.516 229.826 208.516 230.117C208.516 230.409 208.44 230.628 208.289 230.773C208.138 230.914 207.958 230.984 207.75 230.984C207.531 230.984 207.349 230.914 207.203 230.773C207.057 230.628 206.984 230.409 206.984 230.117ZM212.438 241H211.141V228.844H212.438V241ZM216.484 241H215.188V228.844H216.484V241ZM227.375 232.297C228.5 232.297 229.372 232.682 229.992 233.453C230.617 234.219 230.93 235.305 230.93 236.711C230.93 238.117 230.615 239.211 229.984 239.992C229.359 240.768 228.49 241.156 227.375 241.156C226.818 241.156 226.307 241.055 225.844 240.852C225.385 240.643 225 240.326 224.688 239.898H224.594L224.32 241H223.391V228.844H224.688V231.797C224.688 232.458 224.667 233.052 224.625 233.578H224.688C225.292 232.724 226.188 232.297 227.375 232.297ZM227.188 233.383C226.302 233.383 225.664 233.638 225.273 234.148C224.883 234.654 224.688 235.508 224.688 236.711C224.688 237.914 224.888 238.776 225.289 239.297C225.69 239.812 226.333 240.07 227.219 240.07C228.016 240.07 228.609 239.781 229 239.203C229.391 238.62 229.586 237.784 229.586 236.695C229.586 235.581 229.391 234.75 229 234.203C228.609 233.656 228.005 233.383 227.188 233.383ZM236.82 241.156C235.555 241.156 234.555 240.771 233.82 240C233.091 239.229 232.727 238.159 232.727 236.789C232.727 235.409 233.065 234.312 233.742 233.5C234.424 232.688 235.339 232.281 236.484 232.281C237.557 232.281 238.406 232.635 239.031 233.344C239.656 234.047 239.969 234.977 239.969 236.133V236.953H234.07C234.096 237.958 234.349 238.721 234.828 239.242C235.312 239.763 235.992 240.023 236.867 240.023C237.789 240.023 238.701 239.831 239.602 239.445V240.602C239.143 240.799 238.708 240.94 238.297 241.023C237.891 241.112 237.398 241.156 236.82 241.156ZM236.469 233.367C235.781 233.367 235.232 233.591 234.82 234.039C234.414 234.487 234.174 235.107 234.102 235.898H238.578C238.578 235.081 238.396 234.456 238.031 234.023C237.667 233.586 237.146 233.367 236.469 233.367ZM250.328 241.156C249.771 241.156 249.26 241.055 248.797 240.852C248.339 240.643 247.953 240.326 247.641 239.898H247.547C247.609 240.398 247.641 240.872 247.641 241.32V244.844H246.344V232.438H247.398L247.578 233.609H247.641C247.974 233.141 248.362 232.802 248.805 232.594C249.247 232.385 249.755 232.281 250.328 232.281C251.464 232.281 252.339 232.669 252.953 233.445C253.573 234.221 253.883 235.31 253.883 236.711C253.883 238.117 253.568 239.211 252.938 239.992C252.312 240.768 251.443 241.156 250.328 241.156ZM250.141 233.383C249.266 233.383 248.633 233.625 248.242 234.109C247.852 234.594 247.651 235.365 247.641 236.422V236.711C247.641 237.914 247.841 238.776 248.242 239.297C248.643 239.812 249.286 240.07 250.172 240.07C250.911 240.07 251.49 239.771 251.906 239.172C252.328 238.573 252.539 237.747 252.539 236.695C252.539 235.628 252.328 234.81 251.906 234.242C251.49 233.669 250.901 233.383 250.141 233.383ZM259.773 241.156C258.508 241.156 257.508 240.771 256.773 240C256.044 239.229 255.68 238.159 255.68 236.789C255.68 235.409 256.018 234.312 256.695 233.5C257.378 232.688 258.292 232.281 259.438 232.281C260.51 232.281 261.359 232.635 261.984 233.344C262.609 234.047 262.922 234.977 262.922 236.133V236.953H257.023C257.049 237.958 257.302 238.721 257.781 239.242C258.266 239.763 258.945 240.023 259.82 240.023C260.742 240.023 261.654 239.831 262.555 239.445V240.602C262.096 240.799 261.661 240.94 261.25 241.023C260.844 241.112 260.352 241.156 259.773 241.156ZM259.422 233.367C258.734 233.367 258.185 233.591 257.773 234.039C257.367 234.487 257.128 235.107 257.055 235.898H261.531C261.531 235.081 261.349 234.456 260.984 234.023C260.62 233.586 260.099 233.367 259.422 233.367ZM269.047 232.281C269.427 232.281 269.768 232.312 270.07 232.375L269.891 233.578C269.536 233.5 269.224 233.461 268.953 233.461C268.26 233.461 267.667 233.742 267.172 234.305C266.682 234.867 266.438 235.568 266.438 236.406V241H265.141V232.438H266.211L266.359 234.023H266.422C266.74 233.466 267.122 233.036 267.57 232.734C268.018 232.432 268.51 232.281 269.047 232.281ZM282.586 241V235.43C282.586 234.747 282.44 234.237 282.148 233.898C281.857 233.555 281.404 233.383 280.789 233.383C279.982 233.383 279.385 233.615 279 234.078C278.615 234.542 278.422 235.255 278.422 236.219V241H277.125V235.43C277.125 234.747 276.979 234.237 276.688 233.898C276.396 233.555 275.94 233.383 275.32 233.383C274.508 233.383 273.911 233.628 273.531 234.117C273.156 234.602 272.969 235.398 272.969 236.508V241H271.672V232.438H272.727L272.938 233.609H273C273.245 233.193 273.589 232.867 274.031 232.633C274.479 232.398 274.979 232.281 275.531 232.281C276.87 232.281 277.745 232.766 278.156 233.734H278.219C278.474 233.286 278.844 232.932 279.328 232.672C279.812 232.411 280.365 232.281 280.984 232.281C281.953 232.281 282.677 232.531 283.156 233.031C283.641 233.526 283.883 234.32 283.883 235.414V241H282.586ZM291.828 241L291.57 239.781H291.508C291.081 240.318 290.654 240.682 290.227 240.875C289.805 241.062 289.276 241.156 288.641 241.156C287.792 241.156 287.125 240.938 286.641 240.5C286.161 240.062 285.922 239.44 285.922 238.633C285.922 236.904 287.305 235.997 290.07 235.914L291.523 235.867V235.336C291.523 234.664 291.378 234.169 291.086 233.852C290.799 233.529 290.339 233.367 289.703 233.367C288.99 233.367 288.182 233.586 287.281 234.023L286.883 233.031C287.305 232.802 287.766 232.622 288.266 232.492C288.771 232.362 289.276 232.297 289.781 232.297C290.802 232.297 291.557 232.523 292.047 232.977C292.542 233.43 292.789 234.156 292.789 235.156V241H291.828ZM288.898 240.086C289.706 240.086 290.339 239.865 290.797 239.422C291.26 238.979 291.492 238.359 291.492 237.562V236.789L290.195 236.844C289.164 236.88 288.419 237.042 287.961 237.328C287.508 237.609 287.281 238.049 287.281 238.648C287.281 239.117 287.422 239.474 287.703 239.719C287.99 239.964 288.388 240.086 288.898 240.086ZM301.328 241V235.461C301.328 234.763 301.169 234.242 300.852 233.898C300.534 233.555 300.036 233.383 299.359 233.383C298.464 233.383 297.807 233.625 297.391 234.109C296.974 234.594 296.766 235.393 296.766 236.508V241H295.469V232.438H296.523L296.734 233.609H296.797C297.062 233.188 297.435 232.862 297.914 232.633C298.393 232.398 298.927 232.281 299.516 232.281C300.547 232.281 301.323 232.531 301.844 233.031C302.365 233.526 302.625 234.32 302.625 235.414V241H301.328ZM308.914 241.156C307.648 241.156 306.648 240.771 305.914 240C305.185 239.229 304.82 238.159 304.82 236.789C304.82 235.409 305.159 234.312 305.836 233.5C306.518 232.688 307.432 232.281 308.578 232.281C309.651 232.281 310.5 232.635 311.125 233.344C311.75 234.047 312.062 234.977 312.062 236.133V236.953H306.164C306.19 237.958 306.443 238.721 306.922 239.242C307.406 239.763 308.086 240.023 308.961 240.023C309.883 240.023 310.794 239.831 311.695 239.445V240.602C311.237 240.799 310.802 240.94 310.391 241.023C309.984 241.112 309.492 241.156 308.914 241.156ZM308.562 233.367C307.875 233.367 307.326 233.591 306.914 234.039C306.508 234.487 306.268 235.107 306.195 235.898H310.672C310.672 235.081 310.49 234.456 310.125 234.023C309.76 233.586 309.24 233.367 308.562 233.367ZM320.141 241V235.461C320.141 234.763 319.982 234.242 319.664 233.898C319.346 233.555 318.849 233.383 318.172 233.383C317.276 233.383 316.62 233.625 316.203 234.109C315.786 234.594 315.578 235.393 315.578 236.508V241H314.281V232.438H315.336L315.547 233.609H315.609C315.875 233.188 316.247 232.862 316.727 232.633C317.206 232.398 317.74 232.281 318.328 232.281C319.359 232.281 320.135 232.531 320.656 233.031C321.177 233.526 321.438 234.32 321.438 235.414V241H320.141ZM326.875 240.086C327.104 240.086 327.326 240.07 327.539 240.039C327.753 240.003 327.922 239.966 328.047 239.93V240.922C327.906 240.99 327.698 241.044 327.422 241.086C327.151 241.133 326.906 241.156 326.688 241.156C325.031 241.156 324.203 240.284 324.203 238.539V233.445H322.977V232.82L324.203 232.281L324.75 230.453H325.5V232.438H327.984V233.445H325.5V238.484C325.5 239 325.622 239.396 325.867 239.672C326.112 239.948 326.448 240.086 326.875 240.086ZM331.062 241H329.766V228.844H331.062V241ZM332.453 232.438H333.844L335.719 237.32C336.13 238.435 336.385 239.24 336.484 239.734H336.547C336.615 239.469 336.755 239.016 336.969 238.375C337.188 237.729 337.896 235.75 339.094 232.438H340.484L336.805 242.188C336.44 243.151 336.013 243.833 335.523 244.234C335.039 244.641 334.443 244.844 333.734 244.844C333.339 244.844 332.948 244.799 332.562 244.711V243.672C332.849 243.734 333.169 243.766 333.523 243.766C334.414 243.766 335.049 243.266 335.43 242.266L335.906 241.047L332.453 232.438ZM128.992 263.156C127.727 263.156 126.727 262.771 125.992 262C125.263 261.229 124.898 260.159 124.898 258.789C124.898 257.409 125.237 256.312 125.914 255.5C126.596 254.688 127.51 254.281 128.656 254.281C129.729 254.281 130.578 254.635 131.203 255.344C131.828 256.047 132.141 256.977 132.141 258.133V258.953H126.242C126.268 259.958 126.521 260.721 127 261.242C127.484 261.763 128.164 262.023 129.039 262.023C129.961 262.023 130.872 261.831 131.773 261.445V262.602C131.315 262.799 130.88 262.94 130.469 263.023C130.062 263.112 129.57 263.156 128.992 263.156ZM128.641 255.367C127.953 255.367 127.404 255.591 126.992 256.039C126.586 256.487 126.346 257.107 126.273 257.898H130.75C130.75 257.081 130.568 256.456 130.203 256.023C129.839 255.586 129.318 255.367 128.641 255.367ZM138.266 254.281C138.646 254.281 138.987 254.312 139.289 254.375L139.109 255.578C138.755 255.5 138.443 255.461 138.172 255.461C137.479 255.461 136.885 255.742 136.391 256.305C135.901 256.867 135.656 257.568 135.656 258.406V263H134.359V254.438H135.43L135.578 256.023H135.641C135.958 255.466 136.341 255.036 136.789 254.734C137.237 254.432 137.729 254.281 138.266 254.281ZM146.156 263L145.898 261.781H145.836C145.409 262.318 144.982 262.682 144.555 262.875C144.133 263.062 143.604 263.156 142.969 263.156C142.12 263.156 141.453 262.938 140.969 262.5C140.49 262.062 140.25 261.44 140.25 260.633C140.25 258.904 141.633 257.997 144.398 257.914L145.852 257.867V257.336C145.852 256.664 145.706 256.169 145.414 255.852C145.128 255.529 144.667 255.367 144.031 255.367C143.318 255.367 142.51 255.586 141.609 256.023L141.211 255.031C141.633 254.802 142.094 254.622 142.594 254.492C143.099 254.362 143.604 254.297 144.109 254.297C145.13 254.297 145.885 254.523 146.375 254.977C146.87 255.43 147.117 256.156 147.117 257.156V263H146.156ZM143.227 262.086C144.034 262.086 144.667 261.865 145.125 261.422C145.589 260.979 145.82 260.359 145.82 259.562V258.789L144.523 258.844C143.492 258.88 142.747 259.042 142.289 259.328C141.836 259.609 141.609 260.049 141.609 260.648C141.609 261.117 141.75 261.474 142.031 261.719C142.318 261.964 142.716 262.086 143.227 262.086ZM155.32 260.664C155.32 261.461 155.023 262.076 154.43 262.508C153.836 262.94 153.003 263.156 151.93 263.156C150.794 263.156 149.909 262.977 149.273 262.617V261.414C149.685 261.622 150.125 261.786 150.594 261.906C151.068 262.026 151.523 262.086 151.961 262.086C152.638 262.086 153.159 261.979 153.523 261.766C153.888 261.547 154.07 261.216 154.07 260.773C154.07 260.44 153.924 260.156 153.633 259.922C153.346 259.682 152.784 259.401 151.945 259.078C151.148 258.781 150.581 258.523 150.242 258.305C149.909 258.081 149.659 257.828 149.492 257.547C149.331 257.266 149.25 256.93 149.25 256.539C149.25 255.841 149.534 255.292 150.102 254.891C150.669 254.484 151.448 254.281 152.438 254.281C153.359 254.281 154.26 254.469 155.141 254.844L154.68 255.898C153.82 255.544 153.042 255.367 152.344 255.367C151.729 255.367 151.266 255.464 150.953 255.656C150.641 255.849 150.484 256.115 150.484 256.453C150.484 256.682 150.542 256.878 150.656 257.039C150.776 257.201 150.966 257.354 151.227 257.5C151.487 257.646 151.987 257.857 152.727 258.133C153.742 258.503 154.427 258.875 154.781 259.25C155.141 259.625 155.32 260.096 155.32 260.664ZM161.055 263.156C159.789 263.156 158.789 262.771 158.055 262C157.326 261.229 156.961 260.159 156.961 258.789C156.961 257.409 157.299 256.312 157.977 255.5C158.659 254.688 159.573 254.281 160.719 254.281C161.792 254.281 162.641 254.635 163.266 255.344C163.891 256.047 164.203 256.977 164.203 258.133V258.953H158.305C158.331 259.958 158.583 260.721 159.062 261.242C159.547 261.763 160.227 262.023 161.102 262.023C162.023 262.023 162.935 261.831 163.836 261.445V262.602C163.378 262.799 162.943 262.94 162.531 263.023C162.125 263.112 161.633 263.156 161.055 263.156ZM160.703 255.367C160.016 255.367 159.466 255.591 159.055 256.039C158.648 256.487 158.409 257.107 158.336 257.898H162.812C162.812 257.081 162.63 256.456 162.266 256.023C161.901 255.586 161.38 255.367 160.703 255.367ZM172.25 261.852H172.18C171.581 262.721 170.685 263.156 169.492 263.156C168.372 263.156 167.5 262.773 166.875 262.008C166.255 261.242 165.945 260.154 165.945 258.742C165.945 257.331 166.258 256.234 166.883 255.453C167.508 254.672 168.378 254.281 169.492 254.281C170.654 254.281 171.544 254.703 172.164 255.547H172.266L172.211 254.93L172.18 254.328V250.844H173.477V263H172.422L172.25 261.852ZM169.656 262.07C170.542 262.07 171.182 261.831 171.578 261.352C171.979 260.867 172.18 260.089 172.18 259.016V258.742C172.18 257.529 171.977 256.664 171.57 256.148C171.169 255.628 170.526 255.367 169.641 255.367C168.88 255.367 168.297 255.664 167.891 256.258C167.49 256.846 167.289 257.68 167.289 258.758C167.289 259.852 167.49 260.677 167.891 261.234C168.292 261.792 168.88 262.07 169.656 262.07ZM177.406 259.852H176.586L176.188 251.578H177.805L177.406 259.852ZM176.047 262.172C176.047 261.464 176.359 261.109 176.984 261.109C177.286 261.109 177.518 261.201 177.68 261.383C177.846 261.565 177.93 261.828 177.93 262.172C177.93 262.505 177.846 262.766 177.68 262.953C177.513 263.135 177.281 263.227 176.984 263.227C176.714 263.227 176.49 263.146 176.312 262.984C176.135 262.818 176.047 262.547 176.047 262.172ZM181.688 259.852H180.867L180.469 251.578H182.086L181.688 259.852ZM180.328 262.172C180.328 261.464 180.641 261.109 181.266 261.109C181.568 261.109 181.799 261.201 181.961 261.383C182.128 261.565 182.211 261.828 182.211 262.172C182.211 262.505 182.128 262.766 181.961 262.953C181.794 263.135 181.562 263.227 181.266 263.227C180.995 263.227 180.771 263.146 180.594 262.984C180.417 262.818 180.328 262.547 180.328 262.172ZM185.969 259.852H185.148L184.75 251.578H186.367L185.969 259.852ZM184.609 262.172C184.609 261.464 184.922 261.109 185.547 261.109C185.849 261.109 186.081 261.201 186.242 261.383C186.409 261.565 186.492 261.828 186.492 262.172C186.492 262.505 186.409 262.766 186.242 262.953C186.076 263.135 185.844 263.227 185.547 263.227C185.276 263.227 185.052 263.146 184.875 262.984C184.698 262.818 184.609 262.547 184.609 262.172Z" fill="#424E54"/>
<path d="M289.646 315.5H287.643L282.728 307.536H282.673L282.707 307.98C282.771 308.828 282.803 309.603 282.803 310.305V315.5H281.319V305.506H283.302L288.203 313.429H288.244C288.235 313.324 288.217 312.943 288.189 312.287C288.162 311.626 288.148 311.111 288.148 310.742V305.506H289.646V315.5ZM298.819 311.706C298.819 312.941 298.503 313.905 297.869 314.598C297.236 315.29 296.354 315.637 295.224 315.637C294.517 315.637 293.893 315.477 293.351 315.158C292.808 314.839 292.391 314.381 292.1 313.784C291.808 313.187 291.662 312.494 291.662 311.706C291.662 310.48 291.977 309.523 292.605 308.835C293.234 308.147 294.121 307.803 295.265 307.803C296.358 307.803 297.224 308.156 297.862 308.862C298.5 309.564 298.819 310.512 298.819 311.706ZM293.316 311.706C293.316 313.451 293.961 314.324 295.251 314.324C296.527 314.324 297.165 313.451 297.165 311.706C297.165 309.979 296.522 309.115 295.237 309.115C294.563 309.115 294.073 309.339 293.768 309.785C293.467 310.232 293.316 310.872 293.316 311.706Z" fill="#007BC1"/>
<rect x="264.5" y="292.5" width="51" height="35" rx="3.5" stroke="#007BC1"/>
<path d="M348.143 310.065L350.508 305.506H352.285L348.956 311.624V315.5H347.315V311.679L344 305.506H345.777L348.143 310.065ZM356.735 315.637C355.56 315.637 354.639 315.295 353.974 314.611C353.313 313.923 352.982 312.978 352.982 311.774C352.982 310.539 353.29 309.569 353.905 308.862C354.521 308.156 355.366 307.803 356.441 307.803C357.439 307.803 358.228 308.106 358.807 308.712C359.385 309.318 359.675 310.152 359.675 311.214V312.082H354.637C354.66 312.816 354.858 313.381 355.231 313.777C355.605 314.169 356.132 314.365 356.811 314.365C357.257 314.365 357.672 314.324 358.055 314.242C358.442 314.156 358.857 314.014 359.299 313.818V315.124C358.907 315.311 358.51 315.443 358.109 315.521C357.708 315.598 357.25 315.637 356.735 315.637ZM356.441 309.02C355.931 309.02 355.521 309.181 355.211 309.505C354.906 309.828 354.723 310.3 354.664 310.92H358.096C358.087 310.296 357.936 309.824 357.645 309.505C357.353 309.181 356.952 309.02 356.441 309.02ZM366.579 313.347C366.579 314.085 366.31 314.652 365.772 315.049C365.235 315.441 364.465 315.637 363.462 315.637C362.455 315.637 361.646 315.484 361.035 315.179V313.791C361.924 314.201 362.751 314.406 363.517 314.406C364.506 314.406 365 314.108 365 313.511C365 313.319 364.945 313.16 364.836 313.032C364.727 312.905 364.547 312.772 364.296 312.636C364.045 312.499 363.697 312.344 363.25 312.171C362.38 311.834 361.789 311.496 361.479 311.159C361.174 310.822 361.021 310.384 361.021 309.847C361.021 309.2 361.281 308.698 361.801 308.343C362.325 307.983 363.036 307.803 363.934 307.803C364.822 307.803 365.663 307.983 366.456 308.343L365.937 309.553C365.121 309.215 364.435 309.047 363.879 309.047C363.031 309.047 362.607 309.288 362.607 309.771C362.607 310.008 362.717 310.209 362.936 310.373C363.159 310.537 363.642 310.763 364.385 311.05C365.009 311.291 365.463 311.512 365.745 311.713C366.028 311.913 366.237 312.146 366.374 312.41C366.511 312.67 366.579 312.982 366.579 313.347Z" fill="#CA3C3D"/>
<rect x="328.5" y="292.5" width="55" height="35" rx="3.5" stroke="#CA3C3D"/>
</g>
</g>
<defs>
<filter id="filter0_ddd_5174_239805" x="74" y="136" width="352" height="239" filterUnits="userSpaceOnUse" color-interpolation-filters="sRGB">
<feFlood flood-opacity="0" result="BackgroundImageFix"/>
<feColorMatrix in="SourceAlpha" type="matrix" values="0 0 0 0 0 0 0 0 0 0 0 0 0 0 0 0 0 0 127 0" result="hardAlpha"/>
<feMorphology radius="4" operator="dilate" in="SourceAlpha" result="effect1_dropShadow_5174_239805"/>
<feOffset dy="5"/>
<feGaussianBlur stdDeviation="11"/>
<feColorMatrix type="matrix" values="0 0 0 0 0 0 0 0 0 0 0 0 0 0 0 0 0 0 0.12 0"/>
<feBlend mode="normal" in2="BackgroundImageFix" result="effect1_dropShadow_5174_239805"/>
<feColorMatrix in="SourceAlpha" type="matrix" values="0 0 0 0 0 0 0 0 0 0 0 0 0 0 0 0 0 0 127 0" result="hardAlpha"/>
<feMorphology radius="2" operator="dilate" in="SourceAlpha" result="effect2_dropShadow_5174_239805"/>
<feOffset dy="12"/>
<feGaussianBlur stdDeviation="8.5"/>
<feColorMatrix type="matrix" values="0 0 0 0 0.258824 0 0 0 0 0.305882 0 0 0 0 0.329412 0 0 0 0.14 0"/>
<feBlend mode="normal" in2="effect1_dropShadow_5174_239805" result="effect2_dropShadow_5174_239805"/>
<feColorMatrix in="SourceAlpha" type="matrix" values="0 0 0 0 0 0 0 0 0 0 0 0 0 0 0 0 0 0 127 0" result="hardAlpha"/>
<feMorphology radius="4" operator="erode" in="SourceAlpha" result="effect3_dropShadow_5174_239805"/>
<feOffset dy="7"/>
<feGaussianBlur stdDeviation="4"/>
<feColorMatrix type="matrix" values="0 0 0 0 0 0 0 0 0 0 0 0 0 0 0 0 0 0 0.2 0"/>
<feBlend mode="normal" in2="effect2_dropShadow_5174_239805" result="effect3_dropShadow_5174_239805"/>
<feBlend mode="normal" in="SourceGraphic" in2="effect3_dropShadow_5174_239805" result="shape"/>
</filter>
<clipPath id="clip0_5174_239805">
<rect x="100" y="157" width="300" height="187" rx="4" fill="white"/>
</clipPath>
</defs>
</svg>
