<svg width="500" height="500" viewBox="0 0 500 500" fill="none" xmlns="http://www.w3.org/2000/svg">
<rect width="500" height="500" fill="#E2E5E5"/>
<g filter="url(#filter0_ddd_5174_239769)">
<g clip-path="url(#clip0_5174_239769)">
<rect x="100" y="119" width="300" height="263" rx="4" fill="white"/>
<path d="M134.742 156L133.316 152.035H127.857L126.461 156H124L129.342 141.664H131.881L137.223 156H134.742ZM132.701 150.023L131.363 146.137C131.266 145.876 131.129 145.466 130.953 144.906C130.784 144.346 130.667 143.936 130.602 143.676C130.426 144.477 130.169 145.352 129.83 146.303L128.541 150.023H132.701ZM144.342 145.004C144.804 145.004 145.185 145.036 145.484 145.102L145.26 147.24C144.934 147.162 144.596 147.123 144.244 147.123C143.326 147.123 142.581 147.423 142.008 148.021C141.441 148.62 141.158 149.398 141.158 150.355V156H138.863V145.199H140.66L140.963 147.104H141.08C141.438 146.459 141.904 145.948 142.477 145.57C143.056 145.193 143.678 145.004 144.342 145.004ZM152.213 156.195C150.533 156.195 149.218 155.707 148.268 154.73C147.324 153.747 146.852 152.396 146.852 150.678C146.852 148.913 147.291 147.527 148.17 146.518C149.049 145.508 150.257 145.004 151.793 145.004C153.219 145.004 154.345 145.437 155.172 146.303C155.999 147.169 156.412 148.36 156.412 149.877V151.117H149.215C149.247 152.165 149.531 152.973 150.064 153.539C150.598 154.099 151.35 154.379 152.32 154.379C152.958 154.379 153.551 154.32 154.098 154.203C154.651 154.079 155.243 153.878 155.875 153.598V155.463C155.315 155.73 154.749 155.919 154.176 156.029C153.603 156.14 152.949 156.195 152.213 156.195ZM151.793 146.742C151.064 146.742 150.478 146.973 150.035 147.436C149.599 147.898 149.339 148.572 149.254 149.457H154.156C154.143 148.565 153.928 147.891 153.512 147.436C153.095 146.973 152.522 146.742 151.793 146.742ZM162.574 145.199H165.074L167.271 151.322C167.604 152.195 167.825 153.015 167.936 153.783H168.014C168.072 153.425 168.18 152.992 168.336 152.484C168.492 151.97 169.319 149.542 170.816 145.199H173.297L168.678 157.436C167.838 159.682 166.438 160.805 164.479 160.805C163.971 160.805 163.476 160.749 162.994 160.639V158.822C163.339 158.9 163.733 158.939 164.176 158.939C165.283 158.939 166.061 158.298 166.51 157.016L166.91 156L162.574 145.199ZM184.518 150.58C184.518 152.344 184.065 153.721 183.16 154.711C182.255 155.701 180.995 156.195 179.381 156.195C178.372 156.195 177.48 155.967 176.705 155.512C175.93 155.056 175.335 154.402 174.918 153.549C174.501 152.696 174.293 151.706 174.293 150.58C174.293 148.829 174.742 147.462 175.641 146.479C176.539 145.495 177.805 145.004 179.439 145.004C181.002 145.004 182.239 145.508 183.15 146.518C184.062 147.52 184.518 148.874 184.518 150.58ZM176.656 150.58C176.656 153.074 177.577 154.32 179.42 154.32C181.243 154.32 182.154 153.074 182.154 150.58C182.154 148.113 181.236 146.879 179.4 146.879C178.437 146.879 177.737 147.198 177.301 147.836C176.871 148.474 176.656 149.389 176.656 150.58ZM194.781 156L194.459 154.584H194.342C194.023 155.085 193.567 155.479 192.975 155.766C192.389 156.052 191.718 156.195 190.963 156.195C189.654 156.195 188.678 155.87 188.033 155.219C187.389 154.568 187.066 153.581 187.066 152.26V145.199H189.381V151.859C189.381 152.686 189.55 153.308 189.889 153.725C190.227 154.135 190.758 154.34 191.48 154.34C192.444 154.34 193.15 154.053 193.6 153.48C194.055 152.901 194.283 151.934 194.283 150.58V145.199H196.588V156H194.781ZM212.311 152.924C212.311 153.979 211.926 154.789 211.158 155.355C210.39 155.915 209.29 156.195 207.857 156.195C206.419 156.195 205.263 155.977 204.391 155.541V153.559C205.66 154.145 206.842 154.438 207.936 154.438C209.348 154.438 210.055 154.011 210.055 153.158C210.055 152.885 209.977 152.657 209.82 152.475C209.664 152.292 209.407 152.104 209.049 151.908C208.691 151.713 208.193 151.492 207.555 151.244C206.311 150.762 205.468 150.281 205.025 149.799C204.589 149.317 204.371 148.692 204.371 147.924C204.371 146.999 204.742 146.283 205.484 145.775C206.233 145.261 207.249 145.004 208.531 145.004C209.801 145.004 211.002 145.261 212.135 145.775L211.393 147.504C210.227 147.022 209.247 146.781 208.453 146.781C207.242 146.781 206.637 147.126 206.637 147.816C206.637 148.155 206.793 148.441 207.105 148.676C207.424 148.91 208.115 149.232 209.176 149.643C210.068 149.988 210.715 150.303 211.119 150.59C211.523 150.876 211.822 151.208 212.018 151.586C212.213 151.957 212.311 152.403 212.311 152.924ZM222.418 156L222.096 154.584H221.979C221.66 155.085 221.204 155.479 220.611 155.766C220.025 156.052 219.355 156.195 218.6 156.195C217.291 156.195 216.314 155.87 215.67 155.219C215.025 154.568 214.703 153.581 214.703 152.26V145.199H217.018V151.859C217.018 152.686 217.187 153.308 217.525 153.725C217.864 154.135 218.395 154.34 219.117 154.34C220.081 154.34 220.787 154.053 221.236 153.48C221.692 152.901 221.92 151.934 221.92 150.58V145.199H224.225V156H222.418ZM232.975 145.004C233.437 145.004 233.818 145.036 234.117 145.102L233.893 147.24C233.567 147.162 233.229 147.123 232.877 147.123C231.959 147.123 231.214 147.423 230.641 148.021C230.074 148.62 229.791 149.398 229.791 150.355V156H227.496V145.199H229.293L229.596 147.104H229.713C230.071 146.459 230.536 145.948 231.109 145.57C231.689 145.193 232.311 145.004 232.975 145.004ZM240.846 156.195C239.166 156.195 237.851 155.707 236.9 154.73C235.956 153.747 235.484 152.396 235.484 150.678C235.484 148.913 235.924 147.527 236.803 146.518C237.682 145.508 238.889 145.004 240.426 145.004C241.852 145.004 242.978 145.437 243.805 146.303C244.632 147.169 245.045 148.36 245.045 149.877V151.117H237.848C237.88 152.165 238.163 152.973 238.697 153.539C239.231 154.099 239.983 154.379 240.953 154.379C241.591 154.379 242.184 154.32 242.73 154.203C243.284 154.079 243.876 153.878 244.508 153.598V155.463C243.948 155.73 243.382 155.919 242.809 156.029C242.236 156.14 241.581 156.195 240.846 156.195ZM240.426 146.742C239.697 146.742 239.111 146.973 238.668 147.436C238.232 147.898 237.971 148.572 237.887 149.457H242.789C242.776 148.565 242.561 147.891 242.145 147.436C241.728 146.973 241.155 146.742 240.426 146.742ZM251.207 145.199H253.707L255.904 151.322C256.236 152.195 256.458 153.015 256.568 153.783H256.646C256.705 153.425 256.812 152.992 256.969 152.484C257.125 151.97 257.952 149.542 259.449 145.199H261.93L257.311 157.436C256.471 159.682 255.071 160.805 253.111 160.805C252.604 160.805 252.109 160.749 251.627 160.639V158.822C251.972 158.9 252.366 158.939 252.809 158.939C253.915 158.939 254.693 158.298 255.143 157.016L255.543 156L251.207 145.199ZM273.15 150.58C273.15 152.344 272.698 153.721 271.793 154.711C270.888 155.701 269.628 156.195 268.014 156.195C267.005 156.195 266.113 155.967 265.338 155.512C264.563 155.056 263.967 154.402 263.551 153.549C263.134 152.696 262.926 151.706 262.926 150.58C262.926 148.829 263.375 147.462 264.273 146.479C265.172 145.495 266.438 145.004 268.072 145.004C269.635 145.004 270.872 145.508 271.783 146.518C272.695 147.52 273.15 148.874 273.15 150.58ZM265.289 150.58C265.289 153.074 266.21 154.32 268.053 154.32C269.876 154.32 270.787 153.074 270.787 150.58C270.787 148.113 269.869 146.879 268.033 146.879C267.07 146.879 266.37 147.198 265.934 147.836C265.504 148.474 265.289 149.389 265.289 150.58ZM283.414 156L283.092 154.584H282.975C282.656 155.085 282.2 155.479 281.607 155.766C281.021 156.052 280.351 156.195 279.596 156.195C278.287 156.195 277.311 155.87 276.666 155.219C276.021 154.568 275.699 153.581 275.699 152.26V145.199H278.014V151.859C278.014 152.686 278.183 153.308 278.521 153.725C278.86 154.135 279.391 154.34 280.113 154.34C281.077 154.34 281.783 154.053 282.232 153.48C282.688 152.901 282.916 151.934 282.916 150.58V145.199H285.221V156H283.414ZM302.545 156L301.148 150.961C300.979 150.427 300.673 149.187 300.23 147.24H300.143C299.765 148.998 299.465 150.245 299.244 150.98L297.809 156H295.27L292.242 145.199H294.586L295.963 150.521C296.275 151.837 296.497 152.963 296.627 153.9H296.686C296.751 153.425 296.848 152.882 296.979 152.27C297.115 151.651 297.232 151.189 297.33 150.883L298.971 145.199H301.49L303.082 150.883C303.18 151.202 303.3 151.69 303.443 152.348C303.593 153.005 303.681 153.516 303.707 153.881H303.785C303.883 153.08 304.111 151.96 304.469 150.521L305.865 145.199H308.17L305.123 156H302.545ZM316.793 156L316.334 154.496H316.256C315.735 155.154 315.211 155.603 314.684 155.844C314.156 156.078 313.479 156.195 312.652 156.195C311.591 156.195 310.761 155.909 310.162 155.336C309.57 154.763 309.273 153.952 309.273 152.904C309.273 151.791 309.687 150.951 310.514 150.385C311.34 149.818 312.6 149.509 314.293 149.457L316.158 149.398V148.822C316.158 148.132 315.995 147.618 315.67 147.279C315.351 146.934 314.853 146.762 314.176 146.762C313.622 146.762 313.092 146.843 312.584 147.006C312.076 147.169 311.588 147.361 311.119 147.582L310.377 145.941C310.963 145.635 311.604 145.404 312.301 145.248C312.997 145.085 313.655 145.004 314.273 145.004C315.647 145.004 316.682 145.303 317.379 145.902C318.082 146.501 318.434 147.442 318.434 148.725V156H316.793ZM313.375 154.438C314.208 154.438 314.876 154.206 315.377 153.744C315.885 153.275 316.139 152.621 316.139 151.781V150.844L314.752 150.902C313.671 150.941 312.883 151.124 312.389 151.449C311.9 151.768 311.656 152.26 311.656 152.924C311.656 153.406 311.799 153.78 312.086 154.047C312.372 154.307 312.802 154.438 313.375 154.438ZM331.139 156H328.834V149.359C328.834 148.526 328.665 147.904 328.326 147.494C327.994 147.084 327.464 146.879 326.734 146.879C325.764 146.879 325.055 147.165 324.605 147.738C324.156 148.311 323.932 149.271 323.932 150.619V156H321.637V145.199H323.434L323.756 146.615H323.873C324.199 146.101 324.661 145.704 325.26 145.424C325.859 145.144 326.523 145.004 327.252 145.004C329.843 145.004 331.139 146.322 331.139 148.959V156ZM338.355 154.34C338.915 154.34 339.475 154.252 340.035 154.076V155.805C339.781 155.915 339.452 156.007 339.049 156.078C338.652 156.156 338.238 156.195 337.809 156.195C335.634 156.195 334.547 155.049 334.547 152.758V146.938H333.072V145.922L334.654 145.082L335.436 142.797H336.852V145.199H339.928V146.938H336.852V152.719C336.852 153.272 336.988 153.682 337.262 153.949C337.542 154.21 337.906 154.34 338.355 154.34ZM351.422 154.34C351.982 154.34 352.542 154.252 353.102 154.076V155.805C352.848 155.915 352.519 156.007 352.115 156.078C351.718 156.156 351.305 156.195 350.875 156.195C348.701 156.195 347.613 155.049 347.613 152.758V146.938H346.139V145.922L347.721 145.082L348.502 142.797H349.918V145.199H352.994V146.938H349.918V152.719C349.918 153.272 350.055 153.682 350.328 153.949C350.608 154.21 350.973 154.34 351.422 154.34ZM364.85 150.58C364.85 152.344 364.397 153.721 363.492 154.711C362.587 155.701 361.327 156.195 359.713 156.195C358.704 156.195 357.812 155.967 357.037 155.512C356.262 155.056 355.667 154.402 355.25 153.549C354.833 152.696 354.625 151.706 354.625 150.58C354.625 148.829 355.074 147.462 355.973 146.479C356.871 145.495 358.137 145.004 359.771 145.004C361.334 145.004 362.571 145.508 363.482 146.518C364.394 147.52 364.85 148.874 364.85 150.58ZM356.988 150.58C356.988 153.074 357.91 154.32 359.752 154.32C361.575 154.32 362.486 153.074 362.486 150.58C362.486 148.113 361.568 146.879 359.732 146.879C358.769 146.879 358.069 147.198 357.633 147.836C357.203 148.474 356.988 149.389 356.988 150.58ZM129.283 183.195C127.936 183.195 126.884 182.707 126.129 181.73C125.374 180.754 124.996 179.383 124.996 177.619C124.996 175.848 125.377 174.471 126.139 173.488C126.907 172.499 127.968 172.004 129.322 172.004C130.742 172.004 131.822 172.528 132.564 173.576H132.682C132.571 172.801 132.516 172.189 132.516 171.74V167.805H134.82V183H133.023L132.623 181.584H132.516C131.78 182.658 130.702 183.195 129.283 183.195ZM129.898 181.34C130.842 181.34 131.529 181.076 131.959 180.549C132.389 180.015 132.61 179.152 132.623 177.961V177.639C132.623 176.278 132.402 175.311 131.959 174.738C131.516 174.165 130.823 173.879 129.879 173.879C129.072 173.879 128.45 174.208 128.014 174.865C127.577 175.516 127.359 176.447 127.359 177.658C127.359 178.856 127.571 179.771 127.994 180.402C128.417 181.027 129.052 181.34 129.898 181.34ZM142.818 183.195C141.139 183.195 139.824 182.707 138.873 181.73C137.929 180.747 137.457 179.396 137.457 177.678C137.457 175.913 137.896 174.527 138.775 173.518C139.654 172.508 140.862 172.004 142.398 172.004C143.824 172.004 144.951 172.437 145.777 173.303C146.604 174.169 147.018 175.36 147.018 176.877V178.117H139.82C139.853 179.165 140.136 179.973 140.67 180.539C141.204 181.099 141.956 181.379 142.926 181.379C143.564 181.379 144.156 181.32 144.703 181.203C145.257 181.079 145.849 180.878 146.48 180.598V182.463C145.921 182.73 145.354 182.919 144.781 183.029C144.208 183.14 143.554 183.195 142.818 183.195ZM142.398 173.742C141.669 173.742 141.083 173.973 140.641 174.436C140.204 174.898 139.944 175.572 139.859 176.457H144.762C144.749 175.565 144.534 174.891 144.117 174.436C143.701 173.973 143.128 173.742 142.398 173.742ZM151.92 183H149.625V167.805H151.92V183ZM159.928 183.195C158.248 183.195 156.933 182.707 155.982 181.73C155.038 180.747 154.566 179.396 154.566 177.678C154.566 175.913 155.006 174.527 155.885 173.518C156.764 172.508 157.971 172.004 159.508 172.004C160.934 172.004 162.06 172.437 162.887 173.303C163.714 174.169 164.127 175.36 164.127 176.877V178.117H156.93C156.962 179.165 157.245 179.973 157.779 180.539C158.313 181.099 159.065 181.379 160.035 181.379C160.673 181.379 161.266 181.32 161.812 181.203C162.366 181.079 162.958 180.878 163.59 180.598V182.463C163.03 182.73 162.464 182.919 161.891 183.029C161.318 183.14 160.663 183.195 159.928 183.195ZM159.508 173.742C158.779 173.742 158.193 173.973 157.75 174.436C157.314 174.898 157.053 175.572 156.969 176.457H161.871C161.858 175.565 161.643 174.891 161.227 174.436C160.81 173.973 160.237 173.742 159.508 173.742ZM170.758 181.34C171.318 181.34 171.878 181.252 172.438 181.076V182.805C172.184 182.915 171.855 183.007 171.451 183.078C171.054 183.156 170.641 183.195 170.211 183.195C168.036 183.195 166.949 182.049 166.949 179.758V173.938H165.475V172.922L167.057 172.082L167.838 169.797H169.254V172.199H172.33V173.938H169.254V179.719C169.254 180.272 169.391 180.682 169.664 180.949C169.944 181.21 170.309 181.34 170.758 181.34ZM179.322 183.195C177.643 183.195 176.327 182.707 175.377 181.73C174.433 180.747 173.961 179.396 173.961 177.678C173.961 175.913 174.4 174.527 175.279 173.518C176.158 172.508 177.366 172.004 178.902 172.004C180.328 172.004 181.454 172.437 182.281 173.303C183.108 174.169 183.521 175.36 183.521 176.877V178.117H176.324C176.357 179.165 176.64 179.973 177.174 180.539C177.708 181.099 178.46 181.379 179.43 181.379C180.068 181.379 180.66 181.32 181.207 181.203C181.76 181.079 182.353 180.878 182.984 180.598V182.463C182.424 182.73 181.858 182.919 181.285 183.029C180.712 183.14 180.058 183.195 179.322 183.195ZM178.902 173.742C178.173 173.742 177.587 173.973 177.145 174.436C176.708 174.898 176.448 175.572 176.363 176.457H181.266C181.253 175.565 181.038 174.891 180.621 174.436C180.204 173.973 179.632 173.742 178.902 173.742ZM198.082 183L197.623 181.496H197.545C197.024 182.154 196.5 182.603 195.973 182.844C195.445 183.078 194.768 183.195 193.941 183.195C192.88 183.195 192.05 182.909 191.451 182.336C190.859 181.763 190.562 180.952 190.562 179.904C190.562 178.791 190.976 177.951 191.803 177.385C192.63 176.818 193.889 176.509 195.582 176.457L197.447 176.398V175.822C197.447 175.132 197.285 174.618 196.959 174.279C196.64 173.934 196.142 173.762 195.465 173.762C194.911 173.762 194.381 173.843 193.873 174.006C193.365 174.169 192.877 174.361 192.408 174.582L191.666 172.941C192.252 172.635 192.893 172.404 193.59 172.248C194.286 172.085 194.944 172.004 195.562 172.004C196.936 172.004 197.971 172.303 198.668 172.902C199.371 173.501 199.723 174.442 199.723 175.725V183H198.082ZM194.664 181.438C195.497 181.438 196.165 181.206 196.666 180.744C197.174 180.275 197.428 179.621 197.428 178.781V177.844L196.041 177.902C194.96 177.941 194.173 178.124 193.678 178.449C193.189 178.768 192.945 179.26 192.945 179.924C192.945 180.406 193.089 180.78 193.375 181.047C193.661 181.307 194.091 181.438 194.664 181.438ZM205.221 183H202.926V167.805H205.221V183ZM210.807 183H208.512V167.805H210.807V183ZM222.936 183.195C221.588 183.195 220.536 182.707 219.781 181.73C219.026 180.754 218.648 179.383 218.648 177.619C218.648 175.848 219.029 174.471 219.791 173.488C220.559 172.499 221.62 172.004 222.975 172.004C224.394 172.004 225.475 172.528 226.217 173.576H226.334C226.223 172.801 226.168 172.189 226.168 171.74V167.805H228.473V183H226.676L226.275 181.584H226.168C225.432 182.658 224.355 183.195 222.936 183.195ZM223.551 181.34C224.495 181.34 225.182 181.076 225.611 180.549C226.041 180.015 226.262 179.152 226.275 177.961V177.639C226.275 176.278 226.054 175.311 225.611 174.738C225.169 174.165 224.475 173.879 223.531 173.879C222.724 173.879 222.102 174.208 221.666 174.865C221.23 175.516 221.012 176.447 221.012 177.658C221.012 178.856 221.223 179.771 221.646 180.402C222.07 181.027 222.704 181.34 223.551 181.34ZM238.512 183L238.053 181.496H237.975C237.454 182.154 236.93 182.603 236.402 182.844C235.875 183.078 235.198 183.195 234.371 183.195C233.31 183.195 232.48 182.909 231.881 182.336C231.288 181.763 230.992 180.952 230.992 179.904C230.992 178.791 231.406 177.951 232.232 177.385C233.059 176.818 234.319 176.509 236.012 176.457L237.877 176.398V175.822C237.877 175.132 237.714 174.618 237.389 174.279C237.07 173.934 236.572 173.762 235.895 173.762C235.341 173.762 234.811 173.843 234.303 174.006C233.795 174.169 233.307 174.361 232.838 174.582L232.096 172.941C232.682 172.635 233.323 172.404 234.02 172.248C234.716 172.085 235.374 172.004 235.992 172.004C237.366 172.004 238.401 172.303 239.098 172.902C239.801 173.501 240.152 174.442 240.152 175.725V183H238.512ZM235.094 181.438C235.927 181.438 236.594 181.206 237.096 180.744C237.604 180.275 237.857 179.621 237.857 178.781V177.844L236.471 177.902C235.39 177.941 234.602 178.124 234.107 178.449C233.619 178.768 233.375 179.26 233.375 179.924C233.375 180.406 233.518 180.78 233.805 181.047C234.091 181.307 234.521 181.438 235.094 181.438ZM247.379 181.34C247.939 181.34 248.499 181.252 249.059 181.076V182.805C248.805 182.915 248.476 183.007 248.072 183.078C247.675 183.156 247.262 183.195 246.832 183.195C244.658 183.195 243.57 182.049 243.57 179.758V173.938H242.096V172.922L243.678 172.082L244.459 169.797H245.875V172.199H248.951V173.938H245.875V179.719C245.875 180.272 246.012 180.682 246.285 180.949C246.565 181.21 246.93 181.34 247.379 181.34ZM257.984 183L257.525 181.496H257.447C256.926 182.154 256.402 182.603 255.875 182.844C255.348 183.078 254.671 183.195 253.844 183.195C252.783 183.195 251.952 182.909 251.354 182.336C250.761 181.763 250.465 180.952 250.465 179.904C250.465 178.791 250.878 177.951 251.705 177.385C252.532 176.818 253.792 176.509 255.484 176.457L257.35 176.398V175.822C257.35 175.132 257.187 174.618 256.861 174.279C256.542 173.934 256.044 173.762 255.367 173.762C254.814 173.762 254.283 173.843 253.775 174.006C253.268 174.169 252.779 174.361 252.311 174.582L251.568 172.941C252.154 172.635 252.796 172.404 253.492 172.248C254.189 172.085 254.846 172.004 255.465 172.004C256.839 172.004 257.874 172.303 258.57 172.902C259.273 173.501 259.625 174.442 259.625 175.725V183H257.984ZM254.566 181.438C255.4 181.438 256.067 181.206 256.568 180.744C257.076 180.275 257.33 179.621 257.33 178.781V177.844L255.943 177.902C254.863 177.941 254.075 178.124 253.58 178.449C253.092 178.768 252.848 179.26 252.848 179.924C252.848 180.406 252.991 180.78 253.277 181.047C253.564 181.307 253.993 181.438 254.566 181.438ZM131.119 210.195C129.752 210.195 128.691 209.704 127.936 208.721H127.799C127.89 209.632 127.936 210.186 127.936 210.381V214.805H125.641V199.199H127.496C127.548 199.401 127.656 199.883 127.818 200.645H127.936C128.652 199.551 129.726 199.004 131.158 199.004C132.506 199.004 133.554 199.492 134.303 200.469C135.058 201.445 135.436 202.816 135.436 204.58C135.436 206.344 135.051 207.721 134.283 208.711C133.521 209.701 132.467 210.195 131.119 210.195ZM130.562 200.879C129.651 200.879 128.984 201.146 128.561 201.68C128.144 202.214 127.936 203.066 127.936 204.238V204.58C127.936 205.895 128.144 206.849 128.561 207.441C128.977 208.027 129.658 208.32 130.602 208.32C131.396 208.32 132.008 207.995 132.438 207.344C132.867 206.693 133.082 205.765 133.082 204.561C133.082 203.35 132.867 202.435 132.438 201.816C132.014 201.191 131.389 200.879 130.562 200.879ZM142.818 210.195C141.139 210.195 139.824 209.707 138.873 208.73C137.929 207.747 137.457 206.396 137.457 204.678C137.457 202.913 137.896 201.527 138.775 200.518C139.654 199.508 140.862 199.004 142.398 199.004C143.824 199.004 144.951 199.437 145.777 200.303C146.604 201.169 147.018 202.36 147.018 203.877V205.117H139.82C139.853 206.165 140.136 206.973 140.67 207.539C141.204 208.099 141.956 208.379 142.926 208.379C143.564 208.379 144.156 208.32 144.703 208.203C145.257 208.079 145.849 207.878 146.48 207.598V209.463C145.921 209.73 145.354 209.919 144.781 210.029C144.208 210.14 143.554 210.195 142.818 210.195ZM142.398 200.742C141.669 200.742 141.083 200.973 140.641 201.436C140.204 201.898 139.944 202.572 139.859 203.457H144.762C144.749 202.565 144.534 201.891 144.117 201.436C143.701 200.973 143.128 200.742 142.398 200.742ZM155.104 199.004C155.566 199.004 155.947 199.036 156.246 199.102L156.021 201.24C155.696 201.162 155.357 201.123 155.006 201.123C154.088 201.123 153.342 201.423 152.77 202.021C152.203 202.62 151.92 203.398 151.92 204.355V210H149.625V199.199H151.422L151.725 201.104H151.842C152.2 200.459 152.665 199.948 153.238 199.57C153.818 199.193 154.439 199.004 155.104 199.004ZM167.359 210H165.055V203.34C165.055 202.513 164.898 201.898 164.586 201.494C164.273 201.084 163.785 200.879 163.121 200.879C162.236 200.879 161.585 201.169 161.168 201.748C160.758 202.321 160.553 203.278 160.553 204.619V210H158.258V199.199H160.055L160.377 200.615H160.494C160.794 200.101 161.227 199.704 161.793 199.424C162.366 199.144 162.994 199.004 163.678 199.004C165.338 199.004 166.438 199.57 166.979 200.703H167.135C167.454 200.169 167.903 199.753 168.482 199.453C169.062 199.154 169.726 199.004 170.475 199.004C171.764 199.004 172.701 199.329 173.287 199.98C173.88 200.632 174.176 201.624 174.176 202.959V210H171.881V203.34C171.881 202.513 171.721 201.898 171.402 201.494C171.09 201.084 170.602 200.879 169.938 200.879C169.046 200.879 168.391 201.159 167.975 201.719C167.564 202.272 167.359 203.125 167.359 204.277V210ZM184.137 210L183.678 208.496H183.6C183.079 209.154 182.555 209.603 182.027 209.844C181.5 210.078 180.823 210.195 179.996 210.195C178.935 210.195 178.105 209.909 177.506 209.336C176.913 208.763 176.617 207.952 176.617 206.904C176.617 205.791 177.031 204.951 177.857 204.385C178.684 203.818 179.944 203.509 181.637 203.457L183.502 203.398V202.822C183.502 202.132 183.339 201.618 183.014 201.279C182.695 200.934 182.197 200.762 181.52 200.762C180.966 200.762 180.436 200.843 179.928 201.006C179.42 201.169 178.932 201.361 178.463 201.582L177.721 199.941C178.307 199.635 178.948 199.404 179.645 199.248C180.341 199.085 180.999 199.004 181.617 199.004C182.991 199.004 184.026 199.303 184.723 199.902C185.426 200.501 185.777 201.442 185.777 202.725V210H184.137ZM180.719 208.438C181.552 208.438 182.219 208.206 182.721 207.744C183.229 207.275 183.482 206.621 183.482 205.781V204.844L182.096 204.902C181.015 204.941 180.227 205.124 179.732 205.449C179.244 205.768 179 206.26 179 206.924C179 207.406 179.143 207.78 179.43 208.047C179.716 208.307 180.146 208.438 180.719 208.438ZM198.482 210H196.178V203.359C196.178 202.526 196.008 201.904 195.67 201.494C195.338 201.084 194.807 200.879 194.078 200.879C193.108 200.879 192.398 201.165 191.949 201.738C191.5 202.311 191.275 203.271 191.275 204.619V210H188.98V199.199H190.777L191.1 200.615H191.217C191.542 200.101 192.005 199.704 192.604 199.424C193.202 199.144 193.867 199.004 194.596 199.004C197.187 199.004 198.482 200.322 198.482 202.959V210ZM206.393 210.195C204.713 210.195 203.398 209.707 202.447 208.73C201.503 207.747 201.031 206.396 201.031 204.678C201.031 202.913 201.471 201.527 202.35 200.518C203.229 199.508 204.436 199.004 205.973 199.004C207.398 199.004 208.525 199.437 209.352 200.303C210.178 201.169 210.592 202.36 210.592 203.877V205.117H203.395C203.427 206.165 203.71 206.973 204.244 207.539C204.778 208.099 205.53 208.379 206.5 208.379C207.138 208.379 207.73 208.32 208.277 208.203C208.831 208.079 209.423 207.878 210.055 207.598V209.463C209.495 209.73 208.928 209.919 208.355 210.029C207.783 210.14 207.128 210.195 206.393 210.195ZM205.973 200.742C205.243 200.742 204.658 200.973 204.215 201.436C203.779 201.898 203.518 202.572 203.434 203.457H208.336C208.323 202.565 208.108 201.891 207.691 201.436C207.275 200.973 206.702 200.742 205.973 200.742ZM222.701 210H220.396V203.359C220.396 202.526 220.227 201.904 219.889 201.494C219.557 201.084 219.026 200.879 218.297 200.879C217.327 200.879 216.617 201.165 216.168 201.738C215.719 202.311 215.494 203.271 215.494 204.619V210H213.199V199.199H214.996L215.318 200.615H215.436C215.761 200.101 216.223 199.704 216.822 199.424C217.421 199.144 218.085 199.004 218.814 199.004C221.406 199.004 222.701 200.322 222.701 202.959V210ZM229.918 208.34C230.478 208.34 231.038 208.252 231.598 208.076V209.805C231.344 209.915 231.015 210.007 230.611 210.078C230.214 210.156 229.801 210.195 229.371 210.195C227.197 210.195 226.109 209.049 226.109 206.758V200.938H224.635V199.922L226.217 199.082L226.998 196.797H228.414V199.199H231.49V200.938H228.414V206.719C228.414 207.272 228.551 207.682 228.824 207.949C229.104 208.21 229.469 208.34 229.918 208.34ZM236.061 210H233.766V194.805H236.061V210ZM237.711 199.199H240.211L242.408 205.322C242.74 206.195 242.962 207.015 243.072 207.783H243.15C243.209 207.425 243.316 206.992 243.473 206.484C243.629 205.97 244.456 203.542 245.953 199.199H248.434L243.814 211.436C242.975 213.682 241.575 214.805 239.615 214.805C239.107 214.805 238.613 214.749 238.131 214.639V212.822C238.476 212.9 238.87 212.939 239.312 212.939C240.419 212.939 241.197 212.298 241.646 211.016L242.047 210L237.711 199.199ZM251.197 205.664V205.039C251.197 204.323 251.327 203.727 251.588 203.252C251.848 202.777 252.304 202.285 252.955 201.777C253.73 201.165 254.228 200.69 254.449 200.352C254.677 200.013 254.791 199.609 254.791 199.141C254.791 198.594 254.609 198.174 254.244 197.881C253.88 197.588 253.355 197.441 252.672 197.441C252.053 197.441 251.48 197.529 250.953 197.705C250.426 197.881 249.911 198.092 249.41 198.34L248.59 196.621C249.911 195.885 251.327 195.518 252.838 195.518C254.114 195.518 255.126 195.83 255.875 196.455C256.624 197.08 256.998 197.943 256.998 199.043C256.998 199.531 256.926 199.967 256.783 200.352C256.64 200.729 256.422 201.09 256.129 201.436C255.842 201.781 255.344 202.23 254.635 202.783C254.029 203.258 253.622 203.652 253.414 203.965C253.212 204.277 253.111 204.697 253.111 205.225V205.664H251.197ZM250.797 208.779C250.797 207.796 251.275 207.305 252.232 207.305C252.701 207.305 253.059 207.435 253.307 207.695C253.554 207.949 253.678 208.311 253.678 208.779C253.678 209.242 253.551 209.609 253.297 209.883C253.049 210.15 252.695 210.283 252.232 210.283C251.77 210.283 251.415 210.153 251.168 209.893C250.921 209.626 250.797 209.255 250.797 208.779Z" fill="#424E54"/>
<path d="M129.086 257H127.758V246.758H124.141V245.578H132.703V246.758H129.086V257ZM140.094 257V251.461C140.094 250.763 139.935 250.242 139.617 249.898C139.299 249.555 138.802 249.383 138.125 249.383C137.224 249.383 136.565 249.628 136.148 250.117C135.737 250.607 135.531 251.409 135.531 252.523V257H134.234V244.844H135.531V248.523C135.531 248.966 135.51 249.333 135.469 249.625H135.547C135.802 249.214 136.164 248.891 136.633 248.656C137.107 248.417 137.646 248.297 138.25 248.297C139.297 248.297 140.081 248.547 140.602 249.047C141.128 249.542 141.391 250.331 141.391 251.414V257H140.094ZM145.359 257H144.062V248.438H145.359V257ZM143.953 246.117C143.953 245.82 144.026 245.604 144.172 245.469C144.318 245.328 144.5 245.258 144.719 245.258C144.927 245.258 145.107 245.328 145.258 245.469C145.409 245.609 145.484 245.826 145.484 246.117C145.484 246.409 145.409 246.628 145.258 246.773C145.107 246.914 144.927 246.984 144.719 246.984C144.5 246.984 144.318 246.914 144.172 246.773C144.026 246.628 143.953 246.409 143.953 246.117ZM153.633 254.664C153.633 255.461 153.336 256.076 152.742 256.508C152.148 256.94 151.315 257.156 150.242 257.156C149.107 257.156 148.221 256.977 147.586 256.617V255.414C147.997 255.622 148.438 255.786 148.906 255.906C149.38 256.026 149.836 256.086 150.273 256.086C150.951 256.086 151.471 255.979 151.836 255.766C152.201 255.547 152.383 255.216 152.383 254.773C152.383 254.44 152.237 254.156 151.945 253.922C151.659 253.682 151.096 253.401 150.258 253.078C149.461 252.781 148.893 252.523 148.555 252.305C148.221 252.081 147.971 251.828 147.805 251.547C147.643 251.266 147.562 250.93 147.562 250.539C147.562 249.841 147.846 249.292 148.414 248.891C148.982 248.484 149.76 248.281 150.75 248.281C151.672 248.281 152.573 248.469 153.453 248.844L152.992 249.898C152.133 249.544 151.354 249.367 150.656 249.367C150.042 249.367 149.578 249.464 149.266 249.656C148.953 249.849 148.797 250.115 148.797 250.453C148.797 250.682 148.854 250.878 148.969 251.039C149.089 251.201 149.279 251.354 149.539 251.5C149.799 251.646 150.299 251.857 151.039 252.133C152.055 252.503 152.74 252.875 153.094 253.25C153.453 253.625 153.633 254.096 153.633 254.664ZM165.734 255.852H165.664C165.065 256.721 164.169 257.156 162.977 257.156C161.857 257.156 160.984 256.773 160.359 256.008C159.74 255.242 159.43 254.154 159.43 252.742C159.43 251.331 159.742 250.234 160.367 249.453C160.992 248.672 161.862 248.281 162.977 248.281C164.138 248.281 165.029 248.703 165.648 249.547H165.75L165.695 248.93L165.664 248.328V244.844H166.961V257H165.906L165.734 255.852ZM163.141 256.07C164.026 256.07 164.667 255.831 165.062 255.352C165.464 254.867 165.664 254.089 165.664 253.016V252.742C165.664 251.529 165.461 250.664 165.055 250.148C164.654 249.628 164.01 249.367 163.125 249.367C162.365 249.367 161.781 249.664 161.375 250.258C160.974 250.846 160.773 251.68 160.773 252.758C160.773 253.852 160.974 254.677 161.375 255.234C161.776 255.792 162.365 256.07 163.141 256.07ZM174.984 257L174.727 255.781H174.664C174.237 256.318 173.81 256.682 173.383 256.875C172.961 257.062 172.432 257.156 171.797 257.156C170.948 257.156 170.281 256.938 169.797 256.5C169.318 256.062 169.078 255.44 169.078 254.633C169.078 252.904 170.461 251.997 173.227 251.914L174.68 251.867V251.336C174.68 250.664 174.534 250.169 174.242 249.852C173.956 249.529 173.495 249.367 172.859 249.367C172.146 249.367 171.339 249.586 170.438 250.023L170.039 249.031C170.461 248.802 170.922 248.622 171.422 248.492C171.927 248.362 172.432 248.297 172.938 248.297C173.958 248.297 174.714 248.523 175.203 248.977C175.698 249.43 175.945 250.156 175.945 251.156V257H174.984ZM172.055 256.086C172.862 256.086 173.495 255.865 173.953 255.422C174.417 254.979 174.648 254.359 174.648 253.562V252.789L173.352 252.844C172.32 252.88 171.576 253.042 171.117 253.328C170.664 253.609 170.438 254.049 170.438 254.648C170.438 255.117 170.578 255.474 170.859 255.719C171.146 255.964 171.544 256.086 172.055 256.086ZM181.391 256.086C181.62 256.086 181.841 256.07 182.055 256.039C182.268 256.003 182.438 255.966 182.562 255.93V256.922C182.422 256.99 182.214 257.044 181.938 257.086C181.667 257.133 181.422 257.156 181.203 257.156C179.547 257.156 178.719 256.284 178.719 254.539V249.445H177.492V248.82L178.719 248.281L179.266 246.453H180.016V248.438H182.5V249.445H180.016V254.484C180.016 255 180.138 255.396 180.383 255.672C180.628 255.948 180.964 256.086 181.391 256.086ZM189.547 257L189.289 255.781H189.227C188.799 256.318 188.372 256.682 187.945 256.875C187.523 257.062 186.995 257.156 186.359 257.156C185.51 257.156 184.844 256.938 184.359 256.5C183.88 256.062 183.641 255.44 183.641 254.633C183.641 252.904 185.023 251.997 187.789 251.914L189.242 251.867V251.336C189.242 250.664 189.096 250.169 188.805 249.852C188.518 249.529 188.057 249.367 187.422 249.367C186.708 249.367 185.901 249.586 185 250.023L184.602 249.031C185.023 248.802 185.484 248.622 185.984 248.492C186.49 248.362 186.995 248.297 187.5 248.297C188.521 248.297 189.276 248.523 189.766 248.977C190.26 249.43 190.508 250.156 190.508 251.156V257H189.547ZM186.617 256.086C187.424 256.086 188.057 255.865 188.516 255.422C188.979 254.979 189.211 254.359 189.211 253.562V252.789L187.914 252.844C186.883 252.88 186.138 253.042 185.68 253.328C185.227 253.609 185 254.049 185 254.648C185 255.117 185.141 255.474 185.422 255.719C185.708 255.964 186.107 256.086 186.617 256.086ZM204.336 257L202.766 251.977C202.667 251.669 202.482 250.971 202.211 249.883H202.148C201.94 250.794 201.758 251.497 201.602 251.992L199.984 257H198.484L196.148 248.438H197.508C198.06 250.589 198.479 252.227 198.766 253.352C199.057 254.477 199.224 255.234 199.266 255.625H199.328C199.385 255.328 199.477 254.945 199.602 254.477C199.732 254.003 199.844 253.628 199.938 253.352L201.508 248.438H202.914L204.445 253.352C204.737 254.247 204.935 255 205.039 255.609H205.102C205.122 255.422 205.177 255.133 205.266 254.742C205.359 254.352 205.904 252.25 206.898 248.438H208.242L205.875 257H204.336ZM211.094 257H209.797V248.438H211.094V257ZM209.688 246.117C209.688 245.82 209.76 245.604 209.906 245.469C210.052 245.328 210.234 245.258 210.453 245.258C210.661 245.258 210.841 245.328 210.992 245.469C211.143 245.609 211.219 245.826 211.219 246.117C211.219 246.409 211.143 246.628 210.992 246.773C210.841 246.914 210.661 246.984 210.453 246.984C210.234 246.984 210.052 246.914 209.906 246.773C209.76 246.628 209.688 246.409 209.688 246.117ZM215.141 257H213.844V244.844H215.141V257ZM219.188 257H217.891V244.844H219.188V257ZM230.078 248.297C231.203 248.297 232.076 248.682 232.695 249.453C233.32 250.219 233.633 251.305 233.633 252.711C233.633 254.117 233.318 255.211 232.688 255.992C232.062 256.768 231.193 257.156 230.078 257.156C229.521 257.156 229.01 257.055 228.547 256.852C228.089 256.643 227.703 256.326 227.391 255.898H227.297L227.023 257H226.094V244.844H227.391V247.797C227.391 248.458 227.37 249.052 227.328 249.578H227.391C227.995 248.724 228.891 248.297 230.078 248.297ZM229.891 249.383C229.005 249.383 228.367 249.638 227.977 250.148C227.586 250.654 227.391 251.508 227.391 252.711C227.391 253.914 227.591 254.776 227.992 255.297C228.393 255.812 229.036 256.07 229.922 256.07C230.719 256.07 231.312 255.781 231.703 255.203C232.094 254.62 232.289 253.784 232.289 252.695C232.289 251.581 232.094 250.75 231.703 250.203C231.312 249.656 230.708 249.383 229.891 249.383ZM239.523 257.156C238.258 257.156 237.258 256.771 236.523 256C235.794 255.229 235.43 254.159 235.43 252.789C235.43 251.409 235.768 250.312 236.445 249.5C237.128 248.688 238.042 248.281 239.188 248.281C240.26 248.281 241.109 248.635 241.734 249.344C242.359 250.047 242.672 250.977 242.672 252.133V252.953H236.773C236.799 253.958 237.052 254.721 237.531 255.242C238.016 255.763 238.695 256.023 239.57 256.023C240.492 256.023 241.404 255.831 242.305 255.445V256.602C241.846 256.799 241.411 256.94 241 257.023C240.594 257.112 240.102 257.156 239.523 257.156ZM239.172 249.367C238.484 249.367 237.935 249.591 237.523 250.039C237.117 250.487 236.878 251.107 236.805 251.898H241.281C241.281 251.081 241.099 250.456 240.734 250.023C240.37 249.586 239.849 249.367 239.172 249.367ZM253.031 257.156C252.474 257.156 251.964 257.055 251.5 256.852C251.042 256.643 250.656 256.326 250.344 255.898H250.25C250.312 256.398 250.344 256.872 250.344 257.32V260.844H249.047V248.438H250.102L250.281 249.609H250.344C250.677 249.141 251.065 248.802 251.508 248.594C251.951 248.385 252.458 248.281 253.031 248.281C254.167 248.281 255.042 248.669 255.656 249.445C256.276 250.221 256.586 251.31 256.586 252.711C256.586 254.117 256.271 255.211 255.641 255.992C255.016 256.768 254.146 257.156 253.031 257.156ZM252.844 249.383C251.969 249.383 251.336 249.625 250.945 250.109C250.555 250.594 250.354 251.365 250.344 252.422V252.711C250.344 253.914 250.544 254.776 250.945 255.297C251.346 255.812 251.99 256.07 252.875 256.07C253.615 256.07 254.193 255.771 254.609 255.172C255.031 254.573 255.242 253.747 255.242 252.695C255.242 251.628 255.031 250.81 254.609 250.242C254.193 249.669 253.604 249.383 252.844 249.383ZM262.477 257.156C261.211 257.156 260.211 256.771 259.477 256C258.747 255.229 258.383 254.159 258.383 252.789C258.383 251.409 258.721 250.312 259.398 249.5C260.081 248.688 260.995 248.281 262.141 248.281C263.214 248.281 264.062 248.635 264.688 249.344C265.312 250.047 265.625 250.977 265.625 252.133V252.953H259.727C259.753 253.958 260.005 254.721 260.484 255.242C260.969 255.763 261.648 256.023 262.523 256.023C263.445 256.023 264.357 255.831 265.258 255.445V256.602C264.799 256.799 264.365 256.94 263.953 257.023C263.547 257.112 263.055 257.156 262.477 257.156ZM262.125 249.367C261.438 249.367 260.888 249.591 260.477 250.039C260.07 250.487 259.831 251.107 259.758 251.898H264.234C264.234 251.081 264.052 250.456 263.688 250.023C263.323 249.586 262.802 249.367 262.125 249.367ZM271.75 248.281C272.13 248.281 272.471 248.312 272.773 248.375L272.594 249.578C272.24 249.5 271.927 249.461 271.656 249.461C270.964 249.461 270.37 249.742 269.875 250.305C269.385 250.867 269.141 251.568 269.141 252.406V257H267.844V248.438H268.914L269.062 250.023H269.125C269.443 249.466 269.826 249.036 270.273 248.734C270.721 248.432 271.214 248.281 271.75 248.281ZM285.289 257V251.43C285.289 250.747 285.143 250.237 284.852 249.898C284.56 249.555 284.107 249.383 283.492 249.383C282.685 249.383 282.089 249.615 281.703 250.078C281.318 250.542 281.125 251.255 281.125 252.219V257H279.828V251.43C279.828 250.747 279.682 250.237 279.391 249.898C279.099 249.555 278.643 249.383 278.023 249.383C277.211 249.383 276.615 249.628 276.234 250.117C275.859 250.602 275.672 251.398 275.672 252.508V257H274.375V248.438H275.43L275.641 249.609H275.703C275.948 249.193 276.292 248.867 276.734 248.633C277.182 248.398 277.682 248.281 278.234 248.281C279.573 248.281 280.448 248.766 280.859 249.734H280.922C281.177 249.286 281.547 248.932 282.031 248.672C282.516 248.411 283.068 248.281 283.688 248.281C284.656 248.281 285.38 248.531 285.859 249.031C286.344 249.526 286.586 250.32 286.586 251.414V257H285.289ZM294.531 257L294.273 255.781H294.211C293.784 256.318 293.357 256.682 292.93 256.875C292.508 257.062 291.979 257.156 291.344 257.156C290.495 257.156 289.828 256.938 289.344 256.5C288.865 256.062 288.625 255.44 288.625 254.633C288.625 252.904 290.008 251.997 292.773 251.914L294.227 251.867V251.336C294.227 250.664 294.081 250.169 293.789 249.852C293.503 249.529 293.042 249.367 292.406 249.367C291.693 249.367 290.885 249.586 289.984 250.023L289.586 249.031C290.008 248.802 290.469 248.622 290.969 248.492C291.474 248.362 291.979 248.297 292.484 248.297C293.505 248.297 294.26 248.523 294.75 248.977C295.245 249.43 295.492 250.156 295.492 251.156V257H294.531ZM291.602 256.086C292.409 256.086 293.042 255.865 293.5 255.422C293.964 254.979 294.195 254.359 294.195 253.562V252.789L292.898 252.844C291.867 252.88 291.122 253.042 290.664 253.328C290.211 253.609 289.984 254.049 289.984 254.648C289.984 255.117 290.125 255.474 290.406 255.719C290.693 255.964 291.091 256.086 291.602 256.086ZM304.031 257V251.461C304.031 250.763 303.872 250.242 303.555 249.898C303.237 249.555 302.74 249.383 302.062 249.383C301.167 249.383 300.51 249.625 300.094 250.109C299.677 250.594 299.469 251.393 299.469 252.508V257H298.172V248.438H299.227L299.438 249.609H299.5C299.766 249.188 300.138 248.862 300.617 248.633C301.096 248.398 301.63 248.281 302.219 248.281C303.25 248.281 304.026 248.531 304.547 249.031C305.068 249.526 305.328 250.32 305.328 251.414V257H304.031ZM311.617 257.156C310.352 257.156 309.352 256.771 308.617 256C307.888 255.229 307.523 254.159 307.523 252.789C307.523 251.409 307.862 250.312 308.539 249.5C309.221 248.688 310.135 248.281 311.281 248.281C312.354 248.281 313.203 248.635 313.828 249.344C314.453 250.047 314.766 250.977 314.766 252.133V252.953H308.867C308.893 253.958 309.146 254.721 309.625 255.242C310.109 255.763 310.789 256.023 311.664 256.023C312.586 256.023 313.497 255.831 314.398 255.445V256.602C313.94 256.799 313.505 256.94 313.094 257.023C312.688 257.112 312.195 257.156 311.617 257.156ZM311.266 249.367C310.578 249.367 310.029 249.591 309.617 250.039C309.211 250.487 308.971 251.107 308.898 251.898H313.375C313.375 251.081 313.193 250.456 312.828 250.023C312.464 249.586 311.943 249.367 311.266 249.367ZM322.844 257V251.461C322.844 250.763 322.685 250.242 322.367 249.898C322.049 249.555 321.552 249.383 320.875 249.383C319.979 249.383 319.323 249.625 318.906 250.109C318.49 250.594 318.281 251.393 318.281 252.508V257H316.984V248.438H318.039L318.25 249.609H318.312C318.578 249.188 318.951 248.862 319.43 248.633C319.909 248.398 320.443 248.281 321.031 248.281C322.062 248.281 322.839 248.531 323.359 249.031C323.88 249.526 324.141 250.32 324.141 251.414V257H322.844ZM329.578 256.086C329.807 256.086 330.029 256.07 330.242 256.039C330.456 256.003 330.625 255.966 330.75 255.93V256.922C330.609 256.99 330.401 257.044 330.125 257.086C329.854 257.133 329.609 257.156 329.391 257.156C327.734 257.156 326.906 256.284 326.906 254.539V249.445H325.68V248.82L326.906 248.281L327.453 246.453H328.203V248.438H330.688V249.445H328.203V254.484C328.203 255 328.326 255.396 328.57 255.672C328.815 255.948 329.151 256.086 329.578 256.086ZM333.766 257H332.469V244.844H333.766V257ZM335.156 248.438H336.547L338.422 253.32C338.833 254.435 339.089 255.24 339.188 255.734H339.25C339.318 255.469 339.458 255.016 339.672 254.375C339.891 253.729 340.599 251.75 341.797 248.438H343.188L339.508 258.188C339.143 259.151 338.716 259.833 338.227 260.234C337.742 260.641 337.146 260.844 336.438 260.844C336.042 260.844 335.651 260.799 335.266 260.711V259.672C335.552 259.734 335.872 259.766 336.227 259.766C337.117 259.766 337.753 259.266 338.133 258.266L338.609 257.047L335.156 248.438ZM128.992 279.156C127.727 279.156 126.727 278.771 125.992 278C125.263 277.229 124.898 276.159 124.898 274.789C124.898 273.409 125.237 272.312 125.914 271.5C126.596 270.688 127.51 270.281 128.656 270.281C129.729 270.281 130.578 270.635 131.203 271.344C131.828 272.047 132.141 272.977 132.141 274.133V274.953H126.242C126.268 275.958 126.521 276.721 127 277.242C127.484 277.763 128.164 278.023 129.039 278.023C129.961 278.023 130.872 277.831 131.773 277.445V278.602C131.315 278.799 130.88 278.94 130.469 279.023C130.062 279.112 129.57 279.156 128.992 279.156ZM128.641 271.367C127.953 271.367 127.404 271.591 126.992 272.039C126.586 272.487 126.346 273.107 126.273 273.898H130.75C130.75 273.081 130.568 272.456 130.203 272.023C129.839 271.586 129.318 271.367 128.641 271.367ZM138.266 270.281C138.646 270.281 138.987 270.312 139.289 270.375L139.109 271.578C138.755 271.5 138.443 271.461 138.172 271.461C137.479 271.461 136.885 271.742 136.391 272.305C135.901 272.867 135.656 273.568 135.656 274.406V279H134.359V270.438H135.43L135.578 272.023H135.641C135.958 271.466 136.341 271.036 136.789 270.734C137.237 270.432 137.729 270.281 138.266 270.281ZM146.156 279L145.898 277.781H145.836C145.409 278.318 144.982 278.682 144.555 278.875C144.133 279.062 143.604 279.156 142.969 279.156C142.12 279.156 141.453 278.938 140.969 278.5C140.49 278.062 140.25 277.44 140.25 276.633C140.25 274.904 141.633 273.997 144.398 273.914L145.852 273.867V273.336C145.852 272.664 145.706 272.169 145.414 271.852C145.128 271.529 144.667 271.367 144.031 271.367C143.318 271.367 142.51 271.586 141.609 272.023L141.211 271.031C141.633 270.802 142.094 270.622 142.594 270.492C143.099 270.362 143.604 270.297 144.109 270.297C145.13 270.297 145.885 270.523 146.375 270.977C146.87 271.43 147.117 272.156 147.117 273.156V279H146.156ZM143.227 278.086C144.034 278.086 144.667 277.865 145.125 277.422C145.589 276.979 145.82 276.359 145.82 275.562V274.789L144.523 274.844C143.492 274.88 142.747 275.042 142.289 275.328C141.836 275.609 141.609 276.049 141.609 276.648C141.609 277.117 141.75 277.474 142.031 277.719C142.318 277.964 142.716 278.086 143.227 278.086ZM155.32 276.664C155.32 277.461 155.023 278.076 154.43 278.508C153.836 278.94 153.003 279.156 151.93 279.156C150.794 279.156 149.909 278.977 149.273 278.617V277.414C149.685 277.622 150.125 277.786 150.594 277.906C151.068 278.026 151.523 278.086 151.961 278.086C152.638 278.086 153.159 277.979 153.523 277.766C153.888 277.547 154.07 277.216 154.07 276.773C154.07 276.44 153.924 276.156 153.633 275.922C153.346 275.682 152.784 275.401 151.945 275.078C151.148 274.781 150.581 274.523 150.242 274.305C149.909 274.081 149.659 273.828 149.492 273.547C149.331 273.266 149.25 272.93 149.25 272.539C149.25 271.841 149.534 271.292 150.102 270.891C150.669 270.484 151.448 270.281 152.438 270.281C153.359 270.281 154.26 270.469 155.141 270.844L154.68 271.898C153.82 271.544 153.042 271.367 152.344 271.367C151.729 271.367 151.266 271.464 150.953 271.656C150.641 271.849 150.484 272.115 150.484 272.453C150.484 272.682 150.542 272.878 150.656 273.039C150.776 273.201 150.966 273.354 151.227 273.5C151.487 273.646 151.987 273.857 152.727 274.133C153.742 274.503 154.427 274.875 154.781 275.25C155.141 275.625 155.32 276.096 155.32 276.664ZM161.055 279.156C159.789 279.156 158.789 278.771 158.055 278C157.326 277.229 156.961 276.159 156.961 274.789C156.961 273.409 157.299 272.312 157.977 271.5C158.659 270.688 159.573 270.281 160.719 270.281C161.792 270.281 162.641 270.635 163.266 271.344C163.891 272.047 164.203 272.977 164.203 274.133V274.953H158.305C158.331 275.958 158.583 276.721 159.062 277.242C159.547 277.763 160.227 278.023 161.102 278.023C162.023 278.023 162.935 277.831 163.836 277.445V278.602C163.378 278.799 162.943 278.94 162.531 279.023C162.125 279.112 161.633 279.156 161.055 279.156ZM160.703 271.367C160.016 271.367 159.466 271.591 159.055 272.039C158.648 272.487 158.409 273.107 158.336 273.898H162.812C162.812 273.081 162.63 272.456 162.266 272.023C161.901 271.586 161.38 271.367 160.703 271.367ZM172.25 277.852H172.18C171.581 278.721 170.685 279.156 169.492 279.156C168.372 279.156 167.5 278.773 166.875 278.008C166.255 277.242 165.945 276.154 165.945 274.742C165.945 273.331 166.258 272.234 166.883 271.453C167.508 270.672 168.378 270.281 169.492 270.281C170.654 270.281 171.544 270.703 172.164 271.547H172.266L172.211 270.93L172.18 270.328V266.844H173.477V279H172.422L172.25 277.852ZM169.656 278.07C170.542 278.07 171.182 277.831 171.578 277.352C171.979 276.867 172.18 276.089 172.18 275.016V274.742C172.18 273.529 171.977 272.664 171.57 272.148C171.169 271.628 170.526 271.367 169.641 271.367C168.88 271.367 168.297 271.664 167.891 272.258C167.49 272.846 167.289 273.68 167.289 274.758C167.289 275.852 167.49 276.677 167.891 277.234C168.292 277.792 168.88 278.07 169.656 278.07ZM177.406 275.852H176.586L176.188 267.578H177.805L177.406 275.852ZM176.047 278.172C176.047 277.464 176.359 277.109 176.984 277.109C177.286 277.109 177.518 277.201 177.68 277.383C177.846 277.565 177.93 277.828 177.93 278.172C177.93 278.505 177.846 278.766 177.68 278.953C177.513 279.135 177.281 279.227 176.984 279.227C176.714 279.227 176.49 279.146 176.312 278.984C176.135 278.818 176.047 278.547 176.047 278.172ZM181.688 275.852H180.867L180.469 267.578H182.086L181.688 275.852ZM180.328 278.172C180.328 277.464 180.641 277.109 181.266 277.109C181.568 277.109 181.799 277.201 181.961 277.383C182.128 277.565 182.211 277.828 182.211 278.172C182.211 278.505 182.128 278.766 181.961 278.953C181.794 279.135 181.562 279.227 181.266 279.227C180.995 279.227 180.771 279.146 180.594 278.984C180.417 278.818 180.328 278.547 180.328 278.172ZM185.969 275.852H185.148L184.75 267.578H186.367L185.969 275.852ZM184.609 278.172C184.609 277.464 184.922 277.109 185.547 277.109C185.849 277.109 186.081 277.201 186.242 277.383C186.409 277.565 186.492 277.828 186.492 278.172C186.492 278.505 186.409 278.766 186.242 278.953C186.076 279.135 185.844 279.227 185.547 279.227C185.276 279.227 185.052 279.146 184.875 278.984C184.698 278.818 184.609 278.547 184.609 278.172ZM200.609 279L199.188 275.367H194.609L193.203 279H191.859L196.375 267.531H197.492L201.984 279H200.609ZM198.773 274.172L197.445 270.633C197.273 270.185 197.096 269.635 196.914 268.984C196.799 269.484 196.635 270.034 196.422 270.633L195.078 274.172H198.773ZM207.266 270.281C207.646 270.281 207.987 270.312 208.289 270.375L208.109 271.578C207.755 271.5 207.443 271.461 207.172 271.461C206.479 271.461 205.885 271.742 205.391 272.305C204.901 272.867 204.656 273.568 204.656 274.406V279H203.359V270.438H204.43L204.578 272.023H204.641C204.958 271.466 205.341 271.036 205.789 270.734C206.237 270.432 206.729 270.281 207.266 270.281ZM213.508 279.156C212.242 279.156 211.242 278.771 210.508 278C209.779 277.229 209.414 276.159 209.414 274.789C209.414 273.409 209.753 272.312 210.43 271.5C211.112 270.688 212.026 270.281 213.172 270.281C214.245 270.281 215.094 270.635 215.719 271.344C216.344 272.047 216.656 272.977 216.656 274.133V274.953H210.758C210.784 275.958 211.036 276.721 211.516 277.242C212 277.763 212.68 278.023 213.555 278.023C214.477 278.023 215.388 277.831 216.289 277.445V278.602C215.831 278.799 215.396 278.94 214.984 279.023C214.578 279.112 214.086 279.156 213.508 279.156ZM213.156 271.367C212.469 271.367 211.919 271.591 211.508 272.039C211.102 272.487 210.862 273.107 210.789 273.898H215.266C215.266 273.081 215.083 272.456 214.719 272.023C214.354 271.586 213.833 271.367 213.156 271.367ZM221.672 270.438H223.062L224.938 275.32C225.349 276.435 225.604 277.24 225.703 277.734H225.766C225.833 277.469 225.974 277.016 226.188 276.375C226.406 275.729 227.115 273.75 228.312 270.438H229.703L226.023 280.188C225.659 281.151 225.232 281.833 224.742 282.234C224.258 282.641 223.661 282.844 222.953 282.844C222.557 282.844 222.167 282.799 221.781 282.711V281.672C222.068 281.734 222.388 281.766 222.742 281.766C223.633 281.766 224.268 281.266 224.648 280.266L225.125 279.047L221.672 270.438ZM238.484 274.711C238.484 276.107 238.133 277.198 237.43 277.984C236.727 278.766 235.755 279.156 234.516 279.156C233.75 279.156 233.07 278.977 232.477 278.617C231.883 278.258 231.424 277.742 231.102 277.07C230.779 276.398 230.617 275.612 230.617 274.711C230.617 273.315 230.966 272.229 231.664 271.453C232.362 270.672 233.331 270.281 234.57 270.281C235.768 270.281 236.719 270.68 237.422 271.477C238.13 272.273 238.484 273.352 238.484 274.711ZM231.961 274.711C231.961 275.805 232.18 276.638 232.617 277.211C233.055 277.784 233.698 278.07 234.547 278.07C235.396 278.07 236.039 277.786 236.477 277.219C236.919 276.646 237.141 275.81 237.141 274.711C237.141 273.622 236.919 272.797 236.477 272.234C236.039 271.667 235.391 271.383 234.531 271.383C233.682 271.383 233.042 271.661 232.609 272.219C232.177 272.776 231.961 273.607 231.961 274.711ZM241.984 270.438V275.992C241.984 276.69 242.143 277.211 242.461 277.555C242.779 277.898 243.276 278.07 243.953 278.07C244.849 278.07 245.503 277.826 245.914 277.336C246.331 276.846 246.539 276.047 246.539 274.938V270.438H247.836V279H246.766L246.578 277.852H246.508C246.242 278.273 245.872 278.596 245.398 278.82C244.93 279.044 244.393 279.156 243.789 279.156C242.747 279.156 241.966 278.909 241.445 278.414C240.93 277.919 240.672 277.128 240.672 276.039V270.438H241.984ZM260.273 276.664C260.273 277.461 259.977 278.076 259.383 278.508C258.789 278.94 257.956 279.156 256.883 279.156C255.747 279.156 254.862 278.977 254.227 278.617V277.414C254.638 277.622 255.078 277.786 255.547 277.906C256.021 278.026 256.477 278.086 256.914 278.086C257.591 278.086 258.112 277.979 258.477 277.766C258.841 277.547 259.023 277.216 259.023 276.773C259.023 276.44 258.878 276.156 258.586 275.922C258.299 275.682 257.737 275.401 256.898 275.078C256.102 274.781 255.534 274.523 255.195 274.305C254.862 274.081 254.612 273.828 254.445 273.547C254.284 273.266 254.203 272.93 254.203 272.539C254.203 271.841 254.487 271.292 255.055 270.891C255.622 270.484 256.401 270.281 257.391 270.281C258.312 270.281 259.214 270.469 260.094 270.844L259.633 271.898C258.773 271.544 257.995 271.367 257.297 271.367C256.682 271.367 256.219 271.464 255.906 271.656C255.594 271.849 255.438 272.115 255.438 272.453C255.438 272.682 255.495 272.878 255.609 273.039C255.729 273.201 255.919 273.354 256.18 273.5C256.44 273.646 256.94 273.857 257.68 274.133C258.695 274.503 259.38 274.875 259.734 275.25C260.094 275.625 260.273 276.096 260.273 276.664ZM263.609 270.438V275.992C263.609 276.69 263.768 277.211 264.086 277.555C264.404 277.898 264.901 278.07 265.578 278.07C266.474 278.07 267.128 277.826 267.539 277.336C267.956 276.846 268.164 276.047 268.164 274.938V270.438H269.461V279H268.391L268.203 277.852H268.133C267.867 278.273 267.497 278.596 267.023 278.82C266.555 279.044 266.018 279.156 265.414 279.156C264.372 279.156 263.591 278.909 263.07 278.414C262.555 277.919 262.297 277.128 262.297 276.039V270.438H263.609ZM276.125 270.281C276.505 270.281 276.846 270.312 277.148 270.375L276.969 271.578C276.615 271.5 276.302 271.461 276.031 271.461C275.339 271.461 274.745 271.742 274.25 272.305C273.76 272.867 273.516 273.568 273.516 274.406V279H272.219V270.438H273.289L273.438 272.023H273.5C273.818 271.466 274.201 271.036 274.648 270.734C275.096 270.432 275.589 270.281 276.125 270.281ZM282.367 279.156C281.102 279.156 280.102 278.771 279.367 278C278.638 277.229 278.273 276.159 278.273 274.789C278.273 273.409 278.612 272.312 279.289 271.5C279.971 270.688 280.885 270.281 282.031 270.281C283.104 270.281 283.953 270.635 284.578 271.344C285.203 272.047 285.516 272.977 285.516 274.133V274.953H279.617C279.643 275.958 279.896 276.721 280.375 277.242C280.859 277.763 281.539 278.023 282.414 278.023C283.336 278.023 284.247 277.831 285.148 277.445V278.602C284.69 278.799 284.255 278.94 283.844 279.023C283.438 279.112 282.945 279.156 282.367 279.156ZM282.016 271.367C281.328 271.367 280.779 271.591 280.367 272.039C279.961 272.487 279.721 273.107 279.648 273.898H284.125C284.125 273.081 283.943 272.456 283.578 272.023C283.214 271.586 282.693 271.367 282.016 271.367ZM294.656 278.086C294.885 278.086 295.107 278.07 295.32 278.039C295.534 278.003 295.703 277.966 295.828 277.93V278.922C295.688 278.99 295.479 279.044 295.203 279.086C294.932 279.133 294.688 279.156 294.469 279.156C292.812 279.156 291.984 278.284 291.984 276.539V271.445H290.758V270.82L291.984 270.281L292.531 268.453H293.281V270.438H295.766V271.445H293.281V276.484C293.281 277 293.404 277.396 293.648 277.672C293.893 277.948 294.229 278.086 294.656 278.086ZM304.938 274.711C304.938 276.107 304.586 277.198 303.883 277.984C303.18 278.766 302.208 279.156 300.969 279.156C300.203 279.156 299.523 278.977 298.93 278.617C298.336 278.258 297.878 277.742 297.555 277.07C297.232 276.398 297.07 275.612 297.07 274.711C297.07 273.315 297.419 272.229 298.117 271.453C298.815 270.672 299.784 270.281 301.023 270.281C302.221 270.281 303.172 270.68 303.875 271.477C304.583 272.273 304.938 273.352 304.938 274.711ZM298.414 274.711C298.414 275.805 298.633 276.638 299.07 277.211C299.508 277.784 300.151 278.07 301 278.07C301.849 278.07 302.492 277.786 302.93 277.219C303.372 276.646 303.594 275.81 303.594 274.711C303.594 273.622 303.372 272.797 302.93 272.234C302.492 271.667 301.844 271.383 300.984 271.383C300.135 271.383 299.495 271.661 299.062 272.219C298.63 272.776 298.414 273.607 298.414 274.711ZM314.992 279.156C313.727 279.156 312.727 278.771 311.992 278C311.263 277.229 310.898 276.159 310.898 274.789C310.898 273.409 311.237 272.312 311.914 271.5C312.596 270.688 313.51 270.281 314.656 270.281C315.729 270.281 316.578 270.635 317.203 271.344C317.828 272.047 318.141 272.977 318.141 274.133V274.953H312.242C312.268 275.958 312.521 276.721 313 277.242C313.484 277.763 314.164 278.023 315.039 278.023C315.961 278.023 316.872 277.831 317.773 277.445V278.602C317.315 278.799 316.88 278.94 316.469 279.023C316.062 279.112 315.57 279.156 314.992 279.156ZM314.641 271.367C313.953 271.367 313.404 271.591 312.992 272.039C312.586 272.487 312.346 273.107 312.273 273.898H316.75C316.75 273.081 316.568 272.456 316.203 272.023C315.839 271.586 315.318 271.367 314.641 271.367ZM322.422 274.617L319.445 270.438H320.922L323.18 273.719L325.43 270.438H326.891L323.914 274.617L327.047 279H325.578L323.18 275.531L320.758 279H319.289L322.422 274.617ZM332.367 279.156C331.102 279.156 330.102 278.771 329.367 278C328.638 277.229 328.273 276.159 328.273 274.789C328.273 273.409 328.612 272.312 329.289 271.5C329.971 270.688 330.885 270.281 332.031 270.281C333.104 270.281 333.953 270.635 334.578 271.344C335.203 272.047 335.516 272.977 335.516 274.133V274.953H329.617C329.643 275.958 329.896 276.721 330.375 277.242C330.859 277.763 331.539 278.023 332.414 278.023C333.336 278.023 334.247 277.831 335.148 277.445V278.602C334.69 278.799 334.255 278.94 333.844 279.023C333.438 279.112 332.945 279.156 332.367 279.156ZM332.016 271.367C331.328 271.367 330.779 271.591 330.367 272.039C329.961 272.487 329.721 273.107 329.648 273.898H334.125C334.125 273.081 333.943 272.456 333.578 272.023C333.214 271.586 332.693 271.367 332.016 271.367ZM341.156 279.156C339.917 279.156 338.956 278.776 338.273 278.016C337.596 277.25 337.258 276.169 337.258 274.773C337.258 273.341 337.602 272.234 338.289 271.453C338.982 270.672 339.966 270.281 341.242 270.281C341.654 270.281 342.065 270.326 342.477 270.414C342.888 270.503 343.211 270.607 343.445 270.727L343.047 271.828C342.76 271.714 342.448 271.62 342.109 271.547C341.771 271.469 341.471 271.43 341.211 271.43C339.471 271.43 338.602 272.539 338.602 274.758C338.602 275.81 338.812 276.617 339.234 277.18C339.661 277.742 340.292 278.023 341.125 278.023C341.839 278.023 342.57 277.87 343.32 277.562V278.711C342.747 279.008 342.026 279.156 341.156 279.156ZM346.578 270.438V275.992C346.578 276.69 346.737 277.211 347.055 277.555C347.372 277.898 347.87 278.07 348.547 278.07C349.443 278.07 350.096 277.826 350.508 277.336C350.924 276.846 351.133 276.047 351.133 274.938V270.438H352.43V279H351.359L351.172 277.852H351.102C350.836 278.273 350.466 278.596 349.992 278.82C349.523 279.044 348.987 279.156 348.383 279.156C347.341 279.156 346.56 278.909 346.039 278.414C345.523 277.919 345.266 277.128 345.266 276.039V270.438H346.578ZM357.953 278.086C358.182 278.086 358.404 278.07 358.617 278.039C358.831 278.003 359 277.966 359.125 277.93V278.922C358.984 278.99 358.776 279.044 358.5 279.086C358.229 279.133 357.984 279.156 357.766 279.156C356.109 279.156 355.281 278.284 355.281 276.539V271.445H354.055V270.82L355.281 270.281L355.828 268.453H356.578V270.438H359.062V271.445H356.578V276.484C356.578 277 356.701 277.396 356.945 277.672C357.19 277.948 357.526 278.086 357.953 278.086ZM364.461 279.156C363.195 279.156 362.195 278.771 361.461 278C360.732 277.229 360.367 276.159 360.367 274.789C360.367 273.409 360.706 272.312 361.383 271.5C362.065 270.688 362.979 270.281 364.125 270.281C365.198 270.281 366.047 270.635 366.672 271.344C367.297 272.047 367.609 272.977 367.609 274.133V274.953H361.711C361.737 275.958 361.99 276.721 362.469 277.242C362.953 277.763 363.633 278.023 364.508 278.023C365.43 278.023 366.341 277.831 367.242 277.445V278.602C366.784 278.799 366.349 278.94 365.938 279.023C365.531 279.112 365.039 279.156 364.461 279.156ZM364.109 271.367C363.422 271.367 362.872 271.591 362.461 272.039C362.055 272.487 361.815 273.107 361.742 273.898H366.219C366.219 273.081 366.036 272.456 365.672 272.023C365.307 271.586 364.786 271.367 364.109 271.367ZM131.203 299.852H131.133C130.534 300.721 129.638 301.156 128.445 301.156C127.326 301.156 126.453 300.773 125.828 300.008C125.208 299.242 124.898 298.154 124.898 296.742C124.898 295.331 125.211 294.234 125.836 293.453C126.461 292.672 127.331 292.281 128.445 292.281C129.607 292.281 130.497 292.703 131.117 293.547H131.219L131.164 292.93L131.133 292.328V288.844H132.43V301H131.375L131.203 299.852ZM128.609 300.07C129.495 300.07 130.135 299.831 130.531 299.352C130.932 298.867 131.133 298.089 131.133 297.016V296.742C131.133 295.529 130.93 294.664 130.523 294.148C130.122 293.628 129.479 293.367 128.594 293.367C127.833 293.367 127.25 293.664 126.844 294.258C126.443 294.846 126.242 295.68 126.242 296.758C126.242 297.852 126.443 298.677 126.844 299.234C127.245 299.792 127.833 300.07 128.609 300.07ZM138.805 301.156C137.539 301.156 136.539 300.771 135.805 300C135.076 299.229 134.711 298.159 134.711 296.789C134.711 295.409 135.049 294.312 135.727 293.5C136.409 292.688 137.323 292.281 138.469 292.281C139.542 292.281 140.391 292.635 141.016 293.344C141.641 294.047 141.953 294.977 141.953 296.133V296.953H136.055C136.081 297.958 136.333 298.721 136.812 299.242C137.297 299.763 137.977 300.023 138.852 300.023C139.773 300.023 140.685 299.831 141.586 299.445V300.602C141.128 300.799 140.693 300.94 140.281 301.023C139.875 301.112 139.383 301.156 138.805 301.156ZM138.453 293.367C137.766 293.367 137.216 293.591 136.805 294.039C136.398 294.487 136.159 295.107 136.086 295.898H140.562C140.562 295.081 140.38 294.456 140.016 294.023C139.651 293.586 139.13 293.367 138.453 293.367ZM145.469 301H144.172V288.844H145.469V301ZM151.836 301.156C150.57 301.156 149.57 300.771 148.836 300C148.107 299.229 147.742 298.159 147.742 296.789C147.742 295.409 148.081 294.312 148.758 293.5C149.44 292.688 150.354 292.281 151.5 292.281C152.573 292.281 153.422 292.635 154.047 293.344C154.672 294.047 154.984 294.977 154.984 296.133V296.953H149.086C149.112 297.958 149.365 298.721 149.844 299.242C150.328 299.763 151.008 300.023 151.883 300.023C152.805 300.023 153.716 299.831 154.617 299.445V300.602C154.159 300.799 153.724 300.94 153.312 301.023C152.906 301.112 152.414 301.156 151.836 301.156ZM151.484 293.367C150.797 293.367 150.247 293.591 149.836 294.039C149.43 294.487 149.19 295.107 149.117 295.898H153.594C153.594 295.081 153.411 294.456 153.047 294.023C152.682 293.586 152.161 293.367 151.484 293.367ZM159.969 300.086C160.198 300.086 160.419 300.07 160.633 300.039C160.846 300.003 161.016 299.966 161.141 299.93V300.922C161 300.99 160.792 301.044 160.516 301.086C160.245 301.133 160 301.156 159.781 301.156C158.125 301.156 157.297 300.284 157.297 298.539V293.445H156.07V292.82L157.297 292.281L157.844 290.453H158.594V292.438H161.078V293.445H158.594V298.484C158.594 299 158.716 299.396 158.961 299.672C159.206 299.948 159.542 300.086 159.969 300.086ZM166.477 301.156C165.211 301.156 164.211 300.771 163.477 300C162.747 299.229 162.383 298.159 162.383 296.789C162.383 295.409 162.721 294.312 163.398 293.5C164.081 292.688 164.995 292.281 166.141 292.281C167.214 292.281 168.062 292.635 168.688 293.344C169.312 294.047 169.625 294.977 169.625 296.133V296.953H163.727C163.753 297.958 164.005 298.721 164.484 299.242C164.969 299.763 165.648 300.023 166.523 300.023C167.445 300.023 168.357 299.831 169.258 299.445V300.602C168.799 300.799 168.365 300.94 167.953 301.023C167.547 301.112 167.055 301.156 166.477 301.156ZM166.125 293.367C165.438 293.367 164.888 293.591 164.477 294.039C164.07 294.487 163.831 295.107 163.758 295.898H168.234C168.234 295.081 168.052 294.456 167.688 294.023C167.323 293.586 166.802 293.367 166.125 293.367ZM183.391 296.711C183.391 298.107 183.039 299.198 182.336 299.984C181.633 300.766 180.661 301.156 179.422 301.156C178.656 301.156 177.977 300.977 177.383 300.617C176.789 300.258 176.331 299.742 176.008 299.07C175.685 298.398 175.523 297.612 175.523 296.711C175.523 295.315 175.872 294.229 176.57 293.453C177.268 292.672 178.237 292.281 179.477 292.281C180.674 292.281 181.625 292.68 182.328 293.477C183.036 294.273 183.391 295.352 183.391 296.711ZM176.867 296.711C176.867 297.805 177.086 298.638 177.523 299.211C177.961 299.784 178.604 300.07 179.453 300.07C180.302 300.07 180.945 299.786 181.383 299.219C181.826 298.646 182.047 297.81 182.047 296.711C182.047 295.622 181.826 294.797 181.383 294.234C180.945 293.667 180.297 293.383 179.438 293.383C178.589 293.383 177.948 293.661 177.516 294.219C177.083 294.776 176.867 295.607 176.867 296.711ZM189.656 301.156C189.099 301.156 188.589 301.055 188.125 300.852C187.667 300.643 187.281 300.326 186.969 299.898H186.875C186.938 300.398 186.969 300.872 186.969 301.32V304.844H185.672V292.438H186.727L186.906 293.609H186.969C187.302 293.141 187.69 292.802 188.133 292.594C188.576 292.385 189.083 292.281 189.656 292.281C190.792 292.281 191.667 292.669 192.281 293.445C192.901 294.221 193.211 295.31 193.211 296.711C193.211 298.117 192.896 299.211 192.266 299.992C191.641 300.768 190.771 301.156 189.656 301.156ZM189.469 293.383C188.594 293.383 187.961 293.625 187.57 294.109C187.18 294.594 186.979 295.365 186.969 296.422V296.711C186.969 297.914 187.169 298.776 187.57 299.297C187.971 299.812 188.615 300.07 189.5 300.07C190.24 300.07 190.818 299.771 191.234 299.172C191.656 298.573 191.867 297.747 191.867 296.695C191.867 295.628 191.656 294.81 191.234 294.242C190.818 293.669 190.229 293.383 189.469 293.383ZM199.102 301.156C197.836 301.156 196.836 300.771 196.102 300C195.372 299.229 195.008 298.159 195.008 296.789C195.008 295.409 195.346 294.312 196.023 293.5C196.706 292.688 197.62 292.281 198.766 292.281C199.839 292.281 200.688 292.635 201.312 293.344C201.938 294.047 202.25 294.977 202.25 296.133V296.953H196.352C196.378 297.958 196.63 298.721 197.109 299.242C197.594 299.763 198.273 300.023 199.148 300.023C200.07 300.023 200.982 299.831 201.883 299.445V300.602C201.424 300.799 200.99 300.94 200.578 301.023C200.172 301.112 199.68 301.156 199.102 301.156ZM198.75 293.367C198.062 293.367 197.513 293.591 197.102 294.039C196.695 294.487 196.456 295.107 196.383 295.898H200.859C200.859 295.081 200.677 294.456 200.312 294.023C199.948 293.586 199.427 293.367 198.75 293.367ZM208.375 292.281C208.755 292.281 209.096 292.312 209.398 292.375L209.219 293.578C208.865 293.5 208.552 293.461 208.281 293.461C207.589 293.461 206.995 293.742 206.5 294.305C206.01 294.867 205.766 295.568 205.766 296.406V301H204.469V292.438H205.539L205.688 294.023H205.75C206.068 293.466 206.451 293.036 206.898 292.734C207.346 292.432 207.839 292.281 208.375 292.281ZM216.266 301L216.008 299.781H215.945C215.518 300.318 215.091 300.682 214.664 300.875C214.242 301.062 213.714 301.156 213.078 301.156C212.229 301.156 211.562 300.938 211.078 300.5C210.599 300.062 210.359 299.44 210.359 298.633C210.359 296.904 211.742 295.997 214.508 295.914L215.961 295.867V295.336C215.961 294.664 215.815 294.169 215.523 293.852C215.237 293.529 214.776 293.367 214.141 293.367C213.427 293.367 212.62 293.586 211.719 294.023L211.32 293.031C211.742 292.802 212.203 292.622 212.703 292.492C213.208 292.362 213.714 292.297 214.219 292.297C215.24 292.297 215.995 292.523 216.484 292.977C216.979 293.43 217.227 294.156 217.227 295.156V301H216.266ZM213.336 300.086C214.143 300.086 214.776 299.865 215.234 299.422C215.698 298.979 215.93 298.359 215.93 297.562V296.789L214.633 296.844C213.602 296.88 212.857 297.042 212.398 297.328C211.945 297.609 211.719 298.049 211.719 298.648C211.719 299.117 211.859 299.474 212.141 299.719C212.427 299.964 212.826 300.086 213.336 300.086ZM222.672 300.086C222.901 300.086 223.122 300.07 223.336 300.039C223.549 300.003 223.719 299.966 223.844 299.93V300.922C223.703 300.99 223.495 301.044 223.219 301.086C222.948 301.133 222.703 301.156 222.484 301.156C220.828 301.156 220 300.284 220 298.539V293.445H218.773V292.82L220 292.281L220.547 290.453H221.297V292.438H223.781V293.445H221.297V298.484C221.297 299 221.419 299.396 221.664 299.672C221.909 299.948 222.245 300.086 222.672 300.086ZM226.859 301H225.562V292.438H226.859V301ZM225.453 290.117C225.453 289.82 225.526 289.604 225.672 289.469C225.818 289.328 226 289.258 226.219 289.258C226.427 289.258 226.607 289.328 226.758 289.469C226.909 289.609 226.984 289.826 226.984 290.117C226.984 290.409 226.909 290.628 226.758 290.773C226.607 290.914 226.427 290.984 226.219 290.984C226 290.984 225.818 290.914 225.672 290.773C225.526 290.628 225.453 290.409 225.453 290.117ZM237 296.711C237 298.107 236.648 299.198 235.945 299.984C235.242 300.766 234.271 301.156 233.031 301.156C232.266 301.156 231.586 300.977 230.992 300.617C230.398 300.258 229.94 299.742 229.617 299.07C229.294 298.398 229.133 297.612 229.133 296.711C229.133 295.315 229.482 294.229 230.18 293.453C230.878 292.672 231.846 292.281 233.086 292.281C234.284 292.281 235.234 292.68 235.938 293.477C236.646 294.273 237 295.352 237 296.711ZM230.477 296.711C230.477 297.805 230.695 298.638 231.133 299.211C231.57 299.784 232.214 300.07 233.062 300.07C233.911 300.07 234.555 299.786 234.992 299.219C235.435 298.646 235.656 297.81 235.656 296.711C235.656 295.622 235.435 294.797 234.992 294.234C234.555 293.667 233.906 293.383 233.047 293.383C232.198 293.383 231.557 293.661 231.125 294.219C230.693 294.776 230.477 295.607 230.477 296.711ZM245.141 301V295.461C245.141 294.763 244.982 294.242 244.664 293.898C244.346 293.555 243.849 293.383 243.172 293.383C242.276 293.383 241.62 293.625 241.203 294.109C240.786 294.594 240.578 295.393 240.578 296.508V301H239.281V292.438H240.336L240.547 293.609H240.609C240.875 293.188 241.247 292.862 241.727 292.633C242.206 292.398 242.74 292.281 243.328 292.281C244.359 292.281 245.135 292.531 245.656 293.031C246.177 293.526 246.438 294.32 246.438 295.414V301H245.141ZM249.992 297.852V297.43C249.992 296.82 250.086 296.32 250.273 295.93C250.461 295.534 250.81 295.117 251.32 294.68C252.029 294.081 252.474 293.63 252.656 293.328C252.844 293.026 252.938 292.661 252.938 292.234C252.938 291.703 252.766 291.294 252.422 291.008C252.083 290.716 251.594 290.57 250.953 290.57C250.542 290.57 250.141 290.62 249.75 290.719C249.359 290.812 248.911 290.987 248.406 291.242L247.945 290.188C248.93 289.672 249.958 289.414 251.031 289.414C252.026 289.414 252.799 289.659 253.352 290.148C253.904 290.638 254.18 291.328 254.18 292.219C254.18 292.599 254.128 292.935 254.023 293.227C253.924 293.513 253.776 293.786 253.578 294.047C253.38 294.302 252.953 294.716 252.297 295.289C251.771 295.737 251.422 296.109 251.25 296.406C251.083 296.703 251 297.099 251 297.594V297.852H249.992ZM249.609 300.172C249.609 299.464 249.922 299.109 250.547 299.109C250.849 299.109 251.081 299.201 251.242 299.383C251.409 299.565 251.492 299.828 251.492 300.172C251.492 300.505 251.409 300.766 251.242 300.953C251.076 301.135 250.844 301.227 250.547 301.227C250.276 301.227 250.052 301.146 249.875 300.984C249.698 300.818 249.609 300.547 249.609 300.172Z" fill="#424E54"/>
<path d="M229.571 344.764C228.632 344.764 227.894 345.096 227.356 345.762C226.819 346.427 226.55 347.345 226.55 348.517C226.55 349.743 226.807 350.67 227.322 351.299C227.842 351.928 228.591 352.242 229.571 352.242C229.995 352.242 230.405 352.201 230.802 352.119C231.198 352.033 231.611 351.923 232.039 351.791V353.192C231.255 353.489 230.367 353.637 229.373 353.637C227.91 353.637 226.787 353.195 226.003 352.311C225.219 351.422 224.827 350.153 224.827 348.503C224.827 347.464 225.016 346.555 225.395 345.775C225.777 344.996 226.329 344.399 227.049 343.984C227.769 343.57 228.614 343.362 229.585 343.362C230.606 343.362 231.549 343.576 232.415 344.005L231.827 345.365C231.49 345.206 231.132 345.067 230.754 344.948C230.38 344.825 229.986 344.764 229.571 344.764ZM238.752 353.5L238.431 352.447H238.376C238.011 352.908 237.645 353.222 237.275 353.391C236.906 353.555 236.432 353.637 235.854 353.637C235.111 353.637 234.53 353.436 234.11 353.035C233.696 352.634 233.488 352.067 233.488 351.333C233.488 350.554 233.778 349.966 234.356 349.569C234.935 349.173 235.817 348.956 237.002 348.92L238.308 348.879V348.476C238.308 347.993 238.194 347.632 237.966 347.396C237.743 347.154 237.394 347.033 236.92 347.033C236.533 347.033 236.161 347.09 235.806 347.204C235.45 347.318 235.108 347.452 234.78 347.607L234.261 346.459C234.671 346.245 235.12 346.083 235.607 345.974C236.095 345.86 236.555 345.803 236.988 345.803C237.95 345.803 238.674 346.012 239.162 346.432C239.654 346.851 239.9 347.509 239.9 348.407V353.5H238.752ZM236.359 352.406C236.943 352.406 237.41 352.244 237.761 351.921C238.116 351.593 238.294 351.135 238.294 350.547V349.891L237.323 349.932C236.567 349.959 236.015 350.087 235.669 350.314C235.327 350.538 235.156 350.882 235.156 351.347C235.156 351.684 235.257 351.946 235.457 352.133C235.658 352.315 235.958 352.406 236.359 352.406ZM248.794 353.5H247.181V348.852C247.181 348.268 247.062 347.833 246.825 347.546C246.593 347.259 246.221 347.115 245.711 347.115C245.032 347.115 244.535 347.316 244.221 347.717C243.906 348.118 243.749 348.79 243.749 349.733V353.5H242.143V345.939H243.4L243.626 346.931H243.708C243.936 346.571 244.259 346.293 244.679 346.097C245.098 345.901 245.563 345.803 246.073 345.803C247.887 345.803 248.794 346.726 248.794 348.571V353.5ZM254.078 353.637C252.934 353.637 252.064 353.304 251.467 352.639C250.874 351.969 250.578 351.009 250.578 349.761C250.578 348.489 250.888 347.512 251.508 346.828C252.132 346.145 253.032 345.803 254.208 345.803C255.006 345.803 255.723 345.951 256.361 346.247L255.876 347.539C255.197 347.275 254.636 347.143 254.194 347.143C252.886 347.143 252.232 348.011 252.232 349.747C252.232 350.595 252.394 351.233 252.718 351.661C253.046 352.085 253.524 352.297 254.153 352.297C254.869 352.297 255.546 352.119 256.184 351.764V353.165C255.896 353.334 255.589 353.454 255.261 353.527C254.937 353.6 254.543 353.637 254.078 353.637ZM261.263 353.637C260.087 353.637 259.166 353.295 258.501 352.611C257.84 351.923 257.51 350.978 257.51 349.774C257.51 348.539 257.817 347.569 258.433 346.862C259.048 346.156 259.893 345.803 260.969 345.803C261.967 345.803 262.755 346.106 263.334 346.712C263.913 347.318 264.202 348.152 264.202 349.214V350.082H259.164C259.187 350.816 259.385 351.381 259.759 351.777C260.132 352.169 260.659 352.365 261.338 352.365C261.785 352.365 262.199 352.324 262.582 352.242C262.969 352.156 263.384 352.014 263.826 351.818V353.124C263.434 353.311 263.038 353.443 262.637 353.521C262.236 353.598 261.778 353.637 261.263 353.637ZM260.969 347.02C260.458 347.02 260.048 347.181 259.738 347.505C259.433 347.828 259.251 348.3 259.191 348.92H262.623C262.614 348.296 262.464 347.824 262.172 347.505C261.88 347.181 261.479 347.02 260.969 347.02ZM267.634 353.5H266.027V342.863H267.634V353.5Z" fill="#007BC1"/>
<rect x="208.5" y="330.5" width="76" height="35" rx="3.5" stroke="#007BC1"/>
<path d="M318.571 344.764C317.632 344.764 316.894 345.096 316.356 345.762C315.819 346.427 315.55 347.345 315.55 348.517C315.55 349.743 315.807 350.67 316.322 351.299C316.842 351.928 317.591 352.242 318.571 352.242C318.995 352.242 319.405 352.201 319.802 352.119C320.198 352.033 320.611 351.923 321.039 351.791V353.192C320.255 353.489 319.367 353.637 318.373 353.637C316.91 353.637 315.787 353.195 315.003 352.311C314.219 351.422 313.827 350.153 313.827 348.503C313.827 347.464 314.016 346.555 314.395 345.775C314.777 344.996 315.329 344.399 316.049 343.984C316.769 343.57 317.614 343.362 318.585 343.362C319.606 343.362 320.549 343.576 321.415 344.005L320.827 345.365C320.49 345.206 320.132 345.067 319.754 344.948C319.38 344.825 318.986 344.764 318.571 344.764ZM329.728 349.706C329.728 350.941 329.411 351.905 328.777 352.598C328.144 353.29 327.262 353.637 326.132 353.637C325.425 353.637 324.801 353.477 324.259 353.158C323.716 352.839 323.299 352.381 323.008 351.784C322.716 351.187 322.57 350.494 322.57 349.706C322.57 348.48 322.885 347.523 323.514 346.835C324.143 346.147 325.029 345.803 326.173 345.803C327.267 345.803 328.132 346.156 328.771 346.862C329.409 347.564 329.728 348.512 329.728 349.706ZM324.225 349.706C324.225 351.451 324.869 352.324 326.159 352.324C327.435 352.324 328.073 351.451 328.073 349.706C328.073 347.979 327.431 347.115 326.146 347.115C325.471 347.115 324.981 347.339 324.676 347.785C324.375 348.232 324.225 348.872 324.225 349.706ZM338.231 353.5H336.618V348.852C336.618 348.268 336.5 347.833 336.263 347.546C336.03 347.259 335.659 347.115 335.148 347.115C334.469 347.115 333.973 347.316 333.658 347.717C333.344 348.118 333.187 348.79 333.187 349.733V353.5H331.58V345.939H332.838L333.063 346.931H333.146C333.373 346.571 333.697 346.293 334.116 346.097C334.535 345.901 335 345.803 335.511 345.803C337.325 345.803 338.231 346.726 338.231 348.571V353.5ZM344.261 347.156H342.415V353.5H340.802V347.156H339.558V346.404L340.802 345.912V345.42C340.802 344.527 341.011 343.866 341.431 343.438C341.85 343.005 342.49 342.788 343.352 342.788C343.917 342.788 344.473 342.882 345.02 343.068L344.596 344.285C344.199 344.158 343.821 344.094 343.461 344.094C343.096 344.094 342.83 344.208 342.661 344.436C342.497 344.659 342.415 344.996 342.415 345.447V345.939H344.261V347.156ZM347.159 353.5H345.553V345.939H347.159V353.5ZM345.457 343.937C345.457 343.649 345.535 343.428 345.689 343.273C345.849 343.118 346.075 343.041 346.366 343.041C346.649 343.041 346.868 343.118 347.022 343.273C347.182 343.428 347.262 343.649 347.262 343.937C347.262 344.21 347.182 344.426 347.022 344.586C346.868 344.741 346.649 344.818 346.366 344.818C346.075 344.818 345.849 344.741 345.689 344.586C345.535 344.426 345.457 344.21 345.457 343.937ZM353.298 345.803C353.621 345.803 353.888 345.826 354.098 345.871L353.94 347.368C353.713 347.313 353.476 347.286 353.229 347.286C352.587 347.286 352.065 347.496 351.664 347.915C351.268 348.334 351.069 348.879 351.069 349.549V353.5H349.463V345.939H350.721L350.933 347.272H351.015C351.265 346.821 351.591 346.464 351.992 346.199C352.398 345.935 352.833 345.803 353.298 345.803ZM361.877 353.5H360.264V348.838C360.264 348.259 360.154 347.828 359.936 347.546C359.717 347.259 359.375 347.115 358.91 347.115C358.29 347.115 357.835 347.318 357.543 347.724C357.256 348.125 357.112 348.795 357.112 349.733V353.5H355.506V345.939H356.764L356.989 346.931H357.071C357.281 346.571 357.584 346.293 357.98 346.097C358.382 345.901 358.821 345.803 359.3 345.803C360.462 345.803 361.232 346.199 361.61 346.992H361.72C361.943 346.618 362.257 346.327 362.663 346.117C363.069 345.908 363.534 345.803 364.058 345.803C364.96 345.803 365.616 346.031 366.026 346.486C366.441 346.942 366.648 347.637 366.648 348.571V353.5H365.042V348.838C365.042 348.259 364.93 347.828 364.707 347.546C364.488 347.259 364.146 347.115 363.682 347.115C363.057 347.115 362.599 347.311 362.308 347.703C362.021 348.09 361.877 348.688 361.877 349.494V353.5Z" fill="#CA3C3D"/>
<rect x="297.5" y="330.5" width="86" height="35" rx="3.5" stroke="#CA3C3D"/>
</g>
</g>
<defs>
<filter id="filter0_ddd_5174_239769" x="74" y="98" width="352" height="315" filterUnits="userSpaceOnUse" color-interpolation-filters="sRGB">
<feFlood flood-opacity="0" result="BackgroundImageFix"/>
<feColorMatrix in="SourceAlpha" type="matrix" values="0 0 0 0 0 0 0 0 0 0 0 0 0 0 0 0 0 0 127 0" result="hardAlpha"/>
<feMorphology radius="4" operator="dilate" in="SourceAlpha" result="effect1_dropShadow_5174_239769"/>
<feOffset dy="5"/>
<feGaussianBlur stdDeviation="11"/>
<feColorMatrix type="matrix" values="0 0 0 0 0 0 0 0 0 0 0 0 0 0 0 0 0 0 0.12 0"/>
<feBlend mode="normal" in2="BackgroundImageFix" result="effect1_dropShadow_5174_239769"/>
<feColorMatrix in="SourceAlpha" type="matrix" values="0 0 0 0 0 0 0 0 0 0 0 0 0 0 0 0 0 0 127 0" result="hardAlpha"/>
<feMorphology radius="2" operator="dilate" in="SourceAlpha" result="effect2_dropShadow_5174_239769"/>
<feOffset dy="12"/>
<feGaussianBlur stdDeviation="8.5"/>
<feColorMatrix type="matrix" values="0 0 0 0 0.258824 0 0 0 0 0.305882 0 0 0 0 0.329412 0 0 0 0.14 0"/>
<feBlend mode="normal" in2="effect1_dropShadow_5174_239769" result="effect2_dropShadow_5174_239769"/>
<feColorMatrix in="SourceAlpha" type="matrix" values="0 0 0 0 0 0 0 0 0 0 0 0 0 0 0 0 0 0 127 0" result="hardAlpha"/>
<feMorphology radius="4" operator="erode" in="SourceAlpha" result="effect3_dropShadow_5174_239769"/>
<feOffset dy="7"/>
<feGaussianBlur stdDeviation="4"/>
<feColorMatrix type="matrix" values="0 0 0 0 0 0 0 0 0 0 0 0 0 0 0 0 0 0 0.2 0"/>
<feBlend mode="normal" in2="effect2_dropShadow_5174_239769" result="effect3_dropShadow_5174_239769"/>
<feBlend mode="normal" in="SourceGraphic" in2="effect3_dropShadow_5174_239769" result="shape"/>
</filter>
<clipPath id="clip0_5174_239769">
<rect x="100" y="119" width="300" height="263" rx="4" fill="white"/>
</clipPath>
</defs>
</svg>
