<svg width="500" height="500" viewBox="0 0 500 500" fill="none" xmlns="http://www.w3.org/2000/svg">
<rect width="500" height="500" fill="#E2E5E5"/>
<g filter="url(#filter0_ddd_5174_239593)">
<g clip-path="url(#clip0_5174_239593)">
<rect x="100" y="113" width="300" height="275" rx="4" fill="white"/>
<path d="M135.338 140.039C135.338 141.53 134.85 142.673 133.873 143.467C132.896 144.261 131.507 144.658 129.703 144.658H128.219V150H125.885V135.723H129.996C131.78 135.723 133.115 136.087 134 136.816C134.892 137.546 135.338 138.62 135.338 140.039ZM128.219 142.695H129.459C130.657 142.695 131.536 142.487 132.096 142.07C132.656 141.654 132.936 141.003 132.936 140.117C132.936 139.297 132.685 138.685 132.184 138.281C131.682 137.878 130.901 137.676 129.84 137.676H128.219V142.695ZM142.662 150.195C140.982 150.195 139.667 149.707 138.717 148.73C137.773 147.747 137.301 146.396 137.301 144.678C137.301 142.913 137.74 141.527 138.619 140.518C139.498 139.508 140.706 139.004 142.242 139.004C143.668 139.004 144.794 139.437 145.621 140.303C146.448 141.169 146.861 142.36 146.861 143.877V145.117H139.664C139.697 146.165 139.98 146.973 140.514 147.539C141.048 148.099 141.799 148.379 142.77 148.379C143.408 148.379 144 148.32 144.547 148.203C145.1 148.079 145.693 147.878 146.324 147.598V149.463C145.764 149.73 145.198 149.919 144.625 150.029C144.052 150.14 143.398 150.195 142.662 150.195ZM142.242 140.742C141.513 140.742 140.927 140.973 140.484 141.436C140.048 141.898 139.788 142.572 139.703 143.457H144.605C144.592 142.565 144.378 141.891 143.961 141.436C143.544 140.973 142.971 140.742 142.242 140.742ZM154.947 139.004C155.41 139.004 155.79 139.036 156.09 139.102L155.865 141.24C155.54 141.162 155.201 141.123 154.85 141.123C153.932 141.123 153.186 141.423 152.613 142.021C152.047 142.62 151.764 143.398 151.764 144.355V150H149.469V139.199H151.266L151.568 141.104H151.686C152.044 140.459 152.509 139.948 153.082 139.57C153.661 139.193 154.283 139.004 154.947 139.004ZM167.203 150H164.898V143.34C164.898 142.513 164.742 141.898 164.43 141.494C164.117 141.084 163.629 140.879 162.965 140.879C162.079 140.879 161.428 141.169 161.012 141.748C160.602 142.321 160.396 143.278 160.396 144.619V150H158.102V139.199H159.898L160.221 140.615H160.338C160.637 140.101 161.07 139.704 161.637 139.424C162.21 139.144 162.838 139.004 163.521 139.004C165.182 139.004 166.282 139.57 166.822 140.703H166.979C167.298 140.169 167.747 139.753 168.326 139.453C168.906 139.154 169.57 139.004 170.318 139.004C171.607 139.004 172.545 139.329 173.131 139.98C173.723 140.632 174.02 141.624 174.02 142.959V150H171.725V143.34C171.725 142.513 171.565 141.898 171.246 141.494C170.934 141.084 170.445 140.879 169.781 140.879C168.889 140.879 168.235 141.159 167.818 141.719C167.408 142.272 167.203 143.125 167.203 144.277V150ZM183.98 150L183.521 148.496H183.443C182.923 149.154 182.398 149.603 181.871 149.844C181.344 150.078 180.667 150.195 179.84 150.195C178.779 150.195 177.949 149.909 177.35 149.336C176.757 148.763 176.461 147.952 176.461 146.904C176.461 145.791 176.874 144.951 177.701 144.385C178.528 143.818 179.788 143.509 181.48 143.457L183.346 143.398V142.822C183.346 142.132 183.183 141.618 182.857 141.279C182.538 140.934 182.04 140.762 181.363 140.762C180.81 140.762 180.279 140.843 179.771 141.006C179.264 141.169 178.775 141.361 178.307 141.582L177.564 139.941C178.15 139.635 178.792 139.404 179.488 139.248C180.185 139.085 180.842 139.004 181.461 139.004C182.835 139.004 183.87 139.303 184.566 139.902C185.27 140.501 185.621 141.442 185.621 142.725V150H183.98ZM180.562 148.438C181.396 148.438 182.063 148.206 182.564 147.744C183.072 147.275 183.326 146.621 183.326 145.781V144.844L181.939 144.902C180.859 144.941 180.071 145.124 179.576 145.449C179.088 145.768 178.844 146.26 178.844 146.924C178.844 147.406 178.987 147.78 179.273 148.047C179.56 148.307 179.99 148.438 180.562 148.438ZM198.326 150H196.021V143.359C196.021 142.526 195.852 141.904 195.514 141.494C195.182 141.084 194.651 140.879 193.922 140.879C192.952 140.879 192.242 141.165 191.793 141.738C191.344 142.311 191.119 143.271 191.119 144.619V150H188.824V139.199H190.621L190.943 140.615H191.061C191.386 140.101 191.848 139.704 192.447 139.424C193.046 139.144 193.71 139.004 194.439 139.004C197.031 139.004 198.326 140.322 198.326 142.959V150ZM206.236 150.195C204.557 150.195 203.242 149.707 202.291 148.73C201.347 147.747 200.875 146.396 200.875 144.678C200.875 142.913 201.314 141.527 202.193 140.518C203.072 139.508 204.28 139.004 205.816 139.004C207.242 139.004 208.368 139.437 209.195 140.303C210.022 141.169 210.436 142.36 210.436 143.877V145.117H203.238C203.271 146.165 203.554 146.973 204.088 147.539C204.622 148.099 205.374 148.379 206.344 148.379C206.982 148.379 207.574 148.32 208.121 148.203C208.674 148.079 209.267 147.878 209.898 147.598V149.463C209.339 149.73 208.772 149.919 208.199 150.029C207.626 150.14 206.972 150.195 206.236 150.195ZM205.816 140.742C205.087 140.742 204.501 140.973 204.059 141.436C203.622 141.898 203.362 142.572 203.277 143.457H208.18C208.167 142.565 207.952 141.891 207.535 141.436C207.118 140.973 206.546 140.742 205.816 140.742ZM222.545 150H220.24V143.359C220.24 142.526 220.071 141.904 219.732 141.494C219.4 141.084 218.87 140.879 218.141 140.879C217.171 140.879 216.461 141.165 216.012 141.738C215.562 142.311 215.338 143.271 215.338 144.619V150H213.043V139.199H214.84L215.162 140.615H215.279C215.605 140.101 216.067 139.704 216.666 139.424C217.265 139.144 217.929 139.004 218.658 139.004C221.249 139.004 222.545 140.322 222.545 142.959V150ZM229.762 148.34C230.322 148.34 230.882 148.252 231.441 148.076V149.805C231.188 149.915 230.859 150.007 230.455 150.078C230.058 150.156 229.645 150.195 229.215 150.195C227.04 150.195 225.953 149.049 225.953 146.758V140.938H224.479V139.922L226.061 139.082L226.842 136.797H228.258V139.199H231.334V140.938H228.258V146.719C228.258 147.272 228.395 147.682 228.668 147.949C228.948 148.21 229.312 148.34 229.762 148.34ZM235.904 150H233.609V134.805H235.904V150ZM237.555 139.199H240.055L242.252 145.322C242.584 146.195 242.805 147.015 242.916 147.783H242.994C243.053 147.425 243.16 146.992 243.316 146.484C243.473 145.97 244.299 143.542 245.797 139.199H248.277L243.658 151.436C242.818 153.682 241.419 154.805 239.459 154.805C238.951 154.805 238.456 154.749 237.975 154.639V152.822C238.32 152.9 238.714 152.939 239.156 152.939C240.263 152.939 241.041 152.298 241.49 151.016L241.891 150L237.555 139.199ZM258.756 150.195C257.408 150.195 256.357 149.707 255.602 148.73C254.846 147.754 254.469 146.383 254.469 144.619C254.469 142.848 254.85 141.471 255.611 140.488C256.38 139.499 257.441 139.004 258.795 139.004C260.214 139.004 261.295 139.528 262.037 140.576H262.154C262.044 139.801 261.988 139.189 261.988 138.74V134.805H264.293V150H262.496L262.096 148.584H261.988C261.253 149.658 260.175 150.195 258.756 150.195ZM259.371 148.34C260.315 148.34 261.002 148.076 261.432 147.549C261.861 147.015 262.083 146.152 262.096 144.961V144.639C262.096 143.278 261.874 142.311 261.432 141.738C260.989 141.165 260.296 140.879 259.352 140.879C258.544 140.879 257.923 141.208 257.486 141.865C257.05 142.516 256.832 143.447 256.832 144.658C256.832 145.856 257.044 146.771 257.467 147.402C257.89 148.027 258.525 148.34 259.371 148.34ZM272.291 150.195C270.611 150.195 269.296 149.707 268.346 148.73C267.402 147.747 266.93 146.396 266.93 144.678C266.93 142.913 267.369 141.527 268.248 140.518C269.127 139.508 270.335 139.004 271.871 139.004C273.297 139.004 274.423 139.437 275.25 140.303C276.077 141.169 276.49 142.36 276.49 143.877V145.117H269.293C269.326 146.165 269.609 146.973 270.143 147.539C270.676 148.099 271.428 148.379 272.398 148.379C273.036 148.379 273.629 148.32 274.176 148.203C274.729 148.079 275.322 147.878 275.953 147.598V149.463C275.393 149.73 274.827 149.919 274.254 150.029C273.681 150.14 273.027 150.195 272.291 150.195ZM271.871 140.742C271.142 140.742 270.556 140.973 270.113 141.436C269.677 141.898 269.417 142.572 269.332 143.457H274.234C274.221 142.565 274.007 141.891 273.59 141.436C273.173 140.973 272.6 140.742 271.871 140.742ZM281.393 150H279.098V134.805H281.393V150ZM289.4 150.195C287.721 150.195 286.406 149.707 285.455 148.73C284.511 147.747 284.039 146.396 284.039 144.678C284.039 142.913 284.479 141.527 285.357 140.518C286.236 139.508 287.444 139.004 288.98 139.004C290.406 139.004 291.533 139.437 292.359 140.303C293.186 141.169 293.6 142.36 293.6 143.877V145.117H286.402C286.435 146.165 286.718 146.973 287.252 147.539C287.786 148.099 288.538 148.379 289.508 148.379C290.146 148.379 290.738 148.32 291.285 148.203C291.839 148.079 292.431 147.878 293.062 147.598V149.463C292.503 149.73 291.936 149.919 291.363 150.029C290.79 150.14 290.136 150.195 289.4 150.195ZM288.98 140.742C288.251 140.742 287.665 140.973 287.223 141.436C286.786 141.898 286.526 142.572 286.441 143.457H291.344C291.331 142.565 291.116 141.891 290.699 141.436C290.283 140.973 289.71 140.742 288.98 140.742ZM300.23 148.34C300.79 148.34 301.35 148.252 301.91 148.076V149.805C301.656 149.915 301.327 150.007 300.924 150.078C300.527 150.156 300.113 150.195 299.684 150.195C297.509 150.195 296.422 149.049 296.422 146.758V140.938H294.947V139.922L296.529 139.082L297.311 136.797H298.727V139.199H301.803V140.938H298.727V146.719C298.727 147.272 298.863 147.682 299.137 147.949C299.417 148.21 299.781 148.34 300.23 148.34ZM308.795 150.195C307.115 150.195 305.8 149.707 304.85 148.73C303.906 147.747 303.434 146.396 303.434 144.678C303.434 142.913 303.873 141.527 304.752 140.518C305.631 139.508 306.839 139.004 308.375 139.004C309.801 139.004 310.927 139.437 311.754 140.303C312.581 141.169 312.994 142.36 312.994 143.877V145.117H305.797C305.829 146.165 306.113 146.973 306.646 147.539C307.18 148.099 307.932 148.379 308.902 148.379C309.54 148.379 310.133 148.32 310.68 148.203C311.233 148.079 311.826 147.878 312.457 147.598V149.463C311.897 149.73 311.331 149.919 310.758 150.029C310.185 150.14 309.531 150.195 308.795 150.195ZM308.375 140.742C307.646 140.742 307.06 140.973 306.617 141.436C306.181 141.898 305.921 142.572 305.836 143.457H310.738C310.725 142.565 310.51 141.891 310.094 141.436C309.677 140.973 309.104 140.742 308.375 140.742ZM327.555 150L327.096 148.496H327.018C326.497 149.154 325.973 149.603 325.445 149.844C324.918 150.078 324.241 150.195 323.414 150.195C322.353 150.195 321.523 149.909 320.924 149.336C320.331 148.763 320.035 147.952 320.035 146.904C320.035 145.791 320.449 144.951 321.275 144.385C322.102 143.818 323.362 143.509 325.055 143.457L326.92 143.398V142.822C326.92 142.132 326.757 141.618 326.432 141.279C326.113 140.934 325.615 140.762 324.938 140.762C324.384 140.762 323.854 140.843 323.346 141.006C322.838 141.169 322.35 141.361 321.881 141.582L321.139 139.941C321.725 139.635 322.366 139.404 323.062 139.248C323.759 139.085 324.417 139.004 325.035 139.004C326.409 139.004 327.444 139.303 328.141 139.902C328.844 140.501 329.195 141.442 329.195 142.725V150H327.555ZM324.137 148.438C324.97 148.438 325.637 148.206 326.139 147.744C326.646 147.275 326.9 146.621 326.9 145.781V144.844L325.514 144.902C324.433 144.941 323.645 145.124 323.15 145.449C322.662 145.768 322.418 146.26 322.418 146.924C322.418 147.406 322.561 147.78 322.848 148.047C323.134 148.307 323.564 148.438 324.137 148.438ZM334.693 150H332.398V134.805H334.693V150ZM340.279 150H337.984V134.805H340.279V150ZM129.283 177.195C127.936 177.195 126.884 176.707 126.129 175.73C125.374 174.754 124.996 173.383 124.996 171.619C124.996 169.848 125.377 168.471 126.139 167.488C126.907 166.499 127.968 166.004 129.322 166.004C130.742 166.004 131.822 166.528 132.564 167.576H132.682C132.571 166.801 132.516 166.189 132.516 165.74V161.805H134.82V177H133.023L132.623 175.584H132.516C131.78 176.658 130.702 177.195 129.283 177.195ZM129.898 175.34C130.842 175.34 131.529 175.076 131.959 174.549C132.389 174.015 132.61 173.152 132.623 171.961V171.639C132.623 170.278 132.402 169.311 131.959 168.738C131.516 168.165 130.823 167.879 129.879 167.879C129.072 167.879 128.45 168.208 128.014 168.865C127.577 169.516 127.359 170.447 127.359 171.658C127.359 172.856 127.571 173.771 127.994 174.402C128.417 175.027 129.052 175.34 129.898 175.34ZM142.818 177.195C141.139 177.195 139.824 176.707 138.873 175.73C137.929 174.747 137.457 173.396 137.457 171.678C137.457 169.913 137.896 168.527 138.775 167.518C139.654 166.508 140.862 166.004 142.398 166.004C143.824 166.004 144.951 166.437 145.777 167.303C146.604 168.169 147.018 169.36 147.018 170.877V172.117H139.82C139.853 173.165 140.136 173.973 140.67 174.539C141.204 175.099 141.956 175.379 142.926 175.379C143.564 175.379 144.156 175.32 144.703 175.203C145.257 175.079 145.849 174.878 146.48 174.598V176.463C145.921 176.73 145.354 176.919 144.781 177.029C144.208 177.14 143.554 177.195 142.818 177.195ZM142.398 167.742C141.669 167.742 141.083 167.973 140.641 168.436C140.204 168.898 139.944 169.572 139.859 170.457H144.762C144.749 169.565 144.534 168.891 144.117 168.436C143.701 167.973 143.128 167.742 142.398 167.742ZM152.086 177L147.984 166.199H150.406L152.604 172.479C152.981 173.533 153.209 174.386 153.287 175.037H153.365C153.424 174.568 153.652 173.715 154.049 172.479L156.246 166.199H158.688L154.566 177H152.086ZM162.623 177H160.328V166.199H162.623V177ZM160.191 163.338C160.191 162.928 160.302 162.612 160.523 162.391C160.751 162.169 161.074 162.059 161.49 162.059C161.894 162.059 162.206 162.169 162.428 162.391C162.656 162.612 162.77 162.928 162.77 163.338C162.77 163.729 162.656 164.038 162.428 164.266C162.206 164.487 161.894 164.598 161.49 164.598C161.074 164.598 160.751 164.487 160.523 164.266C160.302 164.038 160.191 163.729 160.191 163.338ZM170.27 177.195C168.635 177.195 167.392 176.72 166.539 175.77C165.693 174.812 165.27 173.442 165.27 171.658C165.27 169.842 165.712 168.445 166.598 167.469C167.49 166.492 168.775 166.004 170.455 166.004C171.594 166.004 172.62 166.215 173.531 166.639L172.838 168.484C171.868 168.107 171.067 167.918 170.436 167.918C168.567 167.918 167.633 169.158 167.633 171.639C167.633 172.85 167.864 173.761 168.326 174.373C168.795 174.979 169.479 175.281 170.377 175.281C171.399 175.281 172.366 175.027 173.277 174.52V176.521C172.867 176.762 172.428 176.935 171.959 177.039C171.497 177.143 170.934 177.195 170.27 177.195ZM180.533 177.195C178.854 177.195 177.538 176.707 176.588 175.73C175.644 174.747 175.172 173.396 175.172 171.678C175.172 169.913 175.611 168.527 176.49 167.518C177.369 166.508 178.577 166.004 180.113 166.004C181.539 166.004 182.665 166.437 183.492 167.303C184.319 168.169 184.732 169.36 184.732 170.877V172.117H177.535C177.568 173.165 177.851 173.973 178.385 174.539C178.919 175.099 179.671 175.379 180.641 175.379C181.279 175.379 181.871 175.32 182.418 175.203C182.971 175.079 183.564 174.878 184.195 174.598V176.463C183.635 176.73 183.069 176.919 182.496 177.029C181.923 177.14 181.269 177.195 180.533 177.195ZM180.113 167.742C179.384 167.742 178.798 167.973 178.355 168.436C177.919 168.898 177.659 169.572 177.574 170.457H182.477C182.464 169.565 182.249 168.891 181.832 168.436C181.415 167.973 180.842 167.742 180.113 167.742ZM194.596 173.924C194.596 174.979 194.212 175.789 193.443 176.355C192.675 176.915 191.575 177.195 190.143 177.195C188.704 177.195 187.548 176.977 186.676 176.541V174.559C187.945 175.145 189.127 175.438 190.221 175.438C191.633 175.438 192.34 175.011 192.34 174.158C192.34 173.885 192.262 173.657 192.105 173.475C191.949 173.292 191.692 173.104 191.334 172.908C190.976 172.713 190.478 172.492 189.84 172.244C188.596 171.762 187.753 171.281 187.311 170.799C186.874 170.317 186.656 169.692 186.656 168.924C186.656 167.999 187.027 167.283 187.77 166.775C188.518 166.261 189.534 166.004 190.816 166.004C192.086 166.004 193.287 166.261 194.42 166.775L193.678 168.504C192.512 168.022 191.533 167.781 190.738 167.781C189.527 167.781 188.922 168.126 188.922 168.816C188.922 169.155 189.078 169.441 189.391 169.676C189.71 169.91 190.4 170.232 191.461 170.643C192.353 170.988 193.001 171.303 193.404 171.59C193.808 171.876 194.107 172.208 194.303 172.586C194.498 172.957 194.596 173.403 194.596 173.924ZM209.039 177L208.58 175.496H208.502C207.981 176.154 207.457 176.603 206.93 176.844C206.402 177.078 205.725 177.195 204.898 177.195C203.837 177.195 203.007 176.909 202.408 176.336C201.816 175.763 201.52 174.952 201.52 173.904C201.52 172.791 201.933 171.951 202.76 171.385C203.587 170.818 204.846 170.509 206.539 170.457L208.404 170.398V169.822C208.404 169.132 208.242 168.618 207.916 168.279C207.597 167.934 207.099 167.762 206.422 167.762C205.868 167.762 205.338 167.843 204.83 168.006C204.322 168.169 203.834 168.361 203.365 168.582L202.623 166.941C203.209 166.635 203.85 166.404 204.547 166.248C205.243 166.085 205.901 166.004 206.52 166.004C207.893 166.004 208.928 166.303 209.625 166.902C210.328 167.501 210.68 168.442 210.68 169.725V177H209.039ZM205.621 175.438C206.454 175.438 207.122 175.206 207.623 174.744C208.131 174.275 208.385 173.621 208.385 172.781V171.844L206.998 171.902C205.917 171.941 205.13 172.124 204.635 172.449C204.146 172.768 203.902 173.26 203.902 173.924C203.902 174.406 204.046 174.78 204.332 175.047C204.618 175.307 205.048 175.438 205.621 175.438ZM217.906 175.34C218.466 175.34 219.026 175.252 219.586 175.076V176.805C219.332 176.915 219.003 177.007 218.6 177.078C218.202 177.156 217.789 177.195 217.359 177.195C215.185 177.195 214.098 176.049 214.098 173.758V167.938H212.623V166.922L214.205 166.082L214.986 163.797H216.402V166.199H219.479V167.938H216.402V173.719C216.402 174.272 216.539 174.682 216.812 174.949C217.092 175.21 217.457 175.34 217.906 175.34ZM229.605 167.4C229.951 166.079 230.53 164.52 231.344 162.723H233.004C232.555 164.65 232.229 166.281 232.027 167.615H229.752L229.605 167.4ZM225.553 167.4C225.683 166.86 225.914 166.131 226.246 165.213C226.578 164.295 226.92 163.465 227.271 162.723H228.932C228.515 164.389 228.186 166.02 227.945 167.615H225.67L225.553 167.4ZM241.217 164.52C239.876 164.52 238.821 164.995 238.053 165.945C237.285 166.896 236.9 168.208 236.9 169.881C236.9 171.632 237.268 172.957 238.004 173.855C238.746 174.754 239.817 175.203 241.217 175.203C241.822 175.203 242.408 175.145 242.975 175.027C243.541 174.904 244.13 174.747 244.742 174.559V176.561C243.622 176.984 242.353 177.195 240.934 177.195C238.844 177.195 237.239 176.564 236.119 175.301C234.999 174.031 234.439 172.218 234.439 169.861C234.439 168.377 234.71 167.078 235.25 165.965C235.797 164.852 236.585 163.999 237.613 163.406C238.642 162.814 239.85 162.518 241.236 162.518C242.695 162.518 244.042 162.824 245.279 163.436L244.439 165.379C243.958 165.151 243.447 164.952 242.906 164.783C242.372 164.607 241.809 164.52 241.217 164.52ZM257.076 177H254.771V170.359C254.771 169.526 254.602 168.904 254.264 168.494C253.932 168.084 253.401 167.879 252.672 167.879C251.708 167.879 250.999 168.169 250.543 168.748C250.094 169.321 249.869 170.285 249.869 171.639V177H247.574V161.805H249.869V165.662C249.869 166.281 249.83 166.941 249.752 167.645H249.898C250.211 167.124 250.644 166.72 251.197 166.434C251.757 166.147 252.408 166.004 253.15 166.004C255.768 166.004 257.076 167.322 257.076 169.959V177ZM264.986 177.195C263.307 177.195 261.992 176.707 261.041 175.73C260.097 174.747 259.625 173.396 259.625 171.678C259.625 169.913 260.064 168.527 260.943 167.518C261.822 166.508 263.03 166.004 264.566 166.004C265.992 166.004 267.118 166.437 267.945 167.303C268.772 168.169 269.186 169.36 269.186 170.877V172.117H261.988C262.021 173.165 262.304 173.973 262.838 174.539C263.372 175.099 264.124 175.379 265.094 175.379C265.732 175.379 266.324 175.32 266.871 175.203C267.424 175.079 268.017 174.878 268.648 174.598V176.463C268.089 176.73 267.522 176.919 266.949 177.029C266.376 177.14 265.722 177.195 264.986 177.195ZM264.566 167.742C263.837 167.742 263.251 167.973 262.809 168.436C262.372 168.898 262.112 169.572 262.027 170.457H266.93C266.917 169.565 266.702 168.891 266.285 168.436C265.868 167.973 265.296 167.742 264.566 167.742ZM277.271 166.004C277.734 166.004 278.115 166.036 278.414 166.102L278.189 168.24C277.864 168.162 277.525 168.123 277.174 168.123C276.256 168.123 275.51 168.423 274.938 169.021C274.371 169.62 274.088 170.398 274.088 171.355V177H271.793V166.199H273.59L273.893 168.104H274.01C274.368 167.459 274.833 166.948 275.406 166.57C275.986 166.193 276.607 166.004 277.271 166.004ZM285.904 166.004C286.367 166.004 286.747 166.036 287.047 166.102L286.822 168.24C286.497 168.162 286.158 168.123 285.807 168.123C284.889 168.123 284.143 168.423 283.57 169.021C283.004 169.62 282.721 170.398 282.721 171.355V177H280.426V166.199H282.223L282.525 168.104H282.643C283.001 167.459 283.466 166.948 284.039 166.57C284.618 166.193 285.24 166.004 285.904 166.004ZM291.354 177H289.059V166.199H291.354V177ZM288.922 163.338C288.922 162.928 289.033 162.612 289.254 162.391C289.482 162.169 289.804 162.059 290.221 162.059C290.624 162.059 290.937 162.169 291.158 162.391C291.386 162.612 291.5 162.928 291.5 163.338C291.5 163.729 291.386 164.038 291.158 164.266C290.937 164.487 290.624 164.598 290.221 164.598C289.804 164.598 289.482 164.487 289.254 164.266C289.033 164.038 288.922 163.729 288.922 163.338ZM304.146 177H301.842V170.359C301.842 169.526 301.673 168.904 301.334 168.494C301.002 168.084 300.471 167.879 299.742 167.879C298.772 167.879 298.062 168.165 297.613 168.738C297.164 169.311 296.939 170.271 296.939 171.619V177H294.645V166.199H296.441L296.764 167.615H296.881C297.206 167.101 297.669 166.704 298.268 166.424C298.867 166.144 299.531 166.004 300.26 166.004C302.851 166.004 304.146 167.322 304.146 169.959V177ZM316.461 166.199V167.459L314.615 167.801C314.785 168.029 314.924 168.309 315.035 168.641C315.146 168.973 315.201 169.324 315.201 169.695C315.201 170.809 314.817 171.684 314.049 172.322C313.281 172.96 312.223 173.279 310.875 173.279C310.53 173.279 310.217 173.253 309.938 173.201C309.443 173.507 309.195 173.865 309.195 174.275C309.195 174.523 309.309 174.708 309.537 174.832C309.771 174.956 310.198 175.018 310.816 175.018H312.701C313.893 175.018 314.798 175.271 315.416 175.779C316.035 176.287 316.344 177.02 316.344 177.977C316.344 179.201 315.839 180.145 314.83 180.809C313.821 181.473 312.363 181.805 310.455 181.805C308.984 181.805 307.861 181.544 307.086 181.023C306.311 180.503 305.924 179.76 305.924 178.797C305.924 178.133 306.132 177.573 306.549 177.117C306.972 176.668 307.561 176.355 308.316 176.18C308.01 176.049 307.757 175.841 307.555 175.555C307.359 175.262 307.262 174.956 307.262 174.637C307.262 174.233 307.376 173.891 307.604 173.611C307.831 173.331 308.17 173.055 308.619 172.781C308.059 172.54 307.604 172.15 307.252 171.609C306.907 171.062 306.734 170.424 306.734 169.695C306.734 168.523 307.102 167.615 307.838 166.971C308.58 166.326 309.635 166.004 311.002 166.004C311.308 166.004 311.627 166.027 311.959 166.072C312.298 166.111 312.551 166.154 312.721 166.199H316.461ZM307.975 178.68C307.975 179.174 308.196 179.555 308.639 179.822C309.088 180.089 309.716 180.223 310.523 180.223C311.773 180.223 312.704 180.044 313.316 179.686C313.928 179.327 314.234 178.852 314.234 178.26C314.234 177.791 314.065 177.456 313.727 177.254C313.395 177.059 312.773 176.961 311.861 176.961H310.123C309.465 176.961 308.941 177.114 308.551 177.42C308.167 177.732 307.975 178.152 307.975 178.68ZM308.961 169.695C308.961 170.372 309.133 170.893 309.479 171.258C309.83 171.622 310.331 171.805 310.982 171.805C312.311 171.805 312.975 171.095 312.975 169.676C312.975 168.973 312.809 168.432 312.477 168.055C312.151 167.671 311.653 167.479 310.982 167.479C310.318 167.479 309.814 167.667 309.469 168.045C309.13 168.423 308.961 168.973 308.961 169.695ZM322.496 175.34C323.056 175.34 323.616 175.252 324.176 175.076V176.805C323.922 176.915 323.593 177.007 323.189 177.078C322.792 177.156 322.379 177.195 321.949 177.195C319.775 177.195 318.688 176.049 318.688 173.758V167.938H317.213V166.922L318.795 166.082L319.576 163.797H320.992V166.199H324.068V167.938H320.992V173.719C320.992 174.272 321.129 174.682 321.402 174.949C321.682 175.21 322.047 175.34 322.496 175.34ZM335.924 171.58C335.924 173.344 335.471 174.721 334.566 175.711C333.661 176.701 332.402 177.195 330.787 177.195C329.778 177.195 328.886 176.967 328.111 176.512C327.337 176.056 326.741 175.402 326.324 174.549C325.908 173.696 325.699 172.706 325.699 171.58C325.699 169.829 326.148 168.462 327.047 167.479C327.945 166.495 329.212 166.004 330.846 166.004C332.408 166.004 333.645 166.508 334.557 167.518C335.468 168.52 335.924 169.874 335.924 171.58ZM328.062 171.58C328.062 174.074 328.984 175.32 330.826 175.32C332.649 175.32 333.561 174.074 333.561 171.58C333.561 169.113 332.643 167.879 330.807 167.879C329.843 167.879 329.143 168.198 328.707 168.836C328.277 169.474 328.062 170.389 328.062 171.58ZM348.072 177H345.768V170.359C345.768 169.526 345.598 168.904 345.26 168.494C344.928 168.084 344.397 167.879 343.668 167.879C342.698 167.879 341.988 168.165 341.539 168.738C341.09 169.311 340.865 170.271 340.865 171.619V177H338.57V166.199H340.367L340.689 167.615H340.807C341.132 167.101 341.594 166.704 342.193 166.424C342.792 166.144 343.456 166.004 344.186 166.004C346.777 166.004 348.072 167.322 348.072 169.959V177ZM138.561 196.842C138.561 199.166 137.978 200.973 136.812 202.262C135.654 203.551 134.01 204.195 131.881 204.195C129.726 204.195 128.069 203.557 126.91 202.281C125.758 200.999 125.182 199.179 125.182 196.822C125.182 194.465 125.761 192.656 126.92 191.393C128.085 190.13 129.745 189.498 131.9 189.498C134.023 189.498 135.663 190.139 136.822 191.422C137.981 192.704 138.561 194.511 138.561 196.842ZM127.662 196.842C127.662 198.6 128.017 199.934 128.727 200.846C129.436 201.751 130.488 202.203 131.881 202.203C133.268 202.203 134.312 201.754 135.016 200.855C135.725 199.957 136.08 198.619 136.08 196.842C136.08 195.09 135.729 193.762 135.025 192.857C134.329 191.952 133.287 191.5 131.9 191.5C130.501 191.5 129.443 191.952 128.727 192.857C128.017 193.762 127.662 195.09 127.662 196.842ZM146.803 194.938H144.166V204H141.861V194.938H140.084V193.863L141.861 193.16V192.457C141.861 191.181 142.161 190.237 142.76 189.625C143.359 189.007 144.273 188.697 145.504 188.697C146.311 188.697 147.105 188.831 147.887 189.098L147.281 190.836C146.715 190.654 146.174 190.562 145.66 190.562C145.139 190.562 144.758 190.725 144.518 191.051C144.283 191.37 144.166 191.852 144.166 192.496V193.199H146.803V194.938ZM154.068 194.938H151.432V204H149.127V194.938H147.35V193.863L149.127 193.16V192.457C149.127 191.181 149.426 190.237 150.025 189.625C150.624 189.007 151.539 188.697 152.77 188.697C153.577 188.697 154.371 188.831 155.152 189.098L154.547 190.836C153.98 190.654 153.44 190.562 152.926 190.562C152.405 190.562 152.024 190.725 151.783 191.051C151.549 191.37 151.432 191.852 151.432 192.496V193.199H154.068V194.938ZM158.209 204H155.914V193.199H158.209V204ZM155.777 190.338C155.777 189.928 155.888 189.612 156.109 189.391C156.337 189.169 156.66 189.059 157.076 189.059C157.48 189.059 157.792 189.169 158.014 189.391C158.242 189.612 158.355 189.928 158.355 190.338C158.355 190.729 158.242 191.038 158.014 191.266C157.792 191.487 157.48 191.598 157.076 191.598C156.66 191.598 156.337 191.487 156.109 191.266C155.888 191.038 155.777 190.729 155.777 190.338ZM165.855 204.195C164.221 204.195 162.978 203.72 162.125 202.77C161.279 201.812 160.855 200.442 160.855 198.658C160.855 196.842 161.298 195.445 162.184 194.469C163.076 193.492 164.361 193.004 166.041 193.004C167.18 193.004 168.206 193.215 169.117 193.639L168.424 195.484C167.454 195.107 166.653 194.918 166.021 194.918C164.153 194.918 163.219 196.158 163.219 198.639C163.219 199.85 163.45 200.761 163.912 201.373C164.381 201.979 165.064 202.281 165.963 202.281C166.985 202.281 167.952 202.027 168.863 201.52V203.521C168.453 203.762 168.014 203.935 167.545 204.039C167.083 204.143 166.52 204.195 165.855 204.195ZM176.119 204.195C174.439 204.195 173.124 203.707 172.174 202.73C171.23 201.747 170.758 200.396 170.758 198.678C170.758 196.913 171.197 195.527 172.076 194.518C172.955 193.508 174.163 193.004 175.699 193.004C177.125 193.004 178.251 193.437 179.078 194.303C179.905 195.169 180.318 196.36 180.318 197.877V199.117H173.121C173.154 200.165 173.437 200.973 173.971 201.539C174.505 202.099 175.257 202.379 176.227 202.379C176.865 202.379 177.457 202.32 178.004 202.203C178.557 202.079 179.15 201.878 179.781 201.598V203.463C179.221 203.73 178.655 203.919 178.082 204.029C177.509 204.14 176.855 204.195 176.119 204.195ZM175.699 194.742C174.97 194.742 174.384 194.973 173.941 195.436C173.505 195.898 173.245 196.572 173.16 197.457H178.062C178.049 196.565 177.835 195.891 177.418 195.436C177.001 194.973 176.428 194.742 175.699 194.742ZM184.908 189.938C184.563 191.298 183.99 192.857 183.189 194.615H181.529C181.979 192.734 182.304 191.103 182.506 189.723H184.762L184.908 189.938ZM188.98 189.938C188.635 191.298 188.062 192.857 187.262 194.615H185.582C186.031 192.851 186.367 191.22 186.588 189.723H188.844L188.98 189.938ZM191.998 199.664V199.039C191.998 198.323 192.128 197.727 192.389 197.252C192.649 196.777 193.105 196.285 193.756 195.777C194.531 195.165 195.029 194.69 195.25 194.352C195.478 194.013 195.592 193.609 195.592 193.141C195.592 192.594 195.41 192.174 195.045 191.881C194.68 191.588 194.156 191.441 193.473 191.441C192.854 191.441 192.281 191.529 191.754 191.705C191.227 191.881 190.712 192.092 190.211 192.34L189.391 190.621C190.712 189.885 192.128 189.518 193.639 189.518C194.915 189.518 195.927 189.83 196.676 190.455C197.424 191.08 197.799 191.943 197.799 193.043C197.799 193.531 197.727 193.967 197.584 194.352C197.441 194.729 197.223 195.09 196.93 195.436C196.643 195.781 196.145 196.23 195.436 196.783C194.83 197.258 194.423 197.652 194.215 197.965C194.013 198.277 193.912 198.697 193.912 199.225V199.664H191.998ZM191.598 202.779C191.598 201.796 192.076 201.305 193.033 201.305C193.502 201.305 193.86 201.435 194.107 201.695C194.355 201.949 194.479 202.311 194.479 202.779C194.479 203.242 194.352 203.609 194.098 203.883C193.85 204.15 193.495 204.283 193.033 204.283C192.571 204.283 192.216 204.153 191.969 203.893C191.721 203.626 191.598 203.255 191.598 202.779Z" fill="#424E54"/>
<path d="M129.086 251H127.758V240.758H124.141V239.578H132.703V240.758H129.086V251ZM140.094 251V245.461C140.094 244.763 139.935 244.242 139.617 243.898C139.299 243.555 138.802 243.383 138.125 243.383C137.224 243.383 136.565 243.628 136.148 244.117C135.737 244.607 135.531 245.409 135.531 246.523V251H134.234V238.844H135.531V242.523C135.531 242.966 135.51 243.333 135.469 243.625H135.547C135.802 243.214 136.164 242.891 136.633 242.656C137.107 242.417 137.646 242.297 138.25 242.297C139.297 242.297 140.081 242.547 140.602 243.047C141.128 243.542 141.391 244.331 141.391 245.414V251H140.094ZM145.359 251H144.062V242.438H145.359V251ZM143.953 240.117C143.953 239.82 144.026 239.604 144.172 239.469C144.318 239.328 144.5 239.258 144.719 239.258C144.927 239.258 145.107 239.328 145.258 239.469C145.409 239.609 145.484 239.826 145.484 240.117C145.484 240.409 145.409 240.628 145.258 240.773C145.107 240.914 144.927 240.984 144.719 240.984C144.5 240.984 144.318 240.914 144.172 240.773C144.026 240.628 143.953 240.409 143.953 240.117ZM153.633 248.664C153.633 249.461 153.336 250.076 152.742 250.508C152.148 250.94 151.315 251.156 150.242 251.156C149.107 251.156 148.221 250.977 147.586 250.617V249.414C147.997 249.622 148.438 249.786 148.906 249.906C149.38 250.026 149.836 250.086 150.273 250.086C150.951 250.086 151.471 249.979 151.836 249.766C152.201 249.547 152.383 249.216 152.383 248.773C152.383 248.44 152.237 248.156 151.945 247.922C151.659 247.682 151.096 247.401 150.258 247.078C149.461 246.781 148.893 246.523 148.555 246.305C148.221 246.081 147.971 245.828 147.805 245.547C147.643 245.266 147.562 244.93 147.562 244.539C147.562 243.841 147.846 243.292 148.414 242.891C148.982 242.484 149.76 242.281 150.75 242.281C151.672 242.281 152.573 242.469 153.453 242.844L152.992 243.898C152.133 243.544 151.354 243.367 150.656 243.367C150.042 243.367 149.578 243.464 149.266 243.656C148.953 243.849 148.797 244.115 148.797 244.453C148.797 244.682 148.854 244.878 148.969 245.039C149.089 245.201 149.279 245.354 149.539 245.5C149.799 245.646 150.299 245.857 151.039 246.133C152.055 246.503 152.74 246.875 153.094 247.25C153.453 247.625 153.633 248.096 153.633 248.664ZM163.328 251.156C162.089 251.156 161.128 250.776 160.445 250.016C159.768 249.25 159.43 248.169 159.43 246.773C159.43 245.341 159.773 244.234 160.461 243.453C161.154 242.672 162.138 242.281 163.414 242.281C163.826 242.281 164.237 242.326 164.648 242.414C165.06 242.503 165.383 242.607 165.617 242.727L165.219 243.828C164.932 243.714 164.62 243.62 164.281 243.547C163.943 243.469 163.643 243.43 163.383 243.43C161.643 243.43 160.773 244.539 160.773 246.758C160.773 247.81 160.984 248.617 161.406 249.18C161.833 249.742 162.464 250.023 163.297 250.023C164.01 250.023 164.742 249.87 165.492 249.562V250.711C164.919 251.008 164.198 251.156 163.328 251.156ZM172.797 251L172.539 249.781H172.477C172.049 250.318 171.622 250.682 171.195 250.875C170.773 251.062 170.245 251.156 169.609 251.156C168.76 251.156 168.094 250.938 167.609 250.5C167.13 250.062 166.891 249.44 166.891 248.633C166.891 246.904 168.273 245.997 171.039 245.914L172.492 245.867V245.336C172.492 244.664 172.346 244.169 172.055 243.852C171.768 243.529 171.307 243.367 170.672 243.367C169.958 243.367 169.151 243.586 168.25 244.023L167.852 243.031C168.273 242.802 168.734 242.622 169.234 242.492C169.74 242.362 170.245 242.297 170.75 242.297C171.771 242.297 172.526 242.523 173.016 242.977C173.51 243.43 173.758 244.156 173.758 245.156V251H172.797ZM169.867 250.086C170.674 250.086 171.307 249.865 171.766 249.422C172.229 248.979 172.461 248.359 172.461 247.562V246.789L171.164 246.844C170.133 246.88 169.388 247.042 168.93 247.328C168.477 247.609 168.25 248.049 168.25 248.648C168.25 249.117 168.391 249.474 168.672 249.719C168.958 249.964 169.357 250.086 169.867 250.086ZM182.297 251V245.461C182.297 244.763 182.138 244.242 181.82 243.898C181.503 243.555 181.005 243.383 180.328 243.383C179.432 243.383 178.776 243.625 178.359 244.109C177.943 244.594 177.734 245.393 177.734 246.508V251H176.438V242.438H177.492L177.703 243.609H177.766C178.031 243.188 178.404 242.862 178.883 242.633C179.362 242.398 179.896 242.281 180.484 242.281C181.516 242.281 182.292 242.531 182.812 243.031C183.333 243.526 183.594 244.32 183.594 245.414V251H182.297ZM192.125 251V245.461C192.125 244.763 191.966 244.242 191.648 243.898C191.331 243.555 190.833 243.383 190.156 243.383C189.26 243.383 188.604 243.625 188.188 244.109C187.771 244.594 187.562 245.393 187.562 246.508V251H186.266V242.438H187.32L187.531 243.609H187.594C187.859 243.188 188.232 242.862 188.711 242.633C189.19 242.398 189.724 242.281 190.312 242.281C191.344 242.281 192.12 242.531 192.641 243.031C193.161 243.526 193.422 244.32 193.422 245.414V251H192.125ZM203.484 246.711C203.484 248.107 203.133 249.198 202.43 249.984C201.727 250.766 200.755 251.156 199.516 251.156C198.75 251.156 198.07 250.977 197.477 250.617C196.883 250.258 196.424 249.742 196.102 249.07C195.779 248.398 195.617 247.612 195.617 246.711C195.617 245.315 195.966 244.229 196.664 243.453C197.362 242.672 198.331 242.281 199.57 242.281C200.768 242.281 201.719 242.68 202.422 243.477C203.13 244.273 203.484 245.352 203.484 246.711ZM196.961 246.711C196.961 247.805 197.18 248.638 197.617 249.211C198.055 249.784 198.698 250.07 199.547 250.07C200.396 250.07 201.039 249.786 201.477 249.219C201.919 248.646 202.141 247.81 202.141 246.711C202.141 245.622 201.919 244.797 201.477 244.234C201.039 243.667 200.391 243.383 199.531 243.383C198.682 243.383 198.042 243.661 197.609 244.219C197.177 244.776 196.961 245.607 196.961 246.711ZM208.531 250.086C208.76 250.086 208.982 250.07 209.195 250.039C209.409 250.003 209.578 249.966 209.703 249.93V250.922C209.562 250.99 209.354 251.044 209.078 251.086C208.807 251.133 208.562 251.156 208.344 251.156C206.688 251.156 205.859 250.284 205.859 248.539V243.445H204.633V242.82L205.859 242.281L206.406 240.453H207.156V242.438H209.641V243.445H207.156V248.484C207.156 249 207.279 249.396 207.523 249.672C207.768 249.948 208.104 250.086 208.531 250.086ZM219.562 242.297C220.688 242.297 221.56 242.682 222.18 243.453C222.805 244.219 223.117 245.305 223.117 246.711C223.117 248.117 222.802 249.211 222.172 249.992C221.547 250.768 220.677 251.156 219.562 251.156C219.005 251.156 218.495 251.055 218.031 250.852C217.573 250.643 217.188 250.326 216.875 249.898H216.781L216.508 251H215.578V238.844H216.875V241.797C216.875 242.458 216.854 243.052 216.812 243.578H216.875C217.479 242.724 218.375 242.297 219.562 242.297ZM219.375 243.383C218.49 243.383 217.852 243.638 217.461 244.148C217.07 244.654 216.875 245.508 216.875 246.711C216.875 247.914 217.076 248.776 217.477 249.297C217.878 249.812 218.521 250.07 219.406 250.07C220.203 250.07 220.797 249.781 221.188 249.203C221.578 248.62 221.773 247.784 221.773 246.695C221.773 245.581 221.578 244.75 221.188 244.203C220.797 243.656 220.193 243.383 219.375 243.383ZM229.008 251.156C227.742 251.156 226.742 250.771 226.008 250C225.279 249.229 224.914 248.159 224.914 246.789C224.914 245.409 225.253 244.312 225.93 243.5C226.612 242.688 227.526 242.281 228.672 242.281C229.745 242.281 230.594 242.635 231.219 243.344C231.844 244.047 232.156 244.977 232.156 246.133V246.953H226.258C226.284 247.958 226.536 248.721 227.016 249.242C227.5 249.763 228.18 250.023 229.055 250.023C229.977 250.023 230.888 249.831 231.789 249.445V250.602C231.331 250.799 230.896 250.94 230.484 251.023C230.078 251.112 229.586 251.156 229.008 251.156ZM228.656 243.367C227.969 243.367 227.419 243.591 227.008 244.039C226.602 244.487 226.362 245.107 226.289 245.898H230.766C230.766 245.081 230.583 244.456 230.219 244.023C229.854 243.586 229.333 243.367 228.656 243.367ZM239.75 242.438V247.992C239.75 248.69 239.909 249.211 240.227 249.555C240.544 249.898 241.042 250.07 241.719 250.07C242.615 250.07 243.268 249.826 243.68 249.336C244.096 248.846 244.305 248.047 244.305 246.938V242.438H245.602V251H244.531L244.344 249.852H244.273C244.008 250.273 243.638 250.596 243.164 250.82C242.695 251.044 242.159 251.156 241.555 251.156C240.513 251.156 239.732 250.909 239.211 250.414C238.695 249.919 238.438 249.128 238.438 248.039V242.438H239.75ZM254.219 251V245.461C254.219 244.763 254.06 244.242 253.742 243.898C253.424 243.555 252.927 243.383 252.25 243.383C251.354 243.383 250.698 243.625 250.281 244.109C249.865 244.594 249.656 245.393 249.656 246.508V251H248.359V242.438H249.414L249.625 243.609H249.688C249.953 243.188 250.326 242.862 250.805 242.633C251.284 242.398 251.818 242.281 252.406 242.281C253.438 242.281 254.214 242.531 254.734 243.031C255.255 243.526 255.516 244.32 255.516 245.414V251H254.219ZM264.016 249.852H263.945C263.346 250.721 262.451 251.156 261.258 251.156C260.138 251.156 259.266 250.773 258.641 250.008C258.021 249.242 257.711 248.154 257.711 246.742C257.711 245.331 258.023 244.234 258.648 243.453C259.273 242.672 260.143 242.281 261.258 242.281C262.419 242.281 263.31 242.703 263.93 243.547H264.031L263.977 242.93L263.945 242.328V238.844H265.242V251H264.188L264.016 249.852ZM261.422 250.07C262.307 250.07 262.948 249.831 263.344 249.352C263.745 248.867 263.945 248.089 263.945 247.016V246.742C263.945 245.529 263.742 244.664 263.336 244.148C262.935 243.628 262.292 243.367 261.406 243.367C260.646 243.367 260.062 243.664 259.656 244.258C259.255 244.846 259.055 245.68 259.055 246.758C259.055 247.852 259.255 248.677 259.656 249.234C260.057 249.792 260.646 250.07 261.422 250.07ZM275.391 246.711C275.391 248.107 275.039 249.198 274.336 249.984C273.633 250.766 272.661 251.156 271.422 251.156C270.656 251.156 269.977 250.977 269.383 250.617C268.789 250.258 268.331 249.742 268.008 249.07C267.685 248.398 267.523 247.612 267.523 246.711C267.523 245.315 267.872 244.229 268.57 243.453C269.268 242.672 270.237 242.281 271.477 242.281C272.674 242.281 273.625 242.68 274.328 243.477C275.036 244.273 275.391 245.352 275.391 246.711ZM268.867 246.711C268.867 247.805 269.086 248.638 269.523 249.211C269.961 249.784 270.604 250.07 271.453 250.07C272.302 250.07 272.945 249.786 273.383 249.219C273.826 248.646 274.047 247.81 274.047 246.711C274.047 245.622 273.826 244.797 273.383 244.234C272.945 243.667 272.297 243.383 271.438 243.383C270.589 243.383 269.948 243.661 269.516 244.219C269.083 244.776 268.867 245.607 268.867 246.711ZM283.531 251V245.461C283.531 244.763 283.372 244.242 283.055 243.898C282.737 243.555 282.24 243.383 281.562 243.383C280.667 243.383 280.01 243.625 279.594 244.109C279.177 244.594 278.969 245.393 278.969 246.508V251H277.672V242.438H278.727L278.938 243.609H279C279.266 243.188 279.638 242.862 280.117 242.633C280.596 242.398 281.13 242.281 281.719 242.281C282.75 242.281 283.526 242.531 284.047 243.031C284.568 243.526 284.828 244.32 284.828 245.414V251H283.531ZM291.117 251.156C289.852 251.156 288.852 250.771 288.117 250C287.388 249.229 287.023 248.159 287.023 246.789C287.023 245.409 287.362 244.312 288.039 243.5C288.721 242.688 289.635 242.281 290.781 242.281C291.854 242.281 292.703 242.635 293.328 243.344C293.953 244.047 294.266 244.977 294.266 246.133V246.953H288.367C288.393 247.958 288.646 248.721 289.125 249.242C289.609 249.763 290.289 250.023 291.164 250.023C292.086 250.023 292.997 249.831 293.898 249.445V250.602C293.44 250.799 293.005 250.94 292.594 251.023C292.188 251.112 291.695 251.156 291.117 251.156ZM290.766 243.367C290.078 243.367 289.529 243.591 289.117 244.039C288.711 244.487 288.471 245.107 288.398 245.898H292.875C292.875 245.081 292.693 244.456 292.328 244.023C291.964 243.586 291.443 243.367 290.766 243.367ZM296.297 250.172C296.297 249.823 296.375 249.56 296.531 249.383C296.693 249.201 296.922 249.109 297.219 249.109C297.521 249.109 297.755 249.201 297.922 249.383C298.094 249.56 298.18 249.823 298.18 250.172C298.18 250.51 298.094 250.771 297.922 250.953C297.75 251.135 297.516 251.227 297.219 251.227C296.953 251.227 296.732 251.146 296.555 250.984C296.383 250.818 296.297 250.547 296.297 250.172Z" fill="#424E54"/>
<path d="M210.189 306.407C210.189 308.057 209.731 309.319 208.815 310.194C207.899 311.065 206.58 311.5 204.857 311.5H202.062V301.506H205.151C206.742 301.506 207.979 301.934 208.863 302.791C209.747 303.648 210.189 304.853 210.189 306.407ZM208.467 306.462C208.467 304.069 207.348 302.873 205.11 302.873H203.695V310.126H204.857C207.264 310.126 208.467 308.905 208.467 306.462ZM215.474 311.637C214.298 311.637 213.377 311.295 212.712 310.611C212.051 309.923 211.721 308.978 211.721 307.774C211.721 306.539 212.028 305.569 212.644 304.862C213.259 304.156 214.104 303.803 215.18 303.803C216.178 303.803 216.966 304.106 217.545 304.712C218.124 305.318 218.413 306.152 218.413 307.214V308.082H213.375C213.398 308.816 213.596 309.381 213.97 309.777C214.343 310.169 214.87 310.365 215.549 310.365C215.995 310.365 216.41 310.324 216.793 310.242C217.18 310.156 217.595 310.014 218.037 309.818V311.124C217.645 311.311 217.249 311.443 216.848 311.521C216.447 311.598 215.989 311.637 215.474 311.637ZM215.18 305.02C214.669 305.02 214.259 305.181 213.949 305.505C213.644 305.828 213.462 306.3 213.402 306.92H216.834C216.825 306.296 216.674 305.824 216.383 305.505C216.091 305.181 215.69 305.02 215.18 305.02ZM221.845 311.5H220.238V300.863H221.845V311.5ZM227.45 311.637C226.274 311.637 225.354 311.295 224.688 310.611C224.028 309.923 223.697 308.978 223.697 307.774C223.697 306.539 224.005 305.569 224.62 304.862C225.235 304.156 226.081 303.803 227.156 303.803C228.154 303.803 228.943 304.106 229.521 304.712C230.1 305.318 230.39 306.152 230.39 307.214V308.082H225.352C225.374 308.816 225.573 309.381 225.946 309.777C226.32 310.169 226.846 310.365 227.525 310.365C227.972 310.365 228.387 310.324 228.77 310.242C229.157 310.156 229.572 310.014 230.014 309.818V311.124C229.622 311.311 229.225 311.443 228.824 311.521C228.423 311.598 227.965 311.637 227.45 311.637ZM227.156 305.02C226.646 305.02 226.236 305.181 225.926 305.505C225.62 305.828 225.438 306.3 225.379 306.92H228.811C228.801 306.296 228.651 305.824 228.359 305.505C228.068 305.181 227.667 305.02 227.156 305.02ZM235.031 310.338C235.423 310.338 235.815 310.276 236.207 310.153V311.363C236.029 311.441 235.799 311.505 235.517 311.555C235.239 311.609 234.949 311.637 234.648 311.637C233.126 311.637 232.365 310.835 232.365 309.23V305.156H231.333V304.445L232.44 303.857L232.987 302.258H233.979V303.939H236.132V305.156H233.979V309.203C233.979 309.59 234.074 309.878 234.266 310.064C234.462 310.247 234.717 310.338 235.031 310.338ZM241.026 311.637C239.851 311.637 238.93 311.295 238.265 310.611C237.604 309.923 237.273 308.978 237.273 307.774C237.273 306.539 237.581 305.569 238.196 304.862C238.812 304.156 239.657 303.803 240.732 303.803C241.73 303.803 242.519 304.106 243.098 304.712C243.676 305.318 243.966 306.152 243.966 307.214V308.082H238.928C238.951 308.816 239.149 309.381 239.522 309.777C239.896 310.169 240.423 310.365 241.102 310.365C241.548 310.365 241.963 310.324 242.346 310.242C242.733 310.156 243.148 310.014 243.59 309.818V311.124C243.198 311.311 242.801 311.443 242.4 311.521C241.999 311.598 241.541 311.637 241.026 311.637ZM240.732 305.02C240.222 305.02 239.812 305.181 239.502 305.505C239.197 305.828 239.014 306.3 238.955 306.92H242.387C242.378 306.296 242.227 305.824 241.936 305.505C241.644 305.181 241.243 305.02 240.732 305.02ZM251.219 311.5H249.599V301.506H255.238V302.887H251.219V306.011H254.985V307.398H251.219V311.5ZM263.585 307.706C263.585 308.941 263.268 309.905 262.635 310.598C262.001 311.29 261.119 311.637 259.989 311.637C259.283 311.637 258.659 311.477 258.116 311.158C257.574 310.839 257.157 310.381 256.865 309.784C256.574 309.187 256.428 308.494 256.428 307.706C256.428 306.48 256.742 305.523 257.371 304.835C258 304.147 258.886 303.803 260.03 303.803C261.124 303.803 261.99 304.156 262.628 304.862C263.266 305.564 263.585 306.512 263.585 307.706ZM258.082 307.706C258.082 309.451 258.727 310.324 260.017 310.324C261.293 310.324 261.931 309.451 261.931 307.706C261.931 305.979 261.288 305.115 260.003 305.115C259.328 305.115 258.839 305.339 258.533 305.785C258.232 306.232 258.082 306.872 258.082 307.706ZM269.272 303.803C269.596 303.803 269.863 303.826 270.072 303.871L269.915 305.368C269.687 305.313 269.45 305.286 269.204 305.286C268.562 305.286 268.04 305.496 267.639 305.915C267.242 306.334 267.044 306.879 267.044 307.549V311.5H265.438V303.939H266.695L266.907 305.272H266.989C267.24 304.821 267.566 304.464 267.967 304.199C268.372 303.935 268.808 303.803 269.272 303.803ZM274.782 311.637C273.606 311.637 272.686 311.295 272.021 310.611C271.36 309.923 271.029 308.978 271.029 307.774C271.029 306.539 271.337 305.569 271.952 304.862C272.567 304.156 273.413 303.803 274.488 303.803C275.486 303.803 276.275 304.106 276.854 304.712C277.432 305.318 277.722 306.152 277.722 307.214V308.082H272.684C272.706 308.816 272.905 309.381 273.278 309.777C273.652 310.169 274.178 310.365 274.857 310.365C275.304 310.365 275.719 310.324 276.102 310.242C276.489 310.156 276.904 310.014 277.346 309.818V311.124C276.954 311.311 276.557 311.443 276.156 311.521C275.755 311.598 275.297 311.637 274.782 311.637ZM274.488 305.02C273.978 305.02 273.568 305.181 273.258 305.505C272.952 305.828 272.77 306.3 272.711 306.92H276.143C276.133 306.296 275.983 305.824 275.691 305.505C275.4 305.181 274.999 305.02 274.488 305.02ZM281.27 311.5L278.398 303.939H280.094L281.632 308.335C281.896 309.073 282.056 309.67 282.11 310.126H282.165C282.206 309.798 282.366 309.201 282.644 308.335L284.182 303.939H285.891L283.006 311.5H281.27ZM290.341 311.637C289.165 311.637 288.244 311.295 287.579 310.611C286.918 309.923 286.588 308.978 286.588 307.774C286.588 306.539 286.896 305.569 287.511 304.862C288.126 304.156 288.971 303.803 290.047 303.803C291.045 303.803 291.833 304.106 292.412 304.712C292.991 305.318 293.28 306.152 293.28 307.214V308.082H288.242C288.265 308.816 288.463 309.381 288.837 309.777C289.211 310.169 289.737 310.365 290.416 310.365C290.863 310.365 291.277 310.324 291.66 310.242C292.048 310.156 292.462 310.014 292.904 309.818V311.124C292.512 311.311 292.116 311.443 291.715 311.521C291.314 311.598 290.856 311.637 290.341 311.637ZM290.047 305.02C289.536 305.02 289.126 305.181 288.816 305.505C288.511 305.828 288.329 306.3 288.27 306.92H291.701C291.692 306.296 291.542 305.824 291.25 305.505C290.958 305.181 290.557 305.02 290.047 305.02ZM298.94 303.803C299.264 303.803 299.531 303.826 299.74 303.871L299.583 305.368C299.355 305.313 299.118 305.286 298.872 305.286C298.229 305.286 297.708 305.496 297.307 305.915C296.91 306.334 296.712 306.879 296.712 307.549V311.5H295.105V303.939H296.363L296.575 305.272H296.657C296.908 304.821 297.234 304.464 297.635 304.199C298.04 303.935 298.476 303.803 298.94 303.803Z" fill="#CA3C3D"/>
<rect x="116.5" y="288.5" width="267" height="35" rx="3.5" stroke="#CA3C3D"/>
<path d="M233.071 350.764C232.132 350.764 231.394 351.096 230.856 351.762C230.319 352.427 230.05 353.345 230.05 354.517C230.05 355.743 230.307 356.67 230.822 357.299C231.342 357.928 232.091 358.242 233.071 358.242C233.495 358.242 233.905 358.201 234.302 358.119C234.698 358.033 235.111 357.923 235.539 357.791V359.192C234.755 359.489 233.867 359.637 232.873 359.637C231.41 359.637 230.287 359.195 229.503 358.311C228.719 357.422 228.327 356.153 228.327 354.503C228.327 353.464 228.516 352.555 228.895 351.775C229.277 350.996 229.829 350.399 230.549 349.984C231.269 349.57 232.114 349.362 233.085 349.362C234.106 349.362 235.049 349.576 235.915 350.005L235.327 351.365C234.99 351.206 234.632 351.067 234.254 350.948C233.88 350.825 233.486 350.764 233.071 350.764ZM242.252 359.5L241.931 358.447H241.876C241.511 358.908 241.145 359.222 240.775 359.391C240.406 359.555 239.932 359.637 239.354 359.637C238.611 359.637 238.03 359.436 237.61 359.035C237.196 358.634 236.988 358.067 236.988 357.333C236.988 356.554 237.278 355.966 237.856 355.569C238.435 355.173 239.317 354.956 240.502 354.92L241.808 354.879V354.476C241.808 353.993 241.694 353.632 241.466 353.396C241.243 353.154 240.894 353.033 240.42 353.033C240.033 353.033 239.661 353.09 239.306 353.204C238.95 353.318 238.608 353.452 238.28 353.607L237.761 352.459C238.171 352.245 238.62 352.083 239.107 351.974C239.595 351.86 240.055 351.803 240.488 351.803C241.45 351.803 242.174 352.012 242.662 352.432C243.154 352.851 243.4 353.509 243.4 354.407V359.5H242.252ZM239.859 358.406C240.443 358.406 240.91 358.244 241.261 357.921C241.616 357.593 241.794 357.135 241.794 356.547V355.891L240.823 355.932C240.067 355.959 239.515 356.087 239.169 356.314C238.827 356.538 238.656 356.882 238.656 357.347C238.656 357.684 238.757 357.946 238.957 358.133C239.158 358.315 239.458 358.406 239.859 358.406ZM252.294 359.5H250.681V354.852C250.681 354.268 250.562 353.833 250.325 353.546C250.093 353.259 249.721 353.115 249.211 353.115C248.532 353.115 248.035 353.316 247.721 353.717C247.406 354.118 247.249 354.79 247.249 355.733V359.5H245.643V351.939H246.9L247.126 352.931H247.208C247.436 352.571 247.759 352.293 248.179 352.097C248.598 351.901 249.063 351.803 249.573 351.803C251.387 351.803 252.294 352.726 252.294 354.571V359.5ZM257.578 359.637C256.434 359.637 255.564 359.304 254.967 358.639C254.374 357.969 254.078 357.009 254.078 355.761C254.078 354.489 254.388 353.512 255.008 352.828C255.632 352.145 256.532 351.803 257.708 351.803C258.506 351.803 259.223 351.951 259.861 352.247L259.376 353.539C258.697 353.275 258.136 353.143 257.694 353.143C256.386 353.143 255.732 354.011 255.732 355.747C255.732 356.595 255.894 357.233 256.218 357.661C256.546 358.085 257.024 358.297 257.653 358.297C258.369 358.297 259.046 358.119 259.684 357.764V359.165C259.396 359.334 259.089 359.454 258.761 359.527C258.437 359.6 258.043 359.637 257.578 359.637ZM264.763 359.637C263.587 359.637 262.666 359.295 262.001 358.611C261.34 357.923 261.01 356.978 261.01 355.774C261.01 354.539 261.317 353.569 261.933 352.862C262.548 352.156 263.393 351.803 264.469 351.803C265.467 351.803 266.255 352.106 266.834 352.712C267.413 353.318 267.702 354.152 267.702 355.214V356.082H262.664C262.687 356.816 262.885 357.381 263.259 357.777C263.632 358.169 264.159 358.365 264.838 358.365C265.285 358.365 265.699 358.324 266.082 358.242C266.469 358.156 266.884 358.014 267.326 357.818V359.124C266.934 359.311 266.538 359.443 266.137 359.521C265.736 359.598 265.278 359.637 264.763 359.637ZM264.469 353.02C263.958 353.02 263.548 353.181 263.238 353.505C262.933 353.828 262.751 354.3 262.691 354.92H266.123C266.114 354.296 265.964 353.824 265.672 353.505C265.38 353.181 264.979 353.02 264.469 353.02ZM271.134 359.5H269.527V348.863H271.134V359.5Z" fill="#007BC1"/>
<rect x="116.5" y="336.5" width="267" height="35" rx="3.5" stroke="#007BC1"/>
</g>
</g>
<defs>
<filter id="filter0_ddd_5174_239593" x="74" y="92" width="352" height="327" filterUnits="userSpaceOnUse" color-interpolation-filters="sRGB">
<feFlood flood-opacity="0" result="BackgroundImageFix"/>
<feColorMatrix in="SourceAlpha" type="matrix" values="0 0 0 0 0 0 0 0 0 0 0 0 0 0 0 0 0 0 127 0" result="hardAlpha"/>
<feMorphology radius="4" operator="dilate" in="SourceAlpha" result="effect1_dropShadow_5174_239593"/>
<feOffset dy="5"/>
<feGaussianBlur stdDeviation="11"/>
<feColorMatrix type="matrix" values="0 0 0 0 0 0 0 0 0 0 0 0 0 0 0 0 0 0 0.12 0"/>
<feBlend mode="normal" in2="BackgroundImageFix" result="effect1_dropShadow_5174_239593"/>
<feColorMatrix in="SourceAlpha" type="matrix" values="0 0 0 0 0 0 0 0 0 0 0 0 0 0 0 0 0 0 127 0" result="hardAlpha"/>
<feMorphology radius="2" operator="dilate" in="SourceAlpha" result="effect2_dropShadow_5174_239593"/>
<feOffset dy="12"/>
<feGaussianBlur stdDeviation="8.5"/>
<feColorMatrix type="matrix" values="0 0 0 0 0.258824 0 0 0 0 0.305882 0 0 0 0 0.329412 0 0 0 0.14 0"/>
<feBlend mode="normal" in2="effect1_dropShadow_5174_239593" result="effect2_dropShadow_5174_239593"/>
<feColorMatrix in="SourceAlpha" type="matrix" values="0 0 0 0 0 0 0 0 0 0 0 0 0 0 0 0 0 0 127 0" result="hardAlpha"/>
<feMorphology radius="4" operator="erode" in="SourceAlpha" result="effect3_dropShadow_5174_239593"/>
<feOffset dy="7"/>
<feGaussianBlur stdDeviation="4"/>
<feColorMatrix type="matrix" values="0 0 0 0 0 0 0 0 0 0 0 0 0 0 0 0 0 0 0.2 0"/>
<feBlend mode="normal" in2="effect2_dropShadow_5174_239593" result="effect3_dropShadow_5174_239593"/>
<feBlend mode="normal" in="SourceGraphic" in2="effect3_dropShadow_5174_239593" result="shape"/>
</filter>
<clipPath id="clip0_5174_239593">
<rect x="100" y="113" width="300" height="275" rx="4" fill="white"/>
</clipPath>
</defs>
</svg>
