<svg width="500" height="500" viewBox="0 0 500 500" fill="none" xmlns="http://www.w3.org/2000/svg">
<rect width="500" height="500" fill="#E2E5E5"/>
<g filter="url(#filter0_ddd_5174_239735)">
<g clip-path="url(#clip0_5174_239735)">
<rect x="100" y="146" width="300" height="209" rx="4" fill="white"/>
<path d="M134.742 183L133.316 179.035H127.857L126.461 183H124L129.342 168.664H131.881L137.223 183H134.742ZM132.701 177.023L131.363 173.137C131.266 172.876 131.129 172.466 130.953 171.906C130.784 171.346 130.667 170.936 130.602 170.676C130.426 171.477 130.169 172.352 129.83 173.303L128.541 177.023H132.701ZM141.158 183H138.863V167.805H141.158V183ZM149.166 183.195C147.486 183.195 146.171 182.707 145.221 181.73C144.277 180.747 143.805 179.396 143.805 177.678C143.805 175.913 144.244 174.527 145.123 173.518C146.002 172.508 147.21 172.004 148.746 172.004C150.172 172.004 151.298 172.437 152.125 173.303C152.952 174.169 153.365 175.36 153.365 176.877V178.117H146.168C146.201 179.165 146.484 179.973 147.018 180.539C147.551 181.099 148.303 181.379 149.273 181.379C149.911 181.379 150.504 181.32 151.051 181.203C151.604 181.079 152.197 180.878 152.828 180.598V182.463C152.268 182.73 151.702 182.919 151.129 183.029C150.556 183.14 149.902 183.195 149.166 183.195ZM148.746 173.742C148.017 173.742 147.431 173.973 146.988 174.436C146.552 174.898 146.292 175.572 146.207 176.457H151.109C151.096 175.565 150.882 174.891 150.465 174.436C150.048 173.973 149.475 173.742 148.746 173.742ZM161.451 172.004C161.913 172.004 162.294 172.036 162.594 172.102L162.369 174.24C162.044 174.162 161.705 174.123 161.354 174.123C160.436 174.123 159.69 174.423 159.117 175.021C158.551 175.62 158.268 176.398 158.268 177.355V183H155.973V172.199H157.77L158.072 174.104H158.189C158.548 173.459 159.013 172.948 159.586 172.57C160.165 172.193 160.787 172.004 161.451 172.004ZM168.629 181.34C169.189 181.34 169.749 181.252 170.309 181.076V182.805C170.055 182.915 169.726 183.007 169.322 183.078C168.925 183.156 168.512 183.195 168.082 183.195C165.908 183.195 164.82 182.049 164.82 179.758V173.938H163.346V172.922L164.928 172.082L165.709 169.797H167.125V172.199H170.201V173.938H167.125V179.719C167.125 180.272 167.262 180.682 167.535 180.949C167.815 181.21 168.18 181.34 168.629 181.34Z" fill="#424E54"/>
<path d="M129.086 230H127.758V219.758H124.141V218.578H132.703V219.758H129.086V230ZM140.094 230V224.461C140.094 223.763 139.935 223.242 139.617 222.898C139.299 222.555 138.802 222.383 138.125 222.383C137.224 222.383 136.565 222.628 136.148 223.117C135.737 223.607 135.531 224.409 135.531 225.523V230H134.234V217.844H135.531V221.523C135.531 221.966 135.51 222.333 135.469 222.625H135.547C135.802 222.214 136.164 221.891 136.633 221.656C137.107 221.417 137.646 221.297 138.25 221.297C139.297 221.297 140.081 221.547 140.602 222.047C141.128 222.542 141.391 223.331 141.391 224.414V230H140.094ZM147.68 230.156C146.414 230.156 145.414 229.771 144.68 229C143.951 228.229 143.586 227.159 143.586 225.789C143.586 224.409 143.924 223.312 144.602 222.5C145.284 221.688 146.198 221.281 147.344 221.281C148.417 221.281 149.266 221.635 149.891 222.344C150.516 223.047 150.828 223.977 150.828 225.133V225.953H144.93C144.956 226.958 145.208 227.721 145.688 228.242C146.172 228.763 146.852 229.023 147.727 229.023C148.648 229.023 149.56 228.831 150.461 228.445V229.602C150.003 229.799 149.568 229.94 149.156 230.023C148.75 230.112 148.258 230.156 147.68 230.156ZM147.328 222.367C146.641 222.367 146.091 222.591 145.68 223.039C145.273 223.487 145.034 224.107 144.961 224.898H149.438C149.438 224.081 149.255 223.456 148.891 223.023C148.526 222.586 148.005 222.367 147.328 222.367ZM163.031 228.852H162.961C162.362 229.721 161.466 230.156 160.273 230.156C159.154 230.156 158.281 229.773 157.656 229.008C157.036 228.242 156.727 227.154 156.727 225.742C156.727 224.331 157.039 223.234 157.664 222.453C158.289 221.672 159.159 221.281 160.273 221.281C161.435 221.281 162.326 221.703 162.945 222.547H163.047L162.992 221.93L162.961 221.328V217.844H164.258V230H163.203L163.031 228.852ZM160.438 229.07C161.323 229.07 161.964 228.831 162.359 228.352C162.76 227.867 162.961 227.089 162.961 226.016V225.742C162.961 224.529 162.758 223.664 162.352 223.148C161.951 222.628 161.307 222.367 160.422 222.367C159.661 222.367 159.078 222.664 158.672 223.258C158.271 223.846 158.07 224.68 158.07 225.758C158.07 226.852 158.271 227.677 158.672 228.234C159.073 228.792 159.661 229.07 160.438 229.07ZM172.281 230L172.023 228.781H171.961C171.534 229.318 171.107 229.682 170.68 229.875C170.258 230.062 169.729 230.156 169.094 230.156C168.245 230.156 167.578 229.938 167.094 229.5C166.615 229.062 166.375 228.44 166.375 227.633C166.375 225.904 167.758 224.997 170.523 224.914L171.977 224.867V224.336C171.977 223.664 171.831 223.169 171.539 222.852C171.253 222.529 170.792 222.367 170.156 222.367C169.443 222.367 168.635 222.586 167.734 223.023L167.336 222.031C167.758 221.802 168.219 221.622 168.719 221.492C169.224 221.362 169.729 221.297 170.234 221.297C171.255 221.297 172.01 221.523 172.5 221.977C172.995 222.43 173.242 223.156 173.242 224.156V230H172.281ZM169.352 229.086C170.159 229.086 170.792 228.865 171.25 228.422C171.714 227.979 171.945 227.359 171.945 226.562V225.789L170.648 225.844C169.617 225.88 168.872 226.042 168.414 226.328C167.961 226.609 167.734 227.049 167.734 227.648C167.734 228.117 167.875 228.474 168.156 228.719C168.443 228.964 168.841 229.086 169.352 229.086ZM178.688 229.086C178.917 229.086 179.138 229.07 179.352 229.039C179.565 229.003 179.734 228.966 179.859 228.93V229.922C179.719 229.99 179.51 230.044 179.234 230.086C178.964 230.133 178.719 230.156 178.5 230.156C176.844 230.156 176.016 229.284 176.016 227.539V222.445H174.789V221.82L176.016 221.281L176.562 219.453H177.312V221.438H179.797V222.445H177.312V227.484C177.312 228 177.435 228.396 177.68 228.672C177.924 228.948 178.26 229.086 178.688 229.086ZM186.844 230L186.586 228.781H186.523C186.096 229.318 185.669 229.682 185.242 229.875C184.82 230.062 184.292 230.156 183.656 230.156C182.807 230.156 182.141 229.938 181.656 229.5C181.177 229.062 180.938 228.44 180.938 227.633C180.938 225.904 182.32 224.997 185.086 224.914L186.539 224.867V224.336C186.539 223.664 186.393 223.169 186.102 222.852C185.815 222.529 185.354 222.367 184.719 222.367C184.005 222.367 183.198 222.586 182.297 223.023L181.898 222.031C182.32 221.802 182.781 221.622 183.281 221.492C183.786 221.362 184.292 221.297 184.797 221.297C185.818 221.297 186.573 221.523 187.062 221.977C187.557 222.43 187.805 223.156 187.805 224.156V230H186.844ZM183.914 229.086C184.721 229.086 185.354 228.865 185.812 228.422C186.276 227.979 186.508 227.359 186.508 226.562V225.789L185.211 225.844C184.18 225.88 183.435 226.042 182.977 226.328C182.523 226.609 182.297 227.049 182.297 227.648C182.297 228.117 182.438 228.474 182.719 228.719C183.005 228.964 183.404 229.086 183.914 229.086ZM201.633 230L200.062 224.977C199.964 224.669 199.779 223.971 199.508 222.883H199.445C199.237 223.794 199.055 224.497 198.898 224.992L197.281 230H195.781L193.445 221.438H194.805C195.357 223.589 195.776 225.227 196.062 226.352C196.354 227.477 196.521 228.234 196.562 228.625H196.625C196.682 228.328 196.773 227.945 196.898 227.477C197.029 227.003 197.141 226.628 197.234 226.352L198.805 221.438H200.211L201.742 226.352C202.034 227.247 202.232 228 202.336 228.609H202.398C202.419 228.422 202.474 228.133 202.562 227.742C202.656 227.352 203.201 225.25 204.195 221.438H205.539L203.172 230H201.633ZM208.391 230H207.094V221.438H208.391V230ZM206.984 219.117C206.984 218.82 207.057 218.604 207.203 218.469C207.349 218.328 207.531 218.258 207.75 218.258C207.958 218.258 208.138 218.328 208.289 218.469C208.44 218.609 208.516 218.826 208.516 219.117C208.516 219.409 208.44 219.628 208.289 219.773C208.138 219.914 207.958 219.984 207.75 219.984C207.531 219.984 207.349 219.914 207.203 219.773C207.057 219.628 206.984 219.409 206.984 219.117ZM212.438 230H211.141V217.844H212.438V230ZM216.484 230H215.188V217.844H216.484V230ZM227.375 221.297C228.5 221.297 229.372 221.682 229.992 222.453C230.617 223.219 230.93 224.305 230.93 225.711C230.93 227.117 230.615 228.211 229.984 228.992C229.359 229.768 228.49 230.156 227.375 230.156C226.818 230.156 226.307 230.055 225.844 229.852C225.385 229.643 225 229.326 224.688 228.898H224.594L224.32 230H223.391V217.844H224.688V220.797C224.688 221.458 224.667 222.052 224.625 222.578H224.688C225.292 221.724 226.188 221.297 227.375 221.297ZM227.188 222.383C226.302 222.383 225.664 222.638 225.273 223.148C224.883 223.654 224.688 224.508 224.688 225.711C224.688 226.914 224.888 227.776 225.289 228.297C225.69 228.812 226.333 229.07 227.219 229.07C228.016 229.07 228.609 228.781 229 228.203C229.391 227.62 229.586 226.784 229.586 225.695C229.586 224.581 229.391 223.75 229 223.203C228.609 222.656 228.005 222.383 227.188 222.383ZM236.82 230.156C235.555 230.156 234.555 229.771 233.82 229C233.091 228.229 232.727 227.159 232.727 225.789C232.727 224.409 233.065 223.312 233.742 222.5C234.424 221.688 235.339 221.281 236.484 221.281C237.557 221.281 238.406 221.635 239.031 222.344C239.656 223.047 239.969 223.977 239.969 225.133V225.953H234.07C234.096 226.958 234.349 227.721 234.828 228.242C235.312 228.763 235.992 229.023 236.867 229.023C237.789 229.023 238.701 228.831 239.602 228.445V229.602C239.143 229.799 238.708 229.94 238.297 230.023C237.891 230.112 237.398 230.156 236.82 230.156ZM236.469 222.367C235.781 222.367 235.232 222.591 234.82 223.039C234.414 223.487 234.174 224.107 234.102 224.898H238.578C238.578 224.081 238.396 223.456 238.031 223.023C237.667 222.586 237.146 222.367 236.469 222.367ZM250.328 230.156C249.771 230.156 249.26 230.055 248.797 229.852C248.339 229.643 247.953 229.326 247.641 228.898H247.547C247.609 229.398 247.641 229.872 247.641 230.32V233.844H246.344V221.438H247.398L247.578 222.609H247.641C247.974 222.141 248.362 221.802 248.805 221.594C249.247 221.385 249.755 221.281 250.328 221.281C251.464 221.281 252.339 221.669 252.953 222.445C253.573 223.221 253.883 224.31 253.883 225.711C253.883 227.117 253.568 228.211 252.938 228.992C252.312 229.768 251.443 230.156 250.328 230.156ZM250.141 222.383C249.266 222.383 248.633 222.625 248.242 223.109C247.852 223.594 247.651 224.365 247.641 225.422V225.711C247.641 226.914 247.841 227.776 248.242 228.297C248.643 228.812 249.286 229.07 250.172 229.07C250.911 229.07 251.49 228.771 251.906 228.172C252.328 227.573 252.539 226.747 252.539 225.695C252.539 224.628 252.328 223.81 251.906 223.242C251.49 222.669 250.901 222.383 250.141 222.383ZM259.773 230.156C258.508 230.156 257.508 229.771 256.773 229C256.044 228.229 255.68 227.159 255.68 225.789C255.68 224.409 256.018 223.312 256.695 222.5C257.378 221.688 258.292 221.281 259.438 221.281C260.51 221.281 261.359 221.635 261.984 222.344C262.609 223.047 262.922 223.977 262.922 225.133V225.953H257.023C257.049 226.958 257.302 227.721 257.781 228.242C258.266 228.763 258.945 229.023 259.82 229.023C260.742 229.023 261.654 228.831 262.555 228.445V229.602C262.096 229.799 261.661 229.94 261.25 230.023C260.844 230.112 260.352 230.156 259.773 230.156ZM259.422 222.367C258.734 222.367 258.185 222.591 257.773 223.039C257.367 223.487 257.128 224.107 257.055 224.898H261.531C261.531 224.081 261.349 223.456 260.984 223.023C260.62 222.586 260.099 222.367 259.422 222.367ZM269.047 221.281C269.427 221.281 269.768 221.312 270.07 221.375L269.891 222.578C269.536 222.5 269.224 222.461 268.953 222.461C268.26 222.461 267.667 222.742 267.172 223.305C266.682 223.867 266.438 224.568 266.438 225.406V230H265.141V221.438H266.211L266.359 223.023H266.422C266.74 222.466 267.122 222.036 267.57 221.734C268.018 221.432 268.51 221.281 269.047 221.281ZM282.586 230V224.43C282.586 223.747 282.44 223.237 282.148 222.898C281.857 222.555 281.404 222.383 280.789 222.383C279.982 222.383 279.385 222.615 279 223.078C278.615 223.542 278.422 224.255 278.422 225.219V230H277.125V224.43C277.125 223.747 276.979 223.237 276.688 222.898C276.396 222.555 275.94 222.383 275.32 222.383C274.508 222.383 273.911 222.628 273.531 223.117C273.156 223.602 272.969 224.398 272.969 225.508V230H271.672V221.438H272.727L272.938 222.609H273C273.245 222.193 273.589 221.867 274.031 221.633C274.479 221.398 274.979 221.281 275.531 221.281C276.87 221.281 277.745 221.766 278.156 222.734H278.219C278.474 222.286 278.844 221.932 279.328 221.672C279.812 221.411 280.365 221.281 280.984 221.281C281.953 221.281 282.677 221.531 283.156 222.031C283.641 222.526 283.883 223.32 283.883 224.414V230H282.586ZM291.828 230L291.57 228.781H291.508C291.081 229.318 290.654 229.682 290.227 229.875C289.805 230.062 289.276 230.156 288.641 230.156C287.792 230.156 287.125 229.938 286.641 229.5C286.161 229.062 285.922 228.44 285.922 227.633C285.922 225.904 287.305 224.997 290.07 224.914L291.523 224.867V224.336C291.523 223.664 291.378 223.169 291.086 222.852C290.799 222.529 290.339 222.367 289.703 222.367C288.99 222.367 288.182 222.586 287.281 223.023L286.883 222.031C287.305 221.802 287.766 221.622 288.266 221.492C288.771 221.362 289.276 221.297 289.781 221.297C290.802 221.297 291.557 221.523 292.047 221.977C292.542 222.43 292.789 223.156 292.789 224.156V230H291.828ZM288.898 229.086C289.706 229.086 290.339 228.865 290.797 228.422C291.26 227.979 291.492 227.359 291.492 226.562V225.789L290.195 225.844C289.164 225.88 288.419 226.042 287.961 226.328C287.508 226.609 287.281 227.049 287.281 227.648C287.281 228.117 287.422 228.474 287.703 228.719C287.99 228.964 288.388 229.086 288.898 229.086ZM301.328 230V224.461C301.328 223.763 301.169 223.242 300.852 222.898C300.534 222.555 300.036 222.383 299.359 222.383C298.464 222.383 297.807 222.625 297.391 223.109C296.974 223.594 296.766 224.393 296.766 225.508V230H295.469V221.438H296.523L296.734 222.609H296.797C297.062 222.188 297.435 221.862 297.914 221.633C298.393 221.398 298.927 221.281 299.516 221.281C300.547 221.281 301.323 221.531 301.844 222.031C302.365 222.526 302.625 223.32 302.625 224.414V230H301.328ZM308.914 230.156C307.648 230.156 306.648 229.771 305.914 229C305.185 228.229 304.82 227.159 304.82 225.789C304.82 224.409 305.159 223.312 305.836 222.5C306.518 221.688 307.432 221.281 308.578 221.281C309.651 221.281 310.5 221.635 311.125 222.344C311.75 223.047 312.062 223.977 312.062 225.133V225.953H306.164C306.19 226.958 306.443 227.721 306.922 228.242C307.406 228.763 308.086 229.023 308.961 229.023C309.883 229.023 310.794 228.831 311.695 228.445V229.602C311.237 229.799 310.802 229.94 310.391 230.023C309.984 230.112 309.492 230.156 308.914 230.156ZM308.562 222.367C307.875 222.367 307.326 222.591 306.914 223.039C306.508 223.487 306.268 224.107 306.195 224.898H310.672C310.672 224.081 310.49 223.456 310.125 223.023C309.76 222.586 309.24 222.367 308.562 222.367ZM320.141 230V224.461C320.141 223.763 319.982 223.242 319.664 222.898C319.346 222.555 318.849 222.383 318.172 222.383C317.276 222.383 316.62 222.625 316.203 223.109C315.786 223.594 315.578 224.393 315.578 225.508V230H314.281V221.438H315.336L315.547 222.609H315.609C315.875 222.188 316.247 221.862 316.727 221.633C317.206 221.398 317.74 221.281 318.328 221.281C319.359 221.281 320.135 221.531 320.656 222.031C321.177 222.526 321.438 223.32 321.438 224.414V230H320.141ZM326.875 229.086C327.104 229.086 327.326 229.07 327.539 229.039C327.753 229.003 327.922 228.966 328.047 228.93V229.922C327.906 229.99 327.698 230.044 327.422 230.086C327.151 230.133 326.906 230.156 326.688 230.156C325.031 230.156 324.203 229.284 324.203 227.539V222.445H322.977V221.82L324.203 221.281L324.75 219.453H325.5V221.438H327.984V222.445H325.5V227.484C325.5 228 325.622 228.396 325.867 228.672C326.112 228.948 326.448 229.086 326.875 229.086ZM331.062 230H329.766V217.844H331.062V230ZM332.453 221.438H333.844L335.719 226.32C336.13 227.435 336.385 228.24 336.484 228.734H336.547C336.615 228.469 336.755 228.016 336.969 227.375C337.188 226.729 337.896 224.75 339.094 221.438H340.484L336.805 231.188C336.44 232.151 336.013 232.833 335.523 233.234C335.039 233.641 334.443 233.844 333.734 233.844C333.339 233.844 332.948 233.799 332.562 233.711V232.672C332.849 232.734 333.169 232.766 333.523 232.766C334.414 232.766 335.049 232.266 335.43 231.266L335.906 230.047L332.453 221.438ZM128.992 252.156C127.727 252.156 126.727 251.771 125.992 251C125.263 250.229 124.898 249.159 124.898 247.789C124.898 246.409 125.237 245.312 125.914 244.5C126.596 243.688 127.51 243.281 128.656 243.281C129.729 243.281 130.578 243.635 131.203 244.344C131.828 245.047 132.141 245.977 132.141 247.133V247.953H126.242C126.268 248.958 126.521 249.721 127 250.242C127.484 250.763 128.164 251.023 129.039 251.023C129.961 251.023 130.872 250.831 131.773 250.445V251.602C131.315 251.799 130.88 251.94 130.469 252.023C130.062 252.112 129.57 252.156 128.992 252.156ZM128.641 244.367C127.953 244.367 127.404 244.591 126.992 245.039C126.586 245.487 126.346 246.107 126.273 246.898H130.75C130.75 246.081 130.568 245.456 130.203 245.023C129.839 244.586 129.318 244.367 128.641 244.367ZM138.266 243.281C138.646 243.281 138.987 243.312 139.289 243.375L139.109 244.578C138.755 244.5 138.443 244.461 138.172 244.461C137.479 244.461 136.885 244.742 136.391 245.305C135.901 245.867 135.656 246.568 135.656 247.406V252H134.359V243.438H135.43L135.578 245.023H135.641C135.958 244.466 136.341 244.036 136.789 243.734C137.237 243.432 137.729 243.281 138.266 243.281ZM146.156 252L145.898 250.781H145.836C145.409 251.318 144.982 251.682 144.555 251.875C144.133 252.062 143.604 252.156 142.969 252.156C142.12 252.156 141.453 251.938 140.969 251.5C140.49 251.062 140.25 250.44 140.25 249.633C140.25 247.904 141.633 246.997 144.398 246.914L145.852 246.867V246.336C145.852 245.664 145.706 245.169 145.414 244.852C145.128 244.529 144.667 244.367 144.031 244.367C143.318 244.367 142.51 244.586 141.609 245.023L141.211 244.031C141.633 243.802 142.094 243.622 142.594 243.492C143.099 243.362 143.604 243.297 144.109 243.297C145.13 243.297 145.885 243.523 146.375 243.977C146.87 244.43 147.117 245.156 147.117 246.156V252H146.156ZM143.227 251.086C144.034 251.086 144.667 250.865 145.125 250.422C145.589 249.979 145.82 249.359 145.82 248.562V247.789L144.523 247.844C143.492 247.88 142.747 248.042 142.289 248.328C141.836 248.609 141.609 249.049 141.609 249.648C141.609 250.117 141.75 250.474 142.031 250.719C142.318 250.964 142.716 251.086 143.227 251.086ZM155.32 249.664C155.32 250.461 155.023 251.076 154.43 251.508C153.836 251.94 153.003 252.156 151.93 252.156C150.794 252.156 149.909 251.977 149.273 251.617V250.414C149.685 250.622 150.125 250.786 150.594 250.906C151.068 251.026 151.523 251.086 151.961 251.086C152.638 251.086 153.159 250.979 153.523 250.766C153.888 250.547 154.07 250.216 154.07 249.773C154.07 249.44 153.924 249.156 153.633 248.922C153.346 248.682 152.784 248.401 151.945 248.078C151.148 247.781 150.581 247.523 150.242 247.305C149.909 247.081 149.659 246.828 149.492 246.547C149.331 246.266 149.25 245.93 149.25 245.539C149.25 244.841 149.534 244.292 150.102 243.891C150.669 243.484 151.448 243.281 152.438 243.281C153.359 243.281 154.26 243.469 155.141 243.844L154.68 244.898C153.82 244.544 153.042 244.367 152.344 244.367C151.729 244.367 151.266 244.464 150.953 244.656C150.641 244.849 150.484 245.115 150.484 245.453C150.484 245.682 150.542 245.878 150.656 246.039C150.776 246.201 150.966 246.354 151.227 246.5C151.487 246.646 151.987 246.857 152.727 247.133C153.742 247.503 154.427 247.875 154.781 248.25C155.141 248.625 155.32 249.096 155.32 249.664ZM161.055 252.156C159.789 252.156 158.789 251.771 158.055 251C157.326 250.229 156.961 249.159 156.961 247.789C156.961 246.409 157.299 245.312 157.977 244.5C158.659 243.688 159.573 243.281 160.719 243.281C161.792 243.281 162.641 243.635 163.266 244.344C163.891 245.047 164.203 245.977 164.203 247.133V247.953H158.305C158.331 248.958 158.583 249.721 159.062 250.242C159.547 250.763 160.227 251.023 161.102 251.023C162.023 251.023 162.935 250.831 163.836 250.445V251.602C163.378 251.799 162.943 251.94 162.531 252.023C162.125 252.112 161.633 252.156 161.055 252.156ZM160.703 244.367C160.016 244.367 159.466 244.591 159.055 245.039C158.648 245.487 158.409 246.107 158.336 246.898H162.812C162.812 246.081 162.63 245.456 162.266 245.023C161.901 244.586 161.38 244.367 160.703 244.367ZM172.25 250.852H172.18C171.581 251.721 170.685 252.156 169.492 252.156C168.372 252.156 167.5 251.773 166.875 251.008C166.255 250.242 165.945 249.154 165.945 247.742C165.945 246.331 166.258 245.234 166.883 244.453C167.508 243.672 168.378 243.281 169.492 243.281C170.654 243.281 171.544 243.703 172.164 244.547H172.266L172.211 243.93L172.18 243.328V239.844H173.477V252H172.422L172.25 250.852ZM169.656 251.07C170.542 251.07 171.182 250.831 171.578 250.352C171.979 249.867 172.18 249.089 172.18 248.016V247.742C172.18 246.529 171.977 245.664 171.57 245.148C171.169 244.628 170.526 244.367 169.641 244.367C168.88 244.367 168.297 244.664 167.891 245.258C167.49 245.846 167.289 246.68 167.289 247.758C167.289 248.852 167.49 249.677 167.891 250.234C168.292 250.792 168.88 251.07 169.656 251.07ZM176.047 251.172C176.047 250.823 176.125 250.56 176.281 250.383C176.443 250.201 176.672 250.109 176.969 250.109C177.271 250.109 177.505 250.201 177.672 250.383C177.844 250.56 177.93 250.823 177.93 251.172C177.93 251.51 177.844 251.771 177.672 251.953C177.5 252.135 177.266 252.227 176.969 252.227C176.703 252.227 176.482 252.146 176.305 251.984C176.133 251.818 176.047 251.547 176.047 251.172ZM192.031 252L190.609 248.367H186.031L184.625 252H183.281L187.797 240.531H188.914L193.406 252H192.031ZM190.195 247.172L188.867 243.633C188.695 243.185 188.518 242.635 188.336 241.984C188.221 242.484 188.057 243.034 187.844 243.633L186.5 247.172H190.195ZM198.688 243.281C199.068 243.281 199.409 243.312 199.711 243.375L199.531 244.578C199.177 244.5 198.865 244.461 198.594 244.461C197.901 244.461 197.307 244.742 196.812 245.305C196.323 245.867 196.078 246.568 196.078 247.406V252H194.781V243.438H195.852L196 245.023H196.062C196.38 244.466 196.763 244.036 197.211 243.734C197.659 243.432 198.151 243.281 198.688 243.281ZM204.93 252.156C203.664 252.156 202.664 251.771 201.93 251C201.201 250.229 200.836 249.159 200.836 247.789C200.836 246.409 201.174 245.312 201.852 244.5C202.534 243.688 203.448 243.281 204.594 243.281C205.667 243.281 206.516 243.635 207.141 244.344C207.766 245.047 208.078 245.977 208.078 247.133V247.953H202.18C202.206 248.958 202.458 249.721 202.938 250.242C203.422 250.763 204.102 251.023 204.977 251.023C205.898 251.023 206.81 250.831 207.711 250.445V251.602C207.253 251.799 206.818 251.94 206.406 252.023C206 252.112 205.508 252.156 204.93 252.156ZM204.578 244.367C203.891 244.367 203.341 244.591 202.93 245.039C202.523 245.487 202.284 246.107 202.211 246.898H206.688C206.688 246.081 206.505 245.456 206.141 245.023C205.776 244.586 205.255 244.367 204.578 244.367ZM213.094 243.438H214.484L216.359 248.32C216.771 249.435 217.026 250.24 217.125 250.734H217.188C217.255 250.469 217.396 250.016 217.609 249.375C217.828 248.729 218.536 246.75 219.734 243.438H221.125L217.445 253.188C217.081 254.151 216.654 254.833 216.164 255.234C215.68 255.641 215.083 255.844 214.375 255.844C213.979 255.844 213.589 255.799 213.203 255.711V254.672C213.49 254.734 213.81 254.766 214.164 254.766C215.055 254.766 215.69 254.266 216.07 253.266L216.547 252.047L213.094 243.438ZM229.906 247.711C229.906 249.107 229.555 250.198 228.852 250.984C228.148 251.766 227.177 252.156 225.938 252.156C225.172 252.156 224.492 251.977 223.898 251.617C223.305 251.258 222.846 250.742 222.523 250.07C222.201 249.398 222.039 248.612 222.039 247.711C222.039 246.315 222.388 245.229 223.086 244.453C223.784 243.672 224.753 243.281 225.992 243.281C227.19 243.281 228.141 243.68 228.844 244.477C229.552 245.273 229.906 246.352 229.906 247.711ZM223.383 247.711C223.383 248.805 223.602 249.638 224.039 250.211C224.477 250.784 225.12 251.07 225.969 251.07C226.818 251.07 227.461 250.786 227.898 250.219C228.341 249.646 228.562 248.81 228.562 247.711C228.562 246.622 228.341 245.797 227.898 245.234C227.461 244.667 226.812 244.383 225.953 244.383C225.104 244.383 224.464 244.661 224.031 245.219C223.599 245.776 223.383 246.607 223.383 247.711ZM233.406 243.438V248.992C233.406 249.69 233.565 250.211 233.883 250.555C234.201 250.898 234.698 251.07 235.375 251.07C236.271 251.07 236.924 250.826 237.336 250.336C237.753 249.846 237.961 249.047 237.961 247.938V243.438H239.258V252H238.188L238 250.852H237.93C237.664 251.273 237.294 251.596 236.82 251.82C236.352 252.044 235.815 252.156 235.211 252.156C234.169 252.156 233.388 251.909 232.867 251.414C232.352 250.919 232.094 250.128 232.094 249.039V243.438H233.406ZM251.695 249.664C251.695 250.461 251.398 251.076 250.805 251.508C250.211 251.94 249.378 252.156 248.305 252.156C247.169 252.156 246.284 251.977 245.648 251.617V250.414C246.06 250.622 246.5 250.786 246.969 250.906C247.443 251.026 247.898 251.086 248.336 251.086C249.013 251.086 249.534 250.979 249.898 250.766C250.263 250.547 250.445 250.216 250.445 249.773C250.445 249.44 250.299 249.156 250.008 248.922C249.721 248.682 249.159 248.401 248.32 248.078C247.523 247.781 246.956 247.523 246.617 247.305C246.284 247.081 246.034 246.828 245.867 246.547C245.706 246.266 245.625 245.93 245.625 245.539C245.625 244.841 245.909 244.292 246.477 243.891C247.044 243.484 247.823 243.281 248.812 243.281C249.734 243.281 250.635 243.469 251.516 243.844L251.055 244.898C250.195 244.544 249.417 244.367 248.719 244.367C248.104 244.367 247.641 244.464 247.328 244.656C247.016 244.849 246.859 245.115 246.859 245.453C246.859 245.682 246.917 245.878 247.031 246.039C247.151 246.201 247.341 246.354 247.602 246.5C247.862 246.646 248.362 246.857 249.102 247.133C250.117 247.503 250.802 247.875 251.156 248.25C251.516 248.625 251.695 249.096 251.695 249.664ZM255.031 243.438V248.992C255.031 249.69 255.19 250.211 255.508 250.555C255.826 250.898 256.323 251.07 257 251.07C257.896 251.07 258.549 250.826 258.961 250.336C259.378 249.846 259.586 249.047 259.586 247.938V243.438H260.883V252H259.812L259.625 250.852H259.555C259.289 251.273 258.919 251.596 258.445 251.82C257.977 252.044 257.44 252.156 256.836 252.156C255.794 252.156 255.013 251.909 254.492 251.414C253.977 250.919 253.719 250.128 253.719 249.039V243.438H255.031ZM267.547 243.281C267.927 243.281 268.268 243.312 268.57 243.375L268.391 244.578C268.036 244.5 267.724 244.461 267.453 244.461C266.76 244.461 266.167 244.742 265.672 245.305C265.182 245.867 264.938 246.568 264.938 247.406V252H263.641V243.438H264.711L264.859 245.023H264.922C265.24 244.466 265.622 244.036 266.07 243.734C266.518 243.432 267.01 243.281 267.547 243.281ZM273.789 252.156C272.523 252.156 271.523 251.771 270.789 251C270.06 250.229 269.695 249.159 269.695 247.789C269.695 246.409 270.034 245.312 270.711 244.5C271.393 243.688 272.307 243.281 273.453 243.281C274.526 243.281 275.375 243.635 276 244.344C276.625 245.047 276.938 245.977 276.938 247.133V247.953H271.039C271.065 248.958 271.318 249.721 271.797 250.242C272.281 250.763 272.961 251.023 273.836 251.023C274.758 251.023 275.669 250.831 276.57 250.445V251.602C276.112 251.799 275.677 251.94 275.266 252.023C274.859 252.112 274.367 252.156 273.789 252.156ZM273.438 244.367C272.75 244.367 272.201 244.591 271.789 245.039C271.383 245.487 271.143 246.107 271.07 246.898H275.547C275.547 246.081 275.365 245.456 275 245.023C274.635 244.586 274.115 244.367 273.438 244.367ZM281.953 243.438H283.344L285.219 248.32C285.63 249.435 285.885 250.24 285.984 250.734H286.047C286.115 250.469 286.255 250.016 286.469 249.375C286.688 248.729 287.396 246.75 288.594 243.438H289.984L286.305 253.188C285.94 254.151 285.513 254.833 285.023 255.234C284.539 255.641 283.943 255.844 283.234 255.844C282.839 255.844 282.448 255.799 282.062 255.711V254.672C282.349 254.734 282.669 254.766 283.023 254.766C283.914 254.766 284.549 254.266 284.93 253.266L285.406 252.047L281.953 243.438ZM298.766 247.711C298.766 249.107 298.414 250.198 297.711 250.984C297.008 251.766 296.036 252.156 294.797 252.156C294.031 252.156 293.352 251.977 292.758 251.617C292.164 251.258 291.706 250.742 291.383 250.07C291.06 249.398 290.898 248.612 290.898 247.711C290.898 246.315 291.247 245.229 291.945 244.453C292.643 243.672 293.612 243.281 294.852 243.281C296.049 243.281 297 243.68 297.703 244.477C298.411 245.273 298.766 246.352 298.766 247.711ZM292.242 247.711C292.242 248.805 292.461 249.638 292.898 250.211C293.336 250.784 293.979 251.07 294.828 251.07C295.677 251.07 296.32 250.786 296.758 250.219C297.201 249.646 297.422 248.81 297.422 247.711C297.422 246.622 297.201 245.797 296.758 245.234C296.32 244.667 295.672 244.383 294.812 244.383C293.964 244.383 293.323 244.661 292.891 245.219C292.458 245.776 292.242 246.607 292.242 247.711ZM302.266 243.438V248.992C302.266 249.69 302.424 250.211 302.742 250.555C303.06 250.898 303.557 251.07 304.234 251.07C305.13 251.07 305.784 250.826 306.195 250.336C306.612 249.846 306.82 249.047 306.82 247.938V243.438H308.117V252H307.047L306.859 250.852H306.789C306.523 251.273 306.154 251.596 305.68 251.82C305.211 252.044 304.674 252.156 304.07 252.156C303.029 252.156 302.247 251.909 301.727 251.414C301.211 250.919 300.953 250.128 300.953 249.039V243.438H302.266ZM322.023 252L320.453 246.977C320.354 246.669 320.169 245.971 319.898 244.883H319.836C319.628 245.794 319.445 246.497 319.289 246.992L317.672 252H316.172L313.836 243.438H315.195C315.747 245.589 316.167 247.227 316.453 248.352C316.745 249.477 316.911 250.234 316.953 250.625H317.016C317.073 250.328 317.164 249.945 317.289 249.477C317.419 249.003 317.531 248.628 317.625 248.352L319.195 243.438H320.602L322.133 248.352C322.424 249.247 322.622 250 322.727 250.609H322.789C322.81 250.422 322.865 250.133 322.953 249.742C323.047 249.352 323.591 247.25 324.586 243.438H325.93L323.562 252H322.023ZM332.75 252L332.492 250.781H332.43C332.003 251.318 331.576 251.682 331.148 251.875C330.727 252.062 330.198 252.156 329.562 252.156C328.714 252.156 328.047 251.938 327.562 251.5C327.083 251.062 326.844 250.44 326.844 249.633C326.844 247.904 328.227 246.997 330.992 246.914L332.445 246.867V246.336C332.445 245.664 332.299 245.169 332.008 244.852C331.721 244.529 331.26 244.367 330.625 244.367C329.911 244.367 329.104 244.586 328.203 245.023L327.805 244.031C328.227 243.802 328.688 243.622 329.188 243.492C329.693 243.362 330.198 243.297 330.703 243.297C331.724 243.297 332.479 243.523 332.969 243.977C333.464 244.43 333.711 245.156 333.711 246.156V252H332.75ZM329.82 251.086C330.628 251.086 331.26 250.865 331.719 250.422C332.182 249.979 332.414 249.359 332.414 248.562V247.789L331.117 247.844C330.086 247.88 329.341 248.042 328.883 248.328C328.43 248.609 328.203 249.049 328.203 249.648C328.203 250.117 328.344 250.474 328.625 250.719C328.911 250.964 329.31 251.086 329.82 251.086ZM342.25 252V246.461C342.25 245.763 342.091 245.242 341.773 244.898C341.456 244.555 340.958 244.383 340.281 244.383C339.385 244.383 338.729 244.625 338.312 245.109C337.896 245.594 337.688 246.393 337.688 247.508V252H336.391V243.438H337.445L337.656 244.609H337.719C337.984 244.188 338.357 243.862 338.836 243.633C339.315 243.398 339.849 243.281 340.438 243.281C341.469 243.281 342.245 243.531 342.766 244.031C343.286 244.526 343.547 245.32 343.547 246.414V252H342.25ZM348.984 251.086C349.214 251.086 349.435 251.07 349.648 251.039C349.862 251.003 350.031 250.966 350.156 250.93V251.922C350.016 251.99 349.807 252.044 349.531 252.086C349.26 252.133 349.016 252.156 348.797 252.156C347.141 252.156 346.312 251.284 346.312 249.539V244.445H345.086V243.82L346.312 243.281L346.859 241.453H347.609V243.438H350.094V244.445H347.609V249.484C347.609 250 347.732 250.396 347.977 250.672C348.221 250.948 348.557 251.086 348.984 251.086ZM358.797 251.086C359.026 251.086 359.247 251.07 359.461 251.039C359.674 251.003 359.844 250.966 359.969 250.93V251.922C359.828 251.99 359.62 252.044 359.344 252.086C359.073 252.133 358.828 252.156 358.609 252.156C356.953 252.156 356.125 251.284 356.125 249.539V244.445H354.898V243.82L356.125 243.281L356.672 241.453H357.422V243.438H359.906V244.445H357.422V249.484C357.422 250 357.544 250.396 357.789 250.672C358.034 250.948 358.37 251.086 358.797 251.086ZM369.078 247.711C369.078 249.107 368.727 250.198 368.023 250.984C367.32 251.766 366.349 252.156 365.109 252.156C364.344 252.156 363.664 251.977 363.07 251.617C362.477 251.258 362.018 250.742 361.695 250.07C361.372 249.398 361.211 248.612 361.211 247.711C361.211 246.315 361.56 245.229 362.258 244.453C362.956 243.672 363.924 243.281 365.164 243.281C366.362 243.281 367.312 243.68 368.016 244.477C368.724 245.273 369.078 246.352 369.078 247.711ZM362.555 247.711C362.555 248.805 362.773 249.638 363.211 250.211C363.648 250.784 364.292 251.07 365.141 251.07C365.99 251.07 366.633 250.786 367.07 250.219C367.513 249.646 367.734 248.81 367.734 247.711C367.734 246.622 367.513 245.797 367.07 245.234C366.633 244.667 365.984 244.383 365.125 244.383C364.276 244.383 363.635 244.661 363.203 245.219C362.771 245.776 362.555 246.607 362.555 247.711ZM131.203 272.852H131.133C130.534 273.721 129.638 274.156 128.445 274.156C127.326 274.156 126.453 273.773 125.828 273.008C125.208 272.242 124.898 271.154 124.898 269.742C124.898 268.331 125.211 267.234 125.836 266.453C126.461 265.672 127.331 265.281 128.445 265.281C129.607 265.281 130.497 265.703 131.117 266.547H131.219L131.164 265.93L131.133 265.328V261.844H132.43V274H131.375L131.203 272.852ZM128.609 273.07C129.495 273.07 130.135 272.831 130.531 272.352C130.932 271.867 131.133 271.089 131.133 270.016V269.742C131.133 268.529 130.93 267.664 130.523 267.148C130.122 266.628 129.479 266.367 128.594 266.367C127.833 266.367 127.25 266.664 126.844 267.258C126.443 267.846 126.242 268.68 126.242 269.758C126.242 270.852 126.443 271.677 126.844 272.234C127.245 272.792 127.833 273.07 128.609 273.07ZM138.805 274.156C137.539 274.156 136.539 273.771 135.805 273C135.076 272.229 134.711 271.159 134.711 269.789C134.711 268.409 135.049 267.312 135.727 266.5C136.409 265.688 137.323 265.281 138.469 265.281C139.542 265.281 140.391 265.635 141.016 266.344C141.641 267.047 141.953 267.977 141.953 269.133V269.953H136.055C136.081 270.958 136.333 271.721 136.812 272.242C137.297 272.763 137.977 273.023 138.852 273.023C139.773 273.023 140.685 272.831 141.586 272.445V273.602C141.128 273.799 140.693 273.94 140.281 274.023C139.875 274.112 139.383 274.156 138.805 274.156ZM138.453 266.367C137.766 266.367 137.216 266.591 136.805 267.039C136.398 267.487 136.159 268.107 136.086 268.898H140.562C140.562 268.081 140.38 267.456 140.016 267.023C139.651 266.586 139.13 266.367 138.453 266.367ZM145.469 274H144.172V261.844H145.469V274ZM151.836 274.156C150.57 274.156 149.57 273.771 148.836 273C148.107 272.229 147.742 271.159 147.742 269.789C147.742 268.409 148.081 267.312 148.758 266.5C149.44 265.688 150.354 265.281 151.5 265.281C152.573 265.281 153.422 265.635 154.047 266.344C154.672 267.047 154.984 267.977 154.984 269.133V269.953H149.086C149.112 270.958 149.365 271.721 149.844 272.242C150.328 272.763 151.008 273.023 151.883 273.023C152.805 273.023 153.716 272.831 154.617 272.445V273.602C154.159 273.799 153.724 273.94 153.312 274.023C152.906 274.112 152.414 274.156 151.836 274.156ZM151.484 266.367C150.797 266.367 150.247 266.591 149.836 267.039C149.43 267.487 149.19 268.107 149.117 268.898H153.594C153.594 268.081 153.411 267.456 153.047 267.023C152.682 266.586 152.161 266.367 151.484 266.367ZM159.969 273.086C160.198 273.086 160.419 273.07 160.633 273.039C160.846 273.003 161.016 272.966 161.141 272.93V273.922C161 273.99 160.792 274.044 160.516 274.086C160.245 274.133 160 274.156 159.781 274.156C158.125 274.156 157.297 273.284 157.297 271.539V266.445H156.07V265.82L157.297 265.281L157.844 263.453H158.594V265.438H161.078V266.445H158.594V271.484C158.594 272 158.716 272.396 158.961 272.672C159.206 272.948 159.542 273.086 159.969 273.086ZM166.477 274.156C165.211 274.156 164.211 273.771 163.477 273C162.747 272.229 162.383 271.159 162.383 269.789C162.383 268.409 162.721 267.312 163.398 266.5C164.081 265.688 164.995 265.281 166.141 265.281C167.214 265.281 168.062 265.635 168.688 266.344C169.312 267.047 169.625 267.977 169.625 269.133V269.953H163.727C163.753 270.958 164.005 271.721 164.484 272.242C164.969 272.763 165.648 273.023 166.523 273.023C167.445 273.023 168.357 272.831 169.258 272.445V273.602C168.799 273.799 168.365 273.94 167.953 274.023C167.547 274.112 167.055 274.156 166.477 274.156ZM166.125 266.367C165.438 266.367 164.888 266.591 164.477 267.039C164.07 267.487 163.831 268.107 163.758 268.898H168.234C168.234 268.081 168.052 267.456 167.688 267.023C167.323 266.586 166.802 266.367 166.125 266.367ZM181.266 274L181.008 272.781H180.945C180.518 273.318 180.091 273.682 179.664 273.875C179.242 274.062 178.714 274.156 178.078 274.156C177.229 274.156 176.562 273.938 176.078 273.5C175.599 273.062 175.359 272.44 175.359 271.633C175.359 269.904 176.742 268.997 179.508 268.914L180.961 268.867V268.336C180.961 267.664 180.815 267.169 180.523 266.852C180.237 266.529 179.776 266.367 179.141 266.367C178.427 266.367 177.62 266.586 176.719 267.023L176.32 266.031C176.742 265.802 177.203 265.622 177.703 265.492C178.208 265.362 178.714 265.297 179.219 265.297C180.24 265.297 180.995 265.523 181.484 265.977C181.979 266.43 182.227 267.156 182.227 268.156V274H181.266ZM178.336 273.086C179.143 273.086 179.776 272.865 180.234 272.422C180.698 271.979 180.93 271.359 180.93 270.562V269.789L179.633 269.844C178.602 269.88 177.857 270.042 177.398 270.328C176.945 270.609 176.719 271.049 176.719 271.648C176.719 272.117 176.859 272.474 177.141 272.719C177.427 272.964 177.826 273.086 178.336 273.086ZM186.203 274H184.906V261.844H186.203V274ZM190.25 274H188.953V261.844H190.25V274ZM202.984 272.852H202.914C202.315 273.721 201.419 274.156 200.227 274.156C199.107 274.156 198.234 273.773 197.609 273.008C196.99 272.242 196.68 271.154 196.68 269.742C196.68 268.331 196.992 267.234 197.617 266.453C198.242 265.672 199.112 265.281 200.227 265.281C201.388 265.281 202.279 265.703 202.898 266.547H203L202.945 265.93L202.914 265.328V261.844H204.211V274H203.156L202.984 272.852ZM200.391 273.07C201.276 273.07 201.917 272.831 202.312 272.352C202.714 271.867 202.914 271.089 202.914 270.016V269.742C202.914 268.529 202.711 267.664 202.305 267.148C201.904 266.628 201.26 266.367 200.375 266.367C199.615 266.367 199.031 266.664 198.625 267.258C198.224 267.846 198.023 268.68 198.023 269.758C198.023 270.852 198.224 271.677 198.625 272.234C199.026 272.792 199.615 273.07 200.391 273.07ZM210.586 274.156C209.32 274.156 208.32 273.771 207.586 273C206.857 272.229 206.492 271.159 206.492 269.789C206.492 268.409 206.831 267.312 207.508 266.5C208.19 265.688 209.104 265.281 210.25 265.281C211.323 265.281 212.172 265.635 212.797 266.344C213.422 267.047 213.734 267.977 213.734 269.133V269.953H207.836C207.862 270.958 208.115 271.721 208.594 272.242C209.078 272.763 209.758 273.023 210.633 273.023C211.555 273.023 212.466 272.831 213.367 272.445V273.602C212.909 273.799 212.474 273.94 212.062 274.023C211.656 274.112 211.164 274.156 210.586 274.156ZM210.234 266.367C209.547 266.367 208.997 266.591 208.586 267.039C208.18 267.487 207.94 268.107 207.867 268.898H212.344C212.344 268.081 212.161 267.456 211.797 267.023C211.432 266.586 210.911 266.367 210.234 266.367ZM217.828 274L214.578 265.438H215.969L217.812 270.516C218.229 271.703 218.474 272.474 218.547 272.828H218.609C218.667 272.552 218.846 271.982 219.148 271.117C219.456 270.247 220.141 268.354 221.203 265.438H222.594L219.344 274H217.828ZM225.266 274H223.969V265.438H225.266V274ZM223.859 263.117C223.859 262.82 223.932 262.604 224.078 262.469C224.224 262.328 224.406 262.258 224.625 262.258C224.833 262.258 225.013 262.328 225.164 262.469C225.315 262.609 225.391 262.826 225.391 263.117C225.391 263.409 225.315 263.628 225.164 263.773C225.013 263.914 224.833 263.984 224.625 263.984C224.406 263.984 224.224 263.914 224.078 263.773C223.932 263.628 223.859 263.409 223.859 263.117ZM231.438 274.156C230.198 274.156 229.237 273.776 228.555 273.016C227.878 272.25 227.539 271.169 227.539 269.773C227.539 268.341 227.883 267.234 228.57 266.453C229.263 265.672 230.247 265.281 231.523 265.281C231.935 265.281 232.346 265.326 232.758 265.414C233.169 265.503 233.492 265.607 233.727 265.727L233.328 266.828C233.042 266.714 232.729 266.62 232.391 266.547C232.052 266.469 231.753 266.43 231.492 266.43C229.753 266.43 228.883 267.539 228.883 269.758C228.883 270.81 229.094 271.617 229.516 272.18C229.943 272.742 230.573 273.023 231.406 273.023C232.12 273.023 232.852 272.87 233.602 272.562V273.711C233.029 274.008 232.307 274.156 231.438 274.156ZM239.258 274.156C237.992 274.156 236.992 273.771 236.258 273C235.529 272.229 235.164 271.159 235.164 269.789C235.164 268.409 235.503 267.312 236.18 266.5C236.862 265.688 237.776 265.281 238.922 265.281C239.995 265.281 240.844 265.635 241.469 266.344C242.094 267.047 242.406 267.977 242.406 269.133V269.953H236.508C236.534 270.958 236.786 271.721 237.266 272.242C237.75 272.763 238.43 273.023 239.305 273.023C240.227 273.023 241.138 272.831 242.039 272.445V273.602C241.581 273.799 241.146 273.94 240.734 274.023C240.328 274.112 239.836 274.156 239.258 274.156ZM238.906 266.367C238.219 266.367 237.669 266.591 237.258 267.039C236.852 267.487 236.612 268.107 236.539 268.898H241.016C241.016 268.081 240.833 267.456 240.469 267.023C240.104 266.586 239.583 266.367 238.906 266.367ZM250.148 271.664C250.148 272.461 249.852 273.076 249.258 273.508C248.664 273.94 247.831 274.156 246.758 274.156C245.622 274.156 244.737 273.977 244.102 273.617V272.414C244.513 272.622 244.953 272.786 245.422 272.906C245.896 273.026 246.352 273.086 246.789 273.086C247.466 273.086 247.987 272.979 248.352 272.766C248.716 272.547 248.898 272.216 248.898 271.773C248.898 271.44 248.753 271.156 248.461 270.922C248.174 270.682 247.612 270.401 246.773 270.078C245.977 269.781 245.409 269.523 245.07 269.305C244.737 269.081 244.487 268.828 244.32 268.547C244.159 268.266 244.078 267.93 244.078 267.539C244.078 266.841 244.362 266.292 244.93 265.891C245.497 265.484 246.276 265.281 247.266 265.281C248.188 265.281 249.089 265.469 249.969 265.844L249.508 266.898C248.648 266.544 247.87 266.367 247.172 266.367C246.557 266.367 246.094 266.464 245.781 266.656C245.469 266.849 245.312 267.115 245.312 267.453C245.312 267.682 245.37 267.878 245.484 268.039C245.604 268.201 245.794 268.354 246.055 268.5C246.315 268.646 246.815 268.857 247.555 269.133C248.57 269.503 249.255 269.875 249.609 270.25C249.969 270.625 250.148 271.096 250.148 271.664ZM253.148 270.852V270.43C253.148 269.82 253.242 269.32 253.43 268.93C253.617 268.534 253.966 268.117 254.477 267.68C255.185 267.081 255.63 266.63 255.812 266.328C256 266.026 256.094 265.661 256.094 265.234C256.094 264.703 255.922 264.294 255.578 264.008C255.24 263.716 254.75 263.57 254.109 263.57C253.698 263.57 253.297 263.62 252.906 263.719C252.516 263.812 252.068 263.987 251.562 264.242L251.102 263.188C252.086 262.672 253.115 262.414 254.188 262.414C255.182 262.414 255.956 262.659 256.508 263.148C257.06 263.638 257.336 264.328 257.336 265.219C257.336 265.599 257.284 265.935 257.18 266.227C257.081 266.513 256.932 266.786 256.734 267.047C256.536 267.302 256.109 267.716 255.453 268.289C254.927 268.737 254.578 269.109 254.406 269.406C254.24 269.703 254.156 270.099 254.156 270.594V270.852H253.148ZM252.766 273.172C252.766 272.464 253.078 272.109 253.703 272.109C254.005 272.109 254.237 272.201 254.398 272.383C254.565 272.565 254.648 272.828 254.648 273.172C254.648 273.505 254.565 273.766 254.398 273.953C254.232 274.135 254 274.227 253.703 274.227C253.432 274.227 253.208 274.146 253.031 273.984C252.854 273.818 252.766 273.547 252.766 273.172Z" fill="#424E54"/>
<path d="M229.571 317.764C228.632 317.764 227.894 318.096 227.356 318.762C226.819 319.427 226.55 320.345 226.55 321.517C226.55 322.743 226.807 323.67 227.322 324.299C227.842 324.928 228.591 325.242 229.571 325.242C229.995 325.242 230.405 325.201 230.802 325.119C231.198 325.033 231.611 324.923 232.039 324.791V326.192C231.255 326.489 230.367 326.637 229.373 326.637C227.91 326.637 226.787 326.195 226.003 325.311C225.219 324.422 224.827 323.153 224.827 321.503C224.827 320.464 225.016 319.555 225.395 318.775C225.777 317.996 226.329 317.399 227.049 316.984C227.769 316.57 228.614 316.362 229.585 316.362C230.606 316.362 231.549 316.576 232.415 317.005L231.827 318.365C231.49 318.206 231.132 318.067 230.754 317.948C230.38 317.825 229.986 317.764 229.571 317.764ZM238.752 326.5L238.431 325.447H238.376C238.011 325.908 237.645 326.222 237.275 326.391C236.906 326.555 236.432 326.637 235.854 326.637C235.111 326.637 234.53 326.436 234.11 326.035C233.696 325.634 233.488 325.067 233.488 324.333C233.488 323.554 233.778 322.966 234.356 322.569C234.935 322.173 235.817 321.956 237.002 321.92L238.308 321.879V321.476C238.308 320.993 238.194 320.632 237.966 320.396C237.743 320.154 237.394 320.033 236.92 320.033C236.533 320.033 236.161 320.09 235.806 320.204C235.45 320.318 235.108 320.452 234.78 320.607L234.261 319.459C234.671 319.245 235.12 319.083 235.607 318.974C236.095 318.86 236.555 318.803 236.988 318.803C237.95 318.803 238.674 319.012 239.162 319.432C239.654 319.851 239.9 320.509 239.9 321.407V326.5H238.752ZM236.359 325.406C236.943 325.406 237.41 325.244 237.761 324.921C238.116 324.593 238.294 324.135 238.294 323.547V322.891L237.323 322.932C236.567 322.959 236.015 323.087 235.669 323.314C235.327 323.538 235.156 323.882 235.156 324.347C235.156 324.684 235.257 324.946 235.457 325.133C235.658 325.315 235.958 325.406 236.359 325.406ZM248.794 326.5H247.181V321.852C247.181 321.268 247.062 320.833 246.825 320.546C246.593 320.259 246.221 320.115 245.711 320.115C245.032 320.115 244.535 320.316 244.221 320.717C243.906 321.118 243.749 321.79 243.749 322.733V326.5H242.143V318.939H243.4L243.626 319.931H243.708C243.936 319.571 244.259 319.293 244.679 319.097C245.098 318.901 245.563 318.803 246.073 318.803C247.887 318.803 248.794 319.726 248.794 321.571V326.5ZM254.078 326.637C252.934 326.637 252.064 326.304 251.467 325.639C250.874 324.969 250.578 324.009 250.578 322.761C250.578 321.489 250.888 320.512 251.508 319.828C252.132 319.145 253.032 318.803 254.208 318.803C255.006 318.803 255.723 318.951 256.361 319.247L255.876 320.539C255.197 320.275 254.636 320.143 254.194 320.143C252.886 320.143 252.232 321.011 252.232 322.747C252.232 323.595 252.394 324.233 252.718 324.661C253.046 325.085 253.524 325.297 254.153 325.297C254.869 325.297 255.546 325.119 256.184 324.764V326.165C255.896 326.334 255.589 326.454 255.261 326.527C254.937 326.6 254.543 326.637 254.078 326.637ZM261.263 326.637C260.087 326.637 259.166 326.295 258.501 325.611C257.84 324.923 257.51 323.978 257.51 322.774C257.51 321.539 257.817 320.569 258.433 319.862C259.048 319.156 259.893 318.803 260.969 318.803C261.967 318.803 262.755 319.106 263.334 319.712C263.913 320.318 264.202 321.152 264.202 322.214V323.082H259.164C259.187 323.816 259.385 324.381 259.759 324.777C260.132 325.169 260.659 325.365 261.338 325.365C261.785 325.365 262.199 325.324 262.582 325.242C262.969 325.156 263.384 325.014 263.826 324.818V326.124C263.434 326.311 263.038 326.443 262.637 326.521C262.236 326.598 261.778 326.637 261.263 326.637ZM260.969 320.02C260.458 320.02 260.048 320.181 259.738 320.505C259.433 320.828 259.251 321.3 259.191 321.92H262.623C262.614 321.296 262.464 320.824 262.172 320.505C261.88 320.181 261.479 320.02 260.969 320.02ZM267.634 326.5H266.027V315.863H267.634V326.5Z" fill="#007BC1"/>
<rect x="208.5" y="303.5" width="76" height="35" rx="3.5" stroke="#007BC1"/>
<path d="M318.571 317.764C317.632 317.764 316.894 318.096 316.356 318.762C315.819 319.427 315.55 320.345 315.55 321.517C315.55 322.743 315.807 323.67 316.322 324.299C316.842 324.928 317.591 325.242 318.571 325.242C318.995 325.242 319.405 325.201 319.802 325.119C320.198 325.033 320.611 324.923 321.039 324.791V326.192C320.255 326.489 319.367 326.637 318.373 326.637C316.91 326.637 315.787 326.195 315.003 325.311C314.219 324.422 313.827 323.153 313.827 321.503C313.827 320.464 314.016 319.555 314.395 318.775C314.777 317.996 315.329 317.399 316.049 316.984C316.769 316.57 317.614 316.362 318.585 316.362C319.606 316.362 320.549 316.576 321.415 317.005L320.827 318.365C320.49 318.206 320.132 318.067 319.754 317.948C319.38 317.825 318.986 317.764 318.571 317.764ZM329.728 322.706C329.728 323.941 329.411 324.905 328.777 325.598C328.144 326.29 327.262 326.637 326.132 326.637C325.425 326.637 324.801 326.477 324.259 326.158C323.716 325.839 323.299 325.381 323.008 324.784C322.716 324.187 322.57 323.494 322.57 322.706C322.57 321.48 322.885 320.523 323.514 319.835C324.143 319.147 325.029 318.803 326.173 318.803C327.267 318.803 328.132 319.156 328.771 319.862C329.409 320.564 329.728 321.512 329.728 322.706ZM324.225 322.706C324.225 324.451 324.869 325.324 326.159 325.324C327.435 325.324 328.073 324.451 328.073 322.706C328.073 320.979 327.431 320.115 326.146 320.115C325.471 320.115 324.981 320.339 324.676 320.785C324.375 321.232 324.225 321.872 324.225 322.706ZM338.231 326.5H336.618V321.852C336.618 321.268 336.5 320.833 336.263 320.546C336.03 320.259 335.659 320.115 335.148 320.115C334.469 320.115 333.973 320.316 333.658 320.717C333.344 321.118 333.187 321.79 333.187 322.733V326.5H331.58V318.939H332.838L333.063 319.931H333.146C333.373 319.571 333.697 319.293 334.116 319.097C334.535 318.901 335 318.803 335.511 318.803C337.325 318.803 338.231 319.726 338.231 321.571V326.5ZM344.261 320.156H342.415V326.5H340.802V320.156H339.558V319.404L340.802 318.912V318.42C340.802 317.527 341.011 316.866 341.431 316.438C341.85 316.005 342.49 315.788 343.352 315.788C343.917 315.788 344.473 315.882 345.02 316.068L344.596 317.285C344.199 317.158 343.821 317.094 343.461 317.094C343.096 317.094 342.83 317.208 342.661 317.436C342.497 317.659 342.415 317.996 342.415 318.447V318.939H344.261V320.156ZM347.159 326.5H345.553V318.939H347.159V326.5ZM345.457 316.937C345.457 316.649 345.535 316.428 345.689 316.273C345.849 316.118 346.075 316.041 346.366 316.041C346.649 316.041 346.868 316.118 347.022 316.273C347.182 316.428 347.262 316.649 347.262 316.937C347.262 317.21 347.182 317.426 347.022 317.586C346.868 317.741 346.649 317.818 346.366 317.818C346.075 317.818 345.849 317.741 345.689 317.586C345.535 317.426 345.457 317.21 345.457 316.937ZM353.298 318.803C353.621 318.803 353.888 318.826 354.098 318.871L353.94 320.368C353.713 320.313 353.476 320.286 353.229 320.286C352.587 320.286 352.065 320.496 351.664 320.915C351.268 321.334 351.069 321.879 351.069 322.549V326.5H349.463V318.939H350.721L350.933 320.272H351.015C351.265 319.821 351.591 319.464 351.992 319.199C352.398 318.935 352.833 318.803 353.298 318.803ZM361.877 326.5H360.264V321.838C360.264 321.259 360.154 320.828 359.936 320.546C359.717 320.259 359.375 320.115 358.91 320.115C358.29 320.115 357.835 320.318 357.543 320.724C357.256 321.125 357.112 321.795 357.112 322.733V326.5H355.506V318.939H356.764L356.989 319.931H357.071C357.281 319.571 357.584 319.293 357.98 319.097C358.382 318.901 358.821 318.803 359.3 318.803C360.462 318.803 361.232 319.199 361.61 319.992H361.72C361.943 319.618 362.257 319.327 362.663 319.117C363.069 318.908 363.534 318.803 364.058 318.803C364.96 318.803 365.616 319.031 366.026 319.486C366.441 319.942 366.648 320.637 366.648 321.571V326.5H365.042V321.838C365.042 321.259 364.93 320.828 364.707 320.546C364.488 320.259 364.146 320.115 363.682 320.115C363.057 320.115 362.599 320.311 362.308 320.703C362.021 321.09 361.877 321.688 361.877 322.494V326.5Z" fill="#CA3C3D"/>
<rect x="297.5" y="303.5" width="86" height="35" rx="3.5" stroke="#CA3C3D"/>
</g>
</g>
<defs>
<filter id="filter0_ddd_5174_239735" x="74" y="125" width="352" height="261" filterUnits="userSpaceOnUse" color-interpolation-filters="sRGB">
<feFlood flood-opacity="0" result="BackgroundImageFix"/>
<feColorMatrix in="SourceAlpha" type="matrix" values="0 0 0 0 0 0 0 0 0 0 0 0 0 0 0 0 0 0 127 0" result="hardAlpha"/>
<feMorphology radius="4" operator="dilate" in="SourceAlpha" result="effect1_dropShadow_5174_239735"/>
<feOffset dy="5"/>
<feGaussianBlur stdDeviation="11"/>
<feColorMatrix type="matrix" values="0 0 0 0 0 0 0 0 0 0 0 0 0 0 0 0 0 0 0.12 0"/>
<feBlend mode="normal" in2="BackgroundImageFix" result="effect1_dropShadow_5174_239735"/>
<feColorMatrix in="SourceAlpha" type="matrix" values="0 0 0 0 0 0 0 0 0 0 0 0 0 0 0 0 0 0 127 0" result="hardAlpha"/>
<feMorphology radius="2" operator="dilate" in="SourceAlpha" result="effect2_dropShadow_5174_239735"/>
<feOffset dy="12"/>
<feGaussianBlur stdDeviation="8.5"/>
<feColorMatrix type="matrix" values="0 0 0 0 0.258824 0 0 0 0 0.305882 0 0 0 0 0.329412 0 0 0 0.14 0"/>
<feBlend mode="normal" in2="effect1_dropShadow_5174_239735" result="effect2_dropShadow_5174_239735"/>
<feColorMatrix in="SourceAlpha" type="matrix" values="0 0 0 0 0 0 0 0 0 0 0 0 0 0 0 0 0 0 127 0" result="hardAlpha"/>
<feMorphology radius="4" operator="erode" in="SourceAlpha" result="effect3_dropShadow_5174_239735"/>
<feOffset dy="7"/>
<feGaussianBlur stdDeviation="4"/>
<feColorMatrix type="matrix" values="0 0 0 0 0 0 0 0 0 0 0 0 0 0 0 0 0 0 0.2 0"/>
<feBlend mode="normal" in2="effect2_dropShadow_5174_239735" result="effect3_dropShadow_5174_239735"/>
<feBlend mode="normal" in="SourceGraphic" in2="effect3_dropShadow_5174_239735" result="shape"/>
</filter>
<clipPath id="clip0_5174_239735">
<rect x="100" y="146" width="300" height="209" rx="4" fill="white"/>
</clipPath>
</defs>
</svg>
