<svg width="500" height="500" viewBox="0 0 500 500" fill="none" xmlns="http://www.w3.org/2000/svg">
<rect width="500" height="500" fill="#E2E5E5"/>
<g filter="url(#filter0_ddd_5174_239735)">
<g clip-path="url(#clip0_5174_239735)">
<rect x="100" y="146" width="300" height="209" rx="4" fill="white"/>
<path d="M134.742 183L133.316 179.035H127.857L126.461 183H124L129.342 168.664H131.881L137.223 183H134.742ZM132.701 177.023L131.363 173.137C131.266 172.876 131.129 172.466 130.953 171.906C130.784 171.346 130.667 170.936 130.602 170.676C130.426 171.477 130.169 172.352 129.83 173.303L128.541 177.023H132.701ZM141.158 183H138.863V167.805H141.158V183ZM149.166 183.195C147.486 183.195 146.171 182.707 145.221 181.73C144.277 180.747 143.805 179.396 143.805 177.678C143.805 175.913 144.244 174.527 145.123 173.518C146.002 172.508 147.21 172.004 148.746 172.004C150.172 172.004 151.298 172.437 152.125 173.303C152.952 174.169 153.365 175.36 153.365 176.877V178.117H146.168C146.201 179.165 146.484 179.973 147.018 180.539C147.551 181.099 148.303 181.379 149.273 181.379C149.911 181.379 150.504 181.32 151.051 181.203C151.604 181.079 152.197 180.878 152.828 180.598V182.463C152.268 182.73 151.702 182.919 151.129 183.029C150.556 183.14 149.902 183.195 149.166 183.195ZM148.746 173.742C148.017 173.742 147.431 173.973 146.988 174.436C146.552 174.898 146.292 175.572 146.207 176.457H151.109C151.096 175.565 150.882 174.891 150.465 174.436C150.048 173.973 149.475 173.742 148.746 173.742ZM161.451 172.004C161.913 172.004 162.294 172.036 162.594 172.102L162.369 174.24C162.044 174.162 161.705 174.123 161.354 174.123C160.436 174.123 159.69 174.423 159.117 175.021C158.551 175.62 158.268 176.398 158.268 177.355V183H155.973V172.199H157.77L158.072 174.104H158.189C158.548 173.459 159.013 172.948 159.586 172.57C160.165 172.193 160.787 172.004 161.451 172.004ZM168.629 181.34C169.189 181.34 169.749 181.252 170.309 181.076V182.805C170.055 182.915 169.726 183.007 169.322 183.078C168.925 183.156 168.512 183.195 168.082 183.195C165.908 183.195 164.82 182.049 164.82 179.758V173.938H163.346V172.922L164.928 172.082L165.709 169.797H167.125V172.199H170.201V173.938H167.125V179.719C167.125 180.272 167.262 180.682 167.535 180.949C167.815 181.21 168.18 181.34 168.629 181.34ZM174.459 178.664H172.76L172.252 168.723H174.957L174.459 178.664ZM172.135 181.779C172.135 181.298 172.262 180.933 172.516 180.686C172.77 180.432 173.131 180.305 173.6 180.305C174.062 180.305 174.417 180.435 174.664 180.695C174.911 180.956 175.035 181.317 175.035 181.779C175.035 182.242 174.908 182.609 174.654 182.883C174.407 183.15 174.055 183.283 173.6 183.283C173.137 183.283 172.776 183.153 172.516 182.893C172.262 182.632 172.135 182.261 172.135 181.779Z" fill="#424E54"/>
<path d="M129.086 230H127.758V219.758H124.141V218.578H132.703V219.758H129.086V230ZM140.094 230V224.461C140.094 223.763 139.935 223.242 139.617 222.898C139.299 222.555 138.802 222.383 138.125 222.383C137.224 222.383 136.565 222.628 136.148 223.117C135.737 223.607 135.531 224.409 135.531 225.523V230H134.234V217.844H135.531V221.523C135.531 221.966 135.51 222.333 135.469 222.625H135.547C135.802 222.214 136.164 221.891 136.633 221.656C137.107 221.417 137.646 221.297 138.25 221.297C139.297 221.297 140.081 221.547 140.602 222.047C141.128 222.542 141.391 223.331 141.391 224.414V230H140.094ZM145.359 230H144.062V221.438H145.359V230ZM143.953 219.117C143.953 218.82 144.026 218.604 144.172 218.469C144.318 218.328 144.5 218.258 144.719 218.258C144.927 218.258 145.107 218.328 145.258 218.469C145.409 218.609 145.484 218.826 145.484 219.117C145.484 219.409 145.409 219.628 145.258 219.773C145.107 219.914 144.927 219.984 144.719 219.984C144.5 219.984 144.318 219.914 144.172 219.773C144.026 219.628 143.953 219.409 143.953 219.117ZM153.633 227.664C153.633 228.461 153.336 229.076 152.742 229.508C152.148 229.94 151.315 230.156 150.242 230.156C149.107 230.156 148.221 229.977 147.586 229.617V228.414C147.997 228.622 148.438 228.786 148.906 228.906C149.38 229.026 149.836 229.086 150.273 229.086C150.951 229.086 151.471 228.979 151.836 228.766C152.201 228.547 152.383 228.216 152.383 227.773C152.383 227.44 152.237 227.156 151.945 226.922C151.659 226.682 151.096 226.401 150.258 226.078C149.461 225.781 148.893 225.523 148.555 225.305C148.221 225.081 147.971 224.828 147.805 224.547C147.643 224.266 147.562 223.93 147.562 223.539C147.562 222.841 147.846 222.292 148.414 221.891C148.982 221.484 149.76 221.281 150.75 221.281C151.672 221.281 152.573 221.469 153.453 221.844L152.992 222.898C152.133 222.544 151.354 222.367 150.656 222.367C150.042 222.367 149.578 222.464 149.266 222.656C148.953 222.849 148.797 223.115 148.797 223.453C148.797 223.682 148.854 223.878 148.969 224.039C149.089 224.201 149.279 224.354 149.539 224.5C149.799 224.646 150.299 224.857 151.039 225.133C152.055 225.503 152.74 225.875 153.094 226.25C153.453 226.625 153.633 227.096 153.633 227.664ZM165.734 228.852H165.664C165.065 229.721 164.169 230.156 162.977 230.156C161.857 230.156 160.984 229.773 160.359 229.008C159.74 228.242 159.43 227.154 159.43 225.742C159.43 224.331 159.742 223.234 160.367 222.453C160.992 221.672 161.862 221.281 162.977 221.281C164.138 221.281 165.029 221.703 165.648 222.547H165.75L165.695 221.93L165.664 221.328V217.844H166.961V230H165.906L165.734 228.852ZM163.141 229.07C164.026 229.07 164.667 228.831 165.062 228.352C165.464 227.867 165.664 227.089 165.664 226.016V225.742C165.664 224.529 165.461 223.664 165.055 223.148C164.654 222.628 164.01 222.367 163.125 222.367C162.365 222.367 161.781 222.664 161.375 223.258C160.974 223.846 160.773 224.68 160.773 225.758C160.773 226.852 160.974 227.677 161.375 228.234C161.776 228.792 162.365 229.07 163.141 229.07ZM174.984 230L174.727 228.781H174.664C174.237 229.318 173.81 229.682 173.383 229.875C172.961 230.062 172.432 230.156 171.797 230.156C170.948 230.156 170.281 229.938 169.797 229.5C169.318 229.062 169.078 228.44 169.078 227.633C169.078 225.904 170.461 224.997 173.227 224.914L174.68 224.867V224.336C174.68 223.664 174.534 223.169 174.242 222.852C173.956 222.529 173.495 222.367 172.859 222.367C172.146 222.367 171.339 222.586 170.438 223.023L170.039 222.031C170.461 221.802 170.922 221.622 171.422 221.492C171.927 221.362 172.432 221.297 172.938 221.297C173.958 221.297 174.714 221.523 175.203 221.977C175.698 222.43 175.945 223.156 175.945 224.156V230H174.984ZM172.055 229.086C172.862 229.086 173.495 228.865 173.953 228.422C174.417 227.979 174.648 227.359 174.648 226.562V225.789L173.352 225.844C172.32 225.88 171.576 226.042 171.117 226.328C170.664 226.609 170.438 227.049 170.438 227.648C170.438 228.117 170.578 228.474 170.859 228.719C171.146 228.964 171.544 229.086 172.055 229.086ZM181.391 229.086C181.62 229.086 181.841 229.07 182.055 229.039C182.268 229.003 182.438 228.966 182.562 228.93V229.922C182.422 229.99 182.214 230.044 181.938 230.086C181.667 230.133 181.422 230.156 181.203 230.156C179.547 230.156 178.719 229.284 178.719 227.539V222.445H177.492V221.82L178.719 221.281L179.266 219.453H180.016V221.438H182.5V222.445H180.016V227.484C180.016 228 180.138 228.396 180.383 228.672C180.628 228.948 180.964 229.086 181.391 229.086ZM189.547 230L189.289 228.781H189.227C188.799 229.318 188.372 229.682 187.945 229.875C187.523 230.062 186.995 230.156 186.359 230.156C185.51 230.156 184.844 229.938 184.359 229.5C183.88 229.062 183.641 228.44 183.641 227.633C183.641 225.904 185.023 224.997 187.789 224.914L189.242 224.867V224.336C189.242 223.664 189.096 223.169 188.805 222.852C188.518 222.529 188.057 222.367 187.422 222.367C186.708 222.367 185.901 222.586 185 223.023L184.602 222.031C185.023 221.802 185.484 221.622 185.984 221.492C186.49 221.362 186.995 221.297 187.5 221.297C188.521 221.297 189.276 221.523 189.766 221.977C190.26 222.43 190.508 223.156 190.508 224.156V230H189.547ZM186.617 229.086C187.424 229.086 188.057 228.865 188.516 228.422C188.979 227.979 189.211 227.359 189.211 226.562V225.789L187.914 225.844C186.883 225.88 186.138 226.042 185.68 226.328C185.227 226.609 185 227.049 185 227.648C185 228.117 185.141 228.474 185.422 228.719C185.708 228.964 186.107 229.086 186.617 229.086ZM204.336 230L202.766 224.977C202.667 224.669 202.482 223.971 202.211 222.883H202.148C201.94 223.794 201.758 224.497 201.602 224.992L199.984 230H198.484L196.148 221.438H197.508C198.06 223.589 198.479 225.227 198.766 226.352C199.057 227.477 199.224 228.234 199.266 228.625H199.328C199.385 228.328 199.477 227.945 199.602 227.477C199.732 227.003 199.844 226.628 199.938 226.352L201.508 221.438H202.914L204.445 226.352C204.737 227.247 204.935 228 205.039 228.609H205.102C205.122 228.422 205.177 228.133 205.266 227.742C205.359 227.352 205.904 225.25 206.898 221.438H208.242L205.875 230H204.336ZM211.094 230H209.797V221.438H211.094V230ZM209.688 219.117C209.688 218.82 209.76 218.604 209.906 218.469C210.052 218.328 210.234 218.258 210.453 218.258C210.661 218.258 210.841 218.328 210.992 218.469C211.143 218.609 211.219 218.826 211.219 219.117C211.219 219.409 211.143 219.628 210.992 219.773C210.841 219.914 210.661 219.984 210.453 219.984C210.234 219.984 210.052 219.914 209.906 219.773C209.76 219.628 209.688 219.409 209.688 219.117ZM215.141 230H213.844V217.844H215.141V230ZM219.188 230H217.891V217.844H219.188V230ZM230.078 221.297C231.203 221.297 232.076 221.682 232.695 222.453C233.32 223.219 233.633 224.305 233.633 225.711C233.633 227.117 233.318 228.211 232.688 228.992C232.062 229.768 231.193 230.156 230.078 230.156C229.521 230.156 229.01 230.055 228.547 229.852C228.089 229.643 227.703 229.326 227.391 228.898H227.297L227.023 230H226.094V217.844H227.391V220.797C227.391 221.458 227.37 222.052 227.328 222.578H227.391C227.995 221.724 228.891 221.297 230.078 221.297ZM229.891 222.383C229.005 222.383 228.367 222.638 227.977 223.148C227.586 223.654 227.391 224.508 227.391 225.711C227.391 226.914 227.591 227.776 227.992 228.297C228.393 228.812 229.036 229.07 229.922 229.07C230.719 229.07 231.312 228.781 231.703 228.203C232.094 227.62 232.289 226.784 232.289 225.695C232.289 224.581 232.094 223.75 231.703 223.203C231.312 222.656 230.708 222.383 229.891 222.383ZM239.523 230.156C238.258 230.156 237.258 229.771 236.523 229C235.794 228.229 235.43 227.159 235.43 225.789C235.43 224.409 235.768 223.312 236.445 222.5C237.128 221.688 238.042 221.281 239.188 221.281C240.26 221.281 241.109 221.635 241.734 222.344C242.359 223.047 242.672 223.977 242.672 225.133V225.953H236.773C236.799 226.958 237.052 227.721 237.531 228.242C238.016 228.763 238.695 229.023 239.57 229.023C240.492 229.023 241.404 228.831 242.305 228.445V229.602C241.846 229.799 241.411 229.94 241 230.023C240.594 230.112 240.102 230.156 239.523 230.156ZM239.172 222.367C238.484 222.367 237.935 222.591 237.523 223.039C237.117 223.487 236.878 224.107 236.805 224.898H241.281C241.281 224.081 241.099 223.456 240.734 223.023C240.37 222.586 239.849 222.367 239.172 222.367ZM253.031 230.156C252.474 230.156 251.964 230.055 251.5 229.852C251.042 229.643 250.656 229.326 250.344 228.898H250.25C250.312 229.398 250.344 229.872 250.344 230.32V233.844H249.047V221.438H250.102L250.281 222.609H250.344C250.677 222.141 251.065 221.802 251.508 221.594C251.951 221.385 252.458 221.281 253.031 221.281C254.167 221.281 255.042 221.669 255.656 222.445C256.276 223.221 256.586 224.31 256.586 225.711C256.586 227.117 256.271 228.211 255.641 228.992C255.016 229.768 254.146 230.156 253.031 230.156ZM252.844 222.383C251.969 222.383 251.336 222.625 250.945 223.109C250.555 223.594 250.354 224.365 250.344 225.422V225.711C250.344 226.914 250.544 227.776 250.945 228.297C251.346 228.812 251.99 229.07 252.875 229.07C253.615 229.07 254.193 228.771 254.609 228.172C255.031 227.573 255.242 226.747 255.242 225.695C255.242 224.628 255.031 223.81 254.609 223.242C254.193 222.669 253.604 222.383 252.844 222.383ZM262.477 230.156C261.211 230.156 260.211 229.771 259.477 229C258.747 228.229 258.383 227.159 258.383 225.789C258.383 224.409 258.721 223.312 259.398 222.5C260.081 221.688 260.995 221.281 262.141 221.281C263.214 221.281 264.062 221.635 264.688 222.344C265.312 223.047 265.625 223.977 265.625 225.133V225.953H259.727C259.753 226.958 260.005 227.721 260.484 228.242C260.969 228.763 261.648 229.023 262.523 229.023C263.445 229.023 264.357 228.831 265.258 228.445V229.602C264.799 229.799 264.365 229.94 263.953 230.023C263.547 230.112 263.055 230.156 262.477 230.156ZM262.125 222.367C261.438 222.367 260.888 222.591 260.477 223.039C260.07 223.487 259.831 224.107 259.758 224.898H264.234C264.234 224.081 264.052 223.456 263.688 223.023C263.323 222.586 262.802 222.367 262.125 222.367ZM271.75 221.281C272.13 221.281 272.471 221.312 272.773 221.375L272.594 222.578C272.24 222.5 271.927 222.461 271.656 222.461C270.964 222.461 270.37 222.742 269.875 223.305C269.385 223.867 269.141 224.568 269.141 225.406V230H267.844V221.438H268.914L269.062 223.023H269.125C269.443 222.466 269.826 222.036 270.273 221.734C270.721 221.432 271.214 221.281 271.75 221.281ZM285.289 230V224.43C285.289 223.747 285.143 223.237 284.852 222.898C284.56 222.555 284.107 222.383 283.492 222.383C282.685 222.383 282.089 222.615 281.703 223.078C281.318 223.542 281.125 224.255 281.125 225.219V230H279.828V224.43C279.828 223.747 279.682 223.237 279.391 222.898C279.099 222.555 278.643 222.383 278.023 222.383C277.211 222.383 276.615 222.628 276.234 223.117C275.859 223.602 275.672 224.398 275.672 225.508V230H274.375V221.438H275.43L275.641 222.609H275.703C275.948 222.193 276.292 221.867 276.734 221.633C277.182 221.398 277.682 221.281 278.234 221.281C279.573 221.281 280.448 221.766 280.859 222.734H280.922C281.177 222.286 281.547 221.932 282.031 221.672C282.516 221.411 283.068 221.281 283.688 221.281C284.656 221.281 285.38 221.531 285.859 222.031C286.344 222.526 286.586 223.32 286.586 224.414V230H285.289ZM294.531 230L294.273 228.781H294.211C293.784 229.318 293.357 229.682 292.93 229.875C292.508 230.062 291.979 230.156 291.344 230.156C290.495 230.156 289.828 229.938 289.344 229.5C288.865 229.062 288.625 228.44 288.625 227.633C288.625 225.904 290.008 224.997 292.773 224.914L294.227 224.867V224.336C294.227 223.664 294.081 223.169 293.789 222.852C293.503 222.529 293.042 222.367 292.406 222.367C291.693 222.367 290.885 222.586 289.984 223.023L289.586 222.031C290.008 221.802 290.469 221.622 290.969 221.492C291.474 221.362 291.979 221.297 292.484 221.297C293.505 221.297 294.26 221.523 294.75 221.977C295.245 222.43 295.492 223.156 295.492 224.156V230H294.531ZM291.602 229.086C292.409 229.086 293.042 228.865 293.5 228.422C293.964 227.979 294.195 227.359 294.195 226.562V225.789L292.898 225.844C291.867 225.88 291.122 226.042 290.664 226.328C290.211 226.609 289.984 227.049 289.984 227.648C289.984 228.117 290.125 228.474 290.406 228.719C290.693 228.964 291.091 229.086 291.602 229.086ZM304.031 230V224.461C304.031 223.763 303.872 223.242 303.555 222.898C303.237 222.555 302.74 222.383 302.062 222.383C301.167 222.383 300.51 222.625 300.094 223.109C299.677 223.594 299.469 224.393 299.469 225.508V230H298.172V221.438H299.227L299.438 222.609H299.5C299.766 222.188 300.138 221.862 300.617 221.633C301.096 221.398 301.63 221.281 302.219 221.281C303.25 221.281 304.026 221.531 304.547 222.031C305.068 222.526 305.328 223.32 305.328 224.414V230H304.031ZM311.617 230.156C310.352 230.156 309.352 229.771 308.617 229C307.888 228.229 307.523 227.159 307.523 225.789C307.523 224.409 307.862 223.312 308.539 222.5C309.221 221.688 310.135 221.281 311.281 221.281C312.354 221.281 313.203 221.635 313.828 222.344C314.453 223.047 314.766 223.977 314.766 225.133V225.953H308.867C308.893 226.958 309.146 227.721 309.625 228.242C310.109 228.763 310.789 229.023 311.664 229.023C312.586 229.023 313.497 228.831 314.398 228.445V229.602C313.94 229.799 313.505 229.94 313.094 230.023C312.688 230.112 312.195 230.156 311.617 230.156ZM311.266 222.367C310.578 222.367 310.029 222.591 309.617 223.039C309.211 223.487 308.971 224.107 308.898 224.898H313.375C313.375 224.081 313.193 223.456 312.828 223.023C312.464 222.586 311.943 222.367 311.266 222.367ZM322.844 230V224.461C322.844 223.763 322.685 223.242 322.367 222.898C322.049 222.555 321.552 222.383 320.875 222.383C319.979 222.383 319.323 222.625 318.906 223.109C318.49 223.594 318.281 224.393 318.281 225.508V230H316.984V221.438H318.039L318.25 222.609H318.312C318.578 222.188 318.951 221.862 319.43 221.633C319.909 221.398 320.443 221.281 321.031 221.281C322.062 221.281 322.839 221.531 323.359 222.031C323.88 222.526 324.141 223.32 324.141 224.414V230H322.844ZM329.578 229.086C329.807 229.086 330.029 229.07 330.242 229.039C330.456 229.003 330.625 228.966 330.75 228.93V229.922C330.609 229.99 330.401 230.044 330.125 230.086C329.854 230.133 329.609 230.156 329.391 230.156C327.734 230.156 326.906 229.284 326.906 227.539V222.445H325.68V221.82L326.906 221.281L327.453 219.453H328.203V221.438H330.688V222.445H328.203V227.484C328.203 228 328.326 228.396 328.57 228.672C328.815 228.948 329.151 229.086 329.578 229.086ZM333.766 230H332.469V217.844H333.766V230ZM335.156 221.438H336.547L338.422 226.32C338.833 227.435 339.089 228.24 339.188 228.734H339.25C339.318 228.469 339.458 228.016 339.672 227.375C339.891 226.729 340.599 224.75 341.797 221.438H343.188L339.508 231.188C339.143 232.151 338.716 232.833 338.227 233.234C337.742 233.641 337.146 233.844 336.438 233.844C336.042 233.844 335.651 233.799 335.266 233.711V232.672C335.552 232.734 335.872 232.766 336.227 232.766C337.117 232.766 337.753 232.266 338.133 231.266L338.609 230.047L335.156 221.438ZM128.992 252.156C127.727 252.156 126.727 251.771 125.992 251C125.263 250.229 124.898 249.159 124.898 247.789C124.898 246.409 125.237 245.312 125.914 244.5C126.596 243.688 127.51 243.281 128.656 243.281C129.729 243.281 130.578 243.635 131.203 244.344C131.828 245.047 132.141 245.977 132.141 247.133V247.953H126.242C126.268 248.958 126.521 249.721 127 250.242C127.484 250.763 128.164 251.023 129.039 251.023C129.961 251.023 130.872 250.831 131.773 250.445V251.602C131.315 251.799 130.88 251.94 130.469 252.023C130.062 252.112 129.57 252.156 128.992 252.156ZM128.641 244.367C127.953 244.367 127.404 244.591 126.992 245.039C126.586 245.487 126.346 246.107 126.273 246.898H130.75C130.75 246.081 130.568 245.456 130.203 245.023C129.839 244.586 129.318 244.367 128.641 244.367ZM138.266 243.281C138.646 243.281 138.987 243.312 139.289 243.375L139.109 244.578C138.755 244.5 138.443 244.461 138.172 244.461C137.479 244.461 136.885 244.742 136.391 245.305C135.901 245.867 135.656 246.568 135.656 247.406V252H134.359V243.438H135.43L135.578 245.023H135.641C135.958 244.466 136.341 244.036 136.789 243.734C137.237 243.432 137.729 243.281 138.266 243.281ZM146.156 252L145.898 250.781H145.836C145.409 251.318 144.982 251.682 144.555 251.875C144.133 252.062 143.604 252.156 142.969 252.156C142.12 252.156 141.453 251.938 140.969 251.5C140.49 251.062 140.25 250.44 140.25 249.633C140.25 247.904 141.633 246.997 144.398 246.914L145.852 246.867V246.336C145.852 245.664 145.706 245.169 145.414 244.852C145.128 244.529 144.667 244.367 144.031 244.367C143.318 244.367 142.51 244.586 141.609 245.023L141.211 244.031C141.633 243.802 142.094 243.622 142.594 243.492C143.099 243.362 143.604 243.297 144.109 243.297C145.13 243.297 145.885 243.523 146.375 243.977C146.87 244.43 147.117 245.156 147.117 246.156V252H146.156ZM143.227 251.086C144.034 251.086 144.667 250.865 145.125 250.422C145.589 249.979 145.82 249.359 145.82 248.562V247.789L144.523 247.844C143.492 247.88 142.747 248.042 142.289 248.328C141.836 248.609 141.609 249.049 141.609 249.648C141.609 250.117 141.75 250.474 142.031 250.719C142.318 250.964 142.716 251.086 143.227 251.086ZM155.32 249.664C155.32 250.461 155.023 251.076 154.43 251.508C153.836 251.94 153.003 252.156 151.93 252.156C150.794 252.156 149.909 251.977 149.273 251.617V250.414C149.685 250.622 150.125 250.786 150.594 250.906C151.068 251.026 151.523 251.086 151.961 251.086C152.638 251.086 153.159 250.979 153.523 250.766C153.888 250.547 154.07 250.216 154.07 249.773C154.07 249.44 153.924 249.156 153.633 248.922C153.346 248.682 152.784 248.401 151.945 248.078C151.148 247.781 150.581 247.523 150.242 247.305C149.909 247.081 149.659 246.828 149.492 246.547C149.331 246.266 149.25 245.93 149.25 245.539C149.25 244.841 149.534 244.292 150.102 243.891C150.669 243.484 151.448 243.281 152.438 243.281C153.359 243.281 154.26 243.469 155.141 243.844L154.68 244.898C153.82 244.544 153.042 244.367 152.344 244.367C151.729 244.367 151.266 244.464 150.953 244.656C150.641 244.849 150.484 245.115 150.484 245.453C150.484 245.682 150.542 245.878 150.656 246.039C150.776 246.201 150.966 246.354 151.227 246.5C151.487 246.646 151.987 246.857 152.727 247.133C153.742 247.503 154.427 247.875 154.781 248.25C155.141 248.625 155.32 249.096 155.32 249.664ZM161.055 252.156C159.789 252.156 158.789 251.771 158.055 251C157.326 250.229 156.961 249.159 156.961 247.789C156.961 246.409 157.299 245.312 157.977 244.5C158.659 243.688 159.573 243.281 160.719 243.281C161.792 243.281 162.641 243.635 163.266 244.344C163.891 245.047 164.203 245.977 164.203 247.133V247.953H158.305C158.331 248.958 158.583 249.721 159.062 250.242C159.547 250.763 160.227 251.023 161.102 251.023C162.023 251.023 162.935 250.831 163.836 250.445V251.602C163.378 251.799 162.943 251.94 162.531 252.023C162.125 252.112 161.633 252.156 161.055 252.156ZM160.703 244.367C160.016 244.367 159.466 244.591 159.055 245.039C158.648 245.487 158.409 246.107 158.336 246.898H162.812C162.812 246.081 162.63 245.456 162.266 245.023C161.901 244.586 161.38 244.367 160.703 244.367ZM172.25 250.852H172.18C171.581 251.721 170.685 252.156 169.492 252.156C168.372 252.156 167.5 251.773 166.875 251.008C166.255 250.242 165.945 249.154 165.945 247.742C165.945 246.331 166.258 245.234 166.883 244.453C167.508 243.672 168.378 243.281 169.492 243.281C170.654 243.281 171.544 243.703 172.164 244.547H172.266L172.211 243.93L172.18 243.328V239.844H173.477V252H172.422L172.25 250.852ZM169.656 251.07C170.542 251.07 171.182 250.831 171.578 250.352C171.979 249.867 172.18 249.089 172.18 248.016V247.742C172.18 246.529 171.977 245.664 171.57 245.148C171.169 244.628 170.526 244.367 169.641 244.367C168.88 244.367 168.297 244.664 167.891 245.258C167.49 245.846 167.289 246.68 167.289 247.758C167.289 248.852 167.49 249.677 167.891 250.234C168.292 250.792 168.88 251.07 169.656 251.07ZM177.406 248.852H176.586L176.188 240.578H177.805L177.406 248.852ZM176.047 251.172C176.047 250.464 176.359 250.109 176.984 250.109C177.286 250.109 177.518 250.201 177.68 250.383C177.846 250.565 177.93 250.828 177.93 251.172C177.93 251.505 177.846 251.766 177.68 251.953C177.513 252.135 177.281 252.227 176.984 252.227C176.714 252.227 176.49 252.146 176.312 251.984C176.135 251.818 176.047 251.547 176.047 251.172ZM181.688 248.852H180.867L180.469 240.578H182.086L181.688 248.852ZM180.328 251.172C180.328 250.464 180.641 250.109 181.266 250.109C181.568 250.109 181.799 250.201 181.961 250.383C182.128 250.565 182.211 250.828 182.211 251.172C182.211 251.505 182.128 251.766 181.961 251.953C181.794 252.135 181.562 252.227 181.266 252.227C180.995 252.227 180.771 252.146 180.594 251.984C180.417 251.818 180.328 251.547 180.328 251.172ZM185.969 248.852H185.148L184.75 240.578H186.367L185.969 248.852ZM184.609 251.172C184.609 250.464 184.922 250.109 185.547 250.109C185.849 250.109 186.081 250.201 186.242 250.383C186.409 250.565 186.492 250.828 186.492 251.172C186.492 251.505 186.409 251.766 186.242 251.953C186.076 252.135 185.844 252.227 185.547 252.227C185.276 252.227 185.052 252.146 184.875 251.984C184.698 251.818 184.609 251.547 184.609 251.172ZM200.609 252L199.188 248.367H194.609L193.203 252H191.859L196.375 240.531H197.492L201.984 252H200.609ZM198.773 247.172L197.445 243.633C197.273 243.185 197.096 242.635 196.914 241.984C196.799 242.484 196.635 243.034 196.422 243.633L195.078 247.172H198.773ZM207.266 243.281C207.646 243.281 207.987 243.312 208.289 243.375L208.109 244.578C207.755 244.5 207.443 244.461 207.172 244.461C206.479 244.461 205.885 244.742 205.391 245.305C204.901 245.867 204.656 246.568 204.656 247.406V252H203.359V243.438H204.43L204.578 245.023H204.641C204.958 244.466 205.341 244.036 205.789 243.734C206.237 243.432 206.729 243.281 207.266 243.281ZM213.508 252.156C212.242 252.156 211.242 251.771 210.508 251C209.779 250.229 209.414 249.159 209.414 247.789C209.414 246.409 209.753 245.312 210.43 244.5C211.112 243.688 212.026 243.281 213.172 243.281C214.245 243.281 215.094 243.635 215.719 244.344C216.344 245.047 216.656 245.977 216.656 247.133V247.953H210.758C210.784 248.958 211.036 249.721 211.516 250.242C212 250.763 212.68 251.023 213.555 251.023C214.477 251.023 215.388 250.831 216.289 250.445V251.602C215.831 251.799 215.396 251.94 214.984 252.023C214.578 252.112 214.086 252.156 213.508 252.156ZM213.156 244.367C212.469 244.367 211.919 244.591 211.508 245.039C211.102 245.487 210.862 246.107 210.789 246.898H215.266C215.266 246.081 215.083 245.456 214.719 245.023C214.354 244.586 213.833 244.367 213.156 244.367ZM221.672 243.438H223.062L224.938 248.32C225.349 249.435 225.604 250.24 225.703 250.734H225.766C225.833 250.469 225.974 250.016 226.188 249.375C226.406 248.729 227.115 246.75 228.312 243.438H229.703L226.023 253.188C225.659 254.151 225.232 254.833 224.742 255.234C224.258 255.641 223.661 255.844 222.953 255.844C222.557 255.844 222.167 255.799 221.781 255.711V254.672C222.068 254.734 222.388 254.766 222.742 254.766C223.633 254.766 224.268 254.266 224.648 253.266L225.125 252.047L221.672 243.438ZM238.484 247.711C238.484 249.107 238.133 250.198 237.43 250.984C236.727 251.766 235.755 252.156 234.516 252.156C233.75 252.156 233.07 251.977 232.477 251.617C231.883 251.258 231.424 250.742 231.102 250.07C230.779 249.398 230.617 248.612 230.617 247.711C230.617 246.315 230.966 245.229 231.664 244.453C232.362 243.672 233.331 243.281 234.57 243.281C235.768 243.281 236.719 243.68 237.422 244.477C238.13 245.273 238.484 246.352 238.484 247.711ZM231.961 247.711C231.961 248.805 232.18 249.638 232.617 250.211C233.055 250.784 233.698 251.07 234.547 251.07C235.396 251.07 236.039 250.786 236.477 250.219C236.919 249.646 237.141 248.81 237.141 247.711C237.141 246.622 236.919 245.797 236.477 245.234C236.039 244.667 235.391 244.383 234.531 244.383C233.682 244.383 233.042 244.661 232.609 245.219C232.177 245.776 231.961 246.607 231.961 247.711ZM241.984 243.438V248.992C241.984 249.69 242.143 250.211 242.461 250.555C242.779 250.898 243.276 251.07 243.953 251.07C244.849 251.07 245.503 250.826 245.914 250.336C246.331 249.846 246.539 249.047 246.539 247.938V243.438H247.836V252H246.766L246.578 250.852H246.508C246.242 251.273 245.872 251.596 245.398 251.82C244.93 252.044 244.393 252.156 243.789 252.156C242.747 252.156 241.966 251.909 241.445 251.414C240.93 250.919 240.672 250.128 240.672 249.039V243.438H241.984ZM260.273 249.664C260.273 250.461 259.977 251.076 259.383 251.508C258.789 251.94 257.956 252.156 256.883 252.156C255.747 252.156 254.862 251.977 254.227 251.617V250.414C254.638 250.622 255.078 250.786 255.547 250.906C256.021 251.026 256.477 251.086 256.914 251.086C257.591 251.086 258.112 250.979 258.477 250.766C258.841 250.547 259.023 250.216 259.023 249.773C259.023 249.44 258.878 249.156 258.586 248.922C258.299 248.682 257.737 248.401 256.898 248.078C256.102 247.781 255.534 247.523 255.195 247.305C254.862 247.081 254.612 246.828 254.445 246.547C254.284 246.266 254.203 245.93 254.203 245.539C254.203 244.841 254.487 244.292 255.055 243.891C255.622 243.484 256.401 243.281 257.391 243.281C258.312 243.281 259.214 243.469 260.094 243.844L259.633 244.898C258.773 244.544 257.995 244.367 257.297 244.367C256.682 244.367 256.219 244.464 255.906 244.656C255.594 244.849 255.438 245.115 255.438 245.453C255.438 245.682 255.495 245.878 255.609 246.039C255.729 246.201 255.919 246.354 256.18 246.5C256.44 246.646 256.94 246.857 257.68 247.133C258.695 247.503 259.38 247.875 259.734 248.25C260.094 248.625 260.273 249.096 260.273 249.664ZM263.609 243.438V248.992C263.609 249.69 263.768 250.211 264.086 250.555C264.404 250.898 264.901 251.07 265.578 251.07C266.474 251.07 267.128 250.826 267.539 250.336C267.956 249.846 268.164 249.047 268.164 247.938V243.438H269.461V252H268.391L268.203 250.852H268.133C267.867 251.273 267.497 251.596 267.023 251.82C266.555 252.044 266.018 252.156 265.414 252.156C264.372 252.156 263.591 251.909 263.07 251.414C262.555 250.919 262.297 250.128 262.297 249.039V243.438H263.609ZM276.125 243.281C276.505 243.281 276.846 243.312 277.148 243.375L276.969 244.578C276.615 244.5 276.302 244.461 276.031 244.461C275.339 244.461 274.745 244.742 274.25 245.305C273.76 245.867 273.516 246.568 273.516 247.406V252H272.219V243.438H273.289L273.438 245.023H273.5C273.818 244.466 274.201 244.036 274.648 243.734C275.096 243.432 275.589 243.281 276.125 243.281ZM282.367 252.156C281.102 252.156 280.102 251.771 279.367 251C278.638 250.229 278.273 249.159 278.273 247.789C278.273 246.409 278.612 245.312 279.289 244.5C279.971 243.688 280.885 243.281 282.031 243.281C283.104 243.281 283.953 243.635 284.578 244.344C285.203 245.047 285.516 245.977 285.516 247.133V247.953H279.617C279.643 248.958 279.896 249.721 280.375 250.242C280.859 250.763 281.539 251.023 282.414 251.023C283.336 251.023 284.247 250.831 285.148 250.445V251.602C284.69 251.799 284.255 251.94 283.844 252.023C283.438 252.112 282.945 252.156 282.367 252.156ZM282.016 244.367C281.328 244.367 280.779 244.591 280.367 245.039C279.961 245.487 279.721 246.107 279.648 246.898H284.125C284.125 246.081 283.943 245.456 283.578 245.023C283.214 244.586 282.693 244.367 282.016 244.367ZM294.656 251.086C294.885 251.086 295.107 251.07 295.32 251.039C295.534 251.003 295.703 250.966 295.828 250.93V251.922C295.688 251.99 295.479 252.044 295.203 252.086C294.932 252.133 294.688 252.156 294.469 252.156C292.812 252.156 291.984 251.284 291.984 249.539V244.445H290.758V243.82L291.984 243.281L292.531 241.453H293.281V243.438H295.766V244.445H293.281V249.484C293.281 250 293.404 250.396 293.648 250.672C293.893 250.948 294.229 251.086 294.656 251.086ZM304.938 247.711C304.938 249.107 304.586 250.198 303.883 250.984C303.18 251.766 302.208 252.156 300.969 252.156C300.203 252.156 299.523 251.977 298.93 251.617C298.336 251.258 297.878 250.742 297.555 250.07C297.232 249.398 297.07 248.612 297.07 247.711C297.07 246.315 297.419 245.229 298.117 244.453C298.815 243.672 299.784 243.281 301.023 243.281C302.221 243.281 303.172 243.68 303.875 244.477C304.583 245.273 304.938 246.352 304.938 247.711ZM298.414 247.711C298.414 248.805 298.633 249.638 299.07 250.211C299.508 250.784 300.151 251.07 301 251.07C301.849 251.07 302.492 250.786 302.93 250.219C303.372 249.646 303.594 248.81 303.594 247.711C303.594 246.622 303.372 245.797 302.93 245.234C302.492 244.667 301.844 244.383 300.984 244.383C300.135 244.383 299.495 244.661 299.062 245.219C298.63 245.776 298.414 246.607 298.414 247.711ZM317.203 250.852H317.133C316.534 251.721 315.638 252.156 314.445 252.156C313.326 252.156 312.453 251.773 311.828 251.008C311.208 250.242 310.898 249.154 310.898 247.742C310.898 246.331 311.211 245.234 311.836 244.453C312.461 243.672 313.331 243.281 314.445 243.281C315.607 243.281 316.497 243.703 317.117 244.547H317.219L317.164 243.93L317.133 243.328V239.844H318.43V252H317.375L317.203 250.852ZM314.609 251.07C315.495 251.07 316.135 250.831 316.531 250.352C316.932 249.867 317.133 249.089 317.133 248.016V247.742C317.133 246.529 316.93 245.664 316.523 245.148C316.122 244.628 315.479 244.367 314.594 244.367C313.833 244.367 313.25 244.664 312.844 245.258C312.443 245.846 312.242 246.68 312.242 247.758C312.242 248.852 312.443 249.677 312.844 250.234C313.245 250.792 313.833 251.07 314.609 251.07ZM324.805 252.156C323.539 252.156 322.539 251.771 321.805 251C321.076 250.229 320.711 249.159 320.711 247.789C320.711 246.409 321.049 245.312 321.727 244.5C322.409 243.688 323.323 243.281 324.469 243.281C325.542 243.281 326.391 243.635 327.016 244.344C327.641 245.047 327.953 245.977 327.953 247.133V247.953H322.055C322.081 248.958 322.333 249.721 322.812 250.242C323.297 250.763 323.977 251.023 324.852 251.023C325.773 251.023 326.685 250.831 327.586 250.445V251.602C327.128 251.799 326.693 251.94 326.281 252.023C325.875 252.112 325.383 252.156 324.805 252.156ZM324.453 244.367C323.766 244.367 323.216 244.591 322.805 245.039C322.398 245.487 322.159 246.107 322.086 246.898H326.562C326.562 246.081 326.38 245.456 326.016 245.023C325.651 244.586 325.13 244.367 324.453 244.367ZM331.469 252H330.172V239.844H331.469V252ZM337.836 252.156C336.57 252.156 335.57 251.771 334.836 251C334.107 250.229 333.742 249.159 333.742 247.789C333.742 246.409 334.081 245.312 334.758 244.5C335.44 243.688 336.354 243.281 337.5 243.281C338.573 243.281 339.422 243.635 340.047 244.344C340.672 245.047 340.984 245.977 340.984 247.133V247.953H335.086C335.112 248.958 335.365 249.721 335.844 250.242C336.328 250.763 337.008 251.023 337.883 251.023C338.805 251.023 339.716 250.831 340.617 250.445V251.602C340.159 251.799 339.724 251.94 339.312 252.023C338.906 252.112 338.414 252.156 337.836 252.156ZM337.484 244.367C336.797 244.367 336.247 244.591 335.836 245.039C335.43 245.487 335.19 246.107 335.117 246.898H339.594C339.594 246.081 339.411 245.456 339.047 245.023C338.682 244.586 338.161 244.367 337.484 244.367ZM345.969 251.086C346.198 251.086 346.419 251.07 346.633 251.039C346.846 251.003 347.016 250.966 347.141 250.93V251.922C347 251.99 346.792 252.044 346.516 252.086C346.245 252.133 346 252.156 345.781 252.156C344.125 252.156 343.297 251.284 343.297 249.539V244.445H342.07V243.82L343.297 243.281L343.844 241.453H344.594V243.438H347.078V244.445H344.594V249.484C344.594 250 344.716 250.396 344.961 250.672C345.206 250.948 345.542 251.086 345.969 251.086ZM352.477 252.156C351.211 252.156 350.211 251.771 349.477 251C348.747 250.229 348.383 249.159 348.383 247.789C348.383 246.409 348.721 245.312 349.398 244.5C350.081 243.688 350.995 243.281 352.141 243.281C353.214 243.281 354.062 243.635 354.688 244.344C355.312 245.047 355.625 245.977 355.625 247.133V247.953H349.727C349.753 248.958 350.005 249.721 350.484 250.242C350.969 250.763 351.648 251.023 352.523 251.023C353.445 251.023 354.357 250.831 355.258 250.445V251.602C354.799 251.799 354.365 251.94 353.953 252.023C353.547 252.112 353.055 252.156 352.477 252.156ZM352.125 244.367C351.438 244.367 350.888 244.591 350.477 245.039C350.07 245.487 349.831 246.107 349.758 246.898H354.234C354.234 246.081 354.052 245.456 353.688 245.023C353.323 244.586 352.802 244.367 352.125 244.367ZM130.641 274L130.383 272.781H130.32C129.893 273.318 129.466 273.682 129.039 273.875C128.617 274.062 128.089 274.156 127.453 274.156C126.604 274.156 125.938 273.938 125.453 273.5C124.974 273.062 124.734 272.44 124.734 271.633C124.734 269.904 126.117 268.997 128.883 268.914L130.336 268.867V268.336C130.336 267.664 130.19 267.169 129.898 266.852C129.612 266.529 129.151 266.367 128.516 266.367C127.802 266.367 126.995 266.586 126.094 267.023L125.695 266.031C126.117 265.802 126.578 265.622 127.078 265.492C127.583 265.362 128.089 265.297 128.594 265.297C129.615 265.297 130.37 265.523 130.859 265.977C131.354 266.43 131.602 267.156 131.602 268.156V274H130.641ZM127.711 273.086C128.518 273.086 129.151 272.865 129.609 272.422C130.073 271.979 130.305 271.359 130.305 270.562V269.789L129.008 269.844C127.977 269.88 127.232 270.042 126.773 270.328C126.32 270.609 126.094 271.049 126.094 271.648C126.094 272.117 126.234 272.474 126.516 272.719C126.802 272.964 127.201 273.086 127.711 273.086ZM135.578 274H134.281V261.844H135.578V274ZM139.625 274H138.328V261.844H139.625V274ZM152.359 272.852H152.289C151.69 273.721 150.794 274.156 149.602 274.156C148.482 274.156 147.609 273.773 146.984 273.008C146.365 272.242 146.055 271.154 146.055 269.742C146.055 268.331 146.367 267.234 146.992 266.453C147.617 265.672 148.487 265.281 149.602 265.281C150.763 265.281 151.654 265.703 152.273 266.547H152.375L152.32 265.93L152.289 265.328V261.844H153.586V274H152.531L152.359 272.852ZM149.766 273.07C150.651 273.07 151.292 272.831 151.688 272.352C152.089 271.867 152.289 271.089 152.289 270.016V269.742C152.289 268.529 152.086 267.664 151.68 267.148C151.279 266.628 150.635 266.367 149.75 266.367C148.99 266.367 148.406 266.664 148 267.258C147.599 267.846 147.398 268.68 147.398 269.758C147.398 270.852 147.599 271.677 148 272.234C148.401 272.792 148.99 273.07 149.766 273.07ZM159.961 274.156C158.695 274.156 157.695 273.771 156.961 273C156.232 272.229 155.867 271.159 155.867 269.789C155.867 268.409 156.206 267.312 156.883 266.5C157.565 265.688 158.479 265.281 159.625 265.281C160.698 265.281 161.547 265.635 162.172 266.344C162.797 267.047 163.109 267.977 163.109 269.133V269.953H157.211C157.237 270.958 157.49 271.721 157.969 272.242C158.453 272.763 159.133 273.023 160.008 273.023C160.93 273.023 161.841 272.831 162.742 272.445V273.602C162.284 273.799 161.849 273.94 161.438 274.023C161.031 274.112 160.539 274.156 159.961 274.156ZM159.609 266.367C158.922 266.367 158.372 266.591 157.961 267.039C157.555 267.487 157.315 268.107 157.242 268.898H161.719C161.719 268.081 161.536 267.456 161.172 267.023C160.807 266.586 160.286 266.367 159.609 266.367ZM167.203 274L163.953 265.438H165.344L167.188 270.516C167.604 271.703 167.849 272.474 167.922 272.828H167.984C168.042 272.552 168.221 271.982 168.523 271.117C168.831 270.247 169.516 268.354 170.578 265.438H171.969L168.719 274H167.203ZM174.641 274H173.344V265.438H174.641V274ZM173.234 263.117C173.234 262.82 173.307 262.604 173.453 262.469C173.599 262.328 173.781 262.258 174 262.258C174.208 262.258 174.388 262.328 174.539 262.469C174.69 262.609 174.766 262.826 174.766 263.117C174.766 263.409 174.69 263.628 174.539 263.773C174.388 263.914 174.208 263.984 174 263.984C173.781 263.984 173.599 263.914 173.453 263.773C173.307 263.628 173.234 263.409 173.234 263.117ZM180.812 274.156C179.573 274.156 178.612 273.776 177.93 273.016C177.253 272.25 176.914 271.169 176.914 269.773C176.914 268.341 177.258 267.234 177.945 266.453C178.638 265.672 179.622 265.281 180.898 265.281C181.31 265.281 181.721 265.326 182.133 265.414C182.544 265.503 182.867 265.607 183.102 265.727L182.703 266.828C182.417 266.714 182.104 266.62 181.766 266.547C181.427 266.469 181.128 266.43 180.867 266.43C179.128 266.43 178.258 267.539 178.258 269.758C178.258 270.81 178.469 271.617 178.891 272.18C179.318 272.742 179.948 273.023 180.781 273.023C181.495 273.023 182.227 272.87 182.977 272.562V273.711C182.404 274.008 181.682 274.156 180.812 274.156ZM188.633 274.156C187.367 274.156 186.367 273.771 185.633 273C184.904 272.229 184.539 271.159 184.539 269.789C184.539 268.409 184.878 267.312 185.555 266.5C186.237 265.688 187.151 265.281 188.297 265.281C189.37 265.281 190.219 265.635 190.844 266.344C191.469 267.047 191.781 267.977 191.781 269.133V269.953H185.883C185.909 270.958 186.161 271.721 186.641 272.242C187.125 272.763 187.805 273.023 188.68 273.023C189.602 273.023 190.513 272.831 191.414 272.445V273.602C190.956 273.799 190.521 273.94 190.109 274.023C189.703 274.112 189.211 274.156 188.633 274.156ZM188.281 266.367C187.594 266.367 187.044 266.591 186.633 267.039C186.227 267.487 185.987 268.107 185.914 268.898H190.391C190.391 268.081 190.208 267.456 189.844 267.023C189.479 266.586 188.958 266.367 188.281 266.367ZM199.523 271.664C199.523 272.461 199.227 273.076 198.633 273.508C198.039 273.94 197.206 274.156 196.133 274.156C194.997 274.156 194.112 273.977 193.477 273.617V272.414C193.888 272.622 194.328 272.786 194.797 272.906C195.271 273.026 195.727 273.086 196.164 273.086C196.841 273.086 197.362 272.979 197.727 272.766C198.091 272.547 198.273 272.216 198.273 271.773C198.273 271.44 198.128 271.156 197.836 270.922C197.549 270.682 196.987 270.401 196.148 270.078C195.352 269.781 194.784 269.523 194.445 269.305C194.112 269.081 193.862 268.828 193.695 268.547C193.534 268.266 193.453 267.93 193.453 267.539C193.453 266.841 193.737 266.292 194.305 265.891C194.872 265.484 195.651 265.281 196.641 265.281C197.562 265.281 198.464 265.469 199.344 265.844L198.883 266.898C198.023 266.544 197.245 266.367 196.547 266.367C195.932 266.367 195.469 266.464 195.156 266.656C194.844 266.849 194.688 267.115 194.688 267.453C194.688 267.682 194.745 267.878 194.859 268.039C194.979 268.201 195.169 268.354 195.43 268.5C195.69 268.646 196.19 268.857 196.93 269.133C197.945 269.503 198.63 269.875 198.984 270.25C199.344 270.625 199.523 271.096 199.523 271.664ZM202.523 270.852V270.43C202.523 269.82 202.617 269.32 202.805 268.93C202.992 268.534 203.341 268.117 203.852 267.68C204.56 267.081 205.005 266.63 205.188 266.328C205.375 266.026 205.469 265.661 205.469 265.234C205.469 264.703 205.297 264.294 204.953 264.008C204.615 263.716 204.125 263.57 203.484 263.57C203.073 263.57 202.672 263.62 202.281 263.719C201.891 263.812 201.443 263.987 200.938 264.242L200.477 263.188C201.461 262.672 202.49 262.414 203.562 262.414C204.557 262.414 205.331 262.659 205.883 263.148C206.435 263.638 206.711 264.328 206.711 265.219C206.711 265.599 206.659 265.935 206.555 266.227C206.456 266.513 206.307 266.786 206.109 267.047C205.911 267.302 205.484 267.716 204.828 268.289C204.302 268.737 203.953 269.109 203.781 269.406C203.615 269.703 203.531 270.099 203.531 270.594V270.852H202.523ZM202.141 273.172C202.141 272.464 202.453 272.109 203.078 272.109C203.38 272.109 203.612 272.201 203.773 272.383C203.94 272.565 204.023 272.828 204.023 273.172C204.023 273.505 203.94 273.766 203.773 273.953C203.607 274.135 203.375 274.227 203.078 274.227C202.807 274.227 202.583 274.146 202.406 273.984C202.229 273.818 202.141 273.547 202.141 273.172Z" fill="#424E54"/>
<path d="M229.571 317.764C228.632 317.764 227.894 318.096 227.356 318.762C226.819 319.427 226.55 320.345 226.55 321.517C226.55 322.743 226.807 323.67 227.322 324.299C227.842 324.928 228.591 325.242 229.571 325.242C229.995 325.242 230.405 325.201 230.802 325.119C231.198 325.033 231.611 324.923 232.039 324.791V326.192C231.255 326.489 230.367 326.637 229.373 326.637C227.91 326.637 226.787 326.195 226.003 325.311C225.219 324.422 224.827 323.153 224.827 321.503C224.827 320.464 225.016 319.555 225.395 318.775C225.777 317.996 226.329 317.399 227.049 316.984C227.769 316.57 228.614 316.362 229.585 316.362C230.606 316.362 231.549 316.576 232.415 317.005L231.827 318.365C231.49 318.206 231.132 318.067 230.754 317.948C230.38 317.825 229.986 317.764 229.571 317.764ZM238.752 326.5L238.431 325.447H238.376C238.011 325.908 237.645 326.222 237.275 326.391C236.906 326.555 236.432 326.637 235.854 326.637C235.111 326.637 234.53 326.436 234.11 326.035C233.696 325.634 233.488 325.067 233.488 324.333C233.488 323.554 233.778 322.966 234.356 322.569C234.935 322.173 235.817 321.956 237.002 321.92L238.308 321.879V321.476C238.308 320.993 238.194 320.632 237.966 320.396C237.743 320.154 237.394 320.033 236.92 320.033C236.533 320.033 236.161 320.09 235.806 320.204C235.45 320.318 235.108 320.452 234.78 320.607L234.261 319.459C234.671 319.245 235.12 319.083 235.607 318.974C236.095 318.86 236.555 318.803 236.988 318.803C237.95 318.803 238.674 319.012 239.162 319.432C239.654 319.851 239.9 320.509 239.9 321.407V326.5H238.752ZM236.359 325.406C236.943 325.406 237.41 325.244 237.761 324.921C238.116 324.593 238.294 324.135 238.294 323.547V322.891L237.323 322.932C236.567 322.959 236.015 323.087 235.669 323.314C235.327 323.538 235.156 323.882 235.156 324.347C235.156 324.684 235.257 324.946 235.457 325.133C235.658 325.315 235.958 325.406 236.359 325.406ZM248.794 326.5H247.181V321.852C247.181 321.268 247.062 320.833 246.825 320.546C246.593 320.259 246.221 320.115 245.711 320.115C245.032 320.115 244.535 320.316 244.221 320.717C243.906 321.118 243.749 321.79 243.749 322.733V326.5H242.143V318.939H243.4L243.626 319.931H243.708C243.936 319.571 244.259 319.293 244.679 319.097C245.098 318.901 245.563 318.803 246.073 318.803C247.887 318.803 248.794 319.726 248.794 321.571V326.5ZM254.078 326.637C252.934 326.637 252.064 326.304 251.467 325.639C250.874 324.969 250.578 324.009 250.578 322.761C250.578 321.489 250.888 320.512 251.508 319.828C252.132 319.145 253.032 318.803 254.208 318.803C255.006 318.803 255.723 318.951 256.361 319.247L255.876 320.539C255.197 320.275 254.636 320.143 254.194 320.143C252.886 320.143 252.232 321.011 252.232 322.747C252.232 323.595 252.394 324.233 252.718 324.661C253.046 325.085 253.524 325.297 254.153 325.297C254.869 325.297 255.546 325.119 256.184 324.764V326.165C255.896 326.334 255.589 326.454 255.261 326.527C254.937 326.6 254.543 326.637 254.078 326.637ZM261.263 326.637C260.087 326.637 259.166 326.295 258.501 325.611C257.84 324.923 257.51 323.978 257.51 322.774C257.51 321.539 257.817 320.569 258.433 319.862C259.048 319.156 259.893 318.803 260.969 318.803C261.967 318.803 262.755 319.106 263.334 319.712C263.913 320.318 264.202 321.152 264.202 322.214V323.082H259.164C259.187 323.816 259.385 324.381 259.759 324.777C260.132 325.169 260.659 325.365 261.338 325.365C261.785 325.365 262.199 325.324 262.582 325.242C262.969 325.156 263.384 325.014 263.826 324.818V326.124C263.434 326.311 263.038 326.443 262.637 326.521C262.236 326.598 261.778 326.637 261.263 326.637ZM260.969 320.02C260.458 320.02 260.048 320.181 259.738 320.505C259.433 320.828 259.251 321.3 259.191 321.92H262.623C262.614 321.296 262.464 320.824 262.172 320.505C261.88 320.181 261.479 320.02 260.969 320.02ZM267.634 326.5H266.027V315.863H267.634V326.5Z" fill="#007BC1"/>
<rect x="208.5" y="303.5" width="76" height="35" rx="3.5" stroke="#007BC1"/>
<path d="M318.571 317.764C317.632 317.764 316.894 318.096 316.356 318.762C315.819 319.427 315.55 320.345 315.55 321.517C315.55 322.743 315.807 323.67 316.322 324.299C316.842 324.928 317.591 325.242 318.571 325.242C318.995 325.242 319.405 325.201 319.802 325.119C320.198 325.033 320.611 324.923 321.039 324.791V326.192C320.255 326.489 319.367 326.637 318.373 326.637C316.91 326.637 315.787 326.195 315.003 325.311C314.219 324.422 313.827 323.153 313.827 321.503C313.827 320.464 314.016 319.555 314.395 318.775C314.777 317.996 315.329 317.399 316.049 316.984C316.769 316.57 317.614 316.362 318.585 316.362C319.606 316.362 320.549 316.576 321.415 317.005L320.827 318.365C320.49 318.206 320.132 318.067 319.754 317.948C319.38 317.825 318.986 317.764 318.571 317.764ZM329.728 322.706C329.728 323.941 329.411 324.905 328.777 325.598C328.144 326.29 327.262 326.637 326.132 326.637C325.425 326.637 324.801 326.477 324.259 326.158C323.716 325.839 323.299 325.381 323.008 324.784C322.716 324.187 322.57 323.494 322.57 322.706C322.57 321.48 322.885 320.523 323.514 319.835C324.143 319.147 325.029 318.803 326.173 318.803C327.267 318.803 328.132 319.156 328.771 319.862C329.409 320.564 329.728 321.512 329.728 322.706ZM324.225 322.706C324.225 324.451 324.869 325.324 326.159 325.324C327.435 325.324 328.073 324.451 328.073 322.706C328.073 320.979 327.431 320.115 326.146 320.115C325.471 320.115 324.981 320.339 324.676 320.785C324.375 321.232 324.225 321.872 324.225 322.706ZM338.231 326.5H336.618V321.852C336.618 321.268 336.5 320.833 336.263 320.546C336.03 320.259 335.659 320.115 335.148 320.115C334.469 320.115 333.973 320.316 333.658 320.717C333.344 321.118 333.187 321.79 333.187 322.733V326.5H331.58V318.939H332.838L333.063 319.931H333.146C333.373 319.571 333.697 319.293 334.116 319.097C334.535 318.901 335 318.803 335.511 318.803C337.325 318.803 338.231 319.726 338.231 321.571V326.5ZM344.261 320.156H342.415V326.5H340.802V320.156H339.558V319.404L340.802 318.912V318.42C340.802 317.527 341.011 316.866 341.431 316.438C341.85 316.005 342.49 315.788 343.352 315.788C343.917 315.788 344.473 315.882 345.02 316.068L344.596 317.285C344.199 317.158 343.821 317.094 343.461 317.094C343.096 317.094 342.83 317.208 342.661 317.436C342.497 317.659 342.415 317.996 342.415 318.447V318.939H344.261V320.156ZM347.159 326.5H345.553V318.939H347.159V326.5ZM345.457 316.937C345.457 316.649 345.535 316.428 345.689 316.273C345.849 316.118 346.075 316.041 346.366 316.041C346.649 316.041 346.868 316.118 347.022 316.273C347.182 316.428 347.262 316.649 347.262 316.937C347.262 317.21 347.182 317.426 347.022 317.586C346.868 317.741 346.649 317.818 346.366 317.818C346.075 317.818 345.849 317.741 345.689 317.586C345.535 317.426 345.457 317.21 345.457 316.937ZM353.298 318.803C353.621 318.803 353.888 318.826 354.098 318.871L353.94 320.368C353.713 320.313 353.476 320.286 353.229 320.286C352.587 320.286 352.065 320.496 351.664 320.915C351.268 321.334 351.069 321.879 351.069 322.549V326.5H349.463V318.939H350.721L350.933 320.272H351.015C351.265 319.821 351.591 319.464 351.992 319.199C352.398 318.935 352.833 318.803 353.298 318.803ZM361.877 326.5H360.264V321.838C360.264 321.259 360.154 320.828 359.936 320.546C359.717 320.259 359.375 320.115 358.91 320.115C358.29 320.115 357.835 320.318 357.543 320.724C357.256 321.125 357.112 321.795 357.112 322.733V326.5H355.506V318.939H356.764L356.989 319.931H357.071C357.281 319.571 357.584 319.293 357.98 319.097C358.382 318.901 358.821 318.803 359.3 318.803C360.462 318.803 361.232 319.199 361.61 319.992H361.72C361.943 319.618 362.257 319.327 362.663 319.117C363.069 318.908 363.534 318.803 364.058 318.803C364.96 318.803 365.616 319.031 366.026 319.486C366.441 319.942 366.648 320.637 366.648 321.571V326.5H365.042V321.838C365.042 321.259 364.93 320.828 364.707 320.546C364.488 320.259 364.146 320.115 363.682 320.115C363.057 320.115 362.599 320.311 362.308 320.703C362.021 321.09 361.877 321.688 361.877 322.494V326.5Z" fill="#CA3C3D"/>
<rect x="297.5" y="303.5" width="86" height="35" rx="3.5" stroke="#CA3C3D"/>
</g>
</g>
<defs>
<filter id="filter0_ddd_5174_239735" x="74" y="125" width="352" height="261" filterUnits="userSpaceOnUse" color-interpolation-filters="sRGB">
<feFlood flood-opacity="0" result="BackgroundImageFix"/>
<feColorMatrix in="SourceAlpha" type="matrix" values="0 0 0 0 0 0 0 0 0 0 0 0 0 0 0 0 0 0 127 0" result="hardAlpha"/>
<feMorphology radius="4" operator="dilate" in="SourceAlpha" result="effect1_dropShadow_5174_239735"/>
<feOffset dy="5"/>
<feGaussianBlur stdDeviation="11"/>
<feColorMatrix type="matrix" values="0 0 0 0 0 0 0 0 0 0 0 0 0 0 0 0 0 0 0.12 0"/>
<feBlend mode="normal" in2="BackgroundImageFix" result="effect1_dropShadow_5174_239735"/>
<feColorMatrix in="SourceAlpha" type="matrix" values="0 0 0 0 0 0 0 0 0 0 0 0 0 0 0 0 0 0 127 0" result="hardAlpha"/>
<feMorphology radius="2" operator="dilate" in="SourceAlpha" result="effect2_dropShadow_5174_239735"/>
<feOffset dy="12"/>
<feGaussianBlur stdDeviation="8.5"/>
<feColorMatrix type="matrix" values="0 0 0 0 0.258824 0 0 0 0 0.305882 0 0 0 0 0.329412 0 0 0 0.14 0"/>
<feBlend mode="normal" in2="effect1_dropShadow_5174_239735" result="effect2_dropShadow_5174_239735"/>
<feColorMatrix in="SourceAlpha" type="matrix" values="0 0 0 0 0 0 0 0 0 0 0 0 0 0 0 0 0 0 127 0" result="hardAlpha"/>
<feMorphology radius="4" operator="erode" in="SourceAlpha" result="effect3_dropShadow_5174_239735"/>
<feOffset dy="7"/>
<feGaussianBlur stdDeviation="4"/>
<feColorMatrix type="matrix" values="0 0 0 0 0 0 0 0 0 0 0 0 0 0 0 0 0 0 0.2 0"/>
<feBlend mode="normal" in2="effect2_dropShadow_5174_239735" result="effect3_dropShadow_5174_239735"/>
<feBlend mode="normal" in="SourceGraphic" in2="effect3_dropShadow_5174_239735" result="shape"/>
</filter>
<clipPath id="clip0_5174_239735">
<rect x="100" y="146" width="300" height="209" rx="4" fill="white"/>
</clipPath>
</defs>
</svg>
