<svg width="814" height="458" viewBox="0 0 814 458" fill="none" xmlns="http://www.w3.org/2000/svg">
<g clip-path="url(#clip0)">
<rect width="814" height="458" fill="#879196"/>
<rect width="210" height="458" fill="#D5D8DA"/>
<rect width="200" height="458" fill="#4DA3D4"/>
<rect x="814" y="458" width="210" height="458" transform="rotate(-180 814 458)" fill="#D5D8DA"/>
<rect x="814" y="458" width="200" height="458" transform="rotate(-180 814 458)" fill="#4DA3D4"/>
<rect x="168" y="498" width="210" height="478" rx="4" transform="rotate(-90 168 498)" fill="#D5D8DA"/>
<rect x="178" y="498" width="200" height="458" rx="4" transform="rotate(-90 178 498)" fill="white"/>
<rect opacity="0.3" width="814" height="458" fill="black"/>
<rect x="227" y="79" width="360" height="300" rx="4" fill="#007BC1"/>
<rect x="237" y="89" width="340" height="280" rx="4" fill="white"/>
<rect x="261" y="113" width="230" height="24" fill="#4DA3D4"/>
<rect x="457" y="313" width="96" height="32" rx="8" fill="#007BC1"/>
<rect x="340" y="316" width="90" height="26" rx="5" stroke="#4DA3D4" stroke-width="6"/>
<rect x="261" y="173" width="292" height="12" fill="#B3D7EC"/>
<rect x="261" y="193" width="292" height="12" fill="#B3D7EC"/>
<rect x="261" y="213" width="292" height="12" fill="#B3D7EC"/>
<rect x="261" y="233" width="292" height="12" fill="#B3D7EC"/>
<rect x="261" y="253" width="292" height="12" fill="#B3D7EC"/>
<rect x="261" y="273" width="149" height="12" fill="#B3D7EC"/>
</g>
<defs>
<clipPath id="clip0">
<rect width="814" height="458" fill="white"/>
</clipPath>
</defs>
</svg>
