<svg width="200" height="150" viewBox="0 0 200 150" fill="none" xmlns="http://www.w3.org/2000/svg">
<g clip-path="url(#clip0_5134_239431)">
<rect width="200" height="150" fill="#F7F8F8"/>
<g filter="url(#filter0_ddd_5134_239431)">
<rect width="168" height="150" fill="white"/>
<rect x="40.5" y="58.5" width="39" height="39" stroke="#FF1844" stroke-dasharray="2 2"/>
<path fill-rule="evenodd" clip-rule="evenodd" d="M68.71 71.63C69.1 72.02 69.1 72.65 68.71 73.04L66.88 74.87L63.13 71.12L64.96 69.29C65.35 68.9 65.98 68.9 66.37 69.29L68.71 71.63ZM51 87V83.25L62.06 72.19L65.81 75.94L54.75 87H51Z" fill="#727E84"/>
<rect x="48.5" y="66.5" width="23" height="23" stroke="#2A7AFF"/>
<path fill-rule="evenodd" clip-rule="evenodd" d="M103.5 70H107V72H93V70H96.5L97.5 69H102.5L103.5 70ZM96 87C94.9 87 94 86.1 94 85V73H106V85C106 86.1 105.1 87 104 87H96Z" fill="#727E84"/>
<rect x="88.5" y="66.5" width="23" height="23" stroke="#2A7AFF"/>
<path fill-rule="evenodd" clip-rule="evenodd" d="M140 74C141.1 74 142 73.1 142 72C142 70.9 141.1 70 140 70C138.9 70 138 70.9 138 72C138 73.1 138.9 74 140 74ZM140 76C138.9 76 138 76.9 138 78C138 79.1 138.9 80 140 80C141.1 80 142 79.1 142 78C142 76.9 141.1 76 140 76ZM138 84C138 82.9 138.9 82 140 82C141.1 82 142 82.9 142 84C142 85.1 141.1 86 140 86C138.9 86 138 85.1 138 84Z" fill="#727E84"/>
<rect x="128.5" y="66.5" width="23" height="23" stroke="#2A7AFF"/>
<line x1="72.5" y1="110" x2="72.5" y2="90" stroke="#01BFA5" stroke-dasharray="1 1"/>
<line x1="87.5" y1="110" x2="87.5" y2="90" stroke="#01BFA5" stroke-dasharray="1 1"/>
<line x1="72" y1="99.5" x2="88" y2="99.5" stroke="#01BFA5"/>
<line x1="152.5" y1="110" x2="152.5" y2="90" stroke="#01BFA5" stroke-dasharray="1 1"/>
<line x1="167.5" y1="110" x2="167.5" y2="90" stroke="#01BFA5" stroke-dasharray="1 1"/>
<line x1="152" y1="99.5" x2="168" y2="99.5" stroke="#01BFA5"/>
<rect width="20" height="18" transform="translate(50 44)" fill="#2A7AFF"/>
<path d="M59.3486 58H52.8271V57.0908L56.2725 53.2627C56.7829 52.6839 57.1338 52.2145 57.3252 51.8545C57.5212 51.4899 57.6191 51.1139 57.6191 50.7266C57.6191 50.207 57.4619 49.7809 57.1475 49.4482C56.833 49.1156 56.4137 48.9492 55.8896 48.9492C55.2607 48.9492 54.7708 49.1292 54.4199 49.4893C54.0736 49.8447 53.9004 50.3415 53.9004 50.9795H52.6357C52.6357 50.0635 52.9297 49.3229 53.5176 48.7578C54.11 48.1927 54.9007 47.9102 55.8896 47.9102C56.8148 47.9102 57.5462 48.154 58.084 48.6416C58.6217 49.1247 58.8906 49.7695 58.8906 50.5762C58.8906 51.556 58.2663 52.7227 57.0176 54.0762L54.3516 56.9678H59.3486V58ZM66.0273 54.6572H67.4082V55.6895H66.0273V58H64.7559V55.6895H60.2236V54.9443L64.6807 48.0469H66.0273V54.6572ZM61.6592 54.6572H64.7559V49.7764L64.6055 50.0498L61.6592 54.6572Z" fill="white"/>
<rect width="20" height="18" transform="translate(90 44)" fill="#2A7AFF"/>
<path d="M99.3486 58H92.8271V57.0908L96.2725 53.2627C96.7829 52.6839 97.1338 52.2145 97.3252 51.8545C97.5212 51.4899 97.6191 51.1139 97.6191 50.7266C97.6191 50.207 97.4619 49.7809 97.1475 49.4482C96.833 49.1156 96.4137 48.9492 95.8896 48.9492C95.2607 48.9492 94.7708 49.1292 94.4199 49.4893C94.0736 49.8447 93.9004 50.3415 93.9004 50.9795H92.6357C92.6357 50.0635 92.9297 49.3229 93.5176 48.7578C94.11 48.1927 94.9007 47.9102 95.8896 47.9102C96.8148 47.9102 97.5462 48.154 98.084 48.6416C98.6217 49.1247 98.8906 49.7695 98.8906 50.5762C98.8906 51.556 98.2663 52.7227 97.0176 54.0762L94.3516 56.9678H99.3486V58ZM106.027 54.6572H107.408V55.6895H106.027V58H104.756V55.6895H100.224V54.9443L104.681 48.0469H106.027V54.6572ZM101.659 54.6572H104.756V49.7764L104.605 50.0498L101.659 54.6572Z" fill="white"/>
<rect width="20" height="18" transform="translate(130 44)" fill="#2A7AFF"/>
<path d="M139.349 58H132.827V57.0908L136.272 53.2627C136.783 52.6839 137.134 52.2145 137.325 51.8545C137.521 51.4899 137.619 51.1139 137.619 50.7266C137.619 50.207 137.462 49.7809 137.147 49.4482C136.833 49.1156 136.414 48.9492 135.89 48.9492C135.261 48.9492 134.771 49.1292 134.42 49.4893C134.074 49.8447 133.9 50.3415 133.9 50.9795H132.636C132.636 50.0635 132.93 49.3229 133.518 48.7578C134.11 48.1927 134.901 47.9102 135.89 47.9102C136.815 47.9102 137.546 48.154 138.084 48.6416C138.622 49.1247 138.891 49.7695 138.891 50.5762C138.891 51.556 138.266 52.7227 137.018 54.0762L134.352 56.9678H139.349V58ZM146.027 54.6572H147.408V55.6895H146.027V58H144.756V55.6895H140.224V54.9443L144.681 48.0469H146.027V54.6572ZM141.659 54.6572H144.756V49.7764L144.605 50.0498L141.659 54.6572Z" fill="white"/>
<rect width="20" height="18" transform="translate(70 112)" fill="#01BFA5"/>
<path d="M76.9834 126H75.7119V117.571L73.1621 118.508V117.359L76.7852 115.999H76.9834V126ZM85.6514 116.04V117.113H85.4189C84.4346 117.132 83.6507 117.423 83.0674 117.988C82.484 118.553 82.1468 119.349 82.0557 120.374C82.5798 119.772 83.2952 119.472 84.2021 119.472C85.068 119.472 85.7585 119.777 86.2734 120.388C86.793 120.998 87.0527 121.787 87.0527 122.753C87.0527 123.778 86.7725 124.599 86.2119 125.214C85.6559 125.829 84.9085 126.137 83.9697 126.137C83.0173 126.137 82.2448 125.772 81.6523 125.043C81.0599 124.309 80.7637 123.366 80.7637 122.213V121.728C80.7637 119.896 81.1533 118.496 81.9326 117.53C82.7165 116.56 83.8809 116.063 85.4258 116.04H85.6514ZM83.9902 120.524C83.5573 120.524 83.1585 120.654 82.7939 120.914C82.4294 121.174 82.1764 121.5 82.0352 121.892V122.356C82.0352 123.177 82.2197 123.838 82.5889 124.339C82.958 124.84 83.4183 125.091 83.9697 125.091C84.5394 125.091 84.986 124.881 85.3096 124.462C85.6377 124.043 85.8018 123.493 85.8018 122.814C85.8018 122.131 85.6354 121.579 85.3027 121.16C84.9746 120.736 84.5371 120.524 83.9902 120.524Z" fill="white"/>
</g>
<rect width="20" height="18" transform="translate(150 112)" fill="#01BFA5"/>
<path d="M156.983 126H155.712V117.571L153.162 118.508V117.359L156.785 115.999H156.983V126ZM165.651 116.04V117.113H165.419C164.435 117.132 163.651 117.423 163.067 117.988C162.484 118.553 162.147 119.349 162.056 120.374C162.58 119.772 163.295 119.472 164.202 119.472C165.068 119.472 165.758 119.777 166.273 120.388C166.793 120.998 167.053 121.787 167.053 122.753C167.053 123.778 166.772 124.599 166.212 125.214C165.656 125.829 164.909 126.137 163.97 126.137C163.017 126.137 162.245 125.772 161.652 125.043C161.06 124.309 160.764 123.366 160.764 122.213V121.728C160.764 119.896 161.153 118.496 161.933 117.53C162.716 116.56 163.881 116.063 165.426 116.04H165.651ZM163.99 120.524C163.557 120.524 163.159 120.654 162.794 120.914C162.429 121.174 162.176 121.5 162.035 121.892V122.356C162.035 123.177 162.22 123.838 162.589 124.339C162.958 124.84 163.418 125.091 163.97 125.091C164.539 125.091 164.986 124.881 165.31 124.462C165.638 124.043 165.802 123.493 165.802 122.814C165.802 122.131 165.635 121.579 165.303 121.16C164.975 120.736 164.537 120.524 163.99 120.524Z" fill="white"/>
</g>
<defs>
<filter id="filter0_ddd_5134_239431" x="-10" y="-9" width="188" height="170" filterUnits="userSpaceOnUse" color-interpolation-filters="sRGB">
<feFlood flood-opacity="0" result="BackgroundImageFix"/>
<feColorMatrix in="SourceAlpha" type="matrix" values="0 0 0 0 0 0 0 0 0 0 0 0 0 0 0 0 0 0 127 0" result="hardAlpha"/>
<feOffset dy="1"/>
<feGaussianBlur stdDeviation="5"/>
<feColorMatrix type="matrix" values="0 0 0 0 0 0 0 0 0 0 0 0 0 0 0 0 0 0 0.12 0"/>
<feBlend mode="normal" in2="BackgroundImageFix" result="effect1_dropShadow_5134_239431"/>
<feColorMatrix in="SourceAlpha" type="matrix" values="0 0 0 0 0 0 0 0 0 0 0 0 0 0 0 0 0 0 127 0" result="hardAlpha"/>
<feOffset dy="4"/>
<feGaussianBlur stdDeviation="2.5"/>
<feColorMatrix type="matrix" values="0 0 0 0 0 0 0 0 0 0 0 0 0 0 0 0 0 0 0.14 0"/>
<feBlend mode="normal" in2="effect1_dropShadow_5134_239431" result="effect2_dropShadow_5134_239431"/>
<feColorMatrix in="SourceAlpha" type="matrix" values="0 0 0 0 0 0 0 0 0 0 0 0 0 0 0 0 0 0 127 0" result="hardAlpha"/>
<feMorphology radius="1" operator="erode" in="SourceAlpha" result="effect3_dropShadow_5134_239431"/>
<feOffset dy="2"/>
<feGaussianBlur stdDeviation="2"/>
<feColorMatrix type="matrix" values="0 0 0 0 0 0 0 0 0 0 0 0 0 0 0 0 0 0 0.2 0"/>
<feBlend mode="normal" in2="effect2_dropShadow_5134_239431" result="effect3_dropShadow_5134_239431"/>
<feBlend mode="normal" in="SourceGraphic" in2="effect3_dropShadow_5134_239431" result="shape"/>
</filter>
<clipPath id="clip0_5134_239431">
<rect width="200" height="150" fill="white"/>
</clipPath>
</defs>
</svg>
