<svg width="300" height="180" viewBox="0 0 300 180" fill="none" xmlns="http://www.w3.org/2000/svg">
<g clip-path="url(#clip0_5869_354319)">
<rect width="300" height="180" fill="white"/>
<rect width="150" height="180" fill="white"/>
<rect x="52" y="58" width="47" height="16" rx="2" fill="#CA3C3D"/>
<path d="M58.8301 70H57.3408V62.8613H61.4326V64.1016H58.8301V65.9424H61.252V67.1777H58.8301V70ZM63.8291 70V62.8613H65.3428V70H63.8291ZM68.1396 70V62.8613H69.6533V68.75H72.5488V70H68.1396ZM74.7939 70V62.8613H76.3076V68.75H79.2031V70H74.7939ZM85.5596 70H81.4482V62.8613H85.5596V64.1016H82.9619V65.6689H85.3789V66.9092H82.9619V68.75H85.5596V70ZM93.9766 66.3623C93.9766 67.5374 93.6413 68.4375 92.9707 69.0625C92.3034 69.6875 91.3382 70 90.0752 70H88.0537V62.8613H90.2949C91.4603 62.8613 92.3652 63.1689 93.0098 63.7842C93.6543 64.3994 93.9766 65.2588 93.9766 66.3623ZM92.4043 66.4014C92.4043 64.8682 91.7272 64.1016 90.373 64.1016H89.5674V68.75H90.2168C91.6751 68.75 92.4043 67.9671 92.4043 66.4014Z" fill="white"/>
<rect x="48" y="82" width="54" height="16" rx="2" fill="#CA3C3D" fill-opacity="0.1"/>
<path d="M57.373 92.0176C57.373 92.6621 57.1403 93.1699 56.6748 93.541C56.2126 93.9121 55.568 94.0977 54.7412 94.0977C53.9795 94.0977 53.3057 93.9544 52.7197 93.668V92.2617C53.2015 92.4766 53.6084 92.6279 53.9404 92.7158C54.2757 92.8037 54.5817 92.8477 54.8584 92.8477C55.1904 92.8477 55.4443 92.7842 55.6201 92.6572C55.7992 92.5303 55.8887 92.3415 55.8887 92.0908C55.8887 91.9508 55.8496 91.8271 55.7715 91.7197C55.6934 91.609 55.5778 91.5033 55.4248 91.4023C55.2751 91.3014 54.9674 91.1403 54.502 90.9189C54.0658 90.7139 53.7386 90.5169 53.5205 90.3281C53.3024 90.1393 53.1283 89.9196 52.998 89.6689C52.8678 89.4183 52.8027 89.1253 52.8027 88.79C52.8027 88.1585 53.016 87.6621 53.4424 87.3008C53.8721 86.9395 54.4645 86.7588 55.2197 86.7588C55.5908 86.7588 55.944 86.8027 56.2793 86.8906C56.6178 86.9785 56.971 87.1022 57.3389 87.2617L56.8506 88.4385C56.4697 88.2822 56.154 88.1732 55.9033 88.1113C55.6559 88.0495 55.4118 88.0186 55.1709 88.0186C54.8844 88.0186 54.6647 88.0853 54.5117 88.2188C54.3587 88.3522 54.2822 88.5264 54.2822 88.7412C54.2822 88.8747 54.3132 88.9919 54.375 89.0928C54.4368 89.1904 54.5345 89.2865 54.668 89.3809C54.8047 89.472 55.1253 89.638 55.6299 89.8789C56.2972 90.1979 56.7546 90.5186 57.002 90.8408C57.2493 91.1598 57.373 91.5521 57.373 92.0176ZM65.5166 94H64.0078V90.9189H61.1807V94H59.667V86.8613H61.1807V89.6592H64.0078V86.8613H65.5166V94ZM72.6934 94L72.1758 92.3008H69.5732L69.0557 94H67.4248L69.9443 86.832H71.7949L74.3242 94H72.6934ZM71.8145 91.0312C71.3359 89.4915 71.0658 88.6208 71.0039 88.4189C70.9453 88.2171 70.903 88.0576 70.877 87.9404C70.7695 88.3571 70.4619 89.3874 69.9541 91.0312H71.8145ZM82.1504 90.3623C82.1504 91.5374 81.8151 92.4375 81.1445 93.0625C80.4772 93.6875 79.512 94 78.249 94H76.2275V86.8613H78.4688C79.6341 86.8613 80.5391 87.1689 81.1836 87.7842C81.8281 88.3994 82.1504 89.2588 82.1504 90.3623ZM80.5781 90.4014C80.5781 88.8682 79.901 88.1016 78.5469 88.1016H77.7412V92.75H78.3906C79.849 92.75 80.5781 91.9671 80.5781 90.4014ZM88.7412 94H84.6299V86.8613H88.7412V88.1016H86.1436V89.6689H88.5605V90.9092H86.1436V92.75H88.7412V94ZM97.1582 90.3623C97.1582 91.5374 96.8229 92.4375 96.1523 93.0625C95.485 93.6875 94.5199 94 93.2568 94H91.2354V86.8613H93.4766C94.6419 86.8613 95.5469 87.1689 96.1914 87.7842C96.8359 88.3994 97.1582 89.2588 97.1582 90.3623ZM95.5859 90.4014C95.5859 88.8682 94.9089 88.1016 93.5547 88.1016H92.749V92.75H93.3984C94.8568 92.75 95.5859 91.9671 95.5859 90.4014Z" fill="#CA3C3D"/>
<path d="M53.6699 114.421C53.6699 115.603 53.377 116.511 52.791 117.146C52.2051 117.78 51.3652 118.098 50.2715 118.098C49.1777 118.098 48.3379 117.78 47.752 117.146C47.166 116.511 46.873 115.599 46.873 114.411C46.873 113.223 47.166 112.316 47.752 111.691C48.3411 111.063 49.1842 110.749 50.2812 110.749C51.3783 110.749 52.2165 111.065 52.7959 111.696C53.3786 112.328 53.6699 113.236 53.6699 114.421ZM48.46 114.421C48.46 115.218 48.6113 115.819 48.9141 116.223C49.2168 116.626 49.6693 116.828 50.2715 116.828C51.4792 116.828 52.083 116.026 52.083 114.421C52.083 112.813 51.4824 112.009 50.2812 112.009C49.679 112.009 49.2249 112.212 48.9189 112.619C48.613 113.023 48.46 113.623 48.46 114.421ZM61.96 110.861V115.48C61.96 116.008 61.8411 116.47 61.6035 116.867C61.3691 117.264 61.029 117.569 60.583 117.78C60.137 117.992 59.6097 118.098 59.001 118.098C58.083 118.098 57.3701 117.863 56.8623 117.395C56.3545 116.923 56.1006 116.278 56.1006 115.461V110.861H57.6094V115.231C57.6094 115.782 57.7201 116.185 57.9414 116.442C58.1628 116.7 58.529 116.828 59.04 116.828C59.5348 116.828 59.8929 116.7 60.1143 116.442C60.3389 116.182 60.4512 115.775 60.4512 115.222V110.861H61.96ZM67.4619 118H65.9482V112.121H64.0098V110.861H69.4004V112.121H67.4619V118ZM71.499 118V110.861H73.0127V116.75H75.9082V118H71.499ZM78.1533 118V110.861H79.667V118H78.1533ZM88.7969 118H86.873L83.7676 112.6H83.7236C83.7855 113.553 83.8164 114.234 83.8164 114.641V118H82.4639V110.861H84.373L87.4736 116.208H87.5078C87.459 115.28 87.4346 114.624 87.4346 114.24V110.861H88.7969V118ZM95.71 118H91.5986V110.861H95.71V112.102H93.1123V113.669H95.5293V114.909H93.1123V116.75H95.71V118ZM104.127 114.362C104.127 115.537 103.792 116.438 103.121 117.062C102.454 117.688 101.489 118 100.226 118H98.2041V110.861H100.445C101.611 110.861 102.516 111.169 103.16 111.784C103.805 112.399 104.127 113.259 104.127 114.362ZM102.555 114.401C102.555 112.868 101.878 112.102 100.523 112.102H99.7178V116.75H100.367C101.826 116.75 102.555 115.967 102.555 114.401Z" fill="#CA3C3D"/>
<rect x="42.5" y="106.5" width="66" height="15" rx="1.5" stroke="#CA3C3D"/>
<rect width="150" height="180" transform="translate(150)" fill="#1D2529"/>
<rect x="202" y="58" width="47" height="16" rx="2" fill="#CA3C3D"/>
<path d="M208.83 70H207.341V62.8613H211.433V64.1016H208.83V65.9424H211.252V67.1777H208.83V70ZM213.829 70V62.8613H215.343V70H213.829ZM218.14 70V62.8613H219.653V68.75H222.549V70H218.14ZM224.794 70V62.8613H226.308V68.75H229.203V70H224.794ZM235.56 70H231.448V62.8613H235.56V64.1016H232.962V65.6689H235.379V66.9092H232.962V68.75H235.56V70ZM243.977 66.3623C243.977 67.5374 243.641 68.4375 242.971 69.0625C242.303 69.6875 241.338 70 240.075 70H238.054V62.8613H240.295C241.46 62.8613 242.365 63.1689 243.01 63.7842C243.654 64.3994 243.977 65.2588 243.977 66.3623ZM242.404 66.4014C242.404 64.8682 241.727 64.1016 240.373 64.1016H239.567V68.75H240.217C241.675 68.75 242.404 67.9671 242.404 66.4014Z" fill="white"/>
<rect x="198" y="82" width="54" height="16" rx="2" fill="#CA3C3D" fill-opacity="0.2"/>
<path d="M207.373 92.0176C207.373 92.6621 207.14 93.1699 206.675 93.541C206.213 93.9121 205.568 94.0977 204.741 94.0977C203.979 94.0977 203.306 93.9544 202.72 93.668V92.2617C203.201 92.4766 203.608 92.6279 203.94 92.7158C204.276 92.8037 204.582 92.8477 204.858 92.8477C205.19 92.8477 205.444 92.7842 205.62 92.6572C205.799 92.5303 205.889 92.3415 205.889 92.0908C205.889 91.9508 205.85 91.8271 205.771 91.7197C205.693 91.609 205.578 91.5033 205.425 91.4023C205.275 91.3014 204.967 91.1403 204.502 90.9189C204.066 90.7139 203.739 90.5169 203.521 90.3281C203.302 90.1393 203.128 89.9196 202.998 89.6689C202.868 89.4183 202.803 89.1253 202.803 88.79C202.803 88.1585 203.016 87.6621 203.442 87.3008C203.872 86.9395 204.465 86.7588 205.22 86.7588C205.591 86.7588 205.944 86.8027 206.279 86.8906C206.618 86.9785 206.971 87.1022 207.339 87.2617L206.851 88.4385C206.47 88.2822 206.154 88.1732 205.903 88.1113C205.656 88.0495 205.412 88.0186 205.171 88.0186C204.884 88.0186 204.665 88.0853 204.512 88.2188C204.359 88.3522 204.282 88.5264 204.282 88.7412C204.282 88.8747 204.313 88.9919 204.375 89.0928C204.437 89.1904 204.535 89.2865 204.668 89.3809C204.805 89.472 205.125 89.638 205.63 89.8789C206.297 90.1979 206.755 90.5186 207.002 90.8408C207.249 91.1598 207.373 91.5521 207.373 92.0176ZM215.517 94H214.008V90.9189H211.181V94H209.667V86.8613H211.181V89.6592H214.008V86.8613H215.517V94ZM222.693 94L222.176 92.3008H219.573L219.056 94H217.425L219.944 86.832H221.795L224.324 94H222.693ZM221.814 91.0312C221.336 89.4915 221.066 88.6208 221.004 88.4189C220.945 88.2171 220.903 88.0576 220.877 87.9404C220.77 88.3571 220.462 89.3874 219.954 91.0312H221.814ZM232.15 90.3623C232.15 91.5374 231.815 92.4375 231.145 93.0625C230.477 93.6875 229.512 94 228.249 94H226.228V86.8613H228.469C229.634 86.8613 230.539 87.1689 231.184 87.7842C231.828 88.3994 232.15 89.2588 232.15 90.3623ZM230.578 90.4014C230.578 88.8682 229.901 88.1016 228.547 88.1016H227.741V92.75H228.391C229.849 92.75 230.578 91.9671 230.578 90.4014ZM238.741 94H234.63V86.8613H238.741V88.1016H236.144V89.6689H238.561V90.9092H236.144V92.75H238.741V94ZM247.158 90.3623C247.158 91.5374 246.823 92.4375 246.152 93.0625C245.485 93.6875 244.52 94 243.257 94H241.235V86.8613H243.477C244.642 86.8613 245.547 87.1689 246.191 87.7842C246.836 88.3994 247.158 89.2588 247.158 90.3623ZM245.586 90.4014C245.586 88.8682 244.909 88.1016 243.555 88.1016H242.749V92.75H243.398C244.857 92.75 245.586 91.9671 245.586 90.4014Z" fill="#E59E9E"/>
<path d="M203.67 114.421C203.67 115.603 203.377 116.511 202.791 117.146C202.205 117.78 201.365 118.098 200.271 118.098C199.178 118.098 198.338 117.78 197.752 117.146C197.166 116.511 196.873 115.599 196.873 114.411C196.873 113.223 197.166 112.316 197.752 111.691C198.341 111.063 199.184 110.749 200.281 110.749C201.378 110.749 202.216 111.065 202.796 111.696C203.379 112.328 203.67 113.236 203.67 114.421ZM198.46 114.421C198.46 115.218 198.611 115.819 198.914 116.223C199.217 116.626 199.669 116.828 200.271 116.828C201.479 116.828 202.083 116.026 202.083 114.421C202.083 112.813 201.482 112.009 200.281 112.009C199.679 112.009 199.225 112.212 198.919 112.619C198.613 113.023 198.46 113.623 198.46 114.421ZM211.96 110.861V115.48C211.96 116.008 211.841 116.47 211.604 116.867C211.369 117.264 211.029 117.569 210.583 117.78C210.137 117.992 209.61 118.098 209.001 118.098C208.083 118.098 207.37 117.863 206.862 117.395C206.354 116.923 206.101 116.278 206.101 115.461V110.861H207.609V115.231C207.609 115.782 207.72 116.185 207.941 116.442C208.163 116.7 208.529 116.828 209.04 116.828C209.535 116.828 209.893 116.7 210.114 116.442C210.339 116.182 210.451 115.775 210.451 115.222V110.861H211.96ZM217.462 118H215.948V112.121H214.01V110.861H219.4V112.121H217.462V118ZM221.499 118V110.861H223.013V116.75H225.908V118H221.499ZM228.153 118V110.861H229.667V118H228.153ZM238.797 118H236.873L233.768 112.6H233.724C233.785 113.553 233.816 114.234 233.816 114.641V118H232.464V110.861H234.373L237.474 116.208H237.508C237.459 115.28 237.435 114.624 237.435 114.24V110.861H238.797V118ZM245.71 118H241.599V110.861H245.71V112.102H243.112V113.669H245.529V114.909H243.112V116.75H245.71V118ZM254.127 114.362C254.127 115.537 253.792 116.438 253.121 117.062C252.454 117.688 251.489 118 250.226 118H248.204V110.861H250.445C251.611 110.861 252.516 111.169 253.16 111.784C253.805 112.399 254.127 113.259 254.127 114.362ZM252.555 114.401C252.555 112.868 251.878 112.102 250.523 112.102H249.718V116.75H250.367C251.826 116.75 252.555 115.967 252.555 114.401Z" fill="#E59E9E"/>
<rect x="192.5" y="106.5" width="66" height="15" rx="1.5" stroke="#E59E9E"/>
</g>
<defs>
<clipPath id="clip0_5869_354319">
<rect width="300" height="180" fill="white"/>
</clipPath>
</defs>
</svg>
