<svg width="250" height="150" viewBox="0 0 250 150" fill="none" xmlns="http://www.w3.org/2000/svg">
<rect width="250" height="150" fill="#E2E5E5"/>
<rect x="78" y="53" width="95" height="16" rx="2" fill="#007BC1"/>
<path d="M95.2744 59.0186C94.7048 59.0186 94.2637 59.2334 93.9512 59.6631C93.6387 60.0895 93.4824 60.6852 93.4824 61.4502C93.4824 63.042 94.0798 63.8379 95.2744 63.8379C95.7757 63.8379 96.3828 63.7126 97.0957 63.4619V64.7314C96.5098 64.9756 95.8555 65.0977 95.1328 65.0977C94.0944 65.0977 93.3001 64.7835 92.75 64.1553C92.1999 63.5238 91.9248 62.6188 91.9248 61.4404C91.9248 60.6982 92.0599 60.0488 92.3301 59.4922C92.6003 58.9323 92.9876 58.5042 93.4922 58.208C94 57.9085 94.5941 57.7588 95.2744 57.7588C95.9678 57.7588 96.6644 57.9264 97.3643 58.2617L96.876 59.4922C96.609 59.3652 96.3405 59.2546 96.0703 59.1602C95.8001 59.0658 95.5348 59.0186 95.2744 59.0186ZM106.099 61.4209C106.099 62.6025 105.806 63.5107 105.22 64.1455C104.634 64.7803 103.794 65.0977 102.7 65.0977C101.606 65.0977 100.767 64.7803 100.181 64.1455C99.5947 63.5107 99.3018 62.5993 99.3018 61.4111C99.3018 60.223 99.5947 59.3164 100.181 58.6914C100.77 58.0632 101.613 57.749 102.71 57.749C103.807 57.749 104.645 58.0648 105.225 58.6963C105.807 59.3278 106.099 60.236 106.099 61.4209ZM100.889 61.4209C100.889 62.2184 101.04 62.819 101.343 63.2227C101.646 63.6263 102.098 63.8281 102.7 63.8281C103.908 63.8281 104.512 63.0257 104.512 61.4209C104.512 59.8128 103.911 59.0088 102.71 59.0088C102.108 59.0088 101.654 59.2122 101.348 59.6191C101.042 60.0228 100.889 60.6234 100.889 61.4209ZM114.911 65H112.987L109.882 59.5996H109.838C109.9 60.5534 109.931 61.2337 109.931 61.6406V65H108.578V57.8613H110.487L113.588 63.208H113.622C113.573 62.2803 113.549 61.6243 113.549 61.2402V57.8613H114.911V65ZM119.202 65H117.713V57.8613H121.805V59.1016H119.202V60.9424H121.624V62.1777H119.202V65ZM124.201 65V57.8613H125.715V65H124.201ZM130.025 61.0303H130.514C130.992 61.0303 131.345 60.9505 131.573 60.791C131.801 60.6315 131.915 60.3809 131.915 60.0391C131.915 59.7005 131.798 59.4596 131.563 59.3164C131.332 59.1732 130.973 59.1016 130.484 59.1016H130.025V61.0303ZM130.025 62.2607V65H128.512V57.8613H130.592C131.562 57.8613 132.28 58.0387 132.745 58.3936C133.211 58.7451 133.443 59.2806 133.443 60C133.443 60.4199 133.328 60.7943 133.097 61.123C132.866 61.4486 132.538 61.7041 132.115 61.8896C133.189 63.4945 133.889 64.5312 134.215 65H132.535L130.831 62.2607H130.025ZM139.136 65L137.417 59.3994H137.373C137.435 60.5387 137.466 61.2988 137.466 61.6797V65H136.113V57.8613H138.174L139.863 63.3203H139.893L141.685 57.8613H143.745V65H142.334V61.6211C142.334 61.4616 142.336 61.2777 142.339 61.0693C142.345 60.861 142.368 60.3076 142.407 59.4092H142.363L140.522 65H139.136ZM150.658 65H146.547V57.8613H150.658V59.1016H148.061V60.6689H150.478V61.9092H148.061V63.75H150.658V65ZM159.075 61.3623C159.075 62.5374 158.74 63.4375 158.069 64.0625C157.402 64.6875 156.437 65 155.174 65H153.152V57.8613H155.394C156.559 57.8613 157.464 58.1689 158.108 58.7842C158.753 59.3994 159.075 60.2588 159.075 61.3623ZM157.503 61.4014C157.503 59.8682 156.826 59.1016 155.472 59.1016H154.666V63.75H155.315C156.774 63.75 157.503 62.9671 157.503 61.4014Z" fill="white"/>
<rect x="78" y="81" width="95" height="16" rx="2" fill="#007BC1"/>
<path d="M78.7363 93H74.625V85.8613H78.7363V87.1016H76.1387V88.6689H78.5557V89.9092H76.1387V91.75H78.7363V93ZM86.8799 93H85.3711V87.1211H82.7441V93H81.2305V85.8613H86.8799V93ZM89.6816 93V85.8613H91.1953V93H89.6816ZM93.9922 85.8613H96.2139C97.2262 85.8613 97.9603 86.0062 98.416 86.2959C98.875 86.5824 99.1045 87.0397 99.1045 87.668C99.1045 88.0944 99.0036 88.4443 98.8018 88.7178C98.6032 88.9912 98.3379 89.1556 98.0059 89.2109V89.2598C98.4583 89.3607 98.7839 89.5495 98.9824 89.8262C99.1842 90.1029 99.2852 90.4707 99.2852 90.9297C99.2852 91.5807 99.0492 92.0885 98.5771 92.4531C98.1084 92.8177 97.4704 93 96.6631 93H93.9922V85.8613ZM95.5059 88.6885H96.3848C96.7949 88.6885 97.0911 88.625 97.2734 88.498C97.459 88.3711 97.5518 88.1611 97.5518 87.8682C97.5518 87.5947 97.4508 87.3994 97.249 87.2822C97.0505 87.1618 96.7347 87.1016 96.3018 87.1016H95.5059V88.6885ZM95.5059 89.8896V91.75H96.4922C96.9089 91.75 97.2165 91.6702 97.415 91.5107C97.6136 91.3512 97.7129 91.1071 97.7129 90.7783C97.7129 90.1859 97.2897 89.8896 96.4434 89.8896H95.5059ZM105.822 93H101.711V85.8613H105.822V87.1016H103.225V88.6689H105.642V89.9092H103.225V91.75H105.822V93ZM108.316 85.8613H110.538C111.55 85.8613 112.285 86.0062 112.74 86.2959C113.199 86.5824 113.429 87.0397 113.429 87.668C113.429 88.0944 113.328 88.4443 113.126 88.7178C112.927 88.9912 112.662 89.1556 112.33 89.2109V89.2598C112.783 89.3607 113.108 89.5495 113.307 89.8262C113.508 90.1029 113.609 90.4707 113.609 90.9297C113.609 91.5807 113.373 92.0885 112.901 92.4531C112.433 92.8177 111.795 93 110.987 93H108.316V85.8613ZM109.83 88.6885H110.709C111.119 88.6885 111.415 88.625 111.598 88.498C111.783 88.3711 111.876 88.1611 111.876 87.8682C111.876 87.5947 111.775 87.3994 111.573 87.2822C111.375 87.1618 111.059 87.1016 110.626 87.1016H109.83V88.6885ZM109.83 89.8896V91.75H110.816C111.233 91.75 111.541 91.6702 111.739 91.5107C111.938 91.3512 112.037 91.1071 112.037 90.7783C112.037 90.1859 111.614 89.8896 110.768 89.8896H109.83ZM120.405 93L119.888 91.3008H117.285L116.768 93H115.137L117.656 85.832H119.507L122.036 93H120.405ZM119.526 90.0312C119.048 88.4915 118.778 87.6208 118.716 87.4189C118.657 87.2171 118.615 87.0576 118.589 86.9404C118.481 87.3571 118.174 88.3874 117.666 90.0312H119.526ZM123.939 93V85.8613H125.453V93H123.939ZM131.282 87.0088C130.693 87.0088 130.239 87.1878 129.92 87.5459C129.601 87.904 129.441 88.4085 129.441 89.0596C129.441 89.7204 129.549 90.2575 129.764 90.6709C129.979 91.0811 130.304 91.4033 130.74 91.6377V93H127.62V91.7305H129.432C128.937 91.4277 128.554 91.016 128.284 90.4951C128.017 89.971 127.884 89.3867 127.884 88.7422C127.884 88.1432 128.022 87.6175 128.299 87.165C128.579 86.7093 128.976 86.3594 129.49 86.1152C130.005 85.8711 130.602 85.749 131.282 85.749C132.321 85.749 133.146 86.0208 133.758 86.5645C134.373 87.1081 134.681 87.8372 134.681 88.752C134.681 89.3965 134.546 89.9759 134.275 90.4902C134.005 91.0046 133.618 91.418 133.113 91.7305H134.939V93H131.8V91.6377C132.252 91.4033 132.586 91.0762 132.801 90.6562C133.016 90.2363 133.123 89.7008 133.123 89.0498C133.123 88.402 132.962 87.9007 132.64 87.5459C132.321 87.1878 131.868 87.0088 131.282 87.0088ZM140.134 93L138.415 87.3994H138.371C138.433 88.5387 138.464 89.2988 138.464 89.6797V93H137.111V85.8613H139.172L140.861 91.3203H140.891L142.683 85.8613H144.743V93H143.332V89.6211C143.332 89.4616 143.334 89.2777 143.337 89.0693C143.343 88.861 143.366 88.3076 143.405 87.4092H143.361L141.521 93H140.134ZM151.656 93H147.545V85.8613H151.656V87.1016H149.059V88.6689H151.476V89.9092H149.059V91.75H151.656V93ZM160.483 93H158.56L155.454 87.5996H155.41C155.472 88.5534 155.503 89.2337 155.503 89.6406V93H154.15V85.8613H156.06L159.16 91.208H159.194C159.146 90.2803 159.121 89.6243 159.121 89.2402V85.8613H160.483V93ZM169.765 89.4209C169.765 90.6025 169.472 91.5107 168.886 92.1455C168.3 92.7803 167.46 93.0977 166.366 93.0977C165.272 93.0977 164.433 92.7803 163.847 92.1455C163.261 91.5107 162.968 90.5993 162.968 89.4111C162.968 88.223 163.261 87.3164 163.847 86.6914C164.436 86.0632 165.279 85.749 166.376 85.749C167.473 85.749 168.311 86.0648 168.891 86.6963C169.473 87.3278 169.765 88.236 169.765 89.4209ZM164.555 89.4209C164.555 90.2184 164.706 90.819 165.009 91.2227C165.312 91.6263 165.764 91.8281 166.366 91.8281C167.574 91.8281 168.178 91.0257 168.178 89.4209C168.178 87.8128 167.577 87.0088 166.376 87.0088C165.774 87.0088 165.32 87.2122 165.014 87.6191C164.708 88.0228 164.555 88.6234 164.555 89.4209ZM171.727 93V91.8086L174.026 89.2598L171.785 87.0186V85.8613H176.644V87.1016H174.505C174.339 87.1016 173.969 87.0837 173.396 87.0479L175.613 89.25L173.284 91.8086C174.065 91.7695 174.529 91.75 174.676 91.75H176.937V93H171.727Z" fill="white"/>
</svg>
