<svg width="250" height="150" viewBox="0 0 250 150" fill="none" xmlns="http://www.w3.org/2000/svg">
<rect width="250" height="150" fill="white"/>
<rect x="47" y="67" width="156" height="16" rx="2" fill="#007BC1"/>
<path d="M58.3252 79H56.4014L53.2959 73.5996H53.252C53.3138 74.5534 53.3447 75.2337 53.3447 75.6406V79H51.9922V71.8613H53.9014L57.002 77.208H57.0361C56.9873 76.2803 56.9629 75.6243 56.9629 75.2402V71.8613H58.3252V79ZM65.2383 79H61.127V71.8613H65.2383V73.1016H62.6406V74.6689H65.0576V75.9092H62.6406V77.75H65.2383V79ZM74.6855 79H72.9619L71.9951 75.25C71.9593 75.1165 71.8975 74.8415 71.8096 74.4248C71.7249 74.0049 71.6761 73.7233 71.6631 73.5801C71.6436 73.7559 71.5947 74.0391 71.5166 74.4297C71.4385 74.8171 71.3783 75.0938 71.3359 75.2598L70.374 79H68.6553L66.834 71.8613H68.3232L69.2363 75.7578C69.3958 76.4772 69.5114 77.1006 69.583 77.6279C69.6025 77.4424 69.6465 77.1559 69.7148 76.7686C69.7865 76.3779 69.8532 76.0752 69.915 75.8604L70.9551 71.8613H72.3857L73.4258 75.8604C73.4714 76.0394 73.5283 76.3128 73.5967 76.6807C73.665 77.0485 73.7171 77.3643 73.7529 77.6279C73.7855 77.374 73.8376 77.0583 73.9092 76.6807C73.9808 76.2998 74.0459 75.9922 74.1045 75.7578L75.0127 71.8613H76.502L74.6855 79ZM87.8086 71.8613V76.4805C87.8086 77.0078 87.6898 77.4701 87.4521 77.8672C87.2178 78.2643 86.8776 78.5687 86.4316 78.7803C85.9857 78.9919 85.4583 79.0977 84.8496 79.0977C83.9316 79.0977 83.2188 78.8633 82.7109 78.3945C82.2031 77.9225 81.9492 77.278 81.9492 76.4609V71.8613H83.458V76.2314C83.458 76.7816 83.5687 77.1852 83.79 77.4424C84.0114 77.6995 84.3776 77.8281 84.8887 77.8281C85.3835 77.8281 85.7415 77.6995 85.9629 77.4424C86.1875 77.182 86.2998 76.7751 86.2998 76.2217V71.8613H87.8086ZM92.0703 75.2207H92.5684C93.0339 75.2207 93.3822 75.1296 93.6133 74.9473C93.8444 74.7617 93.96 74.4932 93.96 74.1416C93.96 73.7868 93.8623 73.5247 93.667 73.3555C93.4749 73.1862 93.1722 73.1016 92.7588 73.1016H92.0703V75.2207ZM95.4883 74.0879C95.4883 74.8561 95.2474 75.4437 94.7656 75.8506C94.2871 76.2575 93.6051 76.4609 92.7197 76.4609H92.0703V79H90.5566V71.8613H92.8369C93.7028 71.8613 94.3604 72.0485 94.8096 72.4229C95.262 72.7939 95.4883 73.349 95.4883 74.0879ZM103.759 75.3623C103.759 76.5374 103.424 77.4375 102.753 78.0625C102.086 78.6875 101.12 79 99.8574 79H97.8359V71.8613H100.077C101.243 71.8613 102.147 72.1689 102.792 72.7842C103.437 73.3994 103.759 74.2588 103.759 75.3623ZM102.187 75.4014C102.187 73.8682 101.509 73.1016 100.155 73.1016H99.3496V77.75H99.999C101.457 77.75 102.187 76.9671 102.187 75.4014ZM110.608 79L110.091 77.3008H107.488L106.971 79H105.34L107.859 71.832H109.71L112.239 79H110.608ZM109.729 76.0312C109.251 74.4915 108.981 73.6208 108.919 73.4189C108.86 73.2171 108.818 73.0576 108.792 72.9404C108.685 73.3571 108.377 74.3874 107.869 76.0312H109.729ZM116.896 79H115.383V73.1211H113.444V71.8613H118.835V73.1211H116.896V79ZM125.045 79H120.934V71.8613H125.045V73.1016H122.447V74.6689H124.864V75.9092H122.447V77.75H125.045V79ZM131.753 77.0176C131.753 77.6621 131.52 78.1699 131.055 78.541C130.592 78.9121 129.948 79.0977 129.121 79.0977C128.359 79.0977 127.686 78.9544 127.1 78.668V77.2617C127.581 77.4766 127.988 77.6279 128.32 77.7158C128.656 77.8037 128.962 77.8477 129.238 77.8477C129.57 77.8477 129.824 77.7842 130 77.6572C130.179 77.5303 130.269 77.3415 130.269 77.0908C130.269 76.9508 130.229 76.8271 130.151 76.7197C130.073 76.609 129.958 76.5033 129.805 76.4023C129.655 76.3014 129.347 76.1403 128.882 75.9189C128.446 75.7139 128.118 75.5169 127.9 75.3281C127.682 75.1393 127.508 74.9196 127.378 74.6689C127.248 74.4183 127.183 74.1253 127.183 73.79C127.183 73.1585 127.396 72.6621 127.822 72.3008C128.252 71.9395 128.844 71.7588 129.6 71.7588C129.971 71.7588 130.324 71.8027 130.659 71.8906C130.998 71.9785 131.351 72.1022 131.719 72.2617L131.23 73.4385C130.85 73.2822 130.534 73.1732 130.283 73.1113C130.036 73.0495 129.792 73.0186 129.551 73.0186C129.264 73.0186 129.045 73.0853 128.892 73.2188C128.739 73.3522 128.662 73.5264 128.662 73.7412C128.662 73.8747 128.693 73.9919 128.755 74.0928C128.817 74.1904 128.914 74.2865 129.048 74.3809C129.185 74.472 129.505 74.638 130.01 74.8789C130.677 75.1979 131.134 75.5186 131.382 75.8408C131.629 76.1598 131.753 76.5521 131.753 77.0176ZM142.015 79L141.497 77.3008H138.895L138.377 79H136.746L139.266 71.832H141.116L143.646 79H142.015ZM141.136 76.0312C140.657 74.4915 140.387 73.6208 140.325 73.4189C140.267 73.2171 140.224 73.0576 140.198 72.9404C140.091 73.3571 139.783 74.3874 139.275 76.0312H141.136ZM149.621 71.8613H151.149L148.723 79H147.072L144.65 71.8613H146.179L147.521 76.1094C147.596 76.36 147.673 76.653 147.751 76.9883C147.832 77.3203 147.883 77.5514 147.902 77.6816C147.938 77.3822 148.06 76.8581 148.269 76.1094L149.621 71.8613ZM157.423 79L156.905 77.3008H154.303L153.785 79H152.154L154.674 71.832H156.524L159.054 79H157.423ZM156.544 76.0312C156.065 74.4915 155.795 73.6208 155.733 73.4189C155.675 73.2171 155.632 73.0576 155.606 72.9404C155.499 73.3571 155.191 74.3874 154.684 76.0312H156.544ZM160.957 79V71.8613H162.471V79H160.957ZM165.268 79V71.8613H166.781V77.75H169.677V79H165.268ZM176.292 79L175.774 77.3008H173.172L172.654 79H171.023L173.543 71.832H175.394L177.923 79H176.292ZM175.413 76.0312C174.935 74.4915 174.664 73.6208 174.603 73.4189C174.544 73.2171 174.502 73.0576 174.476 72.9404C174.368 73.3571 174.061 74.3874 173.553 76.0312H175.413ZM179.826 71.8613H182.048C183.06 71.8613 183.794 72.0062 184.25 72.2959C184.709 72.5824 184.938 73.0397 184.938 73.668C184.938 74.0944 184.838 74.4443 184.636 74.7178C184.437 74.9912 184.172 75.1556 183.84 75.2109V75.2598C184.292 75.3607 184.618 75.5495 184.816 75.8262C185.018 76.1029 185.119 76.4707 185.119 76.9297C185.119 77.5807 184.883 78.0885 184.411 78.4531C183.942 78.8177 183.304 79 182.497 79H179.826V71.8613ZM181.34 74.6885H182.219C182.629 74.6885 182.925 74.625 183.107 74.498C183.293 74.3711 183.386 74.1611 183.386 73.8682C183.386 73.5947 183.285 73.3994 183.083 73.2822C182.884 73.1618 182.569 73.1016 182.136 73.1016H181.34V74.6885ZM181.34 75.8896V77.75H182.326C182.743 77.75 183.05 77.6702 183.249 77.5107C183.448 77.3512 183.547 77.1071 183.547 76.7783C183.547 76.1859 183.124 75.8896 182.277 75.8896H181.34ZM187.545 79V71.8613H189.059V77.75H191.954V79H187.545ZM198.311 79H194.199V71.8613H198.311V73.1016H195.713V74.6689H198.13V75.9092H195.713V77.75H198.311V79Z" fill="white"/>
</svg>
