<svg width="250" height="150" viewBox="0 0 250 150" fill="none" xmlns="http://www.w3.org/2000/svg">
<rect width="250" height="150" fill="white"/>
<rect x="74" y="67" width="101" height="16" rx="2" fill="#CA3C3D"/>
<path d="M80.4668 79L78.3867 73.541H79.9443L80.999 76.6514C81.1162 77.0452 81.1895 77.418 81.2188 77.7695H81.248C81.2643 77.457 81.3376 77.0843 81.4678 76.6514L82.5176 73.541H84.0752L81.9951 79H80.4668ZM89.2109 79H87.7021V74.8691L87.7168 74.1904L87.7412 73.4482C87.4906 73.6989 87.3164 73.8633 87.2188 73.9414L86.3984 74.6006L85.6709 73.6924L87.9707 71.8613H89.2109V79ZM92.3643 78.3018C92.3643 78.0283 92.4375 77.8216 92.584 77.6816C92.7305 77.5417 92.9437 77.4717 93.2236 77.4717C93.4938 77.4717 93.7021 77.5433 93.8486 77.6865C93.9984 77.8298 94.0732 78.0348 94.0732 78.3018C94.0732 78.5589 93.9984 78.7624 93.8486 78.9121C93.6989 79.0586 93.4906 79.1318 93.2236 79.1318C92.9502 79.1318 92.7386 79.0602 92.5889 78.917C92.4391 78.7705 92.3643 78.5654 92.3643 78.3018ZM101.035 79H96.0449V77.9502L97.8369 76.1387C98.3675 75.5951 98.7142 75.2191 98.877 75.0107C99.0397 74.7992 99.1569 74.6038 99.2285 74.4248C99.3001 74.2458 99.3359 74.0602 99.3359 73.8682C99.3359 73.5817 99.2562 73.3685 99.0967 73.2285C98.9404 73.0885 98.7305 73.0186 98.4668 73.0186C98.1901 73.0186 97.9215 73.082 97.6611 73.209C97.4007 73.3359 97.1289 73.5166 96.8457 73.751L96.0254 72.7793C96.377 72.4798 96.6683 72.2682 96.8994 72.1445C97.1305 72.0208 97.3828 71.9264 97.6562 71.8613C97.9297 71.793 98.2357 71.7588 98.5742 71.7588C99.0202 71.7588 99.4141 71.8402 99.7559 72.0029C100.098 72.1657 100.363 72.3936 100.552 72.6865C100.741 72.9795 100.835 73.3148 100.835 73.6924C100.835 74.0212 100.776 74.3304 100.659 74.6201C100.545 74.9066 100.366 75.2012 100.122 75.5039C99.8812 75.8066 99.4548 76.238 98.8428 76.7979L97.9248 77.6621V77.7305H101.035V79ZM102.929 78.3018C102.929 78.0283 103.002 77.8216 103.148 77.6816C103.295 77.5417 103.508 77.4717 103.788 77.4717C104.058 77.4717 104.267 77.5433 104.413 77.6865C104.563 77.8298 104.638 78.0348 104.638 78.3018C104.638 78.5589 104.563 78.7624 104.413 78.9121C104.263 79.0586 104.055 79.1318 103.788 79.1318C103.515 79.1318 103.303 79.0602 103.153 78.917C103.004 78.7705 102.929 78.5654 102.929 78.3018ZM111.761 77.5205H110.901V79H109.427V77.5205H106.38V76.4707L109.51 71.8613H110.901V76.3486H111.761V77.5205ZM109.427 76.3486V75.1377C109.427 74.9359 109.435 74.6429 109.451 74.2588C109.467 73.8747 109.48 73.6517 109.49 73.5898H109.451C109.331 73.8568 109.186 74.1172 109.017 74.3711L107.708 76.3486H109.427ZM121.788 79L121.271 77.3008H118.668L118.15 79H116.52L119.039 71.832H120.89L123.419 79H121.788ZM120.909 76.0312C120.431 74.4915 120.16 73.6208 120.099 73.4189C120.04 73.2171 119.998 73.0576 119.972 72.9404C119.864 73.3571 119.557 74.3874 119.049 76.0312H120.909ZM126.504 79L124.424 73.541H125.981L127.036 76.6514C127.153 77.0452 127.227 77.418 127.256 77.7695H127.285C127.301 77.457 127.375 77.0843 127.505 76.6514L128.555 73.541H130.112L128.032 79H126.504ZM135.365 79L135.077 78.2578H135.038C134.787 78.5736 134.529 78.7933 134.262 78.917C133.998 79.0374 133.653 79.0977 133.227 79.0977C132.702 79.0977 132.289 78.9479 131.986 78.6484C131.687 78.349 131.537 77.9225 131.537 77.3691C131.537 76.7897 131.739 76.3633 132.143 76.0898C132.549 75.8132 133.161 75.6602 133.979 75.6309L134.926 75.6016V75.3623C134.926 74.8089 134.643 74.5322 134.076 74.5322C133.64 74.5322 133.127 74.6641 132.538 74.9277L132.045 73.9219C132.673 73.5931 133.37 73.4287 134.135 73.4287C134.867 73.4287 135.429 73.5882 135.819 73.9072C136.21 74.2262 136.405 74.7113 136.405 75.3623V79H135.365ZM134.926 76.4707L134.35 76.4902C133.917 76.5033 133.594 76.5814 133.383 76.7246C133.171 76.8678 133.065 77.0859 133.065 77.3789C133.065 77.7988 133.306 78.0088 133.788 78.0088C134.133 78.0088 134.408 77.9095 134.613 77.7109C134.822 77.5124 134.926 77.2487 134.926 76.9199V76.4707ZM138.88 72.1299C138.88 71.6449 139.15 71.4023 139.69 71.4023C140.231 71.4023 140.501 71.6449 140.501 72.1299C140.501 72.361 140.433 72.5417 140.296 72.6719C140.162 72.7988 139.961 72.8623 139.69 72.8623C139.15 72.8623 138.88 72.6182 138.88 72.1299ZM140.433 79H138.943V73.541H140.433V79ZM144.489 79H143V71.4023H144.489V79ZM150.523 79L150.235 78.2578H150.196C149.946 78.5736 149.687 78.7933 149.42 78.917C149.156 79.0374 148.811 79.0977 148.385 79.0977C147.861 79.0977 147.447 78.9479 147.145 78.6484C146.845 78.349 146.695 77.9225 146.695 77.3691C146.695 76.7897 146.897 76.3633 147.301 76.0898C147.708 75.8132 148.32 75.6602 149.137 75.6309L150.084 75.6016V75.3623C150.084 74.8089 149.801 74.5322 149.234 74.5322C148.798 74.5322 148.285 74.6641 147.696 74.9277L147.203 73.9219C147.831 73.5931 148.528 73.4287 149.293 73.4287C150.025 73.4287 150.587 73.5882 150.978 73.9072C151.368 74.2262 151.563 74.7113 151.563 75.3623V79H150.523ZM150.084 76.4707L149.508 76.4902C149.075 76.5033 148.753 76.5814 148.541 76.7246C148.329 76.8678 148.224 77.0859 148.224 77.3789C148.224 77.7988 148.465 78.0088 148.946 78.0088C149.291 78.0088 149.566 77.9095 149.771 77.7109C149.98 77.5124 150.084 77.2487 150.084 76.9199V76.4707ZM157.139 73.4385C157.783 73.4385 158.288 73.6908 158.652 74.1953C159.017 74.6966 159.199 75.3851 159.199 76.2607C159.199 77.1624 159.01 77.8607 158.633 78.3555C158.258 78.8503 157.747 79.0977 157.1 79.0977C156.458 79.0977 155.955 78.8649 155.591 78.3994H155.488L155.239 79H154.102V71.4023H155.591V73.1699C155.591 73.3945 155.571 73.7542 155.532 74.249H155.591C155.939 73.7087 156.455 73.4385 157.139 73.4385ZM156.66 74.6299C156.292 74.6299 156.024 74.7438 155.854 74.9717C155.685 75.1963 155.597 75.569 155.591 76.0898V76.251C155.591 76.8369 155.677 77.2568 155.85 77.5107C156.025 77.7646 156.302 77.8916 156.68 77.8916C156.986 77.8916 157.228 77.7516 157.407 77.4717C157.59 77.1885 157.681 76.7783 157.681 76.2412C157.681 75.7041 157.59 75.3021 157.407 75.0352C157.225 74.765 156.976 74.6299 156.66 74.6299ZM162.919 79H161.43V71.4023H162.919V79ZM167.747 74.498C167.431 74.498 167.184 74.599 167.005 74.8008C166.826 74.9993 166.723 75.2826 166.697 75.6504H168.787C168.781 75.2826 168.685 74.9993 168.499 74.8008C168.313 74.599 168.063 74.498 167.747 74.498ZM167.957 79.0977C167.078 79.0977 166.391 78.8551 165.896 78.3701C165.402 77.8851 165.154 77.1982 165.154 76.3096C165.154 75.3949 165.382 74.6885 165.838 74.1904C166.297 73.6891 166.93 73.4385 167.737 73.4385C168.509 73.4385 169.109 73.6582 169.539 74.0977C169.969 74.5371 170.184 75.1442 170.184 75.9189V76.6416H166.663C166.679 77.0648 166.805 77.3952 167.039 77.6328C167.273 77.8704 167.602 77.9893 168.025 77.9893C168.354 77.9893 168.665 77.9551 168.958 77.8867C169.251 77.8184 169.557 77.7093 169.876 77.5596V78.7119C169.616 78.8421 169.337 78.9382 169.041 79C168.745 79.0651 168.383 79.0977 167.957 79.0977Z" fill="white"/>
</svg>
