<svg width="150" height="150" viewBox="0 0 150 150" fill="none" xmlns="http://www.w3.org/2000/svg">
<rect width="150" height="150" fill="white"/>
<path d="M53.1699 75.4209C53.1699 76.6025 52.877 77.5107 52.291 78.1455C51.7051 78.7803 50.8652 79.0977 49.7715 79.0977C48.6777 79.0977 47.8379 78.7803 47.252 78.1455C46.666 77.5107 46.373 76.5993 46.373 75.4111C46.373 74.223 46.666 73.3164 47.252 72.6914C47.8411 72.0632 48.6842 71.749 49.7812 71.749C50.8783 71.749 51.7165 72.0648 52.2959 72.6963C52.8786 73.3278 53.1699 74.236 53.1699 75.4209ZM47.96 75.4209C47.96 76.2184 48.1113 76.819 48.4141 77.2227C48.7168 77.6263 49.1693 77.8281 49.7715 77.8281C50.9792 77.8281 51.583 77.0257 51.583 75.4209C51.583 73.8128 50.9824 73.0088 49.7812 73.0088C49.179 73.0088 48.7249 73.2122 48.4189 73.6191C48.113 74.0228 47.96 74.6234 47.96 75.4209ZM61.46 71.8613V76.4805C61.46 77.0078 61.3411 77.4701 61.1035 77.8672C60.8691 78.2643 60.529 78.5687 60.083 78.7803C59.637 78.9919 59.1097 79.0977 58.501 79.0977C57.583 79.0977 56.8701 78.8633 56.3623 78.3945C55.8545 77.9225 55.6006 77.278 55.6006 76.4609V71.8613H57.1094V76.2314C57.1094 76.7816 57.2201 77.1852 57.4414 77.4424C57.6628 77.6995 58.029 77.8281 58.54 77.8281C59.0348 77.8281 59.3929 77.6995 59.6143 77.4424C59.8389 77.182 59.9512 76.7751 59.9512 76.2217V71.8613H61.46ZM66.9619 79H65.4482V73.1211H63.5098V71.8613H68.9004V73.1211H66.9619V79ZM70.999 79V71.8613H72.5127V77.75H75.4082V79H70.999ZM77.6533 79V71.8613H79.167V79H77.6533ZM88.2969 79H86.373L83.2676 73.5996H83.2236C83.2855 74.5534 83.3164 75.2337 83.3164 75.6406V79H81.9639V71.8613H83.873L86.9736 77.208H87.0078C86.959 76.2803 86.9346 75.6243 86.9346 75.2402V71.8613H88.2969V79ZM95.21 79H91.0986V71.8613H95.21V73.1016H92.6123V74.6689H95.0293V75.9092H92.6123V77.75H95.21V79ZM103.627 75.3623C103.627 76.5374 103.292 77.4375 102.621 78.0625C101.954 78.6875 100.989 79 99.7256 79H97.7041V71.8613H99.9453C101.111 71.8613 102.016 72.1689 102.66 72.7842C103.305 73.3994 103.627 74.2588 103.627 75.3623ZM102.055 75.4014C102.055 73.8682 101.378 73.1016 100.023 73.1016H99.2178V77.75H99.8672C101.326 77.75 102.055 76.9671 102.055 75.4014Z" fill="#CA3C3D"/>
<rect x="42" y="67.5" width="66" height="15" rx="1.5" stroke="#CA3C3D"/>
</svg>
