<svg width="150" height="150" viewBox="0 0 150 150" fill="none" xmlns="http://www.w3.org/2000/svg">
<rect width="150" height="150" fill="white"/>
<rect x="48" y="67" width="54" height="16" rx="2" fill="#CA3C3D" fill-opacity="0.1"/>
<path d="M57.373 77.0176C57.373 77.6621 57.1403 78.1699 56.6748 78.541C56.2126 78.9121 55.568 79.0977 54.7412 79.0977C53.9795 79.0977 53.3057 78.9544 52.7197 78.668V77.2617C53.2015 77.4766 53.6084 77.6279 53.9404 77.7158C54.2757 77.8037 54.5817 77.8477 54.8584 77.8477C55.1904 77.8477 55.4443 77.7842 55.6201 77.6572C55.7992 77.5303 55.8887 77.3415 55.8887 77.0908C55.8887 76.9508 55.8496 76.8271 55.7715 76.7197C55.6934 76.609 55.5778 76.5033 55.4248 76.4023C55.2751 76.3014 54.9674 76.1403 54.502 75.9189C54.0658 75.7139 53.7386 75.5169 53.5205 75.3281C53.3024 75.1393 53.1283 74.9196 52.998 74.6689C52.8678 74.4183 52.8027 74.1253 52.8027 73.79C52.8027 73.1585 53.016 72.6621 53.4424 72.3008C53.8721 71.9395 54.4645 71.7588 55.2197 71.7588C55.5908 71.7588 55.944 71.8027 56.2793 71.8906C56.6178 71.9785 56.971 72.1022 57.3389 72.2617L56.8506 73.4385C56.4697 73.2822 56.154 73.1732 55.9033 73.1113C55.6559 73.0495 55.4118 73.0186 55.1709 73.0186C54.8844 73.0186 54.6647 73.0853 54.5117 73.2188C54.3587 73.3522 54.2822 73.5264 54.2822 73.7412C54.2822 73.8747 54.3132 73.9919 54.375 74.0928C54.4368 74.1904 54.5345 74.2865 54.668 74.3809C54.8047 74.472 55.1253 74.638 55.6299 74.8789C56.2972 75.1979 56.7546 75.5186 57.002 75.8408C57.2493 76.1598 57.373 76.5521 57.373 77.0176ZM65.5166 79H64.0078V75.9189H61.1807V79H59.667V71.8613H61.1807V74.6592H64.0078V71.8613H65.5166V79ZM72.6934 79L72.1758 77.3008H69.5732L69.0557 79H67.4248L69.9443 71.832H71.7949L74.3242 79H72.6934ZM71.8145 76.0312C71.3359 74.4915 71.0658 73.6208 71.0039 73.4189C70.9453 73.2171 70.903 73.0576 70.877 72.9404C70.7695 73.3571 70.4619 74.3874 69.9541 76.0312H71.8145ZM82.1504 75.3623C82.1504 76.5374 81.8151 77.4375 81.1445 78.0625C80.4772 78.6875 79.512 79 78.249 79H76.2275V71.8613H78.4688C79.6341 71.8613 80.5391 72.1689 81.1836 72.7842C81.8281 73.3994 82.1504 74.2588 82.1504 75.3623ZM80.5781 75.4014C80.5781 73.8682 79.901 73.1016 78.5469 73.1016H77.7412V77.75H78.3906C79.849 77.75 80.5781 76.9671 80.5781 75.4014ZM88.7412 79H84.6299V71.8613H88.7412V73.1016H86.1436V74.6689H88.5605V75.9092H86.1436V77.75H88.7412V79ZM97.1582 75.3623C97.1582 76.5374 96.8229 77.4375 96.1523 78.0625C95.485 78.6875 94.5199 79 93.2568 79H91.2354V71.8613H93.4766C94.6419 71.8613 95.5469 72.1689 96.1914 72.7842C96.8359 73.3994 97.1582 74.2588 97.1582 75.3623ZM95.5859 75.4014C95.5859 73.8682 94.9089 73.1016 93.5547 73.1016H92.749V77.75H93.3984C94.8568 77.75 95.5859 76.9671 95.5859 75.4014Z" fill="#CA3C3D"/>
</svg>
