<svg width="200" height="150" viewBox="0 0 200 150" fill="none" xmlns="http://www.w3.org/2000/svg">
<rect width="200" height="150" fill="#E2E5E5"/>
<rect x="69" y="67" width="62" height="16" rx="2" fill="#F47721"/>
<path d="M76.9541 79H75.4404V73.1211H73.502V71.8613H78.8926V73.1211H76.9541V79ZM85.3613 79L84.8438 77.3008H82.2412L81.7236 79H80.0928L82.6123 71.832H84.4629L86.9922 79H85.3613ZM84.4824 76.0312C84.0039 74.4915 83.7337 73.6208 83.6719 73.4189C83.6133 73.2171 83.571 73.0576 83.5449 72.9404C83.4375 73.3571 83.1299 74.3874 82.6221 76.0312H84.4824ZM91.6055 74.9912H94.4375V78.6924C93.9785 78.8421 93.5456 78.9463 93.1387 79.0049C92.735 79.0667 92.3216 79.0977 91.8984 79.0977C90.821 79.0977 89.9974 78.7819 89.4277 78.1504C88.8613 77.5156 88.5781 76.6058 88.5781 75.4209C88.5781 74.2686 88.9069 73.3701 89.5645 72.7256C90.2253 72.0811 91.14 71.7588 92.3086 71.7588C93.041 71.7588 93.7474 71.9053 94.4277 72.1982L93.9248 73.4092C93.404 73.1488 92.862 73.0186 92.2988 73.0186C91.6445 73.0186 91.1204 73.2383 90.7266 73.6777C90.3327 74.1172 90.1357 74.708 90.1357 75.4502C90.1357 76.2249 90.2936 76.8174 90.6094 77.2275C90.9284 77.6344 91.3906 77.8379 91.9961 77.8379C92.3118 77.8379 92.6325 77.8053 92.958 77.7402V76.251H91.6055V74.9912ZM103.493 79H101.979V73.1211H100.041V71.8613H105.432V73.1211H103.493V79ZM111.642 79H107.53V71.8613H111.642V73.1016H109.044V74.6689H111.461V75.9092H109.044V77.75H111.642V79ZM119.907 79H118.179L116.519 76.2998L114.858 79H113.237L115.605 75.3184L113.389 71.8613H115.059L116.597 74.4297L118.105 71.8613H119.736L117.495 75.4014L119.907 79ZM124.56 79H123.046V73.1211H121.107V71.8613H126.498V73.1211H124.56V79Z" fill="white"/>
<rect width="104" height="34" transform="translate(48 99)" fill="#FFAA2A"/>
<path d="M54.9834 113H53.7119V104.571L51.1621 105.508V104.359L54.7852 102.999H54.9834V113ZM64.9297 108.755C64.9297 110.236 64.6768 111.337 64.1709 112.057C63.665 112.777 62.8743 113.137 61.7988 113.137C60.737 113.137 59.9508 112.786 59.4404 112.084C58.93 111.378 58.6657 110.325 58.6475 108.926V107.237C58.6475 105.774 58.9004 104.688 59.4062 103.977C59.9121 103.266 60.7051 102.91 61.7852 102.91C62.8561 102.91 63.6445 103.254 64.1504 103.942C64.6562 104.626 64.916 105.683 64.9297 107.114V108.755ZM63.665 107.025C63.665 105.954 63.5146 105.175 63.2139 104.688C62.9131 104.195 62.4368 103.949 61.7852 103.949C61.138 103.949 60.6663 104.193 60.3701 104.681C60.0739 105.168 59.9212 105.918 59.9121 106.93V108.953C59.9121 110.029 60.0671 110.824 60.377 111.339C60.6914 111.849 61.1654 112.104 61.7988 112.104C62.4232 112.104 62.8857 111.863 63.1865 111.38C63.4919 110.897 63.6514 110.136 63.665 109.097V107.025ZM66.3721 109.24C66.3721 108.105 66.641 107.194 67.1787 106.506C67.7165 105.813 68.4206 105.467 69.291 105.467C70.1569 105.467 70.8428 105.763 71.3486 106.355V102.5H72.6133V113H71.4512L71.3896 112.207C70.8838 112.827 70.1797 113.137 69.2773 113.137C68.4206 113.137 67.721 112.786 67.1787 112.084C66.641 111.382 66.3721 110.466 66.3721 109.336V109.24ZM67.6367 109.384C67.6367 110.222 67.8099 110.879 68.1562 111.353C68.5026 111.826 68.9811 112.063 69.5918 112.063C70.3939 112.063 70.9795 111.703 71.3486 110.983V107.586C70.9704 106.889 70.3893 106.54 69.6055 106.54C68.9857 106.54 68.5026 106.779 68.1562 107.258C67.8099 107.736 67.6367 108.445 67.6367 109.384ZM80.8301 109.384C80.8301 110.509 80.5726 111.416 80.0576 112.104C79.5426 112.793 78.8454 113.137 77.9658 113.137C77.068 113.137 76.3617 112.852 75.8467 112.282V115.844H74.582V105.604H75.7373L75.7988 106.424C76.3138 105.786 77.0293 105.467 77.9453 105.467C78.834 105.467 79.5358 105.802 80.0508 106.472C80.5703 107.142 80.8301 108.074 80.8301 109.268V109.384ZM79.5654 109.24C79.5654 108.406 79.3877 107.748 79.0322 107.265C78.6768 106.782 78.1891 106.54 77.5693 106.54C76.8037 106.54 76.2295 106.88 75.8467 107.559V111.093C76.2249 111.767 76.8037 112.104 77.583 112.104C78.1891 112.104 78.6699 111.865 79.0254 111.387C79.3854 110.904 79.5654 110.188 79.5654 109.24ZM92.1777 109.384C92.1777 110.514 91.918 111.423 91.3984 112.111C90.8789 112.795 90.1816 113.137 89.3066 113.137C88.3724 113.137 87.6501 112.806 87.1396 112.146L87.0781 113H85.916V102.5H87.1807V106.417C87.6911 105.784 88.3952 105.467 89.293 105.467C90.1908 105.467 90.8949 105.806 91.4053 106.485C91.9202 107.164 92.1777 108.094 92.1777 109.274V109.384ZM90.9131 109.24C90.9131 108.379 90.7467 107.714 90.4141 107.244C90.0814 106.775 89.6029 106.54 88.9785 106.54C88.1445 106.54 87.5452 106.927 87.1807 107.702V110.901C87.568 111.676 88.1719 112.063 88.9922 112.063C89.5983 112.063 90.07 111.829 90.4072 111.359C90.7445 110.89 90.9131 110.184 90.9131 109.24ZM93.4424 109.233C93.4424 108.509 93.5837 107.857 93.8662 107.278C94.1533 106.7 94.5498 106.253 95.0557 105.938C95.5661 105.624 96.1471 105.467 96.7988 105.467C97.806 105.467 98.6195 105.815 99.2393 106.513C99.8636 107.21 100.176 108.137 100.176 109.295V109.384C100.176 110.104 100.037 110.751 99.7588 111.325C99.4854 111.895 99.0911 112.339 98.5762 112.658C98.0658 112.977 97.4779 113.137 96.8125 113.137C95.8099 113.137 94.9964 112.788 94.3721 112.091C93.7523 111.394 93.4424 110.471 93.4424 109.322V109.233ZM94.7139 109.384C94.7139 110.204 94.903 110.863 95.2812 111.359C95.6641 111.856 96.1745 112.104 96.8125 112.104C97.4551 112.104 97.9655 111.854 98.3438 111.353C98.722 110.847 98.9111 110.14 98.9111 109.233C98.9111 108.422 98.7174 107.766 98.3301 107.265C97.9473 106.759 97.4368 106.506 96.7988 106.506C96.1745 106.506 95.6709 106.754 95.2881 107.251C94.9053 107.748 94.7139 108.459 94.7139 109.384ZM103.136 113H101.871V102.5H103.136V113ZM104.858 109.24C104.858 108.105 105.127 107.194 105.665 106.506C106.203 105.813 106.907 105.467 107.777 105.467C108.643 105.467 109.329 105.763 109.835 106.355V102.5H111.1V113H109.938L109.876 112.207C109.37 112.827 108.666 113.137 107.764 113.137C106.907 113.137 106.207 112.786 105.665 112.084C105.127 111.382 104.858 110.466 104.858 109.336V109.24ZM106.123 109.384C106.123 110.222 106.296 110.879 106.643 111.353C106.989 111.826 107.467 112.063 108.078 112.063C108.88 112.063 109.466 111.703 109.835 110.983V107.586C109.457 106.889 108.876 106.54 108.092 106.54C107.472 106.54 106.989 106.779 106.643 107.258C106.296 107.736 106.123 108.445 106.123 109.384ZM52.3311 129H51.0664V118.5H52.3311V129ZM57.4307 129.137C56.4281 129.137 55.6123 128.809 54.9834 128.152C54.3545 127.492 54.04 126.61 54.04 125.507V125.274C54.04 124.541 54.179 123.887 54.457 123.312C54.7396 122.734 55.1315 122.283 55.6328 121.959C56.1387 121.631 56.6855 121.467 57.2734 121.467C58.235 121.467 58.9824 121.784 59.5156 122.417C60.0488 123.05 60.3154 123.957 60.3154 125.138V125.664H55.3047C55.3229 126.393 55.5348 126.983 55.9404 127.435C56.3506 127.881 56.8701 128.104 57.499 128.104C57.9456 128.104 58.3239 128.013 58.6338 127.831C58.9437 127.649 59.2148 127.407 59.4473 127.106L60.2197 127.708C59.5999 128.66 58.6702 129.137 57.4307 129.137ZM57.2734 122.506C56.763 122.506 56.3346 122.693 55.9883 123.066C55.6419 123.436 55.4277 123.955 55.3457 124.625H59.0508V124.529C59.0143 123.887 58.8411 123.39 58.5312 123.039C58.2214 122.684 57.8021 122.506 57.2734 122.506ZM63.501 119.812V121.604H64.8818V122.581H63.501V127.168C63.501 127.464 63.5625 127.688 63.6855 127.838C63.8086 127.984 64.0182 128.057 64.3145 128.057C64.4603 128.057 64.6608 128.029 64.916 127.975V129C64.5833 129.091 64.2598 129.137 63.9453 129.137C63.3802 129.137 62.9541 128.966 62.667 128.624C62.3799 128.282 62.2363 127.797 62.2363 127.168V122.581H60.8896V121.604H62.2363V119.812H63.501ZM68.0811 119.812V121.604H69.4619V122.581H68.0811V127.168C68.0811 127.464 68.1426 127.688 68.2656 127.838C68.3887 127.984 68.5983 128.057 68.8945 128.057C69.0404 128.057 69.2409 128.029 69.4961 127.975V129C69.1634 129.091 68.8398 129.137 68.5254 129.137C67.9603 129.137 67.5342 128.966 67.2471 128.624C66.96 128.282 66.8164 127.797 66.8164 127.168V122.581H65.4697V121.604H66.8164V119.812H68.0811ZM74.0146 129.137C73.012 129.137 72.1963 128.809 71.5674 128.152C70.9385 127.492 70.624 126.61 70.624 125.507V125.274C70.624 124.541 70.763 123.887 71.041 123.312C71.3236 122.734 71.7155 122.283 72.2168 121.959C72.7227 121.631 73.2695 121.467 73.8574 121.467C74.819 121.467 75.5664 121.784 76.0996 122.417C76.6328 123.05 76.8994 123.957 76.8994 125.138V125.664H71.8887C71.9069 126.393 72.1188 126.983 72.5244 127.435C72.9346 127.881 73.4541 128.104 74.083 128.104C74.5296 128.104 74.9079 128.013 75.2178 127.831C75.5277 127.649 75.7988 127.407 76.0312 127.106L76.8037 127.708C76.1839 128.66 75.2542 129.137 74.0146 129.137ZM73.8574 122.506C73.347 122.506 72.9186 122.693 72.5723 123.066C72.2259 123.436 72.0117 123.955 71.9297 124.625H75.6348V124.529C75.5983 123.887 75.4251 123.39 75.1152 123.039C74.8053 122.684 74.3861 122.506 73.8574 122.506ZM81.9443 122.738C81.7529 122.706 81.5456 122.69 81.3223 122.69C80.4928 122.69 79.93 123.044 79.6338 123.75V129H78.3691V121.604H79.5996L79.6201 122.458C80.0348 121.797 80.6227 121.467 81.3838 121.467C81.6299 121.467 81.8167 121.499 81.9443 121.562V122.738ZM90.8926 127.038C90.8926 126.696 90.7627 126.432 90.5029 126.245C90.2477 126.054 89.7988 125.89 89.1562 125.753C88.5182 125.616 88.0101 125.452 87.6318 125.261C87.2581 125.069 86.9801 124.841 86.7979 124.577C86.6201 124.313 86.5312 123.998 86.5312 123.634C86.5312 123.028 86.7865 122.515 87.2969 122.096C87.8118 121.676 88.4681 121.467 89.2656 121.467C90.1042 121.467 90.7832 121.683 91.3027 122.116C91.8268 122.549 92.0889 123.103 92.0889 123.777H90.8174C90.8174 123.431 90.6693 123.132 90.373 122.882C90.0814 122.631 89.7122 122.506 89.2656 122.506C88.8053 122.506 88.4453 122.606 88.1855 122.807C87.9258 123.007 87.7959 123.269 87.7959 123.593C87.7959 123.898 87.9167 124.128 88.1582 124.283C88.3997 124.438 88.835 124.586 89.4639 124.728C90.0973 124.869 90.61 125.037 91.002 125.233C91.3939 125.429 91.6833 125.666 91.8701 125.944C92.0615 126.218 92.1572 126.553 92.1572 126.949C92.1572 127.61 91.8929 128.141 91.3643 128.542C90.8356 128.938 90.1497 129.137 89.3066 129.137C88.7142 129.137 88.1901 129.032 87.7344 128.822C87.2786 128.613 86.9209 128.321 86.6611 127.947C86.4059 127.569 86.2783 127.161 86.2783 126.724H87.543C87.5658 127.147 87.7344 127.485 88.0488 127.735C88.3678 127.981 88.7871 128.104 89.3066 128.104C89.7852 128.104 90.168 128.009 90.4551 127.817C90.7467 127.621 90.8926 127.362 90.8926 127.038ZM100.053 125.384C100.053 126.509 99.7952 127.416 99.2803 128.104C98.7653 128.793 98.068 129.137 97.1885 129.137C96.2907 129.137 95.5843 128.852 95.0693 128.282V131.844H93.8047V121.604H94.96L95.0215 122.424C95.5365 121.786 96.252 121.467 97.168 121.467C98.0566 121.467 98.7585 121.802 99.2734 122.472C99.793 123.142 100.053 124.074 100.053 125.268V125.384ZM98.7881 125.24C98.7881 124.406 98.6104 123.748 98.2549 123.265C97.8994 122.782 97.4118 122.54 96.792 122.54C96.0264 122.54 95.4521 122.88 95.0693 123.559V127.093C95.4476 127.767 96.0264 128.104 96.8057 128.104C97.4118 128.104 97.8926 127.865 98.248 127.387C98.6081 126.904 98.7881 126.188 98.7881 125.24ZM106.232 129C106.16 128.854 106.1 128.594 106.055 128.221C105.467 128.831 104.765 129.137 103.949 129.137C103.22 129.137 102.621 128.932 102.151 128.521C101.687 128.107 101.454 127.583 101.454 126.949C101.454 126.179 101.746 125.582 102.329 125.158C102.917 124.73 103.742 124.516 104.804 124.516H106.034V123.935C106.034 123.493 105.902 123.142 105.638 122.882C105.373 122.618 104.984 122.485 104.469 122.485C104.018 122.485 103.639 122.599 103.334 122.827C103.029 123.055 102.876 123.331 102.876 123.654H101.604C101.604 123.285 101.734 122.93 101.994 122.588C102.258 122.242 102.614 121.968 103.061 121.768C103.512 121.567 104.006 121.467 104.544 121.467C105.396 121.467 106.064 121.681 106.547 122.109C107.03 122.533 107.281 123.119 107.299 123.866V127.271C107.299 127.95 107.385 128.49 107.559 128.891V129H106.232ZM104.134 128.036C104.53 128.036 104.906 127.934 105.262 127.729C105.617 127.523 105.875 127.257 106.034 126.929V125.411H105.043C103.493 125.411 102.719 125.865 102.719 126.771C102.719 127.168 102.851 127.478 103.115 127.701C103.38 127.924 103.719 128.036 104.134 128.036ZM112.248 128.104C112.699 128.104 113.093 127.968 113.431 127.694C113.768 127.421 113.955 127.079 113.991 126.669H115.188C115.165 127.093 115.019 127.496 114.75 127.879C114.481 128.262 114.121 128.567 113.67 128.795C113.223 129.023 112.749 129.137 112.248 129.137C111.241 129.137 110.439 128.802 109.842 128.132C109.249 127.457 108.953 126.537 108.953 125.37V125.158C108.953 124.438 109.085 123.798 109.35 123.237C109.614 122.677 109.992 122.242 110.484 121.932C110.981 121.622 111.567 121.467 112.241 121.467C113.071 121.467 113.759 121.715 114.306 122.212C114.857 122.709 115.151 123.354 115.188 124.146H113.991C113.955 123.668 113.772 123.276 113.444 122.971C113.121 122.661 112.72 122.506 112.241 122.506C111.599 122.506 111.1 122.738 110.744 123.203C110.393 123.663 110.218 124.331 110.218 125.206V125.445C110.218 126.298 110.393 126.954 110.744 127.414C111.095 127.874 111.596 128.104 112.248 128.104ZM117.983 129H116.719V121.604H117.983V129ZM116.616 119.642C116.616 119.437 116.678 119.263 116.801 119.122C116.928 118.981 117.115 118.91 117.361 118.91C117.607 118.91 117.794 118.981 117.922 119.122C118.049 119.263 118.113 119.437 118.113 119.642C118.113 119.847 118.049 120.018 117.922 120.154C117.794 120.291 117.607 120.359 117.361 120.359C117.115 120.359 116.928 120.291 116.801 120.154C116.678 120.018 116.616 119.847 116.616 119.642ZM121.21 121.604L121.251 122.533C121.816 121.822 122.554 121.467 123.466 121.467C125.029 121.467 125.817 122.349 125.831 124.112V129H124.566V124.105C124.562 123.572 124.439 123.178 124.197 122.923C123.96 122.668 123.589 122.54 123.083 122.54C122.673 122.54 122.313 122.649 122.003 122.868C121.693 123.087 121.451 123.374 121.278 123.729V129H120.014V121.604H121.21ZM127.438 125.24C127.438 124.087 127.704 123.171 128.237 122.492C128.771 121.809 129.477 121.467 130.356 121.467C131.259 121.467 131.963 121.786 132.469 122.424L132.53 121.604H133.686V128.822C133.686 129.779 133.401 130.534 132.831 131.085C132.266 131.636 131.505 131.912 130.548 131.912C130.015 131.912 129.493 131.798 128.982 131.57C128.472 131.342 128.082 131.03 127.813 130.634L128.47 129.875C129.012 130.545 129.675 130.88 130.459 130.88C131.074 130.88 131.553 130.707 131.895 130.36C132.241 130.014 132.414 129.526 132.414 128.897V128.262C131.908 128.845 131.218 129.137 130.343 129.137C129.477 129.137 128.775 128.788 128.237 128.091C127.704 127.394 127.438 126.443 127.438 125.24ZM128.709 125.384C128.709 126.218 128.88 126.874 129.222 127.353C129.563 127.826 130.042 128.063 130.657 128.063C131.455 128.063 132.04 127.701 132.414 126.977V123.6C132.027 122.893 131.446 122.54 130.671 122.54C130.056 122.54 129.575 122.779 129.229 123.258C128.882 123.736 128.709 124.445 128.709 125.384ZM135.559 128.337C135.559 128.118 135.622 127.936 135.75 127.79C135.882 127.644 136.078 127.571 136.338 127.571C136.598 127.571 136.794 127.644 136.926 127.79C137.062 127.936 137.131 128.118 137.131 128.337C137.131 128.547 137.062 128.722 136.926 128.863C136.794 129.005 136.598 129.075 136.338 129.075C136.078 129.075 135.882 129.005 135.75 128.863C135.622 128.722 135.559 128.547 135.559 128.337ZM135.565 122.301C135.565 122.082 135.629 121.9 135.757 121.754C135.889 121.608 136.085 121.535 136.345 121.535C136.604 121.535 136.8 121.608 136.933 121.754C137.069 121.9 137.138 122.082 137.138 122.301C137.138 122.51 137.069 122.686 136.933 122.827C136.8 122.968 136.604 123.039 136.345 123.039C136.085 123.039 135.889 122.968 135.757 122.827C135.629 122.686 135.565 122.51 135.565 122.301ZM146.489 129H145.218V120.571L142.668 121.508V120.359L146.291 118.999H146.489V129Z" fill="white"/>
<rect width="117" height="18" transform="translate(68 31)" fill="#FF1844"/>
<path d="M77.2188 41.3838C77.2188 42.514 76.959 43.4232 76.4395 44.1113C75.9199 44.7949 75.2227 45.1367 74.3477 45.1367C73.4134 45.1367 72.6911 44.8063 72.1807 44.1455L72.1191 45H70.957V34.5H72.2217V38.417C72.7321 37.7835 73.4362 37.4668 74.334 37.4668C75.2318 37.4668 75.9359 37.8063 76.4463 38.4854C76.9613 39.1644 77.2188 40.0941 77.2188 41.2744V41.3838ZM75.9541 41.2402C75.9541 40.3789 75.7878 39.7135 75.4551 39.2441C75.1224 38.7747 74.6439 38.54 74.0195 38.54C73.1855 38.54 72.5863 38.9274 72.2217 39.7021V42.9014C72.609 43.6761 73.2129 44.0635 74.0332 44.0635C74.6393 44.0635 75.111 43.8288 75.4482 43.3594C75.7855 42.89 75.9541 42.1836 75.9541 41.2402ZM78.4834 41.2334C78.4834 40.5088 78.6247 39.8571 78.9072 39.2783C79.1943 38.6995 79.5908 38.2529 80.0967 37.9385C80.6071 37.624 81.1882 37.4668 81.8398 37.4668C82.847 37.4668 83.6605 37.8154 84.2803 38.5127C84.9046 39.21 85.2168 40.1374 85.2168 41.2949V41.3838C85.2168 42.1038 85.0778 42.751 84.7998 43.3252C84.5264 43.8949 84.1322 44.3392 83.6172 44.6582C83.1068 44.9772 82.5189 45.1367 81.8535 45.1367C80.8509 45.1367 80.0374 44.7881 79.4131 44.0908C78.7933 43.3936 78.4834 42.4707 78.4834 41.3223V41.2334ZM79.7549 41.3838C79.7549 42.2041 79.944 42.8626 80.3223 43.3594C80.7051 43.8561 81.2155 44.1045 81.8535 44.1045C82.4961 44.1045 83.0065 43.8538 83.3848 43.3525C83.763 42.8467 83.9521 42.1403 83.9521 41.2334C83.9521 40.4222 83.7585 39.766 83.3711 39.2646C82.9883 38.7588 82.4779 38.5059 81.8398 38.5059C81.2155 38.5059 80.7119 38.7542 80.3291 39.251C79.9463 39.7477 79.7549 40.4587 79.7549 41.3838ZM90.3779 38.7383C90.1865 38.7064 89.9792 38.6904 89.7559 38.6904C88.9264 38.6904 88.3636 39.0436 88.0674 39.75V45H86.8027V37.6035H88.0332L88.0537 38.458C88.4684 37.7972 89.0563 37.4668 89.8174 37.4668C90.0635 37.4668 90.2503 37.4987 90.3779 37.5625V38.7383ZM91.1025 41.2402C91.1025 40.1055 91.3714 39.194 91.9092 38.5059C92.4469 37.8132 93.151 37.4668 94.0215 37.4668C94.8874 37.4668 95.5732 37.763 96.0791 38.3555V34.5H97.3438V45H96.1816L96.1201 44.207C95.6143 44.8268 94.9102 45.1367 94.0078 45.1367C93.151 45.1367 92.4515 44.7858 91.9092 44.084C91.3714 43.3822 91.1025 42.4661 91.1025 41.3359V41.2402ZM92.3672 41.3838C92.3672 42.2223 92.5404 42.8786 92.8867 43.3525C93.2331 43.8265 93.7116 44.0635 94.3223 44.0635C95.1243 44.0635 95.71 43.7035 96.0791 42.9834V39.5859C95.7008 38.8887 95.1198 38.54 94.3359 38.54C93.7161 38.54 93.2331 38.7793 92.8867 39.2578C92.5404 39.7363 92.3672 40.445 92.3672 41.3838ZM102.382 45.1367C101.379 45.1367 100.563 44.8086 99.9346 44.1523C99.3057 43.4915 98.9912 42.6097 98.9912 41.5068V41.2744C98.9912 40.5407 99.1302 39.8867 99.4082 39.3125C99.6908 38.7337 100.083 38.2826 100.584 37.959C101.09 37.6309 101.637 37.4668 102.225 37.4668C103.186 37.4668 103.934 37.7835 104.467 38.417C105 39.0505 105.267 39.9574 105.267 41.1377V41.6641H100.256C100.274 42.3932 100.486 42.9834 100.892 43.4346C101.302 43.8812 101.821 44.1045 102.45 44.1045C102.897 44.1045 103.275 44.0133 103.585 43.8311C103.895 43.6488 104.166 43.4072 104.398 43.1064L105.171 43.708C104.551 44.6605 103.621 45.1367 102.382 45.1367ZM102.225 38.5059C101.714 38.5059 101.286 38.6927 100.939 39.0664C100.593 39.4355 100.379 39.9551 100.297 40.625H104.002V40.5293C103.965 39.8867 103.792 39.39 103.482 39.0391C103.173 38.6836 102.753 38.5059 102.225 38.5059ZM110.312 38.7383C110.12 38.7064 109.913 38.6904 109.689 38.6904C108.86 38.6904 108.297 39.0436 108.001 39.75V45H106.736V37.6035H107.967L107.987 38.458C108.402 37.7972 108.99 37.4668 109.751 37.4668C109.997 37.4668 110.184 37.4987 110.312 37.5625V38.7383ZM118.528 38.7383C118.337 38.7064 118.13 38.6904 117.906 38.6904C117.077 38.6904 116.514 39.0436 116.218 39.75V45H114.953V37.6035H116.184L116.204 38.458C116.619 37.7972 117.207 37.4668 117.968 37.4668C118.214 37.4668 118.401 37.4987 118.528 37.5625V38.7383ZM123.99 45C123.917 44.8542 123.858 44.5944 123.812 44.2207C123.225 44.8314 122.523 45.1367 121.707 45.1367C120.978 45.1367 120.379 44.9316 119.909 44.5215C119.444 44.1068 119.212 43.5827 119.212 42.9492C119.212 42.179 119.504 41.582 120.087 41.1582C120.675 40.7298 121.5 40.5156 122.562 40.5156H123.792V39.9346C123.792 39.4925 123.66 39.1416 123.396 38.8818C123.131 38.6175 122.742 38.4854 122.227 38.4854C121.775 38.4854 121.397 38.5993 121.092 38.8271C120.786 39.055 120.634 39.3307 120.634 39.6543H119.362C119.362 39.2852 119.492 38.9297 119.752 38.5879C120.016 38.2415 120.372 37.9681 120.818 37.7676C121.27 37.5671 121.764 37.4668 122.302 37.4668C123.154 37.4668 123.822 37.681 124.305 38.1094C124.788 38.5332 125.038 39.1188 125.057 39.8662V43.2705C125.057 43.9495 125.143 44.4896 125.316 44.8906V45H123.99ZM121.892 44.0361C122.288 44.0361 122.664 43.9336 123.02 43.7285C123.375 43.5234 123.632 43.2568 123.792 42.9287V41.4111H122.801C121.251 41.4111 120.477 41.8646 120.477 42.7715C120.477 43.168 120.609 43.4779 120.873 43.7012C121.137 43.9245 121.477 44.0361 121.892 44.0361ZM126.731 41.2402C126.731 40.1055 127 39.194 127.538 38.5059C128.076 37.8132 128.78 37.4668 129.65 37.4668C130.516 37.4668 131.202 37.763 131.708 38.3555V34.5H132.973V45H131.811L131.749 44.207C131.243 44.8268 130.539 45.1367 129.637 45.1367C128.78 45.1367 128.08 44.7858 127.538 44.084C127 43.3822 126.731 42.4661 126.731 41.3359V41.2402ZM127.996 41.3838C127.996 42.2223 128.169 42.8786 128.516 43.3525C128.862 43.8265 129.34 44.0635 129.951 44.0635C130.753 44.0635 131.339 43.7035 131.708 42.9834V39.5859C131.33 38.8887 130.749 38.54 129.965 38.54C129.345 38.54 128.862 38.7793 128.516 39.2578C128.169 39.7363 127.996 40.445 127.996 41.3838ZM136.315 45H135.051V37.6035H136.315V45ZM134.948 35.6416C134.948 35.4365 135.01 35.2633 135.133 35.1221C135.26 34.9808 135.447 34.9102 135.693 34.9102C135.939 34.9102 136.126 34.9808 136.254 35.1221C136.382 35.2633 136.445 35.4365 136.445 35.6416C136.445 35.8467 136.382 36.0176 136.254 36.1543C136.126 36.291 135.939 36.3594 135.693 36.3594C135.447 36.3594 135.26 36.291 135.133 36.1543C135.01 36.0176 134.948 35.8467 134.948 35.6416ZM142.912 44.2686C142.42 44.8473 141.698 45.1367 140.745 45.1367C139.957 45.1367 139.355 44.9089 138.94 44.4531C138.53 43.9928 138.323 43.3138 138.318 42.416V37.6035H139.583V42.3818C139.583 43.5029 140.039 44.0635 140.95 44.0635C141.916 44.0635 142.559 43.7035 142.878 42.9834V37.6035H144.143V45H142.939L142.912 44.2686ZM150.377 43.0381C150.377 42.6963 150.247 42.432 149.987 42.2451C149.732 42.0537 149.283 41.8896 148.641 41.7529C148.003 41.6162 147.494 41.4521 147.116 41.2607C146.743 41.0693 146.465 40.8415 146.282 40.5771C146.104 40.3128 146.016 39.9984 146.016 39.6338C146.016 39.0277 146.271 38.515 146.781 38.0957C147.296 37.6764 147.952 37.4668 148.75 37.4668C149.589 37.4668 150.268 37.6833 150.787 38.1162C151.311 38.5492 151.573 39.1029 151.573 39.7773H150.302C150.302 39.431 150.154 39.1325 149.857 38.8818C149.566 38.6312 149.197 38.5059 148.75 38.5059C148.29 38.5059 147.93 38.6061 147.67 38.8066C147.41 39.0072 147.28 39.2692 147.28 39.5928C147.28 39.8981 147.401 40.1283 147.643 40.2832C147.884 40.4382 148.319 40.5863 148.948 40.7275C149.582 40.8688 150.094 41.0374 150.486 41.2334C150.878 41.4294 151.168 41.6663 151.354 41.9443C151.546 42.2178 151.642 42.5527 151.642 42.9492C151.642 43.61 151.377 44.141 150.849 44.542C150.32 44.9385 149.634 45.1367 148.791 45.1367C148.199 45.1367 147.674 45.0319 147.219 44.8223C146.763 44.6126 146.405 44.321 146.146 43.9473C145.89 43.569 145.763 43.1611 145.763 42.7236H147.027C147.05 43.1475 147.219 43.4847 147.533 43.7354C147.852 43.9814 148.271 44.1045 148.791 44.1045C149.27 44.1045 149.652 44.0088 149.939 43.8174C150.231 43.6214 150.377 43.3617 150.377 43.0381ZM153.248 44.3369C153.248 44.1182 153.312 43.9359 153.439 43.79C153.572 43.6442 153.768 43.5713 154.027 43.5713C154.287 43.5713 154.483 43.6442 154.615 43.79C154.752 43.9359 154.82 44.1182 154.82 44.3369C154.82 44.5465 154.752 44.722 154.615 44.8633C154.483 45.0046 154.287 45.0752 154.027 45.0752C153.768 45.0752 153.572 45.0046 153.439 44.8633C153.312 44.722 153.248 44.5465 153.248 44.3369ZM153.255 38.3008C153.255 38.082 153.319 37.8997 153.446 37.7539C153.578 37.6081 153.774 37.5352 154.034 37.5352C154.294 37.5352 154.49 37.6081 154.622 37.7539C154.759 37.8997 154.827 38.082 154.827 38.3008C154.827 38.5104 154.759 38.6859 154.622 38.8271C154.49 38.9684 154.294 39.0391 154.034 39.0391C153.774 39.0391 153.578 38.9684 153.446 38.8271C153.319 38.6859 153.255 38.5104 153.255 38.3008ZM166.544 45H160.022V44.0908L163.468 40.2627C163.978 39.6839 164.329 39.2145 164.521 38.8545C164.716 38.4899 164.814 38.1139 164.814 37.7266C164.814 37.207 164.657 36.7809 164.343 36.4482C164.028 36.1156 163.609 35.9492 163.085 35.9492C162.456 35.9492 161.966 36.1292 161.615 36.4893C161.269 36.8447 161.096 37.3415 161.096 37.9795H159.831C159.831 37.0635 160.125 36.3229 160.713 35.7578C161.305 35.1927 162.096 34.9102 163.085 34.9102C164.01 34.9102 164.742 35.154 165.279 35.6416C165.817 36.1247 166.086 36.7695 166.086 37.5762C166.086 38.556 165.462 39.7227 164.213 41.0762L161.547 43.9678H166.544V45ZM167.706 41.2402C167.706 40.1055 167.975 39.194 168.513 38.5059C169.05 37.8132 169.755 37.4668 170.625 37.4668C171.491 37.4668 172.177 37.763 172.683 38.3555V34.5H173.947V45H172.785L172.724 44.207C172.218 44.8268 171.514 45.1367 170.611 45.1367C169.755 45.1367 169.055 44.7858 168.513 44.084C167.975 43.3822 167.706 42.4661 167.706 41.3359V41.2402ZM168.971 41.3838C168.971 42.2223 169.144 42.8786 169.49 43.3525C169.837 43.8265 170.315 44.0635 170.926 44.0635C171.728 44.0635 172.313 43.7035 172.683 42.9834V39.5859C172.304 38.8887 171.723 38.54 170.939 38.54C170.32 38.54 169.837 38.7793 169.49 39.2578C169.144 39.7363 168.971 40.445 168.971 41.3838ZM182.164 41.3838C182.164 42.5094 181.907 43.4163 181.392 44.1045C180.877 44.7926 180.179 45.1367 179.3 45.1367C178.402 45.1367 177.696 44.8519 177.181 44.2822V47.8438H175.916V37.6035H177.071L177.133 38.4238C177.648 37.7858 178.363 37.4668 179.279 37.4668C180.168 37.4668 180.87 37.8018 181.385 38.4717C181.904 39.1416 182.164 40.0736 182.164 41.2676V41.3838ZM180.899 41.2402C180.899 40.4062 180.722 39.7477 180.366 39.2646C180.011 38.7816 179.523 38.54 178.903 38.54C178.138 38.54 177.563 38.8796 177.181 39.5586V43.0928C177.559 43.7673 178.138 44.1045 178.917 44.1045C179.523 44.1045 180.004 43.8652 180.359 43.3867C180.719 42.9036 180.899 42.1882 180.899 41.2402Z" fill="white"/>
<line x1="81.5" y1="99" x2="81.5" y2="79" stroke="#FFAA2A"/>
<line x1="130.5" y1="69" x2="130.5" y2="49" stroke="#FF1844"/>
</svg>
