<svg width="250" height="150" viewBox="0 0 250 150" fill="none" xmlns="http://www.w3.org/2000/svg">
<rect width="250" height="150" fill="white"/>
<path d="M89.8271 63.2207H90.3252C90.7907 63.2207 91.139 63.1296 91.3701 62.9473C91.6012 62.7617 91.7168 62.4932 91.7168 62.1416C91.7168 61.7868 91.6191 61.5247 91.4238 61.3555C91.2318 61.1862 90.929 61.1016 90.5156 61.1016H89.8271V63.2207ZM93.2451 62.0879C93.2451 62.8561 93.0042 63.4437 92.5225 63.8506C92.0439 64.2575 91.362 64.4609 90.4766 64.4609H89.8271V67H88.3135V59.8613H90.5938C91.4596 59.8613 92.1172 60.0485 92.5664 60.4229C93.0189 60.7939 93.2451 61.349 93.2451 62.0879ZM101.516 63.3623C101.516 64.5374 101.18 65.4375 100.51 66.0625C99.8424 66.6875 98.8773 67 97.6143 67H95.5928V59.8613H97.834C98.9993 59.8613 99.9043 60.1689 100.549 60.7842C101.193 61.3994 101.516 62.2588 101.516 63.3623ZM99.9434 63.4014C99.9434 61.8682 99.2663 61.1016 97.9121 61.1016H97.1064V65.75H97.7559C99.2142 65.75 99.9434 64.9671 99.9434 63.4014ZM105.484 67H103.995V59.8613H108.087V61.1016H105.484V62.9424H107.906V64.1777H105.484V67Z" fill="#424E54"/>
<path d="M112.167 59.5L111 60.6667L113.333 63L111 65.3333L112.167 66.5L114.5 64.1667L116.833 66.5L118 65.3333L115.667 63L118 60.6667L116.833 59.5L114.5 61.8333L112.167 59.5Z" fill="#424E54"/>
<rect x="83.5" y="55.5" width="38" height="15" rx="1.5" stroke="#424E54"/>
<path d="M138.236 61.0186C137.667 61.0186 137.226 61.2334 136.913 61.6631C136.601 62.0895 136.444 62.6852 136.444 63.4502C136.444 65.042 137.042 65.8379 138.236 65.8379C138.738 65.8379 139.345 65.7126 140.058 65.4619V66.7314C139.472 66.9756 138.817 67.0977 138.095 67.0977C137.056 67.0977 136.262 66.7835 135.712 66.1553C135.162 65.5238 134.887 64.6188 134.887 63.4404C134.887 62.6982 135.022 62.0488 135.292 61.4922C135.562 60.9323 135.95 60.5042 136.454 60.208C136.962 59.9085 137.556 59.7588 138.236 59.7588C138.93 59.7588 139.626 59.9264 140.326 60.2617L139.838 61.4922C139.571 61.3652 139.302 61.2546 139.032 61.1602C138.762 61.0658 138.497 61.0186 138.236 61.0186ZM146.795 65.0176C146.795 65.6621 146.562 66.1699 146.097 66.541C145.634 66.9121 144.99 67.0977 144.163 67.0977C143.401 67.0977 142.728 66.9544 142.142 66.668V65.2617C142.623 65.4766 143.03 65.6279 143.362 65.7158C143.698 65.8037 144.004 65.8477 144.28 65.8477C144.612 65.8477 144.866 65.7842 145.042 65.6572C145.221 65.5303 145.311 65.3415 145.311 65.0908C145.311 64.9508 145.271 64.8271 145.193 64.7197C145.115 64.609 145 64.5033 144.847 64.4023C144.697 64.3014 144.389 64.1403 143.924 63.9189C143.488 63.7139 143.16 63.5169 142.942 63.3281C142.724 63.1393 142.55 62.9196 142.42 62.6689C142.29 62.4183 142.225 62.1253 142.225 61.79C142.225 61.1585 142.438 60.6621 142.864 60.3008C143.294 59.9395 143.886 59.7588 144.642 59.7588C145.013 59.7588 145.366 59.8027 145.701 59.8906C146.04 59.9785 146.393 60.1022 146.761 60.2617L146.272 61.4385C145.892 61.2822 145.576 61.1732 145.325 61.1113C145.078 61.0495 144.834 61.0186 144.593 61.0186C144.306 61.0186 144.087 61.0853 143.934 61.2188C143.781 61.3522 143.704 61.5264 143.704 61.7412C143.704 61.8747 143.735 61.9919 143.797 62.0928C143.859 62.1904 143.956 62.2865 144.09 62.3809C144.227 62.472 144.547 62.638 145.052 62.8789C145.719 63.1979 146.176 63.5186 146.424 63.8408C146.671 64.1598 146.795 64.5521 146.795 65.0176ZM153.161 59.8613H154.689L152.263 67H150.612L148.19 59.8613H149.719L151.062 64.1094C151.136 64.36 151.213 64.653 151.291 64.9883C151.372 65.3203 151.423 65.5514 151.442 65.6816C151.478 65.3822 151.6 64.8581 151.809 64.1094L153.161 59.8613Z" fill="#424E54"/>
<path d="M158.167 59.5L157 60.6667L159.333 63L157 65.3333L158.167 66.5L160.5 64.1667L162.833 66.5L164 65.3333L161.667 63L164 60.6667L162.833 59.5L160.5 61.8333L158.167 59.5Z" fill="#424E54"/>
<rect x="130.5" y="55.5" width="37" height="15" rx="1.5" stroke="#424E54"/>
<path d="M103 88.835V88H104V86H103V85.165C102.999 84.989 102.928 84.8206 102.804 84.6962C102.679 84.5718 102.511 84.5013 102.335 84.5H94.67C94.4932 84.5 94.3235 84.5699 94.198 84.6945C94.0725 84.819 94.0013 84.9882 94 85.165V88.83C94 89.0068 94.0699 89.1765 94.1945 89.302C94.319 89.4275 94.4882 89.4987 94.665 89.5H102.335C102.511 89.4987 102.679 89.4282 102.804 89.3038C102.928 89.1794 102.999 89.011 103 88.835Z" fill="#424E54"/>
<path d="M108.072 83.8613H110.294C111.306 83.8613 112.04 84.0062 112.496 84.2959C112.955 84.5824 113.185 85.0397 113.185 85.668C113.185 86.0944 113.084 86.4443 112.882 86.7178C112.683 86.9912 112.418 87.1556 112.086 87.2109V87.2598C112.538 87.3607 112.864 87.5495 113.062 87.8262C113.264 88.1029 113.365 88.4707 113.365 88.9297C113.365 89.5807 113.129 90.0885 112.657 90.4531C112.188 90.8177 111.55 91 110.743 91H108.072V83.8613ZM109.586 86.6885H110.465C110.875 86.6885 111.171 86.625 111.354 86.498C111.539 86.3711 111.632 86.1611 111.632 85.8682C111.632 85.5947 111.531 85.3994 111.329 85.2822C111.131 85.1618 110.815 85.1016 110.382 85.1016H109.586V86.6885ZM109.586 87.8896V89.75H110.572C110.989 89.75 111.297 89.6702 111.495 89.5107C111.694 89.3512 111.793 89.1071 111.793 88.7783C111.793 88.1859 111.37 87.8896 110.523 87.8896H109.586ZM120.161 91L119.644 89.3008H117.041L116.523 91H114.893L117.412 83.832H119.263L121.792 91H120.161ZM119.282 88.0312C118.804 86.4915 118.534 85.6208 118.472 85.4189C118.413 85.2171 118.371 85.0576 118.345 84.9404C118.237 85.3571 117.93 86.3874 117.422 88.0312H119.282ZM126.449 91H124.936V85.1211H122.997V83.8613H128.388V85.1211H126.449V91ZM133.24 91H131.727V85.1211H129.788V83.8613H135.179V85.1211H133.24V91ZM141.389 91H137.277V83.8613H141.389V85.1016H138.791V86.6689H141.208V87.9092H138.791V89.75H141.389V91ZM145.396 87.0303H145.885C146.363 87.0303 146.716 86.9505 146.944 86.791C147.172 86.6315 147.286 86.3809 147.286 86.0391C147.286 85.7005 147.169 85.4596 146.935 85.3164C146.703 85.1732 146.344 85.1016 145.855 85.1016H145.396V87.0303ZM145.396 88.2607V91H143.883V83.8613H145.963C146.933 83.8613 147.651 84.0387 148.116 84.3936C148.582 84.7451 148.814 85.2806 148.814 86C148.814 86.4199 148.699 86.7943 148.468 87.123C148.237 87.4486 147.91 87.7041 147.486 87.8896C148.561 89.4945 149.26 90.5312 149.586 91H147.906L146.202 88.2607H145.396ZM153.706 86.8008L155.195 83.8613H156.826L154.458 88.2217V91H152.954V88.2705L150.586 83.8613H152.227L153.706 86.8008Z" fill="#424E54"/>
<rect x="89.5" y="79.5" width="71" height="15" rx="1.5" stroke="#424E54"/>
</svg>
