<svg width="300" height="180" viewBox="0 0 300 180" fill="none" xmlns="http://www.w3.org/2000/svg">
<rect width="300" height="180" fill="white"/>
<rect x="50" y="82" width="47" height="16" rx="2" fill="#F0CB2F"/>
<path d="M56.8301 94H55.3408V86.8613H59.4326V88.1016H56.8301V89.9424H59.252V91.1777H56.8301V94ZM61.8291 94V86.8613H63.3428V94H61.8291ZM66.1396 94V86.8613H67.6533V92.75H70.5488V94H66.1396ZM72.7939 94V86.8613H74.3076V92.75H77.2031V94H72.7939ZM83.5596 94H79.4482V86.8613H83.5596V88.1016H80.9619V89.6689H83.3789V90.9092H80.9619V92.75H83.5596V94ZM91.9766 90.3623C91.9766 91.5374 91.6413 92.4375 90.9707 93.0625C90.3034 93.6875 89.3382 94 88.0752 94H86.0537V86.8613H88.2949C89.4603 86.8613 90.3652 87.1689 91.0098 87.7842C91.6543 88.3994 91.9766 89.2588 91.9766 90.3623ZM90.4043 90.4014C90.4043 88.8682 89.7272 88.1016 88.373 88.1016H87.5674V92.75H88.2168C89.6751 92.75 90.4043 91.9671 90.4043 90.4014Z" fill="white"/>
<rect x="113" y="82" width="54" height="16" rx="2" fill="#F0CB2F" fill-opacity="0.2"/>
<path d="M122.373 92.0176C122.373 92.6621 122.14 93.1699 121.675 93.541C121.213 93.9121 120.568 94.0977 119.741 94.0977C118.979 94.0977 118.306 93.9544 117.72 93.668V92.2617C118.201 92.4766 118.608 92.6279 118.94 92.7158C119.276 92.8037 119.582 92.8477 119.858 92.8477C120.19 92.8477 120.444 92.7842 120.62 92.6572C120.799 92.5303 120.889 92.3415 120.889 92.0908C120.889 91.9508 120.85 91.8271 120.771 91.7197C120.693 91.609 120.578 91.5033 120.425 91.4023C120.275 91.3014 119.967 91.1403 119.502 90.9189C119.066 90.7139 118.739 90.5169 118.521 90.3281C118.302 90.1393 118.128 89.9196 117.998 89.6689C117.868 89.4183 117.803 89.1253 117.803 88.79C117.803 88.1585 118.016 87.6621 118.442 87.3008C118.872 86.9395 119.465 86.7588 120.22 86.7588C120.591 86.7588 120.944 86.8027 121.279 86.8906C121.618 86.9785 121.971 87.1022 122.339 87.2617L121.851 88.4385C121.47 88.2822 121.154 88.1732 120.903 88.1113C120.656 88.0495 120.412 88.0186 120.171 88.0186C119.884 88.0186 119.665 88.0853 119.512 88.2188C119.359 88.3522 119.282 88.5264 119.282 88.7412C119.282 88.8747 119.313 88.9919 119.375 89.0928C119.437 89.1904 119.535 89.2865 119.668 89.3809C119.805 89.472 120.125 89.638 120.63 89.8789C121.297 90.1979 121.755 90.5186 122.002 90.8408C122.249 91.1598 122.373 91.5521 122.373 92.0176ZM130.517 94H129.008V90.9189H126.181V94H124.667V86.8613H126.181V89.6592H129.008V86.8613H130.517V94ZM137.693 94L137.176 92.3008H134.573L134.056 94H132.425L134.944 86.832H136.795L139.324 94H137.693ZM136.814 91.0312C136.336 89.4915 136.066 88.6208 136.004 88.4189C135.945 88.2171 135.903 88.0576 135.877 87.9404C135.77 88.3571 135.462 89.3874 134.954 91.0312H136.814ZM147.15 90.3623C147.15 91.5374 146.815 92.4375 146.145 93.0625C145.477 93.6875 144.512 94 143.249 94H141.228V86.8613H143.469C144.634 86.8613 145.539 87.1689 146.184 87.7842C146.828 88.3994 147.15 89.2588 147.15 90.3623ZM145.578 90.4014C145.578 88.8682 144.901 88.1016 143.547 88.1016H142.741V92.75H143.391C144.849 92.75 145.578 91.9671 145.578 90.4014ZM153.741 94H149.63V86.8613H153.741V88.1016H151.144V89.6689H153.561V90.9092H151.144V92.75H153.741V94ZM162.158 90.3623C162.158 91.5374 161.823 92.4375 161.152 93.0625C160.485 93.6875 159.52 94 158.257 94H156.235V86.8613H158.477C159.642 86.8613 160.547 87.1689 161.191 87.7842C161.836 88.3994 162.158 89.2588 162.158 90.3623ZM160.586 90.4014C160.586 88.8682 159.909 88.1016 158.555 88.1016H157.749V92.75H158.398C159.857 92.75 160.586 91.9671 160.586 90.4014Z" fill="#F0CB2F"/>
<path d="M194.67 90.4209C194.67 91.6025 194.377 92.5107 193.791 93.1455C193.205 93.7803 192.365 94.0977 191.271 94.0977C190.178 94.0977 189.338 93.7803 188.752 93.1455C188.166 92.5107 187.873 91.5993 187.873 90.4111C187.873 89.223 188.166 88.3164 188.752 87.6914C189.341 87.0632 190.184 86.749 191.281 86.749C192.378 86.749 193.216 87.0648 193.796 87.6963C194.379 88.3278 194.67 89.236 194.67 90.4209ZM189.46 90.4209C189.46 91.2184 189.611 91.819 189.914 92.2227C190.217 92.6263 190.669 92.8281 191.271 92.8281C192.479 92.8281 193.083 92.0257 193.083 90.4209C193.083 88.8128 192.482 88.0088 191.281 88.0088C190.679 88.0088 190.225 88.2122 189.919 88.6191C189.613 89.0228 189.46 89.6234 189.46 90.4209ZM202.96 86.8613V91.4805C202.96 92.0078 202.841 92.4701 202.604 92.8672C202.369 93.2643 202.029 93.5687 201.583 93.7803C201.137 93.9919 200.61 94.0977 200.001 94.0977C199.083 94.0977 198.37 93.8633 197.862 93.3945C197.354 92.9225 197.101 92.278 197.101 91.4609V86.8613H198.609V91.2314C198.609 91.7816 198.72 92.1852 198.941 92.4424C199.163 92.6995 199.529 92.8281 200.04 92.8281C200.535 92.8281 200.893 92.6995 201.114 92.4424C201.339 92.182 201.451 91.7751 201.451 91.2217V86.8613H202.96ZM208.462 94H206.948V88.1211H205.01V86.8613H210.4V88.1211H208.462V94ZM212.499 94V86.8613H214.013V92.75H216.908V94H212.499ZM219.153 94V86.8613H220.667V94H219.153ZM229.797 94H227.873L224.768 88.5996H224.724C224.785 89.5534 224.816 90.2337 224.816 90.6406V94H223.464V86.8613H225.373L228.474 92.208H228.508C228.459 91.2803 228.435 90.6243 228.435 90.2402V86.8613H229.797V94ZM236.71 94H232.599V86.8613H236.71V88.1016H234.112V89.6689H236.529V90.9092H234.112V92.75H236.71V94ZM245.127 90.3623C245.127 91.5374 244.792 92.4375 244.121 93.0625C243.454 93.6875 242.489 94 241.226 94H239.204V86.8613H241.445C242.611 86.8613 243.516 87.1689 244.16 87.7842C244.805 88.3994 245.127 89.2588 245.127 90.3623ZM243.555 90.4014C243.555 88.8682 242.878 88.1016 241.523 88.1016H240.718V92.75H241.367C242.826 92.75 243.555 91.9671 243.555 90.4014Z" fill="#F0CB2F"/>
<rect x="183.5" y="82.5" width="66" height="15" rx="1.5" stroke="#F0CB2F"/>
</svg>
