<svg width="74" height="48" viewBox="0 0 74 48" fill="none" xmlns="http://www.w3.org/2000/svg">
<g clip-path="url(#clip0_1170_437)">
<g opacity="0.3">
<path d="M0 25.35L-1.45 24.03C-6.6 19.36 -10 16.28 -10 12.5C-10 9.42 -7.58 7 -4.5 7C-2.76 7 -1.09 7.81 0 9.09C1.09 7.81 2.76 7 4.5 7C7.58 7 10 9.42 10 12.5C10 16.28 6.6 19.36 1.45 24.04L0 25.35Z" fill="#FCB3C9"/>
</g>
<g opacity="0.3">
<path d="M74 25.35L72.55 24.03C67.4 19.36 64 16.28 64 12.5C64 9.42 66.42 7 69.5 7C71.24 7 72.91 7.81 74 9.09C75.09 7.81 76.76 7 78.5 7C81.58 7 84 9.42 84 12.5C84 16.28 80.6 19.36 75.45 24.04L74 25.35Z" fill="#FCB3C9"/>
</g>
<g opacity="0.3">
<path fill-rule="evenodd" clip-rule="evenodd" d="M37 9.09C38.09 7.81 39.76 7 41.5 7C44.58 7 47 9.42 47 12.5C47 16.2769 43.6056 19.3549 38.4627 24.0185L38.45 24.03L37 25.35L35.55 24.04L35.5105 24.0041C30.3826 19.3442 27 16.2703 27 12.5C27 9.42 29.42 7 32.5 7C34.24 7 35.91 7.81 37 9.09ZM37 22.65L37.1 22.55C41.86 18.24 45 15.39 45 12.5C45 10.5 43.5 9 41.5 9C39.96 9 38.46 9.99 37.94 11.36H36.07C35.54 9.99 34.04 9 32.5 9C30.5 9 29 10.5 29 12.5C29 15.39 32.14 18.24 36.9 22.55L37 22.65Z" fill="#FFEDF2"/>
</g>
<path opacity="0.3" d="M16.7153 25.3481C17.7213 25.8972 18.8338 27.2911 18.8338 28.3812C19.3777 28.1479 19.6314 27.3399 20.2519 27.0599C21.235 26.6161 21.8648 26.6505 22.9306 26.752C24.3752 26.8897 25.2661 27.675 25.8369 28.7941C26.1429 29.3938 25.9245 30.3717 25.9245 31.0163C25.9245 31.6178 25.8449 32.2298 25.4518 32.7355C24.6975 33.7059 23.5752 34.3377 22.6155 35.138C21.5973 35.9869 20.548 36.7759 19.5428 37.638C18.5289 38.5076 18.0651 39.5317 17.5732 40.6485C17.4993 40.8162 17.312 42.0161 17.2931 41.9998C16.9455 41.7018 16.4946 39.6316 16.3126 39.1245C15.8907 37.9484 14.7527 36.9087 13.6339 36.189C11.0749 34.543 8.33854 32.9742 9.14312 29.8001C9.46099 28.5461 10.0211 27.4244 10.8852 26.3466C11.7727 25.2395 12.9573 25.0028 14.4218 25.0028C15.268 25.0028 15.9779 24.9457 16.7153 25.3481Z" stroke="white" stroke-width="2" stroke-linecap="round"/>
<g opacity="0.3">
<path d="M56.495 28.6652C55.1066 27.2768 52.5647 26.9437 50.8949 28.0063C50.2664 28.4063 49.8312 28.8666 49.4033 29.4796C48.9691 30.1017 49.0007 30.8047 49.0007 31.5293C49.0007 32.2264 48.9645 32.9209 49.4125 33.5058C49.7601 33.9596 50.0517 34.4571 50.4007 34.9058C51.1788 35.9062 52.3505 36.5325 53.3838 37.23C54.0989 37.7127 54.7622 38.2829 55.525 38.6941C56.4784 39.2081 57.5473 39.4342 58.4715 40.0118C59.8445 40.8699 60.8637 42.5642 61.5186 43.9831C61.5731 44.1012 61.6833 44.717 61.6833 44.4772C61.6833 44.0045 61.6833 43.5317 61.6833 43.0589C61.6833 41.1149 61.809 39.289 62.5251 37.4588C62.9366 36.4072 63.5921 35.4672 64.0716 34.4483C64.7116 33.0882 65.2624 31.7455 65.4716 30.2482C65.6456 29.0027 66.1456 27.3627 65.1422 26.3592C64.611 25.8281 63.9898 25.3734 63.248 25.188C62.1541 24.9145 60.8126 24.9322 59.7434 25.2886C59.0528 25.5188 58.4485 26.2061 58.0597 26.7893C57.9068 27.0187 57.7921 27.265 57.6479 27.4939C57.5418 27.6625 57.2579 27.8934 57.2362 28.0887C57.1993 28.4201 56.8031 28.8512 56.5773 29.0769" stroke="#FFC0D3" stroke-width="1.5" stroke-linecap="round"/>
<path d="M53.7764 28.5828C53.7381 29.4238 53.2633 30.2929 52.994 31.0809C52.724 31.8709 52.3558 32.6179 52.1293 33.4234C52.0786 33.6037 51.8808 34.1259 51.9737 33.9633C52.521 33.0056 53.4566 32.1083 54.1744 31.2776C54.7522 30.6091 55.3457 29.9563 55.9816 29.3423C56.3151 29.0203 56.1274 29.9013 56.1097 30.0103C55.9057 31.2719 55.3322 32.4345 55.03 33.6705C54.9253 34.0983 54.5037 35.3466 54.7829 35.7934C54.8593 35.9156 56.1226 34.0739 56.1784 33.9862C57.1534 32.454 57.9599 30.7845 59.0288 29.3148C59.0931 29.2263 59.5153 28.4874 59.4497 28.8481C59.376 29.2535 59.1709 29.6542 59.0288 30.0377C58.7089 30.9007 58.3805 31.7604 58.0588 32.6227C57.5686 33.9364 57.0043 35.268 56.6771 36.6352C56.6337 36.8165 56.3905 37.7151 56.4483 37.6052C57.7094 35.2092 59.0959 32.8204 60.6575 30.605C61.1281 29.9376 61.5978 29.3061 62.0118 28.6011C62.09 28.468 62.2994 28.0477 62.4602 27.9788C62.5816 27.9268 62.4476 28.2445 62.4144 28.3723C62.2386 29.0506 62.1025 29.7385 61.9112 30.4129C61.4907 31.8946 60.8073 33.228 60.1177 34.5947C59.632 35.5572 59.2434 36.6001 58.9647 37.6418C58.9525 37.6874 58.5679 38.9295 58.6444 38.9869C58.9617 39.2249 62.0398 35.5092 62.689 34.86C63.0415 34.5075 62.227 35.7439 62.0072 36.1914C61.5853 37.0508 61.2889 37.958 60.9046 38.8313C60.7096 39.2746 60.7089 39.8844 60.4471 40.2771" stroke="#FFC0D3" stroke-width="1.5" stroke-linecap="round"/>
</g>
</g>
<defs>
<clipPath id="clip0_1170_437">
<rect width="74" height="48" fill="white"/>
</clipPath>
</defs>
</svg>
