<svg width="234" height="46" viewBox="0 0 234 46" fill="none" xmlns="http://www.w3.org/2000/svg">
<path d="M15.1934 19.0234C15.1934 19.918 14.9004 20.6035 14.3145 21.0801C13.7285 21.5566 12.8945 21.7949 11.8125 21.7949H10.9219V25H9.52148V16.4336H11.9883C13.0586 16.4336 13.8594 16.6523 14.3906 17.0898C14.9258 17.5273 15.1934 18.1719 15.1934 19.0234ZM10.9219 20.6172H11.666C12.3848 20.6172 12.9121 20.4922 13.248 20.2422C13.584 19.9922 13.752 19.6016 13.752 19.0703C13.752 18.5781 13.6016 18.2109 13.3008 17.9688C13 17.7266 12.5312 17.6055 11.8945 17.6055H10.9219V20.6172ZM18.9043 25V16.4336H20.3047V23.7988H23.9316V25H18.9043ZM32.2539 25H27.4082V16.4336H32.2539V17.6172H28.8086V19.9492H32.0371V21.1211H28.8086V23.8105H32.2539V25ZM41.4258 25L40.5703 22.6211H37.2949L36.457 25H34.9805L38.1855 16.3984H39.709L42.9141 25H41.4258ZM40.2012 21.4141L39.3984 19.082C39.3398 18.9258 39.2578 18.6797 39.1523 18.3438C39.0508 18.0078 38.9805 17.7617 38.9414 17.6055C38.8359 18.0859 38.6816 18.6113 38.4785 19.1816L37.7051 21.4141H40.2012ZM50.9844 22.6738C50.9844 23.4355 50.709 24.0332 50.1582 24.4668C49.6074 24.9004 48.8477 25.1172 47.8789 25.1172C46.9102 25.1172 46.1172 24.9668 45.5 24.666V23.3418C45.8906 23.5254 46.3047 23.6699 46.7422 23.7754C47.1836 23.8809 47.5938 23.9336 47.9727 23.9336C48.5273 23.9336 48.9355 23.8281 49.1973 23.6172C49.4629 23.4062 49.5957 23.123 49.5957 22.7676C49.5957 22.4473 49.4746 22.1758 49.2324 21.9531C48.9902 21.7305 48.4902 21.4668 47.7324 21.1621C46.9512 20.8457 46.4004 20.4844 46.0801 20.0781C45.7598 19.6719 45.5996 19.1836 45.5996 18.6133C45.5996 17.8984 45.8535 17.3359 46.3613 16.9258C46.8691 16.5156 47.5508 16.3105 48.4062 16.3105C49.2266 16.3105 50.043 16.4902 50.8555 16.8496L50.4102 17.9922C49.6484 17.6719 48.9688 17.5117 48.3711 17.5117C47.918 17.5117 47.5742 17.6113 47.3398 17.8105C47.1055 18.0059 46.9883 18.2656 46.9883 18.5898C46.9883 18.8125 47.0352 19.0039 47.1289 19.1641C47.2227 19.3203 47.377 19.4688 47.5918 19.6094C47.8066 19.75 48.1934 19.9355 48.752 20.166C49.3809 20.4277 49.8418 20.6719 50.1348 20.8984C50.4277 21.125 50.6426 21.3809 50.7793 21.666C50.916 21.9512 50.9844 22.2871 50.9844 22.6738ZM59.4883 25H54.6426V16.4336H59.4883V17.6172H56.043V19.9492H59.2715V21.1211H56.043V23.8105H59.4883V25ZM68.4629 16.4336H71.0059C72.1855 16.4336 73.0371 16.6055 73.5605 16.9492C74.0879 17.293 74.3516 17.8359 74.3516 18.5781C74.3516 19.0781 74.2227 19.4941 73.9648 19.8262C73.707 20.1582 73.3359 20.3672 72.8516 20.4531V20.5117C73.4531 20.625 73.8945 20.8496 74.1758 21.1855C74.4609 21.5176 74.6035 21.9688 74.6035 22.5391C74.6035 23.3086 74.334 23.9121 73.7949 24.3496C73.2598 24.7832 72.5137 25 71.5566 25H68.4629V16.4336ZM69.8633 19.9727H71.2109C71.7969 19.9727 72.2246 19.8809 72.4941 19.6973C72.7637 19.5098 72.8984 19.1934 72.8984 18.748C72.8984 18.3457 72.752 18.0547 72.459 17.875C72.1699 17.6953 71.709 17.6055 71.0762 17.6055H69.8633V19.9727ZM69.8633 21.1094V23.8223H71.3516C71.9375 23.8223 72.3789 23.7109 72.6758 23.4883C72.9766 23.2617 73.127 22.9062 73.127 22.4219C73.127 21.9766 72.9746 21.6465 72.6699 21.4316C72.3652 21.2168 71.9023 21.1094 71.2812 21.1094H69.8633ZM79.7852 20.418H80.7578C81.4102 20.418 81.8828 20.2969 82.1758 20.0547C82.4688 19.8125 82.6152 19.4531 82.6152 18.9766C82.6152 18.4922 82.457 18.1445 82.1406 17.9336C81.8242 17.7227 81.3477 17.6172 80.7109 17.6172H79.7852V20.418ZM79.7852 21.5781V25H78.3848V16.4336H80.8047C81.9102 16.4336 82.7285 16.6406 83.2598 17.0547C83.791 17.4688 84.0566 18.0938 84.0566 18.9297C84.0566 19.9961 83.502 20.7559 82.3926 21.209L84.8125 25H83.2188L81.168 21.5781H79.7852ZM88.0605 25V16.4336H89.4609V25H88.0605ZM100.865 25H99.1484L94.9355 18.1738H94.8887L94.918 18.5547C94.9727 19.2812 95 19.9453 95 20.5469V25H93.7285V16.4336H95.4277L99.6289 23.2246H99.6641C99.6562 23.1348 99.6406 22.8086 99.6172 22.2461C99.5938 21.6797 99.582 21.2383 99.582 20.9219V16.4336H100.865V25ZM108.631 20.3535H111.783V24.6543C111.268 24.8223 110.771 24.9414 110.295 25.0117C109.822 25.082 109.311 25.1172 108.76 25.1172C107.463 25.1172 106.463 24.7344 105.76 23.9688C105.057 23.1992 104.705 22.1152 104.705 20.7168C104.705 19.3379 105.102 18.2598 105.895 17.4824C106.688 16.7012 107.779 16.3105 109.17 16.3105C110.064 16.3105 110.912 16.4824 111.713 16.8262L111.221 17.9922C110.525 17.6719 109.83 17.5117 109.135 17.5117C108.221 17.5117 107.498 17.7988 106.967 18.373C106.436 18.9473 106.17 19.7324 106.17 20.7285C106.17 21.7754 106.408 22.5723 106.885 23.1191C107.365 23.6621 108.055 23.9336 108.953 23.9336C109.406 23.9336 109.891 23.877 110.406 23.7637V21.5547H108.631V20.3535ZM127.678 16.4336V21.9766C127.678 22.6094 127.541 23.1641 127.268 23.6406C126.998 24.1133 126.605 24.4785 126.09 24.7363C125.578 24.9902 124.965 25.1172 124.25 25.1172C123.188 25.1172 122.361 24.8359 121.771 24.2734C121.182 23.7109 120.887 22.9375 120.887 21.9531V16.4336H122.293V21.8535C122.293 22.5605 122.457 23.082 122.785 23.418C123.113 23.7539 123.617 23.9219 124.297 23.9219C125.617 23.9219 126.277 23.2285 126.277 21.8418V16.4336H127.678ZM136.809 22.6738C136.809 23.4355 136.533 24.0332 135.982 24.4668C135.432 24.9004 134.672 25.1172 133.703 25.1172C132.734 25.1172 131.941 24.9668 131.324 24.666V23.3418C131.715 23.5254 132.129 23.6699 132.566 23.7754C133.008 23.8809 133.418 23.9336 133.797 23.9336C134.352 23.9336 134.76 23.8281 135.021 23.6172C135.287 23.4062 135.42 23.123 135.42 22.7676C135.42 22.4473 135.299 22.1758 135.057 21.9531C134.814 21.7305 134.314 21.4668 133.557 21.1621C132.775 20.8457 132.225 20.4844 131.904 20.0781C131.584 19.6719 131.424 19.1836 131.424 18.6133C131.424 17.8984 131.678 17.3359 132.186 16.9258C132.693 16.5156 133.375 16.3105 134.23 16.3105C135.051 16.3105 135.867 16.4902 136.68 16.8496L136.234 17.9922C135.473 17.6719 134.793 17.5117 134.195 17.5117C133.742 17.5117 133.398 17.6113 133.164 17.8105C132.93 18.0059 132.812 18.2656 132.812 18.5898C132.812 18.8125 132.859 19.0039 132.953 19.1641C133.047 19.3203 133.201 19.4688 133.416 19.6094C133.631 19.75 134.018 19.9355 134.576 20.166C135.205 20.4277 135.666 20.6719 135.959 20.8984C136.252 21.125 136.467 21.3809 136.604 21.666C136.74 21.9512 136.809 22.2871 136.809 22.6738ZM148.543 25H147.143V17.6348H144.623V16.4336H151.062V17.6348H148.543V25ZM161.986 20.7051C161.986 22.0996 161.637 23.1836 160.938 23.957C160.242 24.7305 159.256 25.1172 157.979 25.1172C156.686 25.1172 155.691 24.7344 154.996 23.9688C154.305 23.1992 153.959 22.1074 153.959 20.6934C153.959 19.2793 154.307 18.1934 155.002 17.4355C155.701 16.6777 156.697 16.2988 157.99 16.2988C159.264 16.2988 160.248 16.6836 160.943 17.4531C161.639 18.2227 161.986 19.3066 161.986 20.7051ZM155.447 20.7051C155.447 21.7598 155.66 22.5605 156.086 23.1074C156.512 23.6504 157.143 23.9219 157.979 23.9219C158.811 23.9219 159.438 23.6523 159.859 23.1133C160.285 22.5742 160.498 21.7715 160.498 20.7051C160.498 19.6543 160.287 18.8574 159.865 18.3145C159.447 17.7715 158.822 17.5 157.99 17.5C157.15 17.5 156.516 17.7715 156.086 18.3145C155.66 18.8574 155.447 19.6543 155.447 20.7051ZM169.33 20.3535H172.482V24.6543C171.967 24.8223 171.471 24.9414 170.994 25.0117C170.521 25.082 170.01 25.1172 169.459 25.1172C168.162 25.1172 167.162 24.7344 166.459 23.9688C165.756 23.1992 165.404 22.1152 165.404 20.7168C165.404 19.3379 165.801 18.2598 166.594 17.4824C167.387 16.7012 168.479 16.3105 169.869 16.3105C170.764 16.3105 171.611 16.4824 172.412 16.8262L171.92 17.9922C171.225 17.6719 170.529 17.5117 169.834 17.5117C168.92 17.5117 168.197 17.7988 167.666 18.373C167.135 18.9473 166.869 19.7324 166.869 20.7285C166.869 21.7754 167.107 22.5723 167.584 23.1191C168.064 23.6621 168.754 23.9336 169.652 23.9336C170.105 23.9336 170.59 23.877 171.105 23.7637V21.5547H169.33V20.3535ZM181.391 25H176.545V16.4336H181.391V17.6172H177.945V19.9492H181.174V21.1211H177.945V23.8105H181.391V25ZM188.207 25H186.807V17.6348H184.287V16.4336H190.727V17.6348H188.207V25ZM200.801 25H199.395V21.1387H195.445V25H194.045V16.4336H195.445V19.9375H199.395V16.4336H200.801V25ZM209.902 25H205.057V16.4336H209.902V17.6172H206.457V19.9492H209.686V21.1211H206.457V23.8105H209.902V25ZM215.16 20.418H216.133C216.785 20.418 217.258 20.2969 217.551 20.0547C217.844 19.8125 217.99 19.4531 217.99 18.9766C217.99 18.4922 217.832 18.1445 217.516 17.9336C217.199 17.7227 216.723 17.6172 216.086 17.6172H215.16V20.418ZM215.16 21.5781V25H213.76V16.4336H216.18C217.285 16.4336 218.104 16.6406 218.635 17.0547C219.166 17.4688 219.432 18.0938 219.432 18.9297C219.432 19.9961 218.877 20.7559 217.768 21.209L220.188 25H218.594L216.543 21.5781H215.16ZM223.084 24.2676C223.084 23.9824 223.158 23.7637 223.307 23.6113C223.455 23.459 223.67 23.3828 223.951 23.3828C224.236 23.3828 224.453 23.4629 224.602 23.623C224.75 23.7793 224.824 23.9941 224.824 24.2676C224.824 24.5449 224.748 24.7656 224.596 24.9297C224.447 25.0898 224.232 25.1699 223.951 25.1699C223.67 25.1699 223.455 25.0898 223.307 24.9297C223.158 24.7695 223.084 24.5488 223.084 24.2676Z" fill="#F87FA3"/>
</svg>
