<svg width="302" height="270" viewBox="0 0 302 270" fill="none" xmlns="http://www.w3.org/2000/svg">
<path d="M225.904 116.922C222.496 115.786 218.488 112.82 216.91 111.479L219.987 88.7569C227.088 88.2046 243.277 90.2717 252.176 90.6504C263.3 91.1237 270.874 94.9107 273.478 95.6208C276.081 96.3308 277.975 98.9343 278.922 99.6444C279.868 100.354 285.075 101.065 285.785 102.011C286.496 102.958 285.075 104.851 281.999 105.559C282.255 105.646 282.492 105.726 282.709 105.798C286.259 106.982 293.359 112.662 298.093 115.266C298.98 115.754 299.693 116.267 300.223 116.767C302.522 118.937 301.392 120.872 296.2 119.526C289.809 117.869 281.999 112.662 279.158 111.715C276.886 110.958 272.847 110.137 271.111 109.822C272.847 110.69 276.886 112.662 279.158 113.609C281.999 114.792 285.312 119.289 287.206 120.709C288.012 121.314 289.161 122.862 290.215 124.496C291.348 126.252 292.371 128.106 292.74 128.993C292.834 129.22 292.886 129.384 292.886 129.467C292.886 130.177 292.886 130.887 289.336 130.887C286.496 130.887 282.472 126.626 280.815 124.496C279.111 123.928 275.214 120.946 273.478 119.526C270.259 118.579 265.983 115.818 264.247 114.556L262.827 115.266C265.667 117.159 271.584 121.372 272.531 123.076C273.715 125.206 271.584 127.573 270.874 128.283C270.164 128.993 267.324 129.23 265.431 128.757C263.916 128.378 264.01 126.232 264.247 125.206L263.3 123.786C261.596 123.408 256.91 120.63 254.78 119.289L253.596 119.526C256.673 122.051 263.537 125.206 261.17 128.993C259.837 131.127 247.443 124.023 244.602 122.84C241.762 121.656 230.165 118.343 225.904 116.922Z" fill="#F5B66C"/>
<path d="M265.904 101.064C272.153 101.064 279.238 104.062 281.999 105.561" stroke="#BE8139"/>
<path d="M38.9231 29.3489C32.864 17.9881 3.89374 5.04928 -9.83398 0L-2.73344 269.821C7.11266 249.182 8.94302 138.145 8.62744 85.2066L51.7041 79.0528L144.248 93.9639C146.378 95.1474 151.68 97.4669 155.845 97.2775C160.011 97.0882 210.914 86.9423 235.845 81.893C236.082 80.2362 235.372 79.9995 233.952 79.2895C232.531 78.5794 176.437 66.9818 167.916 62.0115C161.1 58.0352 124.524 48.047 107.088 43.55L93.124 42.84C85.5501 41.5145 68.0354 36.4495 60.2248 34.0826C59.3569 32.0314 56.7692 27.5028 53.3609 25.7987C47.4911 23.5265 41.29 27.2188 38.9231 29.3489Z" fill="#983FEF"/>
<path d="M-11.052 2.60352C1.54568 6.87351 28.8443 18.9609 37.2573 33.1504C45.6703 47.3399 54.3463 66.6534 57.6326 74.5364C56.2086 64.4636 52.1773 42.8728 47.445 37.0919C42.7126 31.311 39.5577 29.6468 38.5718 29.5373C40.6532 29.0993 45.8018 28.3548 49.7454 28.8804C53.689 29.4059 57.5231 34.5737 58.9472 37.0919C69.573 37.7488 95.5571 42.61 114.486 56.7995C111.638 52.9675 104.693 45.0406 99.6979 43.9896C95.2066 43.0445 93.2126 42.9138 92.6171 42.9766C92.567 42.9857 92.5172 42.9949 92.4679 43.0042C92.5011 42.9931 92.5503 42.9837 92.6171 42.9766C103.82 40.9406 135.962 42.848 176.27 66.6534C187.838 72.9598 220.964 79.3538 236.081 81.7626C232.685 92.6018 222.213 115.266 207.49 119.207C196.645 115.594 171.274 106.331 156.552 98.1856C141.829 90.0398 126.317 76.1787 120.402 70.2664C123.25 74.208 129.998 82.945 134.204 86.361C138.411 89.777 142.968 93.0397 144.721 94.2441C122.264 92.0543 75.5104 87.0836 68.1489 84.7187C67.163 85.9231 64.2711 87.8062 60.5903 85.7041C48.9786 84.1713 22.2716 82.0253 8.33746 85.7041C10.3093 83.8428 16.4219 80.0546 25.0978 79.7918C17.8679 79.0254 2.42204 79.7918 -1.52157 88.9887C0.121601 88.7697 3.67086 88.1347 4.72248 87.3464C4.39385 110.996 2.68495 162.564 -1.52157 179.644L-38 53.8434L-11.052 2.60352Z" fill="white"/>
</svg>
