<svg width="304" height="281" viewBox="0 0 304 281" fill="none" xmlns="http://www.w3.org/2000/svg">
<path d="M192.786 87.5734L211.247 73.609C237.441 71.321 285.614 70.9108 268.762 87.5734C247.697 108.402 222.135 109.585 218.112 115.976C216.429 118.648 215.035 120.709 201.544 123.786C190.159 126.383 95.0355 127.81 86.7515 129.703C78.4675 131.597 79.4143 132.78 73.4972 133.964C68.7635 134.91 60.7951 134.358 57.4026 133.964C57.1659 134.121 56.3612 134.532 55.0357 134.91C53.7103 135.289 52.1166 135.068 51.4855 134.91C48.8819 135.936 43.3435 138.082 42.0181 138.461C40.3613 138.934 35.3909 142.011 33.9708 139.407C32.8347 137.325 36.1798 134.753 37.9944 133.727L44.3849 130.177L42.2547 129.94C41.5447 130.492 39.5565 131.739 37.2844 132.307C35.0122 132.875 33.813 132.859 33.4974 132.78C34.2075 133.49 33.024 140.591 29.7104 140.117C26.3968 139.644 26.1602 130.887 26.8702 129.703C27.3992 128.822 31.1164 126.64 33.2817 125.452C31.8364 126.11 27.9286 127.257 25.9235 127.81C25.7341 128.757 22.0576 131.518 20.243 132.78C19.533 134.91 12.9055 139.881 10.539 138.224C8.17245 136.567 12.9055 129.94 14.3259 127.81C15.4623 126.106 19.6909 122.366 21.6631 120.709L30.4205 117.159L29.7104 116.212C27.817 117.727 22.6099 117.948 20.243 117.869C19.1069 119.005 14.8779 120.551 12.9055 121.183C10.6965 122.445 5.8527 125.064 4.14856 125.443C2.0184 125.916 -1.05851 125.206 0.361605 122.839C1.47745 120.98 10.4476 115.619 15.0278 113.036C14.6482 113.154 13.9333 113.07 12.9055 112.189C11.58 111.053 11.722 109.664 11.9587 109.112C15.935 109.112 21.505 107.534 23.793 106.745C29.2367 106.429 41.8284 105.893 48.6449 106.271C57.1655 106.745 64.2661 109.348 71.6033 109.822C78.9406 110.295 84.1476 108.402 89.3547 107.218C94.5618 106.035 104.976 105.798 131.721 101.301C153.118 97.7035 181.346 90.6503 192.786 87.5734Z" fill="#F5B66C"/>
<path d="M264.308 33.3566C267.174 19.8537 306.694 7.91445 323.169 9.19925L304.822 281C303.179 255.577 300.03 201.635 300.582 189.247C301.134 176.858 289.816 122.904 283.199 93.7272C280.046 94.3101 281.969 92.0937 281.422 91.3604L241.96 117.339C225.563 105.096 194.26 78.7589 200.224 71.3509C206.189 63.9428 228.112 54.7059 238.327 51.0135C237.755 49.5012 237.418 46.0736 240.651 44.461C243.885 42.8485 246.699 43.2924 247.702 43.716C248.872 41.9943 251.998 37.7835 255.138 34.7133C258.278 31.6432 262.56 32.5296 264.308 33.3566Z" fill="#983FEF"/>
<path d="M270.314 29.4219C292.909 10.6722 315.902 9.40927 324.574 11.1215L350.502 136.939C335.449 189.376 305.64 283.135 306.828 238.682C308.016 194.229 296.707 145.953 290.904 127.371C296.028 136.058 299.448 150.655 300.518 156.868C300.632 155.409 299.905 148.118 296.089 130.624C292.273 113.13 285.105 93.2503 281.998 85.4974C282.38 86.1315 285.766 86.9826 296.256 85.3143C306.746 83.6461 309.188 78.8985 309.098 76.7333C306.656 78.8219 298.414 79.7849 294.598 80.0053C297.623 81.07 303.833 80.0349 306.561 79.3843C305.166 80.6568 299.981 83.3776 290.396 84.0804C280.81 84.7832 278.719 85.9752 277.993 85.3143L241.962 117.338C230.938 115.236 211.231 88.5252 202.755 75.4328C207.121 67.2785 228.461 55.7689 238.586 51.0334C233.024 59.495 245.88 66.8611 255.616 70.5116C245.615 66.035 241.392 55.0903 240.508 49.6294C240.047 48.9028 239.466 47.0618 240.83 45.5107C242.194 43.9595 245.98 43.6678 247.703 43.7158C259.115 54.1365 270.454 51.9648 285.46 51.063L284.834 51.0143C272.793 50.0756 271.189 49.9506 264.709 48.1499C258.118 46.3184 256.958 43.4879 253.727 39.5238C254.886 35.7294 261.617 31.3335 264.803 33.654C277.86 46.8963 298.849 49.8626 308.789 50.8105C304.143 49.4986 292.959 45.8984 285.391 41.9931C277.822 38.0878 272.186 31.9851 270.314 29.4219Z" fill="white"/>
<path d="M15.0371 112.899C17.404 111.952 23.7945 108.165 26.6347 107.692C28.9068 107.313 30.1061 107.218 30.4216 107.218" stroke="#BE8139"/>
<path d="M33.2637 125.443C35.3465 124.307 37.4451 123.707 38.2341 123.55" stroke="#BE8139"/>
<path d="M91.4852 131.834C85.0474 129.94 79.8087 115.581 77.9941 108.638L85.0947 106.508C85.8047 108.717 87.7929 114.461 90.0651 119.763C92.3373 125.064 96.2189 128.914 97.8757 130.177L91.4852 131.834Z" fill="#B779F4"/>
</svg>
