<svg width="599" height="437" viewBox="0 0 599 437" fill="none" xmlns="http://www.w3.org/2000/svg">
<g clip-path="url(#clip0_1159_410)">
<rect width="599" height="437" fill="white"/>
<path d="M472 41C470.8 43.8 472.166 45.1667 473 45.5L503.5 131.5C505.333 139.833 512.2 156 525 154C537.8 152 555 126.167 562 113.5C581.2 103.5 597 89.6667 602.5 84L614 -150.5C607 -148 589.2 -140.7 574 -131.5C555 -120 545 -82.5 539.5 -67C534 -51.5 535.5 -52.5 528.5 -46.5C517.5 -37 473.5 37.5 472 41Z" fill="#EF5482"/>
<path d="M193.5 97.5C200.167 106 215.9 127.7 225.5 146.5C237.5 170 238 175.5 245.5 187C253 198.5 254.5 203.5 265 215C275.5 226.5 280 230 284.5 235.5C288.1 239.9 288.667 241.333 288.5 241.5C292.342 244.244 300.701 251.822 308 262.896C310.667 261.764 317.4 257.7 323 250.5C330 241.5 404.5 145 413 139C421.5 133 436 119.5 443 106C450 92.5 467 44.5 487 30L541.5 97.5C524.833 112.167 489.9 143.4 483.5 151C475.5 160.5 469.5 175.5 460.5 186C451.5 196.5 360.5 262.896 350 273.5C341.6 281.983 338.298 291.035 337.697 294.5C341.609 298.115 344.788 301.254 345.5 302.5C347.5 306 347 309.5 347.5 312.5C348 315.5 351.5 325 351.5 328C351.5 331 348 336 347.5 339C347.667 341.5 347.8 346.8 347 348C346.172 349.243 341.911 348.083 340.19 345.658C341.766 349.552 344 355.739 344 358.5C344 361.7 341.333 367.167 340 369.5C340.167 371.667 339.9 376.8 337.5 380C337.5 380.333 337.2 381 336 381C334.5 381 331 378.5 331 373V366C330.667 365.667 329.9 364.8 329.5 364C326.167 367.5 318.8 374.2 316 373C313.2 371.8 311.833 370.5 311.5 370C311 371.333 309.2 374.6 306 377C302 380 291.5 380 288.5 379.5C285.5 379 283.5 377 283.5 375V370C283 370.5 281.5 371.5 279.5 371.5C277 371.5 267 366 265 365C263 364 262.5 362.5 262.5 361.5C262.5 360.7 262.833 358.833 263 358C262 358.333 259.5 358.8 257.5 358C255 357 252.5 352 253 348.5C252.833 348.5 252.4 348.1 252 346.5C251.5 344.5 249.5 339.5 251 336.5C252.2 334.1 257.833 329.833 260.5 328C260.5 327.333 260.7 325.8 261.5 325C260.5 324 261 308 264.5 304C264.667 301.667 265.4 296.9 267 296.5C266.167 294 263.7 288.2 260.5 285C256.5 281 194 233 183 226.5C177.8 224.1 153.833 196.5 142.5 183V108.5L193.5 97.5Z" fill="#F5B66C"/>
<path d="M76 -74.5C75 -77.5 50.5 -116 24 -142.5L-24 -156L-6 50.5C18 70.5 94.5 159 106.5 171C118.5 183 148.5 220 155 230.5C160.2 238.9 211.833 281.333 237 301.5L280.5 223L279 210.5L252 171C243.2 149.8 209.5 93 190 70.5C185 53.5 181 53.3 175 44.5C161.5 21.5 112.5 -34 108.5 -38C104.5 -42 94 -60 89.5 -65.5C85.9 -69.9 79 -73.3333 76 -74.5Z" fill="#EF5482"/>
<path d="M308 263C311.5 267.5 315 278 317.5 280C318.5 281 321 280.5 323 281C324.6 281.4 333.333 290.167 337.5 294.5M260.5 327.5C260 329.333 259.2 334.4 260 340C263.666 340.167 271 342.1 271 348.5C271 350.5 270 351 268.5 351C267 351 261 352.5 258 351.5C255.6 350.7 253.333 348.833 252.5 348M263 358C265.833 355.333 272 350.2 274 351C276 351.8 275.5 355 275 356.5C276 356.667 278.2 357.3 279 358.5C280.167 358.5 282.7 358.5 283.5 358.5C284.5 357.333 287.4 355.2 291 356C294.6 356.8 295.833 360 296 361.5C296.167 361.667 296.4 362.2 296 363L289 366.5C288.811 366.752 288.438 367.141 287.873 367.592M283.5 370C285.493 369.253 286.942 368.338 287.873 367.592M287.873 367.592C290.916 367.062 297.2 366.3 298 367.5C299 367 301.5 365.3 303.5 362.5C306 359 310.5 355.5 315 360C315.296 360.395 315.557 361.27 315.222 362.5M311.5 370C313.1 368 313.5 366.167 313.5 365.5C314.478 364.359 314.991 363.346 315.222 362.5M315.222 362.5C316.148 361.5 318.3 359 319.5 357C321 354.5 323 347.5 327.5 346C331.25 344.75 333.611 345.583 334.294 348.5M329.5 364C333.5 356 334.5 355 334.5 350.5C334.5 349.75 334.431 349.083 334.294 348.5M334.294 348.5C335.147 345.305 336.938 338.858 338.439 334.15M342.5 314.5C342.167 318.167 341.1 326.6 339.5 331C339.178 331.886 338.818 332.962 338.439 334.15M340 345.5C338.8 343.5 338.459 337.1 338.439 334.15" stroke="#BE8139"/>
<path d="M280 223C280.833 232.5 280.2 253.7 271 262.5C261.8 271.3 244.833 290.833 237.5 299.5C191.333 255.5 94.4 159.5 76 127.5C57.6 95.5 5.33333 46.1667 -18.5 25.5L-5.5 -150.5C16.3333 -136.333 61.6 -102.1 68 -78.5C75.8104 -49.6991 85.0506 -26.1406 84.5536 7.99539C84.9439 -13.2661 84.1485 -54.6658 78 -68.5C79.8333 -69 84.7 -68 89.5 -60C95.5 -50 93 -46 99 -39.5C105 -33 139.5 1 163 36.5C186.5 72 197.5 137.5 208.5 153C217.3 165.4 225.833 158.167 229 153C225.167 155.667 208.457 145.399 204 135C198 121 198.5 98 191.5 78.5C184.5 59 238.1 142.5 248.5 176.5L280 223Z" fill="#8C0D33"/>
<path d="M522.5 86.4999C516.1 70.4999 486.833 49.8332 473 41.4999C511.5 0.999893 521 -41.5001 534 -43.0001C532.167 -40.5001 518.6 -21.6001 521 -12.0001C523.4 -2.40012 518.5 9.49989 517.5 13.9999C531.5 -13.5001 542.5 -81.5001 559 -104C589 -138.4 598.5 -143 608.5 -137.5L619.5 55.9999C610.833 65.1666 592.1 85.3999 586.5 92.9999C580.9 100.6 571.833 104.833 568 106C570 95.9999 567.833 84.1666 566.5 79.4999C568.1 87.8999 563.833 105.333 561.5 113C550.667 125 526.7 149.2 517.5 150C508.3 150.8 502.833 139.333 502 133L524.5 112.5C525.667 108.167 526.9 97.2999 522.5 86.4999Z" fill="#8C0D33"/>
<path d="M326 241.5L317 251.5L340 296L347 293.5L326 241.5Z" fill="#EF5482"/>
</g>
<defs>
<clipPath id="clip0_1159_410">
<rect width="599" height="437" fill="white"/>
</clipPath>
</defs>
</svg>
