<svg width="814" height="458" viewBox="0 0 814 458" fill="none" xmlns="http://www.w3.org/2000/svg">
<g clip-path="url(#clip0)">
<rect width="814" height="458" fill="#879196"/>
<rect width="210" height="458" fill="#D5D8DA"/>
<rect width="200" height="458" fill="#9CA5A9"/>
<rect x="814" y="458" width="210" height="458" transform="rotate(-180 814 458)" fill="#D5D8DA"/>
<rect x="814" y="458" width="200" height="458" transform="rotate(-180 814 458)" fill="#9CA5A9"/>
<rect x="150" y="498" width="444" height="664" rx="4" transform="rotate(-90 150 498)" fill="white"/>
<rect x="228.126" y="286" width="554.73" height="116" rx="12" fill="white" stroke="#A1A7AA" stroke-width="8"/>
<rect x="228.126" y="91" width="554.73" height="116" rx="12" fill="#EEF0F0" stroke="#A1A7AA" stroke-width="8"/>
<rect x="330.616" y="303" width="160.78" height="28" fill="#B9BFC2"/>
<rect x="250.226" y="108" width="104.403" height="28" fill="#A1A7AA"/>
<rect x="330.616" y="344" width="326.78" height="41" fill="#A1A7AA"/>
<rect x="250.226" y="149" width="444.755" height="41" fill="#B9BFC2"/>
<rect x="250.226" y="315" width="59.5094" height="57" rx="28.5" fill="#B9BFC2"/>
<rect x="329.572" width="484.428" height="64" fill="#424E54"/>
<rect opacity="0.4" width="814" height="458" fill="black"/>
<rect opacity="0.3" x="-10" y="-24" width="360" height="501" rx="4" fill="#1D2529"/>
<rect y="-7.30005" width="340" height="467.6" fill="white"/>
<rect width="340" height="64" fill="#007BC1"/>
<path fill-rule="evenodd" clip-rule="evenodd" d="M14 26.6667V24H38V26.6667H14ZM14 33.3333H38V30.6667H14V33.3333ZM14 40H38V37.3333H14V40Z" fill="white"/>
<rect x="10" y="89" width="32" height="32" rx="8" fill="#007BC1"/>
<rect x="74" y="95" width="207" height="20" fill="#B3D7EC"/>
<rect x="74" y="22" width="207" height="20" fill="#268FCA"/>
<rect x="74" y="149" width="207" height="20" fill="#B3D7EC"/>
<rect x="74" y="203" width="207" height="20" fill="#B3D7EC"/>
<rect x="74" y="365" width="207" height="20" fill="#B3D7EC"/>
<rect x="74" y="419" width="207" height="20" fill="#B3D7EC"/>
<rect x="74" y="257" width="207" height="20" fill="#80BDE0"/>
<rect x="74" y="311" width="207" height="20" fill="#80BDE0"/>
<rect x="10" y="143" width="32" height="32" rx="8" fill="#007BC1"/>
<rect x="10" y="197" width="32" height="32" rx="8" fill="#007BC1"/>
<rect x="10" y="359" width="32" height="32" rx="8" fill="#007BC1"/>
<rect x="10" y="413" width="32" height="32" rx="8" fill="#007BC1"/>
</g>
<defs>
<clipPath id="clip0">
<rect width="814" height="458" fill="white"/>
</clipPath>
</defs>
</svg>
