<svg width="33" height="32" viewBox="0 0 33 32" fill="#424E54" xmlns="http://www.w3.org/2000/svg">
<path fill-rule="evenodd" clip-rule="evenodd" d="M16.25 4C9.62333 4 4.25 9.37333 4.25 16C4.25 22.6267 9.62333 28 16.25 28C17.3567 28 18.25 27.1067 18.25 26C18.25 25.48 18.05 25.0133 17.73 24.6533C17.4233 24.3067 17.2233 23.84 17.2233 23.3333C17.2233 22.2267 18.1167 21.3333 19.2233 21.3333H21.5833C25.2633 21.3333 28.25 18.3467 28.25 14.6667C28.25 8.77333 22.8767 4 16.25 4ZM8.91667 16C7.81 16 6.91667 15.1067 6.91667 14C6.91667 12.8933 7.81 12 8.91667 12C10.0233 12 10.9167 12.8933 10.9167 14C10.9167 15.1067 10.0233 16 8.91667 16ZM10.9167 8.66667C10.9167 9.77333 11.81 10.6667 12.9167 10.6667C14.0233 10.6667 14.9167 9.77333 14.9167 8.66667C14.9167 7.56 14.0233 6.66667 12.9167 6.66667C11.81 6.66667 10.9167 7.56 10.9167 8.66667ZM19.5833 10.6667C18.4767 10.6667 17.5833 9.77333 17.5833 8.66667C17.5833 7.56 18.4767 6.66667 19.5833 6.66667C20.69 6.66667 21.5833 7.56 21.5833 8.66667C21.5833 9.77333 20.69 10.6667 19.5833 10.6667ZM21.5833 14C21.5833 15.1067 22.4767 16 23.5833 16C24.69 16 25.5833 15.1067 25.5833 14C25.5833 12.8933 24.69 12 23.5833 12C22.4767 12 21.5833 12.8933 21.5833 14Z"/>
</svg>
