<svg width="256" height="256" viewBox="0 0 256 256" fill="none" xmlns="http://www.w3.org/2000/svg">
<rect width="256" height="256" fill="#E2E5E5"/>
<g clip-path="url(#clip0_5433_282542)">
<path d="M192 64H64V192H192V64Z" fill="#007BC1"/>
<rect width="128" height="30" transform="translate(64.0225 162)" fill="white"/>
<path d="M118.294 172.374L119.622 177.166H116.865L118.294 172.374ZM115.869 180.523L114.658 184.497H121.746L120.602 180.523H115.869ZM134.366 169.5H120.761V173.77H125.054V184.499H131.961C131.534 184.235 128.604 181.91 128.604 177.568C128.604 173.957 130.794 170.426 134.367 169.501M136.726 180.659C138.331 180.659 139.62 179.327 139.62 177.643C139.62 175.959 138.413 174.456 136.784 174.456C135.156 174.456 133.867 175.971 133.867 177.643C133.867 179.315 135.072 180.659 136.727 180.659M150.996 178.929L148.234 169.501H141.164V184.5H145.58V175.097H145.611L148.349 184.5H155.479V169.501H151.025V178.929H150.997H150.996ZM109.057 184.5L110.332 180.293H105.601V179.023H110.72L111.935 174.991H105.601V173.77H112.288L113.579 169.5H100.5V184.499H109.058L109.057 184.5Z" fill="#007BC1"/>
<path style="mix-blend-mode:overlay" d="M128.058 183.99C167.371 183.99 199.24 152.121 199.24 112.808C199.24 73.4945 167.371 41.625 128.058 41.625C88.7445 41.625 56.875 73.4945 56.875 112.808C56.875 152.121 88.7445 183.99 128.058 183.99Z" fill="url(#paint0_radial_5433_282542)"/>
</g>
<g opacity="0.9">
<path d="M120.917 73.7915C120.917 79.6707 116.171 84.4165 110.292 84.4165C108.344 84.4165 106.75 86.0103 106.75 87.9582H99.6667C99.6667 82.079 104.413 77.3332 110.292 77.3332C112.24 77.3332 113.833 75.7394 113.833 73.7915H120.917ZM128 80.8748L106.75 97.0957V91.4998H99.6667V102.514L89.0417 110.625L93.3272 116.256L99.6667 111.404V144.625H156.333V111.404L162.673 116.221L166.958 110.625L128 80.8748ZM134.871 95.0415H121.094L128 89.7998L134.871 95.0415ZM111.85 102.125H144.15L149.25 106.021V109.208H106.75V106.021L111.85 102.125ZM149.25 116.292V123.375H106.75V116.292H149.25ZM106.75 137.542V130.458H149.25V137.542H106.75Z" fill="white"/>
<mask id="mask0_5433_282542" style="mask-type:alpha" maskUnits="userSpaceOnUse" x="89" y="73" width="78" height="72">
<path d="M120.917 73.7915C120.917 79.6707 116.171 84.4165 110.292 84.4165C108.344 84.4165 106.75 86.0103 106.75 87.9582H99.6667C99.6667 82.079 104.413 77.3332 110.292 77.3332C112.24 77.3332 113.833 75.7394 113.833 73.7915H120.917ZM128 80.8748L106.75 97.0957V91.4998H99.6667V102.514L89.0417 110.625L93.3272 116.256L99.6667 111.404V144.625H156.333V111.404L162.673 116.221L166.958 110.625L128 80.8748ZM134.871 95.0415H121.094L128 89.7998L134.871 95.0415ZM111.85 102.125H144.15L149.25 106.021V109.208H106.75V106.021L111.85 102.125ZM149.25 116.292V123.375H106.75V116.292H149.25ZM106.75 137.542V130.458H149.25V137.542H106.75Z" fill="white"/>
</mask>
<g mask="url(#mask0_5433_282542)">
<path d="M106.75 106.062L121.125 95.0625H134.875L149.25 106V131.75H106.75V106.062Z" fill="#B3D7EC"/>
<path d="M110.375 94.3125L89 110.625L102 72.375H129.938L110.375 94.3125Z" fill="#B3D7EC"/>
</g>
</g>
<line x1="155" y1="52" x2="155" y2="106" stroke="#FFAA2A" stroke-width="2"/>
<rect width="113" height="34" transform="translate(89 18)" fill="#FFAA2A"/>
<path d="M98.5059 30.2568L99.9277 24.6035H101.192L99.0391 32H98.0137L96.2158 26.3945L94.4658 32H93.4404L91.2939 24.6035H92.5518L94.0078 30.1406L95.7305 24.6035H96.749L98.5059 30.2568ZM103.749 25.499C104.31 24.8109 105.039 24.4668 105.937 24.4668C107.5 24.4668 108.288 25.3486 108.302 27.1123V32H107.037V27.1055C107.033 26.5723 106.91 26.1781 106.668 25.9229C106.431 25.6676 106.06 25.54 105.554 25.54C105.144 25.54 104.784 25.6494 104.474 25.8682C104.164 26.0869 103.922 26.374 103.749 26.7295V32H102.484V21.5H103.749V25.499ZM111.569 32H110.305V24.6035H111.569V32ZM110.202 22.6416C110.202 22.4365 110.264 22.2633 110.387 22.1221C110.514 21.9808 110.701 21.9102 110.947 21.9102C111.193 21.9102 111.38 21.9808 111.508 22.1221C111.635 22.2633 111.699 22.4365 111.699 22.6416C111.699 22.8467 111.635 23.0176 111.508 23.1543C111.38 23.291 111.193 23.3594 110.947 23.3594C110.701 23.3594 110.514 23.291 110.387 23.1543C110.264 23.0176 110.202 22.8467 110.202 22.6416ZM115.315 22.8125V24.6035H116.696V25.5811H115.315V30.168C115.315 30.4642 115.377 30.6875 115.5 30.8379C115.623 30.9837 115.833 31.0566 116.129 31.0566C116.275 31.0566 116.475 31.0293 116.73 30.9746V32C116.398 32.0911 116.074 32.1367 115.76 32.1367C115.195 32.1367 114.769 31.9658 114.481 31.624C114.194 31.2822 114.051 30.7969 114.051 30.168V25.5811H112.704V24.6035H114.051V22.8125H115.315ZM121.249 32.1367C120.246 32.1367 119.431 31.8086 118.802 31.1523C118.173 30.4915 117.858 29.6097 117.858 28.5068V28.2744C117.858 27.5407 117.997 26.8867 118.275 26.3125C118.558 25.7337 118.95 25.2826 119.451 24.959C119.957 24.6309 120.504 24.4668 121.092 24.4668C122.053 24.4668 122.801 24.7835 123.334 25.417C123.867 26.0505 124.134 26.9574 124.134 28.1377V28.6641H119.123C119.141 29.3932 119.353 29.9834 119.759 30.4346C120.169 30.8812 120.688 31.1045 121.317 31.1045C121.764 31.1045 122.142 31.0133 122.452 30.8311C122.762 30.6488 123.033 30.4072 123.266 30.1064L124.038 30.708C123.418 31.6605 122.489 32.1367 121.249 32.1367ZM121.092 25.5059C120.581 25.5059 120.153 25.6927 119.807 26.0664C119.46 26.4355 119.246 26.9551 119.164 27.625H122.869V27.5293C122.833 26.8867 122.66 26.39 122.35 26.0391C122.04 25.6836 121.62 25.5059 121.092 25.5059ZM128.222 21.6641H126.916V33.0938H128.222V34.1328H125.645V20.625H128.222V21.6641ZM129.773 27.0098L130.279 22.0469H135.379V23.2158H131.353L131.052 25.9297C131.539 25.6426 132.093 25.499 132.713 25.499C133.62 25.499 134.34 25.7998 134.873 26.4014C135.406 26.9984 135.673 27.8073 135.673 28.8281C135.673 29.8535 135.395 30.6624 134.839 31.2549C134.287 31.8428 133.515 32.1367 132.521 32.1367C131.642 32.1367 130.924 31.8929 130.368 31.4053C129.812 30.9176 129.495 30.2432 129.418 29.3818H130.614C130.692 29.9515 130.895 30.3822 131.223 30.6738C131.551 30.9609 131.984 31.1045 132.521 31.1045C133.109 31.1045 133.57 30.904 133.902 30.5029C134.24 30.1019 134.408 29.5482 134.408 28.8418C134.408 28.1764 134.226 27.6432 133.861 27.2422C133.501 26.8366 133.021 26.6338 132.419 26.6338C131.868 26.6338 131.435 26.7546 131.12 26.9961L130.785 27.2695L129.773 27.0098ZM143.295 27.7549C143.295 29.236 143.042 30.3366 142.536 31.0566C142.03 31.7767 141.24 32.1367 140.164 32.1367C139.102 32.1367 138.316 31.7858 137.806 31.084C137.295 30.3776 137.031 29.3249 137.013 27.9258V26.2373C137.013 24.7744 137.266 23.6875 137.771 22.9766C138.277 22.2656 139.07 21.9102 140.15 21.9102C141.221 21.9102 142.01 22.2542 142.516 22.9424C143.021 23.626 143.281 24.6833 143.295 26.1143V27.7549ZM142.03 26.0254C142.03 24.9544 141.88 24.1751 141.579 23.6875C141.278 23.1953 140.802 22.9492 140.15 22.9492C139.503 22.9492 139.032 23.193 138.735 23.6807C138.439 24.1683 138.286 24.918 138.277 25.9297V27.9531C138.277 29.0286 138.432 29.8239 138.742 30.3389C139.057 30.8493 139.531 31.1045 140.164 31.1045C140.788 31.1045 141.251 30.863 141.552 30.3799C141.857 29.8968 142.017 29.1357 142.03 28.0967V26.0254ZM144.149 20.625H146.733V34.1328H144.149V33.0938H145.469V21.6641H144.149V20.625ZM93.1465 40.6035L93.1807 41.4238C93.723 40.7858 94.4544 40.4668 95.375 40.4668C96.4095 40.4668 97.1136 40.8633 97.4873 41.6562C97.7334 41.3008 98.0524 41.0137 98.4443 40.7949C98.8408 40.5762 99.3079 40.4668 99.8457 40.4668C101.468 40.4668 102.293 41.3258 102.32 43.0439V48H101.056V43.1191C101.056 42.5905 100.935 42.1963 100.693 41.9365C100.452 41.6722 100.046 41.54 99.4766 41.54C99.0072 41.54 98.6175 41.6813 98.3076 41.9639C97.9977 42.2419 97.8177 42.6178 97.7676 43.0918V48H96.4961V43.1533C96.4961 42.0778 95.9697 41.54 94.917 41.54C94.0876 41.54 93.5202 41.8932 93.2148 42.5996V48H91.9502V40.6035H93.1465ZM108.801 48C108.728 47.8542 108.669 47.5944 108.623 47.2207C108.035 47.8314 107.333 48.1367 106.518 48.1367C105.788 48.1367 105.189 47.9316 104.72 47.5215C104.255 47.1068 104.022 46.5827 104.022 45.9492C104.022 45.179 104.314 44.582 104.897 44.1582C105.485 43.7298 106.31 43.5156 107.372 43.5156H108.603V42.9346C108.603 42.4925 108.47 42.1416 108.206 41.8818C107.942 41.6175 107.552 41.4854 107.037 41.4854C106.586 41.4854 106.208 41.5993 105.902 41.8271C105.597 42.055 105.444 42.3307 105.444 42.6543H104.173C104.173 42.2852 104.303 41.9297 104.562 41.5879C104.827 41.2415 105.182 40.9681 105.629 40.7676C106.08 40.5671 106.575 40.4668 107.112 40.4668C107.965 40.4668 108.632 40.681 109.115 41.1094C109.598 41.5332 109.849 42.1188 109.867 42.8662V46.2705C109.867 46.9495 109.954 47.4896 110.127 47.8906V48H108.801ZM106.702 47.0361C107.099 47.0361 107.475 46.9336 107.83 46.7285C108.186 46.5234 108.443 46.2568 108.603 45.9287V44.4111H107.611C106.062 44.4111 105.287 44.8646 105.287 45.7715C105.287 46.168 105.419 46.4779 105.684 46.7012C105.948 46.9245 106.287 47.0361 106.702 47.0361ZM114.331 43.3037L115.972 40.6035H117.448L115.028 44.2607L117.523 48H116.061L114.352 45.2314L112.643 48H111.173L113.668 44.2607L111.248 40.6035H112.711L114.331 43.3037ZM118.822 47.3369C118.822 47.1182 118.886 46.9359 119.014 46.79C119.146 46.6442 119.342 46.5713 119.602 46.5713C119.861 46.5713 120.057 46.6442 120.189 46.79C120.326 46.9359 120.395 47.1182 120.395 47.3369C120.395 47.5465 120.326 47.722 120.189 47.8633C120.057 48.0046 119.861 48.0752 119.602 48.0752C119.342 48.0752 119.146 48.0046 119.014 47.8633C118.886 47.722 118.822 47.5465 118.822 47.3369ZM130.676 43.625C130.411 43.9395 130.095 44.1924 129.726 44.3838C129.361 44.5752 128.96 44.6709 128.522 44.6709C127.948 44.6709 127.447 44.5296 127.019 44.2471C126.595 43.9645 126.267 43.568 126.034 43.0576C125.802 42.5426 125.686 41.9753 125.686 41.3555C125.686 40.6901 125.811 40.0908 126.062 39.5576C126.317 39.0244 126.677 38.6165 127.142 38.334C127.606 38.0514 128.149 37.9102 128.769 37.9102C129.753 37.9102 130.528 38.2793 131.093 39.0176C131.662 39.7513 131.947 40.7539 131.947 42.0254V42.3945C131.947 44.3314 131.564 45.7464 130.799 46.6396C130.033 47.5283 128.878 47.984 127.333 48.0068H127.087V46.9404H127.354C128.397 46.9222 129.199 46.651 129.76 46.127C130.32 45.5983 130.626 44.7643 130.676 43.625ZM128.728 43.625C129.151 43.625 129.541 43.4951 129.896 43.2354C130.257 42.9756 130.519 42.6543 130.683 42.2715V41.7656C130.683 40.9362 130.503 40.2617 130.143 39.7422C129.783 39.2227 129.327 38.9629 128.775 38.9629C128.219 38.9629 127.773 39.1771 127.436 39.6055C127.098 40.0293 126.93 40.5898 126.93 41.2871C126.93 41.9661 127.091 42.5267 127.415 42.9688C127.743 43.4062 128.181 43.625 128.728 43.625ZM139.932 43.7549C139.932 45.236 139.679 46.3366 139.173 47.0566C138.667 47.7767 137.876 48.1367 136.801 48.1367C135.739 48.1367 134.953 47.7858 134.442 47.084C133.932 46.3776 133.668 45.3249 133.649 43.9258V42.2373C133.649 40.7744 133.902 39.6875 134.408 38.9766C134.914 38.2656 135.707 37.9102 136.787 37.9102C137.858 37.9102 138.646 38.2542 139.152 38.9424C139.658 39.626 139.918 40.6833 139.932 42.1143V43.7549ZM138.667 42.0254C138.667 40.9544 138.517 40.1751 138.216 39.6875C137.915 39.1953 137.439 38.9492 136.787 38.9492C136.14 38.9492 135.668 39.193 135.372 39.6807C135.076 40.1683 134.923 40.918 134.914 41.9297V43.9531C134.914 45.0286 135.069 45.8239 135.379 46.3389C135.693 46.8493 136.167 47.1045 136.801 47.1045C137.425 47.1045 137.888 46.863 138.188 46.3799C138.494 45.8968 138.653 45.1357 138.667 44.0967V42.0254ZM141.442 39.9609C141.442 39.3639 141.632 38.8717 142.01 38.4844C142.393 38.097 142.882 37.9033 143.479 37.9033C144.086 37.9033 144.576 38.0993 144.949 38.4912C145.327 38.8786 145.517 39.3822 145.517 40.002V40.4873C145.517 41.0889 145.325 41.5811 144.942 41.9639C144.564 42.3421 144.081 42.5312 143.493 42.5312C142.901 42.5312 142.411 42.3421 142.023 41.9639C141.636 41.5811 141.442 41.0729 141.442 40.4395V39.9609ZM142.386 40.4873C142.386 40.8428 142.486 41.1367 142.687 41.3691C142.887 41.597 143.156 41.7109 143.493 41.7109C143.817 41.7109 144.076 41.5993 144.272 41.376C144.473 41.1527 144.573 40.8473 144.573 40.46V39.9609C144.573 39.6055 144.475 39.3115 144.279 39.0791C144.083 38.8467 143.817 38.7305 143.479 38.7305C143.142 38.7305 142.876 38.8467 142.68 39.0791C142.484 39.3115 142.386 39.6146 142.386 39.9883V40.4873ZM146.289 45.5596C146.289 44.9626 146.478 44.4727 146.856 44.0898C147.239 43.7025 147.729 43.5088 148.326 43.5088C148.923 43.5088 149.413 43.7002 149.796 44.083C150.179 44.4658 150.37 44.974 150.37 45.6074V46.0928C150.37 46.6898 150.179 47.182 149.796 47.5693C149.418 47.9521 148.932 48.1436 148.34 48.1436C147.747 48.1436 147.257 47.9544 146.87 47.5762C146.483 47.1934 146.289 46.6852 146.289 46.0518V45.5596ZM147.232 46.0928C147.232 46.4528 147.333 46.749 147.533 46.9814C147.734 47.2093 148.003 47.3232 148.34 47.3232C148.668 47.3232 148.93 47.2116 149.126 46.9883C149.322 46.7604 149.42 46.4528 149.42 46.0654V45.5596C149.42 45.1995 149.32 44.9056 149.119 44.6777C148.923 44.4499 148.659 44.3359 148.326 44.3359C148.003 44.3359 147.738 44.4499 147.533 44.6777C147.333 44.901 147.232 45.2041 147.232 45.5869V46.0928ZM143.78 47.248L143.062 46.7969L147.923 39.0176L148.641 39.4688L143.78 47.248ZM155.073 44.2334C155.073 43.5088 155.215 42.8571 155.497 42.2783C155.784 41.6995 156.181 41.2529 156.687 40.9385C157.197 40.624 157.778 40.4668 158.43 40.4668C159.437 40.4668 160.25 40.8154 160.87 41.5127C161.494 42.21 161.807 43.1374 161.807 44.2949V44.3838C161.807 45.1038 161.668 45.751 161.39 46.3252C161.116 46.8949 160.722 47.3392 160.207 47.6582C159.697 47.9772 159.109 48.1367 158.443 48.1367C157.441 48.1367 156.627 47.7881 156.003 47.0908C155.383 46.3936 155.073 45.4707 155.073 44.3223V44.2334ZM156.345 44.3838C156.345 45.2041 156.534 45.8626 156.912 46.3594C157.295 46.8561 157.805 47.1045 158.443 47.1045C159.086 47.1045 159.596 46.8538 159.975 46.3525C160.353 45.8467 160.542 45.1403 160.542 44.2334C160.542 43.4222 160.348 42.766 159.961 42.2646C159.578 41.7588 159.068 41.5059 158.43 41.5059C157.805 41.5059 157.302 41.7542 156.919 42.251C156.536 42.7477 156.345 43.4587 156.345 44.3838ZM169.641 44.3838C169.641 45.5094 169.383 46.4163 168.868 47.1045C168.353 47.7926 167.656 48.1367 166.776 48.1367C165.879 48.1367 165.172 47.8519 164.657 47.2822V50.8438H163.393V40.6035H164.548L164.609 41.4238C165.124 40.7858 165.84 40.4668 166.756 40.4668C167.645 40.4668 168.346 40.8018 168.861 41.4717C169.381 42.1416 169.641 43.0736 169.641 44.2676V44.3838ZM168.376 44.2402C168.376 43.4062 168.198 42.7477 167.843 42.2646C167.487 41.7816 167 41.54 166.38 41.54C165.614 41.54 165.04 41.8796 164.657 42.5586V46.0928C165.035 46.7673 165.614 47.1045 166.394 47.1045C167 47.1045 167.48 46.8652 167.836 46.3867C168.196 45.9036 168.376 45.1882 168.376 44.2402ZM175.82 48C175.747 47.8542 175.688 47.5944 175.643 47.2207C175.055 47.8314 174.353 48.1367 173.537 48.1367C172.808 48.1367 172.209 47.9316 171.739 47.5215C171.274 47.1068 171.042 46.5827 171.042 45.9492C171.042 45.179 171.334 44.582 171.917 44.1582C172.505 43.7298 173.33 43.5156 174.392 43.5156H175.622V42.9346C175.622 42.4925 175.49 42.1416 175.226 41.8818C174.961 41.6175 174.572 41.4854 174.057 41.4854C173.605 41.4854 173.227 41.5993 172.922 41.8271C172.617 42.055 172.464 42.3307 172.464 42.6543H171.192C171.192 42.2852 171.322 41.9297 171.582 41.5879C171.846 41.2415 172.202 40.9681 172.648 40.7676C173.1 40.5671 173.594 40.4668 174.132 40.4668C174.984 40.4668 175.652 40.681 176.135 41.1094C176.618 41.5332 176.868 42.1188 176.887 42.8662V46.2705C176.887 46.9495 176.973 47.4896 177.146 47.8906V48H175.82ZM173.722 47.0361C174.118 47.0361 174.494 46.9336 174.85 46.7285C175.205 46.5234 175.463 46.2568 175.622 45.9287V44.4111H174.631C173.081 44.4111 172.307 44.8646 172.307 45.7715C172.307 46.168 172.439 46.4779 172.703 46.7012C172.967 46.9245 173.307 47.0361 173.722 47.0361ZM181.836 47.1045C182.287 47.1045 182.681 46.9678 183.019 46.6943C183.356 46.4209 183.543 46.0791 183.579 45.6689H184.775C184.753 46.0928 184.607 46.4961 184.338 46.8789C184.069 47.2617 183.709 47.5671 183.258 47.7949C182.811 48.0228 182.337 48.1367 181.836 48.1367C180.829 48.1367 180.027 47.8018 179.43 47.1318C178.837 46.4574 178.541 45.5368 178.541 44.3701V44.1582C178.541 43.4382 178.673 42.7979 178.938 42.2373C179.202 41.6768 179.58 41.2415 180.072 40.9316C180.569 40.6217 181.155 40.4668 181.829 40.4668C182.659 40.4668 183.347 40.7152 183.894 41.2119C184.445 41.7087 184.739 42.3535 184.775 43.1465H183.579C183.543 42.668 183.36 42.276 183.032 41.9707C182.709 41.6608 182.308 41.5059 181.829 41.5059C181.187 41.5059 180.688 41.7383 180.332 42.2031C179.981 42.6634 179.806 43.3311 179.806 44.2061V44.4453C179.806 45.2975 179.981 45.9538 180.332 46.4141C180.683 46.8743 181.184 47.1045 181.836 47.1045ZM187.571 48H186.307V40.6035H187.571V48ZM186.204 38.6416C186.204 38.4365 186.266 38.2633 186.389 38.1221C186.516 37.9808 186.703 37.9102 186.949 37.9102C187.195 37.9102 187.382 37.9808 187.51 38.1221C187.637 38.2633 187.701 38.4365 187.701 38.6416C187.701 38.8467 187.637 39.0176 187.51 39.1543C187.382 39.291 187.195 39.3594 186.949 39.3594C186.703 39.3594 186.516 39.291 186.389 39.1543C186.266 39.0176 186.204 38.8467 186.204 38.6416ZM191.317 38.8125V40.6035H192.698V41.5811H191.317V46.168C191.317 46.4642 191.379 46.6875 191.502 46.8379C191.625 46.9837 191.835 47.0566 192.131 47.0566C192.277 47.0566 192.477 47.0293 192.732 46.9746V48C192.4 48.0911 192.076 48.1367 191.762 48.1367C191.197 48.1367 190.771 47.9658 190.483 47.624C190.196 47.2822 190.053 46.7969 190.053 46.168V41.5811H188.706V40.6035H190.053V38.8125H191.317ZM196.602 46.1475L198.324 40.6035H199.678L196.704 49.1416C196.244 50.3721 195.512 50.9873 194.51 50.9873L194.271 50.9668L193.799 50.8779V49.8525L194.141 49.8799C194.569 49.8799 194.902 49.7933 195.139 49.6201C195.38 49.4469 195.578 49.1302 195.733 48.6699L196.014 47.918L193.375 40.6035H194.756L196.602 46.1475Z" fill="white"/>
<defs>
<radialGradient id="paint0_radial_5433_282542" cx="0" cy="0" r="1" gradientUnits="userSpaceOnUse" gradientTransform="translate(128.335 113.004) scale(71.3526 71.3526)">
<stop stop-color="white" stop-opacity="0.4"/>
<stop offset="1" stop-color="white" stop-opacity="0"/>
</radialGradient>
<clipPath id="clip0_5433_282542">
<rect width="128" height="128" fill="white" transform="translate(64 64)"/>
</clipPath>
</defs>
</svg>
