<svg width="256" height="256" viewBox="0 0 256 256" fill="none" xmlns="http://www.w3.org/2000/svg">
<rect width="256" height="256" fill="#E2E5E5"/>
<g clip-path="url(#clip0_5411_314706)">
<path d="M192 64H64V192H192V64Z" fill="#007BC1"/>
<rect width="128" height="30" transform="translate(64.0225 162)" fill="white"/>
<path d="M118.294 172.374L119.622 177.166H116.865L118.294 172.374ZM115.869 180.523L114.658 184.497H121.746L120.602 180.523H115.869ZM134.366 169.5H120.761V173.77H125.054V184.499H131.961C131.534 184.235 128.604 181.91 128.604 177.568C128.604 173.957 130.794 170.426 134.367 169.501M136.726 180.659C138.331 180.659 139.62 179.327 139.62 177.643C139.62 175.959 138.413 174.456 136.784 174.456C135.156 174.456 133.867 175.971 133.867 177.643C133.867 179.315 135.072 180.659 136.727 180.659M150.996 178.929L148.234 169.501H141.164V184.5H145.58V175.097H145.611L148.349 184.5H155.479V169.501H151.025V178.929H150.997H150.996ZM109.057 184.5L110.332 180.293H105.601V179.023H110.72L111.935 174.991H105.601V173.77H112.288L113.579 169.5H100.5V184.499H109.058L109.057 184.5Z" fill="#007BC1"/>
<path style="mix-blend-mode:overlay" d="M128.058 183.99C167.371 183.99 199.24 152.121 199.24 112.808C199.24 73.4945 167.371 41.625 128.058 41.625C88.7445 41.625 56.875 73.4945 56.875 112.808C56.875 152.121 88.7445 183.99 128.058 183.99Z" fill="url(#paint0_radial_5411_314706)"/>
</g>
<g opacity="0.9">
<path d="M120.917 73.7915C120.917 79.6707 116.171 84.4165 110.292 84.4165C108.344 84.4165 106.75 86.0103 106.75 87.9582H99.6667C99.6667 82.079 104.413 77.3332 110.292 77.3332C112.24 77.3332 113.833 75.7394 113.833 73.7915H120.917ZM128 80.8748L106.75 97.0957V91.4998H99.6667V102.514L89.0417 110.625L93.3272 116.256L99.6667 111.404V144.625H156.333V111.404L162.673 116.221L166.958 110.625L128 80.8748ZM134.871 95.0415H121.094L128 89.7998L134.871 95.0415ZM111.85 102.125H144.15L149.25 106.021V109.208H106.75V106.021L111.85 102.125ZM149.25 116.292V123.375H106.75V116.292H149.25ZM106.75 137.542V130.458H149.25V137.542H106.75Z" fill="white"/>
<mask id="mask0_5411_314706" style="mask-type:alpha" maskUnits="userSpaceOnUse" x="89" y="73" width="78" height="72">
<path d="M120.917 73.7915C120.917 79.6707 116.171 84.4165 110.292 84.4165C108.344 84.4165 106.75 86.0103 106.75 87.9582H99.6667C99.6667 82.079 104.413 77.3332 110.292 77.3332C112.24 77.3332 113.833 75.7394 113.833 73.7915H120.917ZM128 80.8748L106.75 97.0957V91.4998H99.6667V102.514L89.0417 110.625L93.3272 116.256L99.6667 111.404V144.625H156.333V111.404L162.673 116.221L166.958 110.625L128 80.8748ZM134.871 95.0415H121.094L128 89.7998L134.871 95.0415ZM111.85 102.125H144.15L149.25 106.021V109.208H106.75V106.021L111.85 102.125ZM149.25 116.292V123.375H106.75V116.292H149.25ZM106.75 137.542V130.458H149.25V137.542H106.75Z" fill="white"/>
</mask>
<g mask="url(#mask0_5411_314706)">
<path d="M106.75 106.062L121.125 95.0625H134.875L149.25 106V131.75H106.75V106.062Z" fill="#B3D7EC"/>
<path d="M110.375 94.3125L89 110.625L102 72.375H129.938L110.375 94.3125Z" fill="#B3D7EC"/>
</g>
</g>
<rect x="85.5" y="70.5" width="85" height="85" stroke="#FF1844"/>
<rect width="28" height="18" transform="translate(114 129)" fill="#FF1844"/>
<path d="M121.79 133.04V134.113H121.558C120.573 134.132 119.789 134.423 119.206 134.988C118.623 135.553 118.285 136.349 118.194 137.374C118.718 136.772 119.434 136.472 120.341 136.472C121.207 136.472 121.897 136.777 122.412 137.388C122.932 137.998 123.191 138.787 123.191 139.753C123.191 140.778 122.911 141.599 122.351 142.214C121.795 142.829 121.047 143.137 120.108 143.137C119.156 143.137 118.383 142.772 117.791 142.043C117.199 141.309 116.902 140.366 116.902 139.213V138.728C116.902 136.896 117.292 135.496 118.071 134.53C118.855 133.56 120.02 133.063 121.564 133.04H121.79ZM120.129 137.524C119.696 137.524 119.297 137.654 118.933 137.914C118.568 138.174 118.315 138.5 118.174 138.892V139.356C118.174 140.177 118.358 140.838 118.728 141.339C119.097 141.84 119.557 142.091 120.108 142.091C120.678 142.091 121.125 141.881 121.448 141.462C121.776 141.043 121.94 140.493 121.94 139.814C121.94 139.131 121.774 138.579 121.441 138.16C121.113 137.736 120.676 137.524 120.129 137.524ZM130.725 135.645C130.725 136.141 130.592 136.583 130.328 136.971C130.068 137.358 129.715 137.661 129.269 137.88C129.788 138.103 130.198 138.429 130.499 138.857C130.804 139.286 130.957 139.771 130.957 140.313C130.957 141.175 130.665 141.861 130.082 142.371C129.503 142.882 128.74 143.137 127.792 143.137C126.835 143.137 126.067 142.882 125.488 142.371C124.914 141.856 124.627 141.17 124.627 140.313C124.627 139.776 124.773 139.29 125.064 138.857C125.361 138.424 125.769 138.096 126.288 137.873C125.846 137.654 125.497 137.351 125.242 136.964C124.987 136.576 124.859 136.137 124.859 135.645C124.859 134.806 125.128 134.141 125.666 133.648C126.204 133.156 126.912 132.91 127.792 132.91C128.667 132.91 129.373 133.156 129.911 133.648C130.453 134.141 130.725 134.806 130.725 135.645ZM129.692 140.286C129.692 139.73 129.515 139.277 129.159 138.926C128.808 138.575 128.348 138.399 127.778 138.399C127.209 138.399 126.751 138.573 126.404 138.919C126.062 139.265 125.892 139.721 125.892 140.286C125.892 140.851 126.058 141.296 126.391 141.619C126.728 141.943 127.195 142.104 127.792 142.104C128.384 142.104 128.849 141.943 129.187 141.619C129.524 141.291 129.692 140.847 129.692 140.286ZM127.792 133.949C127.295 133.949 126.892 134.104 126.582 134.414C126.277 134.719 126.124 135.136 126.124 135.665C126.124 136.171 126.274 136.581 126.575 136.896C126.881 137.205 127.286 137.36 127.792 137.36C128.298 137.36 128.701 137.205 129.002 136.896C129.307 136.581 129.46 136.171 129.46 135.665C129.46 135.159 129.303 134.747 128.988 134.428C128.674 134.109 128.275 133.949 127.792 133.949ZM138.791 138.755C138.791 140.236 138.538 141.337 138.032 142.057C137.526 142.777 136.736 143.137 135.66 143.137C134.598 143.137 133.812 142.786 133.302 142.084C132.791 141.378 132.527 140.325 132.509 138.926V137.237C132.509 135.774 132.762 134.688 133.268 133.977C133.773 133.266 134.566 132.91 135.646 132.91C136.717 132.91 137.506 133.254 138.012 133.942C138.518 134.626 138.777 135.683 138.791 137.114V138.755ZM137.526 137.025C137.526 135.954 137.376 135.175 137.075 134.688C136.774 134.195 136.298 133.949 135.646 133.949C134.999 133.949 134.528 134.193 134.231 134.681C133.935 135.168 133.783 135.918 133.773 136.93V138.953C133.773 140.029 133.928 140.824 134.238 141.339C134.553 141.849 135.027 142.104 135.66 142.104C136.285 142.104 136.747 141.863 137.048 141.38C137.353 140.897 137.513 140.136 137.526 139.097V137.025Z" fill="white"/>
<line x1="155" y1="169.5" x2="179" y2="169.5" stroke="#FF1844" stroke-dasharray="1 1"/>
<line x1="155" y1="184.5" x2="179" y2="184.5" stroke="#FF1844" stroke-dasharray="1 1"/>
<line x1="167.5" y1="169" x2="167.5" y2="185" stroke="#FF1844"/>
<rect width="28" height="18" transform="translate(154 189)" fill="#FF1844"/>
<path d="M160.983 203H159.712V194.571L157.162 195.508V194.359L160.785 192.999H160.983V203ZM171.21 203H164.688V202.091L168.134 198.263C168.644 197.684 168.995 197.215 169.187 196.854C169.382 196.49 169.48 196.114 169.48 195.727C169.48 195.207 169.323 194.781 169.009 194.448C168.694 194.116 168.275 193.949 167.751 193.949C167.122 193.949 166.632 194.129 166.281 194.489C165.935 194.845 165.762 195.341 165.762 195.979H164.497C164.497 195.063 164.791 194.323 165.379 193.758C165.971 193.193 166.762 192.91 167.751 192.91C168.676 192.91 169.408 193.154 169.945 193.642C170.483 194.125 170.752 194.77 170.752 195.576C170.752 196.556 170.128 197.723 168.879 199.076L166.213 201.968H171.21V203ZM178.791 198.755C178.791 200.236 178.538 201.337 178.032 202.057C177.526 202.777 176.736 203.137 175.66 203.137C174.598 203.137 173.812 202.786 173.302 202.084C172.791 201.378 172.527 200.325 172.509 198.926V197.237C172.509 195.774 172.762 194.688 173.268 193.977C173.773 193.266 174.566 192.91 175.646 192.91C176.717 192.91 177.506 193.254 178.012 193.942C178.518 194.626 178.777 195.683 178.791 197.114V198.755ZM177.526 197.025C177.526 195.954 177.376 195.175 177.075 194.688C176.774 194.195 176.298 193.949 175.646 193.949C174.999 193.949 174.528 194.193 174.231 194.681C173.935 195.168 173.783 195.918 173.773 196.93V198.953C173.773 200.029 173.928 200.824 174.238 201.339C174.553 201.849 175.027 202.104 175.66 202.104C176.285 202.104 176.747 201.863 177.048 201.38C177.353 200.897 177.513 200.136 177.526 199.097V197.025Z" fill="white"/>
<rect width="36" height="18" transform="translate(110 26)" fill="#2A7AFF"/>
<path d="M116.983 40H115.712V31.5713L113.162 32.5078V31.3594L116.785 29.999H116.983V40ZM126.93 35.7549C126.93 37.236 126.677 38.3366 126.171 39.0566C125.665 39.7767 124.874 40.1367 123.799 40.1367C122.737 40.1367 121.951 39.7858 121.44 39.084C120.93 38.3776 120.666 37.3249 120.647 35.9258V34.2373C120.647 32.7744 120.9 31.6875 121.406 30.9766C121.912 30.2656 122.705 29.9102 123.785 29.9102C124.856 29.9102 125.645 30.2542 126.15 30.9424C126.656 31.626 126.916 32.6833 126.93 34.1143V35.7549ZM125.665 34.0254C125.665 32.9544 125.515 32.1751 125.214 31.6875C124.913 31.1953 124.437 30.9492 123.785 30.9492C123.138 30.9492 122.666 31.193 122.37 31.6807C122.074 32.1683 121.921 32.918 121.912 33.9297V35.9531C121.912 37.0286 122.067 37.8239 122.377 38.3389C122.691 38.8493 123.165 39.1045 123.799 39.1045C124.423 39.1045 124.886 38.863 125.187 38.3799C125.492 37.8968 125.651 37.1357 125.665 36.0967V34.0254ZM135.071 40H128.55V39.0908L131.995 35.2627C132.506 34.6839 132.856 34.2145 133.048 33.8545C133.244 33.4899 133.342 33.1139 133.342 32.7266C133.342 32.207 133.185 31.7809 132.87 31.4482C132.556 31.1156 132.136 30.9492 131.612 30.9492C130.983 30.9492 130.493 31.1292 130.143 31.4893C129.796 31.8447 129.623 32.3415 129.623 32.9795H128.358C128.358 32.0635 128.652 31.3229 129.24 30.7578C129.833 30.1927 130.623 29.9102 131.612 29.9102C132.537 29.9102 133.269 30.154 133.807 30.6416C134.344 31.1247 134.613 31.7695 134.613 32.5762C134.613 33.556 133.989 34.7227 132.74 36.0762L130.074 38.9678H135.071V40ZM141.75 36.6572H143.131V37.6895H141.75V40H140.479V37.6895H135.946V36.9443L140.403 30.0469H141.75V36.6572ZM137.382 36.6572H140.479V31.7764L140.328 32.0498L137.382 36.6572Z" fill="white"/>
<rect width="28" height="18" transform="translate(16 109)" fill="#2A7AFF"/>
<path d="M25.2529 113.758L21.1309 123H19.8047L23.9131 114.086H18.5264V113.047H25.2529V113.758ZM32.7246 115.645C32.7246 116.141 32.5924 116.583 32.3281 116.971C32.0684 117.358 31.7152 117.661 31.2686 117.88C31.7881 118.103 32.1982 118.429 32.499 118.857C32.8044 119.286 32.957 119.771 32.957 120.313C32.957 121.175 32.6654 121.861 32.082 122.371C31.5033 122.882 30.7399 123.137 29.792 123.137C28.835 123.137 28.0671 122.882 27.4883 122.371C26.9141 121.856 26.627 121.17 26.627 120.313C26.627 119.776 26.7728 119.29 27.0645 118.857C27.3607 118.424 27.7686 118.096 28.2881 117.873C27.846 117.654 27.4974 117.351 27.2422 116.964C26.987 116.576 26.8594 116.137 26.8594 115.645C26.8594 114.806 27.1283 114.141 27.666 113.648C28.2038 113.156 28.9124 112.91 29.792 112.91C30.667 112.91 31.3734 113.156 31.9111 113.648C32.4535 114.141 32.7246 114.806 32.7246 115.645ZM31.6924 120.286C31.6924 119.73 31.5146 119.277 31.1592 118.926C30.8083 118.575 30.348 118.399 29.7783 118.399C29.2087 118.399 28.7507 118.573 28.4043 118.919C28.0625 119.265 27.8916 119.721 27.8916 120.286C27.8916 120.851 28.0579 121.296 28.3906 121.619C28.7279 121.943 29.195 122.104 29.792 122.104C30.3844 122.104 30.8493 121.943 31.1865 121.619C31.5238 121.291 31.6924 120.847 31.6924 120.286ZM29.792 113.949C29.2952 113.949 28.8919 114.104 28.582 114.414C28.2767 114.719 28.124 115.136 28.124 115.665C28.124 116.171 28.2744 116.581 28.5752 116.896C28.8805 117.205 29.2861 117.36 29.792 117.36C30.2979 117.36 30.7012 117.205 31.002 116.896C31.3073 116.581 31.46 116.171 31.46 115.665C31.46 115.159 31.3027 114.747 30.9883 114.428C30.6738 114.109 30.2751 113.949 29.792 113.949ZM39.8887 119.657H41.2695V120.689H39.8887V123H38.6172V120.689H34.085V119.944L38.542 113.047H39.8887V119.657ZM35.5205 119.657H38.6172V114.776L38.4668 115.05L35.5205 119.657Z" fill="white"/>
<rect width="28" height="18" transform="translate(16 168)" fill="#2A7AFF"/>
<path d="M25.3486 182H18.8271V181.091L22.2725 177.263C22.7829 176.684 23.1338 176.215 23.3252 175.854C23.5212 175.49 23.6191 175.114 23.6191 174.727C23.6191 174.207 23.4619 173.781 23.1475 173.448C22.833 173.116 22.4137 172.949 21.8896 172.949C21.2607 172.949 20.7708 173.129 20.4199 173.489C20.0736 173.845 19.9004 174.341 19.9004 174.979H18.6357C18.6357 174.063 18.9297 173.323 19.5176 172.758C20.11 172.193 20.9007 171.91 21.8896 171.91C22.8148 171.91 23.5462 172.154 24.084 172.642C24.6217 173.125 24.8906 173.77 24.8906 174.576C24.8906 175.556 24.2663 176.723 23.0176 178.076L20.3516 180.968H25.3486V182ZM32.0273 178.657H33.4082V179.689H32.0273V182H30.7559V179.689H26.2236V178.944L30.6807 172.047H32.0273V178.657ZM27.6592 178.657H30.7559V173.776L30.6055 174.05L27.6592 178.657ZM40.791 177.755C40.791 179.236 40.5381 180.337 40.0322 181.057C39.5264 181.777 38.7357 182.137 37.6602 182.137C36.5983 182.137 35.8122 181.786 35.3018 181.084C34.7913 180.378 34.527 179.325 34.5088 177.926V176.237C34.5088 174.774 34.7617 173.688 35.2676 172.977C35.7734 172.266 36.5664 171.91 37.6465 171.91C38.7174 171.91 39.5059 172.254 40.0117 172.942C40.5176 173.626 40.7773 174.683 40.791 176.114V177.755ZM39.5264 176.025C39.5264 174.954 39.376 174.175 39.0752 173.688C38.7744 173.195 38.2982 172.949 37.6465 172.949C36.9993 172.949 36.5277 173.193 36.2314 173.681C35.9352 174.168 35.7826 174.918 35.7734 175.93V177.953C35.7734 179.029 35.9284 179.824 36.2383 180.339C36.5527 180.849 37.0267 181.104 37.6602 181.104C38.2845 181.104 38.7471 180.863 39.0479 180.38C39.3532 179.897 39.5127 179.136 39.5264 178.097V176.025Z" fill="white"/>
<line x1="192" y1="64.5" x2="216" y2="64.5" stroke="#2A7AFF" stroke-dasharray="1 1"/>
<line x1="192" y1="191.5" x2="216" y2="191.5" stroke="#2A7AFF" stroke-dasharray="1 1"/>
<line x1="204.5" y1="64" x2="204.5" y2="192" stroke="#2A7AFF"/>
<line x1="64.5" y1="64" x2="64.5" y2="40" stroke="#2A7AFF" stroke-dasharray="1 1"/>
<line x1="191.5" y1="64" x2="191.5" y2="40" stroke="#2A7AFF" stroke-dasharray="1 1"/>
<line x1="64" y1="51.5" x2="192" y2="51.5" stroke="#2A7AFF"/>
<line x1="40" y1="64.5" x2="64" y2="64.5" stroke="#2A7AFF" stroke-dasharray="1 1"/>
<line x1="40" y1="161.5" x2="64" y2="161.5" stroke="#2A7AFF" stroke-dasharray="1 1"/>
<line x1="52.5" y1="64" x2="52.5" y2="162" stroke="#2A7AFF"/>
<line x1="40" y1="161.5" x2="64" y2="161.5" stroke="#2A7AFF" stroke-dasharray="1 1"/>
<line x1="40" y1="191.5" x2="64" y2="191.5" stroke="#2A7AFF" stroke-dasharray="1 1"/>
<line x1="52.5" y1="161" x2="52.5" y2="192" stroke="#2A7AFF"/>
<rect width="36" height="18" transform="translate(212 113)" fill="#2A7AFF"/>
<path d="M218.983 127H217.712V118.571L215.162 119.508V118.359L218.785 116.999H218.983V127ZM228.93 122.755C228.93 124.236 228.677 125.337 228.171 126.057C227.665 126.777 226.874 127.137 225.799 127.137C224.737 127.137 223.951 126.786 223.44 126.084C222.93 125.378 222.666 124.325 222.647 122.926V121.237C222.647 119.774 222.9 118.688 223.406 117.977C223.912 117.266 224.705 116.91 225.785 116.91C226.856 116.91 227.645 117.254 228.15 117.942C228.656 118.626 228.916 119.683 228.93 121.114V122.755ZM227.665 121.025C227.665 119.954 227.515 119.175 227.214 118.688C226.913 118.195 226.437 117.949 225.785 117.949C225.138 117.949 224.666 118.193 224.37 118.681C224.074 119.168 223.921 119.918 223.912 120.93V122.953C223.912 124.029 224.067 124.824 224.377 125.339C224.691 125.849 225.165 126.104 225.799 126.104C226.423 126.104 226.886 125.863 227.187 125.38C227.492 124.897 227.651 124.136 227.665 123.097V121.025ZM237.071 127H230.55V126.091L233.995 122.263C234.506 121.684 234.856 121.215 235.048 120.854C235.244 120.49 235.342 120.114 235.342 119.727C235.342 119.207 235.185 118.781 234.87 118.448C234.556 118.116 234.136 117.949 233.612 117.949C232.983 117.949 232.493 118.129 232.143 118.489C231.796 118.845 231.623 119.341 231.623 119.979H230.358C230.358 119.063 230.652 118.323 231.24 117.758C231.833 117.193 232.623 116.91 233.612 116.91C234.537 116.91 235.269 117.154 235.807 117.642C236.344 118.125 236.613 118.77 236.613 119.576C236.613 120.556 235.989 121.723 234.74 123.076L232.074 125.968H237.071V127ZM243.75 123.657H245.131V124.689H243.75V127H242.479V124.689H237.946V123.944L242.403 117.047H243.75V123.657ZM239.382 123.657H242.479V118.776L242.328 119.05L239.382 123.657Z" fill="white"/>
<defs>
<radialGradient id="paint0_radial_5411_314706" cx="0" cy="0" r="1" gradientUnits="userSpaceOnUse" gradientTransform="translate(128.335 113.004) scale(71.3526 71.3526)">
<stop stop-color="white" stop-opacity="0.4"/>
<stop offset="1" stop-color="white" stop-opacity="0"/>
</radialGradient>
<clipPath id="clip0_5411_314706">
<rect width="128" height="128" fill="white" transform="translate(64 64)"/>
</clipPath>
</defs>
</svg>
