<svg width="965" height="994" viewBox="0 0 965 994" fill="none" xmlns="http://www.w3.org/2000/svg">
<g clip-path="url(#clip0)">
<path d="M801 814.5L821 823L836 840L861 836.5L886.5 841.5L906 822L861 745.5L869.5 739.5L917.5 802.5L925 796L920.5 786.5L917 772.5L925 770.5L932.5 785.5V794L848.5 942L715 953L678 931.5L673 907.5L683 897L691.5 915L697 935H722.5L706.5 865.5V850L715 840L720.5 859.5L729.5 891L742 936.5L761.5 885.5L782 857L779 840L791.5 834.5V817L779 803L767.5 781L786 772L797 790.5L801 814.5Z" fill="#F0CB2F"/>
<path fill-rule="evenodd" clip-rule="evenodd" d="M965 822.244C858.902 927.358 683.908 996 486 996C283.675 996 105.298 924.259 0 815.152L0 996L486 996L965 996V822.244Z" fill="#1D2529"/>
<path fill-rule="evenodd" clip-rule="evenodd" d="M776.458 811.562L757.283 783.547L795.415 762.4L807.08 797.019L802.449 799.627L814.063 817.378L825.101 811.001L842.873 831.061L883.431 812.975L940.846 875.543L870.973 938.582L753.165 976.791L733.788 881.308L770.408 864.954L766.61 839.131L787.276 830.679L780.782 810.423L776.458 811.562ZM861.718 931.54C863.35 923.73 864.7 915.914 861.59 908.527C852.16 886.131 836.232 875.558 826.994 879.448C817.756 883.338 815.223 905.979 827.341 927.043C831.44 934.168 837.752 937.245 843.469 940.032L843.469 940.032L843.469 940.032L843.469 940.032L843.469 940.032L843.47 940.032C844.619 940.592 845.744 941.141 846.823 941.708C846.823 941.708 848.965 944.562 854.517 942.371C860.509 940.008 861.718 931.54 861.718 931.54ZM788.927 788.96C789.669 790.384 790.169 791.822 790.426 793.15L783.479 796.766C782.539 795.793 781.649 794.558 780.907 793.134C778.658 788.813 778.631 784.376 780.846 783.224C783.06 782.071 786.679 784.639 788.927 788.96ZM797.204 848.712C796.946 847.383 796.446 845.946 795.705 844.521C793.456 840.2 789.838 837.632 787.623 838.785C785.409 839.938 785.436 844.374 787.685 848.695C788.426 850.12 789.317 851.354 790.257 852.327L797.204 848.712ZM818.35 833.929C819.092 835.354 819.592 836.792 819.849 838.12L812.902 841.736C811.962 840.762 811.072 839.528 810.33 838.103C808.082 833.783 808.054 829.346 810.269 828.193C812.484 827.041 816.102 829.609 818.35 833.929ZM772.386 931.26L761.78 898.907L774.571 893.918L785.075 926.761L772.386 931.26ZM865.415 851.978L872.189 863.628L884.655 855.999L877.885 844.154L865.415 851.978Z" fill="#1D2529"/>
<path d="M841.592 711.646C847.846 727.93 849.91 738.91 850.161 742.364L847.51 749.424L876.094 728.131L868.571 728.65C865.333 727.421 855.404 722.3 841.592 711.646Z" fill="#1D2529"/>
<path fill-rule="evenodd" clip-rule="evenodd" d="M867.319 765.296L853.316 744.086L867.522 731.168L885.486 753.04L892.74 747.156L897.795 753.777L890.852 759.768L925.022 801.512L944.508 793.547L985.643 838.381L912.159 896.896L883.688 836.521L900.751 819.349L871.534 772.327L864.396 776.855L860.385 770.243L867.319 765.296ZM878.985 756.145C878.565 754.859 877.892 753.494 876.98 752.172C874.216 748.161 870.308 746.059 868.253 747.476C866.197 748.893 866.772 753.293 869.536 757.303C870.448 758.625 871.484 759.74 872.536 760.59L878.985 756.145ZM913.455 804.478C914.367 805.801 915.041 807.165 915.46 808.452L909.012 812.897C907.959 812.047 906.923 810.932 906.011 809.609C903.247 805.599 902.673 801.2 904.728 799.783C906.784 798.366 910.691 800.468 913.455 804.478Z" fill="#1D2529"/>
<path d="M701.047 812.489C699.903 827.229 697.196 836.549 695.986 839.367L690.667 844.217L725.229 835.503L718.246 833.755C715.844 831.848 709.042 824.925 701.047 812.489Z" fill="#1D2529"/>
<path fill-rule="evenodd" clip-rule="evenodd" d="M702.882 866.468L698.075 841.512L716.148 835.024L724.359 862.109L733.314 859.454L735.446 867.507L726.738 870.38L742.304 922.032L763.354 922.141L784.17 979.315L693.872 1005.21L690.71 938.53L713.051 929.207L704.082 874.578L695.754 876.025L694.582 868.381L702.882 866.468ZM717.164 862.486C717.27 861.138 717.17 859.619 716.835 858.048C715.818 853.285 713.015 849.846 710.573 850.367C708.132 850.888 706.976 855.172 707.993 859.935C708.328 861.506 708.858 862.933 709.505 864.121L717.164 862.486ZM730.483 920.339C730.819 921.91 730.918 923.428 730.812 924.777L723.153 926.412C722.506 925.224 721.977 923.797 721.641 922.226C720.625 917.463 721.78 913.179 724.221 912.658C726.663 912.137 729.467 915.575 730.483 920.339Z" fill="#1D2529"/>
<path d="M747.245 717.561C754.452 750.51 755.264 772.037 754.769 778.682L747.81 791.247L807.519 759.952L793.226 758.525C787.48 755.152 770.24 742.235 747.245 717.561Z" fill="#1D2529"/>
<path fill-rule="evenodd" clip-rule="evenodd" d="M666.424 899.575C668.202 895.916 672.566 883.541 675.794 863.308C683.562 882.267 690.641 893.316 693.209 896.471L701.161 900.372L691.197 901.526L701.981 929.029L721.817 935.302L725.247 964.907L678.362 947.123L667.77 904.241L659.574 905.19L666.424 899.575ZM689.591 918.847C689.735 917.55 689.628 916.119 689.229 914.67C689.168 914.446 689.1 914.225 689.027 914.009L684.442 915.387L685.793 919.892L689.591 918.847ZM684.425 920.268L680.124 921.45C679.337 920.408 678.698 919.123 678.3 917.675C678.262 917.538 678.227 917.402 678.195 917.266L683.083 915.796L684.425 920.268ZM684.035 914.028L688.491 912.688C687.074 909.735 684.602 907.873 682.255 908.096L684.035 914.028ZM680.889 908.481L682.676 914.437L677.948 915.858C677.57 912.511 678.729 909.536 680.889 908.481Z" fill="#1D2529"/>
<path fill-rule="evenodd" clip-rule="evenodd" d="M925.63 766.064C923.48 765.121 916.935 761.315 907.951 753.63C911.626 764.866 912.647 772.369 912.698 774.716L910.662 779.403L915.473 776.185L921.017 792.304L914.646 802.478L924.208 816.771L938.163 791.424L926.783 768.618L930.74 765.971L925.63 766.064ZM922.655 783.197C922.107 782.68 921.619 782.011 921.252 781.226C921.195 781.104 921.142 780.982 921.094 780.859L923.624 779.751L924.715 782.235L922.655 783.197ZM925.457 781.889L927.789 780.8C927.745 780.048 927.545 779.245 927.179 778.459C927.144 778.385 927.109 778.312 927.072 778.241L924.374 779.422L925.457 781.889ZM923.295 779.001L920.835 780.078C920.354 778.251 920.744 776.508 921.859 775.729L923.295 779.001ZM922.603 775.387L924.045 778.672L926.654 777.53C925.569 775.917 923.947 775.043 922.603 775.387Z" fill="#1D2529"/>
<g clip-path="url(#clip1)">
<path d="M936.023 709.393L935.823 709.545L935.978 709.855C936.309 710.531 936.368 711.704 936.155 713.287C936.054 714.025 935.509 716.322 935.245 717.124C934.429 719.595 933.469 721.401 932.73 721.843C932.517 721.971 932.467 721.985 932.307 721.947C932.14 721.907 932.074 721.84 930.829 720.459C928.831 718.236 927.216 716.547 926.593 716.018L926.389 715.845L926.441 716.029C926.47 716.129 926.669 716.805 926.884 717.535C927.425 719.37 927.728 720.412 927.723 720.431C927.721 720.437 927.581 720.494 927.405 720.552C926.893 720.73 926.102 721.092 925.663 721.355C924.886 721.82 924.237 722.473 923.552 723.479C923.374 723.737 923.21 723.974 923.182 724.007C923.141 724.053 922.676 723.806 921.094 722.902L919.058 721.743L919.591 722.659C920.129 723.582 920.883 724.752 922.008 726.392C922.341 726.885 922.845 727.619 923.12 728.018C923.699 728.869 923.717 728.917 923.513 729.211C923.402 729.369 923.325 729.425 922.925 729.639C921.194 730.574 916.528 731.052 913.519 730.605C912.384 730.438 911.356 730.071 910.971 729.701C910.879 729.611 910.798 729.536 910.789 729.53C910.783 729.529 910.547 729.735 910.267 729.989C908.518 731.59 907.176 733.598 906.276 735.963C905.995 736.701 905.543 738.502 905.447 739.274C905.343 740.131 905.321 741.003 905.393 741.792C905.465 742.635 905.566 743.128 905.809 743.868C905.961 744.325 906.04 744.492 906.361 745.036C906.565 745.385 906.803 745.747 906.883 745.845L907.031 746.013L907.12 745.553C907.322 744.534 907.941 743.594 908.898 742.838C909.353 742.479 910.243 741.999 910.766 741.831C911.534 741.58 912.46 741.556 913.722 741.75L914.445 741.864L914.592 741.229C914.818 740.223 915.117 739.603 915.629 739.066C915.95 738.728 916.838 738.185 917.325 738.028C918.277 737.714 919.373 737.621 920.961 737.716C921.223 737.731 921.452 737.733 921.468 737.724C921.481 737.711 921.506 737.497 921.516 737.25C921.586 735.553 922.425 734.036 923.726 733.256C924.34 732.888 924.837 732.783 925.578 732.865C926.15 732.93 926.744 733.138 928.122 733.745C929.113 734.182 929.655 734.373 930.187 734.468C931.657 734.735 932.843 734.556 933.935 733.902C935.065 733.224 935.806 732.135 936.102 730.717C936.299 729.778 936.276 728.857 936.019 727.497C935.686 725.715 935.65 725.119 935.831 724.355C936.027 723.519 936.392 723.036 937.263 722.471C937.685 722.197 937.855 722.111 938.217 721.985C939.123 721.673 940.143 721.62 941.093 721.84C941.23 721.876 941.358 721.885 941.372 721.866C941.387 721.846 941.472 721.425 941.564 720.935C942.004 718.56 942.734 717.232 944.012 716.465C944.711 716.046 945.362 715.908 946.48 715.931C946.757 715.936 946.984 715.919 946.99 715.893C946.994 715.864 947.012 715.612 947.032 715.337C947.102 714.274 947.31 713.291 947.59 712.693C947.86 712.112 948.453 711.376 949.1 710.816C949.499 710.469 950.504 709.899 950.91 709.784C951.391 709.652 951.835 709.6 952.271 709.623C952.509 709.632 952.687 709.621 952.671 709.594C952.654 709.566 952.52 709.404 952.373 709.23C951.187 707.841 949.333 706.933 947.041 706.616C944.223 706.222 941.207 706.687 938.503 707.938C937.928 708.202 936.445 709.075 936.023 709.393Z" fill="#1D2529"/>
</g>
<g clip-path="url(#clip2)">
<path d="M849.308 790.565L849.242 790.584L849.251 790.679C849.269 790.885 849.168 791.191 848.957 791.576C848.858 791.755 848.491 792.29 848.344 792.469C847.891 793.022 847.466 793.39 847.233 793.43C847.165 793.442 847.151 793.44 847.114 793.415C847.075 793.388 847.065 793.364 846.882 792.887C846.59 792.12 846.343 791.527 846.236 791.33L846.201 791.265L846.196 791.318C846.193 791.346 846.178 791.539 846.161 791.748C846.118 792.271 846.092 792.568 846.089 792.573C846.088 792.574 846.047 792.575 845.996 792.572C845.847 792.567 845.608 792.582 845.47 792.606C845.225 792.648 844.994 792.751 844.719 792.941C844.647 792.99 844.582 793.034 844.572 793.04C844.556 793.048 844.462 792.938 844.146 792.55L843.739 792.052L843.785 792.339C843.831 792.629 843.909 793.003 844.035 793.535C844.071 793.694 844.128 793.932 844.159 794.062C844.223 794.337 844.223 794.351 844.142 794.406C844.098 794.436 844.072 794.443 843.949 794.458C843.412 794.526 842.169 794.187 841.442 793.775C841.168 793.62 840.941 793.424 840.879 793.291C840.864 793.259 840.851 793.232 840.849 793.23C840.848 793.228 840.767 793.258 840.67 793.295C840.063 793.533 839.521 793.914 839.056 794.432C838.911 794.593 838.617 795.01 838.516 795.198C838.404 795.407 838.313 795.629 838.253 795.838C838.188 796.061 838.165 796.198 838.154 796.411C838.148 796.543 838.152 796.594 838.18 796.765C838.198 796.875 838.223 796.991 838.234 797.024L838.255 797.082L838.324 796.973C838.476 796.732 838.728 796.552 839.048 796.453C839.2 796.406 839.476 796.371 839.626 796.38C839.848 796.391 840.087 796.477 840.392 796.651L840.566 796.752L840.666 796.604C840.824 796.368 840.962 796.239 841.146 796.152C841.262 796.097 841.543 796.046 841.683 796.054C841.959 796.068 842.248 796.152 842.646 796.334C842.712 796.363 842.77 796.387 842.775 796.386C842.78 796.384 842.807 796.331 842.834 796.269C843.02 795.841 843.385 795.535 843.796 795.464C843.99 795.431 844.127 795.453 844.309 795.547C844.449 795.62 844.581 795.732 844.874 796.024C845.085 796.235 845.205 796.337 845.332 796.414C845.682 796.628 846.004 796.699 846.348 796.64C846.705 796.578 847.003 796.372 847.219 796.038C847.362 795.817 847.447 795.578 847.516 795.204C847.607 794.715 847.657 794.558 847.779 794.381C847.912 794.186 848.053 794.098 848.332 794.039C848.467 794.011 848.519 794.006 848.625 794.009C848.888 794.019 849.154 794.106 849.376 794.257C849.408 794.279 849.44 794.294 849.445 794.291C849.451 794.287 849.514 794.188 849.586 794.071C849.934 793.506 850.253 793.238 850.656 793.168C850.877 793.13 851.057 793.159 851.341 793.275C851.412 793.304 851.472 793.322 851.476 793.316C851.48 793.309 851.509 793.246 851.542 793.177C851.665 792.912 851.815 792.681 851.946 792.555C852.073 792.433 852.298 792.303 852.519 792.223C852.656 792.174 852.969 792.127 853.085 792.138C853.221 792.152 853.34 792.183 853.45 792.232C853.51 792.257 853.556 792.272 853.555 792.263C853.553 792.255 853.535 792.2 853.515 792.141C853.348 791.667 852.963 791.251 852.407 790.943C851.723 790.564 850.905 790.385 850.088 790.437C849.914 790.448 849.448 790.525 849.308 790.565Z" fill="#1D2529"/>
</g>
<g clip-path="url(#clip3)">
<path d="M765.139 809.918C764.044 809.994 762.953 810.317 762.061 810.833C760.537 811.711 759.639 812.744 758.188 815.278C756.608 818.044 756.283 818.543 755.452 819.438C755.131 819.785 754.419 820.411 754.051 820.671C753.686 820.931 753.013 821.289 752.906 821.282C752.885 821.28 752.826 821.179 752.775 821.054L752.683 820.833L752.731 820.159C752.767 819.679 752.771 819.405 752.749 819.209C752.728 819.058 752.709 818.925 752.7 818.918C752.693 818.91 752.605 818.977 752.509 819.072C752.324 819.24 751.889 819.561 751.655 819.691C751.525 819.766 751.525 819.766 751.256 819.692C750.465 819.48 749.635 819.733 749.062 820.358L748.856 820.587L748.55 820.595C748.376 820.597 748.073 820.57 747.85 820.534C747.633 820.502 747.447 820.479 747.44 820.486C747.406 820.515 747.498 820.813 747.608 821.035C747.675 821.168 747.898 821.475 748.11 821.732C748.46 822.154 748.604 822.393 748.623 822.575C748.629 822.634 748.6 822.646 748.437 822.656C748.042 822.689 746.682 822.518 745.855 822.334C744.367 822.002 743.051 821.487 741.156 820.489C738.916 819.312 738.155 819.011 736.935 818.826C735.406 818.591 733.386 819.053 732.049 819.947C731.136 820.556 730.796 820.929 729.282 822.948C728.448 824.063 728.221 824.388 727.951 824.852C727.731 825.223 727.454 825.791 727.476 825.82C727.486 825.828 727.557 825.801 727.633 825.761C728.094 825.511 728.736 825.304 729.322 825.218C729.616 825.175 729.786 825.173 730.284 825.206C730.823 825.245 730.923 825.262 731.221 825.362C732.375 825.755 733.294 826.612 733.757 827.722C733.898 828.065 734.04 828.533 734.101 828.873L734.129 829.025L734.224 828.951C734.275 828.909 734.499 828.681 734.719 828.45C735.451 827.676 735.903 827.352 736.614 827.101C737.347 826.837 738.02 826.744 738.787 826.795C739.959 826.873 740.791 827.248 741.493 828.014C741.927 828.487 742.227 829.031 742.398 829.65C742.44 829.799 742.483 829.923 742.497 829.924C742.508 829.925 742.588 829.809 742.671 829.665C742.792 829.468 742.908 829.337 743.177 829.098C744.154 828.244 745.304 827.876 746.551 828.018C747.34 828.109 747.814 828.332 748.224 828.804C748.501 829.124 748.679 829.515 748.759 829.992L748.814 830.312L749 830.074C749.376 829.592 749.981 829.154 750.51 828.981C750.624 828.943 750.842 828.889 751.001 828.857L751.282 828.8L751.497 828.918C751.61 828.981 751.841 829.164 752.001 829.32C752.386 829.693 752.569 829.809 752.797 829.825C753.135 829.847 753.421 829.675 753.538 829.378C753.563 829.313 753.617 829.088 753.658 828.882C753.778 828.29 753.825 828.206 754.206 827.957C754.776 827.586 755.412 827.358 755.888 827.358C756.228 827.357 756.395 827.406 756.79 827.62C757.082 827.778 757.288 827.868 757.29 827.837C757.29 827.83 757.23 827.694 757.153 827.54C757.073 827.385 756.979 827.143 756.936 826.998C756.872 826.768 756.867 826.684 756.893 826.287C756.917 825.886 756.932 825.81 757.03 825.591C757.178 825.254 757.35 825.019 757.646 824.737C758.257 824.163 759.096 823.771 760.036 823.629C760.341 823.58 760.504 823.577 760.974 823.609C761.579 823.649 761.757 823.692 762.174 823.894C762.285 823.946 762.373 823.983 762.373 823.976C762.373 823.973 762.329 823.855 762.272 823.723C762.018 823.116 761.941 822.496 762.054 821.89C762.297 820.594 763.389 819.372 764.856 818.765C766.235 818.194 767.493 818.16 768.65 818.668C768.782 818.725 768.9 818.775 768.914 818.776C768.924 818.777 768.886 818.666 768.83 818.527C768.383 817.473 768.298 816.357 768.587 815.404C768.921 814.302 769.834 813.325 770.988 812.836C771.395 812.665 771.957 812.515 772.398 812.462C772.569 812.442 772.72 812.414 772.735 812.404C772.749 812.395 772.491 812.253 772.166 812.089C769.757 810.883 768.744 810.464 767.48 810.154C767.05 810.049 766.843 810.018 766.174 809.963C765.738 809.93 765.271 809.909 765.139 809.918Z" fill="#1D2529"/>
</g>
<g clip-path="url(#clip4)">
<path d="M831.824 784.309C831.516 784.425 831.23 784.611 831.018 784.835C830.656 785.218 830.486 785.591 830.286 786.444C830.068 787.373 830.017 787.544 829.855 787.873C829.792 788 829.641 788.24 829.558 788.347C829.475 788.453 829.313 788.613 829.281 788.62C829.275 788.621 829.249 788.597 829.224 788.566L829.179 788.51L829.135 788.312C829.104 788.171 829.082 788.092 829.059 788.038C829.04 787.996 829.023 787.96 829.02 787.958C829.017 787.957 828.998 787.984 828.978 788.019C828.939 788.083 828.842 788.213 828.786 788.27C828.755 788.303 828.755 788.303 828.671 788.304C828.426 788.311 828.209 788.455 828.098 788.683L828.058 788.767L827.971 788.795C827.921 788.81 827.832 788.829 827.764 788.837C827.699 788.847 827.644 788.856 827.642 788.859C827.635 788.87 827.687 788.948 827.738 789.002C827.768 789.034 827.859 789.104 827.941 789.159C828.078 789.251 828.14 789.307 828.161 789.358C828.168 789.374 828.161 789.38 828.114 789.397C828.004 789.44 827.599 789.507 827.345 789.525C826.889 789.557 826.467 789.522 825.837 789.397C825.093 789.25 824.849 789.229 824.482 789.28C824.023 789.343 823.482 789.648 823.174 790.019C822.964 790.272 822.898 790.409 822.636 791.118C822.491 791.51 822.454 791.622 822.416 791.779C822.385 791.904 822.354 792.091 822.363 792.098C822.366 792.099 822.384 792.085 822.403 792.067C822.514 791.956 822.68 791.842 822.841 791.767C822.922 791.73 822.971 791.714 823.117 791.681C823.275 791.647 823.305 791.643 823.399 791.646C823.765 791.66 824.102 791.828 824.33 792.107C824.399 792.194 824.48 792.316 824.527 792.409L824.548 792.45L824.569 792.421C824.58 792.404 824.625 792.32 824.668 792.234C824.813 791.949 824.915 791.818 825.098 791.685C825.286 791.546 825.471 791.462 825.696 791.411C826.039 791.333 826.31 791.37 826.577 791.53C826.742 791.629 826.875 791.759 826.977 791.923C827.002 791.962 827.025 791.994 827.029 791.993C827.032 791.992 827.046 791.952 827.057 791.904C827.075 791.837 827.097 791.789 827.154 791.697C827.362 791.368 827.661 791.165 828.031 791.099C828.265 791.058 828.421 791.081 828.579 791.181C828.686 791.25 828.771 791.347 828.834 791.477L828.877 791.564L828.91 791.48C828.977 791.31 829.114 791.132 829.251 791.037C829.28 791.016 829.338 790.982 829.381 790.96L829.457 790.919L829.529 790.935C829.567 790.943 829.649 790.976 829.708 791.007C829.851 791.081 829.913 791.099 829.98 791.084C830.079 791.061 830.147 790.988 830.155 790.892C830.157 790.871 830.153 790.802 830.147 790.74C830.131 790.559 830.137 790.531 830.225 790.427C830.357 790.271 830.521 790.151 830.657 790.111C830.755 790.081 830.807 790.081 830.939 790.109C831.036 790.13 831.103 790.138 831.101 790.129C831.101 790.127 831.072 790.093 831.036 790.055C831 790.017 830.952 789.956 830.928 789.918C830.89 789.857 830.881 789.834 830.855 789.717C830.827 789.6 830.825 789.577 830.834 789.506C830.848 789.396 830.877 789.314 830.938 789.207C831.065 788.99 831.272 788.806 831.53 788.685C831.614 788.645 831.661 788.63 831.798 788.599C831.975 788.559 832.03 788.556 832.167 788.578C832.204 788.584 832.232 788.587 832.232 788.585C832.231 788.584 832.209 788.554 832.181 788.521C832.056 788.368 831.981 788.197 831.962 788.013C831.921 787.62 832.13 787.175 832.5 786.875C832.847 786.594 833.206 786.476 833.581 786.523C833.624 786.528 833.662 786.533 833.666 786.532C833.669 786.531 833.649 786.503 833.621 786.467C833.402 786.203 833.283 785.889 833.284 785.591C833.286 785.246 833.465 784.887 833.754 784.648C833.857 784.564 834.005 784.473 834.128 784.42C834.175 784.399 834.216 784.378 834.219 784.374C834.223 784.37 834.137 784.352 834.029 784.332C833.234 784.192 832.907 784.158 832.517 784.177C832.385 784.184 832.323 784.192 832.126 784.234C831.998 784.262 831.862 784.296 831.824 784.309Z" fill="#1D2529"/>
</g>
<path d="M670.465 961.398L673.912 952.051L678.004 960.755L682.501 981.992L676.936 983.23L670.465 961.398Z" fill="#1D2529"/>
<path d="M646.254 965.254L648.251 954.837L656.243 965.728L659.718 987.417L656.174 988.25L646.254 965.254Z" fill="#1D2529"/>
<path d="M626.705 965.827L629.606 957.455L632.294 964.09L635.555 990.274L631.536 990.584L626.705 965.827Z" fill="#1D2529"/>
<rect x="644.412" y="972.738" width="53.4064" height="3.79006" transform="rotate(-13.0492 644.412 972.738)" fill="#1D2529"/>
<rect x="620.943" y="971.209" width="38.5628" height="3.79005" transform="rotate(-4.4331 620.943 971.209)" fill="#1D2529"/>
<path d="M120 880L134 868.5L176.5 880L189.5 906.5L172.5 921H146.25L122 904.5L120 880Z" fill="#F0CB2F"/>
<path d="M201 917.5L217.5 898L243.5 901L258 923L249.5 948.5L229.5 959.5L201 948.5V917.5Z" fill="#F0CB2F"/>
<path d="M191.45 911.083C187.035 922.074 177.255 929.435 165.223 929.354C165.223 929.354 158.199 928.194 155.639 925.302C151.369 925.51 146.965 924.814 142.719 923.108C138.194 921.29 134.353 918.535 131.322 915.159C129.151 915.312 125.585 914.966 121.833 912.107C112.55 905.07 110.463 891.467 114.98 880.222C119.391 869.243 129.171 861.883 141.202 861.964C141.202 861.964 148.71 863.195 151.03 866.3C154.314 866.067 157.306 866.988 160.434 868.206C161.287 866.181 163.626 862.096 168.896 860.976C173.193 864.729 173.193 864.729 173.193 864.729C173.193 864.729 168.866 867.424 167.762 871.144C170.821 872.404 173.69 873.819 175.83 876.125C178.025 876.106 181.252 876.641 184.611 879.203C193.877 886.249 195.963 899.851 191.45 911.083ZM145.661 890.75L144.924 875.993L131.812 882.167L145.661 890.75ZM156.963 900.535L154.793 891.718L147.261 896.638L156.963 900.535ZM178.569 900.476L173.071 887.301L162.74 897.612L178.569 900.476ZM168.574 906.789L168.346 911.306L158.751 909.516C158.751 909.516 158.945 908.64 159.497 905.684C156.816 906.037 141.735 898.548 141.735 898.548L139.677 901.695L132.958 897.089C132.958 897.089 133.234 895.611 134.497 893.257C131.218 891.939 128.055 887.173 123.936 882.022C120.394 902.688 141.98 912.157 141.98 912.157L143.299 908.873L152.179 912.441C152.179 912.441 151.823 912.934 150.86 915.724C172.722 923.713 184.328 906.285 184.328 906.285C176.311 907.673 168.574 906.789 168.574 906.789Z" fill="#1D2529"/>
<path fill-rule="evenodd" clip-rule="evenodd" d="M227.201 963.678C226.975 963.731 226.756 963.787 226.532 963.833L226.488 963.842C218.537 965.583 211.513 963.044 206.417 956.702C206.315 956.567 206.203 956.436 206.101 956.301L205.983 956.143C201.541 955.957 197.489 953.626 193.809 949.251C193.676 949.205 193.543 949.158 193.42 949.106C192.367 937.879 193.798 927.353 197.425 917.424C201.068 907.477 206.927 898.118 214.703 889.277C214.814 889.316 214.925 889.355 215.033 889.402C221.403 887.809 226.869 889.542 231.693 893.689C233.851 892.108 235.484 891.264 237.717 891.452C237.765 891.245 237.838 891.038 237.933 890.839C238.932 888.825 240.167 887.085 241.582 885.542C242.961 884.052 244.528 882.736 246.229 881.558C247.527 880.654 249.314 880.976 250.219 882.274C251.123 883.571 250.801 885.359 249.503 886.263C248.163 887.194 246.915 888.24 245.803 889.443C244.754 890.584 243.839 891.864 243.111 893.317C245.177 894.592 246.235 896.326 246.942 898.94L247.032 899.038C252.039 898.56 257.157 900.478 262.415 905.914L262.578 905.971C263.12 917.798 261.832 928.815 258.418 938.893C255.029 948.922 249.523 958.056 241.642 966.155C241.445 966.102 241.243 966.039 241.049 965.979C235.842 967.143 231.012 966.173 227.201 963.678ZM190.641 947.829C186.943 945.789 184.393 942.849 182.767 939.19C177.686 927.782 180.693 910.962 187.846 900.922C193.227 893.371 202.374 886.788 211.854 888.507C204.294 897.299 198.559 906.61 194.932 916.514C191.324 926.365 189.808 936.779 190.641 947.829ZM265.282 907.247C269.563 909.683 273.148 913.974 275.399 921.846C278.425 938.15 268.958 962.498 251.893 966.601C249.437 967.189 247.123 967.254 244.659 966.852C252.23 958.76 257.566 949.682 260.929 939.752C264.313 929.738 265.683 918.866 265.282 907.247ZM247.294 942.788C241.456 951.216 230.783 955.269 220.671 952.307L222.633 946.732L216.954 944.733L215.135 949.902C207.274 945.235 202.766 936.444 203.413 927.342C205.625 929.831 208.268 932.155 211.291 934.224L209.653 938.876L215.332 940.875L216.562 937.382C218.737 938.513 221.055 939.52 223.485 940.375C225.936 941.238 228.389 941.91 230.81 942.389L228.585 948.71L234.264 950.709L236.866 943.317L236.504 943.19C240.277 943.505 243.915 943.358 247.294 942.788ZM220.258 932.707L229.01 925.006L231.15 936.541L220.258 932.707ZM207.055 915.228L220.607 903.299L223.922 921.165L207.055 915.228ZM235.546 925.257L249.099 913.328L252.413 931.194L235.546 925.257Z" fill="#1D2529"/>
<path fill-rule="evenodd" clip-rule="evenodd" d="M146 786L101 795L100.804 794.019L145.804 785.019L146 786Z" fill="white"/>
<path fill-rule="evenodd" clip-rule="evenodd" d="M148 803L109 781L109.491 780.129L148.491 802.129L148 803Z" fill="white"/>
<path fill-rule="evenodd" clip-rule="evenodd" d="M135 817L119 773L119.94 772.658L135.94 816.658L135 817Z" fill="white"/>
<path fill-rule="evenodd" clip-rule="evenodd" d="M139 772L126 790L125.189 789.414L138.189 771.414L139 772Z" fill="white"/>
<path fill-rule="evenodd" clip-rule="evenodd" d="M125 832V790H126V832H125Z" fill="white"/>
<path fill-rule="evenodd" clip-rule="evenodd" d="M122.211 780.594L122.825 781.12C125.472 783.389 128.66 783.32 129.879 783.015L130.5 782.86V783.5C130.5 786.094 132.046 787.645 132.757 788.071L133.306 788.401L132.854 788.854C131.443 790.264 131.676 792.094 131.964 792.814L132.195 793.391L131.582 793.493C130.588 793.659 129.951 794.308 129.548 795.122C129.14 795.946 129 796.892 129 797.5H128C128 796.775 128.16 795.67 128.652 794.678C129.081 793.813 129.782 792.999 130.87 792.641C130.638 791.627 130.638 789.998 131.76 788.58C130.864 787.833 129.704 786.32 129.524 784.097C127.965 784.309 125.215 784.14 122.747 782.333C122.168 783.735 120.761 785.671 118.177 785.963C118.344 786.489 118.487 786.999 118.571 787.485C118.688 788.165 118.698 788.837 118.471 789.479C118.011 790.784 116.67 791.721 114.144 792.479L113.856 791.521C116.33 790.779 117.239 789.966 117.529 789.146C117.677 788.725 117.687 788.242 117.585 787.655C117.483 787.065 117.277 786.411 117.026 785.658L116.806 785H117.5C120.365 785 121.707 782.612 122.015 781.379L122.211 780.594Z" fill="white"/>
<path d="M129 836.5C129 839.538 127.433 842 125.5 842C123.567 842 122 839.538 122 836.5C122 833.462 123.567 831 125.5 831C127.433 831 129 833.462 129 836.5Z" fill="#1D2529"/>
<path fill-rule="evenodd" clip-rule="evenodd" d="M129.094 829.38L132.61 830.358L132.342 831.321L129.688 830.583L128.274 834.104L127.346 833.732L129.094 829.38Z" fill="#1D2529"/>
<path fill-rule="evenodd" clip-rule="evenodd" d="M130.963 831.789L133.812 834.069L133.188 834.849L131.037 833.129L128.354 835.813L127.646 835.105L130.963 831.789Z" fill="#1D2529"/>
<path fill-rule="evenodd" clip-rule="evenodd" d="M131.934 833.717L133.961 836.751L133.129 837.307L131.6 835.016L128.23 836.762L127.77 835.875L131.934 833.717Z" fill="#1D2529"/>
<path fill-rule="evenodd" clip-rule="evenodd" d="M131.571 836.566L132.992 844.369L132.008 844.549L130.768 837.735L127.093 838.428L126.907 837.445L131.571 836.566Z" fill="#1D2529"/>
<path fill-rule="evenodd" clip-rule="evenodd" d="M122.386 829.38L118.871 830.358L119.139 831.321L121.792 830.583L123.207 834.104L124.135 833.732L122.386 829.38Z" fill="#1D2529"/>
<path fill-rule="evenodd" clip-rule="evenodd" d="M120.517 831.789L117.668 834.069L118.293 834.849L120.443 833.129L123.127 835.813L123.834 835.105L120.517 831.789Z" fill="#1D2529"/>
<path fill-rule="evenodd" clip-rule="evenodd" d="M119.546 833.717L117.52 836.751L118.351 837.307L119.881 835.016L123.25 836.762L123.71 835.875L119.546 833.717Z" fill="#1D2529"/>
<path fill-rule="evenodd" clip-rule="evenodd" d="M119.909 836.566L118.488 844.369L119.472 844.549L120.713 837.735L124.388 838.428L124.573 837.445L119.909 836.566Z" fill="#1D2529"/>
<path d="M76.5 905L69.6481 931.5L56 897L22 858.5L48.8406 801.213L38.5 774.5L29 776L28 774L38.5 770L28 757L29 754.5L42 763L55.7383 786.313L76.5 726.5L83.2961 700L78.0644 675.5L69.6481 669.5L78.5 671L86.2532 683L89.2103 700L113.5 653H129.927L132 659H116.279L104.906 687L111.275 693L111 696.5L104 692L83.2961 766.5L98.5 731.5L117.416 716L139.481 713.5L154.948 720.5L162 736L160.863 742.5L143.12 724L113.5 729L78.5 791L116.279 766.5L143.12 762L151.764 784L150.627 810.5L143.12 825L132.657 818.5V814L140.845 816L147.215 803L139.481 774.5L116.279 778.5L78.5 830.5L76.5 905Z" fill="#1D2529"/>
<path d="M-37 698L19 673L31.5 693L19 755.5L-37 825.5L-76.5 791.5L-37 698Z" fill="#1D2529"/>
<path d="M19.7037 808.541L36.2963 801L40 807.033L36.2963 825.885L19.7037 847L8 836.744L19.7037 808.541Z" fill="#1D2529"/>
</g>
<defs>
<clipPath id="clip0">
<rect width="965" height="994" fill="white"/>
</clipPath>
<clipPath id="clip1">
<rect width="57.97" height="29.4763" fill="white" transform="translate(896 727.807) rotate(-30.9428)"/>
</clipPath>
<clipPath id="clip2">
<rect width="15.9252" height="8.09754" fill="white" transform="translate(837.229 791.325) rotate(-9.83523)"/>
</clipPath>
<clipPath id="clip3">
<rect width="44.3357" height="22.1679" fill="white" transform="translate(728.715 807.133) rotate(3.82387)"/>
</clipPath>
<clipPath id="clip4">
<rect width="13.2903" height="6.64517" fill="white" transform="translate(821.121 786.623) rotate(-12.7444)"/>
</clipPath>
</defs>
</svg>
