<svg width="965" height="314" viewBox="0 0 965 314" fill="none" xmlns="http://www.w3.org/2000/svg">
<g clip-path="url(#clip0)">
<rect width="965" height="314" fill="url(#paint0_radial)"/>
<path fill-rule="evenodd" clip-rule="evenodd" d="M173 248.092C-294.209 263.829 -636 314.242 -636 374C-636 446.349 -135.007 505 483 505C1101.01 505 1602 446.349 1602 374C1602 301.651 1101.01 243 483 243C388.683 243 297.092 244.366 209.591 246.938C207.835 247.856 206.122 248.784 204.451 249.723L173 250.5V248.092Z" fill="url(#paint1_radial)"/>
<mask id="mask0" mask-type="alpha" maskUnits="userSpaceOnUse" x="-636" y="243" width="2238" height="262">
<ellipse cx="483" cy="374" rx="1119" ry="131" fill="url(#paint2_radial)"/>
</mask>
<g mask="url(#mask0)">
<ellipse cx="483" cy="297" rx="227" ry="38" fill="url(#paint3_radial)"/>
<ellipse cx="483" cy="306.222" rx="201" ry="30.4" fill="url(#paint4_radial)"/>
<ellipse cx="483" cy="311.711" rx="7" ry="2.95556" fill="#9CA5A9"/>
<ellipse cx="483" cy="311.711" rx="3" ry="1.26667" fill="#879196"/>
<path fill-rule="evenodd" clip-rule="evenodd" d="M40 336.5C40 380.413 120.945 418.854 242 440C171.501 414.98 146.852 377.893 146.852 336.5C146.852 303.898 162.143 273.968 203.083 250.5H173V248.073C91.1762 270.127 40 301.583 40 336.5ZM173.757 247.869L213.5 241V244.947C222.031 240.715 231.508 236.724 242 233C217.496 237.28 194.635 242.27 173.757 247.869Z" fill="black" fill-opacity="0.05"/>
<mask id="mask1" mask-type="alpha" maskUnits="userSpaceOnUse" x="40" y="233" width="202" height="207">
<path fill-rule="evenodd" clip-rule="evenodd" d="M40 336.5C40 380.413 120.945 418.854 242 440C171.501 414.98 146.852 377.893 146.852 336.5C146.852 303.538 162.483 273.306 204.451 249.723L173 250.5V248.073C91.1762 270.127 40 301.583 40 336.5ZM173.757 247.869L213.5 241V244.947C222.031 240.715 231.508 236.724 242 233C217.496 237.28 194.635 242.27 173.757 247.869Z" fill="black" fill-opacity="0.2"/>
</mask>
<g mask="url(#mask1)">
<path d="M242 440C120.945 418.854 69.5 380.413 69.5 336.5C69.5 292.587 125.5 256.5 242 233C171.501 258.02 146.852 295.107 146.852 336.5C146.852 377.893 171.501 414.98 242 440Z" fill="url(#paint5_linear)"/>
</g>
<path opacity="0.1" fill-rule="evenodd" clip-rule="evenodd" d="M797.45 455.273C1471.89 447.751 1985.09 416.519 2022.78 378.493C2024.25 380.316 2025 382.152 2025 384C2025 433.063 1498.53 474.014 797.949 483.606C797.872 488.618 797.708 493.605 797.458 498.565C1498.28 487.548 2025 440.441 2025 384C2025 382.038 2024.36 380.088 2023.11 378.15C2024.36 376.775 2025 375.392 2025 374C2025 365.504 2001.29 357.306 1957.22 349.588C1788.15 307.839 1319.49 276.041 741.575 268.638C744.563 273.601 747.448 278.654 750.224 283.793C1186.17 288.818 1559.17 305.922 1787.05 329.684C1559.94 310.363 1188.71 296.437 754.675 292.284C759.554 301.885 764.064 311.767 768.183 321.905C1380.68 325.841 1865.67 342.223 1992.5 363.124C2007.23 367.782 2017.12 372.557 2021.83 377.425C1977.18 401.485 1465.45 421.18 794.934 425.915C796.105 435.585 796.948 445.376 797.45 455.273ZM-193.109 326.353C-614.539 333.431 -928.169 346.919 -1026.5 363.124C-1041.23 367.782 -1051.12 372.557 -1055.83 377.425C-1020.83 396.284 -698.886 412.46 -238.437 420.854C-240.516 429.551 -242.101 438.35 -243.192 447.238C-705.613 433.926 -1027.24 408.296 -1056.78 378.493C-1058.25 380.316 -1059 382.152 -1059 384C-1059 382.038 -1058.36 380.088 -1057.11 378.15C-1058.36 376.775 -1059 375.392 -1059 374C-1059 375.047 -1058.12 376.086 -1056.38 377.118C-1053.43 373.265 -1048.03 369.462 -1040.29 365.719C-1052.61 368.417 -1059 371.183 -1059 374C-1059 365.504 -1035.29 357.306 -991.225 349.588C-860.227 317.241 -549.38 290.868 -147.217 277.186C-152.578 281.912 -157.72 286.715 -162.641 291.59C-433.874 299.852 -662.558 313.158 -821.048 329.684C-663.932 316.317 -437.836 305.533 -169.689 298.78C-178.219 307.744 -186.026 316.942 -193.109 326.353ZM738.439 263.523C1221.8 270.016 1629.08 294.629 1849.14 328.403C1628.43 291.056 1219.39 263.87 734.146 256.808C735.599 259.027 737.03 261.265 738.439 263.523ZM-134.466 266.425C-136.931 268.418 -139.355 270.425 -141.737 272.447C-460.224 283.834 -721.926 303.66 -883.143 328.403C-720.7 300.916 -456.24 278.932 -134.466 266.425ZM-244.978 473.702C-244.993 474.8 -245 475.899 -245 477C-245 480.402 -244.941 483.793 -244.822 487.173C-729.434 467.45 -1059 428.645 -1059 384C-1059 422.814 -729.504 456.551 -244.978 473.702ZM-244.396 495.681C-719.631 475.155 -1045.87 435.142 -1058.61 388.899C-1058.87 389.93 -1059 390.964 -1059 392C-1059 444.352 -728.484 489.846 -242.728 512.909C-243.463 507.204 -244.018 501.46 -244.396 495.681ZM796.895 507.771C796.448 513.956 795.869 520.098 795.159 526.191C1497.13 513.369 2025 458.161 2025 392C2025 390.964 2024.87 389.93 2024.61 388.899C2008.43 447.606 1487.01 496.27 796.895 507.771ZM2025 374C2025 371.183 2018.6 368.417 2006.29 365.719C2014.03 369.462 2019.43 373.265 2022.38 377.118C2024.12 376.086 2025 375.047 2025 374Z" fill="#1D2529"/>
<path opacity="0.1" d="M-43 255.325C-43 255.325 80.5 246.66 170.5 246.66C64.5 260.16 -37 284.84 -37 332.5C-37 357.737 -43 368.66 -43 368.66V255.325Z" fill="#1D2529"/>
</g>
</g>
<defs>
<radialGradient id="paint0_radial" cx="0" cy="0" r="1" gradientUnits="userSpaceOnUse" gradientTransform="translate(483 1083.5) rotate(-90) scale(1083.5 3329.86)">
<stop offset="0.694251" stop-color="#98DAFF" stop-opacity="0"/>
<stop offset="0.794275" stop-color="#007BC1"/>
<stop offset="1" stop-color="#002D46"/>
</radialGradient>
<radialGradient id="paint1_radial" cx="0" cy="0" r="1" gradientUnits="userSpaceOnUse" gradientTransform="translate(483 505) rotate(-90) scale(262 2238)">
<stop offset="0.635417" stop-color="#E1E1E1"/>
<stop offset="1" stop-color="#98A0A5"/>
</radialGradient>
<radialGradient id="paint2_radial" cx="0" cy="0" r="1" gradientUnits="userSpaceOnUse" gradientTransform="translate(483 505) rotate(-90) scale(262 2238)">
<stop stop-color="#FDFDFD"/>
<stop offset="1" stop-color="#B9BFC2"/>
</radialGradient>
<radialGradient id="paint3_radial" cx="0" cy="0" r="1" gradientUnits="userSpaceOnUse" gradientTransform="translate(483 335) rotate(-90) scale(76 511.325)">
<stop offset="0.447917" stop-color="#D1D1D1" stop-opacity="0"/>
<stop offset="0.854167" stop-color="white" stop-opacity="0.69"/>
</radialGradient>
<radialGradient id="paint4_radial" cx="0" cy="0" r="1" gradientUnits="userSpaceOnUse" gradientTransform="translate(483 336.622) rotate(-90) scale(60.8 452.759)">
<stop offset="0.125" stop-color="#B9B9B9" stop-opacity="0"/>
<stop offset="0.729167" stop-color="#DADADA" stop-opacity="0.65"/>
</radialGradient>
<linearGradient id="paint5_linear" x1="155.75" y1="252" x2="155.75" y2="314" gradientUnits="userSpaceOnUse">
<stop/>
<stop offset="1" stop-opacity="0"/>
</linearGradient>
<clipPath id="clip0">
<rect width="965" height="314" fill="white"/>
</clipPath>
</defs>
</svg>
