<svg width="285" height="64" viewBox="0 0 285 64" fill="none" xmlns="http://www.w3.org/2000/svg">
<g clip-path="url(#clip0)">
<g opacity="0.2">
<path d="M168.96 58.3849C168.704 58.129 168.704 57.7141 168.96 57.4583C169.215 57.2024 169.63 57.2024 169.886 57.4583L170.122 57.6944C170.378 57.9502 170.378 58.3651 170.122 58.6209C169.866 58.8768 169.452 58.8768 169.196 58.6209L168.96 58.3849Z" fill="#F47721"/>
<path fill-rule="evenodd" clip-rule="evenodd" d="M154.572 55.0284L150.126 59.4742C149.87 59.7301 149.87 60.1449 150.126 60.4008C151.608 61.882 154.018 61.882 155.499 60.4008C156.98 58.9196 156.98 56.5096 155.499 55.0284C155.243 54.7726 154.828 54.7726 154.572 55.0284ZM154.572 59.4742C153.762 60.2841 152.528 60.4179 151.578 59.8757L154.974 56.4803C155.516 57.4302 155.382 58.6643 154.572 59.4742Z" fill="#F47721"/>
<path fill-rule="evenodd" clip-rule="evenodd" d="M156.616 52.9844L161.062 48.5387C161.318 48.2828 161.733 48.2828 161.988 48.5387C163.47 50.0199 163.47 52.4299 161.988 53.911C160.507 55.3922 158.097 55.3922 156.616 53.911C156.36 53.6551 156.36 53.2403 156.616 52.9844ZM158.068 53.3859C159.018 53.9281 160.252 53.7943 161.062 52.9844C161.872 52.1745 162.006 50.9404 161.463 49.9904L158.068 53.3859Z" fill="#F47721"/>
<path fill-rule="evenodd" clip-rule="evenodd" d="M146.907 60.9629C142.594 56.65 142.594 49.6322 146.907 45.3193C151.22 41.0063 158.238 41.0063 162.551 45.3193L177.523 60.2919C177.779 60.5477 177.779 60.9626 177.523 61.2184L162.806 75.9355C162.55 76.1914 162.135 76.1914 161.88 75.9355L146.907 60.9629ZM174.658 62.2303L176.133 60.755L161.624 46.2457C157.822 42.4437 151.636 42.4437 147.834 46.2457C144.032 50.0478 144.032 56.2341 147.834 60.0362L162.343 74.5455L163.818 73.0704L160.696 69.948C160.44 69.6921 160.44 69.2773 160.696 69.0214C160.952 68.7655 161.366 68.7655 161.622 69.0214L164.745 72.1438L166.297 70.592L161.365 65.66C161.109 65.4041 161.109 64.9893 161.365 64.7334C161.62 64.4775 162.035 64.4775 162.291 64.7334L167.223 69.6654L168.775 68.1136L165.653 64.9913C165.397 64.7354 165.397 64.3206 165.653 64.0647C165.908 63.8088 166.323 63.8088 166.579 64.0647L169.701 67.187L171.253 65.6353L166.321 60.7033C166.065 60.4474 166.065 60.0325 166.321 59.7767C166.577 59.5208 166.992 59.5208 167.248 59.7767L172.18 64.7087L173.732 63.1569L170.609 60.0346C170.353 59.7787 170.353 59.3638 170.609 59.108C170.865 58.8521 171.28 58.8521 171.536 59.108L174.658 62.2303Z" fill="#F47721"/>
<path d="M116.085 18.9913C115.936 19.1401 115.862 19.3195 115.862 19.5304C115.862 19.7412 115.936 19.9208 116.085 20.0692C116.241 20.2257 116.425 20.3039 116.635 20.304C116.846 20.3041 117.025 20.2294 117.174 20.0807C117.322 19.9327 117.397 19.7533 117.397 19.5422C117.397 19.3314 117.319 19.1479 117.163 18.9914C117.014 18.843 116.835 18.7686 116.623 18.7686C116.412 18.7687 116.233 18.8433 116.085 18.9913Z" fill="#F47721"/>
<path d="M120.198 15.9676C120.198 15.7568 120.273 15.5772 120.421 15.4286C120.57 15.2803 120.749 15.206 120.96 15.2057C121.171 15.2058 121.351 15.2803 121.499 15.4284C121.655 15.5849 121.734 15.7685 121.734 15.9792C121.733 16.1904 121.659 16.3699 121.511 16.5181C121.362 16.6667 121.183 16.7413 120.972 16.7411C120.761 16.7412 120.578 16.6628 120.421 16.5063C120.273 16.3582 120.199 16.1785 120.198 15.9676Z" fill="#F47721"/>
<path fill-rule="evenodd" clip-rule="evenodd" d="M129.455 15.3367C129.053 14.7665 128.579 14.1962 128.033 13.6249C125.797 11.2451 123.438 9.99688 120.956 9.88007C118.703 9.77624 116.606 10.5628 114.661 12.2407C112.692 13.9165 111.694 16.1053 111.666 18.8051C111.627 21.6868 112.754 24.2752 115.05 26.5714C115.487 27.0082 115.967 27.4279 116.488 27.8295C116.118 29.2688 116.188 30.2436 116.698 30.7541C116.868 30.9244 117.098 31.0336 117.389 31.0824C117.813 31.1204 118.163 31.0001 118.441 30.7225C118.718 30.445 118.911 30.0223 119.018 29.4527C119.054 29.4652 119.097 29.4835 119.145 29.5084C120.769 30.1673 122.467 30.4994 124.234 30.5043C128.459 30.4816 132.681 28.7989 136.896 25.4583C135.068 25.6093 133.753 25.2122 132.952 24.2655C132.38 23.4284 131.964 22.386 131.706 21.1373C131.374 19.5031 131.099 18.4061 130.879 17.8478C131.715 17.7902 132.312 17.5794 132.675 17.217C132.952 16.9395 133.061 16.5889 132.998 16.1654C132.973 15.8747 132.87 15.6386 132.688 15.4563C132.116 14.8852 131.038 14.8455 129.455 15.3367ZM115.905 21.7249C115.355 21.7241 114.885 21.5313 114.499 21.1452C114.113 20.7588 113.919 20.2882 113.921 19.7406C113.92 19.1897 114.112 18.7202 114.499 18.3324C114.906 17.9264 115.386 17.7235 115.937 17.7249C116.486 17.722 116.955 17.9167 117.341 18.303C117.727 18.6891 117.922 19.158 117.921 19.7092C117.921 20.2589 117.716 20.7373 117.31 21.1433C116.923 21.5311 116.455 21.7251 115.905 21.7249ZM123.927 23.2557C124.011 23.7218 123.918 24.088 123.65 24.3555C123.382 24.6241 123.015 24.7167 122.55 24.6324C122.086 24.5487 121.649 24.3018 121.241 23.8939C120.855 23.5079 120.618 23.0815 120.533 22.6155C120.449 22.1504 120.542 21.7839 120.81 21.5154C121.078 21.2478 121.444 21.1554 121.91 21.2387C122.376 21.324 122.803 21.5602 123.189 21.9462C123.597 22.3541 123.843 22.7912 123.927 23.2557ZM123.586 15.4005C123.585 15.9513 123.391 16.4189 123.005 16.805C122.617 17.1925 122.149 17.3867 121.6 17.3866C121.051 17.3869 120.572 17.1822 120.164 16.7744C119.778 16.3882 119.584 15.9196 119.583 15.3696C119.583 14.8201 119.777 14.3523 120.164 13.9648C120.551 13.5786 121.018 13.3847 121.569 13.3836C122.119 13.3845 122.588 13.5787 122.974 13.9648C123.382 14.3725 123.586 14.8516 123.586 15.4005Z" fill="#F47721"/>
</g>
<g opacity="0.2">
<path d="M217.651 46.3868C213.499 50.7967 213.943 57.8417 218.238 62.1359L229.018 72.916C229.6 73.4984 230.593 73.0878 230.592 72.2654L230.851 70.4933C230.92 70.0198 231.339 69.6785 231.817 69.7073L235.542 69.9325C236.052 69.9331 236.464 69.5204 236.464 69.0105L236.25 65.4789C236.216 64.9265 236.672 64.4706 237.224 64.5044L240.756 64.7183C241.266 64.719 241.679 64.3063 241.678 63.7964L241.453 60.0718C241.424 59.594 241.765 59.1739 242.239 59.1052L244.011 58.8469C244.833 58.848 245.243 57.8544 244.661 57.2723L233.552 46.1634C229.141 41.752 221.948 41.8241 217.651 46.3868ZM224.43 57.8996C223.711 58.6194 222.541 58.6179 221.82 57.8961C221.098 57.1744 221.096 56.0053 221.816 55.2854C222.536 54.5656 223.705 54.5671 224.427 55.2889C225.149 56.0106 225.15 57.1797 224.43 57.8996ZM229.645 52.685C228.925 53.4049 227.756 53.4033 227.034 52.6816C226.313 51.9598 226.311 50.7907 227.031 50.0709C227.751 49.351 228.92 49.3526 229.642 50.0743C230.363 50.7961 230.365 51.9652 229.645 52.685Z" fill="#F47721"/>
<path d="M186.919 19.8192C186.77 19.968 186.696 20.1474 186.696 20.3583C186.696 20.5691 186.771 20.7487 186.919 20.8971C187.075 21.0536 187.259 21.1318 187.47 21.1319C187.68 21.132 187.86 21.0573 188.008 20.9086C188.156 20.7606 188.231 20.5813 188.231 20.3701C188.232 20.1593 188.153 19.9758 187.997 19.8193C187.848 19.6709 187.669 19.5965 187.458 19.5965C187.247 19.5966 187.067 19.6713 186.919 19.8192Z" fill="#F47721"/>
<path d="M191.032 16.7955C191.033 16.5847 191.107 16.4051 191.256 16.2565C191.404 16.1083 191.583 16.0339 191.794 16.0336C192.006 16.0337 192.185 16.1083 192.333 16.2563C192.49 16.4128 192.568 16.5964 192.568 16.8071C192.568 17.0183 192.493 17.1978 192.345 17.346C192.197 17.4947 192.017 17.5692 191.806 17.569C191.596 17.5691 191.412 17.4907 191.255 17.3342C191.107 17.1861 191.033 17.0065 191.032 16.7955Z" fill="#F47721"/>
<path fill-rule="evenodd" clip-rule="evenodd" d="M200.289 16.1646C199.887 15.5944 199.413 15.0242 198.867 14.4528C196.632 12.073 194.272 10.8248 191.79 10.708C189.538 10.6041 187.44 11.3908 185.495 13.0686C183.526 14.7444 182.528 16.9333 182.5 19.633C182.461 22.5147 183.588 25.1031 185.885 27.3994C186.321 27.8361 186.802 28.2558 187.323 28.6574C186.952 30.0968 187.022 31.0715 187.532 31.582C187.703 31.7523 187.932 31.8615 188.223 31.9103C188.647 31.9484 188.997 31.828 189.275 31.5504C189.553 31.273 189.745 30.8502 189.853 30.2806C189.889 30.2931 189.931 30.3114 189.98 30.3364C191.603 30.9952 193.301 31.3273 195.069 31.3322C199.294 31.3095 203.515 29.6269 207.73 26.2863C205.902 26.4372 204.587 26.0401 203.786 25.0934C203.214 24.2563 202.799 23.2139 202.54 21.9652C202.209 20.331 201.933 19.234 201.713 18.6757C202.549 18.6181 203.146 18.4073 203.509 18.0449C203.786 17.7674 203.895 17.4168 203.832 16.9933C203.808 16.7026 203.704 16.4665 203.522 16.2842C202.95 15.7131 201.873 15.6734 200.289 16.1646ZM186.74 22.5528C186.19 22.552 185.72 22.3592 185.333 21.9731C184.947 21.5867 184.754 21.1161 184.755 20.5685C184.754 20.0176 184.946 19.5481 185.334 19.1603C185.74 18.7543 186.22 18.5514 186.771 18.5528C187.32 18.5499 187.789 18.7446 188.176 19.1309C188.562 19.517 188.756 19.9859 188.755 20.5371C188.755 21.0868 188.551 21.5652 188.145 21.9712C187.757 22.359 187.289 22.553 186.74 22.5528ZM194.761 24.0836C194.845 24.5497 194.752 24.9159 194.485 25.1835C194.216 25.452 193.85 25.5446 193.385 25.4603C192.92 25.3766 192.483 25.1297 192.075 24.7218C191.689 24.3358 191.453 23.9094 191.368 23.4434C191.283 22.9783 191.376 22.6119 191.644 22.3433C191.912 22.0757 192.278 21.9833 192.744 22.0666C193.21 22.1519 193.637 22.3881 194.023 22.7742C194.431 23.182 194.677 23.6191 194.761 24.0836ZM194.42 16.2284C194.419 16.7792 194.225 17.2468 193.839 17.6329C193.451 18.0204 192.983 18.2147 192.434 18.2145C191.885 18.2148 191.406 18.0101 190.999 17.6023C190.612 17.2161 190.418 16.7476 190.417 16.1976C190.417 15.648 190.611 15.1802 190.999 14.7927C191.385 14.4065 191.852 14.2126 192.403 14.2115C192.953 14.2124 193.422 14.4066 193.808 14.7927C194.216 15.2004 194.42 15.6796 194.42 16.2284Z" fill="#F47721"/>
</g>
<g opacity="0.2">
<path d="M9.52697 52.1088C9.37822 52.2575 9.30372 52.437 9.30392 52.6479C9.30424 52.8587 9.37861 53.0383 9.52697 53.1866C9.68347 53.3431 9.86708 53.4214 10.0776 53.4215C10.2883 53.4216 10.4676 53.3469 10.6163 53.1982C10.7643 53.0502 10.839 52.8708 10.8393 52.6597C10.8396 52.4489 10.7612 52.2654 10.6047 52.1089C10.4564 51.9605 10.2767 51.8861 10.0657 51.8861C9.8545 51.8862 9.67493 51.9608 9.52697 52.1088Z" fill="#F47721"/>
<path d="M13.6404 49.085C13.6405 48.8743 13.7151 48.6947 13.8636 48.5461C14.0119 48.3978 14.1912 48.3235 14.4023 48.3232C14.6135 48.3233 14.7932 48.3978 14.9413 48.5459C15.0977 48.7024 15.1762 48.886 15.1758 49.0967C15.1756 49.3079 15.1013 49.4874 14.9531 49.6356C14.8045 49.7842 14.6249 49.8587 14.4139 49.8586C14.2035 49.8587 14.0199 49.7803 13.8634 49.6238C13.7153 49.4757 13.6409 49.296 13.6404 49.085Z" fill="#F47721"/>
<path fill-rule="evenodd" clip-rule="evenodd" d="M22.8968 48.4542C22.4954 47.884 22.0209 47.3137 21.475 46.7424C19.2397 44.3626 16.8799 43.1144 14.3979 42.9976C12.1457 42.8937 10.048 43.6803 8.10334 45.3582C6.13408 47.034 5.13609 49.2228 5.10813 51.9226C5.06935 54.8043 6.1964 57.3927 8.4926 59.6889C8.92932 60.1257 9.40951 60.5454 9.9307 60.947C9.55982 62.3863 9.62982 63.3611 10.1403 63.8716C10.3106 64.0419 10.5398 64.1511 10.8309 64.1999C11.2551 64.2379 11.6054 64.1176 11.883 63.84C12.1605 63.5625 12.3533 63.1398 12.4606 62.5702C12.4967 62.5827 12.5391 62.601 12.5876 62.6259C14.2114 63.2848 15.9093 63.6169 17.6766 63.6218C21.9016 63.5991 26.1231 61.9164 30.3383 58.5758C28.5098 58.7268 27.1953 58.3296 26.3941 57.383C25.8218 56.5459 25.4066 55.5034 25.148 54.2548C24.8167 52.6206 24.5414 51.5236 24.3212 50.9653C25.1572 50.9077 25.7544 50.6969 26.1168 50.3345C26.3943 50.057 26.5031 49.7064 26.4401 49.2829C26.4156 48.9922 26.3121 48.7561 26.1299 48.5738C25.5584 48.0026 24.4807 47.9629 22.8968 48.4542ZM9.34759 54.8424C8.79759 54.8416 8.3275 54.6488 7.94137 54.2627C7.55504 53.8763 7.36164 53.4057 7.36327 52.8581C7.36171 52.3072 7.55393 51.8376 7.94169 51.4499C8.34771 51.0439 8.8279 50.841 9.37894 50.8424C9.92777 50.8395 10.3972 51.0342 10.7835 51.4205C11.1697 51.8066 11.3637 52.2755 11.3633 52.8267C11.3634 53.3764 11.1587 53.8548 10.7526 54.2608C10.3649 54.6486 9.89726 54.8426 9.34759 54.8424ZM17.3694 56.3732C17.4528 56.8393 17.3602 57.2055 17.0926 57.473C16.8241 57.7416 16.4577 57.8342 15.9926 57.7499C15.5279 57.6662 15.0913 57.4193 14.6834 57.0114C14.2974 56.6254 14.0607 56.199 13.9757 55.7329C13.8914 55.2679 13.9839 54.9014 14.2525 54.6329C14.5201 54.3653 14.8864 54.2729 15.3524 54.3562C15.8182 54.4414 16.2451 54.6777 16.6311 55.0637C17.0389 55.4716 17.2854 55.9087 17.3694 56.3732ZM17.0281 48.518C17.0269 49.0687 16.833 49.5364 16.4469 49.9225C16.0594 50.31 15.5914 50.5042 15.042 50.5041C14.4932 50.5044 14.0144 50.2997 13.6065 49.8919C13.2204 49.5057 13.0261 49.0371 13.0251 48.4871C13.0247 47.9376 13.2192 47.4698 13.6067 47.0823C13.9929 46.6961 14.4603 46.5022 15.0111 46.5011C15.5613 46.502 16.03 46.6961 16.4161 47.0823C16.824 47.49 17.0284 47.9691 17.0281 48.518Z" fill="#F47721"/>
</g>
<g opacity="0.2">
<path d="M217.864 -23.0872C213.711 -18.6773 214.156 -11.6323 218.45 -7.33812L229.23 3.44201C229.813 4.02447 230.806 3.61378 230.805 2.7914L231.063 1.01932C231.132 0.545808 231.552 0.204521 232.03 0.233297L235.754 0.458485C236.264 0.459157 236.677 0.046474 236.676 -0.463431L236.462 -3.99511C236.429 -4.54748 236.885 -5.00335 237.437 -4.96958L240.968 -4.75566C241.478 -4.75498 241.891 -5.16767 241.89 -5.67757L241.665 -9.40221C241.636 -9.87993 241.977 -10.3 242.451 -10.3688L244.223 -10.6271C245.045 -10.626 245.456 -11.6196 244.874 -12.2016L233.765 -23.3106C229.353 -27.722 222.16 -27.6499 217.864 -23.0872ZM224.643 -11.5744C223.923 -10.8545 222.754 -10.8561 222.032 -11.5778C221.31 -12.2996 221.309 -13.4687 222.029 -14.1886C222.748 -14.9084 223.918 -14.9069 224.639 -14.1851C225.361 -13.4634 225.363 -12.2943 224.643 -11.5744ZM229.857 -16.789C229.137 -16.0691 227.968 -16.0706 227.247 -16.7924C226.525 -17.5141 226.523 -18.6833 227.243 -19.4031C227.963 -20.123 229.132 -20.1214 229.854 -19.3997C230.576 -18.6779 230.577 -17.5088 229.857 -16.789Z" fill="#F47721"/>
<path d="M259.598 14.648C259.591 14.6582 259.576 14.6781 259.558 14.7031C259.533 14.7365 259.502 14.7789 259.472 14.8189C258.947 15.526 258.797 16.5248 259.083 17.3984C259.22 17.8113 259.419 18.147 259.725 18.4771C260.283 19.0791 261.034 19.4091 261.853 19.4117C262.593 19.4155 263.264 19.1571 263.806 18.6599C264.261 18.2444 264.56 17.7212 264.679 17.1393C264.843 16.3357 264.702 15.5951 264.25 14.8997C264.079 14.64 263.715 14.2755 263.451 14.1034C262.967 13.7861 262.468 13.6282 261.909 13.613C261.303 13.5976 260.733 13.7552 260.246 14.0723C260.078 14.1805 259.671 14.5425 259.598 14.648Z" fill="#F47721"/>
<path d="M254.724 21.6554C254.513 20.8327 254.674 19.9606 255.166 19.2563C255.307 19.0527 255.742 18.6416 255.958 18.5038C256.72 18.0223 257.676 17.9181 258.512 18.226C258.748 18.3132 258.964 18.4226 259.163 18.5557C259.383 18.7024 259.805 19.1237 259.942 19.3356C260.233 19.7833 260.406 20.2887 260.436 20.7876C260.539 22.5035 259.172 23.9124 257.458 23.8548C256.906 23.8366 256.411 23.6772 255.932 23.3674C255.688 23.2073 255.321 22.8457 255.161 22.6084C254.942 22.2861 254.815 22.0072 254.724 21.6554Z" fill="#F47721"/>
<path fill-rule="evenodd" clip-rule="evenodd" d="M253.15 13.1576C253.159 13.1665 253.141 13.1992 253.107 13.2334C252.953 13.3878 252.537 13.9791 252.292 14.3923C251.478 15.7672 250.979 17.5214 250.962 19.0686C250.942 20.7618 251.518 22.4568 252.906 24.7739C254.542 27.5089 257.348 31.214 260.096 34.2711C260.543 34.7655 261.844 36.0697 262.18 36.3552C263.313 37.3224 264.109 37.7702 264.813 37.8394C265.3 37.8872 265.752 37.701 266.037 37.3326C266.28 37.0176 266.393 36.6963 266.579 35.7751C266.8 34.6813 266.911 34.4746 267.353 34.3167C267.536 34.2532 267.758 34.2078 268.277 34.1305C269.277 33.9818 269.734 33.8061 270.115 33.4246C270.399 33.141 270.574 32.8021 270.789 32.1177C271.079 31.1998 271.192 30.8874 271.285 30.7165C271.385 30.5351 271.501 30.4044 271.641 30.3185C271.793 30.2237 272.205 30.1014 272.596 30.0357C273.217 29.9319 273.559 29.8585 273.785 29.7848C274.51 29.5444 274.896 29.1554 275.203 28.3523C275.246 28.2407 275.359 27.8881 275.452 27.5712C275.71 26.6949 275.835 26.4109 276.061 26.1823C276.333 25.9077 276.645 25.8074 277.739 25.6426C278.522 25.523 278.811 25.4495 279.139 25.2822C279.283 25.2097 279.332 25.1727 279.487 25.0212C279.634 24.8773 279.68 24.8193 279.738 24.7078C280.005 24.189 279.909 23.523 279.459 22.7516C279.066 22.0802 278.636 21.5577 277.723 20.6478C277.075 19.9994 276.8 19.7454 276.037 19.0922C272.543 16.1056 267.022 12.2771 264.07 10.7919C263.284 10.3977 262.398 10.0405 261.82 9.88376C260.487 9.52508 259.338 9.59586 257.795 10.1285C256.494 10.5786 255.415 11.1648 254.342 12.0102C254.058 12.2342 253.124 13.1322 253.15 13.1576ZM254.692 12.963C255.684 12.1084 256.841 11.4568 258.148 11.0157C259.014 10.7236 259.566 10.6167 260.217 10.6173C260.847 10.6178 261.322 10.7042 262.045 10.9493C263.442 11.4258 265.416 12.5296 268.135 14.3551C271.362 16.5218 274.476 18.9085 276.467 20.7391C277.87 22.0303 278.775 23.1903 278.919 23.8862C279.022 24.3928 278.784 24.532 277.501 24.7156C276.218 24.9021 275.65 25.1415 275.234 25.6733C274.953 26.0328 274.805 26.3897 274.507 27.4074C274.201 28.4608 274.035 28.6985 273.495 28.877C273.278 28.9477 273.16 28.9727 272.615 29.0663C271.867 29.1964 271.633 29.2597 271.273 29.4343C271.062 29.5378 271.058 29.5423 270.823 29.7768C270.621 29.9787 270.571 30.0381 270.494 30.1749C270.352 30.4216 270.248 30.6715 270.121 31.0791C270.057 31.2844 269.95 31.6236 269.884 31.8363C269.818 32.0461 269.72 32.3049 269.67 32.409C269.592 32.574 269.559 32.6186 269.43 32.7478C269.298 32.8799 269.265 32.9036 269.121 32.9642C268.921 33.047 268.713 33.0969 268.301 33.1626C267.475 33.2955 267.338 33.3219 267.088 33.4045C266.735 33.521 266.569 33.6187 266.348 33.8369C266.214 33.9705 266.158 34.0418 266.085 34.1682C265.884 34.522 265.819 34.7362 265.644 35.5979C265.461 36.5042 265.356 36.7645 265.144 36.8606C264.756 37.0336 263.917 36.5961 262.821 35.6544C260.465 33.6245 255.936 27.9794 253.746 24.3373C253.052 23.184 252.631 22.3174 252.314 21.3916C252.034 20.5687 251.928 20.0173 251.916 19.2921C251.899 18.4059 252.034 17.5605 252.342 16.6099C252.685 15.5552 253.195 14.6097 253.825 13.8626C253.919 13.7512 254.015 13.6339 254.04 13.6027C254.15 13.472 254.486 13.1425 254.692 12.963Z" fill="#F47721"/>
</g>
<g opacity="0.2">
<path d="M292.708 55.7712C292.56 55.9199 292.485 56.0993 292.485 56.3102C292.486 56.5211 292.56 56.7006 292.708 56.849C292.865 57.0055 293.049 57.0838 293.259 57.0838C293.47 57.0839 293.649 57.0093 293.798 56.8605C293.946 56.7126 294.021 56.5332 294.021 56.3221C294.021 56.1113 293.943 55.9277 293.786 55.7712C293.638 55.6229 293.458 55.5484 293.247 55.5484C293.036 55.5486 292.856 55.6232 292.708 55.7712Z" fill="#F47721"/>
<path d="M296.822 52.7474C296.822 52.5367 296.897 52.357 297.045 52.2085C297.193 52.0602 297.373 51.9858 297.584 51.9856C297.795 51.9856 297.975 52.0602 298.123 52.2083C298.279 52.3647 298.358 52.5483 298.357 52.7591C298.357 52.9703 298.283 53.1498 298.135 53.298C297.986 53.4466 297.806 53.5211 297.595 53.5209C297.385 53.521 297.201 53.4426 297.045 53.2861C296.897 53.138 296.822 52.9584 296.822 52.7474Z" fill="#F47721"/>
<path fill-rule="evenodd" clip-rule="evenodd" d="M306.078 52.1165C305.677 51.5464 305.202 50.9761 304.657 50.4047C302.421 48.0249 300.061 46.7767 297.579 46.6599C295.327 46.5561 293.23 47.3427 291.285 49.0205C289.316 50.6963 288.318 52.8852 288.29 55.5849C288.251 58.4667 289.378 61.0551 291.674 63.3513C292.111 63.788 292.591 64.2077 293.112 64.6094C292.741 66.0487 292.811 67.0234 293.322 67.5339C293.492 67.7042 293.721 67.8135 294.012 67.8622C294.437 67.9003 294.787 67.78 295.065 67.5024C295.342 67.2249 295.535 66.8021 295.642 66.2326C295.678 66.2451 295.721 66.2633 295.769 66.2883C297.393 66.9471 299.091 67.2792 300.858 67.2841C305.083 67.2615 309.305 65.5788 313.52 62.2382C311.691 62.3891 310.377 61.992 309.576 61.0454C309.003 60.2082 308.588 59.1658 308.33 57.9171C307.998 56.283 307.723 55.186 307.503 54.6276C308.339 54.5701 308.936 54.3593 309.298 53.9969C309.576 53.7194 309.685 53.3688 309.622 52.9452C309.597 52.6546 309.494 52.4184 309.311 52.2362C308.74 51.665 307.662 51.6253 306.078 52.1165ZM292.529 58.5047C291.979 58.504 291.509 58.3111 291.123 57.925C290.737 57.5387 290.543 57.068 290.545 56.5204C290.543 55.9695 290.735 55.5 291.123 55.1122C291.529 54.7062 292.009 54.5033 292.56 54.5047C293.109 54.5019 293.579 54.6965 293.965 55.0828C294.351 55.469 294.545 55.9378 294.545 56.4891C294.545 57.0387 294.34 57.5172 293.934 57.9232C293.546 58.3109 293.079 58.5049 292.529 58.5047ZM300.551 60.0355C300.634 60.5016 300.542 60.8678 300.274 61.1354C300.006 61.4039 299.639 61.4966 299.174 61.4123C298.709 61.3286 298.273 61.0817 297.865 60.6738C297.479 60.2878 297.242 59.8613 297.157 59.3953C297.073 58.9302 297.165 58.5638 297.434 58.2952C297.702 58.0277 298.068 57.9352 298.534 58.0185C299 58.1038 299.427 58.3401 299.813 58.7261C300.22 59.1339 300.467 59.571 300.551 60.0355ZM300.21 52.1804C300.208 52.7311 300.015 53.1987 299.628 53.5848C299.241 53.9724 298.773 54.1666 298.224 54.1665C297.675 54.1667 297.196 53.9621 296.788 53.5542C296.402 53.1681 296.208 52.6995 296.207 52.1495C296.206 51.5999 296.401 51.1321 296.788 50.7446C297.174 50.3584 297.642 50.1645 298.193 50.1634C298.743 50.1643 299.211 50.3585 299.598 50.7446C300.005 51.1523 300.21 51.6315 300.21 52.1804Z" fill="#F47721"/>
</g>
<g opacity="0.2">
<path d="M77.8248 46.5554C73.6723 50.9653 74.1168 58.0103 78.411 62.3045L89.1911 73.0846C89.7736 73.6671 90.7667 73.2564 90.7656 72.434L91.024 70.6619C91.0931 70.1884 91.5128 69.8471 91.9905 69.8759L95.7151 70.1011C96.2251 70.1017 96.6377 69.6891 96.6371 69.1791L96.4231 65.6475C96.3898 65.0951 96.8457 64.6392 97.3976 64.673L100.929 64.8869C101.439 64.8876 101.852 64.4749 101.851 63.965L101.626 60.2404C101.597 59.7627 101.938 59.3425 102.412 59.2738L104.184 59.0155C105.006 59.0166 105.417 58.023 104.835 57.4409L93.7258 46.332C89.3144 41.9206 82.1212 41.9927 77.8248 46.5554ZM84.6038 58.0682C83.8839 58.788 82.7148 58.7865 81.9931 58.0647C81.2713 57.343 81.2698 56.1739 81.9896 55.454C82.7095 54.7342 83.8786 54.7357 84.6003 55.4575C85.3221 56.1792 85.3236 57.3483 84.6038 58.0682ZM89.8183 52.8536C89.0985 53.5735 87.9294 53.5719 87.2076 52.8502C86.4859 52.1284 86.4843 50.9593 87.2042 50.2395C87.924 49.5196 89.0931 49.5212 89.8149 50.2429C90.5366 50.9647 90.5382 52.1338 89.8183 52.8536Z" fill="#F47721"/>
<path d="M62.1225 21.3853C61.8666 21.1294 61.8666 20.7145 62.1225 20.4587C62.3783 20.2028 62.7932 20.2028 63.0491 20.4587L63.2851 20.6947C63.541 20.9506 63.541 21.3655 63.2851 21.6213C63.0293 21.8772 62.6144 21.8772 62.3586 21.6213L62.1225 21.3853Z" fill="#F47721"/>
<path fill-rule="evenodd" clip-rule="evenodd" d="M47.735 18.0288L43.2893 22.4746C43.0334 22.7305 43.0334 23.1453 43.2893 23.4012C44.7704 24.8823 47.1804 24.8823 48.6616 23.4012C50.1428 21.92 50.1428 19.51 48.6616 18.0288C48.4057 17.773 47.9909 17.773 47.735 18.0288ZM47.735 22.4746C46.9251 23.2845 45.691 23.4183 44.7411 22.8761L48.1364 19.4807C48.6787 20.4306 48.545 21.6647 47.735 22.4746Z" fill="#F47721"/>
<path fill-rule="evenodd" clip-rule="evenodd" d="M49.779 15.9848L54.2248 11.5391C54.4806 11.2832 54.8955 11.2832 55.1514 11.5391C56.6325 13.0203 56.6325 15.4303 55.1514 16.9114C53.6702 18.3926 51.2602 18.3926 49.779 16.9114C49.5231 16.6555 49.5231 16.2407 49.779 15.9848ZM51.2309 16.3863C52.1809 16.9285 53.4149 16.7947 54.2248 15.9848C55.0348 15.1749 55.1685 13.9408 54.6263 12.9908L51.2309 16.3863Z" fill="#F47721"/>
<path fill-rule="evenodd" clip-rule="evenodd" d="M40.0698 23.9633C35.7569 19.6504 35.7569 12.6326 40.0698 8.31971C44.3828 4.00673 51.4006 4.00673 55.7135 8.31966L70.6861 23.2922C70.942 23.5481 70.9419 23.963 70.6861 24.2188L55.969 38.9359C55.7131 39.1918 55.2983 39.1918 55.0424 38.9359L40.0698 23.9633ZM67.821 25.2307L69.2963 23.7554L54.787 9.24611C50.985 5.44407 44.7987 5.44407 40.9966 9.24611C37.1946 13.0481 37.1946 19.2345 40.9966 23.0366L55.5059 37.5459L56.981 36.0707L53.8587 32.9484C53.6028 32.6925 53.6028 32.2777 53.8587 32.0218C54.1145 31.7659 54.5294 31.7659 54.7852 32.0218L57.9076 35.1442L59.4594 33.5923L54.5274 28.6604C54.2715 28.4045 54.2715 27.9897 54.5274 27.7338C54.7833 27.4779 55.1981 27.4779 55.454 27.7338L60.386 32.6658L61.9377 31.114L58.8154 27.9917C58.5595 27.7358 58.5595 27.321 58.8154 27.0651C59.0712 26.8092 59.4861 26.8092 59.742 27.0651L62.8643 30.1874L64.4161 28.6356L59.4841 23.7037C59.2282 23.4478 59.2283 23.0329 59.4841 22.7771C59.7399 22.5212 60.1548 22.5212 60.4107 22.7771L65.3427 27.7091L66.8944 26.1573L63.7721 23.035C63.5162 22.7791 63.5163 22.3642 63.7721 22.1084C64.0279 21.8525 64.4428 21.8525 64.6987 22.1084L67.821 25.2307Z" fill="#F47721"/>
<path d="M9.24761 -18.0083C9.09886 -17.8595 9.02436 -17.6801 9.02456 -17.4692C9.02488 -17.2584 9.09926 -17.0788 9.24761 -16.9304C9.40411 -16.7739 9.58773 -16.6956 9.79819 -16.6956C10.0089 -16.6955 10.1882 -16.7701 10.337 -16.9189C10.4849 -17.0668 10.5596 -17.2462 10.56 -17.4573C10.5602 -17.6681 10.4819 -17.8517 10.3254 -18.0082C10.177 -18.1565 9.99739 -18.231 9.78633 -18.231C9.57515 -18.2309 9.39557 -18.1562 9.24761 -18.0083Z" fill="#F47721"/>
<path d="M13.3611 -21.032C13.3611 -21.2428 13.4357 -21.4224 13.5843 -21.5709C13.7325 -21.7192 13.9119 -21.7936 14.1229 -21.7939C14.3342 -21.7938 14.5138 -21.7192 14.6619 -21.5711C14.8183 -21.4147 14.8969 -21.2311 14.8964 -21.0204C14.8963 -20.8092 14.822 -20.6297 14.6738 -20.4814C14.5251 -20.3328 14.3456 -20.2583 14.1346 -20.2585C13.9242 -20.2584 13.7406 -20.3368 13.5841 -20.4933C13.436 -20.6414 13.3615 -20.821 13.3611 -21.032Z" fill="#F47721"/>
<path fill-rule="evenodd" clip-rule="evenodd" d="M22.6174 -21.6629C22.2161 -22.2331 21.7415 -22.8033 21.1957 -23.3747C18.9603 -25.7545 16.6005 -27.0027 14.1185 -27.1195C11.8663 -27.2233 9.76867 -26.4367 7.82398 -24.7589C5.85472 -23.0831 4.85673 -20.8942 4.82877 -18.1945C4.78999 -15.3128 5.91704 -12.7243 8.21325 -10.4281C8.64996 -9.99141 9.13015 -9.57171 9.65134 -9.17006C9.28046 -7.73073 9.35046 -6.75601 9.86096 -6.24551C10.0313 -6.07519 10.2605 -5.96595 10.5516 -5.91719C10.9758 -5.87913 11.326 -5.99945 11.6037 -6.27706C11.8811 -6.55453 12.0739 -6.9773 12.1812 -7.54685C12.2173 -7.53434 12.2597 -7.51609 12.3083 -7.49112C13.9321 -6.83227 15.63 -6.50017 17.3972 -6.49529C21.6223 -6.51797 25.8437 -8.20063 30.059 -11.5412C28.2305 -11.3903 26.916 -11.7874 26.1147 -12.734C25.5425 -13.5712 25.1272 -14.6136 24.8686 -15.8623C24.5373 -17.4965 24.262 -18.5935 24.0418 -19.1518C24.8779 -19.2094 25.4751 -19.4202 25.8375 -19.7826C26.115 -20.06 26.2238 -20.4107 26.1608 -20.8342C26.1362 -21.1248 26.0328 -21.361 25.8505 -21.5432C25.2791 -22.1144 24.2013 -22.1541 22.6174 -21.6629ZM9.06823 -15.2747C8.51823 -15.2755 8.04814 -15.4683 7.66201 -15.8544C7.27568 -16.2407 7.08228 -16.7114 7.08391 -17.259C7.08235 -17.8099 7.27457 -18.2794 7.66234 -18.6672C8.06835 -19.0732 8.54854 -19.2761 9.09958 -19.2747C9.64841 -19.2775 10.1178 -19.0829 10.5042 -18.6966C10.8903 -18.3104 11.0844 -17.8416 11.0839 -17.2904C11.0841 -16.7407 10.8793 -16.2622 10.4733 -15.8562C10.0855 -15.4685 9.6179 -15.2745 9.06823 -15.2747ZM17.09 -13.7439C17.1734 -13.2778 17.0808 -12.9116 16.8133 -12.644C16.5447 -12.3755 16.1783 -12.2829 15.7133 -12.3671C15.2485 -12.4508 14.8119 -12.6977 14.404 -13.1056C14.018 -13.4917 13.7813 -13.9181 13.6963 -14.3841C13.612 -14.8492 13.7046 -15.2156 13.9731 -15.4842C14.2407 -15.7517 14.607 -15.8442 15.0731 -15.7609C15.5388 -15.6756 15.9657 -15.4393 16.3517 -15.0533C16.7596 -14.6455 17.0061 -14.2084 17.09 -13.7439ZM16.7487 -21.599C16.7475 -21.0483 16.5537 -20.5807 16.1675 -20.1946C15.78 -19.8071 15.312 -19.6128 14.7627 -19.613C14.2138 -19.6127 13.735 -19.8174 13.3272 -20.2252C12.941 -20.6113 12.7467 -21.0799 12.7457 -21.6299C12.7454 -22.1795 12.9398 -22.6473 13.3273 -23.0348C13.7135 -23.421 14.1809 -23.6149 14.7318 -23.616C15.2819 -23.6151 15.7506 -23.4209 16.1368 -23.0348C16.5446 -22.6271 16.7491 -22.1479 16.7487 -21.599Z" fill="#F47721"/>
</g>
<g opacity="0.2">
<path d="M291.94 -14.835C291.791 -14.6862 291.717 -14.5068 291.717 -14.2959C291.717 -14.0851 291.792 -13.9055 291.94 -13.7571C292.097 -13.6006 292.28 -13.5224 292.491 -13.5223C292.701 -13.5222 292.881 -13.5969 293.029 -13.7456C293.177 -13.8936 293.252 -14.0729 293.252 -14.2841C293.253 -14.4949 293.174 -14.6784 293.018 -14.8349C292.87 -14.9833 292.69 -15.0577 292.479 -15.0577C292.268 -15.0576 292.088 -14.9829 291.94 -14.835Z" fill="#F47721"/>
<path d="M296.054 -17.8587C296.054 -18.0695 296.128 -18.2491 296.277 -18.3977C296.425 -18.5459 296.604 -18.6203 296.815 -18.6206C297.027 -18.6205 297.206 -18.5459 297.354 -18.3979C297.511 -18.2414 297.589 -18.0578 297.589 -17.8471C297.589 -17.6359 297.514 -17.4564 297.366 -17.3082C297.218 -17.1595 297.038 -17.085 296.827 -17.0852C296.617 -17.0851 296.433 -17.1635 296.277 -17.32C296.128 -17.4681 296.054 -17.6477 296.054 -17.8587Z" fill="#F47721"/>
<path fill-rule="evenodd" clip-rule="evenodd" d="M305.31 -18.4896C304.909 -19.0598 304.434 -19.63 303.888 -20.2014C301.653 -22.5812 299.293 -23.8294 296.811 -23.9462C294.559 -24.0501 292.461 -23.2634 290.516 -21.5856C288.547 -19.9098 287.549 -17.7209 287.521 -15.0212C287.482 -12.1395 288.61 -9.55106 290.906 -7.25485C291.342 -6.81814 291.823 -6.39844 292.344 -5.99679C291.973 -4.55745 292.043 -3.58273 292.553 -3.07223C292.724 -2.90192 292.953 -2.79267 293.244 -2.74391C293.668 -2.70585 294.019 -2.82617 294.296 -3.10378C294.574 -3.38126 294.766 -3.80402 294.874 -4.37358C294.91 -4.36106 294.952 -4.34281 295.001 -4.31785C296.625 -3.65899 298.322 -3.3269 300.09 -3.32201C304.315 -3.34469 308.536 -5.02735 312.751 -8.36795C310.923 -8.21699 309.608 -8.61414 308.807 -9.56077C308.235 -10.3979 307.82 -11.4403 307.561 -12.689C307.23 -14.3232 306.954 -15.4202 306.734 -15.9785C307.57 -16.0361 308.168 -16.2469 308.53 -16.6093C308.807 -16.8868 308.916 -17.2374 308.853 -17.6609C308.829 -17.9516 308.725 -18.1877 308.543 -18.37C307.972 -18.9411 306.894 -18.9808 305.31 -18.4896ZM291.761 -12.1014C291.211 -12.1022 290.741 -12.295 290.355 -12.6811C289.968 -13.0675 289.775 -13.5381 289.776 -14.0857C289.775 -14.6366 289.967 -15.1061 290.355 -15.4939C290.761 -15.8999 291.241 -16.1028 291.792 -16.1014C292.341 -16.1043 292.81 -15.9096 293.197 -15.5233C293.583 -15.1372 293.777 -14.6683 293.776 -14.1171C293.777 -13.5674 293.572 -13.089 293.166 -12.683C292.778 -12.2952 292.31 -12.1012 291.761 -12.1014ZM299.783 -10.5706C299.866 -10.1045 299.773 -9.73833 299.506 -9.47076C299.237 -9.20221 298.871 -9.10959 298.406 -9.19387C297.941 -9.27756 297.504 -9.52447 297.097 -9.93237C296.711 -10.3184 296.474 -10.7448 296.389 -11.2108C296.305 -11.6759 296.397 -12.0424 296.666 -12.3109C296.933 -12.5785 297.3 -12.6709 297.766 -12.5876C298.231 -12.5023 298.658 -12.2661 299.044 -11.8801C299.452 -11.4722 299.699 -11.0351 299.783 -10.5706ZM299.441 -18.4258C299.44 -17.875 299.246 -17.4074 298.86 -17.0213C298.473 -16.6338 298.005 -16.4395 297.455 -16.4397C296.906 -16.4394 296.428 -16.6441 296.02 -17.0519C295.634 -17.4381 295.439 -17.9066 295.438 -18.4566C295.438 -19.0062 295.632 -19.474 296.02 -19.8615C296.406 -20.2477 296.873 -20.4416 297.424 -20.4427C297.974 -20.4418 298.443 -20.2476 298.829 -19.8615C299.237 -19.4538 299.442 -18.9746 299.441 -18.4258Z" fill="#F47721"/>
</g>
<g opacity="0.2">
</g>
</g>
<defs>
<clipPath id="clip0">
<rect width="284.84" height="64" fill="white"/>
</clipPath>
</defs>
</svg>
