<svg xmlns="http://www.w3.org/2000/svg" xmlns:xlink="http://www.w3.org/1999/xlink" width="1410" height="1420.23" viewBox="0 0 1410 1420.23">
  <defs>
    <mask id="a" x="429.77" y="463.57" width="119.73" height="216.67" maskUnits="userSpaceOnUse">
      <path d="M472.5,617.23l-8,9,85,54-2.5-39.5c-7-2-9.5-4-14-9.5-6.63-8.1-8.33-30.5-8-41,5.24,1,7.46,1.41,10.18,1.3,6.73-.26,12.09-5.9,12.72-12.61,5.31-56.22-15.39-97-22.9-102.19-8-5.5-10.5-14.5-39-13s-53,23.5-56,60.5,24,51,37.5,61.5C478.3,594.13,475.33,610.23,472.5,617.23Z" fill="#fcd6bc"/>
    </mask>
    <linearGradient id="b" x1="505.47" y1="842.77" x2="505.47" y2="799.77" gradientTransform="matrix(1, 0, 0, -1, 0, 1420)" gradientUnits="userSpaceOnUse">
      <stop offset="0" stop-color="#f9bb90"/>
      <stop offset="1" stop-color="#f9bb90" stop-opacity="0"/>
    </linearGradient>
  </defs>
  <rect width="1410" height="1420.23" fill="#1d2529"/>
  <path d="M184.45,919.71c-26.74,42-42.43,88.39-62.38,132.38-16.62,36.64-38.76,72-54.79,108.58,0,10.59-5.77,23.61,7.21,30.09,15.74,7.87,28.21,24.8,32.37,38.1,2.83,9,6,14.13,17.56,18.86,28,11.39,64.38,16.46,95.29,21,74.86,10.88,152,16.93,228.19,20.29,76.46,3.36,153.31,2,229.88,2,22.9,0,45.41.27,68.16-1.91,70.48-6.76,140.07-15.12,209.7-25.71,88.25-13.43,174.24-33.1,260.56-51.82,39.87-8.64,79.69-17.89,119.8-25.9,24.07-4.81,29.86-22.72,40.1-37.91,23.35-34.6,16.65-80.22,32.51-117.52,15.91-37.45,18.75-81.58-15.21-114.48-24.23-23.48-56.61-49.6-89.91-66.29-56.25-28.18-70.29-55.81-97.9-101.14a788,788,0,0,0-55-79.43c-21.11-26.56-44.44-55.05-73.53-77.34-37-28.35-125.11-62-186-62.24-112-.42-163.83,2.64-273.09,22.05-55.11,9.79-118.19,14.61-167.24,35.15-38.25,16-80.14,34.5-99.48,64.47-34.67,53.75-69.17,97-78.51,158.1C267.53,842.61,204.87,887.61,184.45,919.71Z" fill="#333d43"/>
  <g>
    <rect y="1090.23" width="1410" height="330" fill="#424e54"/>
    <rect x="79" y="1136.23" width="406" height="119" fill="#5f6b71"/>
    <rect x="79" y="1285.23" width="406" height="135" fill="#5f6b71"/>
    <rect x="512" y="1136.23" width="406" height="119" fill="#5f6b71"/>
    <circle cx="715" cy="1196.23" r="12" fill="#f7f8f8"/>
    <rect x="945" y="1136.23" width="406" height="119" fill="#5f6b71"/>
    <rect x="512" y="1285.23" width="406" height="135" fill="#5f6b71"/>
    <rect x="945" y="1285.23" width="406" height="135" fill="#5f6b71"/>
    <circle cx="282" cy="1196.23" r="12" fill="#f7f8f8"/>
    <circle cx="282" cy="1352.23" r="12" fill="#f7f8f8"/>
    <circle cx="715" cy="1352.23" r="12" fill="#f7f8f8"/>
  </g>
  <g>
    <rect x="242" y="874.23" width="168" height="216" fill="#1d2529"/>
    <path d="M242,874.23H410l-9,81.11a10,10,0,0,1-9.94,8.89H261a10,10,0,0,1-9.94-8.89Z" fill="#727e84"/>
    <path d="M242,1090.23H410l-7.28-15.3a10,10,0,0,0-9-5.7H258.31a10,10,0,0,0-9,5.7Z" fill="#6a767c"/>
    <circle cx="392.5" cy="890.73" r="7.5" fill="#1d2529"/>
    <path d="M271,1069.23c.33-17.5,3.9-57.7,15.5-78.5H366c8.5,18,14,57.67,15.5,78.5Z" fill="#424e54"/>
    <path d="M372.08,1055.34l-11.72-54.57,6-.74c7.68-1,18.36.18,25.3,6.3,4.5,4,6.88,9.57,6.88,16.18,0,19.22-13.5,28.65-20.63,31Zm1.69-44.51,6.21,28.9c3.55-3,7.52-8.28,7.52-17.22,0-3.46-1-6-3.16-7.93C381.77,1012.31,377.76,1011.16,373.77,1010.83Z" fill="#424e54"/>
  </g>
  <g>
    <path d="M891,866.73c-8.4-1.2-13.83.5-15.5,1.5l-7.5,16,10.5,9,48.5,55c-1,3.17-3,10-3,12s2,3.5,3,4c6.33-6.83,19.4-21.5,21-25.5,2-5,5.5-41,3.5-45.5S901.5,868.23,891,866.73Z" fill="#fcd6bc"/>
    <path d="M261.46,1045.59c1.8-4,3.61-8.09,5.59-12,4.45-8.92,8.78-20.21,10.62-29.89a20.26,20.26,0,0,1,3.43-4.61c.89-.84,1.78-2.08,3-2.42a12.51,12.51,0,0,1,3.06-.06c2.22,0,4.66-.23,6.82.32,2.95.77,10-4.16,8.5-1.16-2,4-7.51,12.94-7.51,16.44,0,2.61-.43,5.65.06,8.23.81,4.23,2.91,9,4.41,13.12,2,5.36,3.63,10.92,5.83,16.18a75.73,75.73,0,0,1,3.41,8.72c.66,2.39,1.37,4.7,2.16,7a77.79,77.79,0,0,0,5.07,11.4,21.32,21.32,0,0,0,5.22,7,15.53,15.53,0,0,0,9.29,3c1,0,3-.62,3.92-.21.21.1,1,.18,1,.38a10,10,0,0,1,0,2.57,9,9,0,0,1-1.18,3.23c-2.23,3.47-5.94,5.41-10.07,4.38-4.36-1.09-8.9-1.18-13-3a12.6,12.6,0,0,1-5-3.93c-1.31-1.52-1.52-4.43-2.36-6.26-1.95-4.26-3.21-8.7-5.13-13a10.27,10.27,0,0,0-4.58-5,5.38,5.38,0,0,0-4.93.4c-4.94,3.36-8.77,8.25-13.43,12-8.93,7.25-20,13.3-31.21,15.79-5.76,1.28-11.64,1.57-17.31,3.07a62.73,62.73,0,0,1-16.28,2.18,38.53,38.53,0,0,1-9.89-1.25c-2.07-.52-4.07-6.39-4.19-8.19,1.65-3.27,13.16-3.85,15.65-4.27,1.89-.29,13.49-4.23,15.33-4.69a45.21,45.21,0,0,0,5.23-2.18,58.07,58.07,0,0,0,11-5.65c3.29-2.19,5.57-3.44,8-6.42C257.08,1060.68,258.26,1052.77,261.46,1045.59Z" fill="#fcd6bc"/>
    <path d="M739,937.23c31.2-16.4,117-40.83,156-51l-53.5,65.5L665,1091.23c-32.67-38.33-97-115.1-93-115.5,5-.5,57.5-19.5,60.5-18,2.4,1.2,2.67,4.84,2.5,6.5,3-.66,9.7-1.8,12.5-1s4.17,4.34,4.5,6c4.17-3.5,13.5-10.6,17.5-11s7.33,3.17,8.5,5C685.33,961.4,707.8,953.63,739,937.23Z" fill="#003f6a"/>
    <path d="M758,979.23c22-23.2,84.5-65.33,113-83.5l24-9.5c8-.83,25.7,3.2,32.5,26,8.5,28.5,0,45.5-21,67-16.8,17.2-162.33,105.17-233,147l-33-16.5C670.5,1075.9,736,1002.43,758,979.23Z" fill="#004672"/>
    <path d="M459,1049.73c0-27,6.5-44.5,14-70.5l32.5-29,86.5,23.5c2.67,1.17,12.2,12.2,15,15,3,6.5,7.5,17,3,26,24,25,193.76,214,199.5,248.5,3.2,19.2-3.33,241-7,349.5-16-67-49.7-210.3-56.5-247.5s-2.83-66.17,0-76C652.33,1220.4,459,1116.81,459,1049.73Z" fill="#266287"/>
    <path d="M625,688.23c-16.8-24-32.33-32.66-38-34l13.5,164.5c15.17,20.67,48.1,63.6,58.5,70s144.67,5.67,210.5,4.5l10-28c-35.67-5.83-111.6-18.5-130-22.5s-47.67-5.33-60-5.5C675,797.57,641.8,712.23,625,688.23Z" fill="#b3d7ec"/>
    <path d="M473,979.23l-45.5-170-31.5-162c23.17-7.5,77.3-21.4,108.5-17,39,5.5,99,11,118,70.5,15.2,47.6-4.33,186.5-4.5,260.5-11,6-18,11.5-42.5,15.5C553.38,980.35,480.83,976.4,473,979.23Z" fill="#4da3d4"/>
    <path d="M470,614.73l59,3.5,16.5,33L491,636.73l-36.5-13Z" fill="#0073bb"/>
    <path d="M323.5,817.23c13.6-44,54-131.66,72.5-170,9.5-2.5,9.5-2.5,27,0h0c44.76,6.4,40.5,101,6,158.5-27.6,46-95.5,146.5-126,191a62.81,62.81,0,0,1-14,7,19.28,19.28,0,0,1-13,0C286.17,959.9,309.9,861.23,323.5,817.23Z" fill="#b3d7ec"/>
    <path d="M472.5,617.23l-8,9,85,54-2.5-39.5c-7-2-9.5-4-14-9.5-6.63-8.1-8.33-30.5-8-41,5.24,1,7.46,1.41,10.18,1.3,6.73-.26,12.09-5.9,12.72-12.61,5.31-56.22-15.39-97-22.9-102.19-8-5.5-10.5-14.5-39-13s-53,23.5-56,60.5,24,51,37.5,61.5C478.3,594.13,475.33,610.23,472.5,617.23Z" fill="#fcd6bc"/>
    <g mask="url(#a)">
      <path d="M495.5,583.23c10,3.6,23.83,6.17,29.5,7l4,13c1.17,5.67.7,17-10.5,17s-29.33-28.66-37-43C482,577.73,485.5,579.63,495.5,583.23Z" fill="url(#b)"/>
    </g>
    <path d="M414,634.23c1.6-3.6,6-4.5,8-4.5,11.33,0,37.6.9,52,4.5s59,33,75.5,46c1.5-6.16,2.5-21,2.5-27,0-5.33-3-17-3-22,.5-.5,2.2-.9,5,1.5,3.5,3,2.11,14.12,1.5,22-.5,6.5-3.17,20.34-6,25.5-19.83-8.5-69.8-29-79-33s-35.83-6.66-48-7.5l-6,1.5A5.42,5.42,0,0,1,414,634.23Z" fill="#268fca"/>
    <path d="M461.5,621.23c8,1.5,27.3,6.3,40.5,13.5s40.33,35.34,47.5,45.5c.5-6.5-8.3-27.5-9.5-35.5s-8.5-21.16-12-26.5a3.84,3.84,0,0,1,2-4c2-1.2,6.17,1.17,8,2.5,3.67,2.34,11,8.6,11,15,0,3.81,3.5,11.5,3,27.5a79.46,79.46,0,0,1-2.5,21c-10.33-8-45.5-31.9-65.5-39.5s-48-9.16-59.5-9c-1.33-.66-3.7-2.5-2.5-4.5,1.5-2.5,20.5-14.5,33-14.5,6.8,0,14.83-1,19-.5l-1.5,5Z" fill="#80bde0"/>
    <path d="M504.69,456.65a15.5,15.5,0,0,0-30.1-1.17,15.48,15.48,0,0,0-15.91,2.26,18,18,0,0,0-28,19.54c-.4,0-.81,0-1.22,0a15.5,15.5,0,0,0-13.92,22.32,6.49,6.49,0,0,0-2.58,5.18c0,.26,0,.52,0,.78a15.51,15.51,0,0,0,8,24.07c0,.21,0,.43,0,.65a11,11,0,0,0,5.14,9.31,11,11,0,0,0,5,18.32,15.5,15.5,0,0,0,11,12.74,6.09,6.09,0,0,0-.1,1.13,6.51,6.51,0,0,0,11,4.69c0,.1,0,.21,0,.31a5.5,5.5,0,0,0,11,0,5.43,5.43,0,0,0-.72-2.71,6.5,6.5,0,0,0-2.74-11.7,15.59,15.59,0,0,0,1.46-6.59,15.39,15.39,0,0,0-2.41-8.3,15.5,15.5,0,0,0-6.21-24A11,11,0,0,0,456,510.68,15.51,15.51,0,0,0,463,498.89a9.67,9.67,0,0,0,2.54.34,9.56,9.56,0,0,0,4.46-1.1,6.5,6.5,0,0,0,12-3.4c0-.17,0-.34,0-.51a15.52,15.52,0,0,0,20.64-11.08,6.57,6.57,0,0,0,3.9-2.27,6.5,6.5,0,0,0,9.24-1.32,12.46,12.46,0,0,0,7.74,2.68,6.5,6.5,0,1,0,11-6.61A12.5,12.5,0,0,0,515.3,460.3a9.5,9.5,0,0,0-7.8-4.07A9.65,9.65,0,0,0,504.69,456.65Z" fill="#424e54" fill-rule="evenodd"/>
    <path d="M445.21,529.74c5.55-2,10.4,2.56,12.13,5.12L466,563c-2.31.57-8.83.34-16.46-5.12C440,551.08,438.29,532.3,445.21,529.74Z" fill="#fcd6bc"/>
  </g>
  <g>
    <rect x="1142" y="869.23" width="3" height="68" fill="#eef0f0"/>
    <rect x="1034" y="1020.23" width="216" height="400" fill="#9ca5a9"/>
    <path d="M1130.67,853.16c-28.07-44.72,33.18-61.24,19.82-2.71Z" fill="#eef0f0"/>
    <path d="M1147.85,843.69c35.89-33.28,61.51,19.64,5.9,17.59Z" fill="#eef0f0"/>
    <path d="M1154.27,858.48c48.5,6.56,23.92,60-9.83,15.73Z" fill="#eef0f0"/>
    <path d="M1147.81,869.31c6.76,48.47-51.31,39.19-17.79-5.23Z" fill="#eef0f0"/>
    <path d="M1129.87,869.05c-48.1,9-41.54-49.42,4.4-18Z" fill="#eef0f0"/>
    <circle cx="1142.5" cy="858.73" r="13.5" fill="#5f6b71"/>
    <path d="M1142.5,937.24c5.67-15.17,26.4-45.4,64-45C1209.5,933.24,1179,933.74,1142.5,937.24Z" fill="#9ca5a9"/>
    <path d="M1143,937.23c-4.68-12.47-21.79-37.32-52.83-37C1087.69,933.94,1112.87,934.36,1143,937.23Z" fill="#9ca5a9"/>
    <path d="M1198,934.23H1087l16.5,86H1180Z" fill="#9ca5a9"/>
    <path d="M1090,1011.23l9,9h87l9-9Z" fill="#d5d8da"/>
  </g>
  <g>
    <path d="M851,638.38V408.67a9.94,9.94,0,0,0-7.75-9.71c-64-14.36-120.45-20.2-191.74-20.69a10,10,0,0,0-10,10v235a10,10,0,0,0,10,10c61.88.27,126.24,3.26,187.39,15A10.15,10.15,0,0,0,851,638.38Z" fill="#9cdb90"/>
    <path d="M851,712.35V693.66a9.73,9.73,0,0,0-7.14-9.46A291.13,291.13,0,0,0,777,674.88a9.78,9.78,0,0,0-10,9.85v16.36a10,10,0,0,0,9.64,10c22.31.86,44.93,2.16,66.72,7.21A6.21,6.21,0,0,0,851,712.35Z" fill="#39b620"/>
    <path d="M941.81,618.72c21.89-6,52.69-14.23,52.69-20.49v157c0,8.64-28.67,11.3-48.67,13.27a10.31,10.31,0,0,1-11.33-10.17v-130A9.94,9.94,0,0,1,941.81,618.72Z" fill="#b3e8e5"/>
    <path d="M916.12,581.9c39.8-4.93,102.38-14.53,102.38-22.17v-71c0,22.06-63.89,29.48-103.61,30.79A10.18,10.18,0,0,0,905,529.65V572A9.91,9.91,0,0,0,916.12,581.9Z" fill="#b3e8e5"/>
    <path d="M878,720.08V572a9.7,9.7,0,0,1,11.13-9.72c31.09,4.75,105.37,18.52,105.37,35.93v157c0-14.64-78.13-22.58-107.39-25.2A10,10,0,0,1,878,720.08Z" fill="#9cdb90"/>
    <path d="M968.5,527.86V465.12a9.52,9.52,0,0,1,13.85-8.7c17,8.89,36.15,21.6,36.15,32.81v70.5c0-6.29-25.45-16.34-43-22.23A10.21,10.21,0,0,1,968.5,527.86Z" fill="#9cdb90"/>
    <path d="M665,439.73v-26.2a5,5,0,0,1,5.27-5c39.86,2.23,104.13,5.16,158.41,17.79a5,5,0,0,1,3.82,4.84v25a5,5,0,0,1-6,4.92c-49.21-9.55-100.29-15.94-156.52-16.3A5,5,0,0,1,665,439.73Z" fill="#c4e9bc"/>
    <path d="M665,487V460.35a5,5,0,0,1,5.12-5c59,1.56,104.31,5.55,158.51,18a5,5,0,0,1,3.87,4.86v26a5,5,0,0,1-5.91,4.94c-51-9.08-100.5-14.26-156.83-17.19A5,5,0,0,1,665,487Z" fill="#c4e9bc"/>
    <path d="M665,535V508.53a5,5,0,0,1,5.27-5c39.85,2.19,104.1,4.66,158.37,16.82a5,5,0,0,1,3.86,4.85v24.14a5,5,0,0,1-5.82,4.95c-51-8.08-100.56-11.48-156.92-14.32A5,5,0,0,1,665,535Z" fill="#c4e9bc"/>
  </g>
</svg>
