<svg width="965" height="994" viewBox="0 0 965 994" fill="none" xmlns="http://www.w3.org/2000/svg">
<g clip-path="url(#clip0)">
<path fill-rule="evenodd" clip-rule="evenodd" d="M965 821.244C858.902 926.358 683.908 995 486 995C283.675 995 105.298 923.259 0 814.152L0 995L486 995L965 995V821.244Z" fill="#1D2529"/>
<path fill-rule="evenodd" clip-rule="evenodd" d="M776.458 810.562L757.283 782.547L795.415 761.4L807.08 796.019L802.449 798.627L814.063 816.378L825.101 810.001L842.873 830.061L883.431 811.975L940.846 874.543L870.973 937.582L753.165 975.791L733.788 880.308L770.408 863.954L766.61 838.131L787.276 829.679L780.782 809.423L776.458 810.562ZM861.718 930.54C863.35 922.73 864.7 914.914 861.59 907.527C852.16 885.131 836.232 874.558 826.994 878.448C817.756 882.338 815.223 904.979 827.341 926.043C831.44 933.168 837.752 936.245 843.469 939.032L843.469 939.032L843.469 939.032L843.469 939.032L843.469 939.032L843.47 939.032C844.619 939.592 845.744 940.141 846.823 940.708C846.823 940.708 848.965 943.562 854.517 941.371C860.509 939.008 861.718 930.54 861.718 930.54ZM788.927 787.96C789.669 789.384 790.169 790.822 790.426 792.15L783.479 795.766C782.539 794.793 781.649 793.558 780.907 792.134C778.658 787.813 778.631 783.376 780.846 782.224C783.06 781.071 786.679 783.639 788.927 787.96ZM797.204 847.712C796.946 846.383 796.446 844.946 795.705 843.521C793.456 839.2 789.838 836.632 787.623 837.785C785.409 838.938 785.436 843.374 787.685 847.695C788.426 849.12 789.317 850.354 790.257 851.327L797.204 847.712ZM818.35 832.929C819.092 834.354 819.592 835.792 819.849 837.12L812.902 840.736C811.962 839.762 811.072 838.528 810.33 837.103C808.082 832.783 808.054 828.346 810.269 827.193C812.484 826.041 816.102 828.609 818.35 832.929ZM772.386 930.26L761.78 897.907L774.571 892.918L785.075 925.761L772.386 930.26ZM865.415 850.978L872.189 862.628L884.655 854.999L877.885 843.154L865.415 850.978Z" fill="#1D2529"/>
<path d="M841.592 710.646C847.846 726.93 849.91 737.91 850.161 741.364L847.51 748.424L876.094 727.131L868.571 727.65C865.333 726.421 855.404 721.3 841.592 710.646Z" fill="#1D2529"/>
<path fill-rule="evenodd" clip-rule="evenodd" d="M867.319 764.296L853.316 743.086L867.522 730.168L885.486 752.04L892.74 746.156L897.795 752.777L890.852 758.768L925.022 800.512L944.508 792.547L985.643 837.381L912.159 895.896L883.688 835.521L900.751 818.349L871.534 771.327L864.396 775.855L860.385 769.243L867.319 764.296ZM878.985 755.145C878.565 753.859 877.892 752.494 876.98 751.172C874.216 747.161 870.308 745.059 868.253 746.476C866.197 747.893 866.772 752.293 869.536 756.303C870.448 757.625 871.484 758.74 872.536 759.59L878.985 755.145ZM913.455 803.478C914.367 804.801 915.041 806.165 915.46 807.452L909.012 811.897C907.959 811.047 906.923 809.932 906.011 808.609C903.247 804.599 902.673 800.2 904.728 798.783C906.784 797.366 910.691 799.468 913.455 803.478Z" fill="#1D2529"/>
<path d="M704.047 810.489C702.903 825.229 700.196 834.549 698.986 837.367L693.667 842.217L728.229 833.503L721.246 831.755C718.844 829.848 712.042 822.925 704.047 810.489Z" fill="#1D2529"/>
<path fill-rule="evenodd" clip-rule="evenodd" d="M705.882 864.468L701.075 839.512L719.148 833.024L727.359 860.109L736.314 857.454L738.446 865.507L729.738 868.38L745.304 920.032L766.354 920.141L787.17 977.315L696.872 1003.21L693.71 936.53L716.051 927.207L707.082 872.578L698.754 874.025L697.582 866.381L705.882 864.468ZM720.164 860.486C720.27 859.138 720.17 857.619 719.835 856.048C718.818 851.285 716.015 847.846 713.573 848.367C711.132 848.888 709.976 853.172 710.993 857.935C711.328 859.506 711.858 860.933 712.505 862.121L720.164 860.486ZM733.483 918.339C733.819 919.91 733.918 921.428 733.812 922.777L726.153 924.412C725.506 923.224 724.977 921.797 724.641 920.226C723.625 915.463 724.78 911.179 727.221 910.658C729.663 910.137 732.467 913.575 733.483 918.339Z" fill="#1D2529"/>
<path d="M747.245 716.561C754.452 749.51 755.264 771.037 754.769 777.682L747.81 790.247L807.519 758.952L793.226 757.525C787.48 754.152 770.24 741.235 747.245 716.561Z" fill="#1D2529"/>
<path fill-rule="evenodd" clip-rule="evenodd" d="M666.424 898.575C668.202 894.916 672.566 882.541 675.794 862.308C683.562 881.267 690.641 892.316 693.209 895.471L701.161 899.372L691.197 900.526L701.981 928.029L721.817 934.302L725.247 963.907L678.362 946.123L667.77 903.241L659.574 904.19L666.424 898.575ZM689.591 917.847C689.735 916.55 689.628 915.119 689.229 913.67C689.168 913.446 689.1 913.225 689.027 913.009L684.442 914.387L685.793 918.892L689.591 917.847ZM684.425 919.268L680.124 920.45C679.337 919.408 678.698 918.123 678.3 916.675C678.262 916.538 678.227 916.402 678.195 916.266L683.083 914.796L684.425 919.268ZM684.035 913.028L688.491 911.688C687.074 908.735 684.602 906.873 682.255 907.096L684.035 913.028ZM680.889 907.481L682.676 913.437L677.948 914.858C677.57 911.511 678.729 908.536 680.889 907.481Z" fill="#1D2529"/>
<path fill-rule="evenodd" clip-rule="evenodd" d="M925.63 765.064C923.48 764.121 916.935 760.315 907.951 752.63C911.626 763.866 912.647 771.369 912.698 773.716L910.662 778.403L915.473 775.185L921.017 791.304L914.646 801.478L924.208 815.771L938.163 790.424L926.783 767.618L930.74 764.971L925.63 765.064ZM922.655 782.197C922.107 781.68 921.619 781.011 921.252 780.226C921.195 780.104 921.142 779.982 921.094 779.859L923.624 778.751L924.715 781.235L922.655 782.197ZM925.457 780.889L927.789 779.8C927.745 779.048 927.545 778.245 927.179 777.459C927.144 777.385 927.109 777.312 927.072 777.241L924.374 778.422L925.457 780.889ZM923.295 778.001L920.835 779.078C920.354 777.251 920.744 775.508 921.859 774.729L923.295 778.001ZM922.603 774.387L924.045 777.672L926.654 776.53C925.569 774.917 923.947 774.043 922.603 774.387Z" fill="#1D2529"/>
<g clip-path="url(#clip1)">
<path d="M936.023 708.393L935.823 708.545L935.978 708.855C936.309 709.531 936.368 710.704 936.155 712.287C936.054 713.025 935.509 715.322 935.245 716.124C934.429 718.595 933.469 720.401 932.73 720.843C932.517 720.971 932.467 720.985 932.307 720.947C932.14 720.907 932.074 720.84 930.829 719.459C928.831 717.236 927.216 715.547 926.593 715.018L926.389 714.845L926.441 715.029C926.47 715.129 926.669 715.805 926.884 716.535C927.425 718.37 927.728 719.412 927.723 719.431C927.721 719.437 927.581 719.494 927.405 719.552C926.893 719.73 926.102 720.092 925.663 720.355C924.886 720.82 924.237 721.473 923.552 722.479C923.374 722.737 923.21 722.974 923.182 723.007C923.141 723.053 922.676 722.806 921.094 721.902L919.058 720.743L919.591 721.659C920.129 722.582 920.883 723.752 922.008 725.392C922.341 725.885 922.845 726.619 923.12 727.018C923.699 727.869 923.717 727.917 923.513 728.211C923.402 728.369 923.325 728.425 922.925 728.639C921.194 729.574 916.528 730.052 913.519 729.605C912.384 729.438 911.356 729.071 910.971 728.701C910.879 728.611 910.798 728.536 910.789 728.53C910.783 728.529 910.547 728.735 910.267 728.989C908.518 730.59 907.176 732.598 906.276 734.963C905.995 735.701 905.543 737.502 905.447 738.274C905.343 739.131 905.321 740.003 905.393 740.792C905.465 741.635 905.566 742.128 905.809 742.868C905.961 743.325 906.04 743.492 906.361 744.036C906.565 744.385 906.803 744.747 906.883 744.845L907.031 745.013L907.12 744.553C907.322 743.534 907.941 742.594 908.898 741.838C909.353 741.479 910.243 740.999 910.766 740.831C911.534 740.58 912.46 740.556 913.722 740.75L914.445 740.864L914.592 740.229C914.818 739.223 915.117 738.603 915.629 738.066C915.95 737.728 916.838 737.185 917.325 737.028C918.277 736.714 919.373 736.621 920.961 736.716C921.223 736.731 921.452 736.733 921.468 736.724C921.481 736.711 921.506 736.497 921.516 736.25C921.586 734.553 922.425 733.036 923.726 732.256C924.34 731.888 924.837 731.783 925.578 731.865C926.15 731.93 926.744 732.138 928.122 732.745C929.113 733.182 929.655 733.373 930.187 733.468C931.657 733.735 932.843 733.556 933.935 732.902C935.065 732.224 935.806 731.135 936.102 729.717C936.299 728.778 936.276 727.857 936.019 726.497C935.686 724.715 935.65 724.119 935.831 723.355C936.027 722.519 936.392 722.036 937.263 721.471C937.685 721.197 937.855 721.111 938.217 720.985C939.123 720.673 940.143 720.62 941.093 720.84C941.23 720.876 941.358 720.885 941.372 720.866C941.387 720.846 941.472 720.425 941.564 719.935C942.004 717.56 942.734 716.232 944.012 715.465C944.711 715.046 945.362 714.908 946.48 714.931C946.757 714.936 946.984 714.919 946.99 714.893C946.994 714.864 947.012 714.612 947.032 714.337C947.102 713.274 947.31 712.291 947.59 711.693C947.86 711.112 948.453 710.376 949.1 709.816C949.499 709.469 950.504 708.899 950.91 708.784C951.391 708.652 951.835 708.6 952.271 708.623C952.509 708.632 952.687 708.621 952.671 708.594C952.654 708.566 952.52 708.404 952.373 708.23C951.187 706.841 949.333 705.933 947.041 705.616C944.223 705.222 941.207 705.687 938.503 706.938C937.928 707.202 936.445 708.075 936.023 708.393Z" fill="#1D2529"/>
</g>
<g clip-path="url(#clip2)">
<path d="M849.308 789.565L849.242 789.584L849.251 789.679C849.269 789.885 849.168 790.191 848.957 790.576C848.858 790.755 848.491 791.29 848.344 791.469C847.891 792.022 847.466 792.39 847.233 792.43C847.165 792.442 847.151 792.44 847.114 792.415C847.075 792.388 847.065 792.364 846.882 791.887C846.59 791.12 846.343 790.527 846.236 790.33L846.201 790.265L846.196 790.318C846.193 790.346 846.178 790.539 846.161 790.748C846.118 791.271 846.092 791.568 846.089 791.573C846.088 791.574 846.047 791.575 845.996 791.572C845.847 791.567 845.608 791.582 845.47 791.606C845.225 791.648 844.994 791.751 844.719 791.941C844.647 791.99 844.582 792.034 844.572 792.04C844.556 792.048 844.462 791.938 844.146 791.55L843.739 791.052L843.785 791.339C843.831 791.629 843.909 792.003 844.035 792.535C844.071 792.694 844.128 792.932 844.159 793.062C844.223 793.337 844.223 793.351 844.142 793.406C844.098 793.436 844.072 793.443 843.949 793.458C843.412 793.526 842.169 793.187 841.442 792.775C841.168 792.62 840.941 792.424 840.879 792.291C840.864 792.259 840.851 792.232 840.849 792.23C840.848 792.228 840.767 792.258 840.67 792.295C840.063 792.533 839.521 792.914 839.056 793.432C838.911 793.593 838.617 794.01 838.516 794.198C838.404 794.407 838.313 794.629 838.253 794.838C838.188 795.061 838.165 795.198 838.154 795.411C838.148 795.543 838.152 795.594 838.18 795.765C838.198 795.875 838.223 795.991 838.234 796.024L838.255 796.082L838.324 795.973C838.476 795.732 838.728 795.552 839.048 795.453C839.2 795.406 839.476 795.371 839.626 795.38C839.848 795.391 840.087 795.477 840.392 795.651L840.566 795.752L840.666 795.604C840.824 795.368 840.962 795.239 841.146 795.152C841.262 795.097 841.543 795.046 841.683 795.054C841.959 795.068 842.248 795.152 842.646 795.334C842.712 795.363 842.77 795.387 842.775 795.386C842.78 795.384 842.807 795.331 842.834 795.269C843.02 794.841 843.385 794.535 843.796 794.464C843.99 794.431 844.127 794.453 844.309 794.547C844.449 794.62 844.581 794.732 844.874 795.024C845.085 795.235 845.205 795.337 845.332 795.414C845.682 795.628 846.004 795.699 846.348 795.64C846.705 795.578 847.003 795.372 847.219 795.038C847.362 794.817 847.447 794.578 847.516 794.204C847.607 793.715 847.657 793.558 847.779 793.381C847.912 793.186 848.053 793.098 848.332 793.039C848.467 793.011 848.519 793.006 848.625 793.009C848.888 793.019 849.154 793.106 849.376 793.257C849.408 793.279 849.44 793.294 849.445 793.291C849.451 793.287 849.514 793.188 849.586 793.071C849.934 792.506 850.253 792.238 850.656 792.168C850.877 792.13 851.057 792.159 851.341 792.275C851.412 792.304 851.472 792.322 851.476 792.316C851.48 792.309 851.509 792.246 851.542 792.177C851.665 791.912 851.815 791.681 851.946 791.555C852.073 791.433 852.298 791.303 852.519 791.223C852.656 791.174 852.969 791.127 853.085 791.138C853.221 791.152 853.34 791.183 853.45 791.232C853.51 791.257 853.556 791.272 853.555 791.263C853.553 791.255 853.535 791.2 853.515 791.141C853.348 790.667 852.963 790.251 852.407 789.943C851.723 789.564 850.905 789.385 850.088 789.437C849.914 789.448 849.448 789.525 849.308 789.565Z" fill="#1D2529"/>
</g>
<g clip-path="url(#clip3)">
<path d="M765.139 808.918C764.044 808.994 762.953 809.317 762.061 809.833C760.537 810.711 759.639 811.744 758.188 814.278C756.608 817.044 756.283 817.543 755.452 818.438C755.131 818.785 754.419 819.411 754.051 819.671C753.686 819.931 753.013 820.289 752.906 820.282C752.885 820.28 752.826 820.179 752.775 820.054L752.683 819.833L752.731 819.159C752.767 818.679 752.771 818.405 752.749 818.209C752.728 818.058 752.709 817.925 752.7 817.918C752.693 817.91 752.605 817.977 752.509 818.072C752.324 818.24 751.889 818.561 751.655 818.691C751.525 818.766 751.525 818.766 751.256 818.692C750.465 818.48 749.635 818.733 749.062 819.358L748.856 819.587L748.55 819.595C748.376 819.597 748.073 819.57 747.85 819.534C747.633 819.502 747.447 819.479 747.44 819.486C747.406 819.515 747.498 819.813 747.608 820.035C747.675 820.168 747.898 820.475 748.11 820.732C748.46 821.154 748.604 821.393 748.623 821.575C748.629 821.634 748.6 821.646 748.437 821.656C748.042 821.689 746.682 821.518 745.855 821.334C744.367 821.002 743.051 820.487 741.156 819.489C738.916 818.312 738.155 818.011 736.935 817.826C735.406 817.591 733.386 818.053 732.049 818.947C731.136 819.556 730.796 819.929 729.282 821.948C728.448 823.063 728.221 823.388 727.951 823.852C727.731 824.223 727.454 824.791 727.476 824.82C727.486 824.828 727.557 824.801 727.633 824.761C728.094 824.511 728.736 824.304 729.322 824.218C729.616 824.175 729.786 824.173 730.284 824.206C730.823 824.245 730.923 824.262 731.221 824.362C732.375 824.755 733.294 825.612 733.757 826.722C733.898 827.065 734.04 827.533 734.101 827.873L734.129 828.025L734.224 827.951C734.275 827.909 734.499 827.681 734.719 827.45C735.451 826.676 735.903 826.352 736.614 826.101C737.347 825.837 738.02 825.744 738.787 825.795C739.959 825.873 740.791 826.248 741.493 827.014C741.927 827.487 742.227 828.031 742.398 828.65C742.44 828.799 742.483 828.923 742.497 828.924C742.508 828.925 742.588 828.809 742.671 828.665C742.792 828.468 742.908 828.337 743.177 828.098C744.154 827.244 745.304 826.876 746.551 827.018C747.34 827.109 747.814 827.332 748.224 827.804C748.501 828.124 748.679 828.515 748.759 828.992L748.814 829.312L749 829.074C749.376 828.592 749.981 828.154 750.51 827.981C750.624 827.943 750.842 827.889 751.001 827.857L751.282 827.8L751.497 827.918C751.61 827.981 751.841 828.164 752.001 828.32C752.386 828.693 752.569 828.809 752.797 828.825C753.135 828.847 753.421 828.675 753.538 828.378C753.563 828.313 753.617 828.088 753.658 827.882C753.778 827.29 753.825 827.206 754.206 826.957C754.776 826.586 755.412 826.358 755.888 826.358C756.228 826.357 756.395 826.406 756.79 826.62C757.082 826.778 757.288 826.868 757.29 826.837C757.29 826.83 757.23 826.694 757.153 826.54C757.073 826.385 756.979 826.143 756.936 825.998C756.872 825.768 756.867 825.684 756.893 825.287C756.917 824.886 756.932 824.81 757.03 824.591C757.178 824.254 757.35 824.019 757.646 823.737C758.257 823.163 759.096 822.771 760.036 822.629C760.341 822.58 760.504 822.577 760.974 822.609C761.579 822.649 761.757 822.692 762.174 822.894C762.285 822.946 762.373 822.983 762.373 822.976C762.373 822.973 762.329 822.855 762.272 822.723C762.018 822.116 761.941 821.496 762.054 820.89C762.297 819.594 763.389 818.372 764.856 817.765C766.235 817.194 767.493 817.16 768.65 817.668C768.782 817.725 768.9 817.775 768.914 817.776C768.924 817.777 768.886 817.666 768.83 817.527C768.383 816.473 768.298 815.357 768.587 814.404C768.921 813.302 769.834 812.325 770.988 811.836C771.395 811.665 771.957 811.515 772.398 811.462C772.569 811.442 772.72 811.414 772.735 811.404C772.749 811.395 772.491 811.253 772.166 811.089C769.757 809.883 768.744 809.464 767.48 809.154C767.05 809.049 766.843 809.018 766.174 808.963C765.738 808.93 765.271 808.909 765.139 808.918Z" fill="#1D2529"/>
</g>
<g clip-path="url(#clip4)">
<path d="M831.824 783.309C831.516 783.425 831.23 783.611 831.018 783.835C830.656 784.218 830.486 784.591 830.286 785.444C830.068 786.373 830.017 786.544 829.855 786.873C829.792 787 829.641 787.24 829.558 787.347C829.475 787.453 829.313 787.613 829.281 787.62C829.275 787.621 829.249 787.597 829.224 787.566L829.179 787.51L829.135 787.312C829.104 787.171 829.082 787.092 829.059 787.038C829.04 786.996 829.023 786.96 829.02 786.958C829.017 786.957 828.998 786.984 828.978 787.019C828.939 787.083 828.842 787.213 828.786 787.27C828.755 787.303 828.755 787.303 828.671 787.304C828.426 787.311 828.209 787.455 828.098 787.683L828.058 787.767L827.971 787.795C827.921 787.81 827.832 787.829 827.764 787.837C827.699 787.847 827.644 787.856 827.642 787.859C827.635 787.87 827.687 787.948 827.738 788.002C827.768 788.034 827.859 788.104 827.941 788.159C828.078 788.251 828.14 788.307 828.161 788.358C828.168 788.374 828.161 788.38 828.114 788.397C828.004 788.44 827.599 788.507 827.345 788.525C826.889 788.557 826.467 788.522 825.837 788.397C825.093 788.25 824.849 788.229 824.482 788.28C824.023 788.343 823.482 788.648 823.174 789.019C822.964 789.272 822.898 789.409 822.636 790.118C822.491 790.51 822.454 790.622 822.416 790.779C822.385 790.904 822.354 791.091 822.363 791.098C822.366 791.099 822.384 791.085 822.403 791.067C822.514 790.956 822.68 790.842 822.841 790.767C822.922 790.73 822.971 790.714 823.117 790.681C823.275 790.647 823.305 790.643 823.399 790.646C823.765 790.66 824.102 790.828 824.33 791.107C824.399 791.194 824.48 791.316 824.527 791.409L824.548 791.45L824.569 791.421C824.58 791.404 824.625 791.32 824.668 791.234C824.813 790.949 824.915 790.818 825.098 790.685C825.286 790.546 825.471 790.462 825.696 790.411C826.039 790.333 826.31 790.37 826.577 790.53C826.742 790.629 826.875 790.759 826.977 790.923C827.002 790.962 827.025 790.994 827.029 790.993C827.032 790.992 827.046 790.952 827.057 790.904C827.075 790.837 827.097 790.789 827.154 790.697C827.362 790.368 827.661 790.165 828.031 790.099C828.265 790.058 828.421 790.081 828.579 790.181C828.686 790.25 828.771 790.347 828.834 790.477L828.877 790.564L828.91 790.48C828.977 790.31 829.114 790.132 829.251 790.037C829.28 790.016 829.338 789.982 829.381 789.96L829.457 789.919L829.529 789.935C829.567 789.943 829.649 789.976 829.708 790.007C829.851 790.081 829.913 790.099 829.98 790.084C830.079 790.061 830.147 789.988 830.155 789.892C830.157 789.871 830.153 789.802 830.147 789.74C830.131 789.559 830.137 789.531 830.225 789.427C830.357 789.271 830.521 789.151 830.657 789.111C830.755 789.081 830.807 789.081 830.939 789.109C831.036 789.13 831.103 789.138 831.101 789.129C831.101 789.127 831.072 789.093 831.036 789.055C831 789.017 830.952 788.956 830.928 788.918C830.89 788.857 830.881 788.834 830.855 788.717C830.827 788.6 830.825 788.577 830.834 788.506C830.848 788.396 830.877 788.314 830.938 788.207C831.065 787.99 831.272 787.806 831.53 787.685C831.614 787.645 831.661 787.63 831.798 787.599C831.975 787.559 832.03 787.556 832.167 787.578C832.204 787.584 832.232 787.587 832.232 787.585C832.231 787.584 832.209 787.554 832.181 787.521C832.056 787.368 831.981 787.197 831.962 787.013C831.921 786.62 832.13 786.175 832.5 785.875C832.847 785.594 833.206 785.476 833.581 785.523C833.624 785.528 833.662 785.533 833.666 785.532C833.669 785.531 833.649 785.503 833.621 785.467C833.402 785.203 833.283 784.889 833.284 784.591C833.286 784.246 833.465 783.887 833.754 783.648C833.857 783.564 834.005 783.473 834.128 783.42C834.175 783.399 834.216 783.378 834.219 783.374C834.223 783.37 834.137 783.352 834.029 783.332C833.234 783.192 832.907 783.158 832.517 783.177C832.385 783.184 832.323 783.192 832.126 783.234C831.998 783.262 831.862 783.296 831.824 783.309Z" fill="#1D2529"/>
</g>
<path d="M670.465 960.398L673.912 951.051L678.004 959.755L682.501 980.992L676.936 982.23L670.465 960.398Z" fill="#1D2529"/>
<path d="M646.254 964.254L648.251 953.837L656.243 964.728L659.718 986.417L656.174 987.25L646.254 964.254Z" fill="#1D2529"/>
<path d="M626.705 964.827L629.606 956.455L632.294 963.09L635.555 989.274L631.536 989.584L626.705 964.827Z" fill="#1D2529"/>
<rect x="644.412" y="971.738" width="53.4064" height="3.79006" transform="rotate(-13.0492 644.412 971.738)" fill="#1D2529"/>
<rect x="620.943" y="970.209" width="38.5628" height="3.79005" transform="rotate(-4.4331 620.943 970.209)" fill="#1D2529"/>
<path d="M191.45 910.083C187.035 921.074 177.255 928.435 165.223 928.354C165.223 928.354 158.199 927.194 155.639 924.302C151.369 924.51 146.965 923.814 142.719 922.108C138.194 920.29 134.353 917.535 131.322 914.159C129.151 914.312 125.585 913.966 121.833 911.107C112.55 904.07 110.463 890.467 114.98 879.222C119.391 868.243 129.171 860.883 141.202 860.964C141.202 860.964 148.71 862.195 151.03 865.3C154.314 865.067 157.306 865.988 160.434 867.206C161.287 865.181 163.626 861.096 168.896 859.976C173.193 863.729 173.193 863.729 173.193 863.729C173.193 863.729 168.866 866.424 167.762 870.144C170.821 871.404 173.69 872.819 175.83 875.125C178.025 875.106 181.252 875.641 184.611 878.203C193.877 885.249 195.963 898.851 191.45 910.083ZM145.661 889.75L144.924 874.993L131.812 881.167L145.661 889.75ZM156.963 899.535L154.793 890.718L147.261 895.638L156.963 899.535ZM178.569 899.476L173.071 886.301L162.74 896.612L178.569 899.476ZM168.574 905.789L168.346 910.306L158.751 908.516C158.751 908.516 158.945 907.64 159.497 904.684C156.816 905.037 141.735 897.548 141.735 897.548L139.677 900.695L132.958 896.089C132.958 896.089 133.234 894.611 134.497 892.257C131.218 890.939 128.055 886.173 123.936 881.022C120.394 901.688 141.98 911.157 141.98 911.157L143.299 907.873L152.179 911.441C152.179 911.441 151.823 911.934 150.86 914.724C172.722 922.713 184.328 905.285 184.328 905.285C176.311 906.673 168.574 905.789 168.574 905.789Z" fill="#1D2529"/>
<path fill-rule="evenodd" clip-rule="evenodd" d="M227.201 962.678C226.975 962.731 226.756 962.787 226.532 962.833L226.488 962.842C218.537 964.583 211.513 962.044 206.417 955.702C206.315 955.567 206.203 955.436 206.101 955.301L205.983 955.143C201.541 954.957 197.489 952.626 193.809 948.251C193.676 948.205 193.543 948.158 193.42 948.106C192.367 936.879 193.798 926.353 197.425 916.424C201.068 906.477 206.927 897.118 214.703 888.277C214.814 888.316 214.925 888.355 215.033 888.402C221.403 886.809 226.869 888.542 231.693 892.689C233.851 891.108 235.484 890.264 237.717 890.452C237.765 890.245 237.838 890.038 237.933 889.839C238.932 887.825 240.167 886.085 241.582 884.542C242.961 883.052 244.528 881.736 246.229 880.558C247.527 879.654 249.314 879.976 250.219 881.274C251.123 882.571 250.801 884.359 249.503 885.263C248.163 886.194 246.915 887.24 245.803 888.443C244.754 889.584 243.839 890.864 243.111 892.317C245.177 893.592 246.235 895.326 246.942 897.94L247.032 898.038C252.039 897.56 257.157 899.478 262.415 904.914L262.578 904.971C263.12 916.798 261.832 927.815 258.418 937.893C255.029 947.922 249.523 957.056 241.642 965.155C241.445 965.102 241.243 965.039 241.049 964.979C235.842 966.143 231.012 965.173 227.201 962.678ZM190.641 946.829C186.943 944.789 184.393 941.849 182.767 938.19C177.686 926.782 180.693 909.962 187.846 899.922C193.227 892.371 202.374 885.788 211.854 887.507C204.294 896.299 198.559 905.61 194.932 915.514C191.324 925.365 189.808 935.779 190.641 946.829ZM265.282 906.247C269.563 908.683 273.148 912.974 275.399 920.846C278.425 937.15 268.958 961.498 251.893 965.601C249.437 966.189 247.123 966.254 244.659 965.851C252.23 957.76 257.566 948.682 260.929 938.752C264.313 928.738 265.683 917.866 265.282 906.247ZM247.294 941.788C241.456 950.216 230.783 954.269 220.671 951.307L222.633 945.732L216.954 943.733L215.135 948.902C207.274 944.235 202.766 935.444 203.413 926.342C205.625 928.831 208.268 931.155 211.291 933.224L209.653 937.876L215.332 939.875L216.562 936.382C218.737 937.513 221.055 938.52 223.485 939.375C225.936 940.238 228.389 940.91 230.81 941.389L228.585 947.711L234.264 949.709L236.866 942.317L236.504 942.19C240.277 942.505 243.915 942.358 247.294 941.788ZM220.258 931.707L229.01 924.006L231.15 935.541L220.258 931.707ZM207.055 914.228L220.607 902.299L223.922 920.165L207.055 914.228V914.228ZM235.546 924.257L249.099 912.328L252.413 930.194L235.546 924.257V924.257Z" fill="#1D2529"/>
<path d="M76.5 904L69.6481 930.5L56 896L22 857.5L48.8406 800.213L38.5 773.5L29 775L28 773L38.5 769L28 756L29 753.5L42 762L55.7383 785.313L76.5 725.5L83.2961 699L78.0644 674.5L69.6481 668.5L78.5 670L86.2532 682L89.2103 699L113.5 652H129.927L132 658H116.279L104.906 686L111.275 692L111 695.5L104 691L83.2961 765.5L98.5 730.5L117.416 715L139.481 712.5L154.948 719.5L162 735L160.863 741.5L143.12 723L113.5 728L78.5 790L116.279 765.5L143.12 761L151.764 783L150.627 809.5L143.12 824L132.657 817.5V813L140.845 815L147.215 802L139.481 773.5L116.279 777.5L78.5 829.5L76.5 904Z" fill="#1D2529"/>
<path fill-rule="evenodd" clip-rule="evenodd" d="M146 785L101 794L100.804 793.019L145.804 784.019L146 785Z" fill="#1D2529"/>
<path fill-rule="evenodd" clip-rule="evenodd" d="M148 802L109 780L109.491 779.129L148.491 801.129L148 802Z" fill="#1D2529"/>
<path fill-rule="evenodd" clip-rule="evenodd" d="M135 816L119 772L119.94 771.658L135.94 815.658L135 816Z" fill="#1D2529"/>
<path fill-rule="evenodd" clip-rule="evenodd" d="M139 771L126 789L125.189 788.414L138.189 770.414L139 771Z" fill="#1D2529"/>
<path fill-rule="evenodd" clip-rule="evenodd" d="M125 831V789H126V831H125Z" fill="#1D2529"/>
<path fill-rule="evenodd" clip-rule="evenodd" d="M122.211 779.594L122.825 780.12C125.472 782.389 128.66 782.32 129.879 782.015L130.5 781.86V782.5C130.5 785.094 132.046 786.645 132.757 787.071L133.306 787.401L132.854 787.854C131.443 789.264 131.676 791.094 131.964 791.814L132.195 792.391L131.582 792.493C130.588 792.659 129.951 793.308 129.548 794.122C129.14 794.946 129 795.892 129 796.5H128C128 795.775 128.16 794.67 128.652 793.678C129.081 792.813 129.782 791.999 130.87 791.641C130.638 790.627 130.638 788.998 131.76 787.58C130.864 786.833 129.704 785.32 129.524 783.097C127.965 783.309 125.215 783.14 122.747 781.333C122.168 782.735 120.761 784.671 118.177 784.963C118.344 785.489 118.487 785.999 118.571 786.485C118.688 787.165 118.698 787.837 118.471 788.479C118.011 789.784 116.67 790.721 114.144 791.479L113.856 790.521C116.33 789.779 117.239 788.966 117.529 788.146C117.677 787.725 117.687 787.242 117.585 786.655C117.483 786.065 117.277 785.411 117.026 784.658L116.806 784H117.5C120.365 784 121.707 781.612 122.015 780.379L122.211 779.594Z" fill="#1D2529"/>
<path d="M129 835.5C129 838.538 127.433 841 125.5 841C123.567 841 122 838.538 122 835.5C122 832.462 123.567 830 125.5 830C127.433 830 129 832.462 129 835.5Z" fill="#1D2529"/>
<path fill-rule="evenodd" clip-rule="evenodd" d="M129.094 828.38L132.61 829.358L132.342 830.321L129.688 829.583L128.274 833.104L127.346 832.732L129.094 828.38Z" fill="#1D2529"/>
<path fill-rule="evenodd" clip-rule="evenodd" d="M130.963 830.789L133.812 833.069L133.188 833.849L131.037 832.129L128.354 834.813L127.646 834.105L130.963 830.789Z" fill="#1D2529"/>
<path fill-rule="evenodd" clip-rule="evenodd" d="M131.934 832.717L133.961 835.751L133.129 836.307L131.6 834.016L128.23 835.762L127.77 834.875L131.934 832.717Z" fill="#1D2529"/>
<path fill-rule="evenodd" clip-rule="evenodd" d="M131.571 835.566L132.992 843.369L132.008 843.549L130.768 836.735L127.093 837.428L126.907 836.445L131.571 835.566Z" fill="#1D2529"/>
<path fill-rule="evenodd" clip-rule="evenodd" d="M122.386 828.38L118.871 829.358L119.139 830.321L121.792 829.583L123.207 833.104L124.135 832.732L122.386 828.38Z" fill="#1D2529"/>
<path fill-rule="evenodd" clip-rule="evenodd" d="M120.517 830.789L117.668 833.069L118.293 833.849L120.443 832.129L123.127 834.813L123.834 834.105L120.517 830.789Z" fill="#1D2529"/>
<path fill-rule="evenodd" clip-rule="evenodd" d="M119.546 832.717L117.52 835.751L118.351 836.307L119.881 834.016L123.25 835.762L123.71 834.875L119.546 832.717Z" fill="#1D2529"/>
<path fill-rule="evenodd" clip-rule="evenodd" d="M119.909 835.566L118.488 843.369L119.472 843.549L120.713 836.735L124.388 837.428L124.573 836.445L119.909 835.566Z" fill="#1D2529"/>
</g>
<defs>
<clipPath id="clip0">
<rect width="965" height="994" fill="white"/>
</clipPath>
<clipPath id="clip1">
<rect width="57.97" height="29.4763" fill="white" transform="translate(896 726.807) rotate(-30.9428)"/>
</clipPath>
<clipPath id="clip2">
<rect width="15.9252" height="8.09754" fill="white" transform="translate(837.229 790.325) rotate(-9.83523)"/>
</clipPath>
<clipPath id="clip3">
<rect width="44.3357" height="22.1679" fill="white" transform="translate(728.715 806.133) rotate(3.82387)"/>
</clipPath>
<clipPath id="clip4">
<rect width="13.2903" height="6.64517" fill="white" transform="translate(821.121 785.623) rotate(-12.7444)"/>
</clipPath>
</defs>
</svg>
