<svg width="965" height="430" viewBox="0 0 965 430" fill="none" xmlns="http://www.w3.org/2000/svg">
<g clip-path="url(#clip0)">
<path fill-rule="evenodd" clip-rule="evenodd" d="M965 256.244C858.902 361.357 683.908 430 486 430C283.675 430 105.298 358.259 0 249.152L0 430L486 430L965 430V256.244Z" fill="#1D2529"/>
<path fill-rule="evenodd" clip-rule="evenodd" d="M739.458 247.649L720.283 219.634L758.415 198.487L770.08 233.105L765.449 235.713L777.063 253.464L788.101 247.087L805.873 267.147L846.431 249.061L903.846 311.629L833.973 374.669L716.165 412.878L696.788 317.395L733.408 301.04L729.61 275.217L750.276 266.766L743.782 246.509L739.458 247.649ZM824.718 367.627C826.35 359.816 827.7 352 824.59 344.614C815.16 322.218 799.232 311.645 789.994 315.535C780.756 319.424 778.223 342.066 790.341 363.13C794.44 370.255 800.752 373.331 806.469 376.118L806.469 376.118L806.469 376.118L806.469 376.119L806.469 376.119L806.47 376.119C807.619 376.679 808.744 377.227 809.823 377.795C809.823 377.795 811.965 380.648 817.517 378.458C823.509 376.094 824.718 367.627 824.718 367.627ZM751.927 225.046C752.669 226.471 753.169 227.909 753.426 229.237L746.479 232.852C745.539 231.879 744.649 230.645 743.907 229.22C741.658 224.9 741.631 220.463 743.846 219.31C746.06 218.158 749.679 220.726 751.927 225.046ZM760.204 284.798C759.946 283.47 759.446 282.032 758.705 280.607C756.456 276.287 752.838 273.719 750.623 274.872C748.409 276.024 748.436 280.461 750.685 284.781C751.426 286.206 752.317 287.441 753.257 288.414L760.204 284.798ZM781.35 270.016C782.092 271.441 782.592 272.878 782.849 274.207L775.902 277.822C774.962 276.849 774.072 275.615 773.33 274.19C771.082 269.869 771.054 265.433 773.269 264.28C775.484 263.127 779.102 265.695 781.35 270.016ZM735.386 367.347L724.78 334.993L737.571 330.004L748.075 362.847L735.386 367.347ZM828.415 288.065L835.189 299.715L847.655 292.086L840.885 280.24L828.415 288.065Z" fill="#1D2529"/>
<path d="M804.592 147.733C810.846 164.016 812.91 174.996 813.161 178.451L810.51 185.51L839.094 164.218L831.571 164.737C828.333 163.508 818.404 158.387 804.592 147.733Z" fill="#1D2529"/>
<path fill-rule="evenodd" clip-rule="evenodd" d="M830.319 201.383L816.316 180.173L830.522 167.255L848.486 189.126L855.74 183.243L860.795 189.864L853.852 195.855L888.022 237.599L907.508 229.634L948.643 274.467L875.159 332.983L846.688 272.608L863.751 255.436L834.534 208.414L827.396 212.941L823.385 206.33L830.319 201.383ZM841.985 192.232C841.565 190.946 840.892 189.581 839.98 188.258C837.216 184.248 833.308 182.146 831.253 183.563C829.197 184.98 829.772 189.379 832.536 193.39C833.448 194.712 834.484 195.827 835.536 196.677L841.985 192.232ZM876.455 240.565C877.367 241.887 878.041 243.252 878.46 244.538L872.012 248.983C870.959 248.134 869.923 247.019 869.011 245.696C866.247 241.686 865.673 237.286 867.728 235.869C869.784 234.452 873.691 236.555 876.455 240.565Z" fill="#1D2529"/>
<path d="M662.677 236.142C662.214 253.579 659.913 264.512 658.821 267.799L653.667 273.304L688.229 264.59L681.081 262.186C678.561 259.81 671.352 251.275 662.677 236.142Z" fill="#1D2529"/>
<path fill-rule="evenodd" clip-rule="evenodd" d="M665.882 295.555L661.075 270.599L679.148 264.11L687.359 291.196L696.314 288.541L698.446 296.593L689.738 299.467L705.304 351.118L726.354 351.227L747.17 408.401L656.872 434.293L653.71 367.616L676.051 358.294L667.082 303.665L658.754 305.112L657.582 297.468L665.882 295.555ZM680.164 291.573C680.27 290.224 680.17 288.705 679.835 287.134C678.818 282.371 676.015 278.932 673.573 279.454C671.132 279.975 669.976 284.259 670.993 289.022C671.328 290.593 671.858 292.02 672.505 293.208L680.164 291.573ZM693.483 349.425C693.819 350.996 693.918 352.515 693.812 353.864L686.153 355.499C685.506 354.31 684.977 352.884 684.641 351.313C683.625 346.549 684.78 342.266 687.221 341.744C689.663 341.223 692.467 344.662 693.483 349.425Z" fill="#1D2529"/>
<path d="M710.245 153.648C717.452 186.597 718.264 208.123 717.769 214.768L710.81 227.333L770.519 196.038L756.226 194.612C750.48 191.238 733.24 178.322 710.245 153.648Z" fill="#1D2529"/>
<path fill-rule="evenodd" clip-rule="evenodd" d="M627.804 331.562C629.953 327.143 635.224 312.194 639.123 287.754C648.507 310.655 657.057 324.002 660.159 327.813L669.766 332.524L657.729 333.919L670.756 367.14L694.716 374.719L698.86 410.48L642.225 388.998L629.43 337.198L619.53 338.345L627.804 331.562ZM655.79 354.842C655.963 353.275 655.834 351.546 655.353 349.796C655.278 349.525 655.196 349.259 655.108 348.997L649.57 350.663L651.202 356.103L655.79 354.842ZM649.549 356.558L644.354 357.986C643.404 356.728 642.631 355.176 642.15 353.426C642.105 353.261 642.063 353.097 642.024 352.932L647.928 351.156L649.549 356.558ZM649.078 349.021L654.46 347.402C652.749 343.835 649.763 341.586 646.928 341.855L649.078 349.021ZM645.278 342.32L647.436 349.514L641.725 351.232C641.268 347.188 642.668 343.594 645.278 342.32Z" fill="#1D2529"/>
<path fill-rule="evenodd" clip-rule="evenodd" d="M888.63 202.151C886.48 201.208 879.935 197.401 870.951 189.716C874.626 200.953 875.647 208.456 875.698 210.802L873.662 215.49L878.473 212.272L884.017 228.391L877.646 238.565L887.208 252.858L901.163 227.511L889.783 204.705L893.74 202.057L888.63 202.151ZM885.655 219.283C885.107 218.767 884.619 218.098 884.252 217.312C884.195 217.191 884.142 217.068 884.094 216.946L886.624 215.837L887.715 218.322L885.655 219.283ZM888.457 217.976L890.789 216.887C890.745 216.135 890.545 215.331 890.179 214.546C890.144 214.472 890.109 214.399 890.072 214.327L887.374 215.509L888.457 217.976ZM886.295 215.088L883.835 216.165C883.354 214.338 883.744 212.595 884.859 211.815L886.295 215.088ZM885.603 211.473L887.045 214.759L889.654 213.616C888.569 212.003 886.947 211.129 885.603 211.473Z" fill="#1D2529"/>
<g clip-path="url(#clip1)">
<path d="M935.648 181.008L935.448 181.16L935.603 181.47C935.934 182.147 935.993 183.32 935.781 184.902C935.679 185.64 935.134 187.937 934.871 188.74C934.055 191.21 933.094 193.016 932.356 193.458C932.142 193.587 932.092 193.6 931.932 193.562C931.766 193.522 931.699 193.455 930.454 192.075C928.456 189.852 926.841 188.162 926.218 187.633L926.014 187.46L926.066 187.644C926.095 187.745 926.294 188.42 926.51 189.15C927.05 190.985 927.353 192.028 927.348 192.046C927.347 192.053 927.207 192.11 927.03 192.167C926.519 192.345 925.727 192.707 925.288 192.97C924.511 193.436 923.862 194.088 923.177 195.095C922.999 195.352 922.835 195.59 922.807 195.623C922.766 195.669 922.301 195.421 920.719 194.517L918.683 193.359L919.216 194.274C919.754 195.198 920.508 196.367 921.633 198.007C921.966 198.5 922.47 199.235 922.746 199.633C923.324 200.484 923.343 200.532 923.139 200.826C923.027 200.984 922.951 201.041 922.55 201.254C920.819 202.19 916.153 202.667 913.145 202.221C912.009 202.053 910.981 201.687 910.596 201.316C910.505 201.226 910.423 201.151 910.414 201.146C910.408 201.144 910.172 201.35 909.892 201.604C908.143 203.206 906.801 205.213 905.901 207.578C905.62 208.316 905.169 210.117 905.072 210.889C904.968 211.746 904.947 212.618 905.018 213.408C905.091 214.25 905.191 214.743 905.434 215.484C905.586 215.94 905.665 216.107 905.986 216.651C906.19 217.001 906.429 217.363 906.508 217.46L906.657 217.629L906.745 217.168C906.947 216.15 907.567 215.209 908.523 214.453C908.979 214.094 909.868 213.614 910.391 213.446C911.159 213.195 912.085 213.172 913.347 213.366L914.07 213.48L914.217 212.844C914.443 211.838 914.742 211.219 915.254 210.681C915.575 210.344 916.464 209.8 916.95 209.643C917.903 209.33 918.998 209.237 920.586 209.332C920.849 209.346 921.077 209.349 921.093 209.34C921.106 209.326 921.131 209.113 921.141 208.865C921.212 207.169 922.05 205.651 923.351 204.871C923.965 204.503 924.462 204.399 925.203 204.481C925.775 204.546 926.369 204.753 927.748 205.361C928.738 205.798 929.28 205.988 929.812 206.083C931.282 206.351 932.468 206.171 933.56 205.517C934.69 204.839 935.432 203.751 935.727 202.333C935.924 201.393 935.901 200.473 935.645 199.112C935.311 197.331 935.275 196.734 935.456 195.971C935.652 195.134 936.018 194.652 936.888 194.087C937.31 193.813 937.48 193.727 937.843 193.6C938.749 193.288 939.768 193.236 940.718 193.455C940.856 193.491 940.983 193.501 940.998 193.481C941.012 193.462 941.097 193.04 941.189 192.55C941.63 190.176 942.359 188.847 943.637 188.081C944.336 187.662 944.987 187.524 946.105 187.546C946.383 187.552 946.609 187.534 946.616 187.509C946.619 187.48 946.637 187.227 946.657 186.952C946.727 185.89 946.935 184.906 947.216 184.308C947.485 183.728 948.079 182.991 948.725 182.431C949.125 182.085 950.129 181.514 950.536 181.4C951.016 181.267 951.46 181.216 951.897 181.239C952.134 181.247 952.313 181.237 952.296 181.209C952.279 181.181 952.146 181.02 951.999 180.845C950.812 179.456 948.959 178.549 946.667 178.231C943.848 177.837 940.832 178.303 938.129 179.553C937.553 179.818 936.07 180.691 935.648 181.008Z" fill="#1D2529"/>
</g>
<g clip-path="url(#clip2)">
<path d="M812.308 226.652L812.242 226.671L812.251 226.766C812.269 226.972 812.168 227.278 811.957 227.663C811.858 227.842 811.491 228.377 811.344 228.556C810.891 229.109 810.466 229.476 810.233 229.517C810.165 229.528 810.151 229.527 810.114 229.501C810.075 229.475 810.065 229.451 809.882 228.974C809.59 228.207 809.343 227.614 809.236 227.417L809.201 227.352L809.196 227.404C809.193 227.433 809.178 227.626 809.161 227.834C809.118 228.358 809.092 228.655 809.089 228.659C809.088 228.661 809.047 228.662 808.996 228.659C808.847 228.654 808.608 228.668 808.47 228.692C808.225 228.735 807.994 228.838 807.719 229.028C807.647 229.076 807.582 229.121 807.572 229.127C807.556 229.134 807.462 229.025 807.146 228.637L806.739 228.138L806.785 228.426C806.831 228.716 806.909 229.09 807.035 229.622C807.071 229.781 807.128 230.019 807.159 230.148C807.223 230.424 807.223 230.438 807.142 230.493C807.098 230.522 807.072 230.529 806.949 230.544C806.412 230.613 805.169 230.274 804.442 229.862C804.168 229.706 803.941 229.511 803.879 229.378C803.864 229.346 803.851 229.318 803.849 229.316C803.848 229.315 803.767 229.345 803.67 229.382C803.063 229.619 802.521 230.001 802.056 230.518C801.911 230.679 801.617 231.096 801.516 231.285C801.404 231.494 801.313 231.715 801.253 231.925C801.188 232.148 801.165 232.284 801.154 232.498C801.148 232.63 801.152 232.681 801.18 232.852C801.198 232.962 801.223 233.078 801.234 233.111L801.255 233.169L801.324 233.059C801.476 232.818 801.728 232.639 802.048 232.539C802.2 232.493 802.476 232.458 802.626 232.466C802.848 232.478 803.087 232.563 803.392 232.738L803.566 232.839L803.666 232.69C803.824 232.455 803.962 232.326 804.146 232.239C804.262 232.184 804.543 232.133 804.683 232.14C804.959 232.154 805.248 232.239 805.646 232.42C805.712 232.45 805.77 232.473 805.775 232.472C805.78 232.47 805.807 232.418 805.834 232.356C806.02 231.928 806.385 231.622 806.796 231.551C806.99 231.517 807.127 231.539 807.309 231.634C807.449 231.707 807.581 231.819 807.874 232.111C808.085 232.321 808.205 232.424 808.332 232.5C808.682 232.715 809.004 232.786 809.348 232.726C809.705 232.664 810.003 232.459 810.219 232.125C810.362 231.903 810.447 231.665 810.516 231.291C810.607 230.801 810.657 230.645 810.779 230.467C810.912 230.272 811.053 230.185 811.332 230.126C811.467 230.098 811.519 230.092 811.625 230.096C811.888 230.105 812.154 230.193 812.376 230.343C812.408 230.366 812.44 230.381 812.445 230.377C812.451 230.374 812.514 230.274 812.586 230.158C812.934 229.593 813.253 229.324 813.656 229.255C813.877 229.216 814.057 229.245 814.341 229.362C814.412 229.391 814.472 229.408 814.476 229.403C814.48 229.395 814.509 229.333 814.542 229.264C814.665 228.999 814.815 228.767 814.946 228.642C815.073 228.52 815.298 228.389 815.519 228.31C815.656 228.261 815.969 228.214 816.085 228.225C816.221 228.238 816.34 228.269 816.45 228.318C816.51 228.344 816.556 228.359 816.555 228.35C816.553 228.341 816.535 228.287 816.515 228.227C816.348 227.754 815.963 227.338 815.407 227.03C814.723 226.65 813.905 226.471 813.088 226.524C812.914 226.535 812.448 226.612 812.308 226.652Z" fill="#1D2529"/>
</g>
<g clip-path="url(#clip3)">
<path d="M728.139 246.004C727.044 246.081 725.953 246.403 725.061 246.92C723.537 247.797 722.639 248.831 721.188 251.365C719.608 254.13 719.283 254.629 718.452 255.525C718.131 255.871 717.419 256.497 717.051 256.757C716.686 257.018 716.013 257.375 715.906 257.368C715.885 257.367 715.826 257.266 715.775 257.141L715.683 256.919L715.731 256.246C715.767 255.766 715.771 255.492 715.749 255.296C715.728 255.145 715.709 255.012 715.7 255.004C715.693 254.997 715.605 255.064 715.509 255.158C715.324 255.326 714.889 255.648 714.655 255.778C714.525 255.853 714.525 255.853 714.256 255.779C713.465 255.567 712.635 255.82 712.062 256.445L711.856 256.674L711.55 256.681C711.376 256.684 711.073 256.656 710.85 256.621C710.633 256.589 710.447 256.566 710.44 256.572C710.406 256.601 710.498 256.899 710.608 257.122C710.675 257.255 710.898 257.561 711.11 257.818C711.46 258.241 711.604 258.48 711.623 258.661C711.629 258.721 711.6 258.733 711.437 258.743C711.042 258.775 709.682 258.605 708.855 258.421C707.367 258.089 706.051 257.574 704.156 256.576C701.916 255.399 701.155 255.098 699.935 254.912C698.406 254.678 696.386 255.14 695.049 256.033C694.136 256.642 693.796 257.015 692.282 259.035C691.448 260.149 691.221 260.474 690.951 260.939C690.731 261.309 690.454 261.877 690.476 261.907C690.486 261.914 690.557 261.888 690.633 261.848C691.094 261.597 691.736 261.39 692.322 261.305C692.616 261.262 692.786 261.259 693.284 261.293C693.823 261.332 693.923 261.349 694.221 261.449C695.375 261.842 696.294 262.698 696.757 263.809C696.898 264.152 697.04 264.619 697.101 264.96L697.129 265.111L697.224 265.038C697.275 264.996 697.499 264.768 697.719 264.536C698.451 263.762 698.903 263.439 699.614 263.188C700.347 262.924 701.02 262.83 701.787 262.881C702.959 262.96 703.791 263.335 704.493 264.1C704.927 264.574 705.227 265.118 705.398 265.737C705.44 265.885 705.483 266.01 705.497 266.011C705.508 266.011 705.588 265.895 705.671 265.752C705.792 265.555 705.908 265.424 706.177 265.185C707.154 264.33 708.304 263.963 709.551 264.105C710.34 264.196 710.814 264.419 711.224 264.89C711.501 265.211 711.679 265.601 711.759 266.079L711.814 266.398L712 266.161C712.376 265.679 712.981 265.24 713.51 265.067C713.624 265.03 713.842 264.975 714.001 264.944L714.282 264.886L714.497 265.005C714.61 265.068 714.841 265.25 715.001 265.407C715.386 265.779 715.569 265.896 715.797 265.911C716.135 265.934 716.421 265.762 716.538 265.464C716.563 265.4 716.617 265.174 716.658 264.969C716.778 264.376 716.825 264.293 717.206 264.044C717.776 263.672 718.412 263.444 718.888 263.445C719.228 263.443 719.395 263.492 719.79 263.706C720.082 263.865 720.288 263.955 720.29 263.924C720.29 263.917 720.23 263.781 720.153 263.626C720.073 263.472 719.979 263.229 719.936 263.084C719.872 262.854 719.867 262.771 719.893 262.373C719.917 261.972 719.932 261.897 720.03 261.678C720.178 261.34 720.35 261.105 720.646 260.823C721.257 260.25 722.096 259.858 723.036 259.716C723.341 259.667 723.504 259.664 723.974 259.695C724.579 259.736 724.757 259.779 725.174 259.98C725.285 260.033 725.373 260.07 725.373 260.063C725.373 260.06 725.329 259.942 725.272 259.81C725.018 259.203 724.941 258.583 725.054 257.976C725.297 256.68 726.389 255.458 727.856 254.852C729.235 254.281 730.493 254.247 731.65 254.755C731.782 254.812 731.9 254.862 731.914 254.863C731.924 254.863 731.886 254.753 731.83 254.614C731.383 253.56 731.298 252.443 731.587 251.491C731.921 250.388 732.834 249.411 733.988 248.923C734.395 248.752 734.957 248.602 735.398 248.548C735.569 248.528 735.72 248.5 735.735 248.491C735.749 248.481 735.491 248.339 735.166 248.175C732.757 246.969 731.744 246.551 730.48 246.241C730.05 246.136 729.843 246.105 729.174 246.049C728.738 246.017 728.271 245.996 728.139 246.004Z" fill="#1D2529"/>
</g>
<g clip-path="url(#clip4)">
<path d="M794.824 220.396C794.516 220.511 794.23 220.697 794.018 220.922C793.656 221.304 793.486 221.678 793.286 222.53C793.068 223.46 793.017 223.631 792.855 223.959C792.792 224.086 792.641 224.327 792.558 224.433C792.475 224.539 792.313 224.699 792.281 224.707C792.275 224.708 792.249 224.684 792.224 224.652L792.179 224.597L792.135 224.399C792.104 224.258 792.082 224.179 792.059 224.125C792.04 224.083 792.023 224.046 792.02 224.045C792.017 224.043 791.998 224.07 791.978 224.106C791.939 224.17 791.842 224.299 791.786 224.357C791.755 224.389 791.755 224.389 791.671 224.391C791.426 224.398 791.209 224.541 791.098 224.77L791.058 224.853L790.971 224.882C790.921 224.897 790.832 224.915 790.764 224.924C790.699 224.933 790.644 224.943 790.642 224.945C790.635 224.956 790.687 225.034 790.738 225.089C790.768 225.121 790.859 225.19 790.941 225.246C791.078 225.337 791.14 225.394 791.161 225.444C791.168 225.461 791.161 225.467 791.114 225.484C791.004 225.527 790.599 225.594 790.345 225.612C789.889 225.644 789.467 225.608 788.837 225.483C788.093 225.337 787.849 225.315 787.482 225.366C787.023 225.43 786.482 225.735 786.174 226.106C785.964 226.359 785.898 226.495 785.636 227.205C785.491 227.596 785.454 227.709 785.416 227.866C785.385 227.991 785.354 228.178 785.363 228.184C785.366 228.186 785.384 228.172 785.403 228.154C785.514 228.043 785.68 227.928 785.841 227.854C785.922 227.816 785.971 227.801 786.117 227.768C786.275 227.733 786.305 227.73 786.399 227.733C786.765 227.747 787.102 227.915 787.33 228.194C787.399 228.28 787.48 228.403 787.527 228.495L787.548 228.536L787.569 228.507C787.58 228.491 787.625 228.406 787.668 228.321C787.813 228.036 787.915 227.904 788.098 227.771C788.286 227.633 788.471 227.548 788.696 227.498C789.039 227.42 789.31 227.456 789.577 227.616C789.742 227.715 789.875 227.846 789.977 228.009C790.002 228.048 790.025 228.08 790.029 228.08C790.032 228.079 790.046 228.039 790.057 227.99C790.075 227.923 790.097 227.876 790.154 227.784C790.362 227.455 790.661 227.251 791.031 227.185C791.265 227.144 791.421 227.168 791.579 227.268C791.686 227.337 791.771 227.433 791.834 227.564L791.877 227.651L791.91 227.567C791.977 227.396 792.114 227.218 792.251 227.124C792.28 227.103 792.338 227.069 792.381 227.046L792.457 227.006L792.529 227.021C792.567 227.03 792.649 227.062 792.708 227.094C792.851 227.168 792.913 227.186 792.98 227.17C793.079 227.148 793.147 227.074 793.155 226.979C793.157 226.958 793.153 226.889 793.147 226.826C793.131 226.646 793.137 226.618 793.225 226.514C793.357 226.358 793.521 226.238 793.657 226.198C793.755 226.168 793.807 226.168 793.939 226.196C794.036 226.216 794.103 226.225 794.101 226.215C794.101 226.213 794.072 226.179 794.036 226.142C794 226.104 793.952 226.043 793.928 226.004C793.89 225.944 793.881 225.92 793.855 225.804C793.827 225.687 793.825 225.664 793.834 225.592C793.848 225.483 793.877 225.401 793.938 225.294C794.065 225.077 794.272 224.893 794.53 224.772C794.614 224.731 794.661 224.717 794.798 224.686C794.975 224.645 795.03 224.643 795.167 224.665C795.204 224.67 795.232 224.674 795.232 224.672C795.231 224.671 795.209 224.641 795.181 224.608C795.056 224.455 794.981 224.283 794.962 224.099C794.921 223.706 795.13 223.262 795.5 222.962C795.847 222.68 796.206 222.563 796.581 222.61C796.624 222.615 796.662 222.619 796.666 222.618C796.669 222.618 796.649 222.589 796.621 222.554C796.402 222.289 796.283 221.976 796.284 221.677C796.286 221.332 796.465 220.973 796.754 220.734C796.857 220.651 797.005 220.559 797.128 220.506C797.175 220.486 797.216 220.465 797.219 220.461C797.223 220.457 797.137 220.438 797.029 220.419C796.234 220.278 795.907 220.245 795.517 220.264C795.385 220.27 795.323 220.279 795.126 220.32C794.998 220.348 794.862 220.382 794.824 220.396Z" fill="#1D2529"/>
</g>
<path d="M633.465 397.485L636.912 388.138L641.004 396.842L645.501 418.079L639.936 419.316L633.465 397.485Z" fill="#1D2529"/>
<path d="M609.254 401.34L611.251 390.923L619.243 401.815L622.718 423.504L619.174 424.337L609.254 401.34Z" fill="#1D2529"/>
<path d="M589.705 401.913L592.606 393.541L595.294 400.176L598.555 426.361L594.536 426.67L589.705 401.913Z" fill="#1D2529"/>
<rect x="607.412" y="408.825" width="53.4064" height="3.79006" transform="rotate(-13.0492 607.412 408.825)" fill="#1D2529"/>
<rect x="583.943" y="407.296" width="38.5628" height="3.79005" transform="rotate(-4.4331 583.943 407.296)" fill="#1D2529"/>
<path d="M191.45 345.083C187.035 356.074 177.255 363.435 165.223 363.354C165.223 363.354 158.199 362.194 155.639 359.302C151.369 359.51 146.965 358.814 142.719 357.108C138.194 355.29 134.353 352.535 131.322 349.159C129.151 349.312 125.585 348.966 121.833 346.107C112.55 339.07 110.463 325.467 114.98 314.222C119.391 303.243 129.171 295.883 141.202 295.964C141.202 295.964 148.71 297.195 151.03 300.3C154.314 300.067 157.306 300.988 160.434 302.206C161.287 300.181 163.626 296.096 168.896 294.976C173.193 298.729 173.193 298.729 173.193 298.729C173.193 298.729 168.866 301.424 167.762 305.144C170.821 306.404 173.69 307.819 175.83 310.125C178.025 310.106 181.252 310.641 184.611 313.203C193.877 320.249 195.963 333.851 191.45 345.083ZM145.661 324.75L144.924 309.993L131.812 316.167L145.661 324.75ZM156.963 334.535L154.793 325.718L147.261 330.638L156.963 334.535ZM178.569 334.476L173.071 321.301L162.74 331.612L178.569 334.476ZM168.574 340.789L168.346 345.306L158.751 343.516C158.751 343.516 158.945 342.64 159.497 339.684C156.816 340.037 141.735 332.548 141.735 332.548L139.677 335.695L132.958 331.089C132.958 331.089 133.234 329.611 134.497 327.257C131.218 325.939 128.055 321.173 123.936 316.022C120.394 336.688 141.98 346.157 141.98 346.157L143.299 342.873L152.179 346.441C152.179 346.441 151.823 346.934 150.86 349.724C172.722 357.713 184.328 340.285 184.328 340.285C176.311 341.673 168.574 340.789 168.574 340.789Z" fill="#1D2529"/>
<path fill-rule="evenodd" clip-rule="evenodd" d="M227.201 397.678C226.975 397.731 226.756 397.787 226.532 397.833L226.488 397.842C218.537 399.583 211.513 397.044 206.417 390.702C206.315 390.567 206.203 390.436 206.101 390.301L205.983 390.143C201.541 389.957 197.489 387.626 193.809 383.251C193.676 383.205 193.543 383.158 193.42 383.106C192.367 371.879 193.798 361.353 197.425 351.425C201.068 341.477 206.927 332.118 214.703 323.277C214.814 323.316 214.925 323.355 215.033 323.402C221.403 321.809 226.869 323.542 231.693 327.689C233.851 326.108 235.484 325.264 237.717 325.452C237.765 325.245 237.838 325.038 237.933 324.839C238.932 322.825 240.167 321.085 241.582 319.542C242.961 318.052 244.528 316.736 246.229 315.558C247.527 314.654 249.314 314.976 250.219 316.274C251.123 317.571 250.801 319.359 249.503 320.263C248.163 321.194 246.915 322.24 245.803 323.443C244.754 324.584 243.839 325.864 243.111 327.317C245.177 328.592 246.235 330.326 246.942 332.94L247.032 333.038C252.039 332.56 257.157 334.478 262.415 339.914L262.578 339.971C263.12 351.799 261.832 362.816 258.418 372.893C255.029 382.922 249.523 392.056 241.642 400.155C241.445 400.102 241.243 400.039 241.049 399.979C235.842 401.143 231.012 400.173 227.201 397.678ZM190.641 381.829C186.943 379.789 184.393 376.849 182.767 373.19C177.686 361.782 180.693 344.962 187.846 334.922C193.227 327.371 202.374 320.789 211.854 322.507C204.294 331.299 198.559 340.61 194.932 350.514C191.324 360.365 189.808 370.779 190.641 381.829ZM265.282 341.247C269.563 343.683 273.148 347.974 275.399 355.846C278.425 372.15 268.958 396.498 251.893 400.601C249.437 401.189 247.123 401.254 244.659 400.852C252.23 392.76 257.566 383.682 260.929 373.752C264.313 363.738 265.683 352.866 265.282 341.247ZM247.294 376.788C241.456 385.216 230.783 389.269 220.671 386.307L222.633 380.732L216.954 378.733L215.135 383.902C207.274 379.235 202.766 370.444 203.413 361.342C205.625 363.831 208.268 366.155 211.291 368.224L209.653 372.876L215.332 374.875L216.562 371.382C218.737 372.513 221.055 373.52 223.485 374.375C225.936 375.238 228.389 375.91 230.81 376.389L228.585 382.711L234.264 384.709L236.866 377.317L236.504 377.19C240.277 377.505 243.915 377.358 247.294 376.788ZM220.258 366.707L229.01 359.006L231.15 370.541L220.258 366.707ZM207.055 349.228L220.607 337.299L223.922 355.165L207.055 349.228V349.228ZM235.546 359.257L249.099 347.328L252.413 365.194L235.546 359.257V359.257Z" fill="#1D2529"/>
<path d="M76.5 339L69.6481 365.5L56 331L22 292.5L48.8406 235.213L38.5 208.5L29 210L28 208L38.5 204L28 191L29 188.5L42 197L55.7383 220.313L76.5 160.5L83.2961 134L78.0644 109.5L69.6481 103.5L78.5 105L86.2532 117L89.2103 134L113.5 87H129.927L132 93H116.279L104.906 121L111.275 127L111 130.5L104 126L83.2961 200.5L98.5 165.5L117.416 150L139.481 147.5L154.948 154.5L162 170L160.863 176.5L143.12 158L113.5 163L78.5 225L116.279 200.5L143.12 196L151.764 218L150.627 244.5L143.12 259L132.657 252.5V248L140.845 250L147.215 237L139.481 208.5L116.279 212.5L78.5 264.5L76.5 339Z" fill="#1D2529"/>
<path fill-rule="evenodd" clip-rule="evenodd" d="M146 220L101 229L100.804 228.019L145.804 219.019L146 220Z" fill="#1D2529"/>
<path fill-rule="evenodd" clip-rule="evenodd" d="M148 237L109 215L109.491 214.129L148.491 236.129L148 237Z" fill="#1D2529"/>
<path fill-rule="evenodd" clip-rule="evenodd" d="M135 251L119 207L119.94 206.658L135.94 250.658L135 251Z" fill="#1D2529"/>
<path fill-rule="evenodd" clip-rule="evenodd" d="M139 206L126 224L125.189 223.414L138.189 205.414L139 206Z" fill="#1D2529"/>
<path fill-rule="evenodd" clip-rule="evenodd" d="M125 266V224H126V266H125Z" fill="#1D2529"/>
<path fill-rule="evenodd" clip-rule="evenodd" d="M122.211 214.594L122.825 215.12C125.472 217.389 128.66 217.32 129.879 217.015L130.5 216.86V217.5C130.5 220.094 132.046 221.645 132.757 222.071L133.306 222.401L132.854 222.854C131.443 224.264 131.676 226.094 131.964 226.814L132.195 227.391L131.582 227.493C130.588 227.659 129.951 228.308 129.548 229.122C129.14 229.946 129 230.892 129 231.5H128C128 230.775 128.16 229.67 128.652 228.678C129.081 227.813 129.782 226.999 130.87 226.641C130.638 225.627 130.638 223.998 131.76 222.58C130.864 221.833 129.704 220.32 129.524 218.097C127.965 218.309 125.215 218.14 122.747 216.333C122.168 217.735 120.761 219.671 118.177 219.963C118.344 220.489 118.487 220.999 118.571 221.485C118.688 222.165 118.698 222.837 118.471 223.479C118.011 224.784 116.67 225.721 114.144 226.479L113.856 225.521C116.33 224.779 117.239 223.966 117.529 223.146C117.677 222.725 117.687 222.242 117.585 221.655C117.483 221.065 117.277 220.411 117.026 219.658L116.806 219H117.5C120.365 219 121.707 216.612 122.015 215.379L122.211 214.594Z" fill="#1D2529"/>
<path d="M129 270.5C129 273.538 127.433 276 125.5 276C123.567 276 122 273.538 122 270.5C122 267.462 123.567 265 125.5 265C127.433 265 129 267.462 129 270.5Z" fill="#1D2529"/>
<path fill-rule="evenodd" clip-rule="evenodd" d="M129.094 263.38L132.61 264.358L132.342 265.321L129.688 264.583L128.274 268.104L127.346 267.732L129.094 263.38Z" fill="#1D2529"/>
<path fill-rule="evenodd" clip-rule="evenodd" d="M130.963 265.789L133.812 268.069L133.188 268.849L131.037 267.129L128.354 269.813L127.646 269.105L130.963 265.789Z" fill="#1D2529"/>
<path fill-rule="evenodd" clip-rule="evenodd" d="M131.934 267.717L133.961 270.751L133.129 271.307L131.6 269.016L128.23 270.762L127.77 269.875L131.934 267.717Z" fill="#1D2529"/>
<path fill-rule="evenodd" clip-rule="evenodd" d="M131.571 270.566L132.992 278.369L132.008 278.549L130.768 271.735L127.093 272.428L126.907 271.445L131.571 270.566Z" fill="#1D2529"/>
<path fill-rule="evenodd" clip-rule="evenodd" d="M122.386 263.38L118.871 264.358L119.139 265.321L121.792 264.583L123.207 268.104L124.135 267.732L122.386 263.38Z" fill="#1D2529"/>
<path fill-rule="evenodd" clip-rule="evenodd" d="M120.517 265.789L117.668 268.069L118.293 268.849L120.443 267.129L123.127 269.813L123.834 269.105L120.517 265.789Z" fill="#1D2529"/>
<path fill-rule="evenodd" clip-rule="evenodd" d="M119.546 267.717L117.52 270.751L118.351 271.307L119.881 269.016L123.25 270.762L123.71 269.875L119.546 267.717Z" fill="#1D2529"/>
<path fill-rule="evenodd" clip-rule="evenodd" d="M119.909 270.566L118.488 278.369L119.472 278.549L120.713 271.735L124.388 272.428L124.573 271.445L119.909 270.566Z" fill="#1D2529"/>
</g>
<defs>
<clipPath id="clip0">
<rect width="965" height="430" fill="white"/>
</clipPath>
<clipPath id="clip1">
<rect width="57.97" height="29.4763" fill="white" transform="translate(895.625 199.422) rotate(-30.9428)"/>
</clipPath>
<clipPath id="clip2">
<rect width="15.9252" height="8.09754" fill="white" transform="translate(800.229 227.411) rotate(-9.83523)"/>
</clipPath>
<clipPath id="clip3">
<rect width="44.3357" height="22.1679" fill="white" transform="translate(691.715 243.219) rotate(3.82387)"/>
</clipPath>
<clipPath id="clip4">
<rect width="13.2903" height="6.64517" fill="white" transform="translate(784.121 222.709) rotate(-12.7444)"/>
</clipPath>
</defs>
</svg>
