<svg width="965" height="430" viewBox="0 0 965 430" fill="none" xmlns="http://www.w3.org/2000/svg">
<g clip-path="url(#clip0)">
<path fill-rule="evenodd" clip-rule="evenodd" d="M965 256.244C858.902 361.357 683.908 430 486 430C283.675 430 105.298 358.259 0 249.152L0 430L486 430L965 430V256.244Z" fill="#1D2529"/>
<path fill-rule="evenodd" clip-rule="evenodd" d="M776.458 245.562L757.283 217.547L795.415 196.4L807.08 231.019L802.449 233.626L814.063 251.378L825.101 245.001L842.873 265.061L883.431 246.975L940.846 309.543L870.973 372.582L753.165 410.791L733.788 315.308L770.408 298.954L766.61 273.131L787.276 264.679L780.782 244.423L776.458 245.562ZM861.718 365.54C863.35 357.729 864.7 349.914 861.59 342.527C852.16 320.131 836.232 309.558 826.994 313.448C817.756 317.338 815.223 339.979 827.341 361.043C831.44 368.168 837.752 371.245 843.469 374.032L843.469 374.032L843.469 374.032L843.469 374.032L843.469 374.032L843.47 374.032C844.619 374.592 845.744 375.141 846.823 375.708C846.823 375.708 848.965 378.561 854.517 376.371C860.509 374.008 861.718 365.54 861.718 365.54ZM788.927 222.96C789.669 224.384 790.169 225.822 790.426 227.15L783.479 230.766C782.539 229.793 781.649 228.558 780.907 227.133C778.658 222.813 778.631 218.376 780.846 217.224C783.06 216.071 786.679 218.639 788.927 222.96ZM797.204 282.712C796.946 281.383 796.446 279.946 795.705 278.521C793.456 274.2 789.838 271.632 787.623 272.785C785.409 273.938 785.436 278.374 787.685 282.695C788.426 284.12 789.317 285.354 790.257 286.327L797.204 282.712ZM818.35 267.929C819.092 269.354 819.592 270.792 819.849 272.12L812.902 275.736C811.962 274.762 811.072 273.528 810.33 272.103C808.082 267.783 808.054 263.346 810.269 262.193C812.484 261.041 816.102 263.609 818.35 267.929ZM772.386 365.26L761.78 332.907L774.571 327.918L785.075 360.761L772.386 365.26ZM865.415 285.978L872.189 297.628L884.655 289.999L877.885 278.154L865.415 285.978Z" fill="#1D2529"/>
<path d="M841.592 145.646C847.846 161.93 849.91 172.91 850.161 176.364L847.51 183.424L876.094 162.131L868.571 162.65C865.333 161.421 855.404 156.3 841.592 145.646Z" fill="#1D2529"/>
<path fill-rule="evenodd" clip-rule="evenodd" d="M867.319 199.296L853.316 178.086L867.522 165.168L885.486 187.04L892.74 181.156L897.795 187.777L890.852 193.768L925.022 235.512L944.508 227.547L985.643 272.381L912.159 330.896L883.688 270.521L900.751 253.349L871.534 206.327L864.396 210.855L860.385 204.243L867.319 199.296ZM878.985 190.145C878.565 188.859 877.892 187.494 876.98 186.172C874.216 182.161 870.308 180.059 868.253 181.476C866.197 182.893 866.772 187.293 869.536 191.303C870.448 192.625 871.484 193.74 872.536 194.59L878.985 190.145ZM913.455 238.478C914.367 239.801 915.041 241.165 915.46 242.452L909.012 246.897C907.959 246.047 906.923 244.932 906.011 243.609C903.247 239.599 902.673 235.2 904.728 233.783C906.784 232.366 910.691 234.468 913.455 238.478Z" fill="#1D2529"/>
<path d="M704.047 245.489C702.903 260.229 700.196 269.549 698.986 272.367L693.667 277.217L728.229 268.503L721.246 266.755C718.844 264.848 712.042 257.925 704.047 245.489Z" fill="#1D2529"/>
<path fill-rule="evenodd" clip-rule="evenodd" d="M705.882 299.468L701.075 274.512L719.148 268.024L727.359 295.109L736.314 292.454L738.446 300.507L729.738 303.38L745.304 355.032L766.354 355.141L787.17 412.315L696.872 438.206L693.71 371.53L716.051 362.207L707.082 307.578L698.754 309.025L697.582 301.381L705.882 299.468ZM720.164 295.486C720.27 294.138 720.17 292.619 719.835 291.048C718.818 286.285 716.015 282.846 713.573 283.367C711.132 283.888 709.976 288.172 710.993 292.935C711.328 294.506 711.858 295.933 712.505 297.121L720.164 295.486ZM733.483 353.339C733.819 354.91 733.918 356.428 733.812 357.777L726.153 359.412C725.506 358.224 724.977 356.797 724.641 355.226C723.625 350.463 724.78 346.179 727.221 345.658C729.663 345.137 732.467 348.575 733.483 353.339Z" fill="#1D2529"/>
<path d="M747.245 151.561C754.452 184.51 755.264 206.037 754.769 212.682L747.81 225.247L807.519 193.952L793.226 192.525C787.48 189.152 770.24 176.235 747.245 151.561Z" fill="#1D2529"/>
<path fill-rule="evenodd" clip-rule="evenodd" d="M666.424 333.575C668.202 329.916 672.566 317.541 675.794 297.308C683.562 316.267 690.641 327.316 693.209 330.471L701.161 334.372L691.197 335.526L701.981 363.029L721.817 369.302L725.247 398.907L678.362 381.123L667.77 338.241L659.574 339.19L666.424 333.575ZM689.591 352.847C689.735 351.55 689.628 350.119 689.229 348.67C689.168 348.446 689.1 348.225 689.027 348.009L684.442 349.387L685.793 353.892L689.591 352.847ZM684.425 354.268L680.124 355.45C679.337 354.408 678.698 353.123 678.3 351.675C678.262 351.538 678.227 351.402 678.195 351.266L683.083 349.796L684.425 354.268ZM684.035 348.028L688.491 346.688C687.074 343.735 684.602 341.873 682.255 342.096L684.035 348.028ZM680.889 342.481L682.676 348.437L677.948 349.858C677.57 346.511 678.729 343.536 680.889 342.481Z" fill="#1D2529"/>
<path fill-rule="evenodd" clip-rule="evenodd" d="M925.63 200.064C923.48 199.121 916.935 195.315 907.951 187.63C911.626 198.866 912.647 206.369 912.698 208.716L910.662 213.403L915.473 210.185L921.017 226.304L914.646 236.478L924.208 250.771L938.163 225.424L926.783 202.618L930.74 199.971L925.63 200.064ZM922.655 217.197C922.107 216.68 921.619 216.011 921.252 215.226C921.195 215.104 921.142 214.982 921.094 214.859L923.624 213.751L924.715 216.235L922.655 217.197ZM925.457 215.889L927.789 214.8C927.745 214.048 927.545 213.245 927.179 212.459C927.144 212.385 927.109 212.312 927.072 212.241L924.374 213.422L925.457 215.889ZM923.295 213.001L920.835 214.078C920.354 212.251 920.744 210.508 921.859 209.729L923.295 213.001ZM922.603 209.387L924.045 212.672L926.654 211.53C925.569 209.917 923.947 209.043 922.603 209.387Z" fill="#1D2529"/>
<g clip-path="url(#clip1)">
<path d="M936.023 143.393L935.823 143.545L935.978 143.855C936.309 144.531 936.368 145.704 936.155 147.287C936.054 148.025 935.509 150.322 935.245 151.124C934.429 153.595 933.469 155.401 932.73 155.843C932.517 155.971 932.467 155.985 932.307 155.947C932.14 155.907 932.074 155.84 930.829 154.459C928.831 152.236 927.216 150.547 926.593 150.018L926.389 149.845L926.441 150.029C926.47 150.129 926.669 150.805 926.884 151.535C927.425 153.37 927.728 154.412 927.723 154.431C927.721 154.437 927.581 154.494 927.405 154.552C926.893 154.73 926.102 155.092 925.663 155.355C924.886 155.82 924.237 156.473 923.552 157.479C923.374 157.737 923.21 157.974 923.182 158.007C923.141 158.053 922.676 157.806 921.094 156.902L919.058 155.743L919.591 156.659C920.129 157.582 920.883 158.752 922.008 160.392C922.341 160.885 922.845 161.619 923.12 162.018C923.699 162.869 923.717 162.917 923.513 163.211C923.402 163.369 923.325 163.425 922.925 163.639C921.194 164.574 916.528 165.052 913.519 164.605C912.384 164.438 911.356 164.071 910.971 163.701C910.879 163.611 910.798 163.536 910.789 163.53C910.783 163.529 910.547 163.735 910.267 163.989C908.518 165.59 907.176 167.598 906.276 169.963C905.995 170.701 905.543 172.502 905.447 173.274C905.343 174.131 905.321 175.003 905.393 175.792C905.465 176.635 905.566 177.128 905.809 177.868C905.961 178.325 906.04 178.492 906.361 179.036C906.565 179.385 906.803 179.747 906.883 179.845L907.031 180.013L907.12 179.553C907.322 178.534 907.941 177.594 908.898 176.838C909.353 176.479 910.243 175.999 910.766 175.831C911.534 175.58 912.46 175.556 913.722 175.75L914.445 175.864L914.592 175.229C914.818 174.223 915.117 173.603 915.629 173.066C915.95 172.728 916.838 172.185 917.325 172.028C918.277 171.714 919.373 171.621 920.961 171.716C921.223 171.731 921.452 171.733 921.468 171.724C921.481 171.711 921.506 171.497 921.516 171.25C921.586 169.553 922.425 168.036 923.726 167.256C924.34 166.888 924.837 166.783 925.578 166.865C926.15 166.93 926.744 167.138 928.122 167.745C929.113 168.182 929.655 168.373 930.187 168.468C931.657 168.735 932.843 168.556 933.935 167.902C935.065 167.224 935.806 166.135 936.102 164.717C936.299 163.778 936.276 162.857 936.019 161.497C935.686 159.715 935.65 159.119 935.831 158.355C936.027 157.519 936.392 157.036 937.263 156.471C937.685 156.197 937.855 156.111 938.217 155.985C939.123 155.673 940.143 155.62 941.093 155.84C941.23 155.876 941.358 155.885 941.372 155.866C941.387 155.846 941.472 155.425 941.564 154.935C942.004 152.56 942.734 151.232 944.012 150.465C944.711 150.046 945.362 149.908 946.48 149.931C946.757 149.936 946.984 149.919 946.99 149.893C946.994 149.864 947.012 149.612 947.032 149.337C947.102 148.274 947.31 147.291 947.59 146.693C947.86 146.112 948.453 145.376 949.1 144.816C949.499 144.469 950.504 143.899 950.91 143.784C951.391 143.652 951.835 143.6 952.271 143.623C952.509 143.632 952.687 143.621 952.671 143.594C952.654 143.566 952.52 143.404 952.373 143.23C951.187 141.841 949.333 140.933 947.041 140.616C944.223 140.222 941.207 140.687 938.503 141.938C937.928 142.202 936.445 143.075 936.023 143.393Z" fill="#1D2529"/>
</g>
<g clip-path="url(#clip2)">
<path d="M849.308 224.565L849.242 224.584L849.251 224.679C849.269 224.885 849.168 225.191 848.957 225.576C848.858 225.755 848.491 226.29 848.344 226.469C847.891 227.022 847.466 227.39 847.233 227.43C847.165 227.442 847.151 227.44 847.114 227.415C847.075 227.388 847.065 227.364 846.882 226.887C846.59 226.12 846.343 225.527 846.236 225.33L846.201 225.265L846.196 225.318C846.193 225.346 846.178 225.539 846.161 225.748C846.118 226.271 846.092 226.568 846.089 226.573C846.088 226.574 846.047 226.575 845.996 226.572C845.847 226.567 845.608 226.582 845.47 226.606C845.225 226.648 844.994 226.751 844.719 226.941C844.647 226.99 844.582 227.034 844.572 227.04C844.556 227.048 844.462 226.938 844.146 226.55L843.739 226.052L843.785 226.339C843.831 226.629 843.909 227.003 844.035 227.535C844.071 227.694 844.128 227.932 844.159 228.062C844.223 228.337 844.223 228.351 844.142 228.406C844.098 228.436 844.072 228.443 843.949 228.458C843.412 228.526 842.169 228.187 841.442 227.775C841.168 227.62 840.941 227.424 840.879 227.291C840.864 227.259 840.851 227.232 840.849 227.23C840.848 227.228 840.767 227.258 840.67 227.295C840.063 227.533 839.521 227.914 839.056 228.432C838.911 228.593 838.617 229.01 838.516 229.198C838.404 229.407 838.313 229.629 838.253 229.838C838.188 230.061 838.165 230.198 838.154 230.411C838.148 230.543 838.152 230.594 838.18 230.765C838.198 230.875 838.223 230.991 838.234 231.024L838.255 231.082L838.324 230.973C838.476 230.732 838.728 230.552 839.048 230.453C839.2 230.406 839.476 230.371 839.626 230.38C839.848 230.391 840.087 230.477 840.392 230.651L840.566 230.752L840.666 230.604C840.824 230.368 840.962 230.239 841.146 230.152C841.262 230.097 841.543 230.046 841.683 230.054C841.959 230.068 842.248 230.152 842.646 230.334C842.712 230.363 842.77 230.387 842.775 230.386C842.78 230.384 842.807 230.331 842.834 230.269C843.02 229.841 843.385 229.535 843.796 229.464C843.99 229.431 844.127 229.453 844.309 229.547C844.449 229.62 844.581 229.732 844.874 230.024C845.085 230.235 845.205 230.337 845.332 230.414C845.682 230.628 846.004 230.699 846.348 230.64C846.705 230.578 847.003 230.372 847.219 230.038C847.362 229.817 847.447 229.578 847.516 229.204C847.607 228.715 847.657 228.558 847.779 228.381C847.912 228.186 848.053 228.098 848.332 228.039C848.467 228.011 848.519 228.006 848.625 228.009C848.888 228.019 849.154 228.106 849.376 228.257C849.408 228.279 849.44 228.294 849.445 228.291C849.451 228.287 849.514 228.188 849.586 228.071C849.934 227.506 850.253 227.238 850.656 227.168C850.877 227.13 851.057 227.159 851.341 227.275C851.412 227.304 851.472 227.322 851.476 227.316C851.48 227.309 851.509 227.246 851.542 227.177C851.665 226.912 851.815 226.681 851.946 226.555C852.073 226.433 852.298 226.303 852.519 226.223C852.656 226.174 852.969 226.127 853.085 226.138C853.221 226.152 853.34 226.183 853.45 226.232C853.51 226.257 853.556 226.272 853.555 226.263C853.553 226.255 853.535 226.2 853.515 226.141C853.348 225.667 852.963 225.251 852.407 224.943C851.723 224.564 850.905 224.385 850.088 224.437C849.914 224.448 849.448 224.525 849.308 224.565Z" fill="#1D2529"/>
</g>
<g clip-path="url(#clip3)">
<path d="M765.139 243.918C764.044 243.994 762.953 244.317 762.061 244.833C760.537 245.711 759.639 246.744 758.188 249.278C756.608 252.044 756.283 252.543 755.452 253.438C755.131 253.785 754.419 254.411 754.051 254.671C753.686 254.931 753.013 255.289 752.906 255.282C752.885 255.28 752.826 255.179 752.775 255.054L752.683 254.833L752.731 254.159C752.767 253.679 752.771 253.405 752.749 253.209C752.728 253.058 752.709 252.925 752.7 252.918C752.693 252.91 752.605 252.977 752.509 253.072C752.324 253.24 751.889 253.561 751.655 253.691C751.525 253.766 751.525 253.766 751.256 253.692C750.465 253.48 749.635 253.733 749.062 254.358L748.856 254.587L748.55 254.595C748.376 254.597 748.073 254.57 747.85 254.534C747.633 254.502 747.447 254.479 747.44 254.486C747.406 254.515 747.498 254.813 747.608 255.035C747.675 255.168 747.898 255.475 748.11 255.732C748.46 256.154 748.604 256.393 748.623 256.575C748.629 256.634 748.6 256.646 748.437 256.656C748.042 256.689 746.682 256.518 745.855 256.334C744.367 256.002 743.051 255.487 741.156 254.489C738.916 253.312 738.155 253.011 736.935 252.826C735.406 252.591 733.386 253.053 732.049 253.947C731.136 254.556 730.796 254.929 729.282 256.948C728.448 258.063 728.221 258.388 727.951 258.852C727.731 259.223 727.454 259.791 727.476 259.82C727.486 259.828 727.557 259.801 727.633 259.761C728.094 259.511 728.736 259.304 729.322 259.218C729.616 259.175 729.786 259.173 730.284 259.206C730.823 259.245 730.923 259.262 731.221 259.362C732.375 259.755 733.294 260.612 733.757 261.722C733.898 262.065 734.04 262.533 734.101 262.873L734.129 263.025L734.224 262.951C734.275 262.909 734.499 262.681 734.719 262.45C735.451 261.676 735.903 261.352 736.614 261.101C737.347 260.837 738.02 260.744 738.787 260.795C739.959 260.873 740.791 261.248 741.493 262.014C741.927 262.487 742.227 263.031 742.398 263.65C742.44 263.799 742.483 263.923 742.497 263.924C742.508 263.925 742.588 263.809 742.671 263.665C742.792 263.468 742.908 263.337 743.177 263.098C744.154 262.244 745.304 261.876 746.551 262.018C747.34 262.109 747.814 262.332 748.224 262.804C748.501 263.124 748.679 263.515 748.759 263.992L748.814 264.312L749 264.074C749.376 263.592 749.981 263.154 750.51 262.981C750.624 262.943 750.842 262.889 751.001 262.857L751.282 262.8L751.497 262.918C751.61 262.981 751.841 263.164 752.001 263.32C752.386 263.693 752.569 263.809 752.797 263.825C753.135 263.847 753.421 263.675 753.538 263.378C753.563 263.313 753.617 263.088 753.658 262.882C753.778 262.29 753.825 262.206 754.206 261.957C754.776 261.586 755.412 261.358 755.888 261.358C756.228 261.357 756.395 261.406 756.79 261.62C757.082 261.778 757.288 261.868 757.29 261.837C757.29 261.83 757.23 261.694 757.153 261.54C757.073 261.385 756.979 261.143 756.936 260.998C756.872 260.768 756.867 260.684 756.893 260.287C756.917 259.886 756.932 259.81 757.03 259.591C757.178 259.254 757.35 259.019 757.646 258.737C758.257 258.163 759.096 257.771 760.036 257.629C760.341 257.58 760.504 257.577 760.974 257.609C761.579 257.649 761.757 257.692 762.174 257.894C762.285 257.946 762.373 257.983 762.373 257.976C762.373 257.973 762.329 257.855 762.272 257.723C762.018 257.116 761.941 256.496 762.054 255.89C762.297 254.594 763.389 253.372 764.856 252.765C766.235 252.194 767.493 252.16 768.65 252.668C768.782 252.725 768.9 252.775 768.914 252.776C768.924 252.777 768.886 252.666 768.83 252.527C768.383 251.473 768.298 250.357 768.587 249.404C768.921 248.302 769.834 247.325 770.988 246.836C771.395 246.665 771.957 246.515 772.398 246.462C772.569 246.442 772.72 246.414 772.735 246.404C772.749 246.395 772.491 246.253 772.166 246.089C769.757 244.883 768.744 244.464 767.48 244.154C767.05 244.049 766.843 244.018 766.174 243.963C765.738 243.93 765.271 243.909 765.139 243.918Z" fill="#1D2529"/>
</g>
<g clip-path="url(#clip4)">
<path d="M831.824 218.309C831.516 218.425 831.23 218.611 831.018 218.835C830.656 219.218 830.486 219.591 830.286 220.444C830.068 221.373 830.017 221.544 829.855 221.873C829.792 222 829.641 222.24 829.558 222.347C829.475 222.453 829.313 222.613 829.281 222.62C829.275 222.621 829.249 222.597 829.224 222.566L829.179 222.51L829.135 222.312C829.104 222.171 829.082 222.092 829.059 222.038C829.04 221.996 829.023 221.96 829.02 221.958C829.017 221.957 828.998 221.984 828.978 222.019C828.939 222.083 828.842 222.213 828.786 222.27C828.755 222.303 828.755 222.303 828.671 222.304C828.426 222.311 828.209 222.455 828.098 222.683L828.058 222.767L827.971 222.795C827.921 222.81 827.832 222.829 827.764 222.837C827.699 222.847 827.644 222.856 827.642 222.859C827.635 222.87 827.687 222.948 827.738 223.002C827.768 223.034 827.859 223.104 827.941 223.159C828.078 223.251 828.14 223.307 828.161 223.358C828.168 223.374 828.161 223.38 828.114 223.397C828.004 223.44 827.599 223.507 827.345 223.525C826.889 223.557 826.467 223.522 825.837 223.397C825.093 223.25 824.849 223.229 824.482 223.28C824.023 223.343 823.482 223.648 823.174 224.019C822.964 224.272 822.898 224.409 822.636 225.118C822.491 225.51 822.454 225.622 822.416 225.779C822.385 225.904 822.354 226.091 822.363 226.098C822.366 226.099 822.384 226.085 822.403 226.067C822.514 225.956 822.68 225.842 822.841 225.767C822.922 225.73 822.971 225.714 823.117 225.681C823.275 225.647 823.305 225.643 823.399 225.646C823.765 225.66 824.102 225.828 824.33 226.107C824.399 226.194 824.48 226.316 824.527 226.409L824.548 226.45L824.569 226.421C824.58 226.404 824.625 226.32 824.668 226.234C824.813 225.949 824.915 225.818 825.098 225.685C825.286 225.546 825.471 225.462 825.696 225.411C826.039 225.333 826.31 225.37 826.577 225.53C826.742 225.629 826.875 225.759 826.977 225.923C827.002 225.962 827.025 225.994 827.029 225.993C827.032 225.992 827.046 225.952 827.057 225.904C827.075 225.837 827.097 225.789 827.154 225.697C827.362 225.368 827.661 225.165 828.031 225.099C828.265 225.058 828.421 225.081 828.579 225.181C828.686 225.25 828.771 225.347 828.834 225.477L828.877 225.564L828.91 225.48C828.977 225.31 829.114 225.132 829.251 225.037C829.28 225.016 829.338 224.982 829.381 224.96L829.457 224.919L829.529 224.935C829.567 224.943 829.649 224.976 829.708 225.007C829.851 225.081 829.913 225.099 829.98 225.084C830.079 225.061 830.147 224.988 830.155 224.892C830.157 224.871 830.153 224.802 830.147 224.74C830.131 224.559 830.137 224.531 830.225 224.427C830.357 224.271 830.521 224.151 830.657 224.111C830.755 224.081 830.807 224.081 830.939 224.109C831.036 224.13 831.103 224.138 831.101 224.129C831.101 224.127 831.072 224.093 831.036 224.055C831 224.017 830.952 223.956 830.928 223.918C830.89 223.857 830.881 223.834 830.855 223.717C830.827 223.6 830.825 223.577 830.834 223.506C830.848 223.396 830.877 223.314 830.938 223.207C831.065 222.99 831.272 222.806 831.53 222.685C831.614 222.645 831.661 222.63 831.798 222.599C831.975 222.559 832.03 222.556 832.167 222.578C832.204 222.584 832.232 222.587 832.232 222.585C832.231 222.584 832.209 222.554 832.181 222.521C832.056 222.368 831.981 222.197 831.962 222.013C831.921 221.62 832.13 221.175 832.5 220.875C832.847 220.594 833.206 220.476 833.581 220.523C833.624 220.528 833.662 220.533 833.666 220.532C833.669 220.531 833.649 220.503 833.621 220.467C833.402 220.203 833.283 219.889 833.284 219.591C833.286 219.246 833.465 218.887 833.754 218.648C833.857 218.564 834.005 218.473 834.128 218.42C834.175 218.399 834.216 218.378 834.219 218.374C834.223 218.37 834.137 218.352 834.029 218.332C833.234 218.192 832.907 218.158 832.517 218.177C832.385 218.184 832.323 218.192 832.126 218.234C831.998 218.262 831.862 218.296 831.824 218.309Z" fill="#1D2529"/>
</g>
<path d="M670.465 395.398L673.912 386.051L678.004 394.755L682.501 415.992L676.936 417.23L670.465 395.398Z" fill="#1D2529"/>
<path d="M646.254 399.254L648.251 388.837L656.243 399.728L659.718 421.417L656.174 422.25L646.254 399.254Z" fill="#1D2529"/>
<path d="M626.705 399.827L629.606 391.455L632.294 398.09L635.555 424.274L631.536 424.584L626.705 399.827Z" fill="#1D2529"/>
<rect x="644.412" y="406.738" width="53.4064" height="3.79006" transform="rotate(-13.0492 644.412 406.738)" fill="#1D2529"/>
<rect x="620.943" y="405.209" width="38.5628" height="3.79005" transform="rotate(-4.4331 620.943 405.209)" fill="#1D2529"/>
<path d="M191.45 345.083C187.035 356.074 177.255 363.435 165.223 363.354C165.223 363.354 158.199 362.194 155.639 359.302C151.369 359.51 146.965 358.814 142.719 357.108C138.194 355.29 134.353 352.535 131.322 349.159C129.151 349.312 125.585 348.966 121.833 346.107C112.55 339.07 110.463 325.467 114.98 314.222C119.391 303.243 129.171 295.883 141.202 295.964C141.202 295.964 148.71 297.195 151.03 300.3C154.314 300.067 157.306 300.988 160.434 302.206C161.287 300.181 163.626 296.096 168.896 294.976C173.193 298.729 173.193 298.729 173.193 298.729C173.193 298.729 168.866 301.424 167.762 305.144C170.821 306.404 173.69 307.819 175.83 310.125C178.025 310.106 181.252 310.641 184.611 313.203C193.877 320.249 195.963 333.851 191.45 345.083ZM145.661 324.75L144.924 309.993L131.812 316.167L145.661 324.75ZM156.963 334.535L154.793 325.718L147.261 330.638L156.963 334.535ZM178.569 334.476L173.071 321.301L162.74 331.612L178.569 334.476ZM168.574 340.789L168.346 345.306L158.751 343.516C158.751 343.516 158.945 342.64 159.497 339.684C156.816 340.037 141.735 332.548 141.735 332.548L139.677 335.695L132.958 331.089C132.958 331.089 133.234 329.611 134.497 327.257C131.218 325.939 128.055 321.173 123.936 316.022C120.394 336.688 141.98 346.157 141.98 346.157L143.299 342.873L152.179 346.441C152.179 346.441 151.823 346.934 150.86 349.724C172.722 357.713 184.328 340.285 184.328 340.285C176.311 341.673 168.574 340.789 168.574 340.789Z" fill="#1D2529"/>
<path fill-rule="evenodd" clip-rule="evenodd" d="M227.201 397.678C226.975 397.731 226.756 397.787 226.532 397.833L226.488 397.842C218.537 399.583 211.513 397.044 206.417 390.702C206.315 390.567 206.203 390.436 206.101 390.301L205.983 390.143C201.541 389.957 197.489 387.626 193.809 383.251C193.676 383.205 193.543 383.158 193.42 383.106C192.367 371.879 193.798 361.353 197.425 351.425C201.068 341.477 206.927 332.118 214.703 323.277C214.814 323.316 214.925 323.355 215.033 323.402C221.403 321.809 226.869 323.542 231.693 327.689C233.851 326.108 235.484 325.264 237.717 325.452C237.765 325.245 237.838 325.038 237.933 324.839C238.932 322.825 240.167 321.085 241.582 319.542C242.961 318.052 244.528 316.736 246.229 315.558C247.527 314.654 249.314 314.976 250.219 316.274C251.123 317.571 250.801 319.359 249.503 320.263C248.163 321.194 246.915 322.24 245.803 323.443C244.754 324.584 243.839 325.864 243.111 327.317C245.177 328.592 246.235 330.326 246.942 332.94L247.032 333.038C252.039 332.56 257.157 334.478 262.415 339.914L262.578 339.971C263.12 351.799 261.832 362.816 258.418 372.893C255.029 382.922 249.523 392.056 241.642 400.155C241.445 400.102 241.243 400.039 241.049 399.979C235.842 401.143 231.012 400.173 227.201 397.678ZM190.641 381.829C186.943 379.789 184.393 376.849 182.767 373.19C177.686 361.782 180.693 344.962 187.846 334.922C193.227 327.371 202.374 320.789 211.854 322.507C204.294 331.299 198.559 340.61 194.932 350.514C191.324 360.365 189.808 370.779 190.641 381.829ZM265.282 341.247C269.563 343.683 273.148 347.974 275.399 355.846C278.425 372.15 268.958 396.498 251.893 400.601C249.437 401.189 247.123 401.254 244.659 400.852C252.23 392.76 257.566 383.682 260.929 373.752C264.313 363.738 265.683 352.866 265.282 341.247ZM247.294 376.788C241.456 385.216 230.783 389.269 220.671 386.307L222.633 380.732L216.954 378.733L215.135 383.902C207.274 379.235 202.766 370.444 203.413 361.342C205.625 363.831 208.268 366.155 211.291 368.224L209.653 372.876L215.332 374.875L216.562 371.382C218.737 372.513 221.055 373.52 223.485 374.375C225.936 375.238 228.389 375.91 230.81 376.389L228.585 382.711L234.264 384.709L236.866 377.317L236.504 377.19C240.277 377.505 243.915 377.358 247.294 376.788ZM220.258 366.707L229.01 359.006L231.15 370.541L220.258 366.707ZM207.055 349.228L220.607 337.299L223.922 355.165L207.055 349.228ZM235.546 359.257L249.099 347.328L252.413 365.194L235.546 359.257Z" fill="#1D2529"/>
<path d="M76.5 339L69.6481 365.5L56 331L22 292.5L48.8406 235.213L38.5 208.5L29 210L28 208L38.5 204L28 191L29 188.5L42 197L55.7383 220.313L76.5 160.5L83.2961 134L78.0644 109.5L69.6481 103.5L78.5 105L86.2532 117L89.2103 134L113.5 87H129.927L132 93H116.279L104.906 121L111.275 127L111 130.5L104 126L83.2961 200.5L98.5 165.5L117.416 150L139.481 147.5L154.948 154.5L162 170L160.863 176.5L143.12 158L113.5 163L78.5 225L116.279 200.5L143.12 196L151.764 218L150.627 244.5L143.12 259L132.657 252.5V248L140.845 250L147.215 237L139.481 208.5L116.279 212.5L78.5 264.5L76.5 339Z" fill="#1D2529"/>
<path fill-rule="evenodd" clip-rule="evenodd" d="M146 220L101 229L100.804 228.019L145.804 219.019L146 220Z" fill="#1D2529"/>
<path fill-rule="evenodd" clip-rule="evenodd" d="M148 237L109 215L109.491 214.129L148.491 236.129L148 237Z" fill="#1D2529"/>
<path fill-rule="evenodd" clip-rule="evenodd" d="M135 251L119 207L119.94 206.658L135.94 250.658L135 251Z" fill="#1D2529"/>
<path fill-rule="evenodd" clip-rule="evenodd" d="M139 206L126 224L125.189 223.414L138.189 205.414L139 206Z" fill="#1D2529"/>
<path fill-rule="evenodd" clip-rule="evenodd" d="M125 266V224H126V266H125Z" fill="#1D2529"/>
<path fill-rule="evenodd" clip-rule="evenodd" d="M122.211 214.594L122.825 215.12C125.472 217.389 128.66 217.32 129.879 217.015L130.5 216.86V217.5C130.5 220.094 132.046 221.645 132.757 222.071L133.306 222.401L132.854 222.854C131.443 224.264 131.676 226.094 131.964 226.814L132.195 227.391L131.582 227.493C130.588 227.659 129.951 228.308 129.548 229.122C129.14 229.946 129 230.892 129 231.5H128C128 230.775 128.16 229.67 128.652 228.678C129.081 227.813 129.782 226.999 130.87 226.641C130.638 225.627 130.638 223.998 131.76 222.58C130.864 221.833 129.704 220.32 129.524 218.097C127.965 218.309 125.215 218.14 122.747 216.333C122.168 217.735 120.761 219.671 118.177 219.963C118.344 220.489 118.487 220.999 118.571 221.485C118.688 222.165 118.698 222.837 118.471 223.479C118.011 224.784 116.67 225.721 114.144 226.479L113.856 225.521C116.33 224.779 117.239 223.966 117.529 223.146C117.677 222.725 117.687 222.242 117.585 221.655C117.483 221.065 117.277 220.411 117.026 219.658L116.806 219H117.5C120.365 219 121.707 216.612 122.015 215.379L122.211 214.594Z" fill="#1D2529"/>
<path d="M129 270.5C129 273.538 127.433 276 125.5 276C123.567 276 122 273.538 122 270.5C122 267.462 123.567 265 125.5 265C127.433 265 129 267.462 129 270.5Z" fill="#1D2529"/>
<path fill-rule="evenodd" clip-rule="evenodd" d="M129.094 263.38L132.61 264.358L132.342 265.321L129.688 264.583L128.274 268.104L127.346 267.732L129.094 263.38Z" fill="#1D2529"/>
<path fill-rule="evenodd" clip-rule="evenodd" d="M130.963 265.789L133.812 268.069L133.188 268.849L131.037 267.129L128.354 269.813L127.646 269.105L130.963 265.789Z" fill="#1D2529"/>
<path fill-rule="evenodd" clip-rule="evenodd" d="M131.934 267.717L133.961 270.751L133.129 271.307L131.6 269.016L128.23 270.762L127.77 269.875L131.934 267.717Z" fill="#1D2529"/>
<path fill-rule="evenodd" clip-rule="evenodd" d="M131.571 270.566L132.992 278.369L132.008 278.549L130.768 271.735L127.093 272.428L126.907 271.445L131.571 270.566Z" fill="#1D2529"/>
<path fill-rule="evenodd" clip-rule="evenodd" d="M122.386 263.38L118.871 264.358L119.139 265.321L121.792 264.583L123.207 268.104L124.135 267.732L122.386 263.38Z" fill="#1D2529"/>
<path fill-rule="evenodd" clip-rule="evenodd" d="M120.517 265.789L117.668 268.069L118.293 268.849L120.443 267.129L123.127 269.813L123.834 269.105L120.517 265.789Z" fill="#1D2529"/>
<path fill-rule="evenodd" clip-rule="evenodd" d="M119.546 267.717L117.52 270.751L118.351 271.307L119.881 269.016L123.25 270.762L123.71 269.875L119.546 267.717Z" fill="#1D2529"/>
<path fill-rule="evenodd" clip-rule="evenodd" d="M119.909 270.566L118.488 278.369L119.472 278.549L120.713 271.735L124.388 272.428L124.573 271.445L119.909 270.566Z" fill="#1D2529"/>
</g>
<defs>
<clipPath id="clip0">
<rect width="965" height="430" fill="white"/>
</clipPath>
<clipPath id="clip1">
<rect width="57.97" height="29.4763" fill="white" transform="translate(896 161.807) rotate(-30.9428)"/>
</clipPath>
<clipPath id="clip2">
<rect width="15.9252" height="8.09754" fill="white" transform="translate(837.229 225.325) rotate(-9.83523)"/>
</clipPath>
<clipPath id="clip3">
<rect width="44.3357" height="22.1679" fill="white" transform="translate(728.715 241.133) rotate(3.82387)"/>
</clipPath>
<clipPath id="clip4">
<rect width="13.2903" height="6.64517" fill="white" transform="translate(821.121 220.623) rotate(-12.7444)"/>
</clipPath>
</defs>
</svg>
