<svg width="512" height="342" viewBox="0 0 512 342" fill="none" xmlns="http://www.w3.org/2000/svg">
<g clip-path="url(#clip0)">
<rect width="512" height="342" fill="white"/>
<rect y="306" width="512" height="38" fill="#E8EAEA"/>
<path fill-rule="evenodd" clip-rule="evenodd" d="M378.555 168.619L373.244 168.862C357.842 189.465 356.94 222.756 337.315 244.59L344.438 250.32C383.729 236.454 385.325 195.739 378.555 168.619Z" fill="#E87613"/>
<path fill-rule="evenodd" clip-rule="evenodd" d="M385.853 139.414C388.645 136.13 390.535 132.105 390.219 127.595C389.309 114.602 371.257 117.46 367.746 124.018C364.235 130.576 364.652 147.211 369.19 148.383C371 148.851 374.855 147.706 378.78 145.336L376.316 162.795H390.86L385.853 139.414Z" fill="#915B3C"/>
<path fill-rule="evenodd" clip-rule="evenodd" d="M386.971 142.338C388.796 134.202 393.996 128.656 393.202 125.019C392.672 122.594 391.261 121.087 388.968 120.496C387.783 115.689 383.958 113.645 377.495 114.363C367.8 115.439 361.883 119.473 364.438 128.35C366.787 128.35 369.623 127.499 373.544 128.957C374.788 129.42 375.678 130.855 376.214 133.262H377.986C379.705 130.405 381.401 129.355 383.073 130.113C384.744 130.87 385.124 132.709 384.213 135.63L385.085 142.338H386.971Z" fill="#191847"/>
<path fill-rule="evenodd" clip-rule="evenodd" d="M431.46 238.689H361.773C356.419 238.689 352.078 243.038 352.078 248.404V304.262C352.078 309.627 356.419 313.976 361.773 313.976H431.46C436.814 313.976 441.155 309.627 441.155 304.262V248.404C441.155 243.038 436.814 238.689 431.46 238.689ZM421.764 255.689C423.103 255.689 424.188 256.777 424.188 258.118V294.547C424.188 295.889 423.103 296.976 421.764 296.976H371.469C370.13 296.976 369.045 295.889 369.045 294.547V258.118C369.045 256.777 370.13 255.689 371.469 255.689H421.764Z" fill="#B9BFC2"/>
<path fill-rule="evenodd" clip-rule="evenodd" d="M291.99 310.94C303.938 296.323 312.021 285.486 316.242 278.43C323.468 266.348 329.382 255.597 331.249 251.491C335.699 241.698 321.002 237.112 317.676 241.68C312.642 248.593 301.89 270.348 285.421 306.944L291.99 310.94Z" fill="#B28B67"/>
<path fill-rule="evenodd" clip-rule="evenodd" d="M316.472 306.69L338.707 250.612C343.462 240.389 320.497 233.669 317.002 238.427C309.068 249.228 290.209 291.836 287.845 295.054L316.472 306.69Z" fill="#2F3676"/>
<path fill-rule="evenodd" clip-rule="evenodd" d="M375.69 295.44C371.36 289.111 355.608 267.815 347.028 259.004C344.562 256.472 342.156 254.042 339.881 251.778C333.117 245.047 319.644 256.365 326.395 262.496C343.208 277.764 367.74 298.375 369.789 300.213C372.662 302.788 378.412 299.419 375.69 295.44Z" fill="#915B3C"/>
<path fill-rule="evenodd" clip-rule="evenodd" d="M374.681 292.583C376.172 293.812 377.142 294.817 377.591 295.596C378.137 296.544 378.776 298.018 379.508 300.018C378.41 300.653 368.542 306.363 349.904 317.147C347.668 315.046 347.32 313.414 348.861 312.252C350.401 311.09 351.673 310.11 352.675 309.312L362.896 295.209C363.093 294.938 363.472 294.878 363.743 295.074C363.747 295.078 363.752 295.081 363.756 295.085L365.878 296.721C367.826 296.55 369.279 296.187 370.238 295.632C371.018 295.181 371.912 294.243 372.923 292.818L372.923 292.818C373.31 292.271 374.067 292.142 374.612 292.53C374.636 292.547 374.659 292.564 374.681 292.583Z" fill="#CA3C3D"/>
<path fill-rule="evenodd" clip-rule="evenodd" d="M297.129 308.756C297.807 310.569 298.146 311.926 298.146 312.826C298.146 313.921 297.964 315.519 297.6 317.619C296.333 317.619 284.94 317.619 263.422 317.619C262.534 314.677 263.047 313.089 264.961 312.854C266.874 312.62 268.464 312.408 269.729 312.219L285.615 305.123C285.921 304.987 286.279 305.124 286.415 305.431C286.417 305.436 286.42 305.441 286.422 305.446L287.443 307.928C289.214 308.756 290.654 309.17 291.761 309.17C292.661 309.17 293.904 308.806 295.489 308.078L295.489 308.078C296.098 307.798 296.817 308.066 297.096 308.676C297.108 308.702 297.119 308.729 297.129 308.756Z" fill="#CA3C3D"/>
<path fill-rule="evenodd" clip-rule="evenodd" d="M346.708 253.413C365.188 250.396 377.566 248.333 383.842 247.225C401.732 244.064 406.949 234.418 403.865 213.372H370.903C366.541 214.634 348.314 222.44 316.224 236.79C310.45 239.662 311.526 248.129 312.581 250.918C312.624 251.032 322.357 267.743 341.781 301.052L368.745 283.84L346.657 255.441C346.074 254.264 346.09 253.588 346.708 253.413Z" fill="#5C63AB"/>
<path fill-rule="evenodd" clip-rule="evenodd" d="M418.548 205.915L405.885 205.965C413.704 231.255 417.925 244.674 418.548 246.221C419.95 249.703 416.983 255.006 415.714 257.855C419.847 259.708 419.406 252.846 424.62 255.276C429.378 257.494 432.998 261.514 438.496 258.115C439.172 257.697 439.912 256.123 438.123 254.894C433.664 251.831 427.239 246.47 426.371 244.705C425.187 242.299 422.579 229.369 418.548 205.915Z" fill="#915B3C"/>
<path fill-rule="evenodd" clip-rule="evenodd" d="M405.403 218.653C384.393 218.653 368.938 218.653 359.039 218.653C356.921 218.653 357.32 215.588 357.626 214.041C361.161 196.191 374.958 176.949 374.958 151.539L388.332 149.438C399.393 167.263 403.219 189.209 405.403 218.653Z" fill="#DDE3E9"/>
<path fill-rule="evenodd" clip-rule="evenodd" d="M405.03 166.959C406.973 166.399 408.511 165.095 409.645 163.045C414.533 154.207 412.768 149.342 407.544 147.743C402.32 146.143 397.662 149.438 389.339 149.438C388.886 149.438 388.471 149.466 388.095 149.523L383.908 149.762C371.896 190.551 368.584 217.765 373.97 231.403H410.462C412.624 236.455 414.693 240.705 416.669 244.154H426.612C427.548 213.837 420.354 188.105 405.03 166.959Z" fill="#FF9B21"/>
<path fill-rule="evenodd" clip-rule="evenodd" d="M402.516 210.455C401.368 220.076 399.503 227.059 396.92 231.403H410.462C407.94 225.511 405.291 218.528 402.516 210.455V210.455Z" fill="black" fill-opacity="0.1"/>
<path fill-rule="evenodd" clip-rule="evenodd" d="M144.666 146.278C141.997 143.138 140.191 139.291 140.492 134.98C141.362 122.559 158.619 125.291 161.976 131.561C165.333 137.83 164.934 153.732 160.596 154.853C158.866 155.299 155.18 154.205 151.429 151.939L153.783 168.63H139.88L144.666 146.278Z" fill="#EECEB1"/>
<path d="M134.087 317.797C158.722 317.797 178.693 298.698 178.693 275.137C178.693 251.576 158.722 232.476 134.087 232.476C109.453 232.476 89.4822 251.576 89.4822 275.137C89.4822 298.698 109.453 317.797 134.087 317.797Z" fill="#D5D8DA"/>
<path fill-rule="evenodd" clip-rule="evenodd" d="M218.379 311.215C210.957 294.756 205.589 280.423 203.435 272.861C199.745 259.914 196.939 248.521 196.23 244.266C194.538 234.12 209.242 233.529 211.185 238.571C214.127 246.203 219.262 271.278 225.432 309.154L218.379 311.215ZM132.285 259.56C139.095 256.863 162.943 248.423 174.445 246.035C177.75 245.349 180.953 244.712 183.965 244.135C192.918 242.423 197.556 258.605 188.934 259.848C167.461 262.945 137.02 266.142 134.415 266.501C130.764 267.004 128.005 261.255 132.285 259.56Z" fill="#EECEB1"/>
<path fill-rule="evenodd" clip-rule="evenodd" d="M189.46 239.682L152.625 220.895V216.805H157.005C192.642 225.903 210.852 231.734 211.636 234.297C211.644 234.325 211.652 234.352 211.659 234.38C211.677 234.404 211.695 234.427 211.712 234.451C218.774 244.183 223.004 291.694 224.392 295.252L210.859 297.275C205.682 278.041 189.12 264.642 189.56 241.605C189.441 240.929 189.411 240.289 189.46 239.682Z" fill="#0068B3"/>
<path fill-rule="evenodd" clip-rule="evenodd" d="M155.685 250.841C152.315 250.165 149.211 249.561 146.555 249.095C129.401 246.08 124.398 236.879 127.356 216.805H158.963C164.126 218.291 190.958 229.565 204.88 235.562C214.094 239.53 211.19 253.838 205.972 257.561C205.943 257.79 205.85 257.945 205.682 258.014C177.613 269.671 155.408 263.555 147.99 265.509L144.559 254.664L155.685 250.841Z" fill="#0088F2"/>
<path fill-rule="evenodd" clip-rule="evenodd" d="M134.618 257.838C132.778 258.015 131.472 258.292 130.699 258.67C129.76 259.129 128.465 259.956 126.815 261.151C127.346 262.242 132.118 272.048 141.131 290.569C144.027 290.099 145.176 288.992 144.575 287.246C143.975 285.501 143.491 284.044 143.123 282.875L142.558 266.225C142.548 265.905 142.279 265.654 141.96 265.665C141.954 265.665 141.949 265.666 141.943 265.666L139.386 265.828C137.933 264.651 136.975 263.586 136.511 262.632C136.134 261.858 135.926 260.635 135.887 258.965L135.887 258.965C135.872 258.324 135.341 257.817 134.701 257.833C134.673 257.834 134.646 257.835 134.618 257.838Z" fill="#9CA5A9"/>
<path fill-rule="evenodd" clip-rule="evenodd" d="M215.001 308.164C214.353 309.897 214.029 311.194 214.029 312.055C214.029 313.101 214.203 314.629 214.551 316.637C215.763 316.637 226.654 316.637 247.224 316.637C248.073 313.824 247.583 312.306 245.754 312.082C243.924 311.857 242.405 311.655 241.195 311.474L226.009 304.691C225.717 304.56 225.374 304.692 225.244 304.985C225.242 304.99 225.239 304.995 225.237 305L224.261 307.372C222.568 308.164 221.192 308.56 220.133 308.56C219.273 308.56 218.085 308.212 216.569 307.516L216.569 307.516C215.987 307.248 215.3 307.504 215.033 308.087C215.021 308.112 215.011 308.138 215.001 308.164Z" fill="#727E84"/>
<path fill-rule="evenodd" clip-rule="evenodd" d="M188.54 200.911L209.531 191.675C213.208 188.003 216.758 185.213 220.183 183.304C221.207 182.977 222.956 182.878 221.09 185.61C219.223 188.341 217.383 191.298 218.128 192.256C218.874 193.213 221.034 192.156 221.888 193.713C222.457 194.751 218.815 195.992 210.963 197.437L195.243 209.514L188.54 200.911ZM103.68 203.455L115.55 205.815C103.612 228.106 97.2102 239.92 96.3439 241.258C94.3948 244.267 96.2133 249.782 96.8851 252.687C92.6708 253.67 94.3328 247.314 88.9997 248.641C84.132 249.852 80.0047 252.961 75.4657 248.769C74.9076 248.253 74.4991 246.642 76.4018 245.816C81.142 243.757 88.1452 239.903 89.2808 238.407C90.8294 236.366 95.629 224.715 103.68 203.455Z" fill="#EECEB1"/>
<path fill-rule="evenodd" clip-rule="evenodd" d="M147.813 158.955L152.823 158.094C163.733 168.699 168.185 194.175 175.457 197.548C182.331 200.736 192.076 197.651 203.66 193.485L207.207 201.426C196.682 212.835 174.26 222.473 165.172 216.971C150.641 208.173 147.287 176.752 147.813 158.955Z" fill="#DB2721"/>
<path fill-rule="evenodd" clip-rule="evenodd" d="M125.977 222.028C146.062 222.028 160.836 222.028 170.299 222.028C172.325 222.028 171.943 219.098 171.65 217.619C168.271 200.555 155.081 182.16 155.081 157.869L142.297 155.86C131.722 172.901 128.066 193.881 125.977 222.028Z" fill="#DDE3E9"/>
<path fill-rule="evenodd" clip-rule="evenodd" d="M121.557 204.751C112.521 221.081 104.927 232.838 98.7725 240.021L89.4822 238.198C95.4666 201.012 112.797 173.566 141.472 155.86H143.78L146.534 155.86C158.011 195.06 161.175 221.179 156.026 234.217H116.129C116.761 224.677 118.785 214.588 121.557 204.751H121.557Z" fill="#FF4133"/>
<path d="M138.628 123C140.228 124.2 139.628 126 140.128 127C139.628 128 139.628 128 138.628 129.5C137.128 127.5 136.628 126.2 134.628 127C127.128 130 133.537 149.768 140.128 163.5C152.128 188.5 137.128 196.833 132.628 206.5C133.461 200.5 134.628 187.1 132.628 181.5C130.128 174.5 122.628 171 120.628 155C118.628 139 123.128 128 128.128 124C133.128 120 136.628 121.5 138.628 123Z" fill="#333D43"/>
<path d="M144.128 124.743C148.128 123.24 152.22 124.034 154.052 124.335C156.584 124.751 161.28 126.894 162.032 128.596C162.785 130.299 162.307 132.381 159.156 132.193C155.962 136.027 151.326 138.654 150.789 138.696C150.75 138.699 148.698 135.907 146.746 137.083C144.483 138.446 144.901 140.961 146.124 142.919L146.14 142.944C146.779 143.966 147.737 145.5 146.124 146.67C143.559 148.532 136.96 144.391 135.862 140.849C133.828 134.286 137.263 127.323 144.128 124.743Z" fill="#1D2529"/>
<path d="M216.034 126.375C215.128 129.5 190.19 142 190.19 142L226.065 127.5C232.278 127.309 249.203 130.318 267.417 126.375C289.94 121.5 295.628 115.658 295.628 93.1467C295.628 70.2304 279.642 57.2241 255.831 55.3348C212.507 51.8974 203.439 54.189 190.342 73.095C177.244 92.0009 185.808 104.605 194.876 114.344C203.943 124.084 211.5 124.275 216.034 126.375Z" fill="#E9ECEC"/>
<ellipse cx="235.628" cy="88.5" rx="18" ry="17.5" fill="white"/>
<path fill-rule="evenodd" clip-rule="evenodd" d="M251.277 97.1524C252.773 94.6005 253.628 91.6473 253.628 88.5C253.628 85.4753 252.839 82.6298 251.449 80.1476C251.246 80.204 251.013 80.2024 250.806 80.2011C250.775 80.2009 250.744 80.2007 250.714 80.2007C250.261 80.2007 250.2 80.4301 250.107 80.775C250.083 80.8644 250.057 80.9614 250.021 81.0642C249.702 81.9876 249.405 82.246 248.448 82.246C248.011 82.246 248.033 81.9532 248.059 81.6109C248.071 81.4579 248.083 81.2949 248.056 81.1438C247.968 80.662 247.655 80.4657 247.255 80.2404C247.173 80.1945 247.072 80.1341 246.973 80.0658C246.975 79.8264 246.901 79.6124 246.647 79.5076C246.47 79.4349 246.614 79.7221 246.647 79.7689C246.718 79.8719 246.843 79.9758 246.973 80.0658C246.972 80.229 246.935 80.4041 246.897 80.5643C246.724 81.2804 246.245 81.7161 245.544 81.2233C245.478 81.1766 245.43 81.1188 245.383 81.0615C245.321 80.9861 245.26 80.9117 245.158 80.8654C245.109 80.8429 245.048 80.8367 244.988 80.8306C244.902 80.8219 244.816 80.8131 244.76 80.7575C244.664 80.6607 244.626 80.4631 244.587 80.2581C244.549 80.0636 244.511 79.8626 244.42 79.7348C244.357 79.6466 244.299 79.5784 244.247 79.5172C244.115 79.3609 244.022 79.2513 243.982 78.9735C243.925 78.5753 243.345 78.3692 243.011 78.3599C242.907 78.357 242.235 78.4511 242.613 78.6667C242.666 78.697 242.724 78.7253 242.783 78.7541C243.02 78.8691 243.272 78.9916 243.272 79.2803C243.272 79.5785 243.192 80.315 242.812 80.3995C242.625 80.4411 242.409 80.4285 242.2 80.4164C242.104 80.4107 242.009 80.4052 241.92 80.4052C241.565 80.4052 241.575 80.4562 241.608 80.624C241.62 80.6881 241.636 80.7692 241.636 80.8711C241.636 81.5824 242.645 81.5056 243.355 81.4516C243.519 81.4391 243.667 81.4278 243.783 81.4278C244.157 81.4278 244.499 82.1998 244.499 82.5755C244.499 83.0874 244.32 83.1663 243.834 83.1663C243.538 83.1663 243.554 83.3803 243.571 83.6134C243.575 83.6687 243.579 83.7251 243.579 83.7799C243.579 83.7873 243.579 83.7947 243.579 83.8022C243.579 84.0909 243.579 84.5033 243.158 84.331C243.025 84.2763 242.893 84.2156 242.762 84.1549C242.447 84.0087 242.132 83.863 241.783 83.8026C241.584 83.7682 241.552 83.8604 241.738 83.8822C242.339 83.9529 241.839 85.407 241.732 85.6207C241.455 86.1744 241.053 86.6328 240.409 86.3365C240.349 86.309 240.267 86.2593 240.181 86.2072C239.964 86.0754 239.723 85.9288 239.755 86.0922C239.766 86.1457 239.795 86.1934 239.823 86.241C239.852 86.2898 239.882 86.3385 239.892 86.3933C239.959 86.7657 239.492 88.5638 238.818 88.0125C238.595 87.8299 238.492 87.5978 238.386 87.3597C238.34 87.2572 238.295 87.1536 238.238 87.0524C238.144 86.883 237.942 86.9464 237.763 87.0026C237.682 87.0282 237.605 87.0524 237.545 87.0524C236.873 87.0524 236.851 86.4606 236.832 85.9183C236.831 85.8947 236.83 85.8713 236.829 85.8479C236.804 85.1916 235.408 84.8026 234.886 84.8026C234.732 84.8026 234.814 84.849 234.93 84.9155C235.004 84.9573 235.091 85.0071 235.142 85.0582C235.345 85.2612 235.5 85.5169 235.5 85.8025C235.5 86.8814 235.459 88.2409 234.068 87.8932C234.019 87.8809 233.93 87.8376 233.825 87.7861C233.539 87.6465 233.128 87.4462 233.04 87.6375C232.836 88.0789 232.771 88.0475 232.609 87.9696C232.526 87.9295 232.417 87.8769 232.25 87.8705C232.09 87.8643 232.023 88.0119 231.946 88.1834C231.838 88.4209 231.71 88.7044 231.284 88.6886C231.139 88.6832 230.991 88.6369 230.844 88.591C230.691 88.543 230.539 88.4954 230.392 88.4954C230.336 88.4954 230.36 88.8838 230.376 89.1482C230.382 89.2413 230.387 89.319 230.387 89.359C230.387 90.3012 229.736 90.1882 228.989 90.0584C228.91 90.0447 228.831 90.0308 228.75 90.018C228.686 89.9856 228.624 89.9137 228.561 89.8391C228.465 89.7271 228.365 89.609 228.239 89.609C227.982 89.609 227.736 89.8802 227.549 90.0861C227.505 90.1348 227.464 90.1799 227.427 90.2169C227.4 90.2438 227.372 90.2712 227.344 90.2991C226.994 90.6457 226.566 91.0708 226.501 91.5747C226.433 92.1029 226.628 92.6197 226.815 93.1135C226.864 93.2423 226.912 93.3695 226.955 93.495C227.416 94.8462 228.126 96.2147 229.262 97.131C230.868 98.427 232.828 98.6082 234.807 98.6082C236.815 98.6082 238.79 98.3608 240.768 98.113C242.097 97.9465 243.428 97.7798 244.772 97.6878C245.347 97.6484 245.927 97.6178 246.51 97.587C248.101 97.5029 249.71 97.4179 251.277 97.1524Z" fill="#E2E5E5"/>
<path d="M230.26 107.598C223.771 105.188 218.621 98.5175 216.628 90H254.628C252.634 98.5175 247.485 105.188 240.996 107.598V110H230.26V107.598Z" fill="#B72727"/>
<path d="M265.128 69H266.128V115H264.628L265.128 69Z" fill="#BD2E2F"/>
<path d="M269.128 69H270.128L270.628 115H269.128V69Z" fill="#BD2E2F"/>
<path fill-rule="evenodd" clip-rule="evenodd" d="M252.76 145.027C258.406 139.79 269.291 139.924 278.143 140.033C279.36 140.048 280.54 140.062 281.661 140.062C298.074 140.062 311.633 146.02 314.487 157.439C317.807 170.718 315.558 181.766 308.778 192.192C302.633 201.644 293.261 201.303 279.069 200.787C277.607 200.734 276.092 200.679 274.525 200.632C257.756 200.136 252.209 197.397 246.695 180.773C244.554 174.319 242.675 154.382 252.76 145.027ZM334 153.5C334 157.09 331.09 160 327.5 160C323.91 160 321 157.09 321 153.5C321 149.91 323.91 147 327.5 147C331.09 147 334 149.91 334 153.5ZM343 153C345.209 153 347 151.209 347 149C347 146.791 345.209 145 343 145C340.791 145 339 146.791 339 149C339 151.209 340.791 153 343 153Z" fill="#F3F5F5"/>
<path d="M277.501 158H278.501V165H279.501L280.001 158H281.001L281.501 165H282.501V158H283.501C283.501 158 284.001 162 284.001 165C284.001 166.188 284.057 166.95 283.501 168C282.985 168.976 281.501 168.895 281.501 170C281.501 178.5 282.501 189 282.501 195C282.501 195.873 280.501 196 280.501 196C280.501 196 278.501 195.873 278.501 195C278.501 189 279.501 178.5 279.501 170C279.501 168.895 278.018 168.976 277.501 168C276.946 166.95 277.001 166.188 277.001 165C277.001 162 277.501 158 277.501 158Z" fill="#5F6B71"/>
<rect x="264" y="152" width="33" height="7" rx="3" fill="#C55F1E"/>
<mask id="mask0" mask-type="alpha" maskUnits="userSpaceOnUse" x="263" y="152" width="34" height="7">
<rect x="264" y="152" width="33" height="7" rx="3" fill="#C55F1E"/>
</mask>
<g mask="url(#mask0)">
<ellipse cx="268" cy="150.5" rx="29" ry="7.5" fill="#E57C20"/>
</g>
</g>
<defs>
<clipPath id="clip0">
<rect width="512" height="342" fill="white"/>
</clipPath>
</defs>
</svg>
