<svg width="512" height="342" viewBox="0 0 512 342" fill="none" xmlns="http://www.w3.org/2000/svg">
<g clip-path="url(#clip0)">
<rect width="512" height="341.333" fill="white"/>
<rect y="306" width="512" height="38" fill="#E8EAEA"/>
<path fill-rule="evenodd" clip-rule="evenodd" d="M378.555 168.291L373.244 168.533C357.842 189.096 356.94 222.322 337.315 244.113L344.438 249.833C383.729 235.993 385.325 195.357 378.555 168.291Z" fill="#E87613"/>
<path fill-rule="evenodd" clip-rule="evenodd" d="M385.853 139.142C388.645 135.864 390.535 131.848 390.219 127.347C389.309 114.379 371.257 117.232 367.746 123.777C364.235 130.322 364.652 146.924 369.19 148.094C371 148.561 374.855 147.418 378.78 145.053L376.316 162.478H390.86L385.853 139.142Z" fill="#915B3C"/>
<path fill-rule="evenodd" clip-rule="evenodd" d="M386.971 142.061C388.796 133.94 393.996 128.405 393.202 124.775C392.672 122.355 391.261 120.851 388.968 120.261C387.783 115.464 383.958 113.423 377.495 114.14C367.8 115.214 361.883 119.24 364.438 128.1C366.787 128.1 369.623 127.25 373.544 128.706C374.788 129.167 375.678 130.6 376.214 133.002H377.985C379.705 130.151 381.401 129.103 383.073 129.859C384.744 130.615 385.124 132.45 384.213 135.366L385.085 142.061H386.971Z" fill="#191847"/>
<path fill-rule="evenodd" clip-rule="evenodd" d="M431.46 238.224H361.773C356.418 238.224 352.078 242.565 352.078 247.919V303.669C352.078 309.023 356.418 313.364 361.773 313.364H431.46C436.814 313.364 441.155 309.023 441.155 303.669V247.919C441.155 242.565 436.814 238.224 431.46 238.224ZM421.764 255.191C423.103 255.191 424.188 256.276 424.188 257.615V293.973C424.188 295.312 423.103 296.397 421.764 296.397H371.469C370.13 296.397 369.045 295.312 369.045 293.973V257.615C369.045 256.276 370.13 255.191 371.469 255.191H421.764Z" fill="#B9BFC2"/>
<path fill-rule="evenodd" clip-rule="evenodd" d="M291.99 310.334C303.938 295.745 312.021 284.929 316.242 277.887C323.468 265.829 329.382 255.099 331.249 251C335.699 241.227 321.002 236.65 317.676 241.209C312.642 248.109 301.89 269.821 285.421 306.345L291.99 310.334Z" fill="#B28B67"/>
<path fill-rule="evenodd" clip-rule="evenodd" d="M316.472 306.093L338.707 250.123C343.462 239.92 320.497 233.214 317.002 237.962C309.068 248.742 290.209 291.267 287.845 294.479L316.472 306.093Z" fill="#2F3676"/>
<path fill-rule="evenodd" clip-rule="evenodd" d="M375.691 294.868C371.359 288.55 355.605 267.295 347.025 258.5C344.559 255.973 342.153 253.547 339.877 251.287C333.113 244.568 319.644 255.861 326.395 261.981C343.209 277.221 367.741 297.795 369.791 299.629C372.664 302.2 378.413 298.839 375.691 294.868Z" fill="#915B3C"/>
<path fill-rule="evenodd" clip-rule="evenodd" d="M374.678 292.014C376.17 293.243 377.14 294.246 377.589 295.024C378.136 295.97 378.775 297.442 379.508 299.44C378.41 300.074 368.544 305.77 349.909 316.529C347.672 314.43 347.324 312.801 348.864 311.641C350.404 310.482 351.675 309.504 352.677 308.708L362.893 294.632C363.089 294.361 363.468 294.301 363.739 294.497C363.744 294.501 363.748 294.504 363.753 294.508L365.876 296.142C367.823 295.972 369.276 295.61 370.236 295.057C371.015 294.607 371.909 293.671 372.919 292.248L372.919 292.248C373.307 291.703 374.063 291.574 374.609 291.962C374.632 291.978 374.655 291.996 374.678 292.014Z" fill="#CA3C3D"/>
<path fill-rule="evenodd" clip-rule="evenodd" d="M297.129 308.154C297.807 309.964 298.146 311.318 298.146 312.216C298.146 313.309 297.964 314.904 297.6 317C296.333 317 284.94 317 263.422 317C262.534 314.064 263.047 312.479 264.961 312.245C266.874 312.01 268.464 311.799 269.729 311.61L285.615 304.528C285.921 304.392 286.279 304.53 286.415 304.835C286.417 304.84 286.42 304.846 286.422 304.851L287.443 307.328C289.214 308.154 290.654 308.568 291.761 308.568C292.661 308.568 293.904 308.204 295.489 307.477L295.489 307.477C296.098 307.199 296.817 307.466 297.096 308.074C297.108 308.1 297.119 308.127 297.129 308.154Z" fill="#CA3C3D"/>
<path fill-rule="evenodd" clip-rule="evenodd" d="M346.708 252.919C365.188 249.908 377.566 247.849 383.842 246.743C401.732 243.588 406.949 233.961 403.865 212.956H370.903C366.541 214.216 348.314 222.007 316.224 236.328C310.45 239.194 311.526 247.645 312.581 250.429C312.624 250.543 322.357 267.221 341.781 300.465L368.745 283.287L346.657 254.943C346.074 253.768 346.09 253.093 346.708 252.919Z" fill="#5C63AB"/>
<path fill-rule="evenodd" clip-rule="evenodd" d="M418.548 205.514L405.885 205.563C413.704 230.804 417.925 244.197 418.548 245.741C419.95 249.216 416.983 254.509 415.714 257.353C419.847 259.202 419.406 252.353 424.62 254.779C429.378 256.993 432.998 261.004 438.496 257.612C439.172 257.194 439.912 255.624 438.123 254.397C433.664 251.34 427.239 245.989 426.371 244.228C425.187 241.826 422.579 228.921 418.548 205.514Z" fill="#915B3C"/>
<path fill-rule="evenodd" clip-rule="evenodd" d="M405.403 218.227C384.393 218.227 368.938 218.227 359.039 218.227C356.921 218.227 357.32 215.168 357.626 213.624C361.161 195.808 374.958 176.604 374.958 151.243L388.332 149.146C399.393 166.937 403.219 188.84 405.403 218.227Z" fill="#DDE3E9"/>
<path fill-rule="evenodd" clip-rule="evenodd" d="M405.03 166.633C406.973 166.075 408.511 164.773 409.645 162.727C414.533 153.907 412.768 149.051 407.544 147.455C402.32 145.858 397.662 149.146 389.339 149.146C388.886 149.146 388.471 149.175 388.095 149.231L383.908 149.47C371.896 190.18 368.584 217.34 373.97 230.952H410.462C412.624 235.994 414.693 240.236 416.669 243.678H426.612C427.548 213.42 420.354 187.738 405.03 166.633Z" fill="#FF9B21"/>
<path fill-rule="evenodd" clip-rule="evenodd" d="M402.515 210.045C401.368 219.647 399.502 226.616 396.919 230.952H410.462C407.94 225.071 405.291 218.102 402.515 210.045Z" fill="black" fill-opacity="0.1"/>
<path fill-rule="evenodd" clip-rule="evenodd" d="M144.666 145.993C141.997 142.859 140.191 139.02 140.492 134.717C141.362 122.32 158.619 125.047 161.976 131.304C165.333 137.561 164.934 153.432 160.596 154.551C158.866 154.997 155.18 153.904 151.429 151.643L153.783 168.301H139.88L144.666 145.993Z" fill="#EECEB1"/>
<path d="M134.087 317.178C158.722 317.178 178.693 298.115 178.693 274.6C178.693 251.085 158.722 232.023 134.087 232.023C109.453 232.023 89.4822 251.085 89.4822 274.6C89.4822 298.115 109.453 317.178 134.087 317.178Z" fill="#D5D8DA"/>
<path fill-rule="evenodd" clip-rule="evenodd" d="M218.379 310.609C210.957 294.181 205.589 279.877 203.435 272.33C199.745 259.407 196.939 248.036 196.23 243.79C194.538 233.663 209.242 233.074 211.185 238.106C214.127 245.723 219.262 270.75 225.432 308.551L218.379 310.609ZM132.285 259.054C139.095 256.362 162.943 247.939 174.445 245.556C177.75 244.871 180.953 244.235 183.965 243.66C192.918 241.95 197.556 258.101 188.934 259.342C167.461 262.432 137.02 265.623 134.415 265.981C130.764 266.483 128.005 260.746 132.285 259.054Z" fill="#EECEB1"/>
<path fill-rule="evenodd" clip-rule="evenodd" d="M189.46 239.215L152.625 220.464V216.382H157.005C192.642 225.463 210.852 231.282 211.636 233.84C211.644 233.868 211.652 233.895 211.659 233.923C211.677 233.947 211.695 233.97 211.712 233.994C218.774 243.707 223.004 291.126 224.392 294.676L210.859 296.695C205.682 277.499 189.12 264.126 189.56 241.134C189.441 240.46 189.411 239.82 189.46 239.215Z" fill="#0068B3"/>
<path fill-rule="evenodd" clip-rule="evenodd" d="M155.685 250.352C152.315 249.677 149.211 249.075 146.555 248.609C129.401 245.6 124.398 236.417 127.356 216.382H158.963C164.126 217.865 190.958 229.117 204.88 235.102C214.094 239.063 211.19 253.343 205.972 257.059C205.943 257.287 205.85 257.442 205.682 257.511C177.613 269.145 155.408 263.041 147.99 264.991L144.559 254.168L155.685 250.352Z" fill="#0088F2"/>
<path fill-rule="evenodd" clip-rule="evenodd" d="M134.613 257.334C132.774 257.51 131.469 257.786 130.697 258.162C129.758 258.62 128.464 259.445 126.815 260.636C127.346 261.726 132.121 271.514 141.138 290.003C144.033 289.535 145.18 288.43 144.58 286.688C143.979 284.946 143.494 283.492 143.126 282.325L142.554 265.708C142.543 265.388 142.275 265.138 141.955 265.149C141.949 265.149 141.944 265.149 141.938 265.15L139.382 265.31C137.93 264.135 136.971 263.071 136.507 262.12C136.13 261.346 135.922 260.126 135.882 258.459L135.882 258.459C135.866 257.82 135.335 257.314 134.696 257.329C134.668 257.33 134.641 257.331 134.613 257.334Z" fill="#9CA5A9"/>
<path fill-rule="evenodd" clip-rule="evenodd" d="M215.001 307.563C214.353 309.293 214.029 310.587 214.029 311.446C214.029 312.491 214.203 314.015 214.551 316.019C215.763 316.019 226.654 316.019 247.224 316.019C248.073 313.212 247.583 311.697 245.754 311.473C243.924 311.249 242.405 311.047 241.195 310.867L226.009 304.097C225.717 303.967 225.374 304.098 225.244 304.39C225.242 304.395 225.239 304.4 225.237 304.405L224.261 306.773C222.568 307.563 221.192 307.958 220.133 307.958C219.273 307.958 218.085 307.611 216.569 306.916L216.569 306.916C215.987 306.649 215.3 306.905 215.033 307.487C215.021 307.512 215.011 307.537 215.001 307.563Z" fill="#727E84"/>
<path fill-rule="evenodd" clip-rule="evenodd" d="M188.54 200.519L209.531 191.301C213.208 187.637 216.758 184.852 220.183 182.946C221.207 182.62 222.956 182.522 221.09 185.248C219.223 187.974 217.383 190.926 218.128 191.881C218.874 192.836 221.034 191.782 221.888 193.336C222.457 194.371 218.815 195.61 210.963 197.053L195.243 209.106L188.54 200.519ZM103.68 203.058L115.55 205.413C103.612 227.661 97.2102 239.452 96.3439 240.787C94.3948 243.791 96.2133 249.295 96.8851 252.194C92.6708 253.175 94.3328 246.832 88.9997 248.156C84.132 249.365 80.0047 252.467 75.4657 248.284C74.9076 247.769 74.4991 246.161 76.4018 245.337C81.142 243.282 88.1452 239.435 89.2808 237.942C90.8294 235.905 95.629 224.277 103.68 203.058Z" fill="#EECEB1"/>
<path fill-rule="evenodd" clip-rule="evenodd" d="M147.813 158.645L152.823 157.786C163.733 168.37 168.185 193.797 175.457 197.162C182.331 200.345 192.076 197.265 203.66 193.107L207.207 201.033C196.682 212.42 174.26 222.04 165.172 216.548C150.641 207.768 147.287 176.407 147.813 158.645Z" fill="#DB2721"/>
<path fill-rule="evenodd" clip-rule="evenodd" d="M125.977 221.595C146.062 221.595 160.836 221.595 170.299 221.595C172.325 221.595 171.943 218.671 171.65 217.195C168.271 200.164 155.081 181.805 155.081 157.561L142.297 155.557C131.722 172.564 128.066 193.503 125.977 221.595Z" fill="#DDE3E9"/>
<path fill-rule="evenodd" clip-rule="evenodd" d="M121.557 204.352C112.521 220.65 104.927 232.384 98.7725 239.553L89.4822 237.734C95.4666 200.62 112.797 173.227 141.472 155.557H143.78L146.534 155.557C158.011 194.68 161.175 220.748 156.026 233.76H116.129C116.761 224.239 118.785 214.17 121.557 204.352H121.557Z" fill="#FF4133"/>
<path d="M138.628 123C140.228 124.2 139.628 126 140.128 127C139.628 128 139.628 128 138.628 129.5C137.128 127.5 136.628 126.2 134.628 127C127.128 130 133.537 149.768 140.128 163.5C152.128 188.5 137.128 196.833 132.628 206.5C133.461 200.5 134.628 187.1 132.628 181.5C130.128 174.5 122.628 171 120.628 155C118.628 139 123.128 128 128.128 124C133.128 120 136.628 121.5 138.628 123Z" fill="#333D43"/>
<path d="M144.128 124.5C148.128 123 152.22 123.792 154.052 124.093C156.584 124.508 161.28 126.647 162.032 128.346C162.785 130.045 162.307 132.122 159.156 131.936C155.962 135.762 151.326 138.383 150.789 138.426C150.75 138.429 148.698 135.642 146.746 136.816C144.483 138.176 144.901 140.686 146.124 142.64L146.14 142.665C146.779 143.686 147.737 145.216 146.124 146.384C143.559 148.243 136.96 144.11 135.862 140.575C133.828 134.025 137.263 127.075 144.128 124.5Z" fill="#1D2529"/>
<path d="M216.034 126.375C215.128 129.5 190.19 142 190.19 142L226.065 127.5C232.278 127.309 249.203 130.318 267.417 126.375C289.94 121.5 295.628 115.658 295.628 93.1467C295.628 70.2304 279.642 57.2241 255.831 55.3348C212.507 51.8974 203.439 54.189 190.342 73.095C177.244 92.0009 185.808 104.605 194.876 114.344C203.943 124.084 211.5 124.275 216.034 126.375Z" fill="#E9ECEC"/>
<ellipse cx="235.628" cy="88.5" rx="18" ry="17.5" fill="white"/>
<path fill-rule="evenodd" clip-rule="evenodd" d="M251.277 97.1524C252.773 94.6005 253.628 91.6473 253.628 88.5C253.628 85.4753 252.839 82.6298 251.449 80.1476C251.246 80.204 251.013 80.2024 250.806 80.2011C250.775 80.2009 250.744 80.2007 250.714 80.2007C250.261 80.2007 250.2 80.4301 250.107 80.775C250.083 80.8644 250.057 80.9614 250.021 81.0642C249.702 81.9876 249.405 82.246 248.448 82.246C248.011 82.246 248.033 81.9532 248.059 81.6109C248.071 81.4579 248.083 81.2949 248.056 81.1438C247.968 80.662 247.655 80.4657 247.255 80.2404C247.173 80.1945 247.072 80.1341 246.973 80.0658C246.975 79.8264 246.901 79.6124 246.647 79.5076C246.47 79.4349 246.614 79.7221 246.647 79.7689C246.718 79.8719 246.843 79.9758 246.973 80.0658C246.972 80.229 246.935 80.4041 246.897 80.5643C246.724 81.2804 246.245 81.7161 245.544 81.2233C245.478 81.1766 245.43 81.1188 245.383 81.0615C245.321 80.9861 245.26 80.9117 245.158 80.8654C245.109 80.8429 245.048 80.8367 244.988 80.8306C244.902 80.8219 244.816 80.8131 244.76 80.7575C244.664 80.6607 244.626 80.4631 244.587 80.2581C244.549 80.0636 244.511 79.8626 244.42 79.7348C244.357 79.6466 244.299 79.5784 244.247 79.5172C244.115 79.3609 244.022 79.2513 243.982 78.9735C243.925 78.5753 243.345 78.3692 243.011 78.3599C242.907 78.357 242.235 78.4511 242.613 78.6667C242.666 78.697 242.724 78.7253 242.783 78.7541C243.02 78.8691 243.272 78.9916 243.272 79.2803C243.272 79.5785 243.192 80.315 242.812 80.3995C242.625 80.4411 242.409 80.4285 242.2 80.4164C242.104 80.4107 242.009 80.4052 241.92 80.4052C241.565 80.4052 241.575 80.4562 241.608 80.624C241.62 80.6881 241.636 80.7692 241.636 80.8711C241.636 81.5824 242.645 81.5056 243.355 81.4516C243.519 81.4391 243.667 81.4278 243.783 81.4278C244.157 81.4278 244.499 82.1998 244.499 82.5755C244.499 83.0874 244.32 83.1663 243.834 83.1663C243.538 83.1663 243.554 83.3803 243.571 83.6134C243.575 83.6687 243.579 83.7251 243.579 83.7799C243.579 83.7873 243.579 83.7947 243.579 83.8022C243.579 84.0909 243.579 84.5033 243.158 84.331C243.025 84.2763 242.893 84.2156 242.762 84.1549C242.447 84.0087 242.132 83.863 241.783 83.8026C241.584 83.7682 241.552 83.8604 241.738 83.8822C242.339 83.9529 241.839 85.407 241.732 85.6207C241.455 86.1744 241.053 86.6328 240.409 86.3365C240.349 86.309 240.267 86.2593 240.181 86.2072C239.964 86.0754 239.723 85.9288 239.755 86.0922C239.766 86.1457 239.795 86.1934 239.823 86.241C239.852 86.2898 239.882 86.3385 239.892 86.3933C239.959 86.7657 239.492 88.5638 238.818 88.0125C238.595 87.8299 238.492 87.5978 238.386 87.3597C238.34 87.2572 238.295 87.1536 238.238 87.0524C238.144 86.883 237.942 86.9464 237.763 87.0026C237.682 87.0282 237.605 87.0524 237.545 87.0524C236.873 87.0524 236.851 86.4606 236.832 85.9183C236.831 85.8947 236.83 85.8713 236.829 85.8479C236.804 85.1916 235.408 84.8026 234.886 84.8026C234.732 84.8026 234.814 84.849 234.93 84.9155C235.004 84.9573 235.091 85.0071 235.142 85.0582C235.345 85.2612 235.5 85.5169 235.5 85.8025C235.5 86.8814 235.459 88.2409 234.068 87.8932C234.019 87.8809 233.93 87.8376 233.825 87.7861C233.539 87.6465 233.128 87.4462 233.04 87.6375C232.836 88.0789 232.771 88.0475 232.609 87.9696C232.526 87.9295 232.417 87.8769 232.25 87.8705C232.09 87.8643 232.023 88.0119 231.946 88.1834C231.838 88.4209 231.71 88.7044 231.284 88.6886C231.139 88.6832 230.991 88.6369 230.844 88.591C230.691 88.543 230.539 88.4954 230.392 88.4954C230.336 88.4954 230.36 88.8838 230.376 89.1482C230.382 89.2413 230.387 89.319 230.387 89.359C230.387 90.3012 229.736 90.1882 228.989 90.0584C228.91 90.0447 228.831 90.0308 228.75 90.018C228.686 89.9856 228.624 89.9137 228.561 89.8391C228.465 89.7271 228.365 89.609 228.239 89.609C227.982 89.609 227.736 89.8802 227.549 90.0861C227.505 90.1348 227.464 90.1799 227.427 90.2169C227.4 90.2438 227.372 90.2712 227.344 90.2991C226.994 90.6457 226.566 91.0708 226.501 91.5747C226.433 92.1029 226.628 92.6197 226.815 93.1135C226.864 93.2423 226.912 93.3695 226.955 93.495C227.416 94.8462 228.126 96.2147 229.262 97.131C230.868 98.427 232.828 98.6082 234.807 98.6082C236.815 98.6082 238.79 98.3608 240.768 98.113C242.097 97.9465 243.428 97.7798 244.772 97.6878C245.347 97.6484 245.927 97.6178 246.51 97.587C248.101 97.5029 249.71 97.4179 251.277 97.1524Z" fill="#E2E5E5"/>
<path d="M230.26 107.598C223.771 105.188 218.621 98.5175 216.628 90H254.628C252.634 98.5175 247.485 105.188 240.996 107.598V110H230.26V107.598Z" fill="#B72727"/>
<path d="M265.128 69H266.128V115H264.628L265.128 69Z" fill="#BD2E2F"/>
<path d="M269.128 69H270.128L270.628 115H269.128V69Z" fill="#BD2E2F"/>
<path fill-rule="evenodd" clip-rule="evenodd" d="M252.76 145.027C258.406 139.79 269.291 139.924 278.143 140.033C279.36 140.048 280.54 140.062 281.661 140.062C298.074 140.062 311.633 146.02 314.487 157.439C317.807 170.718 315.558 181.766 308.778 192.192C302.633 201.644 293.261 201.303 279.069 200.787C277.607 200.734 276.092 200.679 274.525 200.632C257.756 200.136 252.209 197.397 246.695 180.773C244.554 174.319 242.675 154.382 252.76 145.027ZM334 153.5C334 157.09 331.09 160 327.5 160C323.91 160 321 157.09 321 153.5C321 149.91 323.91 147 327.5 147C331.09 147 334 149.91 334 153.5ZM343 153C345.209 153 347 151.209 347 149C347 146.791 345.209 145 343 145C340.791 145 339 146.791 339 149C339 151.209 340.791 153 343 153Z" fill="#F3F5F5"/>
<path d="M277.501 158H278.501V165H279.501L280.001 158H281.001L281.501 165H282.501V158H283.501C283.501 158 284.001 162 284.001 165C284.001 166.188 284.057 166.95 283.501 168C282.985 168.976 281.501 168.895 281.501 170C281.501 178.5 282.501 189 282.501 195C282.501 195.873 280.501 196 280.501 196C280.501 196 278.501 195.873 278.501 195C278.501 189 279.501 178.5 279.501 170C279.501 168.895 278.018 168.976 277.501 168C276.946 166.95 277.001 166.188 277.001 165C277.001 162 277.501 158 277.501 158Z" fill="#5F6B71"/>
<rect x="264" y="152" width="33" height="7" rx="3" fill="#C55F1E"/>
<mask id="mask0" mask-type="alpha" maskUnits="userSpaceOnUse" x="263" y="152" width="34" height="7">
<rect x="264" y="152" width="33" height="7" rx="3" fill="#C55F1E"/>
</mask>
<g mask="url(#mask0)">
<ellipse cx="268" cy="150.5" rx="29" ry="7.5" fill="#E57C20"/>
</g>
</g>
<defs>
<clipPath id="clip0">
<rect width="512" height="341.333" fill="white"/>
</clipPath>
</defs>
</svg>
