<svg width="814" height="458" viewBox="0 0 814 458" fill="none" xmlns="http://www.w3.org/2000/svg">
<g clip-path="url(#clip0)">
<rect width="814" height="458" fill="#EEF0F0"/>
<rect x="58.7615" y="-232.96" width="233" height="710" transform="rotate(15 58.7615 -232.96)" fill="#5F6B71"/>
<mask id="mask0" mask-type="alpha" maskUnits="userSpaceOnUse" x="-125" y="-233" width="409" height="747">
<rect x="58.7615" y="-232.96" width="233" height="710" transform="rotate(15 58.7615 -232.96)" fill="#5F6B71"/>
</mask>
<g mask="url(#mask0)">
<path d="M113.438 132.469V176.812C113.438 184.688 111.156 190.844 106.594 195.281C102.031 199.719 95.6719 201.938 87.5156 201.938C79.5781 201.938 73.375 199.719 68.9062 195.281C64.4688 190.812 62.25 184.594 62.25 176.625V132.469H67.0781V176.812C67.0781 183.406 68.9062 188.547 72.5625 192.234C76.2188 195.891 81.3906 197.719 88.0781 197.719C94.6094 197.719 99.6719 195.922 103.266 192.328C106.859 188.703 108.656 183.688 108.656 177.281V132.469H113.438ZM162.562 187.734C162.562 192.297 160.828 195.812 157.359 198.281C153.891 200.719 148.969 201.938 142.594 201.938C135.781 201.938 130.375 200.891 126.375 198.797V193.781C131.5 196.344 136.906 197.625 142.594 197.625C147.625 197.625 151.438 196.797 154.031 195.141C156.656 193.453 157.969 191.219 157.969 188.438C157.969 185.875 156.922 183.719 154.828 181.969C152.766 180.219 149.359 178.5 144.609 176.812C139.516 174.969 135.938 173.391 133.875 172.078C131.812 170.734 130.25 169.234 129.188 167.578C128.156 165.891 127.641 163.844 127.641 161.438C127.641 157.625 129.234 154.609 132.422 152.391C135.641 150.172 140.125 149.062 145.875 149.062C151.375 149.062 156.594 150.094 161.531 152.156L159.797 156.375C154.797 154.312 150.156 153.281 145.875 153.281C141.719 153.281 138.422 153.969 135.984 155.344C133.547 156.719 132.328 158.625 132.328 161.062C132.328 163.719 133.266 165.844 135.141 167.438C137.047 169.031 140.75 170.812 146.25 172.781C150.844 174.438 154.188 175.938 156.281 177.281C158.375 178.594 159.938 180.094 160.969 181.781C162.031 183.469 162.562 185.453 162.562 187.734ZM196.266 201.938C188.859 201.938 183.078 199.656 178.922 195.094C174.797 190.531 172.734 184.141 172.734 175.922C172.734 167.797 174.734 161.297 178.734 156.422C182.734 151.516 188.125 149.062 194.906 149.062C200.906 149.062 205.641 151.156 209.109 155.344C212.578 159.531 214.312 165.219 214.312 172.406V176.156H177.609C177.672 183.156 179.297 188.5 182.484 192.188C185.703 195.875 190.297 197.719 196.266 197.719C199.172 197.719 201.719 197.516 203.906 197.109C206.125 196.703 208.922 195.828 212.297 194.484V198.703C209.422 199.953 206.766 200.797 204.328 201.234C201.891 201.703 199.203 201.938 196.266 201.938ZM194.906 153.188C190 153.188 186.062 154.812 183.094 158.062C180.125 161.281 178.391 165.938 177.891 172.031H209.391C209.391 166.125 208.109 161.516 205.547 158.203C202.984 154.859 199.438 153.188 194.906 153.188ZM248.438 149.062C250.594 149.062 252.906 149.281 255.375 149.719L254.484 154.172C252.359 153.641 250.156 153.375 247.875 153.375C243.531 153.375 239.969 155.219 237.188 158.906C234.406 162.594 233.016 167.25 233.016 172.875V201H228.375V150.047H232.312L232.781 159.234H233.109C235.203 155.484 237.438 152.859 239.812 151.359C242.188 149.828 245.062 149.062 248.438 149.062ZM329.344 201H291.891V132.469H329.344V136.875H296.672V162.797H327.516V167.203H296.672V196.594H329.344V201ZM356.203 174.797L338.438 150.047H343.781L358.969 171.516L374.016 150.047H379.125L361.641 174.797L380.391 201H375L358.969 178.266L342.844 201H337.734L356.203 174.797ZM413.297 201.938C405.453 201.938 399.734 199 396.141 193.125H395.812L395.953 197.062C396.078 199.375 396.141 201.906 396.141 204.656V224.062H391.5V150.047H395.438L396.328 157.312H396.609C400.109 151.812 405.703 149.062 413.391 149.062C420.266 149.062 425.5 151.328 429.094 155.859C432.719 160.359 434.531 166.922 434.531 175.547C434.531 183.922 432.625 190.422 428.812 195.047C425.031 199.641 419.859 201.938 413.297 201.938ZM413.203 197.812C418.422 197.812 422.453 195.875 425.297 192C428.172 188.125 429.609 182.703 429.609 175.734C429.609 160.766 424.203 153.281 413.391 153.281C407.453 153.281 403.094 154.922 400.312 158.203C397.531 161.453 396.141 166.766 396.141 174.141V175.641C396.141 183.609 397.469 189.297 400.125 192.703C402.812 196.109 407.172 197.812 413.203 197.812ZM469.266 201.938C461.859 201.938 456.078 199.656 451.922 195.094C447.797 190.531 445.734 184.141 445.734 175.922C445.734 167.797 447.734 161.297 451.734 156.422C455.734 151.516 461.125 149.062 467.906 149.062C473.906 149.062 478.641 151.156 482.109 155.344C485.578 159.531 487.312 165.219 487.312 172.406V176.156H450.609C450.672 183.156 452.297 188.5 455.484 192.188C458.703 195.875 463.297 197.719 469.266 197.719C472.172 197.719 474.719 197.516 476.906 197.109C479.125 196.703 481.922 195.828 485.297 194.484V198.703C482.422 199.953 479.766 200.797 477.328 201.234C474.891 201.703 472.203 201.938 469.266 201.938ZM467.906 153.188C463 153.188 459.062 154.812 456.094 158.062C453.125 161.281 451.391 165.938 450.891 172.031H482.391C482.391 166.125 481.109 161.516 478.547 158.203C475.984 154.859 472.438 153.188 467.906 153.188ZM521.438 149.062C523.594 149.062 525.906 149.281 528.375 149.719L527.484 154.172C525.359 153.641 523.156 153.375 520.875 153.375C516.531 153.375 512.969 155.219 510.188 158.906C507.406 162.594 506.016 167.25 506.016 172.875V201H501.375V150.047H505.312L505.781 159.234H506.109C508.203 155.484 510.438 152.859 512.812 151.359C515.188 149.828 518.062 149.062 521.438 149.062ZM543.422 201H538.781V150.047H543.422V201ZM538.125 135.891C538.125 132.891 539.109 131.391 541.078 131.391C542.047 131.391 542.797 131.781 543.328 132.562C543.891 133.344 544.172 134.453 544.172 135.891C544.172 137.297 543.891 138.406 543.328 139.219C542.797 140.031 542.047 140.438 541.078 140.438C539.109 140.438 538.125 138.922 538.125 135.891ZM581.109 201.938C573.703 201.938 567.922 199.656 563.766 195.094C559.641 190.531 557.578 184.141 557.578 175.922C557.578 167.797 559.578 161.297 563.578 156.422C567.578 151.516 572.969 149.062 579.75 149.062C585.75 149.062 590.484 151.156 593.953 155.344C597.422 159.531 599.156 165.219 599.156 172.406V176.156H562.453C562.516 183.156 564.141 188.5 567.328 192.188C570.547 195.875 575.141 197.719 581.109 197.719C584.016 197.719 586.562 197.516 588.75 197.109C590.969 196.703 593.766 195.828 597.141 194.484V198.703C594.266 199.953 591.609 200.797 589.172 201.234C586.734 201.703 584.047 201.938 581.109 201.938ZM579.75 153.188C574.844 153.188 570.906 154.812 567.938 158.062C564.969 161.281 563.234 165.938 562.734 172.031H594.234C594.234 166.125 592.953 161.516 590.391 158.203C587.828 154.859 584.281 153.188 579.75 153.188ZM648.75 201V167.953C648.75 162.828 647.672 159.109 645.516 156.797C643.359 154.453 640.016 153.281 635.484 153.281C629.391 153.281 624.922 154.828 622.078 157.922C619.266 160.984 617.859 165.969 617.859 172.875V201H613.219V150.047H617.156L618.047 157.031H618.328C621.641 151.719 627.531 149.062 636 149.062C647.562 149.062 653.344 155.266 653.344 167.672V201H648.75ZM690.188 201.938C682.906 201.938 677.203 199.641 673.078 195.047C668.953 190.453 666.891 184.047 666.891 175.828C666.891 167.391 669.031 160.828 673.312 156.141C677.594 151.422 683.453 149.062 690.891 149.062C695.297 149.062 699.516 149.828 703.547 151.359L702.281 155.484C697.875 154.016 694.047 153.281 690.797 153.281C684.547 153.281 679.812 155.219 676.594 159.094C673.375 162.938 671.766 168.484 671.766 175.734C671.766 182.609 673.375 188 676.594 191.906C679.812 195.781 684.312 197.719 690.094 197.719C694.719 197.719 699.016 196.891 702.984 195.234V199.547C699.734 201.141 695.469 201.938 690.188 201.938ZM736.078 201.938C728.672 201.938 722.891 199.656 718.734 195.094C714.609 190.531 712.547 184.141 712.547 175.922C712.547 167.797 714.547 161.297 718.547 156.422C722.547 151.516 727.938 149.062 734.719 149.062C740.719 149.062 745.453 151.156 748.922 155.344C752.391 159.531 754.125 165.219 754.125 172.406V176.156H717.422C717.484 183.156 719.109 188.5 722.297 192.188C725.516 195.875 730.109 197.719 736.078 197.719C738.984 197.719 741.531 197.516 743.719 197.109C745.938 196.703 748.734 195.828 752.109 194.484V198.703C749.234 199.953 746.578 200.797 744.141 201.234C741.703 201.703 739.016 201.938 736.078 201.938ZM734.719 153.188C729.812 153.188 725.875 154.812 722.906 158.062C719.938 161.281 718.203 165.938 717.703 172.031H749.203C749.203 166.125 747.922 161.516 745.359 158.203C742.797 154.859 739.25 153.188 734.719 153.188ZM153.516 297.078C153.516 308.578 150.5 317.281 144.469 323.188C138.438 329.062 129.578 332 117.891 332H101.484V263.469H120C130.938 263.469 139.25 266.328 144.938 272.047C150.656 277.766 153.516 286.109 153.516 297.078ZM148.312 297.266C148.312 287.453 145.812 280.078 140.812 275.141C135.844 270.172 128.531 267.688 118.875 267.688H106.266V327.781H117.609C138.078 327.781 148.312 317.609 148.312 297.266ZM188.672 332.938C181.266 332.938 175.484 330.656 171.328 326.094C167.203 321.531 165.141 315.141 165.141 306.922C165.141 298.797 167.141 292.297 171.141 287.422C175.141 282.516 180.531 280.062 187.312 280.062C193.312 280.062 198.047 282.156 201.516 286.344C204.984 290.531 206.719 296.219 206.719 303.406V307.156H170.016C170.078 314.156 171.703 319.5 174.891 323.188C178.109 326.875 182.703 328.719 188.672 328.719C191.578 328.719 194.125 328.516 196.312 328.109C198.531 327.703 201.328 326.828 204.703 325.484V329.703C201.828 330.953 199.172 331.797 196.734 332.234C194.297 332.703 191.609 332.938 188.672 332.938ZM187.312 284.188C182.406 284.188 178.469 285.812 175.5 289.062C172.531 292.281 170.797 296.938 170.297 303.031H201.797C201.797 297.125 200.516 292.516 197.953 289.203C195.391 285.859 191.844 284.188 187.312 284.188ZM252.375 318.734C252.375 323.297 250.641 326.812 247.172 329.281C243.703 331.719 238.781 332.938 232.406 332.938C225.594 332.938 220.188 331.891 216.188 329.797V324.781C221.312 327.344 226.719 328.625 232.406 328.625C237.438 328.625 241.25 327.797 243.844 326.141C246.469 324.453 247.781 322.219 247.781 319.438C247.781 316.875 246.734 314.719 244.641 312.969C242.578 311.219 239.172 309.5 234.422 307.812C229.328 305.969 225.75 304.391 223.688 303.078C221.625 301.734 220.062 300.234 219 298.578C217.969 296.891 217.453 294.844 217.453 292.438C217.453 288.625 219.047 285.609 222.234 283.391C225.453 281.172 229.938 280.062 235.688 280.062C241.188 280.062 246.406 281.094 251.344 283.156L249.609 287.375C244.609 285.312 239.969 284.281 235.688 284.281C231.531 284.281 228.234 284.969 225.797 286.344C223.359 287.719 222.141 289.625 222.141 292.062C222.141 294.719 223.078 296.844 224.953 298.438C226.859 300.031 230.562 301.812 236.062 303.781C240.656 305.438 244 306.938 246.094 308.281C248.188 309.594 249.75 311.094 250.781 312.781C251.844 314.469 252.375 316.453 252.375 318.734ZM270.141 332H265.5V281.047H270.141V332ZM264.844 266.891C264.844 263.891 265.828 262.391 267.797 262.391C268.766 262.391 269.516 262.781 270.047 263.562C270.609 264.344 270.891 265.453 270.891 266.891C270.891 268.297 270.609 269.406 270.047 270.219C269.516 271.031 268.766 271.438 267.797 271.438C265.828 271.438 264.844 269.922 264.844 266.891ZM327 281.047V284.281L316.453 284.938C319.266 288.438 320.672 292.281 320.672 296.469C320.672 301.375 319.031 305.359 315.75 308.422C312.5 311.453 308.125 312.969 302.625 312.969C300.312 312.969 298.688 312.875 297.75 312.688C295.906 313.656 294.5 314.797 293.531 316.109C292.562 317.422 292.078 318.812 292.078 320.281C292.078 321.906 292.688 323.094 293.906 323.844C295.156 324.594 297.234 324.969 300.141 324.969H309.047C314.578 324.969 318.812 326.094 321.75 328.344C324.688 330.562 326.156 333.859 326.156 338.234C326.156 343.609 323.969 347.75 319.594 350.656C315.25 353.594 309.047 355.062 300.984 355.062C294.578 355.062 289.609 353.828 286.078 351.359C282.578 348.891 280.828 345.453 280.828 341.047C280.828 337.547 281.906 334.641 284.062 332.328C286.25 330.016 289.203 328.438 292.922 327.594C291.391 326.938 290.156 326.016 289.219 324.828C288.312 323.609 287.859 322.219 287.859 320.656C287.859 317.25 290.031 314.25 294.375 311.656C291.406 310.438 289.094 308.531 287.438 305.938C285.781 303.312 284.953 300.312 284.953 296.938C284.953 291.844 286.562 287.766 289.781 284.703C293.031 281.609 297.406 280.062 302.906 280.062C306.25 280.062 308.844 280.391 310.688 281.047H327ZM285.75 340.625C285.75 347.625 290.953 351.125 301.359 351.125C314.734 351.125 321.422 346.859 321.422 338.328C321.422 335.266 320.375 333.047 318.281 331.672C316.188 330.297 312.797 329.609 308.109 329.609H299.766C290.422 329.609 285.75 333.281 285.75 340.625ZM289.641 296.938C289.641 300.875 290.828 303.938 293.203 306.125C295.609 308.281 298.812 309.359 302.812 309.359C307.062 309.359 310.312 308.281 312.562 306.125C314.844 303.969 315.984 300.844 315.984 296.75C315.984 292.406 314.812 289.156 312.469 287C310.156 284.812 306.906 283.719 302.719 283.719C298.656 283.719 295.453 284.891 293.109 287.234C290.797 289.547 289.641 292.781 289.641 296.938ZM373.031 332V298.953C373.031 293.828 371.953 290.109 369.797 287.797C367.641 285.453 364.297 284.281 359.766 284.281C353.672 284.281 349.203 285.828 346.359 288.922C343.547 291.984 342.141 296.969 342.141 303.875V332H337.5V281.047H341.438L342.328 288.031H342.609C345.922 282.719 351.812 280.062 360.281 280.062C371.844 280.062 377.625 286.266 377.625 298.672V332H373.031ZM458.062 314.328C458.062 320.047 455.953 324.578 451.734 327.922C447.547 331.266 441.969 332.938 435 332.938C426.625 332.938 420.203 332.016 415.734 330.172V325.391C420.672 327.484 426.969 328.531 434.625 328.531C440.25 328.531 444.703 327.25 447.984 324.688C451.297 322.094 452.953 318.703 452.953 314.516C452.953 311.922 452.406 309.781 451.312 308.094C450.219 306.375 448.438 304.812 445.969 303.406C443.5 302 439.875 300.484 435.094 298.859C428.094 296.453 423.25 293.859 420.562 291.078C417.906 288.266 416.578 284.531 416.578 279.875C416.578 274.75 418.578 270.578 422.578 267.359C426.609 264.109 431.781 262.484 438.094 262.484C444.531 262.484 450.578 263.703 456.234 266.141L454.5 270.266C448.812 267.891 443.375 266.703 438.188 266.703C433.125 266.703 429.094 267.875 426.094 270.219C423.094 272.562 421.594 275.75 421.594 279.781C421.594 282.312 422.047 284.391 422.953 286.016C423.891 287.641 425.406 289.109 427.5 290.422C429.594 291.703 433.188 293.25 438.281 295.062C443.625 296.906 447.641 298.703 450.328 300.453C453.016 302.172 454.969 304.141 456.188 306.359C457.438 308.547 458.062 311.203 458.062 314.328ZM462.844 281.047H467.625L478.406 309.641C481.688 318.422 483.766 324.344 484.641 327.406H484.922C486.234 323.375 488.375 317.359 491.344 309.359L502.125 281.047H506.906L484.078 340.25C482.234 345.062 480.688 348.312 479.438 350C478.188 351.688 476.719 352.953 475.031 353.797C473.375 354.641 471.359 355.062 468.984 355.062C467.203 355.062 465.219 354.734 463.031 354.078V350.047C464.844 350.547 466.797 350.797 468.891 350.797C470.484 350.797 471.891 350.422 473.109 349.672C474.328 348.922 475.422 347.75 476.391 346.156C477.391 344.594 478.531 342.094 479.812 338.656C481.125 335.25 481.969 333.031 482.344 332L462.844 281.047ZM547.031 318.734C547.031 323.297 545.297 326.812 541.828 329.281C538.359 331.719 533.438 332.938 527.062 332.938C520.25 332.938 514.844 331.891 510.844 329.797V324.781C515.969 327.344 521.375 328.625 527.062 328.625C532.094 328.625 535.906 327.797 538.5 326.141C541.125 324.453 542.438 322.219 542.438 319.438C542.438 316.875 541.391 314.719 539.297 312.969C537.234 311.219 533.828 309.5 529.078 307.812C523.984 305.969 520.406 304.391 518.344 303.078C516.281 301.734 514.719 300.234 513.656 298.578C512.625 296.891 512.109 294.844 512.109 292.438C512.109 288.625 513.703 285.609 516.891 283.391C520.109 281.172 524.594 280.062 530.344 280.062C535.844 280.062 541.062 281.094 546 283.156L544.266 287.375C539.266 285.312 534.625 284.281 530.344 284.281C526.188 284.281 522.891 284.969 520.453 286.344C518.016 287.719 516.797 289.625 516.797 292.062C516.797 294.719 517.734 296.844 519.609 298.438C521.516 300.031 525.219 301.812 530.719 303.781C535.312 305.438 538.656 306.938 540.75 308.281C542.844 309.594 544.406 311.094 545.438 312.781C546.5 314.469 547.031 316.453 547.031 318.734ZM573.609 328.812C576.547 328.812 579.109 328.562 581.297 328.062V331.812C579.047 332.562 576.453 332.938 573.516 332.938C569.016 332.938 565.688 331.734 563.531 329.328C561.406 326.922 560.344 323.141 560.344 317.984V285.078H552.797V282.359L560.344 280.25L562.688 268.719H565.078V281.047H580.031V285.078H565.078V317.328C565.078 321.234 565.766 324.125 567.141 326C568.516 327.875 570.672 328.812 573.609 328.812ZM612.891 332.938C605.484 332.938 599.703 330.656 595.547 326.094C591.422 321.531 589.359 315.141 589.359 306.922C589.359 298.797 591.359 292.297 595.359 287.422C599.359 282.516 604.75 280.062 611.531 280.062C617.531 280.062 622.266 282.156 625.734 286.344C629.203 290.531 630.938 296.219 630.938 303.406V307.156H594.234C594.297 314.156 595.922 319.5 599.109 323.188C602.328 326.875 606.922 328.719 612.891 328.719C615.797 328.719 618.344 328.516 620.531 328.109C622.75 327.703 625.547 326.828 628.922 325.484V329.703C626.047 330.953 623.391 331.797 620.953 332.234C618.516 332.703 615.828 332.938 612.891 332.938ZM611.531 284.188C606.625 284.188 602.688 285.812 599.719 289.062C596.75 292.281 595.016 296.938 594.516 303.031H626.016C626.016 297.125 624.734 292.516 622.172 289.203C619.609 285.859 616.062 284.188 611.531 284.188ZM708.656 332V298.578C708.656 293.609 707.688 289.984 705.75 287.703C703.812 285.422 700.844 284.281 696.844 284.281C691.625 284.281 687.766 285.719 685.266 288.594C682.766 291.469 681.516 295.984 681.516 302.141V332H676.781V297.172C676.781 288.578 672.844 284.281 664.969 284.281C659.625 284.281 655.734 285.844 653.297 288.969C650.859 292.062 649.641 297.031 649.641 303.875V332H645V281.047H648.844L649.828 288.031H650.109C651.516 285.5 653.516 283.547 656.109 282.172C658.703 280.766 661.562 280.062 664.688 280.062C672.719 280.062 677.875 283.078 680.156 289.109H680.344C682 286.203 684.219 283.969 687 282.406C689.812 280.844 693 280.062 696.562 280.062C702.125 280.062 706.297 281.547 709.078 284.516C711.859 287.484 713.25 292.203 713.25 298.672V332H708.656Z" fill="#E8EAEA"/>
</g>
<rect x="291.754" y="-169.809" width="213" height="710" transform="rotate(15 291.754 -169.809)" fill="#D5D8DA"/>
<mask id="mask1" mask-type="alpha" maskUnits="userSpaceOnUse" x="107" y="-170" width="391" height="742">
<rect x="291.754" y="-169.809" width="213" height="710" transform="rotate(15 291.754 -169.809)" fill="#B9BFC2"/>
</mask>
<g mask="url(#mask1)">
<path d="M177.248 125.8H226.592L229.856 120.616L238.496 127.144C239.008 127.592 239.264 127.944 239.264 128.2C239.264 128.392 238.976 128.712 238.4 129.16L233.984 132.328V194.056C233.984 197 233.696 199.08 233.12 200.296C232.608 201.512 231.36 202.92 229.376 204.52C227.392 206.184 226.176 207.016 225.728 207.016C225.344 207.016 224.992 206.536 224.672 205.576C224.032 202.952 222.88 201.032 221.216 199.816C219.552 198.664 216.352 197.608 211.616 196.648L212.096 195.112C217.344 195.56 220.928 195.784 222.848 195.784C224.768 195.784 225.952 195.592 226.4 195.208C226.912 194.824 227.168 194.088 227.168 193V170.92H205.664V182.248C205.664 188.52 205.696 193.032 205.76 195.784C205.888 198.536 205.952 200.04 205.952 200.296C205.952 201.576 204.896 202.728 202.784 203.752C200.736 204.84 199.392 205.384 198.752 205.384C198.112 205.384 197.792 204.648 197.792 203.176L198.272 192.712C198.464 188.232 198.56 184.008 198.56 180.04V170.92H177.248C175.456 188.136 168.96 200.2 157.76 207.112L156.896 205.96C162.08 200.712 165.632 194.408 167.552 187.048C169.472 179.688 170.432 167.976 170.432 151.912V132.232C170.432 128.904 170.304 125.512 170.048 122.056L177.248 125.8ZM198.56 128.488H177.632V147.016H198.56V128.488ZM227.168 147.016V128.488H205.664V147.016H227.168ZM177.632 149.704V168.232H198.56V149.704H177.632ZM227.168 168.232V149.704H205.664V168.232H227.168ZM267.584 146.344C267.584 143.976 267.552 141.608 267.488 139.24C267.488 136.808 267.424 134.664 267.296 132.808L275.072 137.512H319.712L323.936 132.136L330.848 137.416C331.68 138.056 332.096 138.568 332.096 138.952C332.096 139.272 331.648 139.72 330.752 140.296L328.64 141.64V154.312C328.64 155.976 328.672 157.48 328.736 158.824C328.864 160.104 328.992 161.576 329.12 163.24C329.184 163.816 329.184 164.296 329.12 164.68C329.056 165.064 328.832 165.416 328.448 165.736C328.128 165.992 327.616 166.28 326.912 166.6C326.208 166.856 325.248 167.176 324.032 167.56C322.752 167.944 321.952 168.104 321.632 168.04C321.312 167.976 321.152 167.624 321.152 166.984V164.296H274.88V164.584C274.88 169.576 274.432 174.12 273.536 178.216C272.64 182.312 271.232 186.088 269.312 189.544C267.392 192.936 264.896 196.04 261.824 198.856C258.816 201.736 255.168 204.456 250.88 207.016L249.824 205.864C252.96 202.92 255.648 200.072 257.888 197.32C260.192 194.568 262.048 191.656 263.456 188.584C264.864 185.448 265.888 181.96 266.528 178.12C267.232 174.216 267.584 169.64 267.584 164.392V146.344ZM274.88 140.2V161.608H321.152V140.2H274.88ZM303.104 128.104C303.104 129.128 302.944 130.12 302.624 131.08C302.304 131.976 301.856 132.776 301.28 133.48C300.768 134.12 300.192 134.664 299.552 135.112C298.912 135.496 298.304 135.688 297.728 135.688C296.96 135.688 296.288 135.464 295.712 135.016C295.136 134.568 294.784 133.8 294.656 132.712C294.4 130.984 294.08 129.48 293.696 128.2C293.376 126.92 292.928 125.736 292.352 124.648C291.84 123.56 291.168 122.536 290.336 121.576C289.568 120.552 288.64 119.464 287.552 118.312L288.416 117.16C293.728 119.208 297.504 121.192 299.744 123.112C301.984 125.032 303.104 126.696 303.104 128.104ZM399.2 147.4C393.696 164.808 383.936 178.632 369.92 188.872L368.96 187.624C380.672 175.976 388.736 161.736 393.152 144.904H381.152C378.528 144.904 376.416 145.256 374.816 145.96L371.456 141.928C373.824 142.248 376.448 142.408 379.328 142.408H399.2V133.48C399.2 127.656 399.072 122.472 398.816 117.928L407.744 121.384C408.768 121.768 409.28 122.184 409.28 122.632C409.28 123.016 408.896 123.496 408.128 124.072L405.824 125.8V142.408H423.008L428.864 135.592L435.104 143.08C435.616 143.592 435.872 144.04 435.872 144.424C435.872 144.744 435.392 144.904 434.432 144.904H408.32C411.008 153.736 414.912 161.256 420.032 167.464C425.216 173.672 431.2 178.088 437.984 180.712V182.344C436.32 182.216 434.816 182.44 433.472 183.016C432.128 183.592 431.168 184.36 430.592 185.32C430.016 186.28 429.536 186.76 429.152 186.76C428.384 186.76 426.08 184.776 422.24 180.808C418.464 176.776 415.232 172.008 412.544 166.504C409.92 160.936 407.68 153.736 405.824 144.904V182.824H411.872L416.384 177.256L421.664 183.496C422.176 184.072 422.432 184.52 422.432 184.84C422.432 185.16 422.016 185.32 421.184 185.32H405.824C405.824 190.568 405.856 194.568 405.92 197.32L406.016 203.752C406.016 205.032 405.024 206.12 403.04 207.016C401.056 207.976 399.84 208.456 399.392 208.456C398.944 208.456 398.624 208.232 398.432 207.784C398.304 207.336 398.304 206.376 398.432 204.904C398.88 200.296 399.136 193.768 399.2 185.32H389.12C386.496 185.32 384.352 185.672 382.688 186.376L379.424 182.344C381.728 182.664 384.32 182.824 387.2 182.824H399.2V147.4ZM360.992 152.104C356.768 158.888 352.16 164.648 347.168 169.384L346.016 168.328C356.96 152.712 364.192 136.232 367.712 118.888L375.392 123.112C376.416 123.688 376.928 124.2 376.928 124.648C376.928 125.032 376.352 125.448 375.2 125.896C374.112 126.28 372.96 127.88 371.744 130.696C369.952 134.984 368.16 138.888 366.368 142.408L368.48 143.464C369.248 143.912 369.632 144.296 369.632 144.616C369.632 144.872 369.344 145.224 368.768 145.672L367.328 146.536V184.936C367.328 191.208 367.392 195.656 367.52 198.28C367.648 200.968 367.712 202.44 367.712 202.696C367.712 203.976 366.752 205.128 364.832 206.152C362.976 207.176 361.728 207.688 361.088 207.688C360.448 207.688 360.128 206.952 360.128 205.48L360.608 196.168C360.864 192.008 360.992 187.56 360.992 182.824V152.104ZM501.056 128.872C496.64 137 492.512 143.272 488.672 147.688C484.832 152.104 480.096 156.232 474.464 160.072L473.6 158.92C483.136 149.832 490.944 136.872 497.024 120.04L504.224 123.784C505.056 124.232 505.472 124.68 505.472 125.128C505.472 125.576 505.12 125.896 504.416 126.088C503.776 126.216 503.168 126.504 502.592 126.952C510.272 140.008 519.904 148.072 531.488 151.144V152.68C529.312 152.936 527.776 153.32 526.88 153.832C525.984 154.344 524.992 155.368 523.904 156.904C523.52 157.416 523.168 157.672 522.848 157.672C521.888 157.672 518.592 154.888 512.96 149.32C507.392 143.752 503.424 136.936 501.056 128.872ZM463.52 166.216L468.032 131.848H452.192C449.248 131.848 447.104 132.2 445.76 132.904L442.4 128.68C444.768 129.064 447.36 129.256 450.176 129.256H467.84L471.2 125.128L477.056 130.024C477.568 130.536 477.824 130.952 477.824 131.272C477.824 131.528 477.44 131.88 476.672 132.328L474.08 134.056L469.28 166.216H471.104L473.888 162.376L479.168 167.272C479.68 167.72 479.936 168.104 479.936 168.424C479.936 168.68 479.552 169.032 478.784 169.48L477.536 170.152C476.256 179.944 475.072 187.496 473.984 192.808C472.96 198.056 470.816 201.768 467.552 203.944C464.352 206.12 462.208 207.208 461.12 207.208C460.672 207.208 460.416 206.696 460.352 205.672C460.224 203.752 459.552 202.248 458.336 201.16C457.184 200.136 454.592 198.984 450.56 197.704L451.136 195.688C456.448 196.648 460.064 197.128 461.984 197.128C463.968 197.128 465.344 196.584 466.112 195.496C466.88 194.408 467.776 191.464 468.8 186.664C469.888 181.864 470.784 175.88 471.488 168.712H454.208L452.48 171.016C452.096 171.528 451.744 171.784 451.424 171.784C451.168 171.784 450.72 171.528 450.08 171.016L445.76 167.56C446.912 167.048 447.68 166.376 448.064 165.544C448.448 164.648 448.832 162.824 449.216 160.072L451.328 145.288C451.776 142.152 452.064 139.016 452.192 135.88L459.488 139.72C460.384 140.168 460.832 140.52 460.832 140.776C460.832 141.032 460.448 141.448 459.68 142.024L457.952 143.368L454.304 166.216H463.52ZM515.936 156.808C516.384 157.384 516.608 157.832 516.608 158.152C516.608 158.408 516.16 158.536 515.264 158.536H491.072C488.512 158.536 486.368 158.888 484.64 159.592L481.088 155.464C483.52 155.784 486.144 155.944 488.96 155.944H505.856L510.272 150.568L515.936 156.808ZM496.448 161.992C501.632 170.248 504.224 177.192 504.224 182.824C504.224 185.32 503.616 187.496 502.4 189.352C501.248 191.208 500.128 192.136 499.04 192.136C497.952 192.136 497.408 191.272 497.408 189.544C497.408 189.16 497.536 188.04 497.792 186.184C498.112 184.264 498.272 182.12 498.272 179.752C498.272 175.272 497.28 169.704 495.296 163.048L496.448 161.992ZM507.68 200.968H517.568L523.232 194.248L530.144 202.024C530.464 202.536 530.624 202.92 530.624 203.176C530.624 203.496 530.208 203.656 529.376 203.656H483.872C481.312 203.656 479.168 204.008 477.44 204.712L473.888 200.488C476.256 200.808 478.848 200.968 481.664 200.968H504.512C509.504 188.04 513.28 175.304 515.84 162.76L522.368 167.368C523.328 168.136 523.808 168.68 523.808 169C523.808 169.256 523.36 169.608 522.464 170.056C521.952 170.312 521.312 171.112 520.544 172.456C519.776 173.736 518.208 177.128 515.84 182.632L507.68 200.968ZM483.104 164.584C488.928 172.072 491.84 179.24 491.84 186.088C491.84 188.584 491.392 190.664 490.496 192.328C489.6 193.992 488.64 194.824 487.616 194.824C486.08 194.824 485.312 193.672 485.312 191.368L485.408 183.976C485.408 179.752 485.12 176.392 484.544 173.896C483.968 171.336 483.008 168.584 481.664 165.64L483.104 164.584ZM468.512 180.136L454.976 185.128C451.648 186.344 449.28 187.368 447.872 188.2C446.528 188.968 445.664 189.352 445.28 189.352C444.96 189.352 444.672 189.096 444.416 188.584L441.152 182.152L468.32 178.696L468.512 180.136ZM628.832 200.2C626.144 200.648 624.16 201.288 622.88 202.12C621.6 203.016 620.512 204.2 619.616 205.672C619.168 206.312 618.528 206.44 617.696 206.056C608.288 201.896 600.992 197.256 595.808 192.136C593.632 193.992 591.232 195.72 588.608 197.32C585.984 198.92 583.04 200.392 579.776 201.736C576.576 203.08 573.024 204.36 569.12 205.576C565.28 206.792 561.056 207.944 556.448 209.032L555.68 207.496C564.192 204.552 571.36 201.48 577.184 198.28C583.008 195.144 587.936 191.656 591.968 187.816C589.28 184.36 587.136 180.584 585.536 176.488C583.936 172.392 582.592 167.752 581.504 162.568C580.224 162.632 579.136 162.728 578.24 162.856C577.408 162.984 576.576 163.208 575.744 163.528L572.288 159.592C571.008 160.296 569.632 161 568.16 161.704C566.688 162.408 565.056 163.176 563.264 164.008L562.112 162.664C564.672 161.128 566.88 159.72 568.736 158.44C570.656 157.096 572.256 155.72 573.536 154.312C574.816 152.84 575.84 151.208 576.608 149.416C577.376 147.624 577.92 145.512 578.24 143.08C578.624 140.584 578.816 137.672 578.816 134.344C578.88 130.952 578.816 126.984 578.624 122.44L585.824 127.72H600.8L604.352 122.344L610.688 127.24C611.328 127.752 611.616 128.136 611.552 128.392C611.552 128.648 611.264 128.968 610.688 129.352L608.48 130.888V143.56C608.48 144.072 608.512 144.488 608.576 144.808C608.64 145.128 608.896 145.384 609.344 145.576C609.792 145.704 610.464 145.8 611.36 145.864C612.32 145.928 613.664 145.96 615.392 145.96C617.248 145.96 618.976 145.8 620.576 145.48C622.24 145.096 623.392 144.552 624.032 143.848C624.608 144.68 625.184 145.608 625.76 146.632C626.4 147.592 626.976 148.488 627.488 149.32C628 150.28 627.744 150.92 626.72 151.24C625.568 151.56 624.064 151.752 622.208 151.816C620.352 151.88 618.432 151.912 616.448 151.912C613.184 151.912 610.56 151.848 608.576 151.72C606.656 151.528 605.152 151.208 604.064 150.76C603.04 150.248 602.368 149.576 602.048 148.744C601.728 147.848 601.568 146.664 601.568 145.192V130.408H586.016C585.824 134.952 585.536 138.76 585.152 141.832C584.768 144.84 584.096 147.432 583.136 149.608C582.176 151.72 580.832 153.544 579.104 155.08C577.44 156.552 575.2 158.056 572.384 159.592C573.856 159.848 575.168 160.008 576.32 160.072C577.536 160.072 578.848 160.072 580.256 160.072H606.08L609.824 155.272L616.352 161.416C616.992 162.12 617.312 162.6 617.312 162.856C617.312 163.112 616.96 163.304 616.256 163.432C615.872 163.56 615.488 163.688 615.104 163.816C614.784 163.88 614.432 164.072 614.048 164.392C613.728 164.712 613.376 165.16 612.992 165.736C612.672 166.312 612.32 167.112 611.936 168.136C610.272 172.168 608.48 175.784 606.56 178.984C604.704 182.184 602.592 185.128 600.224 187.816C601.824 189.096 603.584 190.248 605.504 191.272C607.424 192.296 609.536 193.224 611.84 194.056C614.144 194.952 616.704 195.752 619.52 196.456C622.336 197.224 625.44 197.96 628.832 198.664V200.2ZM576.896 177.832L577.952 179.08C573.6 183.176 570.016 186.6 567.2 189.352C564.448 192.04 562.24 194.216 560.576 195.88C558.976 197.608 557.792 198.92 557.024 199.816C556.32 200.776 555.84 201.544 555.584 202.12C555.264 202.952 554.912 203.368 554.528 203.368C554.144 203.432 553.696 203.048 553.184 202.216L549.152 195.976C552.096 193.416 553.568 191.016 553.568 188.776V154.984H548.576C545.696 154.984 543.52 155.4 542.048 156.232L538.592 151.912C540.128 152.04 541.504 152.136 542.72 152.2C543.936 152.264 545.216 152.296 546.56 152.296H553.76L556.832 147.592L563.264 152.008C563.968 152.52 564.32 152.936 564.32 153.256C564.32 153.576 563.968 153.96 563.264 154.408L560.192 156.52V189.352L576.896 177.832ZM584.192 162.568C586.048 167.24 587.872 171.304 589.664 174.76C591.456 178.152 593.472 181.128 595.712 183.688C598.144 180.616 600.224 177.384 601.952 173.992C603.68 170.536 605.184 166.728 606.464 162.568H584.192ZM566.144 135.4C565.76 137.448 565.184 138.856 564.416 139.624C563.712 140.392 562.784 140.776 561.632 140.776C561.12 140.776 560.608 140.488 560.096 139.912C559.648 139.336 559.264 138.536 558.944 137.512C558.112 134.824 556.96 132.392 555.488 130.216C554.08 127.976 552.256 125.832 550.016 123.784L550.784 122.536C554.24 123.432 557.024 124.424 559.136 125.512C561.248 126.536 562.848 127.624 563.936 128.776C565.088 129.864 565.792 130.984 566.048 132.136C566.304 133.288 566.336 134.376 566.144 135.4ZM697.376 153.064H712.64L718.112 146.536L724.544 154.024C724.992 154.536 725.216 154.952 725.216 155.272C725.216 155.592 724.768 155.752 723.872 155.752H697.376V186.184C697.376 192.392 697.44 196.904 697.568 199.72C697.696 202.6 697.76 204.168 697.76 204.424C697.76 205.96 696.736 207.112 694.688 207.88C692.64 208.648 691.264 209.032 690.56 209.032C689.856 209.032 689.504 208.328 689.504 206.92L690.08 197.704C690.272 193.544 690.368 189 690.368 184.072V155.752H673.664C671.04 155.752 668.864 156.104 667.136 156.808L663.488 152.488C665.92 152.872 668.576 153.064 671.456 153.064H690.368V135.4C690.368 130.28 690.24 125 689.984 119.56L700.16 124.072C700.928 124.456 701.312 124.84 701.312 125.224C701.312 125.544 700.928 125.96 700.16 126.472L697.376 128.392V153.064ZM645.536 122.056C649.888 123.784 653.504 125.768 656.384 128.008C659.328 130.184 660.8 132.744 660.8 135.688C660.8 137.352 660.192 138.856 658.976 140.2C657.824 141.544 656.608 142.216 655.328 142.216C654.112 142.216 653.248 141.064 652.736 138.76C651.2 131.656 648.544 126.472 644.768 123.208L645.536 122.056ZM657.92 191.56L672.32 178.312L673.568 179.464C661.408 194.312 654.88 202.824 653.984 205C653.728 205.768 653.408 206.152 653.024 206.152C652.64 206.152 652.192 205.768 651.68 205L647.936 198.952C650.176 196.84 651.296 194.504 651.296 191.944V156.328H644.768C641.952 156.328 639.776 156.744 638.24 157.576L634.784 153.352C637.792 153.544 640.448 153.64 642.752 153.64H651.488L655.04 148.456L660.992 153.64C661.952 154.472 662.432 155.08 662.432 155.464C662.432 155.848 662.048 156.232 661.28 156.616L657.92 158.344V191.56ZM244.832 342.2C242.144 342.648 240.16 343.288 238.88 344.12C237.6 345.016 236.512 346.2 235.616 347.672C235.168 348.312 234.528 348.44 233.696 348.056C224.288 343.896 216.992 339.256 211.808 334.136C209.632 335.992 207.232 337.72 204.608 339.32C201.984 340.92 199.04 342.392 195.776 343.736C192.576 345.08 189.024 346.36 185.12 347.576C181.28 348.792 177.056 349.944 172.448 351.032L171.68 349.496C180.192 346.552 187.36 343.48 193.184 340.28C199.008 337.144 203.936 333.656 207.968 329.816C205.28 326.36 203.136 322.584 201.536 318.488C199.936 314.392 198.592 309.752 197.504 304.568C196.224 304.632 195.136 304.728 194.24 304.856C193.408 304.984 192.576 305.208 191.744 305.528L188.288 301.592C187.008 302.296 185.632 303 184.16 303.704C182.688 304.408 181.056 305.176 179.264 306.008L178.112 304.664C180.672 303.128 182.88 301.72 184.736 300.44C186.656 299.096 188.256 297.72 189.536 296.312C190.816 294.84 191.84 293.208 192.608 291.416C193.376 289.624 193.92 287.512 194.24 285.08C194.624 282.584 194.816 279.672 194.816 276.344C194.88 272.952 194.816 268.984 194.624 264.44L201.824 269.72H216.8L220.352 264.344L226.688 269.24C227.328 269.752 227.616 270.136 227.552 270.392C227.552 270.648 227.264 270.968 226.688 271.352L224.48 272.888V285.56C224.48 286.072 224.512 286.488 224.576 286.808C224.64 287.128 224.896 287.384 225.344 287.576C225.792 287.704 226.464 287.8 227.36 287.864C228.32 287.928 229.664 287.96 231.392 287.96C233.248 287.96 234.976 287.8 236.576 287.48C238.24 287.096 239.392 286.552 240.032 285.848C240.608 286.68 241.184 287.608 241.76 288.632C242.4 289.592 242.976 290.488 243.488 291.32C244 292.28 243.744 292.92 242.72 293.24C241.568 293.56 240.064 293.752 238.208 293.816C236.352 293.88 234.432 293.912 232.448 293.912C229.184 293.912 226.56 293.848 224.576 293.72C222.656 293.528 221.152 293.208 220.064 292.76C219.04 292.248 218.368 291.576 218.048 290.744C217.728 289.848 217.568 288.664 217.568 287.192V272.408H202.016C201.824 276.952 201.536 280.76 201.152 283.832C200.768 286.84 200.096 289.432 199.136 291.608C198.176 293.72 196.832 295.544 195.104 297.08C193.44 298.552 191.2 300.056 188.384 301.592C189.856 301.848 191.168 302.008 192.32 302.072C193.536 302.072 194.848 302.072 196.256 302.072H222.08L225.824 297.272L232.352 303.416C232.992 304.12 233.312 304.6 233.312 304.856C233.312 305.112 232.96 305.304 232.256 305.432C231.872 305.56 231.488 305.688 231.104 305.816C230.784 305.88 230.432 306.072 230.048 306.392C229.728 306.712 229.376 307.16 228.992 307.736C228.672 308.312 228.32 309.112 227.936 310.136C226.272 314.168 224.48 317.784 222.56 320.984C220.704 324.184 218.592 327.128 216.224 329.816C217.824 331.096 219.584 332.248 221.504 333.272C223.424 334.296 225.536 335.224 227.84 336.056C230.144 336.952 232.704 337.752 235.52 338.456C238.336 339.224 241.44 339.96 244.832 340.664V342.2ZM192.896 319.832L193.952 321.08C189.6 325.176 186.016 328.6 183.2 331.352C180.448 334.04 178.24 336.216 176.576 337.88C174.976 339.608 173.792 340.92 173.024 341.816C172.32 342.776 171.84 343.544 171.584 344.12C171.264 344.952 170.912 345.368 170.528 345.368C170.144 345.432 169.696 345.048 169.184 344.216L165.152 337.976C168.096 335.416 169.568 333.016 169.568 330.776V296.984H164.576C161.696 296.984 159.52 297.4 158.048 298.232L154.592 293.912C156.128 294.04 157.504 294.136 158.72 294.2C159.936 294.264 161.216 294.296 162.56 294.296H169.76L172.832 289.592L179.264 294.008C179.968 294.52 180.32 294.936 180.32 295.256C180.32 295.576 179.968 295.96 179.264 296.408L176.192 298.52V331.352L192.896 319.832ZM200.192 304.568C202.048 309.24 203.872 313.304 205.664 316.76C207.456 320.152 209.472 323.128 211.712 325.688C214.144 322.616 216.224 319.384 217.952 315.992C219.68 312.536 221.184 308.728 222.464 304.568H200.192ZM182.144 277.4C181.76 279.448 181.184 280.856 180.416 281.624C179.712 282.392 178.784 282.776 177.632 282.776C177.12 282.776 176.608 282.488 176.096 281.912C175.648 281.336 175.264 280.536 174.944 279.512C174.112 276.824 172.96 274.392 171.488 272.216C170.08 269.976 168.256 267.832 166.016 265.784L166.784 264.536C170.24 265.432 173.024 266.424 175.136 267.512C177.248 268.536 178.848 269.624 179.936 270.776C181.088 271.864 181.792 272.984 182.048 274.136C182.304 275.288 182.336 276.376 182.144 277.4ZM313.376 295.064H328.64L334.112 288.536L340.544 296.024C340.992 296.536 341.216 296.952 341.216 297.272C341.216 297.592 340.768 297.752 339.872 297.752H313.376V328.184C313.376 334.392 313.44 338.904 313.568 341.72C313.696 344.6 313.76 346.168 313.76 346.424C313.76 347.96 312.736 349.112 310.688 349.88C308.64 350.648 307.264 351.032 306.56 351.032C305.856 351.032 305.504 350.328 305.504 348.92L306.08 339.704C306.272 335.544 306.368 331 306.368 326.072V297.752H289.664C287.04 297.752 284.864 298.104 283.136 298.808L279.488 294.488C281.92 294.872 284.576 295.064 287.456 295.064H306.368V277.4C306.368 272.28 306.24 267 305.984 261.56L316.16 266.072C316.928 266.456 317.312 266.84 317.312 267.224C317.312 267.544 316.928 267.96 316.16 268.472L313.376 270.392V295.064ZM261.536 264.056C265.888 265.784 269.504 267.768 272.384 270.008C275.328 272.184 276.8 274.744 276.8 277.688C276.8 279.352 276.192 280.856 274.976 282.2C273.824 283.544 272.608 284.216 271.328 284.216C270.112 284.216 269.248 283.064 268.736 280.76C267.2 273.656 264.544 268.472 260.768 265.208L261.536 264.056ZM273.92 333.56L288.32 320.312L289.568 321.464C277.408 336.312 270.88 344.824 269.984 347C269.728 347.768 269.408 348.152 269.024 348.152C268.64 348.152 268.192 347.768 267.68 347L263.936 340.952C266.176 338.84 267.296 336.504 267.296 333.944V298.328H260.768C257.952 298.328 255.776 298.744 254.24 299.576L250.784 295.352C253.792 295.544 256.448 295.64 258.752 295.64H267.488L271.04 290.456L276.992 295.64C277.952 296.472 278.432 297.08 278.432 297.464C278.432 297.848 278.048 298.232 277.28 298.616L273.92 300.344V333.56ZM397.856 331.832C397.856 334.712 397.856 337.336 397.856 339.704C397.92 342.072 398.016 343.832 398.144 344.984C398.144 345.304 398.112 345.592 398.048 345.848C398.048 346.104 397.856 346.36 397.472 346.616C397.152 346.936 396.64 347.256 395.936 347.576C395.232 347.96 394.272 348.376 393.056 348.824C391.968 349.272 391.264 349.336 390.944 349.016C390.624 348.696 390.528 347.704 390.656 346.04C390.784 344.376 390.848 342.328 390.848 339.896C390.912 337.464 390.944 334.712 390.944 331.64V317.144L379.232 318.2C377.184 318.392 375.424 318.584 373.952 318.776C372.544 318.904 371.296 319.064 370.208 319.256C369.12 319.384 368.096 319.544 367.136 319.736C366.24 319.864 365.312 320.024 364.352 320.216C363.456 320.408 362.848 320.44 362.528 320.312C362.208 320.184 361.984 319.864 361.856 319.352L360.128 313.88C361.216 314.008 362.304 314.104 363.392 314.168C364.48 314.168 365.536 314.2 366.56 314.264C373.152 310.616 378.88 307.256 383.744 304.184C388.672 301.048 392.96 298.072 396.608 295.256C394.176 295.384 391.68 295.544 389.12 295.736C386.624 295.864 384.256 296.056 382.016 296.312C379.776 296.504 377.76 296.728 375.968 296.984C374.176 297.176 372.768 297.368 371.744 297.56C370.976 297.688 370.4 297.72 370.016 297.656C369.632 297.528 369.28 297.144 368.96 296.504L367.04 290.936C368 291.064 369.024 291.16 370.112 291.224C371.2 291.288 372.288 291.352 373.376 291.416C376.512 288.344 379.2 285.368 381.44 282.488C383.744 279.608 385.568 277.08 386.912 274.904C380.512 275.48 374.464 275.928 368.768 276.248C363.136 276.568 358.336 276.696 354.368 276.632V275.288C360.704 274.712 367.296 273.912 374.144 272.888C380.992 271.8 387.552 270.68 393.824 269.528C400.096 268.312 405.792 267.096 410.912 265.88C416.032 264.6 420.032 263.416 422.912 262.328L427.52 269.24C428.416 270.648 428.096 271.192 426.56 270.872C425.664 270.744 424.448 270.68 422.912 270.68C421.44 270.68 419.776 270.84 417.92 271.16C413.376 271.864 408.576 272.536 403.52 273.176C398.464 273.752 393.408 274.264 388.352 274.712L393.44 278.456C395.168 279.736 395.168 280.472 393.44 280.664C392.928 280.728 392.32 280.92 391.616 281.24C390.976 281.56 389.952 282.168 388.544 283.064C386.624 284.344 384.832 285.624 383.168 286.904C381.568 288.12 379.776 289.72 377.792 291.704L399.68 292.856C402.688 290.424 405.28 288.12 407.456 285.944C409.632 283.768 411.296 281.816 412.448 280.088L418.592 286.136C419.808 287.48 419.808 288.184 418.592 288.248C417.504 288.376 416.48 288.6 415.52 288.92C414.624 289.176 413.536 289.752 412.256 290.648C409.76 292.376 406.912 294.264 403.712 296.312C400.512 298.296 397.184 300.344 393.728 302.456C390.272 304.504 386.752 306.552 383.168 308.6C379.648 310.584 376.32 312.44 373.184 314.168L417.248 312.056C415.712 310.392 413.856 308.696 411.68 306.968C409.568 305.24 406.976 303.448 403.904 301.592L405.152 300.728C409.12 301.88 412.48 303.032 415.232 304.184C417.984 305.336 420.224 306.456 421.952 307.544C423.68 308.632 424.928 309.72 425.696 310.808C426.464 311.896 426.848 312.92 426.848 313.88C426.848 315.864 426.592 317.432 426.08 318.584C425.568 319.736 424.896 320.312 424.064 320.312C423.424 320.312 422.88 320.12 422.432 319.736C421.984 319.288 421.504 318.488 420.992 317.336C420.8 316.952 420.576 316.568 420.32 316.184C420.064 315.736 419.776 315.32 419.456 314.936L397.856 316.568V331.832ZM431.744 338.36C431.744 340.28 431.424 341.816 430.784 342.968C430.208 344.184 429.6 344.792 428.96 344.792C428.256 344.792 427.68 344.6 427.232 344.216C426.848 343.832 426.4 343.032 425.888 341.816C425.248 340.536 424.224 339.064 422.816 337.4C421.408 335.736 419.712 334.008 417.728 332.216C415.744 330.424 413.536 328.664 411.104 326.936C408.672 325.208 406.112 323.64 403.424 322.232L404.096 320.792C409.344 322.584 413.728 324.248 417.248 325.784C420.768 327.32 423.584 328.792 425.696 330.2C427.872 331.608 429.408 332.984 430.304 334.328C431.264 335.672 431.744 337.016 431.744 338.36ZM383.456 324.728C384.16 325.24 384.448 325.688 384.32 326.072C384.192 326.392 383.744 326.616 382.976 326.744C382.592 326.808 382.112 327 381.536 327.32C381.024 327.64 380.32 328.184 379.424 328.952C376.48 331.64 372.608 334.616 367.808 337.88C363.008 341.144 357.536 344.472 351.392 347.864L350.528 346.616C354.112 344.056 357.312 341.592 360.128 339.224C363.008 336.92 365.536 334.68 367.712 332.504C369.888 330.328 371.776 328.216 373.376 326.168C375.04 324.12 376.48 322.104 377.696 320.12L383.456 324.728ZM478.688 286.52C479.456 287.224 479.808 287.704 479.744 287.96C479.744 288.216 479.392 288.504 478.688 288.824C477.984 289.144 477.344 289.56 476.768 290.072C476.256 290.52 475.648 291.224 474.944 292.184C473.728 293.912 472.352 295.768 470.816 297.752C469.28 299.672 467.648 301.688 465.92 303.8C464.256 305.848 462.528 307.896 460.736 309.944C459.008 311.992 457.312 313.976 455.648 315.896L477.344 312.44L477.632 314.36C475.328 315 472.704 315.768 469.76 316.664C466.88 317.56 464.128 318.456 461.504 319.352C458.88 320.184 456.608 320.952 454.688 321.656C452.768 322.296 451.648 322.68 451.328 322.808C450.432 323.384 449.76 323.224 449.312 322.328L446.72 316.568C447.424 316.44 448.064 316.344 448.64 316.28C449.28 316.216 450.048 316.12 450.944 315.992C453.632 313.048 456.192 309.912 458.624 306.584C461.056 303.256 463.392 299.768 465.632 296.12C464.096 296.44 462.528 296.824 460.928 297.272C459.328 297.656 457.792 298.072 456.32 298.52C454.912 298.904 453.664 299.288 452.576 299.672C451.488 300.056 450.656 300.376 450.08 300.632C448.8 301.272 448.064 301.208 447.872 300.44L445.472 294.008C446.176 294.008 446.784 294.04 447.296 294.104C447.808 294.104 448.256 294.104 448.64 294.104C450.176 291.736 451.712 289.144 453.248 286.328C454.848 283.512 456.32 280.728 457.664 277.976C459.008 275.16 460.16 272.504 461.12 270.008C462.144 267.448 462.88 265.24 463.328 263.384L471.296 268.376C472.192 268.952 472.608 269.432 472.544 269.816C472.544 270.2 472.128 270.456 471.296 270.584C470.528 270.712 469.76 271.064 468.992 271.64C468.224 272.152 467.296 273.144 466.208 274.616C464.288 277.368 462.144 280.408 459.776 283.736C457.408 287 454.784 290.488 451.904 294.2L467.168 293.432C468.256 291.576 469.28 289.72 470.24 287.864C471.264 285.944 472.224 283.96 473.12 281.912L478.688 286.52ZM484.832 280.856C483.936 280.856 482.88 280.952 481.664 281.144C480.448 281.272 479.392 281.528 478.496 281.912L474.944 277.784C476.416 277.976 477.76 278.104 478.976 278.168C480.192 278.232 481.504 278.264 482.912 278.264H518.624L524.192 271.544L530.624 279.32C531.008 279.64 531.136 279.992 531.008 280.376C530.88 280.696 530.528 280.856 529.952 280.856H498.272L503.456 284.312C504.224 284.888 504.544 285.304 504.416 285.56C504.352 285.816 503.968 286.072 503.264 286.328C502.816 286.456 502.4 286.616 502.016 286.808C501.632 287 501.216 287.256 500.768 287.576C500.32 287.832 499.808 288.184 499.232 288.632C498.656 289.08 497.952 289.656 497.12 290.36C495.456 291.832 494.048 293.048 492.896 294.008C491.808 294.904 490.816 295.736 489.92 296.504C489.024 297.208 488.16 297.88 487.328 298.52C486.496 299.096 485.536 299.768 484.448 300.536L516.704 299.768C515.36 298.104 513.792 296.472 512 294.872C510.272 293.208 508.128 291.448 505.568 289.592L506.24 288.344C513.024 290.648 518.016 293.112 521.216 295.736C524.48 298.296 526.112 300.632 526.112 302.744C526.112 304.728 525.888 306.2 525.44 307.16C525.056 308.056 524.512 308.504 523.808 308.504C522.72 308.504 521.92 307.96 521.408 306.872C520.896 306.04 520.416 305.272 519.968 304.568C519.584 303.8 519.136 303.032 518.624 302.264L495.968 303.992C494.624 304.12 493.088 304.28 491.36 304.472C489.696 304.6 488.096 304.76 486.56 304.952C485.024 305.144 483.648 305.336 482.432 305.528C481.216 305.72 480.384 305.848 479.936 305.912C479.232 306.104 478.752 306.168 478.496 306.104C478.24 306.04 478.048 305.752 477.92 305.24L476.864 300.344C477.376 300.344 477.984 300.376 478.688 300.44C479.456 300.44 480.192 300.472 480.896 300.536C482.688 298.808 484.32 297.176 485.792 295.64C487.328 294.04 488.736 292.472 490.016 290.936C491.296 289.4 492.512 287.832 493.664 286.232C494.88 284.568 496.064 282.776 497.216 280.856H484.832ZM531.872 342.776C531.104 343.48 530.432 344.024 529.856 344.408C529.28 344.856 528.736 345.208 528.224 345.464C527.712 345.72 527.136 345.912 526.496 346.04C525.92 346.232 525.248 346.392 524.48 346.52C523.776 346.584 522.848 346.648 521.696 346.712C520.544 346.776 519.328 346.808 518.048 346.808C516.768 346.808 515.488 346.808 514.208 346.808C512.992 346.808 511.968 346.776 511.136 346.712C509.28 346.648 507.808 346.488 506.72 346.232C505.696 346.04 504.896 345.688 504.32 345.176C503.808 344.728 503.456 344.088 503.264 343.256C503.136 342.424 503.072 341.336 503.072 339.992V320.888C503.072 319.8 503.04 318.552 502.976 317.144C502.976 315.736 502.944 314.296 502.88 312.824C502.88 311.352 502.848 309.944 502.784 308.6C502.72 307.256 502.656 306.104 502.592 305.144L511.232 308.6C511.808 308.92 512.096 309.24 512.096 309.56C512.16 309.816 511.872 310.168 511.232 310.616L509.504 311.96V337.88C509.504 339.608 509.888 340.696 510.656 341.144C511.488 341.592 513.184 341.816 515.744 341.816C517.92 341.816 519.616 341.688 520.832 341.432C522.112 341.176 523.136 340.504 523.904 339.416C524.672 338.328 525.28 336.632 525.728 334.328C526.24 332.024 526.816 328.824 527.456 324.728H528.896C528.768 327.8 528.704 330.232 528.704 332.024C528.768 333.816 528.896 335.224 529.088 336.248C529.28 337.336 529.568 338.104 529.952 338.552C530.4 339.064 530.944 339.512 531.584 339.896C532.992 340.792 533.088 341.752 531.872 342.776ZM494.624 311.96C494.368 316.568 493.952 320.632 493.376 324.152C492.864 327.672 492.064 330.776 490.976 333.464C489.952 336.088 488.576 338.36 486.848 340.28C485.12 342.2 482.944 343.864 480.32 345.272C477.76 346.68 474.688 347.896 471.104 348.92C467.52 349.944 463.328 350.872 458.528 351.704L458.048 350.36C462.464 348.952 466.272 347.576 469.472 346.232C472.672 344.888 475.392 343.384 477.632 341.72C479.936 340.12 481.792 338.264 483.2 336.152C484.672 334.104 485.792 331.64 486.56 328.76C487.328 325.88 487.808 322.52 488 318.68C488.256 314.84 488.352 310.328 488.288 305.144L495.68 308.792C496.64 309.304 496.832 309.88 496.256 310.52L494.624 311.96ZM460.448 336.056C458.272 336.952 456.256 337.88 454.4 338.84C452.608 339.864 451.392 340.664 450.752 341.24C449.92 342.008 449.28 341.976 448.832 341.144L444.992 333.656L480.32 326.072L480.896 327.224L460.448 336.056ZM506.624 269.624C506.624 271.736 506.048 273.496 504.896 274.904C503.808 276.248 502.656 276.92 501.44 276.92C500.8 276.92 500.256 276.632 499.808 276.056C499.424 275.48 499.168 274.744 499.04 273.848C498.848 272.568 498.624 271.48 498.368 270.584C498.112 269.624 497.76 268.76 497.312 267.992C496.928 267.16 496.384 266.36 495.68 265.592C494.976 264.824 494.112 263.992 493.088 263.096L493.76 261.752C498.688 263.224 502.048 264.6 503.84 265.88C505.696 267.16 506.624 268.408 506.624 269.624Z" fill="#004B9E"/>
</g>
<rect x="505.428" y="-111.833" width="213" height="710" transform="rotate(15 505.428 -111.833)" fill="#2676B8"/>
<mask id="mask2" mask-type="alpha" maskUnits="userSpaceOnUse" x="321" y="-112" width="391" height="742">
<rect x="505.428" y="-111.833" width="213" height="710" transform="rotate(15 505.428 -111.833)" fill="#80AFD5"/>
</mask>
<g mask="url(#mask2)">
<path d="M-212.984 201.938C-220.391 201.938 -226.172 199.656 -230.328 195.094C-234.453 190.531 -236.516 184.141 -236.516 175.922C-236.516 167.797 -234.516 161.297 -230.516 156.422C-226.516 151.516 -221.125 149.062 -214.344 149.062C-208.344 149.062 -203.609 151.156 -200.141 155.344C-196.672 159.531 -194.938 165.219 -194.938 172.406V176.156H-231.641C-231.578 183.156 -229.953 188.5 -226.766 192.188C-223.547 195.875 -218.953 197.719 -212.984 197.719C-210.078 197.719 -207.531 197.516 -205.344 197.109C-203.125 196.703 -200.328 195.828 -196.953 194.484V198.703C-199.828 199.953 -202.484 200.797 -204.922 201.234C-207.359 201.703 -210.047 201.938 -212.984 201.938ZM-214.344 153.188C-219.25 153.188 -223.188 154.812 -226.156 158.062C-229.125 161.281 -230.859 165.938 -231.359 172.031H-199.859C-199.859 166.125 -201.141 161.516 -203.703 158.203C-206.266 154.859 -209.812 153.188 -214.344 153.188ZM-168.359 174.797L-186.125 150.047H-180.781L-165.594 171.516L-150.547 150.047H-145.438L-162.922 174.797L-144.172 201H-149.562L-165.594 178.266L-181.719 201H-186.828L-168.359 174.797ZM-111.266 201.938C-119.109 201.938 -124.828 199 -128.422 193.125H-128.75L-128.609 197.062C-128.484 199.375 -128.422 201.906 -128.422 204.656V224.062H-133.062V150.047H-129.125L-128.234 157.312H-127.953C-124.453 151.812 -118.859 149.062 -111.172 149.062C-104.297 149.062 -99.0625 151.328 -95.4688 155.859C-91.8438 160.359 -90.0312 166.922 -90.0312 175.547C-90.0312 183.922 -91.9375 190.422 -95.75 195.047C-99.5312 199.641 -104.703 201.938 -111.266 201.938ZM-111.359 197.812C-106.141 197.812 -102.109 195.875 -99.2656 192C-96.3906 188.125 -94.9531 182.703 -94.9531 175.734C-94.9531 160.766 -100.359 153.281 -111.172 153.281C-117.109 153.281 -121.469 154.922 -124.25 158.203C-127.031 161.453 -128.422 166.766 -128.422 174.141V175.641C-128.422 183.609 -127.094 189.297 -124.438 192.703C-121.75 196.109 -117.391 197.812 -111.359 197.812ZM-55.2969 201.938C-62.7031 201.938 -68.4844 199.656 -72.6406 195.094C-76.7656 190.531 -78.8281 184.141 -78.8281 175.922C-78.8281 167.797 -76.8281 161.297 -72.8281 156.422C-68.8281 151.516 -63.4375 149.062 -56.6562 149.062C-50.6562 149.062 -45.9219 151.156 -42.4531 155.344C-38.9844 159.531 -37.25 165.219 -37.25 172.406V176.156H-73.9531C-73.8906 183.156 -72.2656 188.5 -69.0781 192.188C-65.8594 195.875 -61.2656 197.719 -55.2969 197.719C-52.3906 197.719 -49.8438 197.516 -47.6562 197.109C-45.4375 196.703 -42.6406 195.828 -39.2656 194.484V198.703C-42.1406 199.953 -44.7969 200.797 -47.2344 201.234C-49.6719 201.703 -52.3594 201.938 -55.2969 201.938ZM-56.6562 153.188C-61.5625 153.188 -65.5 154.812 -68.4688 158.062C-71.4375 161.281 -73.1719 165.938 -73.6719 172.031H-42.1719C-42.1719 166.125 -43.4531 161.516 -46.0156 158.203C-48.5781 154.859 -52.125 153.188 -56.6562 153.188ZM-3.125 149.062C-0.96875 149.062 1.34375 149.281 3.8125 149.719L2.92188 154.172C0.796875 153.641 -1.40625 153.375 -3.6875 153.375C-8.03125 153.375 -11.5938 155.219 -14.375 158.906C-17.1562 162.594 -18.5469 167.25 -18.5469 172.875V201H-23.1875V150.047H-19.25L-18.7812 159.234H-18.4531C-16.3594 155.484 -14.125 152.859 -11.75 151.359C-9.375 149.828 -6.5 149.062 -3.125 149.062ZM18.8594 201H14.2188V150.047H18.8594V201ZM13.5625 135.891C13.5625 132.891 14.5469 131.391 16.5156 131.391C17.4844 131.391 18.2344 131.781 18.7656 132.562C19.3281 133.344 19.6094 134.453 19.6094 135.891C19.6094 137.297 19.3281 138.406 18.7656 139.219C18.2344 140.031 17.4844 140.438 16.5156 140.438C14.5469 140.438 13.5625 138.922 13.5625 135.891ZM56.5469 201.938C49.1406 201.938 43.3594 199.656 39.2031 195.094C35.0781 190.531 33.0156 184.141 33.0156 175.922C33.0156 167.797 35.0156 161.297 39.0156 156.422C43.0156 151.516 48.4062 149.062 55.1875 149.062C61.1875 149.062 65.9219 151.156 69.3906 155.344C72.8594 159.531 74.5938 165.219 74.5938 172.406V176.156H37.8906C37.9531 183.156 39.5781 188.5 42.7656 192.188C45.9844 195.875 50.5781 197.719 56.5469 197.719C59.4531 197.719 62 197.516 64.1875 197.109C66.4062 196.703 69.2031 195.828 72.5781 194.484V198.703C69.7031 199.953 67.0469 200.797 64.6094 201.234C62.1719 201.703 59.4844 201.938 56.5469 201.938ZM55.1875 153.188C50.2812 153.188 46.3438 154.812 43.375 158.062C40.4062 161.281 38.6719 165.938 38.1719 172.031H69.6719C69.6719 166.125 68.3906 161.516 65.8281 158.203C63.2656 154.859 59.7188 153.188 55.1875 153.188ZM124.188 201V167.953C124.188 162.828 123.109 159.109 120.953 156.797C118.797 154.453 115.453 153.281 110.922 153.281C104.828 153.281 100.359 154.828 97.5156 157.922C94.7031 160.984 93.2969 165.969 93.2969 172.875V201H88.6562V150.047H92.5938L93.4844 157.031H93.7656C97.0781 151.719 102.969 149.062 111.438 149.062C123 149.062 128.781 155.266 128.781 167.672V201H124.188ZM165.625 201.938C158.344 201.938 152.641 199.641 148.516 195.047C144.391 190.453 142.328 184.047 142.328 175.828C142.328 167.391 144.469 160.828 148.75 156.141C153.031 151.422 158.891 149.062 166.328 149.062C170.734 149.062 174.953 149.828 178.984 151.359L177.719 155.484C173.312 154.016 169.484 153.281 166.234 153.281C159.984 153.281 155.25 155.219 152.031 159.094C148.812 162.938 147.203 168.484 147.203 175.734C147.203 182.609 148.812 188 152.031 191.906C155.25 195.781 159.75 197.719 165.531 197.719C170.156 197.719 174.453 196.891 178.422 195.234V199.547C175.172 201.141 170.906 201.938 165.625 201.938ZM195.578 201H190.938V150.047H195.578V201ZM190.281 135.891C190.281 132.891 191.266 131.391 193.234 131.391C194.203 131.391 194.953 131.781 195.484 132.562C196.047 133.344 196.328 134.453 196.328 135.891C196.328 137.297 196.047 138.406 195.484 139.219C194.953 140.031 194.203 140.438 193.234 140.438C191.266 140.438 190.281 138.922 190.281 135.891ZM243.625 201L242.453 192.938H242.078C239.516 196.219 236.875 198.547 234.156 199.922C231.469 201.266 228.281 201.938 224.594 201.938C219.594 201.938 215.703 200.656 212.922 198.094C210.141 195.531 208.75 191.984 208.75 187.453C208.75 182.484 210.812 178.625 214.938 175.875C219.094 173.125 225.094 171.672 232.938 171.516L242.641 171.234V167.859C242.641 163.016 241.656 159.359 239.688 156.891C237.719 154.422 234.547 153.188 230.172 153.188C225.453 153.188 220.562 154.5 215.5 157.125L213.766 153.094C219.359 150.469 224.891 149.156 230.359 149.156C235.953 149.156 240.125 150.609 242.875 153.516C245.656 156.422 247.047 160.953 247.047 167.109V201H243.625ZM224.875 197.719C230.312 197.719 234.594 196.172 237.719 193.078C240.875 189.953 242.453 185.625 242.453 180.094V175.078L233.547 175.453C226.391 175.797 221.281 176.922 218.219 178.828C215.188 180.703 213.672 183.641 213.672 187.641C213.672 190.828 214.641 193.312 216.578 195.094C218.547 196.844 221.312 197.719 224.875 197.719ZM307.188 149.062C310.875 149.062 314.062 149.734 316.75 151.078C319.438 152.422 321.844 154.719 323.969 157.969H324.25C324.062 154.031 323.969 150.172 323.969 146.391V128.062H328.562V201H325.516L324.344 193.219H323.969C320.094 199.031 314.531 201.938 307.281 201.938C300.25 201.938 294.875 199.75 291.156 195.375C287.438 191 285.578 184.625 285.578 176.25C285.578 167.438 287.422 160.703 291.109 156.047C294.797 151.391 300.156 149.062 307.188 149.062ZM307.188 153.281C301.625 153.281 297.438 155.234 294.625 159.141C291.844 163.047 290.453 168.719 290.453 176.156C290.453 190.594 296.062 197.812 307.281 197.812C313.031 197.812 317.25 196.141 319.938 192.797C322.625 189.453 323.969 183.938 323.969 176.25V175.453C323.969 167.578 322.641 161.922 319.984 158.484C317.359 155.016 313.094 153.281 307.188 153.281ZM366.297 201.938C358.891 201.938 353.109 199.656 348.953 195.094C344.828 190.531 342.766 184.141 342.766 175.922C342.766 167.797 344.766 161.297 348.766 156.422C352.766 151.516 358.156 149.062 364.938 149.062C370.938 149.062 375.672 151.156 379.141 155.344C382.609 159.531 384.344 165.219 384.344 172.406V176.156H347.641C347.703 183.156 349.328 188.5 352.516 192.188C355.734 195.875 360.328 197.719 366.297 197.719C369.203 197.719 371.75 197.516 373.938 197.109C376.156 196.703 378.953 195.828 382.328 194.484V198.703C379.453 199.953 376.797 200.797 374.359 201.234C371.922 201.703 369.234 201.938 366.297 201.938ZM364.938 153.188C360.031 153.188 356.094 154.812 353.125 158.062C350.156 161.281 348.422 165.938 347.922 172.031H379.422C379.422 166.125 378.141 161.516 375.578 158.203C373.016 154.859 369.469 153.188 364.938 153.188ZM427.375 150.047V183.047C427.375 188.172 428.453 191.906 430.609 194.25C432.766 196.562 436.109 197.719 440.641 197.719C446.703 197.719 451.156 196.188 454 193.125C456.875 190.062 458.312 185.078 458.312 178.172V150.047H462.906V201H458.969L458.125 193.969H457.844C454.531 199.281 448.641 201.938 440.172 201.938C428.578 201.938 422.781 195.734 422.781 183.328V150.047H427.375ZM511.562 187.734C511.562 192.297 509.828 195.812 506.359 198.281C502.891 200.719 497.969 201.938 491.594 201.938C484.781 201.938 479.375 200.891 475.375 198.797V193.781C480.5 196.344 485.906 197.625 491.594 197.625C496.625 197.625 500.438 196.797 503.031 195.141C505.656 193.453 506.969 191.219 506.969 188.438C506.969 185.875 505.922 183.719 503.828 181.969C501.766 180.219 498.359 178.5 493.609 176.812C488.516 174.969 484.938 173.391 482.875 172.078C480.812 170.734 479.25 169.234 478.188 167.578C477.156 165.891 476.641 163.844 476.641 161.438C476.641 157.625 478.234 154.609 481.422 152.391C484.641 150.172 489.125 149.062 494.875 149.062C500.375 149.062 505.594 150.094 510.531 152.156L508.797 156.375C503.797 154.312 499.156 153.281 494.875 153.281C490.719 153.281 487.422 153.969 484.984 155.344C482.547 156.719 481.328 158.625 481.328 161.062C481.328 163.719 482.266 165.844 484.141 167.438C486.047 169.031 489.75 170.812 495.25 172.781C499.844 174.438 503.188 175.938 505.281 177.281C507.375 178.594 508.938 180.094 509.969 181.781C511.031 183.469 511.562 185.453 511.562 187.734ZM528.719 150.047V183.047C528.719 188.172 529.797 191.906 531.953 194.25C534.109 196.562 537.453 197.719 541.984 197.719C548.047 197.719 552.5 196.188 555.344 193.125C558.219 190.062 559.656 185.078 559.656 178.172V150.047H564.25V201H560.312L559.469 193.969H559.188C555.875 199.281 549.984 201.938 541.516 201.938C529.922 201.938 524.125 195.734 524.125 183.328V150.047H528.719ZM612.25 201L611.078 192.938H610.703C608.141 196.219 605.5 198.547 602.781 199.922C600.094 201.266 596.906 201.938 593.219 201.938C588.219 201.938 584.328 200.656 581.547 198.094C578.766 195.531 577.375 191.984 577.375 187.453C577.375 182.484 579.438 178.625 583.562 175.875C587.719 173.125 593.719 171.672 601.562 171.516L611.266 171.234V167.859C611.266 163.016 610.281 159.359 608.312 156.891C606.344 154.422 603.172 153.188 598.797 153.188C594.078 153.188 589.188 154.5 584.125 157.125L582.391 153.094C587.984 150.469 593.516 149.156 598.984 149.156C604.578 149.156 608.75 150.609 611.5 153.516C614.281 156.422 615.672 160.953 615.672 167.109V201H612.25ZM593.5 197.719C598.938 197.719 603.219 196.172 606.344 193.078C609.5 189.953 611.078 185.625 611.078 180.094V175.078L602.172 175.453C595.016 175.797 589.906 176.922 586.844 178.828C583.812 180.703 582.297 183.641 582.297 187.641C582.297 190.828 583.266 193.312 585.203 195.094C587.172 196.844 589.938 197.719 593.5 197.719ZM652.281 149.062C654.438 149.062 656.75 149.281 659.219 149.719L658.328 154.172C656.203 153.641 654 153.375 651.719 153.375C647.375 153.375 643.812 155.219 641.031 158.906C638.25 162.594 636.859 167.25 636.859 172.875V201H632.219V150.047H636.156L636.625 159.234H636.953C639.047 155.484 641.281 152.859 643.656 151.359C646.031 149.828 648.906 149.062 652.281 149.062ZM674.266 201H669.625V150.047H674.266V201ZM668.969 135.891C668.969 132.891 669.953 131.391 671.922 131.391C672.891 131.391 673.641 131.781 674.172 132.562C674.734 133.344 675.016 134.453 675.016 135.891C675.016 137.297 674.734 138.406 674.172 139.219C673.641 140.031 672.891 140.438 671.922 140.438C669.953 140.438 668.969 138.922 668.969 135.891ZM733.516 175.453C733.516 183.766 731.5 190.266 727.469 194.953C723.438 199.609 717.875 201.938 710.781 201.938C706.312 201.938 702.375 200.859 698.969 198.703C695.562 196.547 692.953 193.453 691.141 189.422C689.328 185.391 688.422 180.734 688.422 175.453C688.422 167.141 690.438 160.672 694.469 156.047C698.5 151.391 704.031 149.062 711.062 149.062C718.062 149.062 723.547 151.422 727.516 156.141C731.516 160.828 733.516 167.266 733.516 175.453ZM693.297 175.453C693.297 182.453 694.828 187.922 697.891 191.859C700.984 195.766 705.344 197.719 710.969 197.719C716.594 197.719 720.938 195.766 724 191.859C727.094 187.922 728.641 182.453 728.641 175.453C728.641 168.422 727.078 162.969 723.953 159.094C720.859 155.219 716.5 153.281 710.875 153.281C705.25 153.281 700.906 155.219 697.844 159.094C694.812 162.938 693.297 168.391 693.297 175.453ZM-98.0938 314.328C-98.0938 320.047 -100.203 324.578 -104.422 327.922C-108.609 331.266 -114.188 332.938 -121.156 332.938C-129.531 332.938 -135.953 332.016 -140.422 330.172V325.391C-135.484 327.484 -129.188 328.531 -121.531 328.531C-115.906 328.531 -111.453 327.25 -108.172 324.688C-104.859 322.094 -103.203 318.703 -103.203 314.516C-103.203 311.922 -103.75 309.781 -104.844 308.094C-105.938 306.375 -107.719 304.812 -110.188 303.406C-112.656 302 -116.281 300.484 -121.062 298.859C-128.062 296.453 -132.906 293.859 -135.594 291.078C-138.25 288.266 -139.578 284.531 -139.578 279.875C-139.578 274.75 -137.578 270.578 -133.578 267.359C-129.547 264.109 -124.375 262.484 -118.062 262.484C-111.625 262.484 -105.578 263.703 -99.9219 266.141L-101.656 270.266C-107.344 267.891 -112.781 266.703 -117.969 266.703C-123.031 266.703 -127.062 267.875 -130.062 270.219C-133.062 272.562 -134.562 275.75 -134.562 279.781C-134.562 282.312 -134.109 284.391 -133.203 286.016C-132.266 287.641 -130.75 289.109 -128.656 290.422C-126.562 291.703 -122.969 293.25 -117.875 295.062C-112.531 296.906 -108.516 298.703 -105.828 300.453C-103.141 302.172 -101.188 304.141 -99.9688 306.359C-98.7188 308.547 -98.0938 311.203 -98.0938 314.328ZM-80.1406 332H-84.7812V281.047H-80.1406V332ZM-85.4375 266.891C-85.4375 263.891 -84.4531 262.391 -82.4844 262.391C-81.5156 262.391 -80.7656 262.781 -80.2344 263.562C-79.6719 264.344 -79.3906 265.453 -79.3906 266.891C-79.3906 268.297 -79.6719 269.406 -80.2344 270.219C-80.7656 271.031 -81.5156 271.438 -82.4844 271.438C-84.4531 271.438 -85.4375 269.922 -85.4375 266.891ZM-31.4375 318.734C-31.4375 323.297 -33.1719 326.812 -36.6406 329.281C-40.1094 331.719 -45.0312 332.938 -51.4062 332.938C-58.2188 332.938 -63.625 331.891 -67.625 329.797V324.781C-62.5 327.344 -57.0938 328.625 -51.4062 328.625C-46.375 328.625 -42.5625 327.797 -39.9688 326.141C-37.3438 324.453 -36.0312 322.219 -36.0312 319.438C-36.0312 316.875 -37.0781 314.719 -39.1719 312.969C-41.2344 311.219 -44.6406 309.5 -49.3906 307.812C-54.4844 305.969 -58.0625 304.391 -60.125 303.078C-62.1875 301.734 -63.75 300.234 -64.8125 298.578C-65.8438 296.891 -66.3594 294.844 -66.3594 292.438C-66.3594 288.625 -64.7656 285.609 -61.5781 283.391C-58.3594 281.172 -53.875 280.062 -48.125 280.062C-42.625 280.062 -37.4062 281.094 -32.4688 283.156L-34.2031 287.375C-39.2031 285.312 -43.8438 284.281 -48.125 284.281C-52.2812 284.281 -55.5781 284.969 -58.0156 286.344C-60.4531 287.719 -61.6719 289.625 -61.6719 292.062C-61.6719 294.719 -60.7344 296.844 -58.8594 298.438C-56.9531 300.031 -53.25 301.812 -47.75 303.781C-43.1562 305.438 -39.8125 306.938 -37.7188 308.281C-35.625 309.594 -34.0625 311.094 -33.0312 312.781C-31.9688 314.469 -31.4375 316.453 -31.4375 318.734ZM-4.85938 328.812C-1.92188 328.812 0.640625 328.562 2.82812 328.062V331.812C0.578125 332.562 -2.01562 332.938 -4.95312 332.938C-9.45312 332.938 -12.7812 331.734 -14.9375 329.328C-17.0625 326.922 -18.125 323.141 -18.125 317.984V285.078H-25.6719V282.359L-18.125 280.25L-15.7812 268.719H-13.3906V281.047H1.5625V285.078H-13.3906V317.328C-13.3906 321.234 -12.7031 324.125 -11.3281 326C-9.95312 327.875 -7.79688 328.812 -4.85938 328.812ZM34.4219 332.938C27.0156 332.938 21.2344 330.656 17.0781 326.094C12.9531 321.531 10.8906 315.141 10.8906 306.922C10.8906 298.797 12.8906 292.297 16.8906 287.422C20.8906 282.516 26.2812 280.062 33.0625 280.062C39.0625 280.062 43.7969 282.156 47.2656 286.344C50.7344 290.531 52.4688 296.219 52.4688 303.406V307.156H15.7656C15.8281 314.156 17.4531 319.5 20.6406 323.188C23.8594 326.875 28.4531 328.719 34.4219 328.719C37.3281 328.719 39.875 328.516 42.0625 328.109C44.2812 327.703 47.0781 326.828 50.4531 325.484V329.703C47.5781 330.953 44.9219 331.797 42.4844 332.234C40.0469 332.703 37.3594 332.938 34.4219 332.938ZM33.0625 284.188C28.1562 284.188 24.2188 285.812 21.25 289.062C18.2812 292.281 16.5469 296.938 16.0469 303.031H47.5469C47.5469 297.125 46.2656 292.516 43.7031 289.203C41.1406 285.859 37.5938 284.188 33.0625 284.188ZM130.188 332V298.578C130.188 293.609 129.219 289.984 127.281 287.703C125.344 285.422 122.375 284.281 118.375 284.281C113.156 284.281 109.297 285.719 106.797 288.594C104.297 291.469 103.047 295.984 103.047 302.141V332H98.3125V297.172C98.3125 288.578 94.375 284.281 86.5 284.281C81.1562 284.281 77.2656 285.844 74.8281 288.969C72.3906 292.062 71.1719 297.031 71.1719 303.875V332H66.5312V281.047H70.375L71.3594 288.031H71.6406C73.0469 285.5 75.0469 283.547 77.6406 282.172C80.2344 280.766 83.0938 280.062 86.2188 280.062C94.25 280.062 99.4062 283.078 101.688 289.109H101.875C103.531 286.203 105.75 283.969 108.531 282.406C111.344 280.844 114.531 280.062 118.094 280.062C123.656 280.062 127.828 281.547 130.609 284.516C133.391 287.484 134.781 292.203 134.781 298.672V332H130.188ZM182.219 332L181.047 323.938H180.672C178.109 327.219 175.469 329.547 172.75 330.922C170.062 332.266 166.875 332.938 163.188 332.938C158.188 332.938 154.297 331.656 151.516 329.094C148.734 326.531 147.344 322.984 147.344 318.453C147.344 313.484 149.406 309.625 153.531 306.875C157.688 304.125 163.688 302.672 171.531 302.516L181.234 302.234V298.859C181.234 294.016 180.25 290.359 178.281 287.891C176.312 285.422 173.141 284.188 168.766 284.188C164.047 284.188 159.156 285.5 154.094 288.125L152.359 284.094C157.953 281.469 163.484 280.156 168.953 280.156C174.547 280.156 178.719 281.609 181.469 284.516C184.25 287.422 185.641 291.953 185.641 298.109V332H182.219ZM163.469 328.719C168.906 328.719 173.188 327.172 176.312 324.078C179.469 320.953 181.047 316.625 181.047 311.094V306.078L172.141 306.453C164.984 306.797 159.875 307.922 156.812 309.828C153.781 311.703 152.266 314.641 152.266 318.641C152.266 321.828 153.234 324.312 155.172 326.094C157.141 327.844 159.906 328.719 163.469 328.719ZM245.781 280.062C249.469 280.062 252.656 280.734 255.344 282.078C258.031 283.422 260.438 285.719 262.562 288.969H262.844C262.656 285.031 262.562 281.172 262.562 277.391V259.062H267.156V332H264.109L262.938 324.219H262.562C258.688 330.031 253.125 332.938 245.875 332.938C238.844 332.938 233.469 330.75 229.75 326.375C226.031 322 224.172 315.625 224.172 307.25C224.172 298.438 226.016 291.703 229.703 287.047C233.391 282.391 238.75 280.062 245.781 280.062ZM245.781 284.281C240.219 284.281 236.031 286.234 233.219 290.141C230.438 294.047 229.047 299.719 229.047 307.156C229.047 321.594 234.656 328.812 245.875 328.812C251.625 328.812 255.844 327.141 258.531 323.797C261.219 320.453 262.562 314.938 262.562 307.25V306.453C262.562 298.578 261.234 292.922 258.578 289.484C255.953 286.016 251.688 284.281 245.781 284.281ZM304.891 332.938C297.484 332.938 291.703 330.656 287.547 326.094C283.422 321.531 281.359 315.141 281.359 306.922C281.359 298.797 283.359 292.297 287.359 287.422C291.359 282.516 296.75 280.062 303.531 280.062C309.531 280.062 314.266 282.156 317.734 286.344C321.203 290.531 322.938 296.219 322.938 303.406V307.156H286.234C286.297 314.156 287.922 319.5 291.109 323.188C294.328 326.875 298.922 328.719 304.891 328.719C307.797 328.719 310.344 328.516 312.531 328.109C314.75 327.703 317.547 326.828 320.922 325.484V329.703C318.047 330.953 315.391 331.797 312.953 332.234C310.516 332.703 307.828 332.938 304.891 332.938ZM303.531 284.188C298.625 284.188 294.688 285.812 291.719 289.062C288.75 292.281 287.016 296.938 286.516 303.031H318.016C318.016 297.125 316.734 292.516 314.172 289.203C311.609 285.859 308.062 284.188 303.531 284.188ZM380.594 280.062C384.281 280.062 387.469 280.734 390.156 282.078C392.844 283.422 395.25 285.719 397.375 288.969H397.656C397.469 285.031 397.375 281.172 397.375 277.391V259.062H401.969V332H398.922L397.75 324.219H397.375C393.5 330.031 387.938 332.938 380.688 332.938C373.656 332.938 368.281 330.75 364.562 326.375C360.844 322 358.984 315.625 358.984 307.25C358.984 298.438 360.828 291.703 364.516 287.047C368.203 282.391 373.562 280.062 380.594 280.062ZM380.594 284.281C375.031 284.281 370.844 286.234 368.031 290.141C365.25 294.047 363.859 299.719 363.859 307.156C363.859 321.594 369.469 328.812 380.688 328.812C386.438 328.812 390.656 327.141 393.344 323.797C396.031 320.453 397.375 314.938 397.375 307.25V306.453C397.375 298.578 396.047 292.922 393.391 289.484C390.766 286.016 386.5 284.281 380.594 284.281ZM423.766 332H419.125V281.047H423.766V332ZM418.469 266.891C418.469 263.891 419.453 262.391 421.422 262.391C422.391 262.391 423.141 262.781 423.672 263.562C424.234 264.344 424.516 265.453 424.516 266.891C424.516 268.297 424.234 269.406 423.672 270.219C423.141 271.031 422.391 271.438 421.422 271.438C419.453 271.438 418.469 269.922 418.469 266.891ZM472.469 318.734C472.469 323.297 470.734 326.812 467.266 329.281C463.797 331.719 458.875 332.938 452.5 332.938C445.688 332.938 440.281 331.891 436.281 329.797V324.781C441.406 327.344 446.812 328.625 452.5 328.625C457.531 328.625 461.344 327.797 463.938 326.141C466.562 324.453 467.875 322.219 467.875 319.438C467.875 316.875 466.828 314.719 464.734 312.969C462.672 311.219 459.266 309.5 454.516 307.812C449.422 305.969 445.844 304.391 443.781 303.078C441.719 301.734 440.156 300.234 439.094 298.578C438.062 296.891 437.547 294.844 437.547 292.438C437.547 288.625 439.141 285.609 442.328 283.391C445.547 281.172 450.031 280.062 455.781 280.062C461.281 280.062 466.5 281.094 471.438 283.156L469.703 287.375C464.703 285.312 460.062 284.281 455.781 284.281C451.625 284.281 448.328 284.969 445.891 286.344C443.453 287.719 442.234 289.625 442.234 292.062C442.234 294.719 443.172 296.844 445.047 298.438C446.953 300.031 450.656 301.812 456.156 303.781C460.75 305.438 464.094 306.938 466.188 308.281C468.281 309.594 469.844 311.094 470.875 312.781C471.938 314.469 472.469 316.453 472.469 318.734ZM506.172 332.938C498.766 332.938 492.984 330.656 488.828 326.094C484.703 321.531 482.641 315.141 482.641 306.922C482.641 298.797 484.641 292.297 488.641 287.422C492.641 282.516 498.031 280.062 504.812 280.062C510.812 280.062 515.547 282.156 519.016 286.344C522.484 290.531 524.219 296.219 524.219 303.406V307.156H487.516C487.578 314.156 489.203 319.5 492.391 323.188C495.609 326.875 500.203 328.719 506.172 328.719C509.078 328.719 511.625 328.516 513.812 328.109C516.031 327.703 518.828 326.828 522.203 325.484V329.703C519.328 330.953 516.672 331.797 514.234 332.234C511.797 332.703 509.109 332.938 506.172 332.938ZM504.812 284.188C499.906 284.188 495.969 285.812 493 289.062C490.031 292.281 488.297 296.938 487.797 303.031H519.297C519.297 297.125 518.016 292.516 515.453 289.203C512.891 285.859 509.344 284.188 504.812 284.188ZM573.812 332V298.953C573.812 293.828 572.734 290.109 570.578 287.797C568.422 285.453 565.078 284.281 560.547 284.281C554.453 284.281 549.984 285.828 547.141 288.922C544.328 291.984 542.922 296.969 542.922 303.875V332H538.281V281.047H542.219L543.109 288.031H543.391C546.703 282.719 552.594 280.062 561.062 280.062C572.625 280.062 578.406 286.266 578.406 298.672V332H573.812ZM566.266 273.734C565.141 273.734 563.969 273.453 562.75 272.891C561.531 272.297 559.953 271.172 558.016 269.516C557.016 268.703 556.031 267.984 555.062 267.359C554.125 266.734 553.156 266.422 552.156 266.422C550.75 266.422 549.578 266.969 548.641 268.062C547.703 269.125 546.953 271.016 546.391 273.734H542.969C543.281 270.266 544.266 267.547 545.922 265.578C547.578 263.578 549.719 262.578 552.344 262.578C553.844 262.578 555.219 262.969 556.469 263.75C557.719 264.531 559 265.453 560.312 266.516C561.375 267.391 562.406 268.172 563.406 268.859C564.406 269.547 565.359 269.891 566.266 269.891C567.703 269.891 568.906 269.328 569.875 268.203C570.844 267.047 571.594 265.172 572.125 262.578H575.688C575.188 266.203 574.109 268.969 572.453 270.875C570.797 272.781 568.734 273.734 566.266 273.734ZM637.047 306.453C637.047 314.766 635.031 321.266 631 325.953C626.969 330.609 621.406 332.938 614.312 332.938C609.844 332.938 605.906 331.859 602.5 329.703C599.094 327.547 596.484 324.453 594.672 320.422C592.859 316.391 591.953 311.734 591.953 306.453C591.953 298.141 593.969 291.672 598 287.047C602.031 282.391 607.562 280.062 614.594 280.062C621.594 280.062 627.078 282.422 631.047 287.141C635.047 291.828 637.047 298.266 637.047 306.453ZM596.828 306.453C596.828 313.453 598.359 318.922 601.422 322.859C604.516 326.766 608.875 328.719 614.5 328.719C620.125 328.719 624.469 326.766 627.531 322.859C630.625 318.922 632.172 313.453 632.172 306.453C632.172 299.422 630.609 293.969 627.484 290.094C624.391 286.219 620.031 284.281 614.406 284.281C608.781 284.281 604.438 286.219 601.375 290.094C598.344 293.938 596.828 299.391 596.828 306.453Z" fill="white"/>
</g>
<rect x="719.102" y="-53.8576" width="233" height="710" transform="rotate(15 719.102 -53.8576)" fill="#80BDE0"/>
<mask id="mask3" mask-type="alpha" maskUnits="userSpaceOnUse" x="535" y="-54" width="410" height="747">
<rect x="719.102" y="-53.8576" width="233" height="710" transform="rotate(15 719.102 -53.8576)" fill="#80BDE0"/>
</mask>
<g mask="url(#mask3)">
<path d="M245.514 138.839L241.477 146.292L233.092 141.841L236.974 134.439L245.514 138.839ZM233.609 143.497L229.676 151.002L221.291 146.654L225.121 139.149L233.609 143.497ZM269.84 185.835H220.463C213.838 185.835 208.559 184.679 204.625 182.367C199.691 179.469 197.224 174.931 197.224 168.755C197.224 165.546 197.948 162.268 199.397 158.921C199.915 157.713 201.157 155.419 203.124 152.037L204.677 153.021C203.918 154.608 203.176 156.195 202.451 157.782C201.451 160.232 200.95 162.423 200.95 164.355C200.95 168.427 203.09 171.584 207.368 173.827C211.198 175.828 216.046 176.829 221.912 176.829H265.751V175.432C265.751 171.567 265.285 168.427 264.354 166.012C263.422 163.562 261.835 161.474 259.592 159.749L263.577 151.312C265.095 153.21 266.01 154.401 266.32 154.884C268.667 158.748 269.84 164.373 269.84 171.757V185.835ZM326.049 185.835H266.269V176.829H308.451C304.932 174.103 301.964 171.981 299.549 170.463C296.547 168.565 293.804 167.185 291.319 166.322C288.524 165.356 285.695 164.873 282.831 164.873C281.071 164.873 279.294 164.994 277.5 165.235C278.501 162.682 279.812 160.629 281.434 159.076C283.78 156.833 286.747 155.712 290.336 155.712C293.855 155.712 298.013 157.437 302.81 160.888C305.19 162.613 309.072 165.891 314.455 170.722C318.63 174.483 321.46 176.519 322.943 176.829H326.049V185.835ZM299.704 197.066L295.822 204.52L287.386 200.172L291.423 192.615L299.704 197.066ZM377.91 185.835C377.91 189.631 376.288 193.564 373.045 197.636C370.215 201.224 366.696 204.312 362.486 206.9C358.484 209.385 355.188 210.627 352.601 210.627C350.22 210.627 347.649 210.282 344.889 209.592C342.784 209.074 340.265 208.263 337.332 207.159C334.848 206.228 332.381 205.296 329.931 204.364L330.811 202.294C333.088 202.743 335.451 203.191 337.901 203.64C340.386 204.123 342.629 204.364 344.63 204.364C349.047 204.364 353.653 202.95 358.449 200.12C362.797 197.532 366.506 194.271 369.577 190.338C372.648 186.37 374.184 182.799 374.184 179.624C374.184 176.898 373.39 174.034 371.803 171.032C370.526 168.617 368.732 166.132 366.42 163.579L369.37 155.453C372.2 158.076 374.287 160.698 375.633 163.32C377.151 166.288 377.91 169.6 377.91 173.258V185.835ZM403.841 185.835H374.339V176.829H400.062C400.062 172.757 399.579 169.652 398.613 167.513C397.958 166.029 396.336 163.89 393.748 161.095L397.785 152.658C400.27 155.798 401.822 158.248 402.443 160.008C403.375 162.665 403.841 167.064 403.841 173.206V185.835ZM398.562 198.412L394.524 205.917L386.14 201.569L389.97 194.013L398.562 198.412ZM428.063 137.493L424.026 144.946L415.642 140.495L419.523 133.094L428.063 137.493ZM416.159 142.151L412.226 149.656L403.841 145.309L407.671 137.804L416.159 142.151ZM432.618 170.566C432.618 175.432 431.825 179.089 430.237 181.539C427.787 185.335 423.302 187.232 416.78 187.232C414.261 187.232 412.174 186.732 410.518 185.731C408.62 184.593 407.671 182.971 407.671 180.866C407.671 178.451 408.275 175.656 409.482 172.481C410.587 169.79 411.708 167.081 412.847 164.355L412.07 164.148L415.228 155.401C421.473 158.679 425.2 160.75 426.407 161.612C430.548 164.511 432.618 167.495 432.618 170.566ZM428.115 174.604C428.115 173.292 426.217 171.55 422.422 169.376C420.8 168.444 419.058 167.53 417.194 166.633C415.642 168.324 414.71 169.376 414.399 169.79C413.433 171.136 412.95 172.412 412.95 173.62C412.95 175.38 413.433 176.76 414.399 177.761C415.4 178.727 416.729 179.21 418.385 179.21C420.317 179.21 422.422 178.675 424.699 177.605C426.977 176.501 428.115 175.501 428.115 174.604ZM505.493 158.766C505.493 159.456 505.459 160.042 505.39 160.525C505.321 161.008 505.148 161.612 504.872 162.337C502.94 158.024 500.076 153.573 496.28 148.983C492.071 143.911 488.758 141.375 486.343 141.375C485.825 141.375 485.308 141.824 484.79 142.721C484.272 143.618 483.669 144.066 482.979 144.066C482.047 144.066 480.58 143.463 478.579 142.255C476.06 140.737 474.042 138.977 472.523 136.976C470.488 134.284 469.47 131.42 469.47 128.384C469.47 126.21 470.177 125.123 471.592 125.123C474.076 125.123 477.958 126.693 483.237 129.833C489.138 133.318 494.089 137.39 498.092 142.048C503.026 147.741 505.493 153.314 505.493 158.766ZM526.921 185.835H523.764C520.865 185.835 518.536 184.265 516.776 181.125C514.672 177.329 513.619 171.584 513.619 163.89C513.619 163.338 513.55 162.596 513.412 161.664C513.309 160.732 513.257 160.146 513.257 159.904C509.944 169.117 506.994 175.432 504.406 178.848C501.335 182.85 497.005 185.507 491.415 186.818C486.653 187.923 478.545 188.475 467.089 188.475V187.025C476.371 184.23 483.289 181.815 487.844 179.779C495.193 176.536 500.766 172.792 504.562 168.548C509.151 163.441 511.445 157.385 511.445 150.381C511.445 146.999 511.221 143.842 510.772 140.909C510.358 137.976 509.772 134.974 509.013 131.903L510.721 127.556C511.411 125.865 512.049 124.433 512.636 123.26C513.533 128.229 514.378 133.594 515.172 139.356C515.724 143.325 516.259 147.586 516.776 152.141C517.432 157.73 518.001 162.233 518.484 165.649C519.105 169.997 520.037 173.103 521.279 174.966C522.107 176.208 522.936 176.829 523.764 176.829H526.921V185.835ZM568.689 185.835H563.307C560.995 185.835 558.39 185.317 555.491 184.282C552.144 183.075 549.194 181.418 546.641 179.313C544.639 181.763 542.586 183.471 540.481 184.438C538.411 185.369 535.375 185.835 531.372 185.835H523.298V176.829H531.217C534.357 176.829 537.152 176.035 539.602 174.448C541.499 173.206 543.225 171.464 544.777 169.221C546.882 166.184 549.47 163.545 552.541 161.302C555.301 159.3 557.838 158.024 560.149 157.472C562.53 161.095 564.428 164.355 565.843 167.254C567.741 171.188 568.689 174.379 568.689 176.829V185.835ZM562.737 175.639C562.289 173.637 561.599 171.671 560.667 169.738C559.873 168.117 558.821 166.443 557.51 164.718C555.854 165.132 554.456 165.908 553.317 167.047C552.558 167.771 551.661 168.996 550.626 170.722C551.868 172.067 553.611 173.275 555.854 174.345C558.131 175.414 560.27 176.07 562.271 176.312L562.737 175.639ZM625.002 185.835H621.017C618.808 185.835 616.91 185.542 615.323 184.955C613.736 184.334 612.287 183.471 610.976 182.367C609.354 183.644 607.939 184.489 606.731 184.903C604.972 185.524 602.556 185.835 599.485 185.835H596.121C594.327 185.835 592.533 185.49 590.738 184.8C589.565 184.351 588.116 183.609 586.391 182.574C584.734 183.816 583.216 184.679 581.836 185.162C580.456 185.611 578.213 185.835 575.107 185.835H565.118V176.829H575.107C577.902 176.829 579.904 176.588 581.111 176.104C583.113 175.311 584.113 173.724 584.113 171.343C584.113 170.342 584.062 169.341 583.958 168.341C583.854 167.34 583.665 166.219 583.389 164.977L585.511 161.871C586.477 165.046 587.271 167.357 587.892 168.807C588.996 171.326 590.203 173.223 591.515 174.5C593.102 176.053 595 176.829 597.208 176.829H600.676C603.264 176.829 605.179 176.432 606.421 175.639C607.801 174.742 608.491 173.31 608.491 171.343C608.491 170.273 608.422 169.238 608.284 168.237C608.146 167.237 607.956 166.15 607.715 164.977L609.889 161.871L610.976 166.736C611.907 170.566 613.046 173.223 614.392 174.707C615.565 176.018 617.152 176.674 619.153 176.674C620.085 176.674 620.827 176.398 621.379 175.846C621.965 175.259 622.259 174.517 622.259 173.62C622.259 171.688 621.551 169.652 620.137 167.513C619.895 167.168 619.05 166.046 617.601 164.148L620.965 158.507C622.38 160.646 623.346 162.492 623.863 164.045C624.622 166.391 625.002 169.514 625.002 173.413V185.835ZM650.674 134.698L646.637 142.151L638.252 137.7L642.134 130.299L650.674 134.698ZM638.77 139.356L634.836 146.861L626.451 142.514L630.281 135.009L638.77 139.356ZM650.933 185.835H621.431V176.829H647.154C647.154 172.757 646.671 169.652 645.705 167.513C645.049 166.029 643.428 163.89 640.84 161.095L644.877 152.658C647.361 155.798 648.914 158.248 649.535 160.008C650.467 162.665 650.933 167.064 650.933 173.206V185.835ZM682.298 137.648L678.364 145.153L669.979 140.806L673.81 133.249L682.298 137.648ZM707.09 185.835H647.31V176.829H689.492C685.973 174.103 683.005 171.981 680.59 170.463C677.588 168.565 674.845 167.185 672.36 166.322C669.565 165.356 666.736 164.873 663.872 164.873C662.112 164.873 660.335 164.994 658.541 165.235C659.542 162.682 660.853 160.629 662.475 159.076C664.821 156.833 667.788 155.712 671.377 155.712C674.896 155.712 679.054 157.437 683.851 160.888C686.231 162.613 690.113 165.891 695.496 170.722C699.671 174.483 702.501 176.519 703.984 176.829H707.09V185.835ZM742.906 185.835H719.719C717.752 185.835 715.975 185.266 714.388 184.127C712.835 182.988 712.059 181.643 712.059 180.09C712.059 178.779 712.128 177.588 712.266 176.519C712.404 175.449 712.662 174.276 713.042 172.999H714.232C714.612 174.414 715.302 175.432 716.303 176.053C717.131 176.57 718.27 176.829 719.719 176.829H739.749C739.749 170.653 738.886 165.684 737.161 161.923C735.022 157.23 731.451 154.107 726.447 152.555L727.224 142.514C733.193 145.447 737.42 150.122 739.904 156.54C741.906 161.716 742.906 168.479 742.906 176.829V185.835ZM784.727 185.835H779.344C777.032 185.835 774.427 185.317 771.528 184.282C768.181 183.075 765.231 181.418 762.678 179.313C760.676 181.763 758.623 183.471 756.519 184.438C754.448 185.369 751.412 185.835 747.409 185.835H739.335V176.829H747.254C750.394 176.829 753.189 176.035 755.639 174.448C757.536 173.206 759.262 171.464 760.814 169.221C762.919 166.184 765.507 163.545 768.578 161.302C771.339 159.3 773.875 158.024 776.187 157.472C778.567 161.095 780.465 164.355 781.88 167.254C783.778 171.188 784.727 174.379 784.727 176.829V185.835ZM778.774 175.639C778.326 173.637 777.636 171.671 776.704 169.738C775.91 168.117 774.858 166.443 773.547 164.718C771.891 165.132 770.493 165.908 769.354 167.047C768.595 167.771 767.698 168.996 766.663 170.722C767.905 172.067 769.648 173.275 771.891 174.345C774.168 175.414 776.307 176.07 778.309 176.312L778.774 175.639ZM275.016 276.137L271.134 283.538L263.06 279.087L266.786 271.893L275.016 276.137ZM294.27 315.835C294.27 323.53 292.009 329.188 287.489 332.812C282.624 336.711 274.774 338.66 263.939 338.66C257.038 338.66 251.759 337.452 248.102 335.037C244.099 332.38 242.098 328.309 242.098 322.822C242.098 319.855 242.46 316.853 243.185 313.816C243.909 310.78 244.893 307.726 246.135 304.655C246.894 302.792 248.205 299.928 250.068 296.063L252.139 296.995C249.723 301.964 248.119 305.88 247.325 308.744C246.566 311.608 246.187 314.23 246.187 316.611C246.187 320.89 247.705 324.151 250.741 326.394C253.812 328.602 258.177 329.706 263.836 329.706C270.357 329.706 276.137 328.55 281.175 326.238C287.42 323.374 290.543 319.372 290.543 314.23C290.543 310.711 290.025 307.433 288.99 304.396C288.093 301.705 286.816 299.359 285.16 297.357L289.456 286.747C291.285 289.542 292.544 292.389 293.234 295.287C293.924 298.186 294.27 302.033 294.27 306.829V315.835ZM341.887 267.648L337.901 275.153L329.517 270.806L333.347 263.249L341.887 267.648ZM355.965 315.835H290.698V306.829L298.617 306.777C300.964 306.777 303.155 306.467 305.19 305.846C307.537 305.121 310.194 303.844 313.161 302.016C313.782 300.497 314.283 298.876 314.662 297.15C315.042 295.391 315.231 293.7 315.231 292.078C315.231 288.386 314.886 284.314 314.196 279.863C313.679 276.62 312.902 272.807 311.867 268.425C311.315 266.147 310.59 263.37 309.693 260.092L306.484 258.487C306.726 256.417 307.071 254.416 307.52 252.483C308.003 250.551 308.658 248.688 309.486 246.894C310.038 248.515 311.298 249.775 313.265 250.672C314.886 251.396 316.957 251.88 319.476 252.121C319.131 255.675 318.872 257.935 318.699 258.901C318.527 259.868 318.199 261.058 317.716 262.473C317.474 262.438 316.836 262.266 315.801 261.955L315.128 261.748C316.336 265.785 317.319 269.943 318.078 274.222C318.872 278.466 319.269 282.037 319.269 284.936C319.269 287.385 319.027 290.111 318.544 293.113C318.371 294.183 318.061 295.839 317.612 298.082C323.651 294.597 327.515 292.458 329.206 291.664C334.313 289.249 338.695 288.041 342.353 288.041C347.011 288.041 350.496 289.404 352.808 292.13C354.912 294.614 355.965 298.151 355.965 302.74V315.835ZM347.787 302.844C347.787 301.084 346.873 299.756 345.044 298.858C343.25 297.927 340.662 297.461 337.28 297.461C334.761 297.461 331.863 298.013 328.585 299.117C325.894 300.014 323.03 301.257 319.993 302.844C317.75 304.017 315.438 305.345 313.058 306.829H335.572C343.715 306.829 347.787 305.501 347.787 302.844ZM380.343 315.835H373.097C370.75 315.835 368.87 314.886 367.455 312.988C366.213 311.332 365.264 308.865 364.608 305.587C363.987 302.309 363.504 298.272 363.159 293.476C362.952 289.576 362.728 285.574 362.486 281.468C362.279 277.362 361.986 274.256 361.606 272.151C361.261 270.012 360.778 268.27 360.157 266.924C359.398 265.268 358.346 263.818 357 262.576L363.366 252.535C364.712 256.676 365.661 261.627 366.213 267.39C366.558 270.978 366.903 279.466 367.248 292.854C367.869 298.996 368.766 302.93 369.939 304.655C370.906 306.104 371.958 306.829 373.097 306.829H380.343V315.835ZM422.111 315.835H416.729C414.417 315.835 411.812 315.317 408.913 314.282C405.566 313.075 402.616 311.418 400.062 309.313C398.061 311.763 396.008 313.471 393.903 314.438C391.833 315.369 388.797 315.835 384.794 315.835H376.72V306.829H384.639C387.779 306.829 390.574 306.035 393.023 304.448C394.921 303.206 396.646 301.464 398.199 299.221C400.304 296.184 402.892 293.545 405.963 291.302C408.723 289.3 411.259 288.024 413.571 287.472C415.952 291.095 417.85 294.355 419.265 297.254C421.162 301.188 422.111 304.379 422.111 306.829V315.835ZM416.159 305.639C415.711 303.637 415.021 301.671 414.089 299.738C413.295 298.117 412.243 296.443 410.932 294.718C409.275 295.132 407.878 295.908 406.739 297.047C405.98 297.771 405.083 298.996 404.048 300.722C405.29 302.067 407.033 303.275 409.275 304.345C411.553 305.414 413.692 306.07 415.693 306.312L416.159 305.639ZM493.899 288.766C493.899 289.456 493.865 290.042 493.796 290.525C493.727 291.008 493.554 291.612 493.278 292.337C491.346 288.024 488.482 283.573 484.687 278.983C480.477 273.911 477.164 271.375 474.749 271.375C474.231 271.375 473.714 271.824 473.196 272.721C472.679 273.618 472.075 274.066 471.385 274.066C470.453 274.066 468.987 273.463 466.985 272.255C464.466 270.737 462.448 268.977 460.93 266.976C458.894 264.284 457.876 261.42 457.876 258.384C457.876 256.21 458.583 255.123 459.998 255.123C462.482 255.123 466.364 256.693 471.644 259.833C477.544 263.318 482.495 267.39 486.498 272.048C491.432 277.741 493.899 283.314 493.899 288.766ZM515.327 315.835H512.17C509.271 315.835 506.942 314.265 505.183 311.125C503.078 307.329 502.025 301.584 502.025 293.89C502.025 293.338 501.956 292.596 501.818 291.664C501.715 290.732 501.663 290.146 501.663 289.904C498.351 299.117 495.4 305.432 492.812 308.848C489.742 312.85 485.411 315.507 479.821 316.818C475.06 317.923 466.951 318.475 455.495 318.475V317.025C464.777 314.23 471.695 311.815 476.25 309.779C483.6 306.536 489.172 302.792 492.968 298.548C497.557 293.441 499.852 287.385 499.852 280.381C499.852 276.999 499.627 273.842 499.179 270.909C498.765 267.976 498.178 264.974 497.419 261.903L499.127 257.556C499.817 255.865 500.455 254.433 501.042 253.26C501.939 258.229 502.785 263.594 503.578 269.356C504.13 273.325 504.665 277.586 505.183 282.141C505.838 287.73 506.408 292.233 506.891 295.649C507.512 299.997 508.443 303.103 509.686 304.966C510.514 306.208 511.342 306.829 512.17 306.829H515.327V315.835ZM540.947 264.698L536.91 272.151L528.525 267.7L532.407 260.299L540.947 264.698ZM529.043 269.356L525.109 276.861L516.725 272.514L520.555 265.009L529.043 269.356ZM541.206 315.835H511.704V306.829H537.428C537.428 302.757 536.945 299.652 535.979 297.513C535.323 296.029 533.701 293.89 531.113 291.095L535.15 282.658C537.635 285.798 539.188 288.248 539.809 290.008C540.74 292.665 541.206 297.064 541.206 303.206V315.835ZM630.902 315.835H568.689C566.826 315.835 565.049 315.524 563.358 314.903C562.082 314.42 560.581 313.644 558.855 312.574C557.406 313.816 555.957 314.679 554.508 315.162C553.059 315.611 550.747 315.835 547.572 315.835H537.583V306.829H547.572C550.367 306.829 552.368 306.588 553.576 306.104C555.577 305.311 556.578 303.724 556.578 301.343C556.578 300.342 556.509 299.341 556.371 298.341C556.268 297.306 556.095 296.184 555.854 294.977L557.976 291.871C559.183 296.564 560.84 300.187 562.944 302.74C565.187 305.466 567.827 306.829 570.863 306.829C573.762 306.829 577.16 306.174 581.06 304.862C585.269 303.448 588.892 301.653 591.929 299.479C596.863 295.96 599.882 293.855 600.986 293.165C603.781 291.371 606.317 290.094 608.595 289.335C611.148 288.472 613.943 288.041 616.979 288.041C621.672 288.041 625.209 289.404 627.59 292.13C629.798 294.649 630.902 298.186 630.902 302.74V315.835ZM622.466 302.844C622.466 301.153 621.413 299.842 619.309 298.91C617.204 297.944 614.754 297.461 611.959 297.461C608.508 297.461 604.333 298.617 599.434 300.929C595.535 302.896 591.653 304.862 587.788 306.829H611.648C615.41 306.829 618.153 306.501 619.878 305.846C621.603 305.19 622.466 304.189 622.466 302.844ZM672.723 315.835H667.34C665.028 315.835 662.423 315.317 659.524 314.282C656.177 313.075 653.227 311.418 650.674 309.313C648.673 311.763 646.619 313.471 644.515 314.438C642.444 315.369 639.408 315.835 635.405 315.835H627.331V306.829H635.25C638.39 306.829 641.185 306.035 643.635 304.448C645.533 303.206 647.258 301.464 648.811 299.221C650.915 296.184 653.503 293.545 656.574 291.302C659.335 289.3 661.871 288.024 664.183 287.472C666.563 291.095 668.461 294.355 669.876 297.254C671.774 301.188 672.723 304.379 672.723 306.829V315.835ZM666.771 305.639C666.322 303.637 665.632 301.671 664.7 299.738C663.907 298.117 662.854 296.443 661.543 294.718C659.887 295.132 658.489 295.908 657.351 297.047C656.591 297.771 655.694 298.996 654.659 300.722C655.901 302.067 657.644 303.275 659.887 304.345C662.164 305.414 664.303 306.07 666.305 306.312L666.771 305.639ZM698.653 315.835H669.151V306.829H694.875C694.875 302.757 694.392 299.652 693.426 297.513C692.77 296.029 691.148 293.89 688.561 291.095L692.598 282.658C695.082 285.798 696.635 288.248 697.256 290.008C698.188 292.665 698.653 297.064 698.653 303.206V315.835ZM698.395 326.187L694.357 333.64L685.973 329.188L689.854 321.787L698.395 326.187ZM686.49 330.845L682.557 338.35L674.172 334.002L678.002 326.497L686.49 330.845ZM740.422 315.835H735.039C732.727 315.835 730.122 315.317 727.224 314.282C723.877 313.075 720.926 311.418 718.373 309.313C716.372 311.763 714.319 313.471 712.214 314.438C710.144 315.369 707.107 315.835 703.104 315.835H695.03V306.829H702.949C706.089 306.829 708.884 306.035 711.334 304.448C713.232 303.206 714.957 301.464 716.51 299.221C718.615 296.184 721.202 293.545 724.273 291.302C727.034 289.3 729.57 288.024 731.882 287.472C734.263 291.095 736.16 294.355 737.575 297.254C739.473 301.188 740.422 304.379 740.422 306.829V315.835ZM734.47 305.639C734.021 303.637 733.331 301.671 732.399 299.738C731.606 298.117 730.553 296.443 729.242 294.718C727.586 295.132 726.188 295.908 725.05 297.047C724.291 297.771 723.394 298.996 722.358 300.722C723.601 302.067 725.343 303.275 727.586 304.345C729.863 305.414 732.003 306.07 734.004 306.312L734.47 305.639Z" fill="#1D2529"/>
</g>
</g>
<defs>
<clipPath id="clip0">
<rect width="814" height="458" fill="white"/>
</clipPath>
</defs>
</svg>
