<svg width="1211" height="684" viewBox="0 0 1211 684" fill="none" xmlns="http://www.w3.org/2000/svg">
<path d="M155.824 -42.3265C162.659 -40.7377 165.147 -42.0102 165.147 -47.0789C165.147 -50.8857 167.469 -54 170.309 -54C173.143 -54 174.075 -51.6063 172.376 -48.6817C170.671 -45.7572 172.163 -41.0752 175.679 -38.2807C180.996 -34.0521 180.037 -33.451 170.005 -34.727C163.367 -35.5706 155.366 -38.112 152.217 -40.3757C147.977 -43.4267 148.909 -43.9294 155.824 -42.3265Z" fill="#ECBE23"/>
<path d="M1076.12 -42.8608C1076.12 -44.3477 1073.75 -47.1281 1070.85 -49.0368C1067.39 -51.3251 1068.75 -52.6678 1074.85 -52.9701C1081.69 -53.3111 1084.11 -50.7486 1084.11 -43.1701C1084.11 -37.5285 1081.41 -32.9097 1078.1 -32.9097C1074.8 -32.9097 1068.8 -35.5777 1064.78 -38.8396C1058.38 -44.0348 1058.63 -44.4848 1066.79 -42.4671C1071.92 -41.1982 1076.12 -41.3775 1076.12 -42.8608Z" fill="#ECBE23"/>
<path d="M1158.69 -46.9699C1154.3 -46.9699 1150.7 -48.5517 1150.7 -50.485C1150.7 -52.4182 1154.3 -54 1158.69 -54C1163.09 -54 1166.68 -52.4182 1166.68 -50.485C1166.68 -48.5517 1163.09 -46.9699 1158.69 -46.9699Z" fill="#ECBE23"/>
<path d="M1186.22 -51.6555C1184.26 -50.369 1181.07 -50.369 1179.11 -51.6555C1177.16 -52.9455 1178.76 -54 1182.66 -54C1186.57 -54 1188.17 -52.9455 1186.22 -51.6555Z" fill="#ECBE23"/>
<path d="M200.664 -44.6254C198.709 -43.3389 197.111 -44.3934 197.111 -46.9699C197.111 -49.5464 198.709 -50.601 200.664 -49.3144C202.614 -48.0244 202.614 -45.9154 200.664 -44.6254Z" fill="#ECBE23"/>
<path d="M701.432 -48.1404C699.476 -46.8539 696.28 -46.8539 694.325 -48.1404C692.375 -49.4304 693.973 -50.485 697.878 -50.485C701.783 -50.485 703.381 -49.4304 701.432 -48.1404Z" fill="#ECBE23"/>
<path d="M1106.39 -39.279C1104.69 -36.4775 1103.43 -37.3106 1103.18 -41.4056C1102.95 -45.1105 1104.2 -47.1843 1105.97 -46.0173C1107.74 -44.8503 1107.93 -41.8169 1106.39 -39.279Z" fill="#ECBE23"/>
<path d="M359.908 -29.3947C358.614 -29.3947 356.078 -30.9765 354.266 -32.9097C352.455 -34.843 353.515 -36.4248 356.616 -36.4248C359.716 -36.4248 362.257 -34.843 362.257 -32.9097C362.257 -30.9765 361.203 -29.3947 359.908 -29.3947Z" fill="#ECBE23"/>
<path d="M1022.84 -27.6372C1025.77 -26.4421 1028.17 -27.1415 1028.17 -29.1873C1028.17 -31.2331 1029.37 -32.9097 1030.84 -32.9097C1032.3 -32.9097 1033.5 -29.7954 1033.5 -25.9886C1033.5 -21.282 1030.94 -19.7178 1025.51 -21.0922C1021.11 -22.2064 1017.52 -24.6213 1017.52 -26.4631C1017.52 -28.305 1019.91 -28.8323 1022.84 -27.6372Z" fill="#ECBE23"/>
<path d="M168.7 -27.0502C166.745 -25.7636 163.549 -25.7636 161.593 -27.0502C159.644 -28.3402 161.242 -29.3947 165.147 -29.3947C169.052 -29.3947 170.65 -28.3402 168.7 -27.0502Z" fill="#ECBE23"/>
<path d="M356.93 -17.2397C356.93 -18.2871 359.929 -21.2925 363.589 -23.9147C367.254 -26.5405 370.904 -28.2804 371.708 -27.7848C372.507 -27.2892 371.65 -24.2873 369.806 -21.1097C367.958 -17.9321 364.303 -15.3345 361.687 -15.3345C359.072 -15.3345 356.93 -16.1922 356.93 -17.2397Z" fill="#ECBE23"/>
<path d="M1080 -27.2716C1078.23 -26.1046 1073.64 -25.9781 1069.79 -26.9939C1065.54 -28.1152 1066.81 -28.9483 1073.01 -29.117C1078.63 -29.2681 1081.77 -28.4386 1080 -27.2716Z" fill="#ECBE23"/>
<path d="M234.972 -8.10406C228.798 -10.2834 223.747 -14.3854 223.747 -17.2151C223.747 -20.0482 225.612 -22.3646 227.887 -22.3646C230.167 -22.3646 237.561 -19.8092 244.321 -16.6843C252.318 -12.99 254.795 -9.80886 251.407 -7.57329C248.019 -5.33772 242.281 -5.52051 234.972 -8.10406Z" fill="#ECBE23"/>
<path d="M1192.98 -0.314724C1187.37 -1.28136 1184.1 -3.47475 1185.7 -5.19009C1187.31 -6.90192 1190.62 -8.30442 1193.06 -8.30442C1195.51 -8.30442 1198.78 -6.11103 1200.34 -3.42905C1202.33 -0.0159454 1200.12 0.919056 1192.98 -0.314724Z" fill="#ECBE23"/>
<path d="M937.608 12.7858C934.677 12.7858 932.28 11.2041 932.28 9.2708C932.28 7.33752 934.677 5.75576 937.608 5.75576C940.538 5.75576 942.935 7.33752 942.935 9.2708C942.935 11.2041 940.538 12.7858 937.608 12.7858Z" fill="#ECBE23"/>
<path d="M1074.34 29.1906C1072.39 30.4771 1070.79 29.4226 1070.79 26.846C1070.79 24.2695 1072.39 23.215 1074.34 24.5015C1076.29 25.7915 1076.29 27.9005 1074.34 29.1906Z" fill="#ECBE23"/>
<path d="M295.421 36.646C293.503 35.3806 293.514 32.6564 295.448 30.5966C297.376 28.5332 301.02 26.846 303.534 26.846C306.054 26.846 311.904 27.8056 316.538 28.9797C321.173 30.1537 324.966 32.7197 324.966 34.6811C324.966 36.6635 321.226 36.2066 316.57 33.6547C309.618 29.8479 307.375 29.9076 303.54 33.9991C300.993 36.7198 297.339 37.9114 295.421 36.646Z" fill="#ECBE23"/>
<path d="M621.522 32.7056C619.567 33.9921 616.37 33.9921 614.415 32.7056C612.465 31.4156 614.064 30.3611 617.969 30.3611C621.873 30.3611 623.472 31.4156 621.522 32.7056Z" fill="#ECBE23"/>
<path d="M1012.19 79.5717C1009.26 79.5717 1006.86 77.1041 1006.86 74.0917C1006.86 71.0793 1009.26 69.589 1012.19 70.7841C1015.12 71.9792 1017.52 74.4432 1017.52 76.264C1017.52 78.0848 1015.12 79.5717 1012.19 79.5717Z" fill="#ECBE23"/>
<path d="M543.392 113.98C543.386 110.673 548.543 104.796 554.845 100.922C561.153 97.045 568.686 94.8446 571.589 96.0291C574.492 97.2137 569.938 100.648 561.462 103.66L546.05 109.137L562.032 111.513C572.34 113.045 574.231 114.058 567.359 114.36C559.006 114.729 558.319 115.506 564.179 117.952C569.527 120.188 567.636 120.923 557.525 120.536C548.064 120.174 543.392 118.009 543.392 113.98Z" fill="#ECBE23"/>
<path d="M914.524 110.037C912.569 111.323 909.373 111.323 907.418 110.037C905.468 108.747 907.066 107.692 910.971 107.692C914.876 107.692 916.474 108.747 914.524 110.037Z" fill="#ECBE23"/>
<path d="M903.87 120.582C901.914 121.868 900.316 120.814 900.316 118.237C900.316 115.661 901.914 114.606 903.87 115.893C905.819 117.183 905.819 119.292 903.87 120.582Z" fill="#ECBE23"/>
<path d="M873.365 128.782C870.265 128.782 869.205 127.201 871.016 125.267C872.827 123.334 875.363 121.752 876.658 121.752C877.952 121.752 879.007 123.334 879.007 125.267C879.007 127.201 876.466 128.782 873.365 128.782Z" fill="#ECBE23"/>
<path d="M918.019 147.419C912.676 146.087 904.946 142.8 900.833 140.118C894.445 135.949 895.602 135.412 908.781 136.406C918.312 137.127 924.87 139.911 925.962 143.707C927.299 148.365 925.381 149.261 918.019 147.419Z" fill="#ECBE23"/>
<path d="M35.5173 152.217C33.5621 153.504 31.9639 152.449 31.9639 149.873C31.9639 147.296 33.5621 146.242 35.5173 147.528C37.467 148.818 37.467 150.927 35.5173 152.217Z" fill="#ECBE23"/>
<path d="M653.225 153.388C651.76 153.388 649.08 151.806 647.269 149.873C645.458 147.939 645.175 146.358 646.64 146.358C648.105 146.358 650.785 147.939 652.596 149.873C654.407 151.806 654.69 153.388 653.225 153.388Z" fill="#ECBE23"/>
<path d="M56.2512 156.903C54.9566 156.903 52.4208 155.321 50.6095 153.388C48.7982 151.454 49.8583 149.873 52.9588 149.873C56.0593 149.873 58.6005 151.454 58.6005 153.388C58.6005 155.321 57.5457 156.903 56.2512 156.903Z" fill="#ECBE23"/>
<path d="M98.5553 157.43C95.7745 157.43 92.6367 155.729 91.5872 153.651C90.5377 151.574 93.6702 149.873 98.5553 149.873C103.44 149.873 106.573 151.574 105.523 153.651C104.474 155.729 101.336 157.43 98.5553 157.43Z" fill="#ECBE23"/>
<path d="M24.8626 155.732C22.9075 157.019 19.711 157.019 17.7559 155.732C15.8061 154.442 17.4043 153.388 21.3093 153.388C25.2142 153.388 26.8124 154.442 24.8626 155.732Z" fill="#ECBE23"/>
<path d="M740.497 169.494C740.497 166.752 741.951 162.007 743.73 158.948C745.51 155.89 748.813 153.388 751.071 153.388C753.325 153.388 758.375 155.933 762.286 159.04C768.327 163.845 767.869 165.43 759.254 169.585C753.677 172.277 747.177 174.478 744.807 174.478C742.436 174.478 740.497 172.235 740.497 169.494Z" fill="#ECBE23"/>
<path d="M847.357 163.933C844.257 163.933 841.716 162.351 841.716 160.418C841.716 158.484 842.771 156.903 844.065 156.903C845.36 156.903 847.896 158.484 849.707 160.418C851.518 162.351 850.458 163.933 847.357 163.933Z" fill="#ECBE23"/>
<path d="M31.9639 178.58C31.9639 175.033 33.5621 171.079 35.5173 169.792C37.467 168.502 39.8643 167.448 40.8446 167.448C41.8195 167.448 42.6185 171.402 42.6185 176.235C42.6185 181.069 40.2212 185.023 37.2912 185.023C34.3612 185.023 31.9639 182.123 31.9639 178.58Z" fill="#ECBE23"/>
<path d="M756.346 186.724C753.746 185.666 753.043 182.345 754.79 179.343C757.267 175.082 758.887 174.879 762.195 178.408C764.523 180.896 765.226 184.218 763.75 185.793C762.275 187.364 758.945 187.786 756.346 186.724Z" fill="#ECBE23"/>
<path d="M776.014 180.337C774.059 181.624 772.461 180.569 772.461 177.993C772.461 175.416 774.059 174.362 776.014 175.648C777.964 176.938 777.964 179.047 776.014 180.337Z" fill="#ECBE23"/>
<path d="M1032.06 187.146C1030.29 188.313 1025.69 188.44 1021.85 187.424C1017.6 186.302 1018.86 185.469 1025.07 185.301C1030.68 185.15 1033.82 185.979 1032.06 187.146Z" fill="#ECBE23"/>
<path d="M1047.13 192.053C1045.84 192.053 1043.3 190.471 1041.49 188.538C1039.68 186.605 1040.74 185.023 1043.84 185.023C1046.94 185.023 1049.48 186.605 1049.48 188.538C1049.48 190.471 1048.43 192.053 1047.13 192.053Z" fill="#ECBE23"/>
<path d="M1010.42 197.913C1008.46 199.199 1006.86 198.145 1006.86 195.568C1006.86 192.992 1008.46 191.937 1010.42 193.224C1012.37 194.514 1012.37 196.623 1010.42 197.913Z" fill="#ECBE23"/>
<path d="M1015.16 209.628C1014.08 209.628 1014.44 206.465 1015.97 202.598C1017.51 198.732 1020.96 195.568 1023.65 195.568C1026.36 195.568 1025.99 198.714 1022.84 202.598C1019.71 206.465 1016.25 209.628 1015.16 209.628Z" fill="#ECBE23"/>
<path d="M77.8747 227.204C73.4796 227.204 68.4027 225.622 66.5914 223.689C64.7802 221.755 66.8951 220.173 71.2902 220.173C75.6852 220.173 80.7621 221.755 82.5734 223.689C84.3847 225.622 82.2697 227.204 77.8747 227.204Z" fill="#ECBE23"/>
<path d="M616.525 238.603C618.784 239.098 626.023 235.945 632.619 231.597C639.214 227.249 645.388 223.689 646.347 223.689C647.306 223.689 647.029 228.434 645.74 234.234C644.429 240.135 640.146 244.779 636.012 244.779C631.947 244.779 628.623 247.605 628.623 251.06C628.623 254.804 624.356 257.556 618.075 257.869C612.274 258.157 605.886 256.642 603.883 254.501C601.481 251.942 603.468 251.433 609.695 253.008C617.654 255.025 618.618 254.002 615.784 246.55C613.936 241.682 614.266 238.107 616.525 238.603Z" fill="#ECBE23"/>
<path d="M1052.14 246.051C1047.75 247.162 1044.15 246.54 1044.15 244.67C1044.15 242.796 1047.75 241.264 1052.14 241.264C1056.54 241.264 1060.14 241.886 1060.14 242.645C1060.14 243.404 1056.54 244.937 1052.14 246.051Z" fill="#ECBE23"/>
<path d="M653.571 255.985C651.872 258.786 650.609 257.953 650.353 253.858C650.124 250.153 651.382 248.079 653.15 249.246C654.919 250.413 655.111 253.447 653.571 255.985Z" fill="#ECBE23"/>
<path d="M1015.74 254.153C1013.79 255.44 1012.19 254.385 1012.19 251.809C1012.19 249.232 1013.79 248.178 1015.74 249.464C1017.69 250.754 1017.69 252.863 1015.74 254.153Z" fill="#ECBE23"/>
<path d="M1069.02 250.638C1067.06 251.925 1063.86 251.925 1061.91 250.638C1059.96 249.348 1061.56 248.294 1065.46 248.294C1069.37 248.294 1070.97 249.348 1069.02 250.638Z" fill="#ECBE23"/>
<path d="M527.09 269.384C523.989 269.384 522.929 267.802 524.741 265.869C526.552 263.936 529.088 262.354 530.382 262.354C531.677 262.354 532.732 263.936 532.732 265.869C532.732 267.802 530.19 269.384 527.09 269.384Z" fill="#ECBE23"/>
<path d="M618.134 272.899C615.3 272.899 614.357 270.526 616.04 267.627C617.729 264.727 624.244 262.537 630.525 262.762C639.528 263.085 639.97 263.51 632.619 264.776C627.488 265.662 623.296 267.852 623.296 269.641C623.296 271.433 620.973 272.899 618.134 272.899Z" fill="#ECBE23"/>
<path d="M255.711 280.632C255.711 279.086 258.492 275.985 261.891 273.743C265.29 271.5 269.978 270.442 272.311 271.395C274.644 272.347 275.204 275.448 273.552 278.284C271.906 281.121 267.213 283.444 263.132 283.444C259.051 283.444 255.711 282.179 255.711 280.632Z" fill="#ECBE23"/>
<path d="M777.788 309.807C774.858 311.002 772.461 310.303 772.461 308.257C772.461 306.211 774.858 304.535 777.788 304.535C780.718 304.535 783.115 305.231 783.115 306.085C783.115 306.939 780.718 308.612 777.788 309.807Z" fill="#ECBE23"/>
<path d="M181.757 318.595C178.827 318.595 174.949 317.013 173.138 315.08C171.326 313.146 172.243 311.565 175.173 311.565C178.103 311.565 181.981 313.146 183.792 315.08C185.604 317.013 184.687 318.595 181.757 318.595Z" fill="#ECBE23"/>
<path d="M1090 325.625C1094.09 325.625 1097.43 323.252 1097.43 320.352C1097.43 317.452 1099.67 315.08 1102.42 315.08C1105.17 315.08 1107.23 317.846 1106.99 321.231C1106.77 324.616 1107.2 328.964 1107.96 330.897C1108.72 332.831 1109.06 336.391 1108.71 338.806C1108.36 341.225 1102.69 343.2 1096.1 343.197C1087.07 343.197 1083.92 341.028 1083.34 334.409C1082.87 328.999 1085.42 325.625 1090 325.625Z" fill="#ECBE23"/>
<path d="M562.921 320.939C560.966 322.226 557.77 322.226 555.815 320.939C553.865 319.649 555.463 318.595 559.368 318.595C563.273 318.595 564.871 319.649 562.921 320.939Z" fill="#ECBE23"/>
<path d="M109.668 350.719C108.113 349.056 107.969 346.947 109.354 346.033C110.739 345.119 115.24 344.371 119.358 344.371C123.471 344.371 125.613 346.48 124.116 349.06C122.614 351.636 119.39 353.745 116.945 353.745C114.5 353.745 111.229 352.385 109.668 350.719Z" fill="#ECBE23"/>
<path d="M79.0786 358.68C76.5109 357.633 75.7864 355.302 77.4751 353.503C79.1586 351.703 82.7918 350.23 85.5514 350.23C88.3109 350.23 90.5644 351.548 90.5644 353.158C90.5644 354.772 89.0301 357.098 87.1602 358.336C85.285 359.573 81.6464 359.728 79.0786 358.68Z" fill="#ECBE23"/>
<path d="M3.36152 371.32C1.46499 371.32 2.92472 368.122 6.61655 364.209C10.3031 360.297 16.7172 357.531 20.8671 358.058C25.0224 358.585 29.3961 361.39 30.5948 364.29C32.5339 368.976 32.1291 368.976 26.9403 364.29C21.8207 359.665 20.2332 359.77 13.9629 365.169C10.0313 368.554 5.26337 371.32 3.36152 371.32Z" fill="#ECBE23"/>
<path d="M579.362 371.858C576.495 369.967 575.76 366.698 577.726 364.596C579.697 362.494 583.336 360.775 585.818 360.775C588.301 360.775 589.041 364.044 587.454 368.037C585.578 372.776 582.766 374.104 579.362 371.858Z" fill="#ECBE23"/>
<path d="M1101.28 371.507C1099.53 367.071 1101.65 364.122 1107.32 363.127C1112.14 362.28 1117.87 361.408 1120.07 361.183C1122.27 360.958 1124.06 362.357 1124.06 364.29C1124.06 366.224 1121.07 367.412 1117.4 366.927C1113.69 366.434 1111.44 368.761 1112.31 372.199C1113.17 375.584 1111.65 378.35 1108.93 378.35C1106.22 378.35 1102.78 375.271 1101.28 371.507Z" fill="#ECBE23"/>
<path d="M562.346 374.835C561.052 374.835 558.516 373.254 556.704 371.32C554.893 369.387 555.953 367.805 559.054 367.805C562.154 367.805 564.695 369.387 564.695 371.32C564.695 373.254 563.641 374.835 562.346 374.835Z" fill="#ECBE23"/>
<path d="M0 386.671C0 384.671 1.59823 381.982 3.55336 380.695C5.50316 379.405 8.34261 379.169 9.85557 380.168C11.3685 381.166 9.77029 383.855 6.30221 386.143C2.48252 388.664 0 388.871 0 386.671Z" fill="#ECBE23"/>
<path d="M21.3093 392.411C18.4698 389.511 16.1471 384.765 16.1471 381.866C16.1471 377.18 16.7171 377.18 21.3093 381.866C24.1487 384.765 26.4714 389.511 26.4714 392.411C26.4714 397.096 25.9014 397.096 21.3093 392.411Z" fill="#ECBE23"/>
<path d="M1021.85 391.606C1018.37 390.839 1014.57 388.337 1013.41 386.041C1012.25 383.743 1013.64 381.866 1016.51 381.866C1019.37 381.866 1023.16 384.372 1024.94 387.433C1026.93 390.853 1025.74 392.463 1021.85 391.606Z" fill="#ECBE23"/>
<path d="M1113.09 395.926C1109.99 395.926 1108.93 394.344 1110.75 392.411C1112.56 390.477 1115.09 388.896 1116.39 388.896C1117.68 388.896 1118.74 390.477 1118.74 392.411C1118.74 394.344 1116.2 395.926 1113.09 395.926Z" fill="#ECBE23"/>
<path d="M1104.09 409.986C1096.81 409.986 1097.08 409.17 1105.72 405.002C1111.41 402.26 1116.9 400.573 1117.93 401.251C1118.96 401.933 1118.22 404.176 1116.29 406.235C1114.36 408.299 1108.87 409.986 1104.09 409.986Z" fill="#ECBE23"/>
<path d="M721.409 433.712C719.598 432.521 719.726 429.832 721.686 427.737C723.646 425.645 727.69 424.928 730.673 426.145C734.312 427.628 734.221 429.593 730.396 432.117C727.258 434.187 723.215 434.904 721.409 433.712Z" fill="#ECBE23"/>
<path d="M1058.36 436.936C1056.41 438.222 1054.81 437.168 1054.81 434.591C1054.81 432.015 1056.41 430.96 1058.36 432.247C1060.31 433.537 1060.31 435.646 1058.36 436.936Z" fill="#ECBE23"/>
<path d="M152.718 447.481C150.763 448.767 149.165 447.713 149.165 445.136C149.165 442.56 150.763 441.505 152.718 442.792C154.668 444.082 154.668 446.191 152.718 447.481Z" fill="#ECBE23"/>
<path d="M884.02 452.166C880.92 452.166 879.859 450.585 881.671 448.651C883.482 446.718 886.018 445.136 887.312 445.136C888.607 445.136 889.662 446.718 889.662 448.651C889.662 450.585 887.121 452.166 884.02 452.166Z" fill="#ECBE23"/>
<path d="M536.285 461.541C534.33 462.828 531.133 462.828 529.178 461.541C527.228 460.251 528.827 459.197 532.732 459.197C536.636 459.197 538.235 460.251 536.285 461.541Z" fill="#ECBE23"/>
<path d="M215.367 472.49C216.609 468.079 217.807 464.072 218.026 463.59C218.244 463.109 221.739 462.712 225.788 462.712C229.842 462.712 234.343 465.699 235.792 469.352C237.241 473.004 236.559 477.981 234.285 480.41C232.01 482.839 226.315 483.854 221.627 482.67C216.182 481.289 213.924 477.619 215.367 472.49Z" fill="#ECBE23"/>
<path d="M226.869 494.836C225.313 493.173 225.569 490.8 227.444 489.563C229.32 488.329 232.846 487.317 235.292 487.317C237.731 487.317 239.729 489.69 239.729 492.589C239.729 495.489 237.476 497.862 234.716 497.862C231.957 497.862 228.43 496.502 226.869 494.836Z" fill="#ECBE23"/>
<path d="M660.401 497.662C657.961 495.057 657.226 491.577 658.77 489.925C660.315 488.276 665.355 487.412 669.963 488.002C674.577 488.593 679.345 491.05 680.565 493.465C681.784 495.883 678.743 498.881 673.809 500.129C668.706 501.423 662.926 500.361 660.401 497.662Z" fill="#ECBE23"/>
<path d="M1158.69 492.104C1163.09 493.215 1166.68 492.593 1166.68 490.723C1166.68 488.849 1169.08 487.317 1172.01 487.317C1174.94 487.317 1177.34 489.521 1177.34 492.213C1177.34 494.906 1173.52 498.076 1168.87 499.254C1164.2 500.435 1158.21 500.509 1155.55 499.423C1152.88 498.337 1150.7 495.788 1150.7 493.763C1150.7 491.739 1154.3 490.99 1158.69 492.104Z" fill="#ECBE23"/>
<path d="M300.993 527.255C296.124 528.485 293.002 527.258 293.002 524.116C293.002 521.276 296.598 518.952 300.993 518.952C305.388 518.952 308.984 520.365 308.984 522.091C308.984 523.817 305.388 526.141 300.993 527.255Z" fill="#ECBE23"/>
<path d="M157.619 539.108C159.628 541.979 165.173 539.898 174.027 532.956C181.384 527.188 188.241 522.467 189.263 522.467C190.286 522.467 190.675 526.819 190.121 532.134C189.557 537.575 185.044 542.904 179.797 544.324C174.667 545.712 170.474 549.744 170.474 553.287C170.474 556.827 173.473 561.857 177.133 564.462C182.461 568.247 182.461 568.697 177.133 566.715C173.473 565.351 170.474 565.91 170.474 567.955C170.474 570.001 167.677 571.678 164.257 571.678C160.842 571.678 159.649 570.62 161.609 569.326C163.565 568.033 161.199 564.078 156.341 560.539C151.488 556.999 150.081 554.103 153.224 554.103C156.362 554.103 159.937 555.291 161.167 556.739C162.393 558.187 162.925 557.794 162.339 555.86C161.759 553.927 159.777 548.391 157.934 543.558C156.096 538.724 155.952 536.721 157.619 539.108Z" fill="#ECBE23"/>
<path d="M1075.96 537.881C1076.04 539.593 1081.09 536.823 1087.16 531.729C1093.23 526.636 1098.99 522.467 1099.95 522.467C1100.91 522.467 1100.67 529.743 1099.41 538.637C1098.15 547.533 1093.59 557.136 1089.28 559.98C1083.18 564.005 1081.43 564.121 1081.37 560.504C1081.3 556.725 1080.46 556.707 1076.9 560.419C1073.4 564.064 1071.14 563.885 1065.67 559.54C1060.67 555.561 1060.52 554.103 1065.13 554.103C1068.58 554.103 1069.95 552.535 1068.15 550.616C1066.36 548.697 1067.34 544.348 1070.34 540.949C1073.34 537.55 1075.87 536.169 1075.96 537.881Z" fill="#ECBE23"/>
<path d="M959.258 540.257C952.822 537.568 952.748 536.162 958.789 531.357C964.484 526.826 966.87 526.59 970.349 530.211C972.762 532.717 974.771 536.749 974.819 539.164C974.861 541.582 973.103 543.533 970.903 543.505C968.703 543.473 963.466 542.014 959.258 540.257Z" fill="#ECBE23"/>
<path d="M88.0872 550.588C83.4631 550.588 79.9097 547.533 79.9097 543.558C79.9097 539.691 81.0231 536.527 82.3869 536.527C83.7454 536.527 87.4266 539.691 90.5644 543.558C95.1139 549.168 94.6131 550.588 88.0872 550.588Z" fill="#ECBE23"/>
<path d="M855.775 550.57C852.44 550.56 856.899 547.512 865.689 543.797C874.479 540.081 882.869 536.977 884.334 536.9C885.799 536.823 881.34 539.874 874.42 543.674C867.505 547.477 859.115 550.581 855.775 550.57Z" fill="#ECBE23"/>
<path d="M116.679 554.103C113.802 554.103 114.543 551.888 118.325 549.185C122.102 546.479 126.034 544.791 127.057 545.435C128.085 546.078 127.344 548.292 125.41 550.352C123.482 552.416 119.55 554.103 116.679 554.103Z" fill="#ECBE23"/>
<path d="M961.895 550.588C960.6 550.588 958.064 549.006 956.253 547.073C954.442 545.139 955.502 543.558 958.602 543.558C961.703 543.558 964.244 545.139 964.244 547.073C964.244 549.006 963.189 550.588 961.895 550.588Z" fill="#ECBE23"/>
<path d="M1111.63 556.447C1109.68 557.734 1108.08 556.679 1108.08 554.103C1108.08 551.526 1109.68 550.472 1111.63 551.758C1113.58 553.048 1113.58 555.157 1111.63 556.447Z" fill="#ECBE23"/>
<path d="M195.337 559.962C193.382 561.249 191.783 560.194 191.783 557.618C191.783 555.041 193.382 553.987 195.337 555.273C197.286 556.563 197.286 558.672 195.337 559.962Z" fill="#ECBE23"/>
<path d="M1079.67 570.507C1077.72 571.794 1074.52 571.794 1072.56 570.507C1070.61 569.217 1072.21 568.163 1076.12 568.163C1080.02 568.163 1081.62 569.217 1079.67 570.507Z" fill="#ECBE23"/>
<path d="M484.786 583.102C484.786 579.397 485.984 575.573 487.449 574.606C488.914 573.639 493.485 572.848 497.603 572.848C502.899 572.848 503.921 574.947 501.093 579.991C498.887 583.921 494.316 587.742 490.933 588.487C487.556 589.229 484.786 586.807 484.786 583.102Z" fill="#ECBE23"/>
<path d="M575.35 587.496C572.42 586.301 570.023 583.836 570.023 582.016C570.023 580.195 572.42 578.708 575.35 578.708C578.28 578.708 580.677 581.176 580.677 584.188C580.677 587.2 578.28 588.691 575.35 587.496Z" fill="#ECBE23"/>
<path d="M56.8265 612.688C54.8714 613.974 53.2732 612.92 53.2732 610.343C53.2732 607.767 54.8714 606.712 56.8265 607.999C58.7763 609.289 58.7763 611.398 56.8265 612.688Z" fill="#ECBE23"/>
<path d="M1068.57 638.464C1063.93 638.464 1060.14 635.958 1060.14 632.899C1060.14 629.838 1062.98 627.957 1066.46 628.724C1069.94 629.49 1073.74 631.993 1074.9 634.291C1076.06 636.587 1073.21 638.464 1068.57 638.464Z" fill="#ECBE23"/>
<path d="M686.286 678.504C682.706 677.045 683.255 675.235 687.831 673.365C691.725 671.779 695.817 671.08 696.925 671.815C698.038 672.546 697.34 674.859 695.38 676.953C693.419 679.045 689.328 679.744 686.286 678.504Z" fill="#ECBE23"/>
<path d="M828.675 678.472C824.125 677.319 820.407 675.755 820.407 674.996C820.407 674.236 822.66 673.614 825.42 673.614C828.179 673.614 831.898 675.178 833.688 677.091C835.552 679.08 833.416 679.671 828.675 678.472Z" fill="#ECBE23"/>
<path d="M1053.03 697.049C1051.08 698.336 1047.88 698.336 1045.93 697.049C1043.98 695.759 1045.58 694.704 1049.48 694.704C1053.39 694.704 1054.98 695.759 1053.03 697.049Z" fill="#ECBE23"/>
</svg>
