<svg width="965" height="994" viewBox="0 0 965 994" fill="none" xmlns="http://www.w3.org/2000/svg">
<g clip-path="url(#clip0)">
<path d="M801 812.5L821 821L836 838L861 834.5L886.5 839.5L906 820L861 743.5L869.5 737.5L917.5 800.5L925 794L920.5 784.5L917 770.5L925 768.5L932.5 783.5V792L848.5 940L715 951L678 929.5L673 905.5L683 895L691.5 913L697 933H722.5L706.5 863.5V848L715 838L720.5 857.5L729.5 889L742 934.5L761.5 883.5L782 855L779 838L791.5 832.5V815L779 801L767.5 779L786 770L797 788.5L801 812.5Z" fill="#F0CB2F"/>
<path fill-rule="evenodd" clip-rule="evenodd" d="M965 820.244C858.902 925.358 683.908 994 486 994C283.675 994 105.298 922.259 0 813.152L0 996H965V820.244Z" fill="#1D2529"/>
<path fill-rule="evenodd" clip-rule="evenodd" d="M776.458 809.562L757.283 781.547L795.415 760.4L807.08 795.019L802.449 797.627L814.063 815.378L825.101 809.001L842.873 829.061L883.431 810.975L940.846 873.543L870.973 936.582L753.165 974.791L733.788 879.308L770.408 862.954L766.61 837.131L787.276 828.679L780.782 808.423L776.458 809.562ZM861.718 929.54C863.35 921.73 864.7 913.914 861.59 906.527C852.16 884.131 836.232 873.558 826.994 877.448C817.756 881.338 815.223 903.979 827.341 925.043C831.44 932.168 837.752 935.245 843.469 938.032L843.469 938.032L843.469 938.032L843.469 938.032L843.469 938.032L843.47 938.032C844.619 938.592 845.744 939.141 846.823 939.708C846.823 939.708 848.965 942.562 854.517 940.371C860.509 938.008 861.718 929.54 861.718 929.54ZM788.927 786.96C789.669 788.384 790.169 789.822 790.426 791.15L783.479 794.766C782.539 793.793 781.649 792.558 780.907 791.134C778.658 786.813 778.631 782.376 780.846 781.224C783.06 780.071 786.679 782.639 788.927 786.96ZM797.204 846.712C796.946 845.383 796.446 843.946 795.705 842.521C793.456 838.2 789.838 835.632 787.623 836.785C785.409 837.938 785.436 842.374 787.685 846.695C788.426 848.12 789.317 849.354 790.257 850.327L797.204 846.712ZM818.35 831.929C819.092 833.354 819.592 834.792 819.849 836.12L812.902 839.736C811.962 838.762 811.072 837.528 810.33 836.103C808.082 831.783 808.054 827.346 810.269 826.193C812.484 825.041 816.102 827.609 818.35 831.929ZM772.386 929.26L761.78 896.907L774.571 891.918L785.075 924.761L772.386 929.26ZM865.415 849.978L872.189 861.628L884.655 853.999L877.885 842.154L865.415 849.978Z" fill="#1D2529"/>
<path d="M841.592 709.646C847.846 725.93 849.91 736.91 850.161 740.364L847.51 747.424L876.094 726.131L868.571 726.65C865.333 725.421 855.404 720.3 841.592 709.646Z" fill="#1D2529"/>
<path fill-rule="evenodd" clip-rule="evenodd" d="M867.319 763.296L853.316 742.086L867.522 729.168L885.486 751.04L892.74 745.156L897.795 751.777L890.852 757.768L925.022 799.512L944.508 791.547L985.643 836.381L912.159 894.896L883.688 834.521L900.751 817.349L871.534 770.327L864.396 774.855L860.385 768.243L867.319 763.296ZM878.985 754.145C878.565 752.859 877.892 751.494 876.98 750.172C874.216 746.161 870.308 744.059 868.253 745.476C866.197 746.893 866.772 751.293 869.536 755.303C870.448 756.625 871.484 757.74 872.536 758.59L878.985 754.145ZM913.455 802.478C914.367 803.801 915.041 805.165 915.46 806.452L909.012 810.897C907.959 810.047 906.923 808.932 906.011 807.609C903.247 803.599 902.673 799.2 904.728 797.783C906.784 796.366 910.691 798.468 913.455 802.478Z" fill="#1D2529"/>
<path d="M701.047 810.489C699.903 825.229 697.196 834.549 695.986 837.367L690.667 842.217L725.229 833.503L718.246 831.755C715.844 829.848 709.042 822.925 701.047 810.489Z" fill="#1D2529"/>
<path fill-rule="evenodd" clip-rule="evenodd" d="M702.882 864.468L698.075 839.512L716.148 833.024L724.359 860.109L733.314 857.454L735.446 865.507L726.738 868.38L742.304 920.032L763.354 920.141L784.17 977.315L693.872 1003.21L690.71 936.53L713.051 927.207L704.082 872.578L695.754 874.025L694.582 866.381L702.882 864.468ZM717.164 860.486C717.27 859.138 717.17 857.619 716.835 856.048C715.818 851.285 713.015 847.846 710.573 848.367C708.132 848.888 706.976 853.172 707.993 857.935C708.328 859.506 708.858 860.933 709.505 862.121L717.164 860.486ZM730.483 918.339C730.819 919.91 730.918 921.428 730.812 922.777L723.153 924.412C722.506 923.224 721.977 921.797 721.641 920.226C720.625 915.463 721.78 911.179 724.221 910.658C726.663 910.137 729.467 913.575 730.483 918.339Z" fill="#1D2529"/>
<path d="M747.245 715.561C754.452 748.51 755.264 770.037 754.769 776.682L747.81 789.247L807.519 757.952L793.226 756.525C787.48 753.152 770.24 740.235 747.245 715.561Z" fill="#1D2529"/>
<path fill-rule="evenodd" clip-rule="evenodd" d="M666.424 897.575C668.202 893.916 672.566 881.541 675.794 861.308C683.562 880.267 690.641 891.316 693.209 894.471L701.161 898.372L691.197 899.526L701.981 927.029L721.817 933.302L725.247 962.907L678.362 945.123L667.77 902.241L659.574 903.19L666.424 897.575ZM689.591 916.847C689.735 915.55 689.628 914.119 689.229 912.67C689.168 912.446 689.1 912.225 689.027 912.009L684.442 913.387L685.793 917.892L689.591 916.847ZM684.425 918.268L680.124 919.45C679.337 918.408 678.698 917.123 678.3 915.675C678.262 915.538 678.227 915.402 678.195 915.266L683.083 913.796L684.425 918.268ZM684.035 912.028L688.491 910.688C687.074 907.735 684.602 905.873 682.255 906.096L684.035 912.028ZM680.889 906.481L682.676 912.437L677.948 913.858C677.57 910.511 678.729 907.536 680.889 906.481Z" fill="#1D2529"/>
<path fill-rule="evenodd" clip-rule="evenodd" d="M925.63 764.064C923.48 763.121 916.935 759.315 907.951 751.63C911.626 762.866 912.647 770.369 912.698 772.716L910.662 777.403L915.473 774.185L921.017 790.304L914.646 800.478L924.208 814.771L938.163 789.424L926.783 766.618L930.74 763.971L925.63 764.064ZM922.655 781.197C922.107 780.68 921.619 780.011 921.252 779.226C921.195 779.104 921.142 778.982 921.094 778.859L923.624 777.751L924.715 780.235L922.655 781.197ZM925.457 779.889L927.789 778.8C927.745 778.048 927.545 777.245 927.179 776.459C927.144 776.385 927.109 776.312 927.072 776.241L924.374 777.422L925.457 779.889ZM923.295 777.001L920.835 778.078C920.354 776.251 920.744 774.508 921.859 773.729L923.295 777.001ZM922.603 773.387L924.045 776.672L926.654 775.53C925.569 773.917 923.947 773.043 922.603 773.387Z" fill="#1D2529"/>
<g clip-path="url(#clip1)">
<path d="M936.023 707.393L935.823 707.545L935.978 707.855C936.309 708.531 936.368 709.704 936.155 711.287C936.054 712.025 935.509 714.322 935.245 715.124C934.429 717.595 933.469 719.401 932.73 719.843C932.517 719.971 932.467 719.985 932.307 719.947C932.14 719.907 932.074 719.84 930.829 718.459C928.831 716.236 927.216 714.547 926.593 714.018L926.389 713.845L926.441 714.029C926.47 714.129 926.669 714.805 926.884 715.535C927.425 717.37 927.728 718.412 927.723 718.431C927.721 718.437 927.581 718.494 927.405 718.552C926.893 718.73 926.102 719.092 925.663 719.355C924.886 719.82 924.237 720.473 923.552 721.479C923.374 721.737 923.21 721.974 923.182 722.007C923.141 722.053 922.676 721.806 921.094 720.902L919.058 719.743L919.591 720.659C920.129 721.582 920.883 722.752 922.008 724.392C922.341 724.885 922.845 725.619 923.12 726.018C923.699 726.869 923.717 726.917 923.513 727.211C923.402 727.369 923.325 727.425 922.925 727.639C921.194 728.574 916.528 729.052 913.519 728.605C912.384 728.438 911.356 728.071 910.971 727.701C910.879 727.611 910.798 727.536 910.789 727.53C910.783 727.529 910.547 727.735 910.267 727.989C908.518 729.59 907.176 731.598 906.276 733.963C905.995 734.701 905.543 736.502 905.447 737.274C905.343 738.131 905.321 739.003 905.393 739.792C905.465 740.635 905.566 741.128 905.809 741.868C905.961 742.325 906.04 742.492 906.361 743.036C906.565 743.385 906.803 743.747 906.883 743.845L907.031 744.013L907.12 743.553C907.322 742.534 907.941 741.594 908.898 740.838C909.353 740.479 910.243 739.999 910.766 739.831C911.534 739.58 912.46 739.556 913.722 739.75L914.445 739.864L914.592 739.229C914.818 738.223 915.117 737.603 915.629 737.066C915.95 736.728 916.838 736.185 917.325 736.028C918.277 735.714 919.373 735.621 920.961 735.716C921.223 735.731 921.452 735.733 921.468 735.724C921.481 735.711 921.506 735.497 921.516 735.25C921.586 733.553 922.425 732.036 923.726 731.256C924.34 730.888 924.837 730.783 925.578 730.865C926.15 730.93 926.744 731.138 928.122 731.745C929.113 732.182 929.655 732.373 930.187 732.468C931.657 732.735 932.843 732.556 933.935 731.902C935.065 731.224 935.806 730.135 936.102 728.717C936.299 727.778 936.276 726.857 936.019 725.497C935.686 723.715 935.65 723.119 935.831 722.355C936.027 721.519 936.392 721.036 937.263 720.471C937.685 720.197 937.855 720.111 938.217 719.985C939.123 719.673 940.143 719.62 941.093 719.84C941.23 719.876 941.358 719.885 941.372 719.866C941.387 719.846 941.472 719.425 941.564 718.935C942.004 716.56 942.734 715.232 944.012 714.465C944.711 714.046 945.362 713.908 946.48 713.931C946.757 713.936 946.984 713.919 946.99 713.893C946.994 713.864 947.012 713.612 947.032 713.337C947.102 712.274 947.31 711.291 947.59 710.693C947.86 710.112 948.453 709.376 949.1 708.816C949.499 708.469 950.504 707.899 950.91 707.784C951.391 707.652 951.835 707.6 952.271 707.623C952.509 707.632 952.687 707.621 952.671 707.594C952.654 707.566 952.52 707.404 952.373 707.23C951.187 705.841 949.333 704.933 947.041 704.616C944.223 704.222 941.207 704.687 938.503 705.938C937.928 706.202 936.445 707.075 936.023 707.393Z" fill="#1D2529"/>
</g>
<g clip-path="url(#clip2)">
<path d="M849.308 788.565L849.242 788.584L849.251 788.679C849.269 788.885 849.168 789.191 848.957 789.576C848.858 789.755 848.491 790.29 848.344 790.469C847.891 791.022 847.466 791.39 847.233 791.43C847.165 791.442 847.151 791.44 847.114 791.415C847.075 791.388 847.065 791.364 846.882 790.887C846.59 790.12 846.343 789.527 846.236 789.33L846.201 789.265L846.196 789.318C846.193 789.346 846.178 789.539 846.161 789.748C846.118 790.271 846.092 790.568 846.089 790.573C846.088 790.574 846.047 790.575 845.996 790.572C845.847 790.567 845.608 790.582 845.47 790.606C845.225 790.648 844.994 790.751 844.719 790.941C844.647 790.99 844.582 791.034 844.572 791.04C844.556 791.048 844.462 790.938 844.146 790.55L843.739 790.052L843.785 790.339C843.831 790.629 843.909 791.003 844.035 791.535C844.071 791.694 844.128 791.932 844.159 792.062C844.223 792.337 844.223 792.351 844.142 792.406C844.098 792.436 844.072 792.443 843.949 792.458C843.412 792.526 842.169 792.187 841.442 791.775C841.168 791.62 840.941 791.424 840.879 791.291C840.864 791.259 840.851 791.232 840.849 791.23C840.848 791.228 840.767 791.258 840.67 791.295C840.063 791.533 839.521 791.914 839.056 792.432C838.911 792.593 838.617 793.01 838.516 793.198C838.404 793.407 838.313 793.629 838.253 793.838C838.188 794.061 838.165 794.198 838.154 794.411C838.148 794.543 838.152 794.594 838.18 794.765C838.198 794.875 838.223 794.991 838.234 795.024L838.255 795.082L838.324 794.973C838.476 794.732 838.728 794.552 839.048 794.453C839.2 794.406 839.476 794.371 839.626 794.38C839.848 794.391 840.087 794.477 840.392 794.651L840.566 794.752L840.666 794.604C840.824 794.368 840.962 794.239 841.146 794.152C841.262 794.097 841.543 794.046 841.683 794.054C841.959 794.068 842.248 794.152 842.646 794.334C842.712 794.363 842.77 794.387 842.775 794.386C842.78 794.384 842.807 794.331 842.834 794.269C843.02 793.841 843.385 793.535 843.796 793.464C843.99 793.431 844.127 793.453 844.309 793.547C844.449 793.62 844.581 793.732 844.874 794.024C845.085 794.235 845.205 794.337 845.332 794.414C845.682 794.628 846.004 794.699 846.348 794.64C846.705 794.578 847.003 794.372 847.219 794.038C847.362 793.817 847.447 793.578 847.516 793.204C847.607 792.715 847.657 792.558 847.779 792.381C847.912 792.186 848.053 792.098 848.332 792.039C848.467 792.011 848.519 792.006 848.625 792.009C848.888 792.019 849.154 792.106 849.376 792.257C849.408 792.279 849.44 792.294 849.445 792.291C849.451 792.287 849.514 792.188 849.586 792.071C849.934 791.506 850.253 791.238 850.656 791.168C850.877 791.13 851.057 791.159 851.341 791.275C851.412 791.304 851.472 791.322 851.476 791.316C851.48 791.309 851.509 791.246 851.542 791.177C851.665 790.912 851.815 790.681 851.946 790.555C852.073 790.433 852.298 790.303 852.519 790.223C852.656 790.174 852.969 790.127 853.085 790.138C853.221 790.152 853.34 790.183 853.45 790.232C853.51 790.257 853.556 790.272 853.555 790.263C853.553 790.255 853.535 790.2 853.515 790.141C853.348 789.667 852.963 789.251 852.407 788.943C851.723 788.564 850.905 788.385 850.088 788.437C849.914 788.448 849.448 788.525 849.308 788.565Z" fill="#1D2529"/>
</g>
<g clip-path="url(#clip3)">
<path d="M765.139 807.918C764.044 807.994 762.953 808.317 762.061 808.833C760.537 809.711 759.639 810.744 758.188 813.278C756.608 816.044 756.283 816.543 755.452 817.438C755.131 817.785 754.419 818.411 754.051 818.671C753.686 818.931 753.013 819.289 752.906 819.282C752.885 819.28 752.826 819.179 752.775 819.054L752.683 818.833L752.731 818.159C752.767 817.679 752.771 817.405 752.749 817.209C752.728 817.058 752.709 816.925 752.7 816.918C752.693 816.91 752.605 816.977 752.509 817.072C752.324 817.24 751.889 817.561 751.655 817.691C751.525 817.766 751.525 817.766 751.256 817.692C750.465 817.48 749.635 817.733 749.062 818.358L748.856 818.587L748.55 818.595C748.376 818.597 748.073 818.57 747.85 818.534C747.633 818.502 747.447 818.479 747.44 818.486C747.406 818.515 747.498 818.813 747.608 819.035C747.675 819.168 747.898 819.475 748.11 819.732C748.46 820.154 748.604 820.393 748.623 820.575C748.629 820.634 748.6 820.646 748.437 820.656C748.042 820.689 746.682 820.518 745.855 820.334C744.367 820.002 743.051 819.487 741.156 818.489C738.916 817.312 738.155 817.011 736.935 816.826C735.406 816.591 733.386 817.053 732.049 817.947C731.136 818.556 730.796 818.929 729.282 820.948C728.448 822.063 728.221 822.388 727.951 822.852C727.731 823.223 727.454 823.791 727.476 823.82C727.486 823.828 727.557 823.801 727.633 823.761C728.094 823.511 728.736 823.304 729.322 823.218C729.616 823.175 729.786 823.173 730.284 823.206C730.823 823.245 730.923 823.262 731.221 823.362C732.375 823.755 733.294 824.612 733.757 825.722C733.898 826.065 734.04 826.533 734.101 826.873L734.129 827.025L734.224 826.951C734.275 826.909 734.499 826.681 734.719 826.45C735.451 825.676 735.903 825.352 736.614 825.101C737.347 824.837 738.02 824.744 738.787 824.795C739.959 824.873 740.791 825.248 741.493 826.014C741.927 826.487 742.227 827.031 742.398 827.65C742.44 827.799 742.483 827.923 742.497 827.924C742.508 827.925 742.588 827.809 742.671 827.665C742.792 827.468 742.908 827.337 743.177 827.098C744.154 826.244 745.304 825.876 746.551 826.018C747.34 826.109 747.814 826.332 748.224 826.804C748.501 827.124 748.679 827.515 748.759 827.992L748.814 828.312L749 828.074C749.376 827.592 749.981 827.154 750.51 826.981C750.624 826.943 750.842 826.889 751.001 826.857L751.282 826.8L751.497 826.918C751.61 826.981 751.841 827.164 752.001 827.32C752.386 827.693 752.569 827.809 752.797 827.825C753.135 827.847 753.421 827.675 753.538 827.378C753.563 827.313 753.617 827.088 753.658 826.882C753.778 826.29 753.825 826.206 754.206 825.957C754.776 825.586 755.412 825.358 755.888 825.358C756.228 825.357 756.395 825.406 756.79 825.62C757.082 825.778 757.288 825.868 757.29 825.837C757.29 825.83 757.23 825.694 757.153 825.54C757.073 825.385 756.979 825.143 756.936 824.998C756.872 824.768 756.867 824.684 756.893 824.287C756.917 823.886 756.932 823.81 757.03 823.591C757.178 823.254 757.35 823.019 757.646 822.737C758.257 822.163 759.096 821.771 760.036 821.629C760.341 821.58 760.504 821.577 760.974 821.609C761.579 821.649 761.757 821.692 762.174 821.894C762.285 821.946 762.373 821.983 762.373 821.976C762.373 821.973 762.329 821.855 762.272 821.723C762.018 821.116 761.941 820.496 762.054 819.89C762.297 818.594 763.389 817.372 764.856 816.765C766.235 816.194 767.493 816.16 768.65 816.668C768.782 816.725 768.9 816.775 768.914 816.776C768.924 816.777 768.886 816.666 768.83 816.527C768.383 815.473 768.298 814.357 768.587 813.404C768.921 812.302 769.834 811.325 770.988 810.836C771.395 810.665 771.957 810.515 772.398 810.462C772.569 810.442 772.72 810.414 772.735 810.404C772.749 810.395 772.491 810.253 772.166 810.089C769.757 808.883 768.744 808.464 767.48 808.154C767.05 808.049 766.843 808.018 766.174 807.963C765.738 807.93 765.271 807.909 765.139 807.918Z" fill="#1D2529"/>
</g>
<g clip-path="url(#clip4)">
<path d="M831.824 782.309C831.516 782.425 831.23 782.611 831.018 782.835C830.656 783.218 830.486 783.591 830.286 784.444C830.068 785.373 830.017 785.544 829.855 785.873C829.792 786 829.641 786.24 829.558 786.347C829.475 786.453 829.313 786.613 829.281 786.62C829.275 786.621 829.249 786.597 829.224 786.566L829.179 786.51L829.135 786.312C829.104 786.171 829.082 786.092 829.059 786.038C829.04 785.996 829.023 785.96 829.02 785.958C829.017 785.957 828.998 785.984 828.978 786.019C828.939 786.083 828.842 786.213 828.786 786.27C828.755 786.303 828.755 786.303 828.671 786.304C828.426 786.311 828.209 786.455 828.098 786.683L828.058 786.767L827.971 786.795C827.921 786.81 827.832 786.829 827.764 786.837C827.699 786.847 827.644 786.856 827.642 786.859C827.635 786.87 827.687 786.948 827.738 787.002C827.768 787.034 827.859 787.104 827.941 787.159C828.078 787.251 828.14 787.307 828.161 787.358C828.168 787.374 828.161 787.38 828.114 787.397C828.004 787.44 827.599 787.507 827.345 787.525C826.889 787.557 826.467 787.522 825.837 787.397C825.093 787.25 824.849 787.229 824.482 787.28C824.023 787.343 823.482 787.648 823.174 788.019C822.964 788.272 822.898 788.409 822.636 789.118C822.491 789.51 822.454 789.622 822.416 789.779C822.385 789.904 822.354 790.091 822.363 790.098C822.366 790.099 822.384 790.085 822.403 790.067C822.514 789.956 822.68 789.842 822.841 789.767C822.922 789.73 822.971 789.714 823.117 789.681C823.275 789.647 823.305 789.643 823.399 789.646C823.765 789.66 824.102 789.828 824.33 790.107C824.399 790.194 824.48 790.316 824.527 790.409L824.548 790.45L824.569 790.421C824.58 790.404 824.625 790.32 824.668 790.234C824.813 789.949 824.915 789.818 825.098 789.685C825.286 789.546 825.471 789.462 825.696 789.411C826.039 789.333 826.31 789.37 826.577 789.53C826.742 789.629 826.875 789.759 826.977 789.923C827.002 789.962 827.025 789.994 827.029 789.993C827.032 789.992 827.046 789.952 827.057 789.904C827.075 789.837 827.097 789.789 827.154 789.697C827.362 789.368 827.661 789.165 828.031 789.099C828.265 789.058 828.421 789.081 828.579 789.181C828.686 789.25 828.771 789.347 828.834 789.477L828.877 789.564L828.91 789.48C828.977 789.31 829.114 789.132 829.251 789.037C829.28 789.016 829.338 788.982 829.381 788.96L829.457 788.919L829.529 788.935C829.567 788.943 829.649 788.976 829.708 789.007C829.851 789.081 829.913 789.099 829.98 789.084C830.079 789.061 830.147 788.988 830.155 788.892C830.157 788.871 830.153 788.802 830.147 788.74C830.131 788.559 830.137 788.531 830.225 788.427C830.357 788.271 830.521 788.151 830.657 788.111C830.755 788.081 830.807 788.081 830.939 788.109C831.036 788.13 831.103 788.138 831.101 788.129C831.101 788.127 831.072 788.093 831.036 788.055C831 788.017 830.952 787.956 830.928 787.918C830.89 787.857 830.881 787.834 830.855 787.717C830.827 787.6 830.825 787.577 830.834 787.506C830.848 787.396 830.877 787.314 830.938 787.207C831.065 786.99 831.272 786.806 831.53 786.685C831.614 786.645 831.661 786.63 831.798 786.599C831.975 786.559 832.03 786.556 832.167 786.578C832.204 786.584 832.232 786.587 832.232 786.585C832.231 786.584 832.209 786.554 832.181 786.521C832.056 786.368 831.981 786.197 831.962 786.013C831.921 785.62 832.13 785.175 832.5 784.875C832.847 784.594 833.206 784.476 833.581 784.523C833.624 784.528 833.662 784.533 833.666 784.532C833.669 784.531 833.649 784.503 833.621 784.467C833.402 784.203 833.283 783.889 833.284 783.591C833.286 783.246 833.465 782.887 833.754 782.648C833.857 782.564 834.005 782.473 834.128 782.42C834.175 782.399 834.216 782.378 834.219 782.374C834.223 782.37 834.137 782.352 834.029 782.332C833.234 782.192 832.907 782.158 832.517 782.177C832.385 782.184 832.323 782.192 832.126 782.234C831.998 782.262 831.862 782.296 831.824 782.309Z" fill="#1D2529"/>
</g>
<path d="M670.465 959.398L673.912 950.051L678.004 958.755L682.501 979.992L676.936 981.23L670.465 959.398Z" fill="#1D2529"/>
<path d="M646.254 963.254L648.251 952.837L656.243 963.728L659.718 985.417L656.174 986.25L646.254 963.254Z" fill="#1D2529"/>
<path d="M626.705 963.827L629.606 955.455L632.294 962.09L635.555 988.274L631.536 988.584L626.705 963.827Z" fill="#1D2529"/>
<rect x="644.412" y="970.738" width="53.4064" height="3.79006" transform="rotate(-13.0492 644.412 970.738)" fill="#1D2529"/>
<rect x="620.943" y="969.209" width="38.5628" height="3.79005" transform="rotate(-4.4331 620.943 969.209)" fill="#1D2529"/>
<path d="M120 878L134 866.5L176.5 878L189.5 904.5L172.5 919H146.25L122 902.5L120 878Z" fill="#F0CB2F"/>
<path d="M201 915.5L217.5 896L243.5 899L258 921L249.5 946.5L229.5 957.5L201 946.5V915.5Z" fill="#F0CB2F"/>
<path d="M191.45 909.083C187.035 920.074 177.255 927.435 165.223 927.354C165.223 927.354 158.199 926.194 155.639 923.302C151.369 923.51 146.965 922.814 142.719 921.108C138.194 919.29 134.353 916.535 131.322 913.159C129.151 913.312 125.585 912.966 121.833 910.107C112.55 903.07 110.463 889.467 114.98 878.222C119.391 867.243 129.171 859.883 141.202 859.964C141.202 859.964 148.71 861.195 151.03 864.3C154.314 864.067 157.306 864.988 160.434 866.206C161.287 864.181 163.626 860.096 168.896 858.976C173.193 862.729 173.193 862.729 173.193 862.729C173.193 862.729 168.866 865.424 167.762 869.144C170.821 870.404 173.69 871.819 175.83 874.125C178.025 874.106 181.252 874.641 184.611 877.203C193.877 884.249 195.963 897.851 191.45 909.083ZM145.661 888.75L144.924 873.993L131.812 880.167L145.661 888.75ZM156.963 898.535L154.793 889.718L147.261 894.638L156.963 898.535ZM178.569 898.476L173.071 885.301L162.74 895.612L178.569 898.476ZM168.574 904.789L168.346 909.306L158.751 907.516C158.751 907.516 158.945 906.64 159.497 903.684C156.816 904.037 141.735 896.548 141.735 896.548L139.677 899.695L132.958 895.089C132.958 895.089 133.234 893.611 134.497 891.257C131.218 889.939 128.055 885.173 123.936 880.022C120.394 900.688 141.98 910.157 141.98 910.157L143.299 906.873L152.179 910.441C152.179 910.441 151.823 910.934 150.86 913.724C172.722 921.713 184.328 904.285 184.328 904.285C176.311 905.673 168.574 904.789 168.574 904.789Z" fill="#1D2529"/>
<path fill-rule="evenodd" clip-rule="evenodd" d="M227.201 961.678C226.975 961.731 226.756 961.787 226.532 961.833L226.488 961.842C218.537 963.583 211.513 961.044 206.417 954.702C206.315 954.567 206.203 954.436 206.101 954.301L205.983 954.143C201.541 953.957 197.489 951.626 193.809 947.251C193.676 947.205 193.543 947.158 193.42 947.106C192.367 935.879 193.798 925.353 197.425 915.424C201.068 905.477 206.927 896.118 214.703 887.277C214.814 887.316 214.925 887.355 215.033 887.402C221.403 885.809 226.869 887.542 231.693 891.689C233.851 890.108 235.484 889.264 237.717 889.452C237.765 889.245 237.838 889.038 237.933 888.839C238.932 886.825 240.167 885.085 241.582 883.542C242.961 882.052 244.528 880.736 246.229 879.558C247.527 878.654 249.314 878.976 250.219 880.274C251.123 881.571 250.801 883.359 249.503 884.263C248.163 885.194 246.915 886.24 245.803 887.443C244.754 888.584 243.839 889.864 243.111 891.317C245.177 892.592 246.235 894.326 246.942 896.94L247.032 897.038C252.039 896.56 257.157 898.478 262.415 903.914L262.578 903.971C263.12 915.798 261.832 926.815 258.418 936.893C255.029 946.922 249.523 956.056 241.642 964.155C241.445 964.102 241.243 964.039 241.049 963.979C235.842 965.143 231.012 964.173 227.201 961.678ZM190.641 945.829C186.943 943.789 184.393 940.849 182.767 937.19C177.686 925.782 180.693 908.962 187.846 898.922C193.227 891.371 202.374 884.788 211.854 886.507C204.294 895.299 198.559 904.61 194.932 914.514C191.324 924.365 189.808 934.779 190.641 945.829ZM265.282 905.247C269.563 907.683 273.148 911.974 275.399 919.846C278.425 936.15 268.958 960.498 251.893 964.601C249.437 965.189 247.123 965.254 244.659 964.852C252.23 956.76 257.566 947.682 260.929 937.752C264.313 927.738 265.683 916.866 265.282 905.247ZM247.294 940.788C241.456 949.216 230.783 953.269 220.671 950.307L222.633 944.732L216.954 942.733L215.135 947.902C207.274 943.235 202.766 934.444 203.413 925.342C205.625 927.831 208.268 930.155 211.291 932.224L209.653 936.876L215.332 938.875L216.562 935.382C218.737 936.513 221.055 937.52 223.485 938.375C225.936 939.238 228.389 939.91 230.81 940.389L228.585 946.71L234.264 948.709L236.866 941.317L236.504 941.19C240.277 941.505 243.915 941.358 247.294 940.788ZM220.258 930.707L229.01 923.006L231.15 934.541L220.258 930.707ZM207.055 913.228L220.607 901.299L223.922 919.165L207.055 913.228ZM235.546 923.257L249.099 911.328L252.413 929.194L235.546 923.257Z" fill="#1D2529"/>
<path fill-rule="evenodd" clip-rule="evenodd" d="M146 784L101 793L100.804 792.019L145.804 783.019L146 784Z" fill="white"/>
<path fill-rule="evenodd" clip-rule="evenodd" d="M148 801L109 779L109.491 778.129L148.491 800.129L148 801Z" fill="white"/>
<path fill-rule="evenodd" clip-rule="evenodd" d="M135 815L119 771L119.94 770.658L135.94 814.658L135 815Z" fill="white"/>
<path fill-rule="evenodd" clip-rule="evenodd" d="M139 770L126 788L125.189 787.414L138.189 769.414L139 770Z" fill="white"/>
<path fill-rule="evenodd" clip-rule="evenodd" d="M125 830V788H126V830H125Z" fill="white"/>
<path fill-rule="evenodd" clip-rule="evenodd" d="M122.211 778.594L122.825 779.12C125.472 781.389 128.66 781.32 129.879 781.015L130.5 780.86V781.5C130.5 784.094 132.046 785.645 132.757 786.071L133.306 786.401L132.854 786.854C131.443 788.264 131.676 790.094 131.964 790.814L132.195 791.391L131.582 791.493C130.588 791.659 129.951 792.308 129.548 793.122C129.14 793.946 129 794.892 129 795.5H128C128 794.775 128.16 793.67 128.652 792.678C129.081 791.813 129.782 790.999 130.87 790.641C130.638 789.627 130.638 787.998 131.76 786.58C130.864 785.833 129.704 784.32 129.524 782.097C127.965 782.309 125.215 782.14 122.747 780.333C122.168 781.735 120.761 783.671 118.177 783.963C118.344 784.489 118.487 784.999 118.571 785.485C118.688 786.165 118.698 786.837 118.471 787.479C118.011 788.784 116.67 789.721 114.144 790.479L113.856 789.521C116.33 788.779 117.239 787.966 117.529 787.146C117.677 786.725 117.687 786.242 117.585 785.655C117.483 785.065 117.277 784.411 117.026 783.658L116.806 783H117.5C120.365 783 121.707 780.612 122.015 779.379L122.211 778.594Z" fill="white"/>
<path d="M129 834.5C129 837.538 127.433 840 125.5 840C123.567 840 122 837.538 122 834.5C122 831.462 123.567 829 125.5 829C127.433 829 129 831.462 129 834.5Z" fill="#1D2529"/>
<path fill-rule="evenodd" clip-rule="evenodd" d="M129.094 827.38L132.61 828.358L132.342 829.321L129.688 828.583L128.274 832.104L127.346 831.732L129.094 827.38Z" fill="#1D2529"/>
<path fill-rule="evenodd" clip-rule="evenodd" d="M130.963 829.789L133.812 832.069L133.188 832.849L131.037 831.129L128.354 833.813L127.646 833.105L130.963 829.789Z" fill="#1D2529"/>
<path fill-rule="evenodd" clip-rule="evenodd" d="M131.934 831.717L133.961 834.751L133.129 835.307L131.6 833.016L128.23 834.762L127.77 833.875L131.934 831.717Z" fill="#1D2529"/>
<path fill-rule="evenodd" clip-rule="evenodd" d="M131.571 834.566L132.992 842.369L132.008 842.549L130.768 835.735L127.093 836.428L126.907 835.445L131.571 834.566Z" fill="#1D2529"/>
<path fill-rule="evenodd" clip-rule="evenodd" d="M122.386 827.38L118.871 828.358L119.139 829.321L121.792 828.583L123.207 832.104L124.135 831.732L122.386 827.38Z" fill="#1D2529"/>
<path fill-rule="evenodd" clip-rule="evenodd" d="M120.517 829.789L117.668 832.069L118.293 832.849L120.443 831.129L123.127 833.813L123.834 833.105L120.517 829.789Z" fill="#1D2529"/>
<path fill-rule="evenodd" clip-rule="evenodd" d="M119.546 831.717L117.52 834.751L118.351 835.307L119.881 833.016L123.25 834.762L123.71 833.875L119.546 831.717Z" fill="#1D2529"/>
<path fill-rule="evenodd" clip-rule="evenodd" d="M119.909 834.566L118.488 842.369L119.472 842.549L120.713 835.735L124.388 836.428L124.573 835.445L119.909 834.566Z" fill="#1D2529"/>
<path d="M76.5 903L69.6481 929.5L56 895L22 856.5L48.8406 799.213L38.5 772.5L29 774L28 772L38.5 768L28 755L29 752.5L42 761L55.7383 784.313L76.5 724.5L83.2961 698L78.0644 673.5L69.6481 667.5L78.5 669L86.2532 681L89.2103 698L113.5 651H129.927L132 657H116.279L104.906 685L111.275 691L111 694.5L104 690L83.2961 764.5L98.5 729.5L117.416 714L139.481 711.5L154.948 718.5L162 734L160.863 740.5L143.12 722L113.5 727L78.5 789L116.279 764.5L143.12 760L151.764 782L150.627 808.5L143.12 823L132.657 816.5V812L140.845 814L147.215 801L139.481 772.5L116.279 776.5L78.5 828.5L76.5 903Z" fill="#1D2529"/>
<path d="M-37 696L19 671L31.5 691L19 753.5L-37 823.5L-76.5 789.5L-37 696Z" fill="#1D2529"/>
<path d="M19.7037 806.541L36.2963 799L40 805.033L36.2963 823.885L19.7037 845L8 834.744L19.7037 806.541Z" fill="#1D2529"/>
</g>
<defs>
<clipPath id="clip0">
<rect width="965" height="994" fill="white"/>
</clipPath>
<clipPath id="clip1">
<rect width="57.97" height="29.4763" fill="white" transform="translate(896 725.807) rotate(-30.9428)"/>
</clipPath>
<clipPath id="clip2">
<rect width="15.9252" height="8.09754" fill="white" transform="translate(837.229 789.325) rotate(-9.83523)"/>
</clipPath>
<clipPath id="clip3">
<rect width="44.3357" height="22.1679" fill="white" transform="translate(728.715 805.133) rotate(3.82387)"/>
</clipPath>
<clipPath id="clip4">
<rect width="13.2903" height="6.64517" fill="white" transform="translate(821.121 784.623) rotate(-12.7444)"/>
</clipPath>
</defs>
</svg>
