<svg width="20" height="20" viewBox="0 0 20 20" fill="#007BC1" xmlns="http://www.w3.org/2000/svg">
<path d="M13.5333 9.59171L14.8417 8.28338L11.7167 5.15838L10.4083 6.46671L6.95833 3.02505C6.30833 2.37505 5.25 2.37505 4.6 3.02505L3.01667 4.60838C2.36667 5.25838 2.36667 6.31671 3.01667 6.96671L6.45833 10.4084L2.5 14.375V17.5H5.625L9.59167 13.5334L13.0333 16.975C13.825 17.7667 14.8917 17.475 15.3917 16.975L16.975 15.3917C17.625 14.7417 17.625 13.6834 16.975 13.0334L13.5333 9.59171ZM7.65 9.22505L4.2 5.78338L5.775 4.20005L6.83333 5.25838L5.85 6.25005L7.025 7.42505L8.01667 6.43338L9.225 7.64171L7.65 9.22505ZM14.2167 15.8L10.775 12.3584L12.3583 10.775L13.5667 11.9834L12.575 12.975L13.75 14.15L14.7417 13.1584L15.8 14.2167L14.2167 15.8Z"/>
<path d="M17.2583 5.86672C17.5833 5.54172 17.5833 5.01672 17.2583 4.69172L15.3083 2.74172C14.9167 2.35005 14.375 2.50005 14.1333 2.74172L12.6083 4.26672L15.7333 7.39172L17.2583 5.86672Z"/>
</svg>
