<svg width="33" height="32" viewBox="0 0 33 32" fill="#424E54" xmlns="http://www.w3.org/2000/svg">
<path d="M21.9033 15.3466L23.9967 13.2533L18.9967 8.25331L16.9033 10.3466L11.3833 4.83998C10.3433 3.79998 8.65 3.79998 7.61 4.83998L5.07667 7.37331C4.03667 8.41331 4.03667 10.1066 5.07667 11.1466L10.5833 16.6533L4.25 23V28H9.25L15.5967 21.6533L21.1033 27.16C22.37 28.4266 24.0767 27.96 24.8767 27.16L27.41 24.6266C28.45 23.5866 28.45 21.8933 27.41 20.8533L21.9033 15.3466ZM12.49 14.76L6.97 9.25331L9.49 6.71998L11.1833 8.41331L9.61 9.99998L11.49 11.88L13.0767 10.2933L15.01 12.2266L12.49 14.76ZM22.9967 25.28L17.49 19.7733L20.0233 17.24L21.9567 19.1733L20.37 20.76L22.25 22.64L23.8367 21.0533L25.53 22.7466L22.9967 25.28Z"/>
<path d="M27.8633 9.38665C28.3833 8.86665 28.3833 8.02665 27.8633 7.50665L24.7433 4.38665C24.1167 3.75999 23.25 3.99999 22.8633 4.38665L20.4233 6.82665L25.4233 11.8267L27.8633 9.38665Z"/>
</svg>
