<svg width="33" height="32" viewBox="0 0 33 32" fill="#007BC1" xmlns="http://www.w3.org/2000/svg">
<g clip-path="url(#clip0_214_5434)">
<path d="M16.75 17C18.9233 17 20.8433 17.52 22.4033 18.2C23.8433 18.84 24.75 20.28 24.75 21.84V24H8.75V21.8533C8.75 20.28 9.65667 18.84 11.0967 18.2133C12.6567 17.52 14.5767 17 16.75 17ZM6.08333 17.3333C7.55 17.3333 8.75 16.1333 8.75 14.6667C8.75 13.2 7.55 12 6.08333 12C4.61667 12 3.41667 13.2 3.41667 14.6667C3.41667 16.1333 4.61667 17.3333 6.08333 17.3333ZM7.59 18.8C7.09667 18.72 6.60333 18.6667 6.08333 18.6667C4.76333 18.6667 3.51 18.9467 2.37667 19.44C1.39 19.8667 0.75 20.8267 0.75 21.9067V24H6.75V21.8533C6.75 20.7467 7.05667 19.7067 7.59 18.8ZM27.4167 17.3333C28.8833 17.3333 30.0833 16.1333 30.0833 14.6667C30.0833 13.2 28.8833 12 27.4167 12C25.95 12 24.75 13.2 24.75 14.6667C24.75 16.1333 25.95 17.3333 27.4167 17.3333ZM32.75 21.9067C32.75 20.8267 32.11 19.8667 31.1233 19.44C29.99 18.9467 28.7367 18.6667 27.4167 18.6667C26.8967 18.6667 26.4033 18.72 25.91 18.8C26.4433 19.7067 26.75 20.7467 26.75 21.8533V24H32.75V21.9067ZM16.75 8C18.9633 8 20.75 9.78667 20.75 12C20.75 14.2133 18.9633 16 16.75 16C14.5367 16 12.75 14.2133 12.75 12C12.75 9.78667 14.5367 8 16.75 8Z" />
</g>
<defs>
<clipPath id="clip0_214_5434">
<rect width="32" height="32" fill="white" transform="translate(0.75)"/>
</clipPath>
</defs>
</svg>
