<svg width="814" height="458" viewBox="0 0 814 458" fill="none" xmlns="http://www.w3.org/2000/svg">
<g clip-path="url(#clip0_5285_361566)">
<rect width="814" height="458" fill="#4DA3D4"/>
<rect x="243" y="173" width="343" height="127" rx="26" fill="#424E54"/>
<rect x="235" y="165" width="343" height="127" rx="26" fill="white"/>
<rect x="271" y="199" width="58" height="58" rx="29" fill="#268FCA"/>
<rect x="361" y="206" width="41" height="44" fill="#268FCA"/>
<rect x="408" y="206" width="41" height="44" fill="#268FCA"/>
<rect x="455" y="206" width="41" height="44" fill="#268FCA"/>
<rect x="502" y="206" width="41" height="44" fill="#268FCA"/>
<rect x="353" y="-39" width="299" height="127" rx="26" fill="#B3D7EC"/>
<rect x="389" y="-5" width="58" height="58" rx="29" fill="#80BDE0"/>
<rect x="479" y="2" width="41" height="44" fill="#80BDE0"/>
<rect x="526" y="2" width="41" height="44" fill="#80BDE0"/>
<rect x="573" y="2" width="41" height="44" fill="#80BDE0"/>
<rect x="27" y="364" width="345" height="127" rx="26" fill="#B3D7EC"/>
<rect x="92" y="403" width="33.9411" height="33.9411" transform="rotate(45 92 403)" fill="#80BDE0"/>
<rect x="153" y="405" width="41" height="44" fill="#80BDE0"/>
<rect x="200" y="405" width="41" height="44" fill="#80BDE0"/>
<rect x="247" y="405" width="41" height="44" fill="#80BDE0"/>
<rect x="294" y="405" width="41" height="44" fill="#80BDE0"/>
<rect x="447" y="364" width="345" height="127" rx="26" fill="#268FCA"/>
<rect x="512" y="403" width="33.9411" height="33.9411" transform="rotate(45 512 403)" fill="#80BDE0"/>
<rect x="573" y="405" width="41" height="44" fill="#80BDE0"/>
<rect x="620" y="405" width="41" height="44" fill="#80BDE0"/>
<rect x="667" y="405" width="41" height="44" fill="#80BDE0"/>
<rect x="714" y="405" width="41" height="44" fill="#80BDE0"/>
<rect x="640" y="136" width="128" height="128" rx="24" fill="#80BDE0"/>
<rect x="676" y="172" width="56" height="56" fill="#4DA3D4"/>
<rect x="776" y="136" width="128" height="128" rx="24" fill="#80BDE0"/>
<rect x="812" y="172" width="56" height="56" fill="#4DA3D4"/>
<rect x="252.012" y="31" width="58" height="58" transform="rotate(135 252.012 31)" fill="#80BDE0"/>
<rect x="150" y="53" width="41" height="44" transform="rotate(-180 150 53)" fill="#80BDE0"/>
<rect x="103" y="53" width="41" height="44" transform="rotate(-180 103 53)" fill="#80BDE0"/>
<rect x="56" y="53" width="41" height="44" transform="rotate(-180 56 53)" fill="#80BDE0"/>
<rect x="273.5" y="91.5" width="294" height="122" rx="21.5" transform="rotate(-180 273.5 91.5)" stroke="#80BDE0" stroke-width="5"/>
<rect x="-23" y="206" width="41" height="44" fill="#80BDE0"/>
<rect x="24" y="206" width="41" height="44" fill="#80BDE0"/>
<rect x="71" y="206" width="41" height="44" fill="#80BDE0"/>
</g>
<defs>
<clipPath id="clip0_5285_361566">
<rect width="814" height="458" fill="white"/>
</clipPath>
</defs>
</svg>
