<svg width="200" height="150" viewBox="0 0 200 150" fill="none" xmlns="http://www.w3.org/2000/svg">
<rect width="200" height="150" fill="#E2E5E5"/>
<rect x="61" y="31" width="79" height="36" rx="4" fill="#007BC1"/>
<path d="M78.3193 44.5059H81.2861C82.6624 44.5059 83.6559 44.7064 84.2666 45.1074C84.8818 45.5085 85.1895 46.1419 85.1895 47.0078C85.1895 47.5911 85.0391 48.0765 84.7383 48.4639C84.4375 48.8512 84.0046 49.0951 83.4395 49.1953V49.2637C84.1413 49.3958 84.6562 49.6579 84.9844 50.0498C85.3171 50.4372 85.4834 50.9635 85.4834 51.6289C85.4834 52.5267 85.1689 53.2308 84.54 53.7412C83.9157 54.2471 83.0452 54.5 81.9287 54.5H78.3193V44.5059ZM79.9531 48.6348H81.5254C82.209 48.6348 82.708 48.5277 83.0225 48.3135C83.3369 48.0947 83.4941 47.7256 83.4941 47.2061C83.4941 46.7367 83.3232 46.3971 82.9814 46.1875C82.6442 45.9779 82.1064 45.873 81.3682 45.873H79.9531V48.6348ZM79.9531 49.9609V53.126H81.6895C82.373 53.126 82.888 52.9961 83.2344 52.7363C83.5853 52.472 83.7607 52.0573 83.7607 51.4922C83.7607 50.9727 83.583 50.5876 83.2275 50.3369C82.8721 50.0863 82.332 49.9609 81.6074 49.9609H79.9531ZM92.7227 54.5L92.4971 53.5088H92.415C92.1917 53.8597 91.8727 54.1354 91.458 54.3359C91.0479 54.5365 90.5785 54.6367 90.0498 54.6367C89.1338 54.6367 88.4502 54.4089 87.999 53.9531C87.5479 53.4974 87.3223 52.807 87.3223 51.8818V46.9395H88.9424V51.6016C88.9424 52.1803 89.0609 52.6156 89.2979 52.9072C89.5348 53.1943 89.9062 53.3379 90.4121 53.3379C91.0866 53.3379 91.5811 53.1374 91.8955 52.7363C92.2145 52.3307 92.374 51.654 92.374 50.7061V46.9395H93.9873V54.5H92.7227ZM99.0938 53.3379C99.4857 53.3379 99.8776 53.2764 100.27 53.1533V54.3633C100.092 54.4408 99.8617 54.5046 99.5791 54.5547C99.3011 54.6094 99.0117 54.6367 98.7109 54.6367C97.1888 54.6367 96.4277 53.8346 96.4277 52.2305V48.1562H95.3955V47.4453L96.5029 46.8574L97.0498 45.2578H98.041V46.9395H100.194V48.1562H98.041V52.2031C98.041 52.5905 98.1367 52.8776 98.3281 53.0645C98.5241 53.2467 98.7793 53.3379 99.0938 53.3379ZM104.604 53.3379C104.995 53.3379 105.387 53.2764 105.779 53.1533V54.3633C105.602 54.4408 105.371 54.5046 105.089 54.5547C104.811 54.6094 104.521 54.6367 104.221 54.6367C102.699 54.6367 101.938 53.8346 101.938 52.2305V48.1562H100.905V47.4453L102.013 46.8574L102.56 45.2578H103.551V46.9395H105.704V48.1562H103.551V52.2031C103.551 52.5905 103.646 52.8776 103.838 53.0645C104.034 53.2467 104.289 53.3379 104.604 53.3379ZM114.003 50.7061C114.003 51.9411 113.686 52.9049 113.053 53.5977C112.419 54.2904 111.537 54.6367 110.407 54.6367C109.701 54.6367 109.076 54.4772 108.534 54.1582C107.992 53.8392 107.575 53.3812 107.283 52.7842C106.992 52.1872 106.846 51.4945 106.846 50.7061C106.846 49.4801 107.16 48.5231 107.789 47.835C108.418 47.1468 109.304 46.8027 110.448 46.8027C111.542 46.8027 112.408 47.1559 113.046 47.8623C113.684 48.5641 114.003 49.512 114.003 50.7061ZM108.5 50.7061C108.5 52.4515 109.145 53.3242 110.435 53.3242C111.711 53.3242 112.349 52.4515 112.349 50.7061C112.349 48.9788 111.706 48.1152 110.421 48.1152C109.746 48.1152 109.257 48.3385 108.951 48.7852C108.65 49.2318 108.5 49.8721 108.5 50.7061ZM122.507 54.5H120.894V49.8516C120.894 49.2682 120.775 48.833 120.538 48.5459C120.306 48.2588 119.934 48.1152 119.424 48.1152C118.745 48.1152 118.248 48.3158 117.934 48.7168C117.619 49.1178 117.462 49.79 117.462 50.7334V54.5H115.855V46.9395H117.113L117.339 47.9307H117.421C117.649 47.5706 117.972 47.2926 118.392 47.0967C118.811 46.9007 119.276 46.8027 119.786 46.8027C121.6 46.8027 122.507 47.7256 122.507 49.5713V54.5Z" fill="white"/>
<rect x="61" y="83" width="79" height="36" rx="4" fill="#007BC1"/>
<path d="M78.3193 96.5059H81.2861C82.6624 96.5059 83.6559 96.7064 84.2666 97.1074C84.8818 97.5085 85.1895 98.1419 85.1895 99.0078C85.1895 99.5911 85.0391 100.076 84.7383 100.464C84.4375 100.851 84.0046 101.095 83.4395 101.195V101.264C84.1413 101.396 84.6562 101.658 84.9844 102.05C85.3171 102.437 85.4834 102.964 85.4834 103.629C85.4834 104.527 85.1689 105.231 84.54 105.741C83.9157 106.247 83.0452 106.5 81.9287 106.5H78.3193V96.5059ZM79.9531 100.635H81.5254C82.209 100.635 82.708 100.528 83.0225 100.313C83.3369 100.095 83.4941 99.7256 83.4941 99.2061C83.4941 98.7367 83.3232 98.3971 82.9814 98.1875C82.6442 97.9779 82.1064 97.873 81.3682 97.873H79.9531V100.635ZM79.9531 101.961V105.126H81.6895C82.373 105.126 82.888 104.996 83.2344 104.736C83.5853 104.472 83.7607 104.057 83.7607 103.492C83.7607 102.973 83.583 102.588 83.2275 102.337C82.8721 102.086 82.332 101.961 81.6074 101.961H79.9531ZM92.7227 106.5L92.4971 105.509H92.415C92.1917 105.86 91.8727 106.135 91.458 106.336C91.0479 106.536 90.5785 106.637 90.0498 106.637C89.1338 106.637 88.4502 106.409 87.999 105.953C87.5479 105.497 87.3223 104.807 87.3223 103.882V98.9395H88.9424V103.602C88.9424 104.18 89.0609 104.616 89.2979 104.907C89.5348 105.194 89.9062 105.338 90.4121 105.338C91.0866 105.338 91.5811 105.137 91.8955 104.736C92.2145 104.331 92.374 103.654 92.374 102.706V98.9395H93.9873V106.5H92.7227ZM99.0938 105.338C99.4857 105.338 99.8776 105.276 100.27 105.153V106.363C100.092 106.441 99.8617 106.505 99.5791 106.555C99.3011 106.609 99.0117 106.637 98.7109 106.637C97.1888 106.637 96.4277 105.835 96.4277 104.23V100.156H95.3955V99.4453L96.5029 98.8574L97.0498 97.2578H98.041V98.9395H100.194V100.156H98.041V104.203C98.041 104.59 98.1367 104.878 98.3281 105.064C98.5241 105.247 98.7793 105.338 99.0938 105.338ZM104.604 105.338C104.995 105.338 105.387 105.276 105.779 105.153V106.363C105.602 106.441 105.371 106.505 105.089 106.555C104.811 106.609 104.521 106.637 104.221 106.637C102.699 106.637 101.938 105.835 101.938 104.23V100.156H100.905V99.4453L102.013 98.8574L102.56 97.2578H103.551V98.9395H105.704V100.156H103.551V104.203C103.551 104.59 103.646 104.878 103.838 105.064C104.034 105.247 104.289 105.338 104.604 105.338ZM114.003 102.706C114.003 103.941 113.686 104.905 113.053 105.598C112.419 106.29 111.537 106.637 110.407 106.637C109.701 106.637 109.076 106.477 108.534 106.158C107.992 105.839 107.575 105.381 107.283 104.784C106.992 104.187 106.846 103.494 106.846 102.706C106.846 101.48 107.16 100.523 107.789 99.835C108.418 99.1468 109.304 98.8027 110.448 98.8027C111.542 98.8027 112.408 99.1559 113.046 99.8623C113.684 100.564 114.003 101.512 114.003 102.706ZM108.5 102.706C108.5 104.451 109.145 105.324 110.435 105.324C111.711 105.324 112.349 104.451 112.349 102.706C112.349 100.979 111.706 100.115 110.421 100.115C109.746 100.115 109.257 100.339 108.951 100.785C108.65 101.232 108.5 101.872 108.5 102.706ZM122.507 106.5H120.894V101.852C120.894 101.268 120.775 100.833 120.538 100.546C120.306 100.259 119.934 100.115 119.424 100.115C118.745 100.115 118.248 100.316 117.934 100.717C117.619 101.118 117.462 101.79 117.462 102.733V106.5H115.855V98.9395H117.113L117.339 99.9307H117.421C117.649 99.5706 117.972 99.2926 118.392 99.0967C118.811 98.9007 119.276 98.8027 119.786 98.8027C121.6 98.8027 122.507 99.7256 122.507 101.571V106.5Z" fill="white"/>
<line x1="200" y1="67.5" x2="-5.74248e-08" y2="67.5" stroke="#01BFA5" stroke-dasharray="2 2"/>
<line x1="200" y1="82.5" x2="-5.74248e-08" y2="82.5" stroke="#01BFA5" stroke-dasharray="2 2"/>
<rect width="20" height="18" transform="translate(156 66)" fill="#01BFA5"/>
<path d="M162.983 80H161.712V71.5713L159.162 72.5078V71.3594L162.785 69.999H162.983V80ZM171.651 70.04V71.1133H171.419C170.435 71.1315 169.651 71.4232 169.067 71.9883C168.484 72.5534 168.147 73.3486 168.056 74.374C168.58 73.7725 169.295 73.4717 170.202 73.4717C171.068 73.4717 171.758 73.777 172.273 74.3877C172.793 74.9984 173.053 75.7868 173.053 76.7529C173.053 77.7783 172.772 78.5986 172.212 79.2139C171.656 79.8291 170.909 80.1367 169.97 80.1367C169.017 80.1367 168.245 79.7721 167.652 79.043C167.06 78.3092 166.764 77.3659 166.764 76.2129V75.7275C166.764 73.8955 167.153 72.4964 167.933 71.5303C168.716 70.5596 169.881 70.0628 171.426 70.04H171.651ZM169.99 74.5244C169.557 74.5244 169.159 74.6543 168.794 74.9141C168.429 75.1738 168.176 75.4997 168.035 75.8916V76.3564C168.035 77.1768 168.22 77.8376 168.589 78.3389C168.958 78.8402 169.418 79.0908 169.97 79.0908C170.539 79.0908 170.986 78.8812 171.31 78.4619C171.638 78.0426 171.802 77.4935 171.802 76.8145C171.802 76.1309 171.635 75.5794 171.303 75.1602C170.975 74.7363 170.537 74.5244 169.99 74.5244Z" fill="white"/>
</svg>
