<svg width="200" height="150" viewBox="0 0 200 150" fill="none" xmlns="http://www.w3.org/2000/svg">
<g clip-path="url(#clip0_5360_312185)">
<rect width="200" height="150" fill="#E2E5E5"/>
<g filter="url(#filter0_ddd_5360_312185)">
<rect x="50" y="57" width="99" height="36" rx="4" fill="#007BC1"/>
<path d="M67.3193 70.5059H70.2861C71.6624 70.5059 72.6559 70.7064 73.2666 71.1074C73.8818 71.5085 74.1895 72.1419 74.1895 73.0078C74.1895 73.5911 74.0391 74.0765 73.7383 74.4639C73.4375 74.8512 73.0046 75.0951 72.4395 75.1953V75.2637C73.1413 75.3958 73.6562 75.6579 73.9844 76.0498C74.3171 76.4372 74.4834 76.9635 74.4834 77.6289C74.4834 78.5267 74.1689 79.2308 73.54 79.7412C72.9157 80.2471 72.0452 80.5 70.9287 80.5H67.3193V70.5059ZM68.9531 74.6348H70.5254C71.209 74.6348 71.708 74.5277 72.0225 74.3135C72.3369 74.0947 72.4941 73.7256 72.4941 73.2061C72.4941 72.7367 72.3232 72.3971 71.9814 72.1875C71.6442 71.9779 71.1064 71.873 70.3682 71.873H68.9531V74.6348ZM68.9531 75.9609V79.126H70.6895C71.373 79.126 71.888 78.9961 72.2344 78.7363C72.5853 78.472 72.7607 78.0573 72.7607 77.4922C72.7607 76.9727 72.583 76.5876 72.2275 76.3369C71.8721 76.0863 71.332 75.9609 70.6074 75.9609H68.9531ZM81.7227 80.5L81.4971 79.5088H81.415C81.1917 79.8597 80.8727 80.1354 80.458 80.3359C80.0479 80.5365 79.5785 80.6367 79.0498 80.6367C78.1338 80.6367 77.4502 80.4089 76.999 79.9531C76.5479 79.4974 76.3223 78.807 76.3223 77.8818V72.9395H77.9424V77.6016C77.9424 78.1803 78.0609 78.6156 78.2979 78.9072C78.5348 79.1943 78.9062 79.3379 79.4121 79.3379C80.0866 79.3379 80.5811 79.1374 80.8955 78.7363C81.2145 78.3307 81.374 77.654 81.374 76.7061V72.9395H82.9873V80.5H81.7227ZM88.0938 79.3379C88.4857 79.3379 88.8776 79.2764 89.2695 79.1533V80.3633C89.0918 80.4408 88.8617 80.5046 88.5791 80.5547C88.3011 80.6094 88.0117 80.6367 87.7109 80.6367C86.1888 80.6367 85.4277 79.8346 85.4277 78.2305V74.1562H84.3955V73.4453L85.5029 72.8574L86.0498 71.2578H87.041V72.9395H89.1943V74.1562H87.041V78.2031C87.041 78.5905 87.1367 78.8776 87.3281 79.0645C87.5241 79.2467 87.7793 79.3379 88.0938 79.3379ZM93.6035 79.3379C93.9954 79.3379 94.3874 79.2764 94.7793 79.1533V80.3633C94.6016 80.4408 94.3714 80.5046 94.0889 80.5547C93.8109 80.6094 93.5215 80.6367 93.2207 80.6367C91.6986 80.6367 90.9375 79.8346 90.9375 78.2305V74.1562H89.9053V73.4453L91.0127 72.8574L91.5596 71.2578H92.5508V72.9395H94.7041V74.1562H92.5508V78.2031C92.5508 78.5905 92.6465 78.8776 92.8379 79.0645C93.0339 79.2467 93.2891 79.3379 93.6035 79.3379ZM103.003 76.7061C103.003 77.9411 102.686 78.9049 102.053 79.5977C101.419 80.2904 100.537 80.6367 99.4072 80.6367C98.7008 80.6367 98.0765 80.4772 97.5342 80.1582C96.9919 79.8392 96.5749 79.3812 96.2832 78.7842C95.9915 78.1872 95.8457 77.4945 95.8457 76.7061C95.8457 75.4801 96.1602 74.5231 96.7891 73.835C97.418 73.1468 98.3044 72.8027 99.4482 72.8027C100.542 72.8027 101.408 73.1559 102.046 73.8623C102.684 74.5641 103.003 75.512 103.003 76.7061ZM97.5 76.7061C97.5 78.4515 98.1449 79.3242 99.4346 79.3242C100.711 79.3242 101.349 78.4515 101.349 76.7061C101.349 74.9788 100.706 74.1152 99.4209 74.1152C98.7464 74.1152 98.2565 74.3385 97.9512 74.7852C97.6504 75.2318 97.5 75.8721 97.5 76.7061ZM111.507 80.5H109.894V75.8516C109.894 75.2682 109.775 74.833 109.538 74.5459C109.306 74.2588 108.934 74.1152 108.424 74.1152C107.745 74.1152 107.248 74.3158 106.934 74.7168C106.619 75.1178 106.462 75.79 106.462 76.7334V80.5H104.855V72.9395H106.113L106.339 73.9307H106.421C106.649 73.5706 106.972 73.2926 107.392 73.0967C107.811 72.9007 108.276 72.8027 108.786 72.8027C110.6 72.8027 111.507 73.7256 111.507 75.5713V80.5Z" fill="white"/>
<path d="M125.667 73.6665L129 76.9998L132.334 73.6665H125.667Z" fill="white"/>
</g>
<line x1="50.5" y1="-3" x2="50.5" y2="150" stroke="#01BFA5" stroke-dasharray="2 2"/>
<line x1="66.5" y1="-3" x2="66.5" y2="150" stroke="#01BFA5" stroke-dasharray="2 2"/>
<line x1="113.5" y1="-3" x2="113.5" y2="150" stroke="#01BFA5" stroke-dasharray="2 2"/>
<line x1="136.5" y1="-3" x2="136.5" y2="150" stroke="#01BFA5" stroke-dasharray="2 2"/>
<line x1="4.37114e-08" y1="57.5" x2="200" y2="57.5" stroke="#2A7AFF" stroke-dasharray="2 2"/>
<line x1="4.37114e-08" y1="92.5" x2="200" y2="92.5" stroke="#2A7AFF" stroke-dasharray="2 2"/>
<line x1="121.5" y1="-3" x2="121.5" y2="150" stroke="#01BFA5" stroke-dasharray="2 2"/>
<line x1="148.5" y1="-3" x2="148.5" y2="150" stroke="#01BFA5" stroke-dasharray="2 2"/>
<rect width="20" height="18" transform="translate(48 31)" fill="#01BFA5"/>
<path d="M54.9834 45H53.7119V36.5713L51.1621 37.5078V36.3594L54.7852 34.999H54.9834V45ZM63.6514 35.04V36.1133H63.4189C62.4346 36.1315 61.6507 36.4232 61.0674 36.9883C60.484 37.5534 60.1468 38.3486 60.0557 39.374C60.5798 38.7725 61.2952 38.4717 62.2021 38.4717C63.068 38.4717 63.7585 38.777 64.2734 39.3877C64.793 39.9984 65.0527 40.7868 65.0527 41.7529C65.0527 42.7783 64.7725 43.5986 64.2119 44.2139C63.6559 44.8291 62.9085 45.1367 61.9697 45.1367C61.0173 45.1367 60.2448 44.7721 59.6523 44.043C59.0599 43.3092 58.7637 42.3659 58.7637 41.2129V40.7275C58.7637 38.8955 59.1533 37.4964 59.9326 36.5303C60.7165 35.5596 61.8809 35.0628 63.4258 35.04H63.6514ZM61.9902 39.5244C61.5573 39.5244 61.1585 39.6543 60.7939 39.9141C60.4294 40.1738 60.1764 40.4997 60.0352 40.8916V41.3564C60.0352 42.1768 60.2197 42.8376 60.5889 43.3389C60.958 43.8402 61.4183 44.0908 61.9697 44.0908C62.5394 44.0908 62.986 43.8812 63.3096 43.4619C63.6377 43.0426 63.8018 42.4935 63.8018 41.8145C63.8018 41.1309 63.6354 40.5794 63.3027 40.1602C62.9746 39.7363 62.5371 39.5244 61.9902 39.5244Z" fill="white"/>
<rect width="47" height="18" transform="translate(106 87)" fill="#FF1844"/>
<path d="M112.983 101H111.712V92.5713L109.162 93.5078V92.3594L112.785 90.999H112.983V101ZM121.651 91.04V92.1133H121.419C120.435 92.1315 119.651 92.4232 119.067 92.9883C118.484 93.5534 118.147 94.3486 118.056 95.374C118.58 94.7725 119.295 94.4717 120.202 94.4717C121.068 94.4717 121.758 94.777 122.273 95.3877C122.793 95.9984 123.053 96.7868 123.053 97.7529C123.053 98.7783 122.772 99.5986 122.212 100.214C121.656 100.829 120.909 101.137 119.97 101.137C119.017 101.137 118.245 100.772 117.652 100.043C117.06 99.3092 116.764 98.3659 116.764 97.2129V96.7275C116.764 94.8955 117.153 93.4964 117.933 92.5303C118.716 91.5596 119.881 91.0628 121.426 91.04H121.651ZM119.99 95.5244C119.557 95.5244 119.159 95.6543 118.794 95.9141C118.429 96.1738 118.176 96.4997 118.035 96.8916V97.3564C118.035 98.1768 118.22 98.8376 118.589 99.3389C118.958 99.8402 119.418 100.091 119.97 100.091C120.539 100.091 120.986 99.8812 121.31 99.4619C121.638 99.0426 121.802 98.4935 121.802 97.8145C121.802 97.1309 121.635 96.5794 121.303 96.1602C120.975 95.7363 120.537 95.5244 119.99 95.5244ZM130.784 97.2881H127.448V96.2559H130.784V97.2881ZM141.886 101H135.364V100.091L138.81 96.2627C139.32 95.6839 139.671 95.2145 139.862 94.8545C140.058 94.4899 140.156 94.1139 140.156 93.7266C140.156 93.207 139.999 92.7809 139.685 92.4482C139.37 92.1156 138.951 91.9492 138.427 91.9492C137.798 91.9492 137.308 92.1292 136.957 92.4893C136.611 92.8447 136.438 93.3415 136.438 93.9795H135.173C135.173 93.0635 135.467 92.3229 136.055 91.7578C136.647 91.1927 137.438 90.9102 138.427 90.9102C139.352 90.9102 140.083 91.154 140.621 91.6416C141.159 92.1247 141.428 92.7695 141.428 93.5762C141.428 94.556 140.803 95.7227 139.555 97.0762L136.889 99.9678H141.886V101ZM149.467 96.7549C149.467 98.236 149.214 99.3366 148.708 100.057C148.202 100.777 147.411 101.137 146.336 101.137C145.274 101.137 144.488 100.786 143.978 100.084C143.467 99.3776 143.203 98.3249 143.185 96.9258V95.2373C143.185 93.7744 143.438 92.6875 143.943 91.9766C144.449 91.2656 145.242 90.9102 146.322 90.9102C147.393 90.9102 148.182 91.2542 148.688 91.9424C149.193 92.626 149.453 93.6833 149.467 95.1143V96.7549ZM148.202 95.0254C148.202 93.9544 148.052 93.1751 147.751 92.6875C147.45 92.1953 146.974 91.9492 146.322 91.9492C145.675 91.9492 145.203 92.193 144.907 92.6807C144.611 93.1683 144.458 93.918 144.449 94.9297V96.9531C144.449 98.0286 144.604 98.8239 144.914 99.3389C145.229 99.8493 145.702 100.104 146.336 100.104C146.96 100.104 147.423 99.863 147.724 99.3799C148.029 98.8968 148.188 98.1357 148.202 97.0967V95.0254Z" fill="white"/>
<rect width="20" height="18" transform="translate(132 31)" fill="#01BFA5"/>
<path d="M138.983 45H137.712V36.5713L135.162 37.5078V36.3594L138.785 34.999H138.983V45ZM149.21 45H142.688V44.0908L146.134 40.2627C146.644 39.6839 146.995 39.2145 147.187 38.8545C147.382 38.4899 147.48 38.1139 147.48 37.7266C147.48 37.207 147.323 36.7809 147.009 36.4482C146.694 36.1156 146.275 35.9492 145.751 35.9492C145.122 35.9492 144.632 36.1292 144.281 36.4893C143.935 36.8447 143.762 37.3415 143.762 37.9795H142.497C142.497 37.0635 142.791 36.3229 143.379 35.7578C143.971 35.1927 144.762 34.9102 145.751 34.9102C146.676 34.9102 147.408 35.154 147.945 35.6416C148.483 36.1247 148.752 36.7695 148.752 37.5762C148.752 38.556 148.128 39.7227 146.879 41.0762L144.213 43.9678H149.21V45Z" fill="white"/>
<rect width="20" height="18" transform="translate(157 66)" fill="#2A7AFF"/>
<path d="M161.666 74.4082H162.616C163.213 74.3991 163.683 74.2419 164.024 73.9365C164.366 73.6312 164.537 73.2188 164.537 72.6992C164.537 71.5326 163.956 70.9492 162.794 70.9492C162.247 70.9492 161.81 71.1064 161.481 71.4209C161.158 71.7308 160.996 72.1432 160.996 72.6582H159.731C159.731 71.8698 160.019 71.2158 160.593 70.6963C161.172 70.1722 161.905 69.9102 162.794 69.9102C163.733 69.9102 164.469 70.1585 165.002 70.6553C165.535 71.152 165.802 71.8424 165.802 72.7266C165.802 73.1595 165.66 73.5788 165.378 73.9844C165.1 74.39 164.719 74.693 164.236 74.8936C164.783 75.0667 165.205 75.3538 165.501 75.7549C165.802 76.1559 165.952 76.6458 165.952 77.2246C165.952 78.1178 165.66 78.8265 165.077 79.3506C164.494 79.8747 163.735 80.1367 162.801 80.1367C161.867 80.1367 161.105 79.8838 160.518 79.3779C159.934 78.8721 159.643 78.2044 159.643 77.375H160.914C160.914 77.8991 161.085 78.3184 161.427 78.6328C161.769 78.9473 162.227 79.1045 162.801 79.1045C163.411 79.1045 163.879 78.945 164.202 78.626C164.526 78.307 164.688 77.849 164.688 77.252C164.688 76.6732 164.51 76.2288 164.154 75.9189C163.799 75.609 163.286 75.4495 162.616 75.4404H161.666V74.4082ZM172.651 70.04V71.1133H172.419C171.435 71.1315 170.651 71.4232 170.067 71.9883C169.484 72.5534 169.147 73.3486 169.056 74.374C169.58 73.7725 170.295 73.4717 171.202 73.4717C172.068 73.4717 172.758 73.777 173.273 74.3877C173.793 74.9984 174.053 75.7868 174.053 76.7529C174.053 77.7783 173.772 78.5986 173.212 79.2139C172.656 79.8291 171.909 80.1367 170.97 80.1367C170.017 80.1367 169.245 79.7721 168.652 79.043C168.06 78.3092 167.764 77.3659 167.764 76.2129V75.7275C167.764 73.8955 168.153 72.4964 168.933 71.5303C169.716 70.5596 170.881 70.0628 172.426 70.04H172.651ZM170.99 74.5244C170.557 74.5244 170.159 74.6543 169.794 74.9141C169.429 75.1738 169.176 75.4997 169.035 75.8916V76.3564C169.035 77.1768 169.22 77.8376 169.589 78.3389C169.958 78.8402 170.418 79.0908 170.97 79.0908C171.539 79.0908 171.986 78.8812 172.31 78.4619C172.638 78.0426 172.802 77.4935 172.802 76.8145C172.802 76.1309 172.635 75.5794 172.303 75.1602C171.975 74.7363 171.537 74.5244 170.99 74.5244Z" fill="white"/>
<rect width="12" height="18" transform="translate(112 31)" fill="#01BFA5"/>
<path d="M120.863 37.6445C120.863 38.1413 120.731 38.5833 120.467 38.9707C120.207 39.3581 119.854 39.6611 119.407 39.8799C119.927 40.1032 120.337 40.429 120.638 40.8574C120.943 41.2858 121.096 41.7712 121.096 42.3135C121.096 43.1748 120.804 43.8607 120.221 44.3711C119.642 44.8815 118.879 45.1367 117.931 45.1367C116.974 45.1367 116.206 44.8815 115.627 44.3711C115.053 43.8561 114.766 43.1702 114.766 42.3135C114.766 41.7757 114.911 41.2904 115.203 40.8574C115.499 40.4245 115.907 40.0964 116.427 39.873C115.985 39.6543 115.636 39.3512 115.381 38.9639C115.126 38.5765 114.998 38.1367 114.998 37.6445C114.998 36.806 115.267 36.1406 115.805 35.6484C116.342 35.1562 117.051 34.9102 117.931 34.9102C118.806 34.9102 119.512 35.1562 120.05 35.6484C120.592 36.1406 120.863 36.806 120.863 37.6445ZM119.831 42.2861C119.831 41.7301 119.653 41.2767 119.298 40.9258C118.947 40.5749 118.487 40.3994 117.917 40.3994C117.347 40.3994 116.889 40.5726 116.543 40.9189C116.201 41.2653 116.03 41.721 116.03 42.2861C116.03 42.8512 116.197 43.2956 116.529 43.6191C116.867 43.9427 117.334 44.1045 117.931 44.1045C118.523 44.1045 118.988 43.9427 119.325 43.6191C119.662 43.291 119.831 42.8467 119.831 42.2861ZM117.931 35.9492C117.434 35.9492 117.031 36.1042 116.721 36.4141C116.415 36.7194 116.263 37.1364 116.263 37.665C116.263 38.1709 116.413 38.5811 116.714 38.8955C117.019 39.2054 117.425 39.3604 117.931 39.3604C118.437 39.3604 118.84 39.2054 119.141 38.8955C119.446 38.5811 119.599 38.1709 119.599 37.665C119.599 37.1592 119.441 36.7467 119.127 36.4277C118.812 36.1087 118.414 35.9492 117.931 35.9492Z" fill="white"/>
<rect x="121.5" y="67.5" width="15" height="15" stroke="#FF1844"/>
</g>
<defs>
<filter id="filter0_ddd_5360_312185" x="47" y="55" width="105" height="42" filterUnits="userSpaceOnUse" color-interpolation-filters="sRGB">
<feFlood flood-opacity="0" result="BackgroundImageFix"/>
<feColorMatrix in="SourceAlpha" type="matrix" values="0 0 0 0 0 0 0 0 0 0 0 0 0 0 0 0 0 0 127 0" result="hardAlpha"/>
<feOffset dy="1"/>
<feGaussianBlur stdDeviation="1.5"/>
<feColorMatrix type="matrix" values="0 0 0 0 0 0 0 0 0 0 0 0 0 0 0 0 0 0 0.12 0"/>
<feBlend mode="normal" in2="BackgroundImageFix" result="effect1_dropShadow_5360_312185"/>
<feColorMatrix in="SourceAlpha" type="matrix" values="0 0 0 0 0 0 0 0 0 0 0 0 0 0 0 0 0 0 127 0" result="hardAlpha"/>
<feOffset dy="1"/>
<feGaussianBlur stdDeviation="0.5"/>
<feColorMatrix type="matrix" values="0 0 0 0 0 0 0 0 0 0 0 0 0 0 0 0 0 0 0.14 0"/>
<feBlend mode="normal" in2="effect1_dropShadow_5360_312185" result="effect2_dropShadow_5360_312185"/>
<feColorMatrix in="SourceAlpha" type="matrix" values="0 0 0 0 0 0 0 0 0 0 0 0 0 0 0 0 0 0 127 0" result="hardAlpha"/>
<feMorphology radius="1" operator="erode" in="SourceAlpha" result="effect3_dropShadow_5360_312185"/>
<feOffset dy="2"/>
<feGaussianBlur stdDeviation="0.5"/>
<feColorMatrix type="matrix" values="0 0 0 0 0 0 0 0 0 0 0 0 0 0 0 0 0 0 0.2 0"/>
<feBlend mode="normal" in2="effect2_dropShadow_5360_312185" result="effect3_dropShadow_5360_312185"/>
<feBlend mode="normal" in="SourceGraphic" in2="effect3_dropShadow_5360_312185" result="shape"/>
</filter>
<clipPath id="clip0_5360_312185">
<rect width="200" height="150" fill="white"/>
</clipPath>
</defs>
</svg>
