<svg width="200" height="150" viewBox="0 0 200 150" fill="none" xmlns="http://www.w3.org/2000/svg">
<g clip-path="url(#clip0_5417_312828)">
<rect width="200" height="150" fill="#E2E5E5"/>
<rect x="13" y="57" width="79" height="36" rx="4" fill="#007BC1"/>
<path d="M30.3193 70.5059H33.2861C34.6624 70.5059 35.6559 70.7064 36.2666 71.1074C36.8818 71.5085 37.1895 72.1419 37.1895 73.0078C37.1895 73.5911 37.0391 74.0765 36.7383 74.4639C36.4375 74.8512 36.0046 75.0951 35.4395 75.1953V75.2637C36.1413 75.3958 36.6562 75.6579 36.9844 76.0498C37.3171 76.4372 37.4834 76.9635 37.4834 77.6289C37.4834 78.5267 37.1689 79.2308 36.54 79.7412C35.9157 80.2471 35.0452 80.5 33.9287 80.5H30.3193V70.5059ZM31.9531 74.6348H33.5254C34.209 74.6348 34.708 74.5277 35.0225 74.3135C35.3369 74.0947 35.4941 73.7256 35.4941 73.2061C35.4941 72.7367 35.3232 72.3971 34.9814 72.1875C34.6442 71.9779 34.1064 71.873 33.3682 71.873H31.9531V74.6348ZM31.9531 75.9609V79.126H33.6895C34.373 79.126 34.888 78.9961 35.2344 78.7363C35.5853 78.472 35.7607 78.0573 35.7607 77.4922C35.7607 76.9727 35.583 76.5876 35.2275 76.3369C34.8721 76.0863 34.332 75.9609 33.6074 75.9609H31.9531ZM44.7227 80.5L44.4971 79.5088H44.415C44.1917 79.8597 43.8727 80.1354 43.458 80.3359C43.0479 80.5365 42.5785 80.6367 42.0498 80.6367C41.1338 80.6367 40.4502 80.4089 39.999 79.9531C39.5479 79.4974 39.3223 78.807 39.3223 77.8818V72.9395H40.9424V77.6016C40.9424 78.1803 41.0609 78.6156 41.2979 78.9072C41.5348 79.1943 41.9062 79.3379 42.4121 79.3379C43.0866 79.3379 43.5811 79.1374 43.8955 78.7363C44.2145 78.3307 44.374 77.654 44.374 76.7061V72.9395H45.9873V80.5H44.7227ZM51.0938 79.3379C51.4857 79.3379 51.8776 79.2764 52.2695 79.1533V80.3633C52.0918 80.4408 51.8617 80.5046 51.5791 80.5547C51.3011 80.6094 51.0117 80.6367 50.7109 80.6367C49.1888 80.6367 48.4277 79.8346 48.4277 78.2305V74.1562H47.3955V73.4453L48.5029 72.8574L49.0498 71.2578H50.041V72.9395H52.1943V74.1562H50.041V78.2031C50.041 78.5905 50.1367 78.8776 50.3281 79.0645C50.5241 79.2467 50.7793 79.3379 51.0938 79.3379ZM56.6035 79.3379C56.9954 79.3379 57.3874 79.2764 57.7793 79.1533V80.3633C57.6016 80.4408 57.3714 80.5046 57.0889 80.5547C56.8109 80.6094 56.5215 80.6367 56.2207 80.6367C54.6986 80.6367 53.9375 79.8346 53.9375 78.2305V74.1562H52.9053V73.4453L54.0127 72.8574L54.5596 71.2578H55.5508V72.9395H57.7041V74.1562H55.5508V78.2031C55.5508 78.5905 55.6465 78.8776 55.8379 79.0645C56.0339 79.2467 56.2891 79.3379 56.6035 79.3379ZM66.0029 76.7061C66.0029 77.9411 65.6862 78.9049 65.0527 79.5977C64.4193 80.2904 63.5374 80.6367 62.4072 80.6367C61.7008 80.6367 61.0765 80.4772 60.5342 80.1582C59.9919 79.8392 59.5749 79.3812 59.2832 78.7842C58.9915 78.1872 58.8457 77.4945 58.8457 76.7061C58.8457 75.4801 59.1602 74.5231 59.7891 73.835C60.418 73.1468 61.3044 72.8027 62.4482 72.8027C63.542 72.8027 64.4079 73.1559 65.0459 73.8623C65.6839 74.5641 66.0029 75.512 66.0029 76.7061ZM60.5 76.7061C60.5 78.4515 61.1449 79.3242 62.4346 79.3242C63.7106 79.3242 64.3486 78.4515 64.3486 76.7061C64.3486 74.9788 63.7061 74.1152 62.4209 74.1152C61.7464 74.1152 61.2565 74.3385 60.9512 74.7852C60.6504 75.2318 60.5 75.8721 60.5 76.7061ZM74.5068 80.5H72.8936V75.8516C72.8936 75.2682 72.7751 74.833 72.5381 74.5459C72.3057 74.2588 71.9342 74.1152 71.4238 74.1152C70.7448 74.1152 70.248 74.3158 69.9336 74.7168C69.6191 75.1178 69.4619 75.79 69.4619 76.7334V80.5H67.8555V72.9395H69.1133L69.3389 73.9307H69.4209C69.6488 73.5706 69.9723 73.2926 70.3916 73.0967C70.8109 72.9007 71.2757 72.8027 71.7861 72.8027C73.5999 72.8027 74.5068 73.7256 74.5068 75.5713V80.5Z" fill="white"/>
<rect x="108" y="57" width="79" height="36" rx="4" fill="#007BC1"/>
<path d="M125.319 70.5059H128.286C129.662 70.5059 130.656 70.7064 131.267 71.1074C131.882 71.5085 132.189 72.1419 132.189 73.0078C132.189 73.5911 132.039 74.0765 131.738 74.4639C131.438 74.8512 131.005 75.0951 130.439 75.1953V75.2637C131.141 75.3958 131.656 75.6579 131.984 76.0498C132.317 76.4372 132.483 76.9635 132.483 77.6289C132.483 78.5267 132.169 79.2308 131.54 79.7412C130.916 80.2471 130.045 80.5 128.929 80.5H125.319V70.5059ZM126.953 74.6348H128.525C129.209 74.6348 129.708 74.5277 130.022 74.3135C130.337 74.0947 130.494 73.7256 130.494 73.2061C130.494 72.7367 130.323 72.3971 129.981 72.1875C129.644 71.9779 129.106 71.873 128.368 71.873H126.953V74.6348ZM126.953 75.9609V79.126H128.689C129.373 79.126 129.888 78.9961 130.234 78.7363C130.585 78.472 130.761 78.0573 130.761 77.4922C130.761 76.9727 130.583 76.5876 130.228 76.3369C129.872 76.0863 129.332 75.9609 128.607 75.9609H126.953ZM139.723 80.5L139.497 79.5088H139.415C139.192 79.8597 138.873 80.1354 138.458 80.3359C138.048 80.5365 137.578 80.6367 137.05 80.6367C136.134 80.6367 135.45 80.4089 134.999 79.9531C134.548 79.4974 134.322 78.807 134.322 77.8818V72.9395H135.942V77.6016C135.942 78.1803 136.061 78.6156 136.298 78.9072C136.535 79.1943 136.906 79.3379 137.412 79.3379C138.087 79.3379 138.581 79.1374 138.896 78.7363C139.215 78.3307 139.374 77.654 139.374 76.7061V72.9395H140.987V80.5H139.723ZM146.094 79.3379C146.486 79.3379 146.878 79.2764 147.27 79.1533V80.3633C147.092 80.4408 146.862 80.5046 146.579 80.5547C146.301 80.6094 146.012 80.6367 145.711 80.6367C144.189 80.6367 143.428 79.8346 143.428 78.2305V74.1562H142.396V73.4453L143.503 72.8574L144.05 71.2578H145.041V72.9395H147.194V74.1562H145.041V78.2031C145.041 78.5905 145.137 78.8776 145.328 79.0645C145.524 79.2467 145.779 79.3379 146.094 79.3379ZM151.604 79.3379C151.995 79.3379 152.387 79.2764 152.779 79.1533V80.3633C152.602 80.4408 152.371 80.5046 152.089 80.5547C151.811 80.6094 151.521 80.6367 151.221 80.6367C149.699 80.6367 148.938 79.8346 148.938 78.2305V74.1562H147.905V73.4453L149.013 72.8574L149.56 71.2578H150.551V72.9395H152.704V74.1562H150.551V78.2031C150.551 78.5905 150.646 78.8776 150.838 79.0645C151.034 79.2467 151.289 79.3379 151.604 79.3379ZM161.003 76.7061C161.003 77.9411 160.686 78.9049 160.053 79.5977C159.419 80.2904 158.537 80.6367 157.407 80.6367C156.701 80.6367 156.076 80.4772 155.534 80.1582C154.992 79.8392 154.575 79.3812 154.283 78.7842C153.992 78.1872 153.846 77.4945 153.846 76.7061C153.846 75.4801 154.16 74.5231 154.789 73.835C155.418 73.1468 156.304 72.8027 157.448 72.8027C158.542 72.8027 159.408 73.1559 160.046 73.8623C160.684 74.5641 161.003 75.512 161.003 76.7061ZM155.5 76.7061C155.5 78.4515 156.145 79.3242 157.435 79.3242C158.711 79.3242 159.349 78.4515 159.349 76.7061C159.349 74.9788 158.706 74.1152 157.421 74.1152C156.746 74.1152 156.257 74.3385 155.951 74.7852C155.65 75.2318 155.5 75.8721 155.5 76.7061ZM169.507 80.5H167.894V75.8516C167.894 75.2682 167.775 74.833 167.538 74.5459C167.306 74.2588 166.934 74.1152 166.424 74.1152C165.745 74.1152 165.248 74.3158 164.934 74.7168C164.619 75.1178 164.462 75.79 164.462 76.7334V80.5H162.855V72.9395H164.113L164.339 73.9307H164.421C164.649 73.5706 164.972 73.2926 165.392 73.0967C165.811 72.9007 166.276 72.8027 166.786 72.8027C168.6 72.8027 169.507 73.7256 169.507 75.5713V80.5Z" fill="white"/>
<line x1="92.5" y1="-3" x2="92.5" y2="150" stroke="#01BFA5" stroke-dasharray="2 2"/>
<line x1="107.5" y1="-3" x2="107.5" y2="150" stroke="#01BFA5" stroke-dasharray="2 2"/>
<rect width="20" height="18" transform="translate(90 31)" fill="#01BFA5"/>
<path d="M96.9834 45H95.7119V36.5713L93.1621 37.5078V36.3594L96.7852 34.999H96.9834V45ZM105.651 35.04V36.1133H105.419C104.435 36.1315 103.651 36.4232 103.067 36.9883C102.484 37.5534 102.147 38.3486 102.056 39.374C102.58 38.7725 103.295 38.4717 104.202 38.4717C105.068 38.4717 105.758 38.777 106.273 39.3877C106.793 39.9984 107.053 40.7868 107.053 41.7529C107.053 42.7783 106.772 43.5986 106.212 44.2139C105.656 44.8291 104.909 45.1367 103.97 45.1367C103.017 45.1367 102.245 44.7721 101.652 44.043C101.06 43.3092 100.764 42.3659 100.764 41.2129V40.7275C100.764 38.8955 101.153 37.4964 101.933 36.5303C102.716 35.5596 103.881 35.0628 105.426 35.04H105.651ZM103.99 39.5244C103.557 39.5244 103.159 39.6543 102.794 39.9141C102.429 40.1738 102.176 40.4997 102.035 40.8916V41.3564C102.035 42.1768 102.22 42.8376 102.589 43.3389C102.958 43.8402 103.418 44.0908 103.97 44.0908C104.539 44.0908 104.986 43.8812 105.31 43.4619C105.638 43.0426 105.802 42.4935 105.802 41.8145C105.802 41.1309 105.635 40.5794 105.303 40.1602C104.975 39.7363 104.537 39.5244 103.99 39.5244Z" fill="white"/>
</g>
<defs>
<clipPath id="clip0_5417_312828">
<rect width="200" height="150" fill="white"/>
</clipPath>
</defs>
</svg>
