<svg width="200" height="150" viewBox="0 0 200 150" fill="none" xmlns="http://www.w3.org/2000/svg">
<g clip-path="url(#clip0_5360_312111)">
<rect width="200" height="150" fill="#E2E5E5"/>
<g filter="url(#filter0_ddd_5360_312111)">
<rect x="50" y="57" width="99" height="36" rx="4" fill="#007BC1"/>
<path d="M74.6663 75.6668H70.6663V79.6668H69.333V75.6668H65.333V74.3335H69.333V70.3335H70.6663V74.3335H74.6663V75.6668Z" fill="white"/>
<path d="M87.3193 70.5059H90.2861C91.6624 70.5059 92.6559 70.7064 93.2666 71.1074C93.8818 71.5085 94.1895 72.1419 94.1895 73.0078C94.1895 73.5911 94.0391 74.0765 93.7383 74.4639C93.4375 74.8512 93.0046 75.0951 92.4395 75.1953V75.2637C93.1413 75.3958 93.6562 75.6579 93.9844 76.0498C94.3171 76.4372 94.4834 76.9635 94.4834 77.6289C94.4834 78.5267 94.1689 79.2308 93.54 79.7412C92.9157 80.2471 92.0452 80.5 90.9287 80.5H87.3193V70.5059ZM88.9531 74.6348H90.5254C91.209 74.6348 91.708 74.5277 92.0225 74.3135C92.3369 74.0947 92.4941 73.7256 92.4941 73.2061C92.4941 72.7367 92.3232 72.3971 91.9814 72.1875C91.6442 71.9779 91.1064 71.873 90.3682 71.873H88.9531V74.6348ZM88.9531 75.9609V79.126H90.6895C91.373 79.126 91.888 78.9961 92.2344 78.7363C92.5853 78.472 92.7607 78.0573 92.7607 77.4922C92.7607 76.9727 92.583 76.5876 92.2275 76.3369C91.8721 76.0863 91.332 75.9609 90.6074 75.9609H88.9531ZM101.723 80.5L101.497 79.5088H101.415C101.192 79.8597 100.873 80.1354 100.458 80.3359C100.048 80.5365 99.5785 80.6367 99.0498 80.6367C98.1338 80.6367 97.4502 80.4089 96.999 79.9531C96.5479 79.4974 96.3223 78.807 96.3223 77.8818V72.9395H97.9424V77.6016C97.9424 78.1803 98.0609 78.6156 98.2979 78.9072C98.5348 79.1943 98.9062 79.3379 99.4121 79.3379C100.087 79.3379 100.581 79.1374 100.896 78.7363C101.215 78.3307 101.374 77.654 101.374 76.7061V72.9395H102.987V80.5H101.723ZM108.094 79.3379C108.486 79.3379 108.878 79.2764 109.27 79.1533V80.3633C109.092 80.4408 108.862 80.5046 108.579 80.5547C108.301 80.6094 108.012 80.6367 107.711 80.6367C106.189 80.6367 105.428 79.8346 105.428 78.2305V74.1562H104.396V73.4453L105.503 72.8574L106.05 71.2578H107.041V72.9395H109.194V74.1562H107.041V78.2031C107.041 78.5905 107.137 78.8776 107.328 79.0645C107.524 79.2467 107.779 79.3379 108.094 79.3379ZM113.604 79.3379C113.995 79.3379 114.387 79.2764 114.779 79.1533V80.3633C114.602 80.4408 114.371 80.5046 114.089 80.5547C113.811 80.6094 113.521 80.6367 113.221 80.6367C111.699 80.6367 110.938 79.8346 110.938 78.2305V74.1562H109.905V73.4453L111.013 72.8574L111.56 71.2578H112.551V72.9395H114.704V74.1562H112.551V78.2031C112.551 78.5905 112.646 78.8776 112.838 79.0645C113.034 79.2467 113.289 79.3379 113.604 79.3379ZM123.003 76.7061C123.003 77.9411 122.686 78.9049 122.053 79.5977C121.419 80.2904 120.537 80.6367 119.407 80.6367C118.701 80.6367 118.076 80.4772 117.534 80.1582C116.992 79.8392 116.575 79.3812 116.283 78.7842C115.992 78.1872 115.846 77.4945 115.846 76.7061C115.846 75.4801 116.16 74.5231 116.789 73.835C117.418 73.1468 118.304 72.8027 119.448 72.8027C120.542 72.8027 121.408 73.1559 122.046 73.8623C122.684 74.5641 123.003 75.512 123.003 76.7061ZM117.5 76.7061C117.5 78.4515 118.145 79.3242 119.435 79.3242C120.711 79.3242 121.349 78.4515 121.349 76.7061C121.349 74.9788 120.706 74.1152 119.421 74.1152C118.746 74.1152 118.257 74.3385 117.951 74.7852C117.65 75.2318 117.5 75.8721 117.5 76.7061ZM131.507 80.5H129.894V75.8516C129.894 75.2682 129.775 74.833 129.538 74.5459C129.306 74.2588 128.934 74.1152 128.424 74.1152C127.745 74.1152 127.248 74.3158 126.934 74.7168C126.619 75.1178 126.462 75.79 126.462 76.7334V80.5H124.855V72.9395H126.113L126.339 73.9307H126.421C126.649 73.5706 126.972 73.2926 127.392 73.0967C127.811 72.9007 128.276 72.8027 128.786 72.8027C130.6 72.8027 131.507 73.7256 131.507 75.5713V80.5Z" fill="white"/>
</g>
<line x1="50.5" y1="-3" x2="50.5" y2="150" stroke="#01BFA5" stroke-dasharray="2 2"/>
<line x1="62.5" y1="-3" x2="62.5" y2="150" stroke="#01BFA5" stroke-dasharray="2 2"/>
<line x1="77.5" y1="-3" x2="77.5" y2="150" stroke="#01BFA5" stroke-dasharray="2 2"/>
<line x1="133.5" y1="-3" x2="133.5" y2="150" stroke="#01BFA5" stroke-dasharray="2 2"/>
<line x1="4.37114e-08" y1="57.5" x2="200" y2="57.5" stroke="#2A7AFF" stroke-dasharray="2 2"/>
<line x1="4.37114e-08" y1="92.5" x2="200" y2="92.5" stroke="#2A7AFF" stroke-dasharray="2 2"/>
<line x1="85.5" y1="-3" x2="85.5" y2="150" stroke="#01BFA5" stroke-dasharray="2 2"/>
<line x1="148.5" y1="-3" x2="148.5" y2="150" stroke="#01BFA5" stroke-dasharray="2 2"/>
<rect width="20" height="18" transform="translate(46 31)" fill="#01BFA5"/>
<path d="M52.9834 45H51.7119V36.5713L49.1621 37.5078V36.3594L52.7852 34.999H52.9834V45ZM63.21 45H56.6885V44.0908L60.1338 40.2627C60.6442 39.6839 60.9951 39.2145 61.1865 38.8545C61.3825 38.4899 61.4805 38.1139 61.4805 37.7266C61.4805 37.207 61.3232 36.7809 61.0088 36.4482C60.6943 36.1156 60.2751 35.9492 59.751 35.9492C59.1221 35.9492 58.6322 36.1292 58.2812 36.4893C57.9349 36.8447 57.7617 37.3415 57.7617 37.9795H56.4971C56.4971 37.0635 56.791 36.3229 57.3789 35.7578C57.9714 35.1927 58.762 34.9102 59.751 34.9102C60.6761 34.9102 61.4076 35.154 61.9453 35.6416C62.4831 36.1247 62.752 36.7695 62.752 37.5762C62.752 38.556 62.1276 39.7227 60.8789 41.0762L58.2129 43.9678H63.21V45Z" fill="white"/>
<rect width="47" height="18" transform="translate(47 87)" fill="#FF1844"/>
<path d="M53.9834 101H52.7119V92.5713L50.1621 93.5078V92.3594L53.7852 90.999H53.9834V101ZM62.6514 91.04V92.1133H62.4189C61.4346 92.1315 60.6507 92.4232 60.0674 92.9883C59.484 93.5534 59.1468 94.3486 59.0557 95.374C59.5798 94.7725 60.2952 94.4717 61.2021 94.4717C62.068 94.4717 62.7585 94.777 63.2734 95.3877C63.793 95.9984 64.0527 96.7868 64.0527 97.7529C64.0527 98.7783 63.7725 99.5986 63.2119 100.214C62.6559 100.829 61.9085 101.137 60.9697 101.137C60.0173 101.137 59.2448 100.772 58.6523 100.043C58.0599 99.3092 57.7637 98.3659 57.7637 97.2129V96.7275C57.7637 94.8955 58.1533 93.4964 58.9326 92.5303C59.7165 91.5596 60.8809 91.0628 62.4258 91.04H62.6514ZM60.9902 95.5244C60.5573 95.5244 60.1585 95.6543 59.7939 95.9141C59.4294 96.1738 59.1764 96.4997 59.0352 96.8916V97.3564C59.0352 98.1768 59.2197 98.8376 59.5889 99.3389C59.958 99.8402 60.4183 100.091 60.9697 100.091C61.5394 100.091 61.986 99.8812 62.3096 99.4619C62.6377 99.0426 62.8018 98.4935 62.8018 97.8145C62.8018 97.1309 62.6354 96.5794 62.3027 96.1602C61.9746 95.7363 61.5371 95.5244 60.9902 95.5244ZM71.7842 97.2881H68.4482V96.2559H71.7842V97.2881ZM82.8857 101H76.3643V100.091L79.8096 96.2627C80.32 95.6839 80.6709 95.2145 80.8623 94.8545C81.0583 94.4899 81.1562 94.1139 81.1562 93.7266C81.1562 93.207 80.999 92.7809 80.6846 92.4482C80.3701 92.1156 79.9508 91.9492 79.4268 91.9492C78.7979 91.9492 78.3079 92.1292 77.957 92.4893C77.6107 92.8447 77.4375 93.3415 77.4375 93.9795H76.1729C76.1729 93.0635 76.4668 92.3229 77.0547 91.7578C77.6471 91.1927 78.4378 90.9102 79.4268 90.9102C80.3519 90.9102 81.0833 91.154 81.6211 91.6416C82.1589 92.1247 82.4277 92.7695 82.4277 93.5762C82.4277 94.556 81.8034 95.7227 80.5547 97.0762L77.8887 99.9678H82.8857V101ZM90.4668 96.7549C90.4668 98.236 90.2139 99.3366 89.708 100.057C89.2021 100.777 88.4115 101.137 87.3359 101.137C86.2741 101.137 85.488 100.786 84.9775 100.084C84.4671 99.3776 84.2028 98.3249 84.1846 96.9258V95.2373C84.1846 93.7744 84.4375 92.6875 84.9434 91.9766C85.4492 91.2656 86.2422 90.9102 87.3223 90.9102C88.3932 90.9102 89.1816 91.2542 89.6875 91.9424C90.1934 92.626 90.4531 93.6833 90.4668 95.1143V96.7549ZM89.2021 95.0254C89.2021 93.9544 89.0518 93.1751 88.751 92.6875C88.4502 92.1953 87.974 91.9492 87.3223 91.9492C86.6751 91.9492 86.2035 92.193 85.9072 92.6807C85.611 93.1683 85.4583 93.918 85.4492 94.9297V96.9531C85.4492 98.0286 85.6042 98.8239 85.9141 99.3389C86.2285 99.8493 86.7025 100.104 87.3359 100.104C87.9603 100.104 88.4229 99.863 88.7236 99.3799C89.029 98.8968 89.1885 98.1357 89.2021 97.0967V95.0254Z" fill="white"/>
<rect width="20" height="18" transform="translate(131 31)" fill="#01BFA5"/>
<path d="M137.983 45H136.712V36.5713L134.162 37.5078V36.3594L137.785 34.999H137.983V45ZM146.651 35.04V36.1133H146.419C145.435 36.1315 144.651 36.4232 144.067 36.9883C143.484 37.5534 143.147 38.3486 143.056 39.374C143.58 38.7725 144.295 38.4717 145.202 38.4717C146.068 38.4717 146.758 38.777 147.273 39.3877C147.793 39.9984 148.053 40.7868 148.053 41.7529C148.053 42.7783 147.772 43.5986 147.212 44.2139C146.656 44.8291 145.909 45.1367 144.97 45.1367C144.017 45.1367 143.245 44.7721 142.652 44.043C142.06 43.3092 141.764 42.3659 141.764 41.2129V40.7275C141.764 38.8955 142.153 37.4964 142.933 36.5303C143.716 35.5596 144.881 35.0628 146.426 35.04H146.651ZM144.99 39.5244C144.557 39.5244 144.159 39.6543 143.794 39.9141C143.429 40.1738 143.176 40.4997 143.035 40.8916V41.3564C143.035 42.1768 143.22 42.8376 143.589 43.3389C143.958 43.8402 144.418 44.0908 144.97 44.0908C145.539 44.0908 145.986 43.8812 146.31 43.4619C146.638 43.0426 146.802 42.4935 146.802 41.8145C146.802 41.1309 146.635 40.5794 146.303 40.1602C145.975 39.7363 145.537 39.5244 144.99 39.5244Z" fill="white"/>
<rect width="20" height="18" transform="translate(157 66)" fill="#2A7AFF"/>
<path d="M161.666 74.4082H162.616C163.213 74.3991 163.683 74.2419 164.024 73.9365C164.366 73.6312 164.537 73.2188 164.537 72.6992C164.537 71.5326 163.956 70.9492 162.794 70.9492C162.247 70.9492 161.81 71.1064 161.481 71.4209C161.158 71.7308 160.996 72.1432 160.996 72.6582H159.731C159.731 71.8698 160.019 71.2158 160.593 70.6963C161.172 70.1722 161.905 69.9102 162.794 69.9102C163.733 69.9102 164.469 70.1585 165.002 70.6553C165.535 71.152 165.802 71.8424 165.802 72.7266C165.802 73.1595 165.66 73.5788 165.378 73.9844C165.1 74.39 164.719 74.693 164.236 74.8936C164.783 75.0667 165.205 75.3538 165.501 75.7549C165.802 76.1559 165.952 76.6458 165.952 77.2246C165.952 78.1178 165.66 78.8265 165.077 79.3506C164.494 79.8747 163.735 80.1367 162.801 80.1367C161.867 80.1367 161.105 79.8838 160.518 79.3779C159.934 78.8721 159.643 78.2044 159.643 77.375H160.914C160.914 77.8991 161.085 78.3184 161.427 78.6328C161.769 78.9473 162.227 79.1045 162.801 79.1045C163.411 79.1045 163.879 78.945 164.202 78.626C164.526 78.307 164.688 77.849 164.688 77.252C164.688 76.6732 164.51 76.2288 164.154 75.9189C163.799 75.609 163.286 75.4495 162.616 75.4404H161.666V74.4082ZM172.651 70.04V71.1133H172.419C171.435 71.1315 170.651 71.4232 170.067 71.9883C169.484 72.5534 169.147 73.3486 169.056 74.374C169.58 73.7725 170.295 73.4717 171.202 73.4717C172.068 73.4717 172.758 73.777 173.273 74.3877C173.793 74.9984 174.053 75.7868 174.053 76.7529C174.053 77.7783 173.772 78.5986 173.212 79.2139C172.656 79.8291 171.909 80.1367 170.97 80.1367C170.017 80.1367 169.245 79.7721 168.652 79.043C168.06 78.3092 167.764 77.3659 167.764 76.2129V75.7275C167.764 73.8955 168.153 72.4964 168.933 71.5303C169.716 70.5596 170.881 70.0628 172.426 70.04H172.651ZM170.99 74.5244C170.557 74.5244 170.159 74.6543 169.794 74.9141C169.429 75.1738 169.176 75.4997 169.035 75.8916V76.3564C169.035 77.1768 169.22 77.8376 169.589 78.3389C169.958 78.8402 170.418 79.0908 170.97 79.0908C171.539 79.0908 171.986 78.8812 172.31 78.4619C172.638 78.0426 172.802 77.4935 172.802 76.8145C172.802 76.1309 172.635 75.5794 172.303 75.1602C171.975 74.7363 171.537 74.5244 170.99 74.5244Z" fill="white"/>
<rect width="12" height="18" transform="translate(76 31)" fill="#01BFA5"/>
<path d="M84.8633 37.6445C84.8633 38.1413 84.7311 38.5833 84.4668 38.9707C84.207 39.3581 83.8538 39.6611 83.4072 39.8799C83.9268 40.1032 84.3369 40.429 84.6377 40.8574C84.943 41.2858 85.0957 41.7712 85.0957 42.3135C85.0957 43.1748 84.804 43.8607 84.2207 44.3711C83.6419 44.8815 82.8786 45.1367 81.9307 45.1367C80.9736 45.1367 80.2057 44.8815 79.627 44.3711C79.0527 43.8561 78.7656 43.1702 78.7656 42.3135C78.7656 41.7757 78.9115 41.2904 79.2031 40.8574C79.4993 40.4245 79.9072 40.0964 80.4268 39.873C79.9847 39.6543 79.6361 39.3512 79.3809 38.9639C79.1257 38.5765 78.998 38.1367 78.998 37.6445C78.998 36.806 79.2669 36.1406 79.8047 35.6484C80.3424 35.1562 81.0511 34.9102 81.9307 34.9102C82.8057 34.9102 83.512 35.1562 84.0498 35.6484C84.5921 36.1406 84.8633 36.806 84.8633 37.6445ZM83.8311 42.2861C83.8311 41.7301 83.6533 41.2767 83.2979 40.9258C82.9469 40.5749 82.4867 40.3994 81.917 40.3994C81.3473 40.3994 80.8893 40.5726 80.543 40.9189C80.2012 41.2653 80.0303 41.721 80.0303 42.2861C80.0303 42.8512 80.1966 43.2956 80.5293 43.6191C80.8665 43.9427 81.3337 44.1045 81.9307 44.1045C82.5231 44.1045 82.988 43.9427 83.3252 43.6191C83.6624 43.291 83.8311 42.8467 83.8311 42.2861ZM81.9307 35.9492C81.4339 35.9492 81.0306 36.1042 80.7207 36.4141C80.4154 36.7194 80.2627 37.1364 80.2627 37.665C80.2627 38.1709 80.4131 38.5811 80.7139 38.8955C81.0192 39.2054 81.4248 39.3604 81.9307 39.3604C82.4365 39.3604 82.8398 39.2054 83.1406 38.8955C83.446 38.5811 83.5986 38.1709 83.5986 37.665C83.5986 37.1592 83.4414 36.7467 83.127 36.4277C82.8125 36.1087 82.4137 35.9492 81.9307 35.9492Z" fill="white"/>
<rect x="62.5" y="67.5" width="15" height="15" stroke="#FF1844"/>
</g>
<defs>
<filter id="filter0_ddd_5360_312111" x="47" y="55" width="105" height="42" filterUnits="userSpaceOnUse" color-interpolation-filters="sRGB">
<feFlood flood-opacity="0" result="BackgroundImageFix"/>
<feColorMatrix in="SourceAlpha" type="matrix" values="0 0 0 0 0 0 0 0 0 0 0 0 0 0 0 0 0 0 127 0" result="hardAlpha"/>
<feOffset dy="1"/>
<feGaussianBlur stdDeviation="1.5"/>
<feColorMatrix type="matrix" values="0 0 0 0 0 0 0 0 0 0 0 0 0 0 0 0 0 0 0.12 0"/>
<feBlend mode="normal" in2="BackgroundImageFix" result="effect1_dropShadow_5360_312111"/>
<feColorMatrix in="SourceAlpha" type="matrix" values="0 0 0 0 0 0 0 0 0 0 0 0 0 0 0 0 0 0 127 0" result="hardAlpha"/>
<feOffset dy="1"/>
<feGaussianBlur stdDeviation="0.5"/>
<feColorMatrix type="matrix" values="0 0 0 0 0 0 0 0 0 0 0 0 0 0 0 0 0 0 0.14 0"/>
<feBlend mode="normal" in2="effect1_dropShadow_5360_312111" result="effect2_dropShadow_5360_312111"/>
<feColorMatrix in="SourceAlpha" type="matrix" values="0 0 0 0 0 0 0 0 0 0 0 0 0 0 0 0 0 0 127 0" result="hardAlpha"/>
<feMorphology radius="1" operator="erode" in="SourceAlpha" result="effect3_dropShadow_5360_312111"/>
<feOffset dy="2"/>
<feGaussianBlur stdDeviation="0.5"/>
<feColorMatrix type="matrix" values="0 0 0 0 0 0 0 0 0 0 0 0 0 0 0 0 0 0 0.2 0"/>
<feBlend mode="normal" in2="effect2_dropShadow_5360_312111" result="effect3_dropShadow_5360_312111"/>
<feBlend mode="normal" in="SourceGraphic" in2="effect3_dropShadow_5360_312111" result="shape"/>
</filter>
<clipPath id="clip0_5360_312111">
<rect width="200" height="150" fill="white"/>
</clipPath>
</defs>
</svg>
