<svg width="300" height="200" viewBox="0 0 300 200" fill="none" xmlns="http://www.w3.org/2000/svg">
<g clip-path="url(#clip0_5416_312782)">
<rect width="300" height="200" fill="#E2E5E5"/>
<g filter="url(#filter0_ddd_5416_312782)">
<rect x="50" y="26" width="79" height="36" rx="4" fill="#007BC1"/>
<path d="M67.3193 39.5059H70.2861C71.6624 39.5059 72.6559 39.7064 73.2666 40.1074C73.8818 40.5085 74.1895 41.1419 74.1895 42.0078C74.1895 42.5911 74.0391 43.0765 73.7383 43.4639C73.4375 43.8512 73.0046 44.0951 72.4395 44.1953V44.2637C73.1413 44.3958 73.6562 44.6579 73.9844 45.0498C74.3171 45.4372 74.4834 45.9635 74.4834 46.6289C74.4834 47.5267 74.1689 48.2308 73.54 48.7412C72.9157 49.2471 72.0452 49.5 70.9287 49.5H67.3193V39.5059ZM68.9531 43.6348H70.5254C71.209 43.6348 71.708 43.5277 72.0225 43.3135C72.3369 43.0947 72.4941 42.7256 72.4941 42.2061C72.4941 41.7367 72.3232 41.3971 71.9814 41.1875C71.6442 40.9779 71.1064 40.873 70.3682 40.873H68.9531V43.6348ZM68.9531 44.9609V48.126H70.6895C71.373 48.126 71.888 47.9961 72.2344 47.7363C72.5853 47.472 72.7607 47.0573 72.7607 46.4922C72.7607 45.9727 72.583 45.5876 72.2275 45.3369C71.8721 45.0863 71.332 44.9609 70.6074 44.9609H68.9531ZM81.7227 49.5L81.4971 48.5088H81.415C81.1917 48.8597 80.8727 49.1354 80.458 49.3359C80.0479 49.5365 79.5785 49.6367 79.0498 49.6367C78.1338 49.6367 77.4502 49.4089 76.999 48.9531C76.5479 48.4974 76.3223 47.807 76.3223 46.8818V41.9395H77.9424V46.6016C77.9424 47.1803 78.0609 47.6156 78.2979 47.9072C78.5348 48.1943 78.9062 48.3379 79.4121 48.3379C80.0866 48.3379 80.5811 48.1374 80.8955 47.7363C81.2145 47.3307 81.374 46.654 81.374 45.7061V41.9395H82.9873V49.5H81.7227ZM88.0938 48.3379C88.4857 48.3379 88.8776 48.2764 89.2695 48.1533V49.3633C89.0918 49.4408 88.8617 49.5046 88.5791 49.5547C88.3011 49.6094 88.0117 49.6367 87.7109 49.6367C86.1888 49.6367 85.4277 48.8346 85.4277 47.2305V43.1562H84.3955V42.4453L85.5029 41.8574L86.0498 40.2578H87.041V41.9395H89.1943V43.1562H87.041V47.2031C87.041 47.5905 87.1367 47.8776 87.3281 48.0645C87.5241 48.2467 87.7793 48.3379 88.0938 48.3379ZM93.6035 48.3379C93.9954 48.3379 94.3874 48.2764 94.7793 48.1533V49.3633C94.6016 49.4408 94.3714 49.5046 94.0889 49.5547C93.8109 49.6094 93.5215 49.6367 93.2207 49.6367C91.6986 49.6367 90.9375 48.8346 90.9375 47.2305V43.1562H89.9053V42.4453L91.0127 41.8574L91.5596 40.2578H92.5508V41.9395H94.7041V43.1562H92.5508V47.2031C92.5508 47.5905 92.6465 47.8776 92.8379 48.0645C93.0339 48.2467 93.2891 48.3379 93.6035 48.3379ZM103.003 45.7061C103.003 46.9411 102.686 47.9049 102.053 48.5977C101.419 49.2904 100.537 49.6367 99.4072 49.6367C98.7008 49.6367 98.0765 49.4772 97.5342 49.1582C96.9919 48.8392 96.5749 48.3812 96.2832 47.7842C95.9915 47.1872 95.8457 46.4945 95.8457 45.7061C95.8457 44.4801 96.1602 43.5231 96.7891 42.835C97.418 42.1468 98.3044 41.8027 99.4482 41.8027C100.542 41.8027 101.408 42.1559 102.046 42.8623C102.684 43.5641 103.003 44.512 103.003 45.7061ZM97.5 45.7061C97.5 47.4515 98.1449 48.3242 99.4346 48.3242C100.711 48.3242 101.349 47.4515 101.349 45.7061C101.349 43.9788 100.706 43.1152 99.4209 43.1152C98.7464 43.1152 98.2565 43.3385 97.9512 43.7852C97.6504 44.2318 97.5 44.8721 97.5 45.7061ZM111.507 49.5H109.894V44.8516C109.894 44.2682 109.775 43.833 109.538 43.5459C109.306 43.2588 108.934 43.1152 108.424 43.1152C107.745 43.1152 107.248 43.3158 106.934 43.7168C106.619 44.1178 106.462 44.79 106.462 45.7334V49.5H104.855V41.9395H106.113L106.339 42.9307H106.421C106.649 42.5706 106.972 42.2926 107.392 42.0967C107.811 41.9007 108.276 41.8027 108.786 41.8027C110.6 41.8027 111.507 42.7256 111.507 44.5713V49.5Z" fill="white"/>
</g>
<g filter="url(#filter1_ddd_5416_312782)">
<rect x="17" y="126" width="146" height="48" rx="24" fill="#007BC1"/>
<path d="M48 151H42V157H40V151H34V149H40V143H42V149H48V151Z" fill="white"/>
<path d="M67.9531 150.154H69.0879C69.849 150.154 70.4004 150.013 70.7422 149.73C71.084 149.448 71.2549 149.029 71.2549 148.473C71.2549 147.908 71.0703 147.502 70.7012 147.256C70.332 147.01 69.776 146.887 69.0332 146.887H67.9531V150.154ZM67.9531 151.508V155.5H66.3193V145.506H69.1426C70.4323 145.506 71.387 145.747 72.0068 146.23C72.6266 146.714 72.9365 147.443 72.9365 148.418C72.9365 149.662 72.2894 150.549 70.9951 151.077L73.8184 155.5H71.959L69.5664 151.508H67.9531ZM78.4053 155.637C77.2295 155.637 76.3089 155.295 75.6436 154.611C74.9827 153.923 74.6523 152.978 74.6523 151.774C74.6523 150.539 74.96 149.569 75.5752 148.862C76.1904 148.156 77.0358 147.803 78.1113 147.803C79.1094 147.803 79.8978 148.106 80.4766 148.712C81.0553 149.318 81.3447 150.152 81.3447 151.214V152.082H76.3066C76.3294 152.816 76.5277 153.381 76.9014 153.777C77.2751 154.169 77.8014 154.365 78.4805 154.365C78.9271 154.365 79.3418 154.324 79.7246 154.242C80.112 154.156 80.5267 154.014 80.9688 153.818V155.124C80.5768 155.311 80.1803 155.443 79.7793 155.521C79.3783 155.598 78.9202 155.637 78.4053 155.637ZM78.1113 149.02C77.6009 149.02 77.1908 149.181 76.8809 149.505C76.5755 149.828 76.3932 150.3 76.334 150.92H79.7656C79.7565 150.296 79.6061 149.824 79.3145 149.505C79.0228 149.181 78.6217 149.02 78.1113 149.02ZM89.5547 147.939V148.821L88.2627 149.061C88.3812 149.22 88.4792 149.416 88.5566 149.648C88.6341 149.881 88.6729 150.127 88.6729 150.387C88.6729 151.166 88.404 151.779 87.8662 152.226C87.3285 152.672 86.5879 152.896 85.6445 152.896C85.403 152.896 85.1842 152.877 84.9883 152.841C84.6419 153.055 84.4688 153.306 84.4688 153.593C84.4688 153.766 84.5485 153.896 84.708 153.982C84.8721 154.069 85.1706 154.112 85.6035 154.112H86.9229C87.7568 154.112 88.3903 154.29 88.8232 154.646C89.2562 155.001 89.4727 155.514 89.4727 156.184C89.4727 157.04 89.1195 157.701 88.4131 158.166C87.7067 158.631 86.6859 158.863 85.3506 158.863C84.3206 158.863 83.5345 158.681 82.9922 158.316C82.4499 157.952 82.1787 157.432 82.1787 156.758C82.1787 156.293 82.3245 155.901 82.6162 155.582C82.9124 155.268 83.3249 155.049 83.8535 154.926C83.6393 154.835 83.4616 154.689 83.3203 154.488C83.1836 154.283 83.1152 154.069 83.1152 153.846C83.1152 153.563 83.195 153.324 83.3545 153.128C83.514 152.932 83.751 152.738 84.0654 152.547C83.6735 152.378 83.3545 152.105 83.1084 151.727C82.8669 151.344 82.7461 150.897 82.7461 150.387C82.7461 149.566 83.0036 148.931 83.5186 148.479C84.0381 148.028 84.7764 147.803 85.7334 147.803C85.9476 147.803 86.1709 147.819 86.4033 147.851C86.6403 147.878 86.818 147.908 86.9365 147.939H89.5547ZM83.6143 156.676C83.6143 157.022 83.7692 157.289 84.0791 157.476C84.3936 157.662 84.8333 157.756 85.3984 157.756C86.2734 157.756 86.9251 157.631 87.3535 157.38C87.7819 157.129 87.9961 156.797 87.9961 156.382C87.9961 156.054 87.8776 155.819 87.6406 155.678C87.4082 155.541 86.973 155.473 86.335 155.473H85.1182C84.6579 155.473 84.291 155.58 84.0176 155.794C83.7487 156.013 83.6143 156.307 83.6143 156.676ZM84.3047 150.387C84.3047 150.861 84.4255 151.225 84.667 151.48C84.9131 151.736 85.264 151.863 85.7197 151.863C86.6494 151.863 87.1143 151.367 87.1143 150.373C87.1143 149.881 86.998 149.503 86.7656 149.238C86.5378 148.969 86.1891 148.835 85.7197 148.835C85.2549 148.835 84.9017 148.967 84.6602 149.231C84.4232 149.496 84.3047 149.881 84.3047 150.387ZM96.2949 155.5L96.0693 154.509H95.9873C95.764 154.86 95.445 155.135 95.0303 155.336C94.6201 155.536 94.1507 155.637 93.6221 155.637C92.7061 155.637 92.0225 155.409 91.5713 154.953C91.1201 154.497 90.8945 153.807 90.8945 152.882V147.939H92.5146V152.602C92.5146 153.18 92.6331 153.616 92.8701 153.907C93.1071 154.194 93.4785 154.338 93.9844 154.338C94.6589 154.338 95.1533 154.137 95.4678 153.736C95.7868 153.331 95.9463 152.654 95.9463 151.706V147.939H97.5596V155.5H96.2949ZM101.456 155.5H99.8496V144.863H101.456V155.5ZM108.49 155.5L108.169 154.447H108.114C107.75 154.908 107.383 155.222 107.014 155.391C106.645 155.555 106.171 155.637 105.592 155.637C104.849 155.637 104.268 155.436 103.849 155.035C103.434 154.634 103.227 154.067 103.227 153.333C103.227 152.554 103.516 151.966 104.095 151.569C104.674 151.173 105.555 150.956 106.74 150.92L108.046 150.879V150.476C108.046 149.993 107.932 149.632 107.704 149.396C107.481 149.154 107.132 149.033 106.658 149.033C106.271 149.033 105.899 149.09 105.544 149.204C105.188 149.318 104.847 149.452 104.519 149.607L103.999 148.459C104.409 148.245 104.858 148.083 105.346 147.974C105.833 147.86 106.294 147.803 106.727 147.803C107.688 147.803 108.413 148.012 108.9 148.432C109.393 148.851 109.639 149.509 109.639 150.407V155.5H108.49ZM106.098 154.406C106.681 154.406 107.148 154.244 107.499 153.921C107.854 153.593 108.032 153.135 108.032 152.547V151.891L107.062 151.932C106.305 151.959 105.754 152.087 105.407 152.314C105.065 152.538 104.895 152.882 104.895 153.347C104.895 153.684 104.995 153.946 105.195 154.133C105.396 154.315 105.697 154.406 106.098 154.406ZM115.716 147.803C116.039 147.803 116.306 147.826 116.516 147.871L116.358 149.368C116.131 149.313 115.894 149.286 115.647 149.286C115.005 149.286 114.483 149.496 114.082 149.915C113.686 150.334 113.487 150.879 113.487 151.549V155.5H111.881V147.939H113.139L113.351 149.272H113.433C113.683 148.821 114.009 148.464 114.41 148.199C114.816 147.935 115.251 147.803 115.716 147.803ZM123.352 155.5H121.731V145.506H127.371V146.887H123.352V150.011H127.118V151.398H123.352V155.5ZM135.383 155.5L134.385 152.725H130.563L129.586 155.5H127.863L131.603 145.465H133.38L137.119 155.5H135.383ZM133.954 151.316L133.018 148.596C132.949 148.413 132.854 148.126 132.73 147.734C132.612 147.342 132.53 147.055 132.484 146.873C132.361 147.434 132.181 148.047 131.944 148.712L131.042 151.316H133.954ZM138.438 145.506H141.405C142.782 145.506 143.775 145.706 144.386 146.107C145.001 146.508 145.309 147.142 145.309 148.008C145.309 148.591 145.158 149.076 144.857 149.464C144.557 149.851 144.124 150.095 143.559 150.195V150.264C144.26 150.396 144.775 150.658 145.104 151.05C145.436 151.437 145.603 151.964 145.603 152.629C145.603 153.527 145.288 154.231 144.659 154.741C144.035 155.247 143.164 155.5 142.048 155.5H138.438V145.506ZM140.072 149.635H141.645C142.328 149.635 142.827 149.528 143.142 149.313C143.456 149.095 143.613 148.726 143.613 148.206C143.613 147.737 143.442 147.397 143.101 147.188C142.763 146.978 142.226 146.873 141.487 146.873H140.072V149.635ZM140.072 150.961V154.126H141.809C142.492 154.126 143.007 153.996 143.354 153.736C143.704 153.472 143.88 153.057 143.88 152.492C143.88 151.973 143.702 151.588 143.347 151.337C142.991 151.086 142.451 150.961 141.727 150.961H140.072Z" fill="white"/>
</g>
<rect width="127" height="32" transform="translate(26 78)" fill="#FF1844"/>
<path d="M29.9004 81.3701L30.625 81.8623C30.2012 82.4411 29.9824 83.0654 29.9688 83.7354V84.665H28.7109V83.8721C28.7109 83.4072 28.8203 82.9469 29.0391 82.4912C29.2624 82.0355 29.5495 81.6618 29.9004 81.3701ZM32.0537 81.3701L32.7783 81.8623C32.3545 82.4411 32.1357 83.0654 32.1221 83.7354V84.665H30.8643V83.8721C30.8643 83.4072 30.9736 82.9469 31.1924 82.4912C31.4157 82.0355 31.7028 81.6618 32.0537 81.3701ZM40.168 88.3838C40.168 89.514 39.9082 90.4232 39.3887 91.1113C38.8691 91.7949 38.1719 92.1367 37.2969 92.1367C36.3626 92.1367 35.6403 91.8063 35.1299 91.1455L35.0684 92H33.9062V81.5H35.1709V85.417C35.6813 84.7835 36.3854 84.4668 37.2832 84.4668C38.181 84.4668 38.8851 84.8063 39.3955 85.4854C39.9105 86.1644 40.168 87.0941 40.168 88.2744V88.3838ZM38.9033 88.2402C38.9033 87.3789 38.737 86.7135 38.4043 86.2441C38.0716 85.7747 37.5931 85.54 36.9688 85.54C36.1348 85.54 35.5355 85.9274 35.1709 86.7021V89.9014C35.5583 90.6761 36.1621 91.0635 36.9824 91.0635C37.5885 91.0635 38.0602 90.8288 38.3975 90.3594C38.7347 89.89 38.9033 89.1836 38.9033 88.2402ZM46.334 91.2686C45.8418 91.8473 45.1195 92.1367 44.167 92.1367C43.3786 92.1367 42.777 91.9089 42.3623 91.4531C41.9521 90.9928 41.7448 90.3138 41.7402 89.416V84.6035H43.0049V89.3818C43.0049 90.5029 43.4606 91.0635 44.3721 91.0635C45.3382 91.0635 45.9808 90.7035 46.2998 89.9834V84.6035H47.5645V92H46.3613L46.334 91.2686ZM51.208 82.8125V84.6035H52.5889V85.5811H51.208V90.168C51.208 90.4642 51.2695 90.6875 51.3926 90.8379C51.5156 90.9837 51.7253 91.0566 52.0215 91.0566C52.1673 91.0566 52.3678 91.0293 52.623 90.9746V92C52.2904 92.0911 51.9668 92.1367 51.6523 92.1367C51.0872 92.1367 50.6611 91.9658 50.374 91.624C50.0869 91.2822 49.9434 90.7969 49.9434 90.168V85.5811H48.5967V84.6035H49.9434V82.8125H51.208ZM55.7881 82.8125V84.6035H57.1689V85.5811H55.7881V90.168C55.7881 90.4642 55.8496 90.6875 55.9727 90.8379C56.0957 90.9837 56.3053 91.0566 56.6016 91.0566C56.7474 91.0566 56.9479 91.0293 57.2031 90.9746V92C56.8704 92.0911 56.5469 92.1367 56.2324 92.1367C55.6673 92.1367 55.2412 91.9658 54.9541 91.624C54.667 91.2822 54.5234 90.7969 54.5234 90.168V85.5811H53.1768V84.6035H54.5234V82.8125H55.7881ZM58.1807 88.2334C58.1807 87.5088 58.3219 86.8571 58.6045 86.2783C58.8916 85.6995 59.2881 85.2529 59.7939 84.9385C60.3044 84.624 60.8854 84.4668 61.5371 84.4668C62.5443 84.4668 63.3577 84.8154 63.9775 85.5127C64.6019 86.21 64.9141 87.1374 64.9141 88.2949V88.3838C64.9141 89.1038 64.7751 89.751 64.4971 90.3252C64.2236 90.8949 63.8294 91.3392 63.3145 91.6582C62.804 91.9772 62.2161 92.1367 61.5508 92.1367C60.5482 92.1367 59.7347 91.7881 59.1104 91.0908C58.4906 90.3936 58.1807 89.4707 58.1807 88.3223V88.2334ZM59.4521 88.3838C59.4521 89.2041 59.6413 89.8626 60.0195 90.3594C60.4023 90.8561 60.9128 91.1045 61.5508 91.1045C62.1934 91.1045 62.7038 90.8538 63.082 90.3525C63.4603 89.8467 63.6494 89.1403 63.6494 88.2334C63.6494 87.4222 63.4557 86.766 63.0684 86.2646C62.6855 85.7588 62.1751 85.5059 61.5371 85.5059C60.9128 85.5059 60.4092 85.7542 60.0264 86.251C59.6436 86.7477 59.4521 87.4587 59.4521 88.3838ZM67.6963 84.6035L67.7373 85.5332C68.3024 84.8223 69.0407 84.4668 69.9521 84.4668C71.5153 84.4668 72.3037 85.3486 72.3174 87.1123V92H71.0527V87.1055C71.0482 86.5723 70.9251 86.1781 70.6836 85.9229C70.4466 85.6676 70.0752 85.54 69.5693 85.54C69.1592 85.54 68.7992 85.6494 68.4893 85.8682C68.1794 86.0869 67.9378 86.374 67.7646 86.7295V92H66.5V84.6035H67.6963ZM73.6846 84.8496L72.9668 84.3574C73.3906 83.765 73.6094 83.1406 73.623 82.4844V81.5H74.874V82.3887C74.8695 82.8444 74.7555 83.3001 74.5322 83.7559C74.3135 84.207 74.0309 84.5716 73.6846 84.8496ZM75.7832 84.8496L75.0654 84.3574C75.4893 83.765 75.708 83.1406 75.7217 82.4844V81.5H76.9727V82.3887C76.9681 82.8444 76.8542 83.3001 76.6309 83.7559C76.4121 84.207 76.1296 84.5716 75.7832 84.8496ZM83.7061 82.8125V84.6035H85.0869V85.5811H83.7061V90.168C83.7061 90.4642 83.7676 90.6875 83.8906 90.8379C84.0137 90.9837 84.2233 91.0566 84.5195 91.0566C84.6654 91.0566 84.8659 91.0293 85.1211 90.9746V92C84.7884 92.0911 84.4648 92.1367 84.1504 92.1367C83.5853 92.1367 83.1592 91.9658 82.8721 91.624C82.585 91.2822 82.4414 90.7969 82.4414 90.168V85.5811H81.0947V84.6035H82.4414V82.8125H83.7061ZM88.9902 90.1475L90.7129 84.6035H92.0664L89.0928 93.1416C88.6325 94.3721 87.901 94.9873 86.8984 94.9873L86.6592 94.9668L86.1875 94.8779V93.8525L86.5293 93.8799C86.9577 93.8799 87.2904 93.7933 87.5273 93.6201C87.7689 93.4469 87.9671 93.1302 88.1221 92.6699L88.4023 91.918L85.7637 84.6035H87.1445L88.9902 90.1475ZM99.4492 88.3838C99.4492 89.5094 99.1917 90.4163 98.6768 91.1045C98.1618 91.7926 97.4645 92.1367 96.585 92.1367C95.6872 92.1367 94.9808 91.8519 94.4658 91.2822V94.8438H93.2012V84.6035H94.3564L94.418 85.4238C94.9329 84.7858 95.6484 84.4668 96.5645 84.4668C97.4531 84.4668 98.1549 84.8018 98.6699 85.4717C99.1895 86.1416 99.4492 87.0736 99.4492 88.2676V88.3838ZM98.1846 88.2402C98.1846 87.4062 98.0068 86.7477 97.6514 86.2646C97.2959 85.7816 96.8083 85.54 96.1885 85.54C95.4229 85.54 94.8486 85.8796 94.4658 86.5586V90.0928C94.8441 90.7673 95.4229 91.1045 96.2021 91.1045C96.8083 91.1045 97.2891 90.8652 97.6445 90.3867C98.0046 89.9036 98.1846 89.1882 98.1846 88.2402ZM100.728 88.2334C100.728 87.5088 100.869 86.8571 101.151 86.2783C101.438 85.6995 101.835 85.2529 102.341 84.9385C102.851 84.624 103.432 84.4668 104.084 84.4668C105.091 84.4668 105.905 84.8154 106.524 85.5127C107.149 86.21 107.461 87.1374 107.461 88.2949V88.3838C107.461 89.1038 107.322 89.751 107.044 90.3252C106.771 90.8949 106.376 91.3392 105.861 91.6582C105.351 91.9772 104.763 92.1367 104.098 92.1367C103.095 92.1367 102.282 91.7881 101.657 91.0908C101.037 90.3936 100.728 89.4707 100.728 88.3223V88.2334ZM101.999 88.3838C101.999 89.2041 102.188 89.8626 102.566 90.3594C102.949 90.8561 103.46 91.1045 104.098 91.1045C104.74 91.1045 105.251 90.8538 105.629 90.3525C106.007 89.8467 106.196 89.1403 106.196 88.2334C106.196 87.4222 106.003 86.766 105.615 86.2646C105.232 85.7588 104.722 85.5059 104.084 85.5059C103.46 85.5059 102.956 85.7542 102.573 86.251C102.19 86.7477 101.999 87.4587 101.999 88.3838ZM108.746 88.2402C108.746 87.0872 109.013 86.1712 109.546 85.4922C110.079 84.8086 110.785 84.4668 111.665 84.4668C112.567 84.4668 113.271 84.7858 113.777 85.4238L113.839 84.6035H114.994V91.8223C114.994 92.7793 114.709 93.5335 114.14 94.085C113.575 94.6364 112.813 94.9121 111.856 94.9121C111.323 94.9121 110.801 94.7982 110.291 94.5703C109.781 94.3424 109.391 94.0303 109.122 93.6338L109.778 92.875C110.321 93.5449 110.984 93.8799 111.768 93.8799C112.383 93.8799 112.861 93.7067 113.203 93.3604C113.549 93.014 113.723 92.5264 113.723 91.8975V91.2617C113.217 91.8451 112.526 92.1367 111.651 92.1367C110.785 92.1367 110.084 91.7881 109.546 91.0908C109.013 90.3936 108.746 89.4434 108.746 88.2402ZM110.018 88.3838C110.018 89.2178 110.188 89.874 110.53 90.3525C110.872 90.8265 111.351 91.0635 111.966 91.0635C112.763 91.0635 113.349 90.7012 113.723 89.9766V86.5996C113.335 85.8932 112.754 85.54 111.979 85.54C111.364 85.54 110.883 85.7793 110.537 86.2578C110.191 86.7363 110.018 87.445 110.018 88.3838ZM120.483 85.7383C120.292 85.7064 120.085 85.6904 119.861 85.6904C119.032 85.6904 118.469 86.0436 118.173 86.75V92H116.908V84.6035H118.139L118.159 85.458C118.574 84.7972 119.162 84.4668 119.923 84.4668C120.169 84.4668 120.356 84.4987 120.483 84.5625V85.7383ZM125.945 92C125.872 91.8542 125.813 91.5944 125.768 91.2207C125.18 91.8314 124.478 92.1367 123.662 92.1367C122.933 92.1367 122.334 91.9316 121.864 91.5215C121.399 91.1068 121.167 90.5827 121.167 89.9492C121.167 89.179 121.459 88.582 122.042 88.1582C122.63 87.7298 123.455 87.5156 124.517 87.5156H125.747V86.9346C125.747 86.4925 125.615 86.1416 125.351 85.8818C125.086 85.6175 124.697 85.4854 124.182 85.4854C123.73 85.4854 123.352 85.5993 123.047 85.8271C122.742 86.055 122.589 86.3307 122.589 86.6543H121.317C121.317 86.2852 121.447 85.9297 121.707 85.5879C121.971 85.2415 122.327 84.9681 122.773 84.7676C123.225 84.5671 123.719 84.4668 124.257 84.4668C125.109 84.4668 125.777 84.681 126.26 85.1094C126.743 85.5332 126.993 86.1188 127.012 86.8662V90.2705C127.012 90.9495 127.098 91.4896 127.271 91.8906V92H125.945ZM123.847 91.0361C124.243 91.0361 124.619 90.9336 124.975 90.7285C125.33 90.5234 125.588 90.2568 125.747 89.9287V88.4111H124.756C123.206 88.4111 122.432 88.8646 122.432 89.7715C122.432 90.168 122.564 90.4779 122.828 90.7012C123.092 90.9245 123.432 91.0361 123.847 91.0361ZM135.242 88.3838C135.242 89.5094 134.985 90.4163 134.47 91.1045C133.955 91.7926 133.257 92.1367 132.378 92.1367C131.48 92.1367 130.774 91.8519 130.259 91.2822V94.8438H128.994V84.6035H130.149L130.211 85.4238C130.726 84.7858 131.441 84.4668 132.357 84.4668C133.246 84.4668 133.948 84.8018 134.463 85.4717C134.982 86.1416 135.242 87.0736 135.242 88.2676V88.3838ZM133.978 88.2402C133.978 87.4062 133.8 86.7477 133.444 86.2646C133.089 85.7816 132.601 85.54 131.981 85.54C131.216 85.54 130.642 85.8796 130.259 86.5586V90.0928C130.637 90.7673 131.216 91.1045 131.995 91.1045C132.601 91.1045 133.082 90.8652 133.438 90.3867C133.798 89.9036 133.978 89.1882 133.978 88.2402ZM138.12 85.499C138.681 84.8109 139.41 84.4668 140.308 84.4668C141.871 84.4668 142.659 85.3486 142.673 87.1123V92H141.408V87.1055C141.404 86.5723 141.281 86.1781 141.039 85.9229C140.802 85.6676 140.431 85.54 139.925 85.54C139.515 85.54 139.155 85.6494 138.845 85.8682C138.535 86.0869 138.293 86.374 138.12 86.7295V92H136.855V81.5H138.12V85.499ZM146.986 90.1475L148.709 84.6035H150.062L147.089 93.1416C146.629 94.3721 145.897 94.9873 144.895 94.9873L144.655 94.9668L144.184 94.8779V93.8525L144.525 93.8799C144.954 93.8799 145.286 93.7933 145.523 93.6201C145.765 93.4469 145.963 93.1302 146.118 92.6699L146.398 91.918L143.76 84.6035H145.141L146.986 90.1475ZM32.2715 106H31.1816V98.7754L28.9961 99.5781V98.5938L32.1016 97.4277H32.2715V106ZM40.0234 103.135H41.207V104.02H40.0234V106H38.9336V104.02H35.0488V103.381L38.8691 97.4688H40.0234V103.135ZM36.2793 103.135H38.9336V98.9512L38.8047 99.1855L36.2793 103.135ZM42.0332 102.777C42.0332 101.805 42.2637 101.023 42.7246 100.434C43.1855 99.8398 43.7891 99.543 44.5352 99.543C45.2773 99.543 45.8652 99.7969 46.2988 100.305V97H47.3828V106H46.3867L46.334 105.32C45.9004 105.852 45.2969 106.117 44.5234 106.117C43.7891 106.117 43.1895 105.816 42.7246 105.215C42.2637 104.613 42.0332 103.828 42.0332 102.859V102.777ZM43.1172 102.9C43.1172 103.619 43.2656 104.182 43.5625 104.588C43.8594 104.994 44.2695 105.197 44.793 105.197C45.4805 105.197 45.9824 104.889 46.2988 104.271V101.359C45.9746 100.762 45.4766 100.463 44.8047 100.463C44.2734 100.463 43.8594 100.668 43.5625 101.078C43.2656 101.488 43.1172 102.096 43.1172 102.9ZM54.4258 102.9C54.4258 103.865 54.2051 104.643 53.7637 105.232C53.3223 105.822 52.7246 106.117 51.9707 106.117C51.2012 106.117 50.5957 105.873 50.1543 105.385V108.438H49.0703V99.6602H50.0605L50.1133 100.363C50.5547 99.8164 51.168 99.543 51.9531 99.543C52.7148 99.543 53.3164 99.8301 53.7578 100.404C54.2031 100.979 54.4258 101.777 54.4258 102.801V102.9ZM53.3418 102.777C53.3418 102.062 53.1895 101.498 52.8848 101.084C52.5801 100.67 52.1621 100.463 51.6309 100.463C50.9746 100.463 50.4824 100.754 50.1543 101.336V104.365C50.4785 104.943 50.9746 105.232 51.6426 105.232C52.1621 105.232 52.5742 105.027 52.8789 104.617C53.1875 104.203 53.3418 103.59 53.3418 102.777ZM62.4766 104.318C62.4766 104.025 62.3652 103.799 62.1426 103.639C61.9238 103.475 61.5391 103.334 60.9883 103.217C60.4414 103.1 60.0059 102.959 59.6816 102.795C59.3613 102.631 59.123 102.436 58.9668 102.209C58.8145 101.982 58.7383 101.713 58.7383 101.4C58.7383 100.881 58.957 100.441 59.3945 100.082C59.8359 99.7227 60.3984 99.543 61.082 99.543C61.8008 99.543 62.3828 99.7285 62.8281 100.1C63.2773 100.471 63.502 100.945 63.502 101.523H62.4121C62.4121 101.227 62.2852 100.971 62.0312 100.756C61.7812 100.541 61.4648 100.434 61.082 100.434C60.6875 100.434 60.3789 100.52 60.1562 100.691C59.9336 100.863 59.8223 101.088 59.8223 101.365C59.8223 101.627 59.9258 101.824 60.1328 101.957C60.3398 102.09 60.7129 102.217 61.252 102.338C61.7949 102.459 62.2344 102.604 62.5703 102.771C62.9062 102.939 63.1543 103.143 63.3145 103.381C63.4785 103.615 63.5605 103.902 63.5605 104.242C63.5605 104.809 63.334 105.264 62.8809 105.607C62.4277 105.947 61.8398 106.117 61.1172 106.117C60.6094 106.117 60.1602 106.027 59.7695 105.848C59.3789 105.668 59.0723 105.418 58.8496 105.098C58.6309 104.773 58.5215 104.424 58.5215 104.049H59.6055C59.625 104.412 59.7695 104.701 60.0391 104.916C60.3125 105.127 60.6719 105.232 61.1172 105.232C61.5273 105.232 61.8555 105.15 62.1016 104.986C62.3516 104.818 62.4766 104.596 62.4766 104.318ZM67.6035 106.117C66.7441 106.117 66.0449 105.836 65.5059 105.273C64.9668 104.707 64.6973 103.951 64.6973 103.006V102.807C64.6973 102.178 64.8164 101.617 65.0547 101.125C65.2969 100.629 65.6328 100.242 66.0625 99.9648C66.4961 99.6836 66.9648 99.543 67.4688 99.543C68.293 99.543 68.9336 99.8145 69.3906 100.357C69.8477 100.9 70.0762 101.678 70.0762 102.689V103.141H65.7812C65.7969 103.766 65.9785 104.271 66.3262 104.658C66.6777 105.041 67.123 105.232 67.6621 105.232C68.0449 105.232 68.3691 105.154 68.6348 104.998C68.9004 104.842 69.1328 104.635 69.332 104.377L69.9941 104.893C69.4629 105.709 68.666 106.117 67.6035 106.117ZM67.4688 100.434C67.0312 100.434 66.6641 100.594 66.3672 100.914C66.0703 101.23 65.8867 101.676 65.8164 102.25H68.9922V102.168C68.9609 101.617 68.8125 101.191 68.5469 100.891C68.2812 100.586 67.9219 100.434 67.4688 100.434ZM72.3555 99.6602L72.3848 100.363C72.8496 99.8164 73.4766 99.543 74.2656 99.543C75.1523 99.543 75.7559 99.8828 76.0762 100.562C76.2871 100.258 76.5605 100.012 76.8965 99.8242C77.2363 99.6367 77.6367 99.543 78.0977 99.543C79.4883 99.543 80.1953 100.279 80.2188 101.752V106H79.1348V101.816C79.1348 101.363 79.0312 101.025 78.8242 100.803C78.6172 100.576 78.2695 100.463 77.7812 100.463C77.3789 100.463 77.0449 100.584 76.7793 100.826C76.5137 101.064 76.3594 101.387 76.3164 101.793V106H75.2266V101.846C75.2266 100.924 74.7754 100.463 73.873 100.463C73.1621 100.463 72.6758 100.766 72.4141 101.371V106H71.3301V99.6602H72.3555ZM83.0371 106H81.9531V99.6602H83.0371V106ZM81.8652 97.9785C81.8652 97.8027 81.918 97.6543 82.0234 97.5332C82.1328 97.4121 82.293 97.3516 82.5039 97.3516C82.7148 97.3516 82.875 97.4121 82.9844 97.5332C83.0938 97.6543 83.1484 97.8027 83.1484 97.9785C83.1484 98.1543 83.0938 98.3008 82.9844 98.418C82.875 98.5352 82.7148 98.5938 82.5039 98.5938C82.293 98.5938 82.1328 98.5352 82.0234 98.418C81.918 98.3008 81.8652 98.1543 81.8652 97.9785ZM90.1445 102.9C90.1445 103.869 89.9219 104.648 89.4766 105.238C89.0312 105.824 88.4336 106.117 87.6836 106.117C86.8828 106.117 86.2637 105.834 85.8262 105.268L85.7734 106H84.7773V97H85.8613V100.357C86.2988 99.8145 86.9023 99.543 87.6719 99.543C88.4414 99.543 89.0449 99.834 89.4824 100.416C89.9238 100.998 90.1445 101.795 90.1445 102.807V102.9ZM89.0605 102.777C89.0605 102.039 88.918 101.469 88.6328 101.066C88.3477 100.664 87.9375 100.463 87.4023 100.463C86.6875 100.463 86.1738 100.795 85.8613 101.459V104.201C86.1934 104.865 86.7109 105.197 87.4141 105.197C87.9336 105.197 88.3379 104.996 88.627 104.594C88.916 104.191 89.0605 103.586 89.0605 102.777ZM91.2285 102.771C91.2285 102.15 91.3496 101.592 91.5918 101.096C91.8379 100.6 92.1777 100.217 92.6113 99.9473C93.0488 99.6777 93.5469 99.543 94.1055 99.543C94.9688 99.543 95.666 99.8418 96.1973 100.439C96.7324 101.037 97 101.832 97 102.824V102.9C97 103.518 96.8809 104.072 96.6426 104.564C96.4082 105.053 96.0703 105.434 95.6289 105.707C95.1914 105.98 94.6875 106.117 94.1172 106.117C93.2578 106.117 92.5605 105.818 92.0254 105.221C91.4941 104.623 91.2285 103.832 91.2285 102.848V102.771ZM92.3184 102.9C92.3184 103.604 92.4805 104.168 92.8047 104.594C93.1328 105.02 93.5703 105.232 94.1172 105.232C94.668 105.232 95.1055 105.018 95.4297 104.588C95.7539 104.154 95.916 103.549 95.916 102.771C95.916 102.076 95.75 101.514 95.418 101.084C95.0898 100.65 94.6523 100.434 94.1055 100.434C93.5703 100.434 93.1387 100.646 92.8105 101.072C92.4824 101.498 92.3184 102.107 92.3184 102.9ZM99.5371 106H98.4531V97H99.5371V106ZM101.014 102.777C101.014 101.805 101.244 101.023 101.705 100.434C102.166 99.8398 102.77 99.543 103.516 99.543C104.258 99.543 104.846 99.7969 105.279 100.305V97H106.363V106H105.367L105.314 105.32C104.881 105.852 104.277 106.117 103.504 106.117C102.77 106.117 102.17 105.816 101.705 105.215C101.244 104.613 101.014 103.828 101.014 102.859V102.777ZM102.098 102.9C102.098 103.619 102.246 104.182 102.543 104.588C102.84 104.994 103.25 105.197 103.773 105.197C104.461 105.197 104.963 104.889 105.279 104.271V101.359C104.955 100.762 104.457 100.463 103.785 100.463C103.254 100.463 102.84 100.668 102.543 101.078C102.246 101.488 102.098 102.096 102.098 102.9ZM108.268 106.732H107.336L110.898 97.4688H111.824L108.268 106.732ZM117.139 97.4629V98.3828H116.939C116.096 98.3984 115.424 98.6484 114.924 99.1328C114.424 99.6172 114.135 100.299 114.057 101.178C114.506 100.662 115.119 100.404 115.896 100.404C116.639 100.404 117.23 100.666 117.672 101.189C118.117 101.713 118.34 102.389 118.34 103.217C118.34 104.096 118.1 104.799 117.619 105.326C117.143 105.854 116.502 106.117 115.697 106.117C114.881 106.117 114.219 105.805 113.711 105.18C113.203 104.551 112.949 103.742 112.949 102.754V102.338C112.949 100.768 113.283 99.5684 113.951 98.7402C114.623 97.9082 115.621 97.4824 116.945 97.4629H117.139ZM115.715 101.307C115.344 101.307 115.002 101.418 114.689 101.641C114.377 101.863 114.16 102.143 114.039 102.479V102.877C114.039 103.58 114.197 104.146 114.514 104.576C114.83 105.006 115.225 105.221 115.697 105.221C116.186 105.221 116.568 105.041 116.846 104.682C117.127 104.322 117.268 103.852 117.268 103.27C117.268 102.684 117.125 102.211 116.84 101.852C116.559 101.488 116.184 101.307 115.715 101.307ZM124.973 102.361C124.973 103.631 124.756 104.574 124.322 105.191C123.889 105.809 123.211 106.117 122.289 106.117C121.379 106.117 120.705 105.816 120.268 105.215C119.83 104.609 119.604 103.707 119.588 102.508V101.061C119.588 99.8066 119.805 98.875 120.238 98.2656C120.672 97.6562 121.352 97.3516 122.277 97.3516C123.195 97.3516 123.871 97.6465 124.305 98.2363C124.738 98.8223 124.961 99.7285 124.973 100.955V102.361ZM123.889 100.879C123.889 99.9609 123.76 99.293 123.502 98.875C123.244 98.4531 122.836 98.2422 122.277 98.2422C121.723 98.2422 121.318 98.4512 121.064 98.8691C120.811 99.2871 120.68 99.9297 120.672 100.797V102.531C120.672 103.453 120.805 104.135 121.07 104.576C121.34 105.014 121.746 105.232 122.289 105.232C122.824 105.232 123.221 105.025 123.479 104.611C123.74 104.197 123.877 103.545 123.889 102.654V100.879ZM131.711 102.361C131.711 103.631 131.494 104.574 131.061 105.191C130.627 105.809 129.949 106.117 129.027 106.117C128.117 106.117 127.443 105.816 127.006 105.215C126.568 104.609 126.342 103.707 126.326 102.508V101.061C126.326 99.8066 126.543 98.875 126.977 98.2656C127.41 97.6562 128.09 97.3516 129.016 97.3516C129.934 97.3516 130.609 97.6465 131.043 98.2363C131.477 98.8223 131.699 99.7285 131.711 100.955V102.361ZM130.627 100.879C130.627 99.9609 130.498 99.293 130.24 98.875C129.982 98.4531 129.574 98.2422 129.016 98.2422C128.461 98.2422 128.057 98.4512 127.803 98.8691C127.549 99.2871 127.418 99.9297 127.41 100.797V102.531C127.41 103.453 127.543 104.135 127.809 104.576C128.078 105.014 128.484 105.232 129.027 105.232C129.562 105.232 129.959 105.025 130.217 104.611C130.479 104.197 130.615 103.545 130.627 102.654V100.879Z" fill="white"/>
<rect x="66.5" y="35.5" width="46" height="17" stroke="#FF1844"/>
<rect x="65.5" y="141.5" width="81" height="17" stroke="#FF1844"/>
<line x1="70.5" y1="52" x2="70.5" y2="78" stroke="#FF1844"/>
<line x1="70.5" y1="110" x2="70.5" y2="141" stroke="#FF1844"/>
<path d="M188.945 49H183.374V39.0059H188.945V40.0381H184.536V43.2578H188.679V44.2832H184.536V47.9609H188.945V49ZM192.131 49H190.996V38.3633H192.131V49ZM197.702 49.1367C196.595 49.1367 195.72 48.7995 195.077 48.125C194.439 47.4505 194.12 46.514 194.12 45.3154C194.12 44.1077 194.416 43.1484 195.009 42.4375C195.606 41.7266 196.406 41.3711 197.408 41.3711C198.347 41.3711 199.09 41.681 199.637 42.3008C200.184 42.916 200.457 43.7295 200.457 44.7412V45.459H195.296C195.319 46.3385 195.54 47.0062 195.959 47.4619C196.383 47.9176 196.978 48.1455 197.743 48.1455C198.55 48.1455 199.347 47.9769 200.136 47.6396V48.6514C199.735 48.8245 199.354 48.9476 198.994 49.0205C198.639 49.098 198.208 49.1367 197.702 49.1367ZM197.395 42.3213C196.793 42.3213 196.312 42.5173 195.952 42.9092C195.597 43.3011 195.387 43.8434 195.323 44.5361H199.24C199.24 43.8206 199.081 43.2738 198.762 42.8955C198.443 42.5127 197.987 42.3213 197.395 42.3213ZM204.039 49L201.195 41.5078H202.412L204.025 45.9512C204.39 46.9902 204.604 47.6647 204.668 47.9746H204.723C204.773 47.7331 204.93 47.234 205.194 46.4775C205.463 45.7165 206.062 44.0599 206.992 41.5078H208.209L205.365 49H204.039ZM214.02 49L213.794 47.9336H213.739C213.366 48.403 212.992 48.722 212.618 48.8906C212.249 49.0547 211.786 49.1367 211.23 49.1367C210.488 49.1367 209.904 48.9453 209.48 48.5625C209.061 48.1797 208.852 47.6351 208.852 46.9287C208.852 45.4157 210.062 44.6227 212.481 44.5498L213.753 44.5088V44.0439C213.753 43.4561 213.625 43.0231 213.37 42.7451C213.119 42.4626 212.716 42.3213 212.16 42.3213C211.536 42.3213 210.829 42.5127 210.041 42.8955L209.692 42.0273C210.062 41.8268 210.465 41.6696 210.902 41.5557C211.344 41.4417 211.786 41.3848 212.229 41.3848C213.122 41.3848 213.783 41.583 214.211 41.9795C214.644 42.376 214.86 43.0117 214.86 43.8867V49H214.02ZM211.456 48.2002C212.162 48.2002 212.716 48.0065 213.117 47.6191C213.523 47.2318 213.726 46.6895 213.726 45.9922V45.3154L212.591 45.3633C211.688 45.3952 211.037 45.5365 210.636 45.7871C210.239 46.0332 210.041 46.4183 210.041 46.9424C210.041 47.3525 210.164 47.6647 210.41 47.8789C210.661 48.0931 211.009 48.2002 211.456 48.2002ZM219.625 48.2002C219.826 48.2002 220.019 48.1865 220.206 48.1592C220.393 48.1273 220.541 48.0954 220.65 48.0635V48.9316C220.527 48.9909 220.345 49.0387 220.104 49.0752C219.867 49.1162 219.652 49.1367 219.461 49.1367C218.012 49.1367 217.287 48.3734 217.287 46.8467V42.3896H216.214V41.8428L217.287 41.3711L217.766 39.7715H218.422V41.5078H220.596V42.3896H218.422V46.7988C218.422 47.25 218.529 47.5964 218.743 47.8379C218.957 48.0794 219.251 48.2002 219.625 48.2002ZM223.289 49H222.154V41.5078H223.289V49ZM222.059 39.4775C222.059 39.2178 222.122 39.0286 222.25 38.9102C222.378 38.7871 222.537 38.7256 222.729 38.7256C222.911 38.7256 223.068 38.7871 223.2 38.9102C223.332 39.0332 223.398 39.2223 223.398 39.4775C223.398 39.7327 223.332 39.9242 223.2 40.0518C223.068 40.1748 222.911 40.2363 222.729 40.2363C222.537 40.2363 222.378 40.1748 222.25 40.0518C222.122 39.9242 222.059 39.7327 222.059 39.4775ZM232.162 45.2471C232.162 46.4684 231.854 47.4232 231.239 48.1113C230.624 48.7949 229.774 49.1367 228.689 49.1367C228.02 49.1367 227.425 48.9795 226.905 48.665C226.386 48.3506 225.985 47.8994 225.702 47.3115C225.42 46.7236 225.278 46.0355 225.278 45.2471C225.278 44.0257 225.584 43.0755 226.194 42.3965C226.805 41.7129 227.653 41.3711 228.737 41.3711C229.785 41.3711 230.617 41.7197 231.232 42.417C231.852 43.1143 232.162 44.0576 232.162 45.2471ZM226.454 45.2471C226.454 46.2041 226.646 46.9333 227.028 47.4346C227.411 47.9359 227.974 48.1865 228.717 48.1865C229.46 48.1865 230.022 47.9382 230.405 47.4414C230.793 46.9401 230.986 46.2087 230.986 45.2471C230.986 44.2946 230.793 43.5723 230.405 43.0801C230.022 42.5833 229.455 42.335 228.703 42.335C227.96 42.335 227.4 42.5788 227.021 43.0664C226.643 43.554 226.454 44.2809 226.454 45.2471ZM239.285 49V44.1533C239.285 43.5426 239.146 43.0869 238.868 42.7861C238.59 42.4854 238.155 42.335 237.562 42.335C236.779 42.335 236.204 42.5469 235.84 42.9707C235.475 43.3945 235.293 44.0941 235.293 45.0693V49H234.158V41.5078H235.081L235.266 42.5332H235.32C235.553 42.1641 235.879 41.8792 236.298 41.6787C236.717 41.4736 237.184 41.3711 237.699 41.3711C238.602 41.3711 239.281 41.5898 239.736 42.0273C240.192 42.4603 240.42 43.1553 240.42 44.1123V49H239.285ZM242.594 48.2754C242.594 47.9701 242.662 47.7399 242.799 47.585C242.94 47.4255 243.141 47.3457 243.4 47.3457C243.665 47.3457 243.87 47.4255 244.016 47.585C244.166 47.7399 244.241 47.9701 244.241 48.2754C244.241 48.5716 244.166 48.7995 244.016 48.959C243.865 49.1185 243.66 49.1982 243.4 49.1982C243.168 49.1982 242.974 49.1276 242.819 48.9863C242.669 48.8405 242.594 48.6035 242.594 48.2754ZM242.594 42.2393C242.594 41.624 242.863 41.3164 243.4 41.3164C243.961 41.3164 244.241 41.624 244.241 42.2393C244.241 42.5355 244.166 42.7633 244.016 42.9229C243.865 43.0824 243.66 43.1621 243.4 43.1621C243.168 43.1621 242.974 43.0915 242.819 42.9502C242.669 42.8044 242.594 42.5674 242.594 42.2393ZM253.812 49H252.704V41.877C252.704 41.2845 252.722 40.724 252.759 40.1953C252.663 40.291 252.556 40.3913 252.438 40.4961C252.319 40.6009 251.777 41.0452 250.811 41.8291L250.209 41.0498L252.854 39.0059H253.812V49ZM263.238 47.9951H263.177C262.653 48.7562 261.869 49.1367 260.825 49.1367C259.845 49.1367 259.082 48.8018 258.535 48.1318C257.993 47.4619 257.722 46.5094 257.722 45.2744C257.722 44.0394 257.995 43.0801 258.542 42.3965C259.089 41.7129 259.85 41.3711 260.825 41.3711C261.841 41.3711 262.621 41.7402 263.163 42.4785H263.252L263.204 41.9385L263.177 41.4121V38.3633H264.312V49H263.389L263.238 47.9951ZM260.969 48.1865C261.743 48.1865 262.304 47.9769 262.65 47.5576C263.001 47.1338 263.177 46.4525 263.177 45.5137V45.2744C263.177 44.2126 262.999 43.4561 262.644 43.0049C262.293 42.5492 261.73 42.3213 260.955 42.3213C260.29 42.3213 259.779 42.5811 259.424 43.1006C259.073 43.6156 258.897 44.3447 258.897 45.2881C258.897 46.2451 259.073 46.9674 259.424 47.4551C259.775 47.9427 260.29 48.1865 260.969 48.1865ZM270.211 49.1367C269.723 49.1367 269.277 49.0479 268.871 48.8701C268.47 48.6878 268.133 48.4098 267.859 48.0361H267.777C267.832 48.4736 267.859 48.8883 267.859 49.2803V52.3633H266.725V41.5078H267.647L267.805 42.5332H267.859C268.151 42.123 268.491 41.8268 268.878 41.6445C269.265 41.4622 269.71 41.3711 270.211 41.3711C271.204 41.3711 271.97 41.7106 272.508 42.3896C273.05 43.0687 273.321 44.0212 273.321 45.2471C273.321 46.4775 273.046 47.4346 272.494 48.1182C271.947 48.7972 271.186 49.1367 270.211 49.1367ZM270.047 42.335C269.281 42.335 268.728 42.5469 268.386 42.9707C268.044 43.3945 267.868 44.069 267.859 44.9941V45.2471C267.859 46.2998 268.035 47.054 268.386 47.5098C268.737 47.9609 269.299 48.1865 270.074 48.1865C270.721 48.1865 271.227 47.9245 271.592 47.4004C271.961 46.8763 272.146 46.154 272.146 45.2334C272.146 44.2992 271.961 43.5837 271.592 43.0869C271.227 42.5856 270.712 42.335 270.047 42.335Z" fill="#727E84"/>
<path d="M188.945 155H183.374V145.006H188.945V146.038H184.536V149.258H188.679V150.283H184.536V153.961H188.945V155ZM192.131 155H190.996V144.363H192.131V155ZM197.702 155.137C196.595 155.137 195.72 154.799 195.077 154.125C194.439 153.451 194.12 152.514 194.12 151.315C194.12 150.108 194.416 149.148 195.009 148.438C195.606 147.727 196.406 147.371 197.408 147.371C198.347 147.371 199.09 147.681 199.637 148.301C200.184 148.916 200.457 149.729 200.457 150.741V151.459H195.296C195.319 152.339 195.54 153.006 195.959 153.462C196.383 153.918 196.978 154.146 197.743 154.146C198.55 154.146 199.347 153.977 200.136 153.64V154.651C199.735 154.825 199.354 154.948 198.994 155.021C198.639 155.098 198.208 155.137 197.702 155.137ZM197.395 148.321C196.793 148.321 196.312 148.517 195.952 148.909C195.597 149.301 195.387 149.843 195.323 150.536H199.24C199.24 149.821 199.081 149.274 198.762 148.896C198.443 148.513 197.987 148.321 197.395 148.321ZM204.039 155L201.195 147.508H202.412L204.025 151.951C204.39 152.99 204.604 153.665 204.668 153.975H204.723C204.773 153.733 204.93 153.234 205.194 152.478C205.463 151.716 206.062 150.06 206.992 147.508H208.209L205.365 155H204.039ZM214.02 155L213.794 153.934H213.739C213.366 154.403 212.992 154.722 212.618 154.891C212.249 155.055 211.786 155.137 211.23 155.137C210.488 155.137 209.904 154.945 209.48 154.562C209.061 154.18 208.852 153.635 208.852 152.929C208.852 151.416 210.062 150.623 212.481 150.55L213.753 150.509V150.044C213.753 149.456 213.625 149.023 213.37 148.745C213.119 148.463 212.716 148.321 212.16 148.321C211.536 148.321 210.829 148.513 210.041 148.896L209.692 148.027C210.062 147.827 210.465 147.67 210.902 147.556C211.344 147.442 211.786 147.385 212.229 147.385C213.122 147.385 213.783 147.583 214.211 147.979C214.644 148.376 214.86 149.012 214.86 149.887V155H214.02ZM211.456 154.2C212.162 154.2 212.716 154.007 213.117 153.619C213.523 153.232 213.726 152.689 213.726 151.992V151.315L212.591 151.363C211.688 151.395 211.037 151.536 210.636 151.787C210.239 152.033 210.041 152.418 210.041 152.942C210.041 153.353 210.164 153.665 210.41 153.879C210.661 154.093 211.009 154.2 211.456 154.2ZM219.625 154.2C219.826 154.2 220.019 154.187 220.206 154.159C220.393 154.127 220.541 154.095 220.65 154.063V154.932C220.527 154.991 220.345 155.039 220.104 155.075C219.867 155.116 219.652 155.137 219.461 155.137C218.012 155.137 217.287 154.373 217.287 152.847V148.39H216.214V147.843L217.287 147.371L217.766 145.771H218.422V147.508H220.596V148.39H218.422V152.799C218.422 153.25 218.529 153.596 218.743 153.838C218.957 154.079 219.251 154.2 219.625 154.2ZM223.289 155H222.154V147.508H223.289V155ZM222.059 145.478C222.059 145.218 222.122 145.029 222.25 144.91C222.378 144.787 222.537 144.726 222.729 144.726C222.911 144.726 223.068 144.787 223.2 144.91C223.332 145.033 223.398 145.222 223.398 145.478C223.398 145.733 223.332 145.924 223.2 146.052C223.068 146.175 222.911 146.236 222.729 146.236C222.537 146.236 222.378 146.175 222.25 146.052C222.122 145.924 222.059 145.733 222.059 145.478ZM232.162 151.247C232.162 152.468 231.854 153.423 231.239 154.111C230.624 154.795 229.774 155.137 228.689 155.137C228.02 155.137 227.425 154.979 226.905 154.665C226.386 154.351 225.985 153.899 225.702 153.312C225.42 152.724 225.278 152.035 225.278 151.247C225.278 150.026 225.584 149.076 226.194 148.396C226.805 147.713 227.653 147.371 228.737 147.371C229.785 147.371 230.617 147.72 231.232 148.417C231.852 149.114 232.162 150.058 232.162 151.247ZM226.454 151.247C226.454 152.204 226.646 152.933 227.028 153.435C227.411 153.936 227.974 154.187 228.717 154.187C229.46 154.187 230.022 153.938 230.405 153.441C230.793 152.94 230.986 152.209 230.986 151.247C230.986 150.295 230.793 149.572 230.405 149.08C230.022 148.583 229.455 148.335 228.703 148.335C227.96 148.335 227.4 148.579 227.021 149.066C226.643 149.554 226.454 150.281 226.454 151.247ZM239.285 155V150.153C239.285 149.543 239.146 149.087 238.868 148.786C238.59 148.485 238.155 148.335 237.562 148.335C236.779 148.335 236.204 148.547 235.84 148.971C235.475 149.395 235.293 150.094 235.293 151.069V155H234.158V147.508H235.081L235.266 148.533H235.32C235.553 148.164 235.879 147.879 236.298 147.679C236.717 147.474 237.184 147.371 237.699 147.371C238.602 147.371 239.281 147.59 239.736 148.027C240.192 148.46 240.42 149.155 240.42 150.112V155H239.285ZM242.594 154.275C242.594 153.97 242.662 153.74 242.799 153.585C242.94 153.425 243.141 153.346 243.4 153.346C243.665 153.346 243.87 153.425 244.016 153.585C244.166 153.74 244.241 153.97 244.241 154.275C244.241 154.572 244.166 154.799 244.016 154.959C243.865 155.118 243.66 155.198 243.4 155.198C243.168 155.198 242.974 155.128 242.819 154.986C242.669 154.84 242.594 154.604 242.594 154.275ZM242.594 148.239C242.594 147.624 242.863 147.316 243.4 147.316C243.961 147.316 244.241 147.624 244.241 148.239C244.241 148.535 244.166 148.763 244.016 148.923C243.865 149.082 243.66 149.162 243.4 149.162C243.168 149.162 242.974 149.091 242.819 148.95C242.669 148.804 242.594 148.567 242.594 148.239ZM253.812 155H252.704V147.877C252.704 147.285 252.722 146.724 252.759 146.195C252.663 146.291 252.556 146.391 252.438 146.496C252.319 146.601 251.777 147.045 250.811 147.829L250.209 147.05L252.854 145.006H253.812V155ZM264.188 155H257.619V154.022L260.251 151.377C261.053 150.566 261.582 149.987 261.837 149.641C262.092 149.294 262.284 148.957 262.411 148.629C262.539 148.301 262.603 147.948 262.603 147.569C262.603 147.036 262.441 146.615 262.117 146.305C261.794 145.99 261.345 145.833 260.771 145.833C260.356 145.833 259.962 145.901 259.588 146.038C259.219 146.175 258.806 146.423 258.351 146.783L257.749 146.011C258.67 145.245 259.672 144.862 260.757 144.862C261.696 144.862 262.432 145.104 262.965 145.587C263.498 146.065 263.765 146.71 263.765 147.521C263.765 148.155 263.587 148.782 263.231 149.401C262.876 150.021 262.211 150.805 261.235 151.753L259.048 153.893V153.947H264.188V155ZM271.25 153.995H271.188C270.664 154.756 269.881 155.137 268.837 155.137C267.857 155.137 267.094 154.802 266.547 154.132C266.005 153.462 265.733 152.509 265.733 151.274C265.733 150.039 266.007 149.08 266.554 148.396C267.101 147.713 267.862 147.371 268.837 147.371C269.853 147.371 270.632 147.74 271.175 148.479H271.264L271.216 147.938L271.188 147.412V144.363H272.323V155H271.4L271.25 153.995ZM268.98 154.187C269.755 154.187 270.316 153.977 270.662 153.558C271.013 153.134 271.188 152.452 271.188 151.514V151.274C271.188 150.213 271.011 149.456 270.655 149.005C270.304 148.549 269.742 148.321 268.967 148.321C268.301 148.321 267.791 148.581 267.436 149.101C267.085 149.616 266.909 150.345 266.909 151.288C266.909 152.245 267.085 152.967 267.436 153.455C267.786 153.943 268.301 154.187 268.98 154.187ZM278.223 155.137C277.735 155.137 277.288 155.048 276.883 154.87C276.482 154.688 276.145 154.41 275.871 154.036H275.789C275.844 154.474 275.871 154.888 275.871 155.28V158.363H274.736V147.508H275.659L275.816 148.533H275.871C276.163 148.123 276.502 147.827 276.89 147.645C277.277 147.462 277.721 147.371 278.223 147.371C279.216 147.371 279.982 147.711 280.52 148.39C281.062 149.069 281.333 150.021 281.333 151.247C281.333 152.478 281.057 153.435 280.506 154.118C279.959 154.797 279.198 155.137 278.223 155.137ZM278.059 148.335C277.293 148.335 276.739 148.547 276.397 148.971C276.056 149.395 275.88 150.069 275.871 150.994V151.247C275.871 152.3 276.047 153.054 276.397 153.51C276.748 153.961 277.311 154.187 278.086 154.187C278.733 154.187 279.239 153.924 279.604 153.4C279.973 152.876 280.157 152.154 280.157 151.233C280.157 150.299 279.973 149.584 279.604 149.087C279.239 148.586 278.724 148.335 278.059 148.335Z" fill="#727E84"/>
</g>
<defs>
<filter id="filter0_ddd_5416_312782" x="47" y="24" width="85" height="42" filterUnits="userSpaceOnUse" color-interpolation-filters="sRGB">
<feFlood flood-opacity="0" result="BackgroundImageFix"/>
<feColorMatrix in="SourceAlpha" type="matrix" values="0 0 0 0 0 0 0 0 0 0 0 0 0 0 0 0 0 0 127 0" result="hardAlpha"/>
<feOffset dy="1"/>
<feGaussianBlur stdDeviation="1.5"/>
<feColorMatrix type="matrix" values="0 0 0 0 0 0 0 0 0 0 0 0 0 0 0 0 0 0 0.12 0"/>
<feBlend mode="normal" in2="BackgroundImageFix" result="effect1_dropShadow_5416_312782"/>
<feColorMatrix in="SourceAlpha" type="matrix" values="0 0 0 0 0 0 0 0 0 0 0 0 0 0 0 0 0 0 127 0" result="hardAlpha"/>
<feOffset dy="1"/>
<feGaussianBlur stdDeviation="0.5"/>
<feColorMatrix type="matrix" values="0 0 0 0 0 0 0 0 0 0 0 0 0 0 0 0 0 0 0.14 0"/>
<feBlend mode="normal" in2="effect1_dropShadow_5416_312782" result="effect2_dropShadow_5416_312782"/>
<feColorMatrix in="SourceAlpha" type="matrix" values="0 0 0 0 0 0 0 0 0 0 0 0 0 0 0 0 0 0 127 0" result="hardAlpha"/>
<feMorphology radius="1" operator="erode" in="SourceAlpha" result="effect3_dropShadow_5416_312782"/>
<feOffset dy="2"/>
<feGaussianBlur stdDeviation="0.5"/>
<feColorMatrix type="matrix" values="0 0 0 0 0 0 0 0 0 0 0 0 0 0 0 0 0 0 0.2 0"/>
<feBlend mode="normal" in2="effect2_dropShadow_5416_312782" result="effect3_dropShadow_5416_312782"/>
<feBlend mode="normal" in="SourceGraphic" in2="effect3_dropShadow_5416_312782" result="shape"/>
</filter>
<filter id="filter1_ddd_5416_312782" x="-9" y="105" width="198" height="100" filterUnits="userSpaceOnUse" color-interpolation-filters="sRGB">
<feFlood flood-opacity="0" result="BackgroundImageFix"/>
<feColorMatrix in="SourceAlpha" type="matrix" values="0 0 0 0 0 0 0 0 0 0 0 0 0 0 0 0 0 0 127 0" result="hardAlpha"/>
<feMorphology radius="4" operator="dilate" in="SourceAlpha" result="effect1_dropShadow_5416_312782"/>
<feOffset dy="5"/>
<feGaussianBlur stdDeviation="11"/>
<feColorMatrix type="matrix" values="0 0 0 0 0 0 0 0 0 0 0 0 0 0 0 0 0 0 0.12 0"/>
<feBlend mode="normal" in2="BackgroundImageFix" result="effect1_dropShadow_5416_312782"/>
<feColorMatrix in="SourceAlpha" type="matrix" values="0 0 0 0 0 0 0 0 0 0 0 0 0 0 0 0 0 0 127 0" result="hardAlpha"/>
<feMorphology radius="2" operator="dilate" in="SourceAlpha" result="effect2_dropShadow_5416_312782"/>
<feOffset dy="12"/>
<feGaussianBlur stdDeviation="8.5"/>
<feColorMatrix type="matrix" values="0 0 0 0 0.258824 0 0 0 0 0.305882 0 0 0 0 0.329412 0 0 0 0.14 0"/>
<feBlend mode="normal" in2="effect1_dropShadow_5416_312782" result="effect2_dropShadow_5416_312782"/>
<feColorMatrix in="SourceAlpha" type="matrix" values="0 0 0 0 0 0 0 0 0 0 0 0 0 0 0 0 0 0 127 0" result="hardAlpha"/>
<feMorphology radius="4" operator="erode" in="SourceAlpha" result="effect3_dropShadow_5416_312782"/>
<feOffset dy="7"/>
<feGaussianBlur stdDeviation="4"/>
<feColorMatrix type="matrix" values="0 0 0 0 0 0 0 0 0 0 0 0 0 0 0 0 0 0 0.2 0"/>
<feBlend mode="normal" in2="effect2_dropShadow_5416_312782" result="effect3_dropShadow_5416_312782"/>
<feBlend mode="normal" in="SourceGraphic" in2="effect3_dropShadow_5416_312782" result="shape"/>
</filter>
<clipPath id="clip0_5416_312782">
<rect width="300" height="200" fill="white"/>
</clipPath>
</defs>
</svg>
