<svg width="364" height="64" viewBox="0 0 364 64" fill="none" xmlns="http://www.w3.org/2000/svg">
<g clip-path="url(#clip0)">
<path d="M102.766 -8.53342C102.687 -8.63951 102.584 -8.72562 102.465 -8.78491C102.347 -8.84421 102.216 -8.87505 102.083 -8.875L88.4167 -8.875C88.2841 -8.87505 88.1533 -8.84421 88.0347 -8.78491C87.9161 -8.72562 87.813 -8.63951 87.7335 -8.53342C87.7335 -8.53342 85 -4.61442 85 -4.60417L85 26.1458C85 26.258 85.022 26.3691 85.065 26.4727C85.1079 26.5764 85.1708 26.6706 85.2501 26.7499C85.3294 26.8292 85.4236 26.8921 85.5273 26.935C85.6309 26.978 85.742 27 85.8542 27H104.646C104.758 27 104.869 26.978 104.973 26.935C105.076 26.8921 105.171 26.8292 105.25 26.7499C105.329 26.6706 105.392 26.5764 105.435 26.4727C105.478 26.3691 105.5 26.258 105.5 26.1458V-4.60417C105.5 -4.61442 102.766 -8.53342 102.766 -8.53342ZM88.8438 -7.16667L101.656 -7.16667L102.938 -5.45833L87.5625 -5.45833L88.8438 -7.16667ZM103.792 25.2917H86.7083V-3.75L103.792 -3.75V25.2917Z" fill="#FBBC3F" fill-opacity="0.25"/>
<path d="M88.4167 21.0208C89.0961 21.0215 89.7474 21.2917 90.2278 21.7722C90.7082 22.2526 90.9784 22.9039 90.9792 23.5833C90.9791 23.6955 91.0012 23.8066 91.0441 23.9102C91.087 24.0138 91.15 24.108 91.2293 24.1873C91.3086 24.2667 91.4028 24.3296 91.5064 24.3725C91.6101 24.4154 91.7212 24.4375 91.8333 24.4375H98.6667C98.7788 24.4375 98.8899 24.4154 98.9936 24.3725C99.0972 24.3296 99.1914 24.2667 99.2707 24.1873C99.35 24.108 99.413 24.0138 99.4559 23.9102C99.4988 23.8066 99.5209 23.6955 99.5208 23.5833C99.5216 22.9039 99.7918 22.2526 100.272 21.7722C100.753 21.2917 101.404 21.0215 102.083 21.0208C102.196 21.0208 102.307 20.9987 102.41 20.9558C102.514 20.9129 102.608 20.85 102.687 20.7707C102.767 20.6914 102.83 20.5972 102.873 20.4935C102.915 20.3899 102.938 20.2788 102.938 20.1666V1.37496C102.938 1.26278 102.915 1.15169 102.873 1.04805C102.83 0.944403 102.767 0.850229 102.687 0.770906C102.608 0.691584 102.514 0.628669 102.41 0.585754C102.307 0.542838 102.196 0.520764 102.083 0.520793C101.404 0.520051 100.753 0.249836 100.272 -0.230565C99.7918 -0.710967 99.5216 -1.36232 99.5208 -2.04171C99.5209 -2.15389 99.4988 -2.26497 99.4559 -2.36862C99.413 -2.47226 99.35 -2.56644 99.2707 -2.64576C99.1914 -2.72508 99.0972 -2.788 98.9936 -2.83091C98.8899 -2.87383 98.7788 -2.8959 98.6667 -2.89587H91.8333C91.7212 -2.8959 91.6101 -2.87383 91.5064 -2.83091C91.4028 -2.788 91.3086 -2.72508 91.2293 -2.64576C91.15 -2.56644 91.087 -2.47226 91.0441 -2.36862C91.0012 -2.26497 90.9791 -2.15389 90.9792 -2.04171C90.9784 -1.36232 90.7082 -0.710967 90.2278 -0.230565C89.7474 0.249836 89.0961 0.520051 88.4167 0.520793C88.3045 0.520764 88.1934 0.542838 88.0898 0.585754C87.9861 0.628669 87.8919 0.691584 87.8126 0.770906C87.7333 0.850229 87.6704 0.944403 87.6275 1.04805C87.5845 1.15169 87.5625 1.26278 87.5625 1.37496V20.1666C87.5625 20.2788 87.5845 20.3899 87.6275 20.4935C87.6704 20.5972 87.7333 20.6914 87.8126 20.7707C87.8919 20.85 87.9861 20.9129 88.0898 20.9558C88.1934 20.9987 88.3045 21.0208 88.4167 21.0208ZM89.2708 2.14321C90.0907 1.97423 90.8432 1.56871 91.4351 0.976758C92.0271 0.384807 92.4326 -0.367625 92.6016 -1.18754L97.8984 -1.18754C98.0674 -0.367625 98.4729 0.384807 99.0649 0.976758C99.6568 1.56871 100.409 1.97423 101.229 2.14321V19.3984C100.409 19.5674 99.6568 19.9729 99.0649 20.5648C98.4729 21.1568 98.0674 21.9092 97.8984 22.7291H92.6016C92.4326 21.9092 92.0271 21.1568 91.4351 20.5648C90.8432 19.9729 90.0907 19.5674 89.2708 19.3984V2.14321Z" fill="#FBBC3F" fill-opacity="0.25"/>
<path d="M92.6874 15.0417H97.8124C97.9916 15.0417 98.1663 14.9854 98.3117 14.8806C98.4571 14.7757 98.5658 14.6278 98.6223 14.4578L100.331 9.33276C100.386 9.16707 100.389 8.98836 100.34 8.82076C100.291 8.65317 100.191 8.50477 100.055 8.39559L95.7837 4.97893C95.6321 4.85783 95.4439 4.79187 95.2499 4.79187C95.0559 4.79187 94.8676 4.85783 94.716 4.97893L90.4452 8.39559C90.3088 8.50477 90.2092 8.65317 90.1598 8.82076C90.1104 8.98836 90.1137 9.16707 90.1691 9.33276L91.8774 14.4578C91.934 14.6278 92.0427 14.7757 92.1881 14.8806C92.3335 14.9854 92.5082 15.0417 92.6874 15.0417ZM93.303 13.3333L95.2499 12.5801L97.1968 13.3333H93.303ZM95.2499 6.73981L98.5222 9.35736L97.6447 11.9895C97.5677 11.8741 97.463 11.7798 97.3402 11.7151L96.104 11.097V10.7708H96.9582C97.1848 10.7708 97.402 10.6808 97.5622 10.5206C97.7224 10.3605 97.8124 10.1432 97.8124 9.91666C97.8124 9.69012 97.7224 9.47286 97.5622 9.31267C97.402 9.15248 97.1848 9.06249 96.9582 9.06249H96.104V8.20833C96.104 7.98179 96.0141 7.76453 95.8539 7.60434C95.6937 7.44415 95.4764 7.35416 95.2499 7.35416C95.0233 7.35416 94.8061 7.44415 94.6459 7.60434C94.4857 7.76453 94.3957 7.98179 94.3957 8.20833V9.06249H93.5415C93.315 9.06249 93.0977 9.15248 92.9376 9.31267C92.7774 9.47286 92.6874 9.69012 92.6874 9.91666C92.6874 10.1432 92.7774 10.3605 92.9376 10.5206C93.0977 10.6808 93.315 10.7708 93.5415 10.7708H94.3957V11.097L93.1595 11.7151C93.0367 11.7798 92.932 11.8741 92.855 11.9895L91.9776 9.35736L95.2499 6.73981Z" fill="#FBBC3F" fill-opacity="0.25"/>
<path d="M125.325 2.24799L113.367 -0.314507C113.257 -0.338447 113.145 -0.340614 113.034 -0.320884C112.924 -0.301154 112.819 -0.259913 112.725 -0.199522C112.631 -0.139131 112.55 -0.0607728 112.486 0.0310676C112.422 0.122908 112.377 0.226429 112.353 0.33571L107.228 23.3982C107.204 23.5082 107.201 23.622 107.221 23.7329C107.241 23.8439 107.283 23.9498 107.343 24.0446C107.404 24.1395 107.483 24.2214 107.576 24.2856C107.668 24.3498 107.773 24.395 107.883 24.4187L119.841 26.9812C119.901 26.9938 119.961 27.0001 120.022 27C120.216 26.9998 120.404 26.9335 120.556 26.8119C120.707 26.6903 120.813 26.5207 120.855 26.331L125.98 3.26855C126.004 3.15853 126.007 3.04477 125.987 2.93382C125.967 2.82288 125.926 2.71693 125.865 2.62208C125.804 2.52724 125.725 2.44536 125.632 2.38115C125.54 2.31695 125.435 2.2717 125.325 2.24799ZM119.371 25.1332L109.083 22.9286L113.837 1.53359L124.126 3.73817L119.371 25.1332Z" fill="#FBBC3F" fill-opacity="0.25"/>
<path d="M113.495 5.38892L110.359 19.1907C110.309 19.4116 110.349 19.6433 110.47 19.8349C110.59 20.0265 110.782 20.1624 111.003 20.213C111.221 20.2604 111.428 20.3508 111.612 20.4789C111.795 20.607 111.951 20.7703 112.071 20.9592C112.191 21.1481 112.272 21.359 112.309 21.5795C112.347 21.8 112.34 22.0258 112.29 22.2437C112.265 22.3532 112.263 22.4665 112.282 22.5771C112.301 22.6877 112.342 22.7934 112.402 22.8881C112.463 22.9829 112.541 23.0648 112.633 23.1293C112.725 23.1938 112.828 23.2395 112.938 23.2639L115.629 23.862C115.69 23.8756 115.752 23.8825 115.814 23.8824C116.009 23.8825 116.197 23.8162 116.349 23.6945C116.501 23.5727 116.606 23.4029 116.648 23.213C116.695 22.9924 116.785 22.7835 116.914 22.5984C117.042 22.4133 117.207 22.2559 117.397 22.1356C117.588 22.0152 117.801 21.9342 118.023 21.8975C118.245 21.8608 118.473 21.869 118.692 21.9217C118.913 21.971 119.144 21.9309 119.335 21.8103C119.526 21.6896 119.662 21.4982 119.713 21.2778L122.849 7.47598C122.874 7.36655 122.877 7.25331 122.858 7.14274C122.839 7.03217 122.798 6.92644 122.738 6.83159C122.679 6.73627 122.602 6.65374 122.51 6.58885C122.418 6.52396 122.315 6.47802 122.205 6.45373C121.209 6.23737 120.889 4.55438 120.918 4.423C120.943 4.31345 120.945 4.20015 120.926 4.08957C120.907 3.97899 120.866 3.8733 120.806 3.77856C120.745 3.68381 120.667 3.60185 120.575 3.53737C120.483 3.4729 120.38 3.42717 120.27 3.4028L117.579 2.80472C117.47 2.78032 117.356 2.77776 117.246 2.79718C117.135 2.8166 117.03 2.85762 116.935 2.91789C116.84 2.97817 116.758 3.05651 116.694 3.14845C116.63 3.24038 116.584 3.3441 116.56 3.45368C116.513 3.67423 116.423 3.88322 116.295 4.06828C116.166 4.25335 116.001 4.41073 115.811 4.53112C115.62 4.65151 115.408 4.73247 115.185 4.76919C114.963 4.80592 114.735 4.79767 114.516 4.74494C114.295 4.69553 114.064 4.73554 113.873 4.85622C113.681 4.9769 113.546 5.16843 113.495 5.38892ZM114.995 6.49834C115.607 6.47696 116.201 6.29291 116.718 5.96514C117.235 5.63737 117.655 5.17774 117.935 4.6336L119.168 4.90804C119.187 5.51564 119.368 6.10714 119.693 6.62063C120.018 7.13411 120.476 7.55068 121.017 7.82672L118.213 20.1684C117.601 20.1898 117.007 20.3738 116.49 20.7016C115.973 21.0293 115.553 21.489 115.273 22.0331L114.04 21.7587C114.022 21.1511 113.84 20.5596 113.515 20.0461C113.19 19.5326 112.732 19.116 112.191 18.84L114.995 6.49834Z" fill="#FBBC3F" fill-opacity="0.25"/>
<path d="M116.604 15.8959C117.111 15.8959 117.607 15.7456 118.028 15.464C118.45 15.1824 118.778 14.7822 118.972 14.314C119.166 13.8458 119.217 13.3305 119.118 12.8335C119.019 12.3364 118.775 11.8798 118.416 11.5214C118.058 11.163 117.601 10.919 117.104 10.8201C116.607 10.7212 116.092 10.772 115.624 10.9659C115.156 11.1599 114.755 11.4883 114.474 11.9097C114.192 12.3311 114.042 12.8266 114.042 13.3334C114.043 14.0128 114.313 14.6641 114.793 15.1445C115.274 15.6249 115.925 15.8951 116.604 15.8959ZM116.604 12.4792C116.773 12.4792 116.939 12.5293 117.079 12.6232C117.22 12.717 117.329 12.8504 117.394 13.0065C117.458 13.1626 117.475 13.3343 117.442 13.5C117.409 13.6657 117.328 13.8179 117.208 13.9374C117.089 14.0568 116.937 14.1382 116.771 14.1711C116.605 14.2041 116.434 14.1872 116.278 14.1225C116.122 14.0579 115.988 13.9484 115.894 13.8079C115.8 13.6675 115.75 13.5023 115.75 13.3334C115.751 13.1069 115.841 12.8898 116.001 12.7296C116.161 12.5695 116.378 12.4794 116.604 12.4792Z" fill="#FBBC3F" fill-opacity="0.25"/>
<path d="M277.512 21.0721C278.064 20.9112 278.634 20.817 279.208 20.7917C279.347 20.7916 279.483 20.7552 279.603 20.686C279.724 20.6168 279.823 20.5173 279.893 20.3973C279.963 20.2774 279.999 20.1413 280 20.0027C280 19.864 279.964 19.7277 279.896 19.6073L277.649 15.6764L279.016 16.0181C279.149 16.0512 279.288 16.0494 279.42 16.0129C279.551 15.9764 279.671 15.9064 279.768 15.8097C279.865 15.7131 279.935 15.593 279.971 15.4612C280.008 15.3295 280.01 15.1905 279.976 15.0579C279.311 12.3975 277.175 10.3071 276.208 9.47113C276.869 8.63095 277.15 7.431 277.519 5.5687L277.61 5.11372C277.644 4.93491 277.616 4.74956 277.531 4.58889C277.445 4.42822 277.306 4.30202 277.138 4.23155C276.97 4.16108 276.783 4.15063 276.608 4.20197C276.433 4.2533 276.282 4.36328 276.178 4.5134C276.165 4.53346 274.774 6.46512 270.85 7.25133C270.151 6.5495 269.246 6.08862 268.268 5.93558L268.685 5.51804C268.773 5.42937 268.84 5.32087 268.878 5.20149C268.917 5.0821 268.927 4.95526 268.907 4.83142C268.886 4.70758 268.837 4.59029 268.763 4.48922C268.689 4.38816 268.591 4.30621 268.479 4.25013C267.088 3.70662 265.61 3.41741 264.116 3.39628C263.797 2.09269 261.897 1.28116 261.277 1.04987C261.098 0.983377 260.902 0.983377 260.723 1.04987C260.103 1.28117 258.203 2.0927 257.884 3.39631C256.39 3.41744 254.912 3.70665 253.521 4.25017C253.409 4.30624 253.311 4.38819 253.237 4.48926C253.163 4.59033 253.114 4.70761 253.093 4.83145C253.073 4.95528 253.083 5.08212 253.122 5.2015C253.16 5.32087 253.227 5.42937 253.315 5.51804L253.732 5.93552C252.754 6.08861 251.849 6.5495 251.15 7.25135C247.244 6.46873 245.849 4.55165 245.822 4.51377C245.719 4.36256 245.567 4.25151 245.392 4.19946C245.217 4.14741 245.029 4.15757 244.861 4.22822C244.692 4.29887 244.553 4.42566 244.467 4.58706C244.382 4.74846 244.355 4.93453 244.39 5.1137L244.481 5.56868C244.85 7.43096 245.131 8.63093 245.792 9.47111C244.825 10.3071 242.689 12.3975 242.024 15.0579C241.99 15.1905 241.992 15.3295 242.029 15.4612C242.065 15.593 242.135 15.7131 242.232 15.8097C242.329 15.9064 242.449 15.9764 242.58 16.0129C242.712 16.0494 242.851 16.0512 242.984 16.0181L244.351 15.6764L242.104 19.6073C242.036 19.7276 242 19.8637 242.001 20.002C242.001 20.1404 242.038 20.2762 242.107 20.396C242.177 20.5158 242.276 20.6153 242.396 20.6847C242.516 20.7541 242.651 20.791 242.79 20.7917C243.365 20.8169 243.935 20.911 244.488 21.0721C243.749 21.5669 243.138 22.2302 242.706 23.0072C242.273 23.7843 242.031 24.6529 242 25.5417C242 30.1583 244.146 31.875 249.917 31.875C250.225 32.0891 250.494 32.3563 250.709 32.6643L250.708 32.6667V35.8333C250.708 36.0433 250.792 36.2447 250.94 36.3931C251.089 36.5416 251.29 36.625 251.5 36.625C251.71 36.625 251.911 36.5416 252.06 36.3931C252.208 36.2447 252.292 36.0433 252.292 35.8333V34.2265C252.788 34.5977 253.318 34.9212 253.875 35.1925V36.625C253.875 36.835 253.958 37.0363 254.107 37.1848C254.255 37.3333 254.457 37.4167 254.667 37.4167C254.877 37.4167 255.078 37.3333 255.226 37.1848C255.375 37.0363 255.458 36.835 255.458 36.625V35.8409C255.978 36.0041 256.507 36.1385 257.042 36.2434V37.4167C257.042 37.6266 257.125 37.828 257.274 37.9765C257.422 38.1249 257.623 38.2083 257.833 38.2083C258.043 38.2083 258.245 38.1249 258.393 37.9765C258.542 37.828 258.625 37.6266 258.625 37.4167V36.4867C259.124 36.5418 259.652 36.5787 260.208 36.5974V38.2083C260.208 38.4183 260.292 38.6197 260.44 38.7681C260.589 38.9166 260.79 39 261 39C261.21 39 261.411 38.9166 261.56 38.7681C261.708 38.6197 261.792 38.4183 261.792 38.2083V36.5974C262.348 36.5784 262.876 36.5415 263.375 36.4867V37.4167C263.375 37.6266 263.458 37.828 263.607 37.9765C263.755 38.1249 263.957 38.2083 264.167 38.2083C264.377 38.2083 264.578 38.1249 264.726 37.9765C264.875 37.828 264.958 37.6266 264.958 37.4167V36.2434C265.493 36.1385 266.022 36.0041 266.542 35.8409V36.625C266.542 36.835 266.625 37.0363 266.774 37.1848C266.922 37.3333 267.123 37.4167 267.333 37.4167C267.543 37.4167 267.745 37.3333 267.893 37.1848C268.042 37.0363 268.125 36.835 268.125 36.625V35.1925C268.682 34.9212 269.212 34.5977 269.708 34.2265V35.8333C269.708 36.0433 269.792 36.2447 269.94 36.3931C270.089 36.5416 270.29 36.625 270.5 36.625C270.71 36.625 270.911 36.5416 271.06 36.3931C271.208 36.2447 271.292 36.0433 271.292 35.8333V32.6667L271.291 32.6643C271.506 32.3563 271.775 32.0891 272.083 31.875C277.854 31.875 280 30.1583 280 25.5417C279.969 24.6529 279.727 23.7843 279.294 23.0072C278.862 22.2302 278.251 21.5669 277.512 21.0721ZM272.226 15.8109C271.916 16.1667 271.527 16.4445 271.089 16.6221C270.652 16.7997 270.179 16.8721 269.708 16.8333C267.166 16.8333 266.666 15.3373 266.567 14.7107C266.815 14.4246 267.079 14.1521 267.356 13.8945C267.394 14.2972 267.534 14.6836 267.764 15.0167C267.993 15.3499 268.304 15.6187 268.667 15.7976C269.03 15.9765 269.432 16.0595 269.836 16.0387C270.24 16.0179 270.632 15.894 270.975 15.6788C271.317 15.4636 271.599 15.1643 271.793 14.8093C271.987 14.4544 272.087 14.0557 272.083 13.6512C272.079 13.2467 271.972 12.8499 271.772 12.4986C271.571 12.1474 271.284 11.8533 270.937 11.6445C271.361 11.4884 271.796 11.3652 272.239 11.2762C272.497 11.2245 272.741 11.1718 272.97 11.1182C273.114 12.0945 273.319 14.4522 272.226 15.8109ZM270.5 13.6667C270.5 13.8232 270.454 13.9763 270.367 14.1065C270.28 14.2367 270.156 14.3381 270.011 14.3981C269.867 14.458 269.707 14.4737 269.554 14.4431C269.4 14.4126 269.259 14.3372 269.149 14.2265C269.038 14.1157 268.962 13.9747 268.932 13.8211C268.901 13.6675 268.917 13.5084 268.977 13.3637C269.037 13.219 269.138 13.0954 269.269 13.0084C269.399 12.9214 269.552 12.875 269.708 12.875C269.918 12.8753 270.119 12.9588 270.268 13.1072C270.416 13.2556 270.5 13.4568 270.5 13.6667ZM271.928 9.72379C270.104 10.1131 268.403 10.9387 266.968 12.1297C267.213 11.3022 267.687 10.5607 268.335 9.99038C268.983 9.42009 269.778 9.04417 270.63 8.90584C272.38 8.64953 274.06 8.04022 275.567 7.11492C275.095 8.92014 274.507 9.20812 271.928 9.72379ZM261.001 2.64517C261.845 3.0097 262.551 3.53851 262.583 3.77198C262.569 4.0793 261.85 4.87097 261 5.55092C260.148 4.87097 259.428 4.07776 259.417 3.77354C259.446 3.54238 260.154 3.01241 261.001 2.64517ZM261 12.9685L262.229 13.5832C262.319 13.6291 262.418 13.6567 262.519 13.6644C262.62 13.6722 262.721 13.6599 262.817 13.6283L262.804 13.6667H259.196L259.183 13.6287C259.377 13.6904 259.588 13.674 259.771 13.5831L261 12.9685ZM263.22 12.4212C263.148 12.3142 263.051 12.2268 262.937 12.1668L261.792 11.594V11.2917H262.583C262.793 11.2917 262.995 11.2083 263.143 11.0598C263.292 10.9113 263.375 10.71 263.375 10.5C263.375 10.29 263.292 10.0887 263.143 9.9402C262.995 9.79174 262.793 9.70833 262.583 9.70833H261.792V8.91666C261.792 8.7067 261.708 8.50534 261.56 8.35687C261.411 8.2084 261.21 8.125 261 8.125C260.79 8.125 260.589 8.2084 260.44 8.35687C260.292 8.50534 260.208 8.7067 260.208 8.91666V9.70833H259.417C259.207 9.70833 259.005 9.79174 258.857 9.9402C258.708 10.0887 258.625 10.29 258.625 10.5C258.625 10.71 258.708 10.9113 258.857 11.0598C259.005 11.2083 259.207 11.2917 259.417 11.2917H260.208V11.594L259.063 12.1668C258.949 12.2268 258.852 12.3142 258.78 12.4212L257.967 9.98162L261 7.5556L264.033 9.98162L263.22 12.4212ZM251.37 8.90584C252.219 9.04561 253.011 9.42114 253.657 9.9896C254.302 10.5581 254.775 11.2965 255.021 12.1208C253.589 10.9345 251.891 10.1122 250.072 9.72377C247.493 9.20812 246.905 8.92014 246.433 7.11492C247.94 8.04022 249.62 8.64953 251.37 8.90584ZM249.03 11.1182C249.26 11.1721 249.504 11.2248 249.761 11.2762C250.204 11.3653 250.638 11.4887 251.061 11.6453C250.715 11.8542 250.428 12.1483 250.228 12.4994C250.028 12.8505 249.921 13.2471 249.917 13.6513C249.913 14.0555 250.013 14.454 250.207 14.8088C250.401 15.1635 250.682 15.4627 251.024 15.678C251.366 15.8932 251.758 16.0173 252.162 16.0384C252.565 16.0596 252.968 15.977 253.33 15.7986C253.693 15.6203 254.004 15.352 254.234 15.0194C254.464 14.6868 254.605 14.301 254.643 13.8986C254.921 14.156 255.185 14.4281 255.434 14.7137C255.336 15.3298 254.835 16.8333 252.292 16.8333C251.821 16.8721 251.348 16.7997 250.911 16.6221C250.473 16.4445 250.084 16.1667 249.774 15.8109C248.681 14.4522 248.886 12.0945 249.03 11.1182ZM253.083 13.6667C253.083 13.8232 253.037 13.9763 252.95 14.1065C252.863 14.2367 252.739 14.3381 252.595 14.3981C252.45 14.458 252.291 14.4737 252.137 14.4431C251.984 14.4126 251.843 14.3372 251.732 14.2265C251.621 14.1157 251.546 13.9747 251.515 13.8211C251.485 13.6675 251.5 13.5084 251.56 13.3637C251.62 13.219 251.722 13.0954 251.852 13.0084C251.982 12.9214 252.135 12.875 252.292 12.875C252.502 12.8753 252.703 12.9588 252.851 13.1072C253 13.2556 253.083 13.4568 253.083 13.6667ZM244.076 19.3475L246.646 14.8511C246.723 14.7164 246.758 14.562 246.748 14.4072C246.738 14.2524 246.683 14.1039 246.589 13.9802C246.496 13.8566 246.368 13.7632 246.221 13.7116C246.075 13.6601 245.917 13.6526 245.766 13.6902L244.056 14.1177C244.812 12.7142 245.836 11.4731 247.071 10.4653C247.205 10.5309 247.347 10.5939 247.499 10.6541C247.326 11.6666 246.95 14.8208 248.537 16.7989C248.993 17.3428 249.57 17.7724 250.222 18.0533C250.874 18.3342 251.583 18.4587 252.292 18.4167C256.049 18.4167 257.042 15.8275 257.042 14.4583C257.042 12.5828 256.179 9.10612 253.114 7.77753C253.864 7.49419 254.658 7.34387 255.459 7.33333C255.616 7.33297 255.769 7.2863 255.899 7.1992C256.029 7.11211 256.13 6.98849 256.189 6.84394C256.249 6.69939 256.265 6.54038 256.234 6.38698C256.204 6.23357 256.129 6.09264 256.018 5.98195L255.337 5.30045C256.297 5.10325 257.273 4.99121 258.254 4.96565C258.664 5.56169 259.159 6.09571 259.721 6.55136L256.547 9.09024C256.421 9.19141 256.328 9.32892 256.283 9.48422C256.237 9.63953 256.239 9.80517 256.291 9.95883L257.874 14.7088C257.926 14.8664 258.027 15.0035 258.162 15.1006C258.297 15.1978 258.459 15.25 258.625 15.25H263.375C263.541 15.25 263.703 15.1978 263.838 15.1006C263.973 15.0035 264.074 14.8664 264.126 14.7088L265.709 9.95882C265.761 9.80516 265.763 9.63952 265.717 9.48422C265.672 9.32891 265.579 9.1914 265.453 9.09023L262.279 6.55135C262.841 6.0957 263.336 5.56168 263.746 4.96564C264.727 4.99121 265.703 5.10324 266.663 5.30045L265.982 5.98195C265.871 6.09266 265.796 6.2337 265.765 6.38726C265.735 6.54082 265.75 6.69999 265.81 6.84464C265.87 6.98929 265.972 7.11293 266.102 7.19991C266.232 7.2869 266.385 7.33333 266.542 7.33333C267.344 7.34182 268.139 7.49175 268.889 7.77623C265.822 9.1039 264.958 12.5822 264.958 14.4583C264.958 15.8275 265.951 18.4167 269.708 18.4167C270.417 18.4587 271.126 18.3342 271.778 18.0533C272.43 17.7724 273.007 17.3428 273.463 16.7989C275.05 14.8208 274.674 11.6665 274.501 10.6541C274.653 10.5941 274.795 10.5311 274.929 10.4653C276.164 11.4731 277.188 12.7142 277.944 14.1178L276.234 13.6903C276.083 13.6527 275.925 13.6601 275.779 13.7116C275.632 13.7632 275.504 13.8566 275.411 13.9803C275.317 14.1039 275.262 14.2524 275.252 14.4072C275.242 14.562 275.277 14.7164 275.354 14.8511L277.924 19.3475C277.197 19.4818 276.49 19.7092 275.821 20.024C275.199 19.7073 274.551 19.4446 273.884 19.2389C273.74 19.1977 273.588 19.1982 273.444 19.2402C273.3 19.2823 273.171 19.3643 273.073 19.4767C272.974 19.589 272.909 19.7271 272.885 19.875C272.861 20.0228 272.88 20.1743 272.939 20.3119C273.323 21.2087 273.924 23.3537 273.328 24.2579C273.248 24.3797 273.004 24.75 272.083 24.75C270.996 24.75 270.63 24.2772 269.905 23.208C269.027 21.6988 267.649 20.545 266.008 19.9478C266.163 19.8954 266.298 19.796 266.393 19.6635C266.489 19.5309 266.541 19.3718 266.542 19.2083C266.542 18.5784 266.291 17.9744 265.846 17.529C265.401 17.0836 264.797 16.8333 264.167 16.8333C263.537 16.8333 262.933 17.0836 262.487 17.529C262.042 17.9744 261.792 18.5784 261.792 19.2083C261.792 19.215 261.795 19.2206 261.795 19.2273C261.536 19.2182 261.278 19.2083 261 19.2083C260.722 19.2083 260.464 19.2182 260.205 19.2273C260.205 19.2206 260.208 19.215 260.208 19.2083C260.208 18.5784 259.958 17.9744 259.513 17.529C259.067 17.0836 258.463 16.8333 257.833 16.8333C257.203 16.8333 256.599 17.0836 256.154 17.529C255.709 17.9744 255.458 18.5784 255.458 19.2083C255.459 19.3718 255.511 19.5309 255.607 19.6635C255.702 19.796 255.837 19.8954 255.992 19.9478C254.351 20.5451 252.973 21.6988 252.095 23.208C251.37 24.2772 251.004 24.75 249.917 24.75C248.997 24.75 248.753 24.3801 248.672 24.2587C248.099 23.392 248.607 21.3773 249.061 20.3112C249.12 20.1736 249.138 20.0222 249.115 19.8745C249.091 19.7268 249.026 19.5889 248.927 19.4767C248.828 19.3645 248.699 19.2826 248.556 19.2405C248.412 19.1984 248.26 19.1979 248.116 19.2389C247.449 19.4446 246.801 19.7073 246.179 20.024C245.51 19.7091 244.803 19.4818 244.076 19.3475ZM265.126 19.6728C264.542 19.5217 263.948 19.4113 263.348 19.3423C263.361 19.2986 263.37 19.2537 263.375 19.2083C263.375 18.9984 263.458 18.797 263.607 18.6485C263.755 18.5001 263.957 18.4167 264.167 18.4167C264.377 18.4167 264.578 18.5001 264.726 18.6485C264.875 18.797 264.958 18.9984 264.958 19.2083C264.962 19.3773 265.021 19.5404 265.126 19.6728ZM258.652 19.3423C258.052 19.4113 257.458 19.5217 256.874 19.6728C256.979 19.5404 257.038 19.3773 257.042 19.2083C257.042 18.9984 257.125 18.797 257.274 18.6485C257.422 18.5001 257.623 18.4167 257.833 18.4167C258.043 18.4167 258.245 18.5001 258.393 18.6485C258.542 18.797 258.625 18.9984 258.625 19.2083C258.63 19.2537 258.639 19.2986 258.652 19.3423ZM261 35.0417C255.091 35.0417 252.732 32.813 251.883 31.5947C252.834 31.2864 253.674 30.7054 254.299 29.9239C254.992 31.2808 256.764 33.4583 261 33.4583C265.236 33.4583 267.008 31.2808 267.701 29.9239C268.325 30.7041 269.163 31.2844 270.113 31.5931C269.263 32.8048 266.9 35.0417 261 35.0417ZM256.596 27.4003C256.968 28.2592 257.583 28.9905 258.366 29.5042C259.148 30.018 260.064 30.2917 261 30.2917C261.936 30.2917 262.852 30.018 263.634 29.5042C264.417 28.9905 265.032 28.2592 265.404 27.4003C265.843 27.7154 266.237 28.0891 266.574 28.5112C266.57 28.5242 266.561 28.5338 266.558 28.5471C266.529 28.6828 265.782 31.875 261 31.875C256.226 31.875 255.474 28.6933 255.442 28.5475C255.439 28.534 255.43 28.5242 255.426 28.511C255.764 28.089 256.157 27.7153 256.596 27.4003ZM258.028 26.7129C258.994 26.4372 259.996 26.3092 261 26.3333C262.004 26.3092 263.006 26.4372 263.972 26.713C263.731 27.303 263.319 27.8079 262.79 28.1632C262.261 28.5185 261.638 28.7083 261 28.7083C260.363 28.7083 259.739 28.5185 259.21 28.1632C258.681 27.8078 258.269 27.303 258.028 26.7129H258.028ZM272.083 30.2917C269.95 30.2917 269.277 29.4142 268.346 28.1996C267.167 26.6627 265.701 24.75 261 24.75C256.299 24.75 254.833 26.6627 253.654 28.1996C252.723 29.4142 252.05 30.2917 249.917 30.2917C244.498 30.2917 243.583 28.8262 243.583 25.5417C243.583 23.4226 245.601 22.0627 247.065 21.3549C246.787 22.5254 246.643 24.0565 247.35 25.1292C247.636 25.536 248.023 25.861 248.473 26.0722C248.924 26.2834 249.421 26.3734 249.917 26.3333C251.889 26.3333 252.66 25.1961 253.406 24.0967C254.456 22.5474 255.647 20.7917 261 20.7917C266.353 20.7917 267.544 22.5474 268.594 24.0967C269.34 25.1961 270.111 26.3333 272.083 26.3333C272.579 26.3734 273.076 26.2834 273.527 26.0722C273.977 25.861 274.364 25.536 274.65 25.1292C275.358 24.0554 275.212 22.5219 274.934 21.351C276.398 22.0553 278.417 23.4129 278.417 25.5417C278.417 28.8262 277.502 30.2917 272.083 30.2917Z" fill="#FBBC3F" fill-opacity="0.25"/>
<path d="M177.234 17.9189H174.985C173.39 15.3012 169.512 15.1331 169.38 15.1389C168.613 13.97 167.564 13.0138 166.329 12.3587C165.094 11.7037 163.713 11.3712 162.315 11.3919C161.061 11.3248 159.814 11.6204 158.724 12.2434C157.634 12.8665 156.746 13.7905 156.167 14.9049C155.188 14.395 154.094 14.1483 152.991 14.1892C151.654 14.1511 150.333 14.4898 149.179 15.1665C148.024 15.8432 147.084 16.8306 146.464 18.0163C146.158 17.9504 145.845 17.9178 145.532 17.9189C141.322 17.9189 139.005 19.9058 139.005 23.5135C138.944 25.1121 139.497 26.6735 140.55 27.8773C141.604 29.0812 143.078 29.8363 144.671 29.9877C144.813 31.3311 145.465 32.5687 146.493 33.4458C147.52 34.3229 148.845 34.7728 150.194 34.7027C150.604 34.7046 151.013 34.6708 151.418 34.6018C151.937 35.5371 152.711 36.3059 153.649 36.8189C154.588 37.3319 155.653 37.5681 156.721 37.5C159.935 37.5 161.379 36.2419 161.932 35.5468C162.368 35.6047 162.808 35.6342 163.248 35.6351C165.773 35.6351 167.235 34.6419 168.027 33.4899C168.606 34.129 169.306 34.6475 170.086 35.0156C170.866 35.3838 171.711 35.5943 172.572 35.6351C176.998 35.6351 178.167 32.5856 178.167 30.973C178.167 30.9479 178.16 30.9246 178.159 30.8996C179.793 30.6666 181.278 29.8229 182.315 28.5385C183.351 27.2541 183.862 25.6246 183.745 23.9783C183.627 22.332 182.89 20.7914 181.682 19.667C180.474 18.5426 178.885 17.9179 177.234 17.9189ZM177.423 29.089C177.044 28.6718 176.548 28.3793 175.999 28.25C175.451 28.1207 174.876 28.1607 174.351 28.3648C173.825 28.5688 173.374 28.9272 173.057 29.3929C172.739 29.8585 172.57 30.4094 172.572 30.973C172.572 31.2203 172.67 31.4575 172.845 31.6323C173.02 31.8072 173.257 31.9054 173.505 31.9054C173.752 31.9054 173.989 31.8072 174.164 31.6323C174.339 31.4575 174.437 31.2203 174.437 30.973C174.437 30.7257 174.535 30.4885 174.71 30.3137C174.885 30.1388 175.122 30.0406 175.369 30.0406C175.617 30.0406 175.854 30.1388 176.029 30.3137C176.204 30.4885 176.302 30.7257 176.302 30.973C176.302 31.0873 176.259 33.7703 172.572 33.7703C170.65 33.7703 169.192 32.0547 168.796 31.5377C168.825 31.3508 168.841 31.1621 168.842 30.973C168.842 30.2311 168.548 29.5196 168.023 28.995C167.498 28.4704 166.787 28.1757 166.045 28.1757C165.303 28.1757 164.592 28.4704 164.067 28.995C163.542 29.5196 163.248 30.2311 163.248 30.973C163.248 31.2203 163.346 31.4575 163.521 31.6323C163.696 31.8072 163.933 31.9054 164.18 31.9054C164.428 31.9054 164.665 31.8072 164.84 31.6323C165.014 31.4575 165.113 31.2203 165.113 30.973C165.113 30.7257 165.211 30.4885 165.386 30.3137C165.561 30.1388 165.798 30.0406 166.045 30.0406C166.292 30.0406 166.53 30.1388 166.704 30.3137C166.879 30.4885 166.978 30.7257 166.978 30.973C166.978 31.0873 166.935 33.7703 163.248 33.7703C159.711 33.7703 159.527 32.0775 159.518 31.9054C159.518 31.6581 159.42 31.421 159.245 31.2461C159.07 31.0712 158.833 30.973 158.586 30.973C158.338 30.973 158.101 31.0712 157.926 31.2461C157.751 31.421 157.653 31.6581 157.653 31.9054C157.713 32.5561 157.944 33.1794 158.323 33.7119C158.702 34.2445 159.214 34.6675 159.809 34.9379C158.863 35.4494 157.795 35.6906 156.721 35.6351C156.031 35.687 155.339 35.5552 154.716 35.253C154.094 34.9509 153.562 34.4892 153.176 33.915C154.151 33.2476 154.856 32.0682 154.856 30.0406C154.856 28.4917 153.409 26.3108 150.194 26.3108C149.946 26.3108 149.709 26.4091 149.534 26.5839C149.36 26.7588 149.261 26.996 149.261 27.2433C149.261 27.4906 149.36 27.7277 149.534 27.9026C149.709 28.0775 149.946 28.1757 150.194 28.1757C152.516 28.1757 152.991 29.6467 152.991 30.0406C152.991 31.4934 152.652 32.8379 150.194 32.8379C149.699 32.8576 149.205 32.7746 148.743 32.5942C148.282 32.4137 147.863 32.1397 147.513 31.7893C147.162 31.439 146.888 31.0199 146.708 30.5585C146.527 30.097 146.444 29.6032 146.464 29.1081C146.464 28.8608 146.366 28.6237 146.191 28.4488C146.016 28.2739 145.779 28.1757 145.532 28.1757C144.912 28.2032 144.293 28.1015 143.715 27.8769C143.137 27.6524 142.612 27.3099 142.174 26.8714C141.735 26.4328 141.393 25.9078 141.168 25.3297C140.944 24.7516 140.842 24.1331 140.869 23.5135C140.869 21.9123 141.352 19.7838 145.532 19.7838C145.781 19.7679 146.031 19.8055 146.265 19.894C146.499 19.9825 146.711 20.1198 146.888 20.2969C147.064 20.474 147.201 20.6867 147.289 20.9208C147.376 21.155 147.413 21.4051 147.396 21.6546C147.397 21.9019 147.496 22.1387 147.672 22.313C147.847 22.4874 148.085 22.5848 148.332 22.5841C148.579 22.5833 148.816 22.4843 148.99 22.3089C149.165 22.1334 149.262 21.896 149.261 21.6487C149.25 20.7033 148.903 19.7928 148.283 19.0793C148.302 19.0045 148.329 18.1097 148.329 18.1097C148.55 17.6781 149.608 16.0541 152.991 16.0541C156.566 16.0541 156.716 18.5723 156.721 18.8514C156.721 19.0987 156.623 19.3358 156.448 19.5107C156.273 19.6856 156.036 19.7838 155.788 19.7838C155.541 19.7838 155.304 19.6856 155.129 19.5107C154.954 19.3358 154.856 19.0987 154.856 18.8514C154.856 18.6041 154.758 18.3669 154.583 18.192C154.408 18.0172 154.171 17.9189 153.923 17.9189C153.676 17.9189 153.439 18.0172 153.264 18.192C153.089 18.3669 152.991 18.6041 152.991 18.8514C152.991 19.5933 153.286 20.3048 153.81 20.8294C154.335 21.354 155.046 21.6487 155.788 21.6487C156.53 21.6487 157.242 21.354 157.766 20.8294C158.291 20.3048 158.586 19.5933 158.586 18.8514C158.564 17.8857 158.239 16.9513 157.657 16.1805C157.827 15.6709 158.818 13.2568 162.315 13.2568C163.267 13.2392 164.21 13.4326 165.078 13.8231C165.945 14.2137 166.716 14.7916 167.333 15.5154C166.432 15.816 165.646 16.3872 165.082 17.1511C164.518 17.915 164.203 18.8344 164.18 19.7838C164.18 20.5257 164.475 21.2372 165 21.7618C165.524 22.2864 166.236 22.5811 166.978 22.5811C167.719 22.5811 168.431 22.2864 168.956 21.7618C169.48 21.2372 169.775 20.5257 169.775 19.7838C169.775 19.5365 169.677 19.2993 169.502 19.1245C169.327 18.9496 169.09 18.8514 168.842 18.8514C168.595 18.8514 168.358 18.9496 168.183 19.1245C168.008 19.2993 167.91 19.5365 167.91 19.7838C167.91 20.0311 167.812 20.2683 167.637 20.4431C167.462 20.618 167.225 20.7162 166.978 20.7162C166.73 20.7162 166.493 20.618 166.318 20.4431C166.143 20.2683 166.045 20.0311 166.045 19.7838C166.045 19.6695 166.088 16.9865 169.775 16.9865C169.927 16.9865 173.505 17.0184 173.505 19.7838C173.505 20.0311 173.603 20.2683 173.778 20.4431C173.953 20.618 174.19 20.7162 174.437 20.7162C174.684 20.7162 174.921 20.618 175.096 20.4431C175.271 20.2683 175.369 20.0311 175.369 19.7838H177.234C178.454 19.7817 179.625 20.2583 180.497 21.111C181.369 21.9637 181.871 23.1244 181.896 24.3436C181.92 25.5627 181.466 26.7429 180.629 27.6304C179.793 28.5178 178.642 29.0415 177.423 29.089Z" fill="#FBBC3F" fill-opacity="0.25"/>
<path d="M164.18 8.59459H167.137C166.988 9.01656 166.942 9.46806 167.004 9.91124C167.066 10.3544 167.233 10.7763 167.491 11.1417C167.75 11.507 168.092 11.805 168.489 12.0108C168.886 12.2166 169.327 12.3241 169.775 12.3243H180.964C181.706 12.3243 182.417 12.0296 182.942 11.505C183.466 10.9804 183.761 10.2689 183.761 9.52702C183.761 8.78513 183.466 8.07363 182.942 7.54904C182.417 7.02444 181.706 6.72973 180.964 6.72973H177.075C177.224 6.30776 177.269 5.85626 177.207 5.41308C177.146 4.9699 176.979 4.54797 176.72 4.18266C176.462 3.81735 176.12 3.51931 175.722 3.31354C175.325 3.10776 174.884 3.00024 174.437 3H164.18C163.438 3 162.727 3.29471 162.202 3.81931C161.678 4.3439 161.383 5.05541 161.383 5.7973C161.383 6.53919 161.678 7.25069 162.202 7.77528C162.727 8.29988 163.438 8.59459 164.18 8.59459ZM164.18 4.86486H174.437C174.684 4.86486 174.921 4.9631 175.096 5.13797C175.271 5.31283 175.369 5.55 175.369 5.7973C175.369 6.04459 175.271 6.28176 175.096 6.45662C174.921 6.63149 174.684 6.72973 174.437 6.72973C174.19 6.72973 173.952 6.82797 173.778 7.00283C173.603 7.1777 173.504 7.41486 173.504 7.66216C173.504 7.90946 173.603 8.14662 173.778 8.32149C173.952 8.49635 174.19 8.59459 174.437 8.59459H180.964C181.211 8.59459 181.448 8.69283 181.623 8.8677C181.798 9.04256 181.896 9.27973 181.896 9.52702C181.896 9.77432 181.798 10.0115 181.623 10.1864C181.448 10.3612 181.211 10.4595 180.964 10.4595H169.775C169.527 10.4595 169.29 10.3612 169.115 10.1864C168.941 10.0115 168.842 9.77432 168.842 9.52702C168.842 9.27973 168.941 9.04256 169.115 8.8677C169.29 8.69283 169.527 8.59459 169.775 8.59459C170.022 8.59459 170.259 8.49635 170.434 8.32149C170.609 8.14662 170.707 7.90946 170.707 7.66216C170.707 7.41486 170.609 7.1777 170.434 7.00283C170.259 6.82797 170.022 6.72973 169.775 6.72973H164.18C163.933 6.72973 163.696 6.63149 163.521 6.45662C163.346 6.28176 163.248 6.04459 163.248 5.7973C163.248 5.55 163.346 5.31283 163.521 5.13797C163.696 4.9631 163.933 4.86486 164.18 4.86486Z" fill="#FBBC3F" fill-opacity="0.25"/>
<path d="M158.585 42.1621H154.695C154.845 41.7402 154.89 41.2886 154.829 40.8454C154.767 40.4021 154.6 39.9801 154.342 39.6148C154.083 39.2494 153.741 38.9513 153.344 38.7456C152.946 38.5398 152.505 38.4324 152.058 38.4324H141.801C141.059 38.4324 140.348 38.7271 139.823 39.2517C139.299 39.7763 139.004 40.4878 139.004 41.2297C139.004 41.9716 139.299 42.6831 139.823 43.2077C140.348 43.7322 141.059 44.027 141.801 44.027H144.758C144.609 44.4489 144.564 44.9004 144.625 45.3437C144.687 45.7869 144.854 46.2089 145.112 46.5743C145.37 46.9397 145.713 47.2377 146.11 47.4435C146.507 47.6492 146.948 47.7566 147.396 47.7567H158.585C159.327 47.7567 160.038 47.462 160.563 46.9374C161.088 46.4128 161.382 45.7013 161.382 44.9594C161.382 44.2175 161.088 43.506 160.563 42.9814C160.038 42.4568 159.327 42.1621 158.585 42.1621ZM158.585 45.8918H147.396C147.148 45.8918 146.911 45.7936 146.736 45.6187C146.562 45.4439 146.463 45.2067 146.463 44.9594C146.463 44.7121 146.562 44.4749 146.736 44.3001C146.911 44.1252 147.148 44.027 147.396 44.027C147.643 44.027 147.88 43.9287 148.055 43.7539C148.23 43.579 148.328 43.3418 148.328 43.0945C148.328 42.8472 148.23 42.6101 148.055 42.4352C147.88 42.2603 147.643 42.1621 147.396 42.1621H141.801C141.554 42.1621 141.317 42.0639 141.142 41.889C140.967 41.7141 140.869 41.477 140.869 41.2297C140.869 40.9824 140.967 40.7452 141.142 40.5703C141.317 40.3955 141.554 40.2972 141.801 40.2972H152.058C152.305 40.2972 152.542 40.3955 152.717 40.5703C152.892 40.7452 152.99 40.9824 152.99 41.2297C152.99 41.477 152.892 41.7141 152.717 41.889C152.542 42.0639 152.305 42.1621 152.058 42.1621C151.811 42.1621 151.573 42.2603 151.399 42.4352C151.224 42.6101 151.126 42.8472 151.126 43.0945C151.126 43.3418 151.224 43.579 151.399 43.7539C151.573 43.9287 151.811 44.027 152.058 44.027H158.585C158.832 44.027 159.069 44.1252 159.244 44.3001C159.419 44.4749 159.517 44.7121 159.517 44.9594C159.517 45.2067 159.419 45.4439 159.244 45.6187C159.069 45.7936 158.832 45.8918 158.585 45.8918Z" fill="#FBBC3F" fill-opacity="0.25"/>
<path d="M131.237 57.5414C131.239 55.8829 130.875 54.2444 130.17 52.7429C129.466 51.2413 128.439 49.9137 127.162 48.8548C125.886 47.7958 124.391 47.0315 122.785 46.6165C121.18 46.2015 119.502 46.1459 117.872 46.4537C117.663 43.6124 116.386 40.9556 114.299 39.0167C112.211 37.0777 109.468 36 106.619 36C103.77 36 101.026 37.0777 98.9389 39.0167C96.8515 40.9556 95.5749 43.6124 95.3652 46.4537C93.7355 46.1459 92.0579 46.2015 90.4521 46.6165C88.8463 47.0315 87.3518 47.7958 86.0754 48.8548C84.7989 49.9137 83.7718 51.2413 83.0673 52.7429C82.3629 54.2444 81.9985 55.8829 82 57.5414C82.0067 59.6087 82.579 61.6348 83.6549 63.4C84.7308 65.1653 86.2693 66.6025 88.1036 67.5558C86.4061 70.0114 85.7516 73.0398 86.2836 75.9772C86.8157 78.9146 88.4908 81.5211 90.9418 83.2252C93.3927 84.9293 96.4195 85.592 99.3582 85.0678C102.297 84.5437 104.908 82.8755 106.619 80.4292C108.329 82.8755 110.94 84.5437 113.879 85.0678C116.818 85.592 119.845 84.9293 122.296 83.2252C124.747 81.5211 126.422 78.9146 126.954 75.9772C127.486 73.0398 126.831 70.0114 125.134 67.5558C126.968 66.6025 128.507 65.1653 129.583 63.4C130.658 61.6348 131.231 59.6087 131.237 57.5414ZM123.157 66.191C123 66.249 122.86 66.3445 122.749 66.469C122.637 66.5936 122.558 66.7434 122.518 66.9055C122.477 67.0677 122.477 67.2372 122.517 67.3994C122.557 67.5616 122.637 67.7116 122.748 67.8363C123.624 68.8224 124.279 69.9851 124.668 71.2459C125.056 72.5067 125.17 73.8362 125.001 75.1447C124.832 76.4531 124.384 77.7101 123.688 78.8308C122.992 79.9514 122.063 80.9096 120.965 81.6407C119.867 82.3717 118.624 82.8586 117.322 83.0685C116.019 83.2784 114.687 83.2064 113.414 82.8573C112.142 82.5082 110.959 81.8902 109.946 81.045C108.933 80.1998 108.113 79.1471 107.542 77.9579C107.458 77.7846 107.327 77.6385 107.163 77.5363C107 77.4341 106.811 77.3799 106.619 77.3799C106.426 77.3799 106.237 77.4341 106.074 77.5363C105.911 77.6385 105.78 77.7846 105.696 77.9579C105.125 79.1484 104.305 80.2025 103.292 81.0489C102.279 81.8954 101.096 82.5145 99.8228 82.8644C98.5498 83.2143 97.2165 83.2868 95.913 83.0771C94.6096 82.8674 93.3663 82.3803 92.2673 81.6488C91.1683 80.9172 90.2391 79.9583 89.5426 78.8367C88.846 77.7152 88.3984 76.4572 88.2299 75.1477C88.0614 73.8383 88.1759 72.5079 88.5658 71.2466C88.9556 69.9852 89.6118 68.8223 90.4897 67.8363C90.601 67.7116 90.68 67.5616 90.7201 67.3994C90.7602 67.2372 90.7601 67.0677 90.7197 66.9055C90.6794 66.7434 90.6001 66.5936 90.4887 66.469C90.3773 66.3445 90.2372 66.249 90.0805 66.191C87.8192 65.3561 85.9744 63.6695 84.9408 61.4918C83.9072 59.3142 83.7669 56.8185 84.5499 54.5387C85.3329 52.2589 86.9771 50.3761 89.1306 49.2931C91.2841 48.2101 93.7759 48.0129 96.0729 48.7437C96.226 48.7964 96.3898 48.8102 96.5495 48.7839C96.7093 48.7575 96.86 48.6919 96.988 48.5929C97.1713 48.4346 97.306 48.2276 97.3766 47.9959C97.4472 47.7642 97.4507 47.5172 97.3867 47.2836C97.3867 44.8351 98.3594 42.4869 100.091 40.7556C101.822 39.0243 104.17 38.0516 106.619 38.0516C109.067 38.0516 111.415 39.0243 113.147 40.7556C114.878 42.4869 115.851 44.8351 115.851 47.2836C115.771 47.5161 115.767 47.7677 115.839 48.0026C115.91 48.2376 116.054 48.4442 116.249 48.5929C116.38 48.6864 116.531 48.7487 116.689 48.7748C116.848 48.8009 117.011 48.7903 117.165 48.7437C119.461 48.0136 121.953 48.2112 124.106 49.2943C126.259 50.3774 127.903 52.26 128.685 54.5395C129.468 56.8189 129.328 59.3141 128.295 61.4916C127.262 63.669 125.418 65.3557 123.157 66.191V66.191Z" fill="#FBBC3F" fill-opacity="0.25"/>
<path d="M106.62 46.2577C106.892 46.2577 107.152 46.1496 107.345 45.9572C107.537 45.7649 107.645 45.504 107.645 45.2319V42.1546C107.645 41.8825 107.537 41.6216 107.345 41.4292C107.152 41.2369 106.892 41.1288 106.62 41.1288C106.347 41.1288 106.087 41.2369 105.894 41.4292C105.702 41.6216 105.594 41.8825 105.594 42.1546V45.2319C105.594 45.504 105.702 45.7649 105.894 45.9572C106.087 46.1496 106.347 46.2577 106.62 46.2577Z" fill="#FBBC3F" fill-opacity="0.25"/>
<path d="M102.816 49.0347C103.011 49.2224 103.271 49.3273 103.541 49.3273C103.812 49.3273 104.072 49.2224 104.266 49.0347C104.449 48.8375 104.551 48.5784 104.551 48.3094C104.551 48.0404 104.449 47.7813 104.266 47.5842L102.215 45.5326C102.022 45.3402 101.762 45.2322 101.49 45.2322C101.218 45.2322 100.957 45.3402 100.764 45.5326C100.572 45.7249 100.464 45.9858 100.464 46.2578C100.464 46.5299 100.572 46.7908 100.764 46.9831L102.816 49.0347Z" fill="#FBBC3F" fill-opacity="0.25"/>
<path d="M110.421 49.0347L112.473 46.9831C112.662 46.7902 112.768 46.5302 112.766 46.2598C112.765 45.9894 112.657 45.7304 112.466 45.5392C112.275 45.348 112.016 45.24 111.745 45.2388C111.475 45.2376 111.215 45.3432 111.022 45.5326L108.971 47.5842C108.875 47.6794 108.8 47.7925 108.748 47.9169C108.696 48.0413 108.67 48.1747 108.67 48.3095C108.67 48.4442 108.696 48.5776 108.748 48.702C108.8 48.8265 108.875 48.9395 108.971 49.0347C109.063 49.1347 109.175 49.2144 109.3 49.269C109.425 49.3235 109.56 49.3517 109.696 49.3517C109.832 49.3517 109.967 49.3235 110.092 49.269C110.216 49.2144 110.329 49.1346 110.421 49.0347Z" fill="#FBBC3F" fill-opacity="0.25"/>
<path d="M91.2946 56.7899C91.4993 56.9571 91.7555 57.0484 92.0198 57.0484C92.2841 57.0484 92.5403 56.9571 92.7451 56.7899C92.8408 56.6949 92.9169 56.582 92.9687 56.4575C93.0206 56.333 93.0473 56.1995 93.0473 56.0646C93.0473 55.9298 93.0206 55.7962 92.9687 55.6718C92.9169 55.5473 92.8408 55.4343 92.7451 55.3394L90.5693 53.1636C90.3769 52.9712 90.1161 52.8632 89.844 52.8632C89.572 52.8632 89.3111 52.9712 89.1188 53.1636C88.9264 53.3559 88.8184 53.6168 88.8184 53.8888C88.8184 54.1609 88.9264 54.4217 89.1188 54.6141L91.2946 56.7899Z" fill="#FBBC3F" fill-opacity="0.25"/>
<path d="M93.2842 59.593C93.2842 59.321 93.1761 59.0601 92.9837 58.8677C92.7914 58.6753 92.5304 58.5673 92.2584 58.5673H89.1811C88.909 58.5673 88.6481 58.6753 88.4557 58.8677C88.2633 59.0601 88.1553 59.321 88.1553 59.593C88.1553 59.8651 88.2633 60.126 88.4557 60.3184C88.6481 60.5107 88.909 60.6188 89.1811 60.6188H92.2584C92.5304 60.6188 92.7914 60.5107 92.9837 60.3184C93.1761 60.126 93.2842 59.8651 93.2842 59.593Z" fill="#FBBC3F" fill-opacity="0.25"/>
<path d="M95.3354 57.5413C95.6074 57.5413 95.8683 57.4332 96.0607 57.2408C96.2531 57.0484 96.3611 56.7875 96.3611 56.5155V53.4381C96.3611 53.1661 96.2531 52.9052 96.0607 52.7128C95.8683 52.5204 95.6074 52.4124 95.3354 52.4124C95.0633 52.4124 94.8024 52.5204 94.61 52.7128C94.4176 52.9052 94.3096 53.1661 94.3096 53.4381V56.5155C94.3096 56.7875 94.4176 57.0484 94.61 57.2408C94.8024 57.4332 95.0633 57.5413 95.3354 57.5413Z" fill="#FBBC3F" fill-opacity="0.25"/>
<path d="M121.943 56.7901L124.119 54.6143C124.214 54.5191 124.29 54.406 124.341 54.2816C124.393 54.1571 124.419 54.0238 124.419 53.8891C124.419 53.7544 124.393 53.621 124.341 53.4966C124.29 53.3721 124.214 53.2591 124.119 53.1638C124.024 53.0686 123.91 52.993 123.786 52.9415C123.662 52.8899 123.528 52.8634 123.393 52.8634C123.259 52.8634 123.125 52.8899 123.001 52.9415C122.877 52.993 122.763 53.0686 122.668 53.1638L120.492 55.3396C120.39 55.4305 120.308 55.5422 120.251 55.6672C120.195 55.7922 120.166 55.9278 120.166 56.0649C120.166 56.202 120.195 56.3375 120.251 56.4625C120.308 56.5876 120.39 56.6992 120.492 56.7901C120.694 56.9639 120.952 57.0594 121.218 57.0594C121.484 57.0594 121.741 56.9639 121.943 56.7901Z" fill="#FBBC3F" fill-opacity="0.25"/>
<path d="M124.057 58.5673H120.98C120.708 58.5673 120.447 58.6753 120.255 58.8677C120.062 59.0601 119.954 59.321 119.954 59.593C119.954 59.8651 120.062 60.126 120.255 60.3184C120.447 60.5107 120.708 60.6188 120.98 60.6188H124.057C124.329 60.6188 124.59 60.5107 124.783 60.3184C124.975 60.126 125.083 59.8651 125.083 59.593C125.083 59.321 124.975 59.0601 124.783 58.8677C124.59 58.6753 124.329 58.5673 124.057 58.5673Z" fill="#FBBC3F" fill-opacity="0.25"/>
<path d="M117.902 57.5416C118.174 57.5416 118.435 57.4336 118.627 57.2412C118.819 57.0488 118.928 56.7879 118.928 56.5158V53.4385C118.928 53.1664 118.819 52.9055 118.627 52.7132C118.435 52.5208 118.174 52.4127 117.902 52.4127C117.63 52.4127 117.369 52.5208 117.176 52.7132C116.984 52.9055 116.876 53.1664 116.876 53.4385V56.5158C116.876 56.7879 116.984 57.0488 117.176 57.2412C117.369 57.4336 117.63 57.5416 117.902 57.5416Z" fill="#FBBC3F" fill-opacity="0.25"/>
<path d="M119.954 62.6706C119.956 61.9453 119.701 61.2429 119.234 60.6877C118.767 60.1325 118.119 59.7605 117.404 59.6376C116.69 59.5147 115.954 59.6489 115.329 60.0163C114.704 60.3837 114.229 60.9606 113.988 61.6448H109.095L113.147 57.5933C113.339 57.4009 113.447 57.14 113.447 56.868C113.447 56.596 113.339 56.3351 113.147 56.1427C112.954 55.9504 112.693 55.8423 112.421 55.8423C112.149 55.8423 111.888 55.9504 111.696 56.1427L107.644 60.1943V55.3011C108.329 55.0591 108.906 54.583 109.273 53.9568C109.64 53.3307 109.775 52.5948 109.652 51.8793C109.529 51.1638 109.157 50.5147 108.602 50.0468C108.047 49.5788 107.345 49.3222 106.619 49.3221C105.893 49.3221 105.19 49.5787 104.635 50.0466C104.08 50.5146 103.708 51.1636 103.586 51.8791C103.463 52.5946 103.597 53.3305 103.964 53.9567C104.332 54.5829 104.908 55.059 105.593 55.301V60.1943L101.541 56.1427C101.446 56.0475 101.333 55.972 101.209 55.9204C101.084 55.8689 100.951 55.8423 100.816 55.8423C100.681 55.8423 100.548 55.8689 100.424 55.9204C100.299 55.972 100.186 56.0475 100.091 56.1427C99.9956 56.238 99.9201 56.3511 99.8685 56.4755C99.817 56.5999 99.7904 56.7333 99.7904 56.868C99.7904 57.0027 99.817 57.1361 99.8685 57.2605C99.9201 57.385 99.9956 57.498 100.091 57.5933L104.142 61.6448H99.2492C99.0072 60.9604 98.5311 60.3835 97.9049 60.0162C97.2788 59.6489 96.5429 59.5148 95.8275 59.6376C95.112 59.7603 94.4629 60.1321 93.995 60.6871C93.5271 61.2421 93.2705 61.9446 93.2705 62.6706C93.2705 63.3965 93.5271 64.0991 93.995 64.6541C94.4629 65.2091 95.112 65.5808 95.8275 65.7036C96.5429 65.8264 97.2788 65.6922 97.9049 65.3249C98.5311 64.9576 99.0072 64.3808 99.2492 63.6964H104.142L100.091 67.7479C99.8985 67.9402 99.7904 68.2011 99.7904 68.4732C99.7904 68.7452 99.8985 69.0061 100.091 69.1984C100.283 69.3908 100.544 69.4988 100.816 69.4988C101.088 69.4988 101.349 69.3908 101.541 69.1984L105.593 65.1469V70.0401C104.908 70.282 104.332 70.7582 103.964 71.3843C103.597 72.0105 103.463 72.7463 103.586 73.4618C103.708 74.1773 104.08 74.8263 104.635 75.2942C105.19 75.7621 105.893 76.0188 106.619 76.0188C107.345 76.0188 108.047 75.7621 108.602 75.2942C109.157 74.8263 109.529 74.1773 109.652 73.4618C109.774 72.7463 109.64 72.0105 109.273 71.3843C108.906 70.7582 108.329 70.282 107.644 70.0401V65.1469L111.696 69.1984C111.791 69.2937 111.904 69.3692 112.029 69.4208C112.153 69.4723 112.287 69.4988 112.421 69.4988C112.556 69.4988 112.689 69.4723 112.814 69.4208C112.938 69.3692 113.051 69.2937 113.147 69.1984C113.242 69.1032 113.317 68.9901 113.369 68.8657C113.42 68.7412 113.447 68.6078 113.447 68.4732C113.447 68.3385 113.42 68.2051 113.369 68.0806C113.317 67.9562 113.242 67.8431 113.147 67.7479L109.095 63.6964H113.988C114.229 64.3806 114.704 64.9575 115.329 65.3249C115.954 65.6923 116.69 65.8265 117.404 65.7036C118.119 65.5806 118.767 65.2086 119.234 64.6535C119.701 64.0983 119.956 63.3958 119.954 62.6706ZM106.619 51.387C106.822 51.387 107.02 51.4472 107.189 51.5599C107.357 51.6726 107.489 51.8328 107.566 52.0202C107.644 52.2077 107.664 52.4139 107.625 52.6129C107.585 52.8119 107.487 52.9947 107.344 53.1381C107.201 53.2816 107.018 53.3793 106.819 53.4188C106.62 53.4584 106.414 53.4381 106.226 53.3605C106.039 53.2828 105.878 53.1514 105.766 52.9827C105.653 52.814 105.593 52.6157 105.593 52.4128C105.593 52.1408 105.701 51.8801 105.894 51.6878C106.086 51.4955 106.347 51.3873 106.619 51.387ZM96.3609 63.6964C96.158 63.6964 95.9597 63.6362 95.791 63.5235C95.6223 63.4108 95.4908 63.2506 95.4132 63.0631C95.3355 62.8757 95.3152 62.6694 95.3548 62.4705C95.3944 62.2715 95.4921 62.0887 95.6355 61.9452C95.779 61.8018 95.9618 61.7041 96.1608 61.6645C96.3597 61.6249 96.566 61.6452 96.7534 61.7229C96.9409 61.8005 97.1011 61.932 97.2138 62.1007C97.3265 62.2694 97.3867 62.4677 97.3867 62.6706C97.3863 62.9425 97.2781 63.2032 97.0858 63.3955C96.8935 63.5878 96.6328 63.696 96.3609 63.6964ZM106.619 73.9542C106.416 73.9542 106.217 73.894 106.049 73.7813C105.88 73.6686 105.749 73.5084 105.671 73.3209C105.593 73.1335 105.573 72.9272 105.613 72.7283C105.652 72.5293 105.75 72.3465 105.893 72.2031C106.037 72.0596 106.22 71.9619 106.419 71.9223C106.618 71.8827 106.824 71.9031 107.011 71.9807C107.199 72.0583 107.359 72.1898 107.472 72.3585C107.584 72.5272 107.644 72.7255 107.644 72.9284C107.644 73.2003 107.536 73.461 107.344 73.6533C107.151 73.8456 106.891 73.9538 106.619 73.9542ZM115.851 62.6706C115.851 62.4677 115.911 62.2694 116.024 62.1007C116.136 61.932 116.297 61.8005 116.484 61.7229C116.671 61.6452 116.878 61.6249 117.077 61.6645C117.276 61.7041 117.458 61.8018 117.602 61.9452C117.745 62.0887 117.843 62.2715 117.883 62.4705C117.922 62.6694 117.902 62.8757 117.824 63.0631C117.747 63.2506 117.615 63.4108 117.446 63.5235C117.278 63.6362 117.079 63.6964 116.876 63.6964C116.605 63.696 116.344 63.5878 116.152 63.3955C115.959 63.2032 115.851 62.9425 115.851 62.6706Z" fill="#FBBC3F" fill-opacity="0.25"/>
<path d="M205.086 32.2196C204.333 31.4652 203.33 31.05 202.263 31.05C201.196 31.05 200.194 31.4652 199.44 32.2196C197.883 33.776 197.883 36.3093 199.44 37.8661L200.976 39.4024L198.057 42.3499C196.916 41.097 194.499 38.8142 192.039 38.8142C189.351 38.8142 187.165 41.0009 187.165 43.6884C187.165 46.3558 189.349 48.5421 192.032 48.5627C192.042 48.5627 192.052 48.5627 192.062 48.5627C193.59 48.5627 195.316 47.6628 197.213 45.866L198.012 45.0585L200.945 47.991L199.44 49.4961C197.883 51.0529 197.883 53.5858 199.44 55.1426C200.194 55.897 201.196 56.3122 202.263 56.3122C203.33 56.3122 204.333 55.897 205.086 55.1426L206.586 53.6433L208.086 55.1426C208.839 55.897 209.843 56.3122 210.909 56.3122C211.975 56.3122 212.978 55.897 213.732 55.1426C214.486 54.3887 214.902 53.3857 214.902 52.3196C214.902 51.253 214.486 50.25 213.732 49.4961L212.24 48.0038L215.166 45.0775C216.324 46.3394 218.707 48.5627 221.137 48.5627C223.825 48.5627 226.011 46.376 226.011 43.6884C226.011 41.0211 223.827 38.8343 221.144 38.8142C221.134 38.8142 221.125 38.8142 221.115 38.8142C218.736 38.8142 216.336 41.0448 215.171 42.3036L212.233 39.3656L213.732 37.8661C214.486 37.1122 214.902 36.1093 214.902 35.0427C214.902 33.9761 214.486 32.9736 213.732 32.2196C212.978 31.4652 211.975 31.05 210.909 31.05C209.843 31.05 208.839 31.4652 208.086 32.2196L206.586 33.7189L205.086 32.2196ZM195.902 44.5257C194.428 45.9205 193.066 46.6877 192.061 46.6877C192.057 46.6877 192.051 46.6877 192.047 46.6877C190.389 46.6754 189.04 45.3295 189.04 43.6884C189.04 42.0345 190.386 40.6892 192.039 40.6892C193.672 40.6892 195.67 42.5115 196.734 43.6852L195.902 44.5257ZM206.602 36.3862L209.583 39.3676L206.588 42.3628L203.621 39.3959L206.602 36.3862ZM200.765 33.5453C201.565 32.7451 202.961 32.7451 203.761 33.5453L205.276 35.0603L202.295 38.0703L200.765 36.5405C199.939 35.7147 199.939 34.3711 200.765 33.5453ZM202.302 40.728L205.262 43.6884L202.278 46.6726L199.332 43.7264L202.302 40.728ZM206.599 50.9939L203.604 47.9983L206.588 45.0141L209.583 48.0094L206.599 50.9939ZM203.761 53.8169C202.961 54.6171 201.565 54.6171 200.765 53.8169C199.94 52.9911 199.94 51.6476 200.765 50.8218L202.27 49.3167L205.266 52.3122L203.761 53.8169ZM213.027 52.3196C213.027 52.8849 212.806 53.4168 212.406 53.8169C211.605 54.618 210.211 54.6171 209.411 53.8169L207.919 52.325L210.915 49.3295L212.406 50.8218C212.806 51.2219 213.027 51.7538 213.027 52.3196ZM221.115 40.6892C221.119 40.6892 221.125 40.6892 221.129 40.6892C222.787 40.7015 224.136 42.0474 224.136 43.6884C224.136 45.3423 222.79 46.6877 221.137 46.6877C219.505 46.6877 217.507 44.8667 216.443 43.693C217.504 42.5404 219.539 40.6892 221.115 40.6892ZM210.909 46.6837L207.914 43.6884L210.909 40.6933L213.904 43.6884L210.909 46.6837ZM209.411 33.5453C210.21 32.7451 211.604 32.7438 212.406 33.5458C212.806 33.9454 213.027 34.4773 213.027 35.0427C213.027 35.6085 212.806 36.1404 212.406 36.5405L210.907 38.0399L207.912 35.0446L209.411 33.5453Z" fill="#FBBC3F" fill-opacity="0.25"/>
<path d="M233.177 43.6814C233.177 43.4328 233.079 43.1943 232.903 43.0186L207.531 17.647V14.9375C207.531 14.4198 207.112 14 206.593 14C206.075 14 205.656 14.4198 205.656 14.9375V17.6378L180.275 43.0186C180.099 43.1943 180 43.4328 180 43.6814C180 43.93 180.099 44.1685 180.275 44.3442L204.727 68.7959C204.216 69.0174 203.734 69.3233 203.317 69.735C202.437 70.6029 201.953 71.7579 201.953 72.987C201.953 74.2156 202.437 75.3701 203.317 76.2375C203.528 76.4462 203.758 76.6255 203.997 76.7853C202.289 77.7111 201.128 79.5194 201.128 81.5943V88.0625C201.128 88.5802 201.547 89 202.065 89H211.122C211.641 89 212.06 88.5802 212.06 88.0625V81.5943C212.06 79.5194 210.898 77.7112 209.191 76.7854C209.429 76.6255 209.659 76.4462 209.87 76.2375C210.75 75.3701 211.234 74.2156 211.234 72.987C211.234 71.7579 210.75 70.6029 209.87 69.735C209.451 69.3214 208.967 69.0139 208.454 68.7923L232.903 44.3442C233.079 44.1685 233.177 43.93 233.177 43.6814ZM210.185 87.125H203.003V81.5943C203.003 79.614 204.613 78.0027 206.593 78.0027C208.574 78.0027 210.185 79.614 210.185 81.5943V87.125ZM209.359 72.9865C209.359 73.7098 209.073 74.39 208.553 74.9032C207.475 75.9693 205.717 75.9707 204.633 74.9027C204.114 74.39 203.828 73.7098 203.828 72.9865C203.828 72.2632 204.113 71.5826 204.633 71.0699C205.716 70.0028 207.474 70.0037 208.553 71.0699C209.073 71.5826 209.359 72.2632 209.359 72.9865ZM206.589 68.0065L182.263 43.6814L206.589 19.3563L230.914 43.6814L206.589 68.0065Z" fill="#FBBC3F" fill-opacity="0.25"/>
<path d="M325.013 -6C324.571 -6 324.213 -5.64165 324.213 -5.19968V-3.44438C321.808 -3.25734 319.571 -2.23881 317.847 -0.514575C315.932 1.39987 314.878 3.94504 314.878 6.652C314.878 9.35935 315.932 11.9045 317.847 13.8186C319.571 15.5428 321.808 16.5613 324.213 16.7484V19.335C321.891 19.5174 319.619 20.488 317.847 22.2603C313.895 26.2119 313.895 32.6422 317.847 36.5938C319.571 38.318 321.808 39.3366 324.213 39.5236V40.1766C323.461 40.3278 322.744 40.6916 322.162 41.2734C320.59 42.846 320.59 45.4044 322.162 46.9765C322.409 47.2239 322.687 47.4183 322.975 47.5878C321.402 48.3491 320.311 49.9567 320.311 51.8183V57.2256C320.311 57.6676 320.67 58.0259 321.112 58.0259H328.915C329.357 58.0259 329.715 57.6676 329.715 57.2256V51.8183C329.715 49.9567 328.625 48.3491 327.052 47.5878C327.34 47.4183 327.617 47.2239 327.865 46.9765C329.437 45.4044 329.437 42.846 327.865 41.2734C327.283 40.6916 326.566 40.3278 325.814 40.1766V39.5236C328.218 39.3366 330.456 38.318 332.18 36.5938C336.132 32.6422 336.132 26.2119 332.18 22.2603C330.407 20.488 328.136 19.5174 325.814 19.335V16.7484C328.218 16.5613 330.456 15.5428 332.18 13.8186C334.094 11.9045 335.149 9.35935 335.149 6.652C335.149 3.94504 334.094 1.39987 332.18 -0.514575C330.456 -2.23876 328.218 -3.25734 325.814 -3.44438V-5.19968C325.814 -5.64165 325.455 -6 325.013 -6ZM323.086 9.40194C322.633 9.40194 322.263 9.03265 322.263 8.57895V3.90206H326.94C327.394 3.90206 327.763 4.27135 327.763 4.72505V9.40194H323.086ZM318.978 12.6869C317.366 11.0749 316.479 8.93183 316.479 6.652C316.479 4.37256 317.366 2.22911 318.978 0.617133C320.4 -0.804634 322.235 -1.66094 324.213 -1.84373V2.30141H321.463C321.021 2.30141 320.663 2.65976 320.663 3.10173V8.57895C320.663 9.91543 321.75 11.0026 323.086 11.0026H324.213V15.1477C322.235 14.9649 320.4 14.1086 318.978 12.6869ZM323.086 32.1772C322.633 32.1772 322.263 31.8079 322.263 31.3542V26.6769H326.94C327.394 26.6769 327.763 27.0462 327.763 27.5003V32.1772H323.086ZM318.978 35.4621C315.651 32.1342 315.651 26.7199 318.978 23.392C320.439 21.9317 322.301 21.113 324.213 20.9345V25.0763H321.463C321.021 25.0763 320.663 25.4346 320.663 25.8766V31.3542C320.663 32.6907 321.75 33.7778 323.086 33.7778H324.213V37.923C322.235 37.7402 320.4 36.8839 318.978 35.4621ZM328.115 51.8183V56.4253H321.912V51.8183C321.912 50.1083 323.303 48.7171 325.013 48.7171C326.723 48.7171 328.115 50.1083 328.115 51.8183ZM326.733 45.8448C325.814 46.7632 324.213 46.7632 323.293 45.8448C322.345 44.8968 322.345 43.3536 323.293 42.4052C323.753 41.9463 324.363 41.6933 325.012 41.6929C325.012 41.6929 325.013 41.6931 325.013 41.6931C325.014 41.6931 325.014 41.6929 325.015 41.6929C325.664 41.6933 326.274 41.9463 326.733 42.4052C327.681 43.3536 327.681 44.8968 326.733 45.8448ZM331.048 23.392C334.376 26.7199 334.376 32.1342 331.048 35.4621C329.626 36.8838 327.791 37.7401 325.814 37.923V33.7778H328.564C329.006 33.7778 329.364 33.4195 329.364 32.9775V27.5003C329.364 26.1638 328.277 25.0763 326.94 25.0763H325.814V20.9345C327.725 21.1131 329.588 21.9317 331.048 23.392ZM331.048 0.617133C332.66 2.22911 333.548 4.37256 333.548 6.652C333.548 8.93183 332.66 11.0749 331.048 12.6869C329.626 14.1086 327.791 14.9649 325.814 15.1477V11.0026H328.564C329.006 11.0026 329.364 10.6442 329.364 10.2023V4.72505C329.364 3.38857 328.277 2.30141 326.94 2.30141H325.814V-1.84373C327.791 -1.66089 329.626 -0.804585 331.048 0.617133Z" fill="#FBBC3F" fill-opacity="0.25"/>
<path d="M309.802 35.3317C307.619 35.3317 305.843 37.1086 305.843 39.2923C305.843 41.476 307.619 43.2528 309.802 43.2528C311.985 43.2528 313.761 41.476 313.761 39.2923C313.761 37.1086 311.985 35.3317 309.802 35.3317ZM309.802 41.6522C308.502 41.6522 307.443 40.5936 307.443 39.2923C307.443 37.9909 308.502 36.9323 309.802 36.9323C311.103 36.9323 312.161 37.9909 312.161 39.2923C312.161 40.5936 311.103 41.6522 309.802 41.6522Z" fill="#FBBC3F" fill-opacity="0.25"/>
<path d="M299.761 33.858C302.266 33.858 304.304 31.8193 304.304 29.3136C304.304 26.8079 302.266 24.7695 299.761 24.7695C297.256 24.7695 295.219 26.8079 295.219 29.3136C295.219 31.8193 297.256 33.858 299.761 33.858ZM299.761 26.3702C301.383 26.3702 302.703 27.6906 302.703 29.3136C302.703 30.9369 301.383 32.2573 299.761 32.2573C298.139 32.2573 296.819 30.9369 296.819 29.3136C296.819 27.6906 298.139 26.3702 299.761 26.3702Z" fill="#FBBC3F" fill-opacity="0.25"/>
<path d="M348.714 24.9133C351.242 24.9133 353.298 22.8563 353.298 20.3279C353.298 17.7995 351.242 15.7424 348.714 15.7424C346.187 15.7424 344.131 17.7995 344.131 20.3279C344.131 22.8563 346.187 24.9133 348.714 24.9133ZM348.714 17.3431C350.359 17.3431 351.698 18.6819 351.698 20.3279C351.698 21.9739 350.359 23.3127 348.714 23.3127C347.07 23.3127 345.732 21.9739 345.732 20.3279C345.732 18.6819 347.07 17.3431 348.714 17.3431Z" fill="#FBBC3F" fill-opacity="0.25"/>
<path d="M350.852 51.9552C350.852 49.2291 348.635 47.011 345.909 47.011C343.184 47.011 340.967 49.2291 340.967 51.9552C340.967 54.6813 343.184 56.8994 345.909 56.8994C348.635 56.8994 350.852 54.6813 350.852 51.9552ZM342.567 51.9552C342.567 50.1115 344.066 48.6116 345.909 48.6116C347.752 48.6116 349.251 50.1115 349.251 51.9552C349.251 53.7989 347.752 55.2987 345.909 55.2987C344.066 55.2987 342.567 53.7989 342.567 51.9552Z" fill="#FBBC3F" fill-opacity="0.25"/>
<path d="M301.285 -6C298.144 -6 295.588 -3.4431 295.588 -0.300426C295.588 2.84225 298.144 5.39915 301.285 5.39915C304.427 5.39915 306.983 2.84225 306.983 -0.300426C306.983 -3.4431 304.427 -6 301.285 -6ZM301.285 3.7985C299.026 3.7985 297.189 1.95986 297.189 -0.300426C297.189 -2.56072 299.026 -4.39935 301.285 -4.39935C303.544 -4.39935 305.382 -2.56072 305.382 -0.300426C305.382 1.95986 303.544 3.7985 301.285 3.7985Z" fill="#FBBC3F" fill-opacity="0.25"/>
<path d="M306.744 11.6321C304.037 11.6321 301.835 13.8349 301.835 16.5427C301.835 19.25 304.037 21.4529 306.744 21.4529C309.45 21.4529 311.652 19.25 311.652 16.5427C311.652 13.8349 309.45 11.6321 306.744 11.6321ZM306.744 19.8522C304.919 19.8522 303.436 18.3676 303.436 16.5427C303.436 14.7177 304.919 13.2327 306.744 13.2327C308.568 13.2327 310.052 14.7177 310.052 16.5427C310.052 18.3676 308.568 19.8522 306.744 19.8522Z" fill="#FBBC3F" fill-opacity="0.25"/>
<path d="M353.928 1.13768L355.493 -3.47708C355.59 -3.76547 355.516 -4.08435 355.3 -4.29967C355.085 -4.51578 354.765 -4.58964 354.477 -4.49155L349.865 -2.92685L345.962 -5.84092C345.717 -6.02264 345.392 -6.05038 345.12 -5.91283C344.849 -5.77449 344.679 -5.49391 344.683 -5.18949L344.745 -0.316811L340.769 2.49644C340.52 2.67229 340.393 2.97437 340.441 3.27488C340.488 3.57578 340.703 3.82354 340.994 3.9142L345.644 5.36049L347.09 10.0135C347.18 10.3043 347.428 10.5188 347.729 10.5665C347.771 10.5731 347.813 10.5763 347.854 10.5763C348.111 10.5763 348.356 10.452 348.507 10.2379L351.32 6.25968L356.19 6.32181C356.495 6.32064 356.775 6.15651 356.913 5.88492C357.052 5.61332 357.024 5.28702 356.842 5.04278L353.928 1.13768ZM350.919 4.65356C350.638 4.65434 350.408 4.77627 350.256 4.99198L348.137 7.98929L347.048 4.48357C346.97 4.2323 346.773 4.03534 346.521 3.95679L343.017 2.8669L346.014 0.746901C346.228 0.594886 346.355 0.346739 346.352 0.0833511L346.304 -3.58806L349.245 -1.39264C349.456 -1.23437 349.732 -1.1906 349.981 -1.27618L353.456 -2.45479L352.277 1.0224C352.193 1.27172 352.237 1.54644 352.394 1.75786L354.589 4.70045L350.919 4.65356Z" fill="#FBBC3F" fill-opacity="0.25"/>
<path d="M338.665 33.2045C338.527 33.4761 338.555 33.8024 338.737 34.0466L341.65 37.9517L340.086 42.5665C339.988 42.8549 340.063 43.1738 340.278 43.3891C340.494 43.6048 340.814 43.6794 341.101 43.581L345.713 42.0163L349.617 44.9303C349.758 45.0355 349.926 45.0894 350.095 45.0894C350.219 45.0894 350.344 45.0605 350.459 45.0022C350.73 44.8639 350.9 44.5833 350.896 44.2789L350.833 39.4066L354.81 36.593C355.058 36.4171 355.186 36.1151 355.138 35.8142C355.09 35.5136 354.876 35.2659 354.585 35.1752L349.934 33.7293L348.489 29.0759C348.398 28.7851 348.151 28.5706 347.85 28.5229C347.548 28.4737 347.247 28.603 347.071 28.8516L344.259 32.8297L339.389 32.7676C339.097 32.7711 338.804 32.9329 338.665 33.2045ZM344.659 34.4359C344.909 34.4316 345.171 34.3128 345.323 34.0974L347.442 31.1001L348.531 34.6062C348.609 34.8575 348.806 35.0549 349.058 35.133L352.562 36.2225L349.565 38.3429C349.35 38.4949 349.224 38.7431 349.227 39.0065L349.274 42.6775L346.333 40.4821C346.193 40.3773 346.025 40.323 345.855 40.323C345.768 40.323 345.682 40.3371 345.598 40.3656L342.123 41.5442L343.301 38.067C343.386 37.8177 343.342 37.543 343.185 37.3316L340.989 34.389L344.659 34.4359Z" fill="#FBBC3F" fill-opacity="0.25"/>
<path d="M294.7 56.3252C294.916 56.5409 295.235 56.6144 295.523 56.5171L300.135 54.9528L304.038 57.8669C304.179 57.972 304.348 58.0259 304.517 58.0259C304.641 58.0259 304.765 57.997 304.88 57.9388C305.152 57.8004 305.321 57.5199 305.317 57.2154L305.255 52.3428L309.232 49.5295C309.48 49.3537 309.608 49.0516 309.56 48.7511C309.512 48.4502 309.298 48.2024 309.007 48.1117L304.356 46.6655L302.91 42.0124C302.82 41.7217 302.572 41.5071 302.271 41.4594C301.97 41.4106 301.668 41.5396 301.493 41.7881L298.681 45.7659L293.811 45.7037C293.493 45.7092 293.226 45.869 293.087 46.1406C292.949 46.4122 292.977 46.7385 293.159 46.9828L296.072 50.8879L294.508 55.5026C294.41 55.791 294.485 56.1099 294.7 56.3252ZM295.411 47.3251L299.081 47.372C299.353 47.3767 299.593 47.2489 299.745 47.0336L301.863 44.0367L302.952 47.5424C303.03 47.7936 303.227 47.9906 303.479 48.0691L306.984 49.159L303.987 51.279C303.772 51.4311 303.646 51.6792 303.649 51.9426L303.696 55.6136L300.755 53.4182C300.615 53.3135 300.447 53.2591 300.277 53.2591C300.19 53.2591 300.103 53.2732 300.019 53.3017L296.545 54.4803L297.723 51.0031C297.808 50.7538 297.764 50.4791 297.607 50.2677L295.411 47.3251Z" fill="#FBBC3F" fill-opacity="0.25"/>
<path d="M65.6936 -2.86475C38.6984 16.9066 1.24833 11.014 0.936251 10.9364C0.468125 10.8589 0.0780208 11.169 0.0780208 11.5567C-7.55691e-08 11.9444 0.312084 12.4096 0.702188 12.4096C0.780209 12.4096 1.56042 12.5647 2.96479 12.7197L8.73834 21.7913C8.89438 22.0239 9.12845 22.1014 9.36251 22.179C9.59657 22.179 9.83063 22.1014 9.98667 21.8688L15.2141 15.1233V24.7376H11.157C10.1427 24.7376 9.36251 25.513 9.36251 26.5209V27.5289C9.36251 27.6064 9.36251 27.7615 9.36251 27.839C3.745 29.9324 0 34.5845 0 39.3917C0 45.2068 4.91532 50.0915 11.6251 51.6421V53.9682C11.6251 54.7435 12.3273 55.2087 13.2636 55.4414V56.6819C13.2636 57.1471 13.5756 57.4573 14.0438 57.4573C14.5119 57.4573 14.824 57.1471 14.824 56.6819V55.5964H15.2921V57.1471C15.2921 57.6123 15.6042 57.9225 16.0723 57.9225C16.5404 57.9225 16.8525 57.6123 16.8525 57.1471V55.5964H17.3206V56.6819C17.3206 57.1471 17.6327 57.4573 18.1008 57.4573C18.569 57.4573 18.8811 57.1471 18.8811 56.6819V55.4414C19.7393 55.2087 20.3635 54.7435 20.3635 54.0457V51.7197C27.0733 50.169 31.9886 45.2843 31.9886 39.4692C31.9886 34.4294 28.3216 29.9324 22.6261 27.9165C22.6261 27.839 22.6261 27.6839 22.6261 27.6064V26.676C22.6261 25.668 21.8459 24.8927 20.8316 24.8927H16.7745V15.8211L21.7678 22.179C21.9239 22.334 22.1579 22.4891 22.392 22.4891C22.392 22.4891 22.392 22.4891 22.47 22.4891C22.7041 22.4891 22.9381 22.334 23.0942 22.1014L28.6337 13.1849L35.8116 20.1631C35.9676 20.3181 36.1237 20.3957 36.3577 20.3957C36.4358 20.3957 36.4358 20.3957 36.5138 20.3957C36.7478 20.3181 36.9819 20.1631 37.0599 19.9305L41.039 11.0915L48.7631 16.7515C48.9191 16.8291 49.0751 16.9066 49.2312 16.9066C49.3092 16.9066 49.3872 16.9066 49.4653 16.8291C49.6993 16.7515 49.8554 16.5189 49.9334 16.2863L52.5081 7.5249V19.7754H49.3092C48.373 19.7754 47.5928 20.5507 47.5928 21.5587V22.7217C47.5928 22.8768 47.5927 23.0318 47.6708 23.1869C45.0181 24.0398 43.1456 26.5209 43.1456 29.4672V44.9742C43.1456 48.3082 45.6422 51.0994 48.9191 51.4871V52.9602C48.9191 53.6581 49.6213 54.1233 50.5575 54.2783V56.5268C50.5575 56.992 50.8696 57.3022 51.3378 57.3022C51.8059 57.3022 52.118 56.992 52.118 56.5268V54.3559H52.5861V57.2247C52.5861 57.6899 52.8982 58 53.3663 58C53.8344 58 54.1465 57.6899 54.1465 57.2247V54.3559H54.6146V56.5268C54.6146 56.992 54.9267 57.3022 55.3948 57.3022C55.863 57.3022 56.175 56.992 56.175 56.5268V54.2783C57.0333 54.1233 57.8135 53.7356 57.8135 52.9602V51.4871C61.0904 51.0219 63.587 48.3082 63.587 44.9742V29.4672C63.587 26.5984 61.7145 24.1173 59.0618 23.1869C59.0618 23.0318 59.1398 22.8768 59.1398 22.7217V21.5587C59.1398 20.6283 58.3596 19.8529 57.4234 19.8529H54.2245V6.90462L62.1827 11.014C62.2607 11.0915 62.4167 11.0915 62.5728 11.0915C62.7288 11.0915 62.8068 11.0915 62.9629 11.014C63.1969 10.8589 63.353 10.7038 63.353 10.3937L64.6793 -0.228574C65.3815 -0.693782 66.0057 -1.15899 66.7079 -1.6242C67.02 -1.8568 67.098 -2.39955 66.8639 -2.70968C66.4738 -3.01982 66.0057 -3.09736 65.6936 -2.86475ZM19.5052 29.3121C20.8316 31.0954 27.5414 40.8648 19.3492 50.2465C18.2569 50.4791 17.1646 50.5567 15.9943 50.5567C14.6679 50.5567 13.4196 50.4016 12.2493 50.169C3.82302 40.7098 10.6108 31.0954 12.0152 29.3121H19.5052ZM1.56042 39.3917C1.56042 35.1273 4.99334 31.0179 10.1427 29.1571C8.11417 32.1809 3.51094 40.7873 9.59657 49.3936C4.8373 47.6103 1.56042 43.8111 1.56042 39.3917ZM18.803 53.7356C18.647 53.8131 18.2569 53.9682 17.6327 53.9682H14.3558C13.7317 53.9682 13.3416 53.8131 13.1855 53.7356V51.8748C14.1218 52.0298 15.058 52.1074 15.9943 52.1074C16.9305 52.1074 17.8668 52.0298 18.803 51.8748V53.7356ZM30.4282 39.3917C30.4282 43.9662 26.9172 47.8429 21.8459 49.6262C28.0095 40.9424 23.4063 32.336 21.3777 29.2346C21.4557 29.2346 21.5338 29.1571 21.6898 29.1571C21.6898 29.1571 21.7678 29.1571 21.7678 29.2346C26.9952 30.9404 30.4282 34.9722 30.4282 39.3917ZM21.0656 26.5984V27.5289C21.0656 27.6839 20.9876 27.7615 20.8316 27.7615H11.157C11.0009 27.7615 10.9229 27.6839 10.9229 27.5289V26.5984C10.9229 26.4434 11.0009 26.3658 11.157 26.3658H20.7536C20.9096 26.3658 21.0656 26.4434 21.0656 26.5984ZM44.706 37.841H62.0266V43.0358H44.706V37.841ZM62.0266 36.2903H44.706V31.0954H62.0266V36.2903ZM55.0047 52.7276H51.6498C51.1037 52.7276 50.6356 52.6501 50.4015 52.5726V51.4095H56.175V52.5726C56.019 52.6501 55.6289 52.7276 55.0047 52.7276ZM56.8772 49.9364H49.7773C46.9686 49.9364 44.706 47.6879 44.706 44.8966V44.5865H62.0266V44.8191C62.0266 47.6103 59.686 49.9364 56.8772 49.9364ZM62.0266 29.3897V29.6223H44.706V29.3897C44.706 26.831 46.5785 24.7376 49.0751 24.3499C51.8839 24.3499 54.0685 24.3499 57.7355 24.3499C60.0761 24.7376 62.0266 26.831 62.0266 29.3897ZM57.5794 21.5587V22.7217C57.5794 22.7992 57.5794 22.7992 57.5014 22.8768C55.0828 22.8768 50.7916 22.8768 49.2312 22.8768C49.2312 22.8768 49.1532 22.7992 49.1532 22.7217V21.5587C49.1532 21.4811 49.2312 21.4036 49.3092 21.4036H57.3454C57.4234 21.3261 57.5794 21.4036 57.5794 21.5587ZM9.44053 20.0855L4.91532 12.9523C7.25594 13.1849 10.5328 13.34 14.4339 13.34C14.5119 13.34 14.5899 13.34 14.6679 13.34L9.44053 20.0855ZM22.314 20.3957L16.7745 13.34C19.9734 13.2625 23.4063 13.1074 27.1513 12.6422L22.314 20.3957ZM36.0457 18.3798L29.882 12.332C33.0028 11.8668 36.3577 11.3241 39.6346 10.4712L36.0457 18.3798ZM48.7631 14.9682L41.8972 9.92847C44.94 9.07559 48.0609 8.06764 51.1817 6.82708L48.7631 14.9682ZM61.8706 9.15313L54.6146 5.43146C57.4234 4.11337 60.2321 2.64021 62.8848 0.934447L61.8706 9.15313Z" fill="#FBBC3F" fill-opacity="0.25"/>
</g>
<defs>
<clipPath id="clip0">
<rect width="364" height="64" fill="white"/>
</clipPath>
</defs>
</svg>
