<svg width="410" height="200" viewBox="0 0 410 200" fill="none" xmlns="http://www.w3.org/2000/svg">
<path fill-rule="evenodd" clip-rule="evenodd" d="M12.8659 0.130688C12.2187 0.278492 11.6885 0.966219 11.6885 1.65935C11.6885 2.35315 11.994 3.10972 12.3674 3.34121C12.7408 3.57203 13.6181 3.57945 14.3165 3.35741C15.1844 3.0807 15.4764 2.5293 15.2389 1.61615C15.0472 0.880506 14.6993 0.185355 14.4665 0.0706209C14.2338 -0.0434379 13.5132 -0.0164416 12.8659 0.130688ZM5.29691 2.99971C5.06816 3.3709 5.20205 3.67461 5.59362 3.67461C5.98519 3.67461 6.30612 3.3709 6.30612 2.99971C6.30612 2.62851 6.1729 2.3248 6.00941 2.3248C5.84592 2.3248 5.52567 2.62851 5.29691 2.99971ZM17.3414 7.65992C15.8249 8.35102 14.3959 9.40725 14.1665 10.0072C13.937 10.6072 13.2858 11.0986 12.7186 11.0986C12.1521 11.0986 11.6885 11.5541 11.6885 12.1109C11.6885 12.6677 11.3858 13.1233 11.0157 13.1233C10.6457 13.1233 10.3429 12.8013 10.3429 12.4086C10.3429 12.0158 10.0139 11.8976 9.6116 12.1474C9.20926 12.3964 9.02962 13.1739 9.21195 13.8744C9.39495 14.575 9.27923 15.148 8.95561 15.148C8.632 15.148 8.54251 15.6076 8.75714 16.1691C8.97243 16.7306 8.78539 17.6283 8.34202 18.1641C7.89864 18.7 7.73111 19.4552 7.96996 19.8426C8.2088 20.23 9.327 20.5472 10.4546 20.5472C12.0007 20.5472 12.4098 20.7963 12.1178 21.5596C11.8392 22.2885 12.1884 22.5719 13.3645 22.5719C14.7626 22.5719 14.9779 22.8642 14.8574 24.5953C14.7794 25.7082 14.5177 26.6193 14.2748 26.62C14.0319 26.6207 13.5986 28.2155 13.312 30.1646C13.0254 32.1137 12.8572 34.1931 12.9373 34.7857C13.018 35.3783 12.6944 36.1625 12.218 36.5283C11.7417 36.8941 9.59747 37.6 7.4519 38.0968C5.307 38.5935 3.39692 39.2522 3.20719 39.56C3.01813 39.8677 3.71313 40.1525 4.75261 40.1937C6.15406 40.2484 5.87216 40.4191 3.66335 40.8537C2.0244 41.1764 0.410345 41.7143 0.0766349 42.049C-0.283987 42.4108 0.651882 42.4283 2.38368 42.0929C3.98562 41.7824 5.55661 41.5152 5.8735 41.499C6.19039 41.4828 6.28997 41.8877 6.09418 42.3993C5.8984 42.9109 6.05449 43.6465 6.44068 44.0339C6.82687 44.4213 7.63557 44.5597 8.23841 44.3417C8.84056 44.1237 8.57683 44.5927 7.65172 45.3844C6.09418 46.7167 6.06929 46.826 7.31532 46.8564C8.0554 46.8746 9.09556 47.1648 9.62707 47.5022C10.4277 48.0104 10.4418 48.2973 9.71252 49.1794C9.22877 49.7645 9.01348 50.243 9.23483 50.243C9.45618 50.243 9.33238 51.0462 8.96032 52.0275C8.58826 53.0095 7.96794 56.0911 7.58175 58.8757C7.19556 61.6611 7.08724 65.4527 7.34089 67.3019C7.73851 70.2 8.07021 70.7655 9.74548 71.3999C10.8139 71.8049 11.698 72.6006 11.7101 73.1689C11.7289 74.0948 11.8164 74.0941 12.5511 73.1655C13.0019 72.5952 13.9007 72.2375 14.548 72.3711C15.428 72.5527 15.7254 73.2822 15.7254 75.2638C15.7254 76.7216 16.0281 77.9141 16.3982 77.9141C16.7682 77.9141 17.071 76.8694 17.071 75.5918C17.071 74.3142 16.7682 73.0818 16.3982 72.8523C16.0281 72.6229 15.7254 71.6942 15.7254 70.7878C15.7254 69.8814 15.9716 69.1404 16.2723 69.1404C16.5731 69.1404 16.8193 67.3937 16.8207 65.2597C16.8213 62.9393 17.4134 59.7761 18.2921 57.3936C19.1008 55.2015 19.7622 53.303 19.7622 53.1755C19.7622 53.0473 19.4594 52.9426 19.0894 52.9426C18.7193 52.9426 18.4031 53.6263 18.3863 54.4612C18.3695 55.296 17.9106 56.8908 17.367 58.0044C16.8227 59.118 16.5388 59.4602 16.7352 58.7644C16.9317 58.0685 17.5776 55.3352 18.1696 52.6902C18.7624 50.0453 19.5401 47.5144 19.8988 47.0669C20.2574 46.6188 20.3684 45.9567 20.1457 45.595C19.9223 45.2332 20.0481 44.7466 20.4242 44.5131C20.8003 44.2802 21.1078 44.4328 21.1078 44.8519C21.1078 45.2933 21.5545 45.1671 22.1654 44.5543C22.8201 43.8976 23.8172 43.6425 24.7793 43.8841C25.7212 44.1216 27.4927 43.6937 29.2716 42.7995C30.887 41.9876 34.177 40.1039 36.5822 38.6131C39.8601 36.5816 41.6141 34.8876 43.5875 31.8485C45.0347 29.6193 46.5902 26.1921 47.0443 24.2336C47.6041 21.8167 47.6761 19.6348 47.2684 17.4433C46.9374 15.6677 46.0096 13.5127 45.2056 12.6542C44.4022 11.7964 43.4199 11.16 43.023 11.2396C42.626 11.3193 41.0275 10.5654 39.4706 9.5645C37.9144 8.56294 35.3409 7.44328 33.7518 7.07545C32.1633 6.70831 28.4413 6.40662 25.481 6.40527C21.6655 6.4046 19.2959 6.76972 17.3414 7.65992ZM92.036 8.27746C91.3457 9.08667 90.2248 9.74875 89.5453 9.74875C88.5112 9.74875 88.3443 10.2077 88.5179 12.5719C88.7002 15.0616 88.9606 15.4584 90.7213 15.9275C92.1127 16.2987 93.1845 16.1536 94.2536 15.451C95.3489 14.7309 95.7889 13.7908 95.7889 12.1703C95.7889 10.9204 95.2271 9.20275 94.5408 8.3517L93.2921 6.80549L92.036 8.27746ZM11.0157 9.78857C11.0157 10.1814 11.3185 10.3157 11.6885 10.0862C12.0586 9.85674 12.3613 9.53548 12.3613 9.37148C12.3613 9.20748 12.0586 9.07385 11.6885 9.07385C11.3185 9.07385 11.0157 9.39578 11.0157 9.78857ZM4.96051 12.4484C4.96051 12.8196 5.24511 13.1233 5.59362 13.1233C5.94213 13.1233 6.41377 12.8196 6.64252 12.4484C6.87127 12.0772 6.586 11.7735 6.00941 11.7735C5.43282 11.7735 4.96051 12.0772 4.96051 12.4484ZM5.36756 14.3577C5.17783 14.6661 5.60842 14.8747 6.32361 14.822C7.0388 14.7687 7.83203 14.517 8.08635 14.2618C8.34067 14.0067 7.91075 13.7982 7.13097 13.7982C6.35052 13.7982 5.55729 14.0499 5.36756 14.3577ZM103.863 14.4731C103.863 14.8443 104.165 15.148 104.535 15.148C104.905 15.148 105.208 14.8443 105.208 14.4731C105.208 14.1019 104.905 13.7982 104.535 13.7982C104.165 13.7982 103.863 14.1019 103.863 14.4731ZM11.4645 15.5981C11.2176 15.8452 11.0157 15.6427 11.0157 15.148C11.0157 14.6533 11.2176 14.4508 11.4645 14.6978C11.7107 14.9455 11.7107 15.3505 11.4645 15.5981ZM11.3521 17.1727C11.5809 17.5439 11.447 17.8476 11.0554 17.8476C10.6639 17.8476 10.3429 17.5439 10.3429 17.1727C10.3429 16.8015 10.4761 16.4978 10.6396 16.4978C10.8031 16.4978 11.1234 16.8015 11.3521 17.1727ZM37.5201 20.0235C37.8505 20.9495 37.9292 22.4741 37.6951 23.4108C37.4609 24.3476 36.4329 25.9883 35.4116 27.0574C34.3903 28.1264 32.7977 29.537 31.8726 30.193C30.4429 31.206 30.4174 31.2769 31.7044 30.6667C32.5367 30.2712 33.2182 30.1977 33.2182 30.5021C33.2182 30.8064 31.2442 32.0321 28.8322 33.2253C26.4202 34.4185 23.9712 35.3951 23.3906 35.3951C22.5281 35.3951 22.4157 34.8714 22.7777 32.5268C23.0212 30.9495 23.5615 28.5955 23.9786 27.2963C24.3958 25.9971 24.7685 24.6304 24.8062 24.2592C24.8439 23.888 25.1197 22.4505 25.4191 21.0649C25.8732 18.9619 26.3375 18.4422 28.2287 17.9178C29.4748 17.5729 31.0733 17.4427 31.7804 17.6276C32.4876 17.8132 33.2808 17.6175 33.5425 17.1916C33.891 16.6267 34.4091 16.6766 35.4688 17.3792C36.266 17.9077 37.1891 19.0975 37.5201 20.0235ZM84.3176 18.2256C83.6966 18.9767 83.6286 19.7961 84.0814 21.0871C84.43 22.082 85.1687 22.9836 85.7224 23.0909C86.2761 23.1976 87.2517 22.3992 87.8895 21.3153C89.0272 19.3837 89.0178 19.3243 87.397 18.2593C86.4881 17.6613 85.6195 17.1727 85.4668 17.1727C85.314 17.1727 84.7966 17.6465 84.3176 18.2256ZM145.075 18.4975C144.385 19.6057 144.414 19.7596 145.25 19.4377C145.8 19.2264 146.249 18.6298 146.249 18.1128C146.249 17.5959 146.17 17.1727 146.075 17.1727C145.979 17.1727 145.529 17.7686 145.075 18.4975ZM140.59 20.2854C139.289 21.7101 137.683 23.9467 137.022 25.2547C136.362 26.5633 135.118 28.8013 134.258 30.2281C133.399 31.6555 132.539 32.6665 132.349 32.4748C132.158 32.2831 132.784 30.7869 133.741 29.1489C135.026 26.9494 135.231 26.1712 134.527 26.1712C133.989 26.1712 132.479 28.5509 131.065 31.6271C129.685 34.6271 126.983 40.4232 125.061 44.5063C123.138 48.5895 120.946 52.6808 120.189 53.5987L118.814 55.267L119.085 47.862C119.235 43.7889 119.533 38.9384 119.749 37.0824C120.01 34.8329 119.916 33.9326 119.468 34.3828C119.097 34.754 118.649 35.6651 118.471 36.4075C118.293 37.1499 118.112 35.5733 118.069 32.904C118.026 30.2004 117.665 27.8483 117.255 27.5939C116.849 27.3428 115.74 27.5527 114.79 28.0603C113.431 28.7865 113.001 28.8033 112.779 28.1399C112.624 27.6762 112.115 27.2963 111.648 27.2963C111.181 27.2963 110.323 27.8274 109.743 28.4774C109.162 29.1266 108.466 30.8476 108.197 32.3007C107.928 33.7544 107.042 35.929 106.227 37.133C105.411 38.3377 103.714 41.391 102.454 43.9185C101.194 46.4467 99.8163 48.8925 99.3931 49.3548C98.7923 50.0115 98.5312 49.8685 98.1962 48.7002C97.9607 47.8782 97.6102 43.8652 97.4171 39.782C97.224 35.6988 96.9158 31.3713 96.7335 30.1646C96.5505 28.9579 96.1118 27.9712 95.7586 27.9712C95.4054 27.9712 95.1914 28.3329 95.2843 28.775C95.3765 29.2164 94.8786 29.703 94.1775 29.8555C93.0829 30.0931 92.9598 29.844 93.3076 28.0987C93.566 26.8049 93.3937 25.798 92.8346 25.333C92.18 24.7876 91.6464 24.9449 90.7382 25.9519C89.7236 27.0762 89.6502 27.5885 90.2995 29.0179C90.7287 29.9621 91.0793 30.8449 91.0793 30.9806C91.0793 31.1162 90.3627 31.1479 89.4867 31.0514C88.1903 30.909 87.9602 31.1277 88.2474 32.2291C88.5078 33.2287 88.3672 33.4372 87.7072 33.0276C87.0573 32.6253 86.9308 32.7805 87.2436 33.5972C87.5262 34.3355 87.3291 34.7202 86.6684 34.7202C86.116 34.7202 85.3685 35.4991 85.0072 36.4513C84.6466 37.4036 84.399 40.6682 84.4569 43.7066C84.5484 48.5018 84.615 48.7852 84.9615 45.8561L85.3604 42.4816L86.1604 48.2183C86.6004 51.3735 87.3122 55.5748 87.7422 57.5543C88.2071 59.6971 89.6529 62.8084 91.3154 65.2435C92.8508 67.4922 94.6532 69.6695 95.3199 70.0805C96.2794 70.671 96.6689 70.5894 97.1796 69.6904C97.6519 68.8576 98.4088 68.6463 100.003 68.9021C101.99 69.22 102.409 68.948 104.793 65.7982C106.23 63.8997 107.593 62.5337 107.821 62.7625C108.049 62.9913 108.245 63.3814 108.257 63.6284C108.269 63.8761 109.026 65.2138 109.939 66.6014C110.852 67.9883 112.092 69.1275 112.692 69.1323C113.294 69.1363 114.962 69.5568 116.399 70.0656C118.584 70.8391 119.151 70.8418 119.856 70.0852C120.442 69.4549 121.173 69.361 122.261 69.7754C123.119 70.1034 124.108 70.1703 124.456 69.9246C124.806 69.6789 126.083 68.1989 127.296 66.6365C128.508 65.0734 131.338 59.9104 133.586 55.1631C135.832 50.4151 137.671 45.7968 137.671 44.8998C137.671 44.0029 138.366 41.8769 139.216 40.1755C140.066 38.474 140.861 36.6268 140.982 36.07C141.104 35.5132 140.816 35.1366 140.343 35.2331C139.681 35.3675 139.703 35.055 140.435 33.8833C140.96 33.0444 141.788 31.1432 142.276 29.6584C142.763 28.1736 143.096 26.7226 143.016 26.4331C142.937 26.1442 143.464 24.6776 144.189 23.1746C144.921 21.6547 145.12 20.7618 144.638 21.1634C144.161 21.5603 143.604 21.7175 143.399 21.5123C143.195 21.3078 142.036 22.5247 140.825 24.2167C139.613 25.9093 138.494 27.166 138.338 27.0094C138.182 26.8535 139.32 24.8565 140.867 22.5719C142.413 20.2874 143.516 18.2552 143.318 18.0562C143.119 17.8571 141.891 18.86 140.59 20.2854ZM95.1161 21.8194C95.1161 22.7899 95.4263 23.0849 96.1536 22.8048C96.7248 22.5854 97.084 22.0826 96.9528 21.6871C96.8216 21.2923 96.3547 20.8489 95.9154 20.7018C95.4713 20.5533 95.1161 21.0507 95.1161 21.8194ZM89.0609 22.5719C89.0609 22.9431 89.515 23.2468 90.0701 23.2468C90.6251 23.2468 91.0793 22.9431 91.0793 22.5719C91.0793 22.2007 90.6251 21.897 90.0701 21.897C89.515 21.897 89.0609 22.2007 89.0609 22.5719ZM155.238 25.8445C152.966 27.9968 150.458 31.0339 149.665 32.5936C148.872 34.1533 147.476 39.1078 146.563 43.604C145.65 48.0995 144.906 53.0277 144.91 54.5543C144.912 56.0803 145.107 58.9338 145.342 60.895C145.679 63.7114 146.279 65.0214 148.196 67.1318C150.181 69.3179 151.112 69.8254 153.314 69.9239C154.794 69.9901 156.974 69.5372 158.158 68.917C159.343 68.2974 160.831 67.7905 161.466 67.7905C162.101 67.7905 162.426 67.5955 162.188 67.3573C161.951 67.1183 163.187 65.9136 164.936 64.6799C166.684 63.4462 169.994 60.54 172.289 58.2217C174.586 55.9028 176.39 53.9314 176.299 53.8409C176.209 53.7505 174.446 54.2 172.381 54.8412C170.316 55.4823 168.209 56.307 167.698 56.6749C167.187 57.0427 165.764 57.9018 164.535 58.5835C163.307 59.2658 161.763 59.6829 161.104 59.5101C160.445 59.3374 159.18 59.7565 158.292 60.4415C157.404 61.1259 156.305 61.6935 155.849 61.7016C155.394 61.7097 154.823 60.9234 154.58 59.9549C154.338 58.9857 154.316 56.0249 154.532 53.3746C154.747 50.7242 155.363 46.9097 155.9 44.8985C156.718 41.833 157.597 40.5487 161.328 36.9683C164.675 33.7558 166.258 32.6955 167.706 32.6955C168.766 32.6955 170.033 33.1794 170.522 33.7713C171.283 34.6898 171.171 35.0361 169.764 36.1321C168.857 36.8387 166.375 38.0657 164.247 38.8587C162.119 39.6517 160.378 40.4171 160.378 40.5602C160.378 40.7032 161.211 40.6526 162.228 40.4488C163.441 40.2052 163.113 40.4913 161.275 41.2796C159.733 41.9403 158.282 42.6719 158.049 42.9048C157.817 43.1376 157.496 44.0541 157.336 44.9416C157.113 46.1767 157.624 47.0183 159.511 48.5294C161.107 49.807 162.703 50.4813 164.037 50.4414C165.17 50.4077 168.177 49.5431 170.719 48.52C173.261 47.4968 176.474 45.568 177.858 44.233C179.698 42.458 180.602 40.8389 181.223 38.2027C181.99 34.9409 181.951 34.428 180.802 32.8035C180.105 31.8161 179.108 30.1734 178.589 29.1523C178.069 28.1311 177.217 27.2963 176.696 27.2963C176.175 27.2963 174.83 26.375 173.709 25.2493C172.4 23.9359 171.246 23.3373 170.49 23.5782C169.842 23.7847 167.54 23.4905 165.376 22.9249C163.212 22.36 160.975 21.9045 160.405 21.9139C159.835 21.9227 157.51 23.6916 155.238 25.8445ZM181.235 22.5719C181.235 22.9431 181.519 23.2468 181.868 23.2468C182.216 23.2468 182.688 22.9431 182.917 22.5719C183.146 22.2007 182.86 21.897 182.284 21.897C181.707 21.897 181.235 22.2007 181.235 22.5719ZM197.214 27.7545C196.567 27.928 196.037 28.3309 196.037 28.6501C196.037 28.9694 195.356 29.4458 194.523 29.7097C193.69 29.9736 192.61 30.7585 192.122 31.4537C191.634 32.1488 191.023 32.5868 190.765 32.4269C190.507 32.2669 189.95 32.869 189.529 33.7652C189.107 34.6615 189.018 35.3951 189.331 35.3951C189.643 35.3951 190.096 36.7139 190.337 38.3262C190.608 40.1384 190.327 43.5513 189.602 47.2687C188.957 50.5751 188.351 54.4949 188.256 55.9797C188.161 57.4645 187.883 59.5905 187.637 60.704C187.39 61.8176 186.934 63.3362 186.623 64.0786C186.311 64.821 185.908 66.1121 185.727 66.9476C185.545 67.7838 185.646 68.3129 185.95 68.1246C186.254 67.9363 186.618 68.13 186.759 68.5552C186.901 68.9797 188.288 65.8691 189.843 61.6415C191.398 57.4139 193.14 52.2846 193.715 50.243C194.291 48.2014 194.904 46.1079 195.078 45.5909C195.253 45.0739 195.545 44.7999 195.727 44.9835C195.909 45.1664 195.272 48.3222 194.31 51.9978C193.349 55.6726 191.83 60.7472 190.935 63.2754C190.04 65.8029 189.321 68.2326 189.335 68.6747C189.35 69.1161 189.814 68.6429 190.366 67.6218C190.918 66.6007 191.504 65.7658 191.668 65.7658C191.832 65.7658 191.679 66.5251 191.327 67.4531C190.916 68.5377 190.922 69.1404 191.344 69.1404C191.704 69.1404 192 68.8751 192 68.5512C192 68.2272 192.668 66.4812 193.485 64.6705C194.302 62.8604 194.996 61.2271 195.027 61.0415C195.059 60.8559 195.444 59.6411 195.884 58.3419C196.324 57.0427 196.794 55.3723 196.928 54.6299C197.063 53.8875 197.415 52.369 197.712 51.2554C198.008 50.1418 198.865 48.3506 199.615 47.2748C200.892 45.4445 201.011 45.4053 201.474 46.6606C201.853 47.6892 202.429 47.9349 203.939 47.7128C205.222 47.5238 206.316 46.7328 207.073 45.4465C207.714 44.3592 208.444 43.5986 208.698 43.7558C208.952 43.9131 210.066 42.7043 211.176 41.0697C212.836 38.6239 213.565 38.0974 215.295 38.0961C217.062 38.0947 217.459 37.791 217.776 36.1976C217.984 35.1542 217.897 33.1558 217.583 31.7574C217.268 30.3583 216.808 29.0105 216.56 28.7615C216.312 28.5124 215.453 28.2884 214.651 28.2641C213.849 28.2398 212.51 27.9914 211.676 27.7113C210.597 27.3503 209.648 27.606 208.389 28.5995C207.416 29.3676 206.225 29.9959 205.743 29.9959C205.261 29.9959 204.906 30.5277 204.954 31.177C205.002 31.8262 204.15 33.8766 203.062 35.7326L201.083 39.1071L200.878 35.5335C200.704 32.4998 200.435 31.8687 199.093 31.3565C198.224 31.0251 197.334 30.4636 197.115 30.1079C196.896 29.7529 197.208 29.2737 197.807 29.0429C198.407 28.8114 199.349 28.9977 199.9 29.4566C200.735 30.1518 200.859 30.0708 200.648 28.97C200.509 28.2432 199.943 27.602 199.393 27.544C198.842 27.4859 197.861 27.5811 197.214 27.7545ZM61.0131 29.1192C59.4259 29.6706 56.2281 31.9059 53.6903 34.239C50.1076 37.5325 49.2868 38.0407 49.6844 36.7193C49.9596 35.8055 51.1356 33.9771 52.2982 32.657C53.4602 31.3362 52.9832 31.7263 51.2379 33.5236C48.6671 36.1699 47.7265 37.845 46.2908 42.3358C44.666 47.4165 44.5496 48.5207 44.9014 55.5275C45.2136 61.7522 45.5561 63.6136 46.7443 65.5418C47.7158 67.1183 48.3704 67.6387 48.7028 67.0988C49.0681 66.5062 49.9946 66.7512 52.1435 68.0058C54.7681 69.5392 55.5196 69.6715 59.1292 69.2375C62.0404 68.8873 64.0467 68.1489 66.2845 66.6047C67.9954 65.4237 70.1867 63.5143 71.1542 62.3603C72.1217 61.2069 72.9136 59.9981 72.9136 59.6748C72.9136 59.3515 74.3709 57.3248 76.1518 55.1712C78.1897 52.7064 79.9794 49.5715 80.9812 46.7119C82.2447 43.1066 82.4216 41.8526 81.841 40.6378C81.438 39.7962 80.4799 37.7296 79.7116 36.0457C78.7764 33.9947 77.8681 32.9506 76.9598 32.8818C76.2144 32.8258 75.5927 33.1403 75.5772 33.581C75.5624 34.0217 74.6844 33.3677 73.6268 32.1279C72.5691 30.8874 70.8817 29.4445 69.8772 28.9221C68.8721 28.3991 67.1006 28.0096 65.9407 28.0562C64.7801 28.1028 62.5632 28.5813 61.0131 29.1192ZM86.3697 29.3608C86.3697 30.1248 86.659 30.5709 87.0128 30.3516C87.3667 30.1322 87.4858 29.5066 87.2773 28.9619C87.0694 28.4173 86.7794 27.9712 86.6341 27.9712C86.4887 27.9712 86.3697 28.5968 86.3697 29.3608ZM111.936 29.321C111.936 29.6922 111.633 29.9959 111.263 29.9959C110.893 29.9959 110.591 29.6922 110.591 29.321C110.591 28.9498 110.893 28.6461 111.263 28.6461C111.633 28.6461 111.936 28.9498 111.936 29.321ZM187.674 29.9196C187.471 30.2483 187.756 30.8928 188.307 31.3518C189.14 32.0462 189.308 31.9457 189.308 30.7531C189.308 29.9655 189.024 29.321 188.675 29.321C188.327 29.321 187.876 29.5903 187.674 29.9196ZM154.665 35.5814C153.367 38.3998 152.304 41.0798 152.304 41.5374C152.304 41.995 152.122 42.186 151.899 41.9626C151.677 41.7392 152.016 39.9426 152.655 37.9699C153.293 35.9971 154.418 33.3799 155.155 32.1536C155.892 30.9279 156.614 30.0445 156.76 30.1909C156.906 30.3374 155.963 32.763 154.665 35.5814ZM15.4159 32.2109C15.2779 32.6631 14.9826 33.8678 14.7592 34.8889C14.5365 35.9101 14.0992 36.7449 13.7877 36.7449C13.4755 36.7449 13.53 35.3904 13.9074 33.7349C14.2856 32.0786 14.8352 30.8739 15.1306 31.0568C15.4253 31.2391 15.5538 31.7587 15.4159 32.2109ZM195.181 31.0784C194.958 31.3025 194.377 31.3268 193.892 31.1318C193.355 30.9165 193.515 30.7565 194.299 30.7241C195.008 30.6951 195.405 30.8544 195.181 31.0784ZM180.133 33.033C180.345 33.5898 180.259 34.0453 179.94 34.0453C179.621 34.0453 179.186 33.5898 178.973 33.033C178.76 32.4762 178.847 32.0206 179.165 32.0206C179.484 32.0206 179.92 32.4762 180.133 33.033ZM216.669 35.8453C216.422 36.0923 216.221 35.8898 216.221 35.3951C216.221 34.9004 216.422 34.6979 216.669 34.945C216.916 35.1927 216.916 35.5976 216.669 35.8453ZM95.7889 36.7449C95.7889 37.1161 95.468 37.4198 95.0764 37.4198C94.6848 37.4198 94.5509 37.1161 94.7797 36.7449C95.0084 36.3737 95.3287 36.07 95.4922 36.07C95.6557 36.07 95.7889 36.3737 95.7889 36.7449ZM129.671 40.0985C129.021 41.2007 128.388 41.9991 128.262 41.8729C128.136 41.7466 128.396 40.845 128.839 39.8691C129.282 38.8932 129.916 38.0947 130.248 38.0947C130.58 38.0947 130.32 38.9964 129.671 40.0985ZM67.5655 39.6268C67.5285 39.894 67.3213 41.0029 67.1046 42.0908C66.8126 43.5561 66.4298 43.9617 65.6298 43.6539C64.8797 43.3644 65.0001 43.7228 66.0254 44.8269C67.0945 45.9776 67.3865 46.8968 67.0844 48.1609C66.855 49.1207 66.127 50.9895 65.4663 52.3136C64.805 53.6385 63.0308 55.84 61.523 57.2067C60.0146 58.5734 58.3414 59.6917 57.8038 59.6917C57.2238 59.6917 56.6513 58.7502 56.3936 57.3734C56.1554 56.0985 56.3162 53.9725 56.7515 52.6491C57.1875 51.3256 57.7816 50.243 58.0729 50.243C58.3636 50.243 59.1312 48.8534 59.7771 47.1553C60.4237 45.4573 62.1131 42.8447 63.5307 41.3498C64.9483 39.8542 66.4513 38.746 66.8705 38.8864C67.289 39.0261 67.6018 39.3595 67.5655 39.6268ZM89.5063 40.9631C89.3199 41.4274 89.1672 41.0474 89.1672 40.1195C89.1672 39.1915 89.3199 38.8122 89.5063 39.2758C89.6933 39.7402 89.6933 40.4994 89.5063 40.9631ZM183.77 41.881C183.092 43.3718 183.152 43.7747 184.152 44.509C184.802 44.9855 185.926 45.2211 186.648 45.0314C187.406 44.8323 187.963 44.1081 187.963 43.3212C187.963 42.57 187.433 41.5523 186.785 41.0589C186.138 40.5656 185.375 40.1525 185.089 40.1411C184.803 40.1289 184.21 40.9118 183.77 41.881ZM126.804 46.004C126.181 47.0764 126.104 47.0845 126.085 46.0802C126.074 45.4607 126.283 44.3977 126.549 43.718C126.992 42.5889 127.055 42.5822 127.268 43.6418C127.396 44.2796 127.187 45.3425 126.804 46.004ZM21.1078 46.8685C21.1078 47.3632 21.3096 47.5657 21.5565 47.3187C21.8028 47.071 21.8028 46.666 21.5565 46.4183C21.3096 46.1713 21.1078 46.3738 21.1078 46.8685ZM19.8638 49.3778C19.4897 50.079 19.4251 51.0455 19.7205 51.5247C20.0952 52.1328 20.3953 51.8432 20.7149 50.565C20.9672 49.558 21.0318 48.5922 20.8588 48.4181C20.6853 48.2446 20.2378 48.6766 19.8638 49.3778ZM85.0772 51.3114C85.1095 52.0977 85.2689 52.2576 85.4836 51.7197C85.678 51.2324 85.6538 50.65 85.4304 50.4259C85.207 50.2019 85.0483 50.6 85.0772 51.3114ZM152.899 54.9329C152.876 57.5131 153.052 59.9428 153.293 60.3322C153.533 60.7223 153.441 61.0415 153.089 61.0415C152.736 61.0415 152.265 60.561 152.04 59.9738C151.815 59.3866 151.636 57.6407 151.641 56.0931C151.646 54.5462 151.833 52.5964 152.055 51.7616C152.279 50.9267 152.569 50.243 152.702 50.243C152.834 50.243 152.923 52.3534 152.899 54.9329ZM187.29 56.9921C187.29 57.4868 187.492 57.6892 187.739 57.4422C187.985 57.1945 187.985 56.7896 187.739 56.5419C187.492 56.2949 187.29 56.4974 187.29 56.9921ZM163.293 57.4422C163.54 57.6892 163.944 57.6892 164.191 57.4422C164.437 57.1945 164.235 56.9921 163.742 56.9921C163.249 56.9921 163.047 57.1945 163.293 57.4422ZM17.7438 62.3913C17.7438 62.886 17.9456 63.0885 18.1925 62.8415C18.4388 62.5938 18.4388 62.1888 18.1925 61.9411C17.9456 61.6941 17.7438 61.8966 17.7438 62.3913ZM18.21 68.9838C17.5352 69.1343 17.0858 69.7295 17.2008 70.3221C17.3145 70.91 17.7599 71.5086 18.1912 71.6523C18.6224 71.7968 19.1802 71.267 19.4298 70.4767C19.6801 69.6857 19.7817 68.9656 19.6552 68.8765C19.5294 68.7867 18.8788 68.8353 18.21 68.9838ZM188.383 70.8539C188.152 71.4566 187.972 72.1531 187.983 72.4015C187.994 72.6492 188.325 72.2982 188.718 71.6206C189.111 70.943 189.29 70.2465 189.117 70.0731C188.944 69.8989 188.613 70.2506 188.383 70.8539Z" fill="white"/>
<path fill-rule="evenodd" clip-rule="evenodd" d="M230.56 5.91351C230.344 6.12918 230.467 6.66537 230.833 7.10505C231.2 7.54473 231.871 7.90458 232.324 7.90458C232.778 7.90458 233.149 7.6901 233.149 7.42796C233.149 7.16582 232.826 6.62962 232.431 6.23641C232.036 5.8432 231.542 5.52148 231.333 5.52148C231.125 5.52148 230.777 5.69784 230.56 5.91351ZM375.992 6.81014C375.44 7.11696 374.99 7.9159 374.99 8.58555C374.99 9.2826 375.478 9.9308 376.13 10.1006C376.857 10.2895 377.41 11.1343 377.654 12.4277C377.953 14.0178 378.326 14.4581 379.372 14.4581C380.107 14.4581 381.32 14.0315 382.067 13.5108C382.814 12.9895 383.382 12.1185 383.328 11.5745C383.275 11.0306 383.262 10.2758 383.3 9.89684C383.338 9.51018 383.894 9.34456 384.566 9.51913C385.484 9.75863 385.763 9.53759 385.763 8.57006C385.763 7.87598 385.509 7.3088 385.199 7.3088C384.889 7.3088 384.459 7.59418 384.242 7.9433C383.985 8.35737 383.444 8.21378 382.685 7.52984C382.045 6.95372 380.503 6.43004 379.258 6.36689C378.012 6.30374 376.542 6.50272 375.992 6.81014ZM266.065 8.79824C264.949 9.9451 263.85 10.8834 263.625 10.8834C263.4 10.8834 260.951 13.0955 258.183 15.7986C255.416 18.5016 251.732 21.652 249.998 22.7989C248.263 23.9458 245.866 25.6884 244.67 26.6714C243.106 27.9571 242.61 28.1573 242.903 27.3852C243.189 26.6303 243.09 26.4361 242.568 26.731C242.16 26.9616 241.389 27.5234 240.854 27.9786C239.978 28.7245 239.626 28.1078 237.319 21.7813C235.91 17.9177 234.229 13.6836 233.584 12.3729C232.939 11.0622 231.997 9.52091 231.49 8.94718C230.983 8.37345 230.072 7.90458 229.465 7.90458C228.673 7.90458 228.361 8.34545 228.361 9.46372C228.361 10.7291 228.586 10.9639 229.558 10.7107C230.216 10.5397 230.755 10.6094 230.755 10.8662C230.755 11.1229 230.385 11.6389 229.933 12.0124C229.481 12.386 228.673 12.5242 228.138 12.3193C227.564 12.1 227.164 12.2484 227.164 12.6797C227.164 13.2427 226.969 13.251 226.319 12.7149C225.742 12.2376 225.352 12.215 225.087 12.6416C224.874 12.9853 224.866 13.5346 225.069 13.8623C225.273 14.19 225.894 14.4664 226.451 14.4771C227.358 14.4938 227.348 14.5826 226.356 15.3309C225.724 15.8075 225.438 16.4712 225.69 16.8763C225.932 17.2672 226.208 18.5588 226.303 19.7462C226.397 20.9335 226.76 22.8257 227.108 23.9511C227.456 25.076 227.611 26.1263 227.453 26.2842C227.294 26.4427 227.164 26.2145 227.164 25.7778C227.164 25.3411 227.001 25.1451 226.802 25.3429C226.604 25.5407 227.44 28.6857 228.66 32.3313C229.88 35.9768 230.986 38.8526 231.117 38.7221C231.249 38.5917 230.816 36.9217 230.156 35.0123C229.496 33.1028 229.092 31.4054 229.257 31.2404C229.423 31.076 229.635 31.0527 229.73 31.1892C229.824 31.3256 230.485 33.2839 231.198 35.5401L232.495 39.6426L229.794 43.1362C228.309 45.0576 226.908 46.6304 226.68 46.631C226.452 46.6316 225.476 47.878 224.508 49.4014C223.542 50.9242 222.128 52.8396 221.366 53.6576C220.605 54.4756 219.982 55.4854 219.982 55.9018C219.982 56.3183 219.696 56.7538 219.346 56.87C218.996 56.9861 218.632 57.7887 218.536 58.6543C218.401 59.878 218.576 60.1539 219.322 59.8947C219.947 59.6773 219.808 60.0192 218.921 60.8759C218.173 61.5992 217.732 62.4667 217.942 62.8033C218.199 63.2167 218.532 63.2054 218.972 62.7675C219.33 62.4113 219.919 62.1199 220.281 62.1199C220.68 62.1199 220.853 62.9957 220.721 64.3541C220.582 65.7821 220.696 66.313 221.037 65.8256C221.466 65.2132 221.916 65.2418 223.32 65.971C224.282 66.4703 225.406 66.8801 225.817 66.8825C226.229 66.8843 226.565 67.2346 226.565 67.6606C226.565 68.0866 226.228 68.817 225.817 69.2829C225.406 69.7494 225.675 69.6279 226.416 69.0118C227.156 68.3964 227.762 67.5605 227.762 67.1548C227.762 66.7485 228.592 65.5325 229.606 64.4518C230.619 63.3711 232.137 61.131 232.978 59.4735C233.818 57.8161 235.147 55.6981 235.93 54.7669L237.353 53.0737L238.229 55.1607C238.711 56.3088 240.794 59.3496 242.859 61.918C244.924 64.4869 247.152 67.0488 247.811 67.6112C248.47 68.1736 249.413 68.6216 249.906 68.6067C250.515 68.5882 250.563 68.4828 250.056 68.279C249.645 68.1134 249.308 67.5891 249.308 67.1131C249.308 66.4089 249.557 66.3767 250.654 66.9397C251.395 67.3198 252.65 68.2004 253.444 68.8968C254.238 69.5933 254.705 69.8465 254.482 69.4593C254.258 69.0726 254.37 68.5751 254.729 68.3541C255.087 68.1337 256.064 68.5841 256.897 69.3556L258.413 70.7586L257.137 68.4798L255.861 66.2004L257.148 66.6073C257.961 66.8641 258.296 66.7896 258.057 66.4053C257.849 66.0705 257.973 65.6987 258.332 65.5796C258.692 65.4604 257.28 63.5998 255.194 61.4449C253.109 59.29 250.396 55.8238 249.165 53.7416C247.934 51.6594 246.485 48.6304 245.944 47.0105L244.962 44.0656L251.474 37.7457C255.056 34.2693 259.198 30.3509 260.679 29.0378C262.16 27.7242 264.341 25.4483 265.524 23.9797C266.707 22.5111 268.007 20.6833 268.415 19.9177C268.822 19.1528 269.036 18.4087 268.891 18.2645C268.747 18.1203 267.627 19.2189 266.404 20.7054C265.18 22.1924 263.931 23.2565 263.629 23.0706C263.327 22.8847 262.069 23.4686 260.832 24.367C259.039 25.6705 259.311 25.241 262.175 22.2442C264.266 20.0572 265.466 18.3753 265.048 18.2204C264.597 18.0524 265.464 16.3628 267.38 13.6734C269.058 11.3201 269.849 9.90757 269.138 10.5361C268.427 11.1641 267.176 11.7491 266.356 11.8361L264.867 11.994L266.692 9.3535C267.696 7.90101 268.422 6.71303 268.306 6.71303C268.191 6.71303 267.182 7.65137 266.065 8.79824ZM387.117 11.0252C386.787 11.4387 386.181 12.8143 385.77 14.0827C385.36 15.3505 384.847 16.1036 384.631 15.7557C384.416 15.4083 384.22 16.1137 384.195 17.3232C384.171 18.5326 383.853 20.2448 383.488 21.1284C382.986 22.3437 382.272 22.8275 380.553 23.1153C379.304 23.3244 376.935 24.1394 375.289 24.927C373.643 25.714 372.634 26.3616 373.045 26.3658C373.456 26.37 373.793 26.6107 373.793 26.8996C373.793 27.1892 373.254 27.5663 372.595 27.7379C371.85 27.9321 371.186 27.6759 370.841 27.0629C370.536 26.5201 369.661 26.0578 368.897 26.0363C368.134 26.0149 366.901 25.7956 366.159 25.5484C365.199 25.2297 364.355 25.4555 363.236 26.3324C362.37 27.0104 361.311 27.5651 360.882 27.5651C360.453 27.5651 360.137 28.034 360.18 28.6077C360.222 29.1814 359.465 30.9908 358.497 32.6292L356.736 35.608L356.554 32.4534C356.4 29.7754 356.16 29.2184 354.966 28.7662C354.193 28.4736 353.401 27.978 353.207 27.664C353.012 27.3506 353.289 26.9276 353.823 26.7239C354.356 26.5195 355.194 26.6839 355.684 27.0891C356.428 27.7033 356.535 27.6312 356.333 26.6524C356.155 25.7945 355.653 25.5103 354.462 25.5931C353.565 25.655 352.412 26.1245 351.898 26.6357C351.385 27.1469 350.645 27.5651 350.254 27.5651C349.863 27.5651 349.2 28.1114 348.781 28.7799C348.362 29.4477 347.821 29.8731 347.58 29.7242C347.338 29.5758 346.833 30.1013 346.459 30.8925C346.084 31.6837 346.004 32.3313 346.282 32.3313C346.56 32.3313 346.963 33.4954 347.178 34.9187C347.418 36.5184 347.169 39.5312 346.523 42.8127C345.949 45.7314 345.411 49.1917 345.326 50.5024C345.242 51.8131 344.994 53.6897 344.775 54.6728C344.556 55.6558 344.15 56.9963 343.873 57.6516C343.596 58.307 343.238 59.4467 343.077 60.1843C342.915 60.9224 343.004 61.3895 343.275 61.2233C343.545 61.0571 343.869 61.2281 343.995 61.6034C344.12 61.9781 345.355 59.2322 346.738 55.5003C348.121 51.7684 349.671 47.2405 350.183 45.4383C350.695 43.6361 351.24 41.788 351.395 41.3316C351.55 40.8753 351.81 40.6334 351.972 40.7954C352.134 40.9569 351.567 43.7427 350.712 46.9873C349.856 50.2313 348.506 54.7109 347.71 56.9427C346.914 59.1738 346.273 61.3186 346.286 61.7088C346.3 62.0985 346.712 61.6802 347.203 60.7794C347.695 59.8786 348.215 59.1411 348.361 59.1411C348.507 59.1411 348.371 59.8113 348.058 60.6305C347.692 61.5879 347.698 62.1199 348.073 62.1199C348.394 62.1199 348.656 61.8858 348.656 61.5998C348.656 61.3139 349.251 59.7726 349.978 58.1741C350.704 56.5763 351.322 55.1345 351.35 54.9707C351.378 54.8068 351.721 53.7344 352.112 52.5876C352.503 51.4407 352.921 49.9662 353.04 49.3108C353.16 48.6555 353.474 47.315 353.738 46.3319C354.001 45.3489 354.763 43.7677 355.431 42.8181C356.567 41.2023 356.673 41.1678 357.084 42.2759C357.421 43.1839 357.934 43.4007 359.277 43.2047C360.418 43.0379 361.391 42.3397 362.065 41.2041C362.635 40.2443 363.285 39.5729 363.51 39.7117C363.736 39.8505 364.728 38.7835 365.714 37.3405C367.216 35.1451 367.826 34.7167 369.454 34.7156C370.844 34.715 371.399 34.4403 371.399 33.7534C371.399 32.9848 371.79 32.871 373.344 33.1856C374.414 33.4019 376.19 33.7331 377.29 33.9208C379.084 34.2264 379.256 34.4242 378.95 35.8285C378.763 36.6905 378.17 39.8082 377.633 42.7573C377.06 45.9101 376.787 49.5634 376.971 51.6236C377.206 54.2498 377.733 55.7434 379.073 57.5813C380.159 59.0702 381.35 60.0413 382.103 60.052C382.785 60.0615 383.672 60.3964 384.074 60.7967C384.476 61.1965 385.362 61.5242 386.043 61.5242C386.723 61.5242 388.285 60.8444 389.514 60.0133C390.743 59.1822 391.747 58.3451 391.747 58.1533C391.747 57.9608 391.411 58.052 390.999 58.3558C390.588 58.6597 389.51 59.2227 388.605 59.6075C387.7 59.9924 386.959 60.108 386.959 59.8649C386.959 59.6213 388.238 58.8074 389.802 58.0562C391.366 57.3049 393.578 55.9012 394.717 54.9367C395.857 53.9721 396.523 53.1833 396.197 53.1833C395.871 53.1833 394.995 53.6087 394.248 54.1288C393.007 54.9945 392.765 54.9909 391.38 54.0877C390 53.1875 389.742 53.1833 388.435 54.0359C387.647 54.55 386.733 54.9707 386.405 54.9707C386.077 54.9707 385.498 53.8309 385.118 52.4386C384.73 51.0159 384.57 48.1937 384.752 45.9971C384.93 43.847 385.655 40.3617 386.364 38.2521C387.073 36.1424 387.833 34.2306 388.054 34.0036C388.275 33.776 392.092 33.2523 396.535 32.8395C400.979 32.426 404.117 31.9839 403.508 31.8564C402.548 31.6563 402.603 31.5216 403.917 30.843C404.75 30.4129 406.198 29.8928 407.135 29.6878C408.072 29.4835 409.17 28.7876 409.574 28.1424C410.191 27.1588 410.156 26.9693 409.352 26.9693C408.826 26.9693 407.71 26.4331 406.873 25.7778C406.036 25.1224 404.781 24.5481 404.085 24.5016C403.389 24.4552 403.897 24.2049 405.213 23.9458C407.464 23.5025 407.418 23.4846 404.447 23.6467C402.709 23.7414 401.145 23.5895 400.971 23.3089C400.796 23.0283 398.65 22.7989 396.201 22.7989C393.751 22.7989 391.747 22.6416 391.747 22.4498C391.747 22.2579 392.192 20.439 392.736 18.4081C393.399 15.9314 393.578 13.9386 393.281 12.3598C392.865 10.156 392.783 10.0785 391.993 11.1539C391.495 11.8319 391.149 11.9856 391.149 11.5293C391.149 11.0598 390.766 10.9019 390.175 11.1277C389.64 11.3327 388.867 11.2236 388.459 10.8864C387.941 10.4581 387.536 10.4998 387.117 11.0252ZM397.376 12.1673C397.111 12.5933 397.212 12.6934 397.639 12.4295C398.02 12.1959 398.331 11.8867 398.331 11.7419C398.331 11.5972 398.212 11.4792 398.067 11.4792C397.921 11.4792 397.611 11.789 397.376 12.1673ZM406.909 11.8766C407.128 12.0947 407.488 12.0947 407.707 11.8766C407.926 11.658 407.747 11.4792 407.308 11.4792C406.869 11.4792 406.69 11.658 406.909 11.8766ZM384.613 13.6139C384.642 14.3079 384.783 14.4491 384.974 13.9743C385.147 13.5442 385.126 13.03 384.927 12.8322C384.728 12.6344 384.587 12.9859 384.613 13.6139ZM370.584 14.756C370.395 15.2475 370.501 15.6496 370.819 15.6496C371.138 15.6496 371.399 15.2475 371.399 14.756C371.399 14.2645 371.293 13.8623 371.164 13.8623C371.034 13.8623 370.773 14.2645 370.584 14.756ZM255.925 20.5838L253.926 22.501L255.634 20.2943C256.574 19.0807 257.474 18.218 257.634 18.3771C257.794 18.5367 257.025 19.5293 255.925 20.5838ZM377.758 19.0503C377.57 19.2374 377.56 19.6211 377.734 19.9029C377.91 20.1853 378.441 20.4158 378.915 20.4158C379.39 20.4158 379.778 20.1763 379.778 19.8838C379.778 19.5913 379.4 19.2076 378.939 19.0312C378.477 18.8549 377.946 18.8638 377.758 19.0503ZM315.955 23.9005C313.934 25.8004 311.704 28.4814 310.998 29.8582C310.292 31.2351 309.051 35.6086 308.239 39.5777C307.427 43.5461 306.765 47.8964 306.768 49.2441C306.77 50.5911 306.944 53.11 307.153 54.8414C307.452 57.3275 307.986 58.4839 309.691 60.3469C311.457 62.2766 312.285 62.7246 314.243 62.8116C315.56 62.87 317.499 62.4702 318.553 61.9227C319.607 61.3758 320.93 60.9284 321.495 60.9284C322.06 60.9284 322.349 60.7562 322.138 60.5459C321.927 60.335 323.026 59.2715 324.582 58.1825C326.137 57.0934 329.081 54.528 331.123 52.4815C333.166 50.4344 334.771 48.6942 334.69 48.6143C334.61 48.5345 333.041 48.9313 331.205 49.4973C329.368 50.0633 327.493 50.7913 327.039 51.116C326.585 51.4407 325.319 52.1991 324.226 52.8008C323.133 53.4032 321.759 53.7714 321.173 53.6188C320.587 53.4663 319.462 53.8363 318.672 54.441C317.882 55.0451 316.904 55.5462 316.499 55.5533C316.094 55.5605 315.586 54.8664 315.37 54.0115C315.155 53.1559 315.135 50.5423 315.327 48.2027C315.519 45.8631 316.066 42.4958 316.544 40.7204C317.272 38.0143 318.054 36.8806 321.373 33.72C324.35 30.8841 325.758 29.9482 327.046 29.9482C327.989 29.9482 329.116 30.3753 329.552 30.8978C330.228 31.7087 330.128 32.0143 328.877 32.9819C328.07 33.6056 325.861 34.6888 323.969 35.3888C322.076 36.0888 320.528 36.7644 320.528 36.8907C320.528 37.017 321.269 36.9724 322.173 36.7924C323.252 36.5774 322.96 36.83 321.325 37.5258C319.954 38.1091 318.663 38.7549 318.456 38.9604C318.25 39.166 317.964 39.975 317.822 40.7585C317.623 41.8488 318.077 42.5917 319.756 43.9256C321.176 45.0534 322.596 45.6486 323.782 45.6134C324.79 45.5837 327.465 44.8205 329.726 43.9173C331.988 43.0141 334.846 41.3114 336.077 40.1329C337.714 38.566 338.517 37.1368 339.07 34.8097C339.753 31.9303 339.717 31.4775 338.696 30.0435C338.075 29.1719 337.189 27.7212 336.727 26.8204C336.264 25.9196 335.506 25.182 335.043 25.182C334.58 25.182 333.384 24.3688 332.386 23.375C331.221 22.2156 330.195 21.6872 329.522 21.8999C328.946 22.0822 326.898 21.8224 324.974 21.3232C323.048 20.8245 321.058 20.4224 320.552 20.4307C320.045 20.4384 317.976 22 315.955 23.9005ZM339.081 21.0116C339.081 21.3393 339.334 21.6074 339.644 21.6074C339.954 21.6074 340.373 21.3393 340.577 21.0116C340.78 20.6839 340.527 20.4158 340.014 20.4158C339.501 20.4158 339.081 20.6839 339.081 21.0116ZM272.981 23.2618C272.744 23.4989 272.369 23.7289 272.15 23.773C271.931 23.8171 271.164 24.0441 270.446 24.2782C269.728 24.5123 268.97 25.1463 268.762 25.6866C268.553 26.2276 268.137 30.1555 267.836 34.4159C267.535 38.6757 267.034 44.1723 266.723 46.6298C266.412 49.0874 265.578 54.1813 264.871 57.9495C264.164 61.7178 263.468 66.4095 263.325 68.3755C263.182 70.3416 262.924 73.4247 262.752 75.2269C262.58 77.0292 262.342 79.9782 262.222 81.7804C262.102 83.5827 261.302 88.0575 260.444 91.7239C259.586 95.3909 258.884 99.7561 258.884 101.424C258.884 103.565 259.146 104.557 259.778 104.799C260.27 104.987 260.498 105.422 260.284 105.766C260.07 106.11 260.148 106.236 260.456 106.047C260.764 105.857 261.084 104.81 261.166 103.72C261.248 102.631 261.584 100.744 261.911 99.5297C262.239 98.3149 262.765 97.1621 263.08 96.9685C263.42 96.7588 263.542 97.4153 263.379 98.5813C263.229 99.6626 263.791 97.7323 264.628 94.2917C265.466 90.8511 266.708 86.0992 267.387 83.7322C268.068 81.3652 268.824 79.5511 269.067 79.7012C269.311 79.8513 269.713 79.1066 269.96 78.0473C270.208 76.9875 270.469 75.8525 270.541 75.5248C270.612 75.1971 270.712 74.042 270.762 72.9576C270.812 71.8733 271.064 71.1155 271.321 71.274C271.579 71.4325 272.565 68.03 273.514 63.713C274.462 59.3961 275.345 55.6623 275.476 55.4157C275.606 55.169 276.203 55.228 276.8 55.5462C277.397 55.8643 278.031 56.6775 278.209 57.3537C278.459 58.3088 278.109 58.7675 276.638 59.4092C274.848 60.1902 274.826 60.2367 276.24 60.2581C277.063 60.2706 278.862 60.0633 280.239 59.7982C281.616 59.5331 283.771 59.4914 285.027 59.7059C286.283 59.9209 288.366 59.8703 289.655 59.5939C291.318 59.237 292.128 59.3007 292.447 59.8137C292.787 60.3624 293.248 60.3064 294.363 59.5789C295.17 59.0523 297.079 56.9689 298.604 54.9486C300.188 52.8509 301.808 49.8321 302.38 47.9101C302.932 46.0591 303.403 42.4862 303.427 39.9697C303.467 35.7623 303.338 35.2577 301.825 33.6819C300.92 32.7394 300.179 31.7575 300.179 31.5008C300.179 31.2434 299.573 30.5154 298.832 29.8826C298.092 29.2499 296.678 28.2931 295.69 27.7563C294.48 27.0986 292.49 26.7888 289.588 26.8067C286.419 26.8257 284.565 27.1772 282.572 28.1376C281.082 28.8555 279.586 29.2726 279.248 29.0646C278.91 28.8567 278.634 28.1817 278.634 27.5651C278.634 26.9485 278.364 26.2782 278.035 26.0757C277.706 25.8731 277.432 25.12 277.428 24.4021C277.422 23.6842 277.221 23.3649 276.979 23.6926C276.737 24.0202 275.903 24.3771 275.127 24.4855C274.286 24.6035 273.867 24.4391 274.089 24.0798C274.295 23.7486 274.228 23.3315 273.939 23.154C273.651 22.9764 273.22 23.0253 272.981 23.2618ZM399.927 23.7921C399.707 24.0101 399.348 24.0101 399.129 23.7921C398.909 23.5734 399.089 23.3947 399.528 23.3947C399.966 23.3947 400.146 23.5734 399.927 23.7921ZM344.808 27.4978C344.628 27.7879 344.881 28.3569 345.371 28.762C346.113 29.375 346.262 29.2863 346.262 28.2335C346.262 27.5383 346.009 26.9693 345.699 26.9693C345.389 26.9693 344.988 27.207 344.808 27.4978ZM315.445 32.4957C314.291 34.9837 313.346 37.3495 313.346 37.7534C313.346 38.1573 313.184 38.3259 312.985 38.1287C312.787 37.9315 313.09 36.3456 313.658 34.6041C314.226 32.8627 315.226 30.5523 315.882 29.4698C316.537 28.3879 317.179 27.608 317.309 27.7373C317.439 27.8666 316.6 30.0078 315.445 32.4957ZM351.487 28.5207C351.288 28.7185 350.771 28.74 350.34 28.5678C349.862 28.3777 350.004 28.2365 350.701 28.2079C351.332 28.1823 351.685 28.3229 351.487 28.5207ZM338.1 30.2461C338.289 30.7376 338.212 31.1397 337.929 31.1397C337.645 31.1397 337.258 30.7376 337.069 30.2461C336.879 29.7546 336.957 29.3524 337.24 29.3524C337.523 29.3524 337.911 29.7546 338.1 30.2461ZM373.482 30.5314C374.475 31.6235 374.48 31.7391 373.549 32.0948C372.996 32.3057 372.455 32.3783 372.345 32.2562C372.236 32.1335 371.96 31.4305 371.732 30.6929C371.504 29.9553 371.564 29.3524 371.864 29.3524C372.164 29.3524 372.893 29.8832 373.482 30.5314ZM255.592 31.1397C255.388 31.4674 254.953 31.7355 254.624 31.7355C254.294 31.7355 254.191 31.4674 254.395 31.1397C254.598 30.8121 255.034 30.544 255.363 30.544C255.692 30.544 255.795 30.8121 255.592 31.1397ZM405.999 31.5466C406.431 31.7188 406.947 31.6974 407.146 31.4996C407.345 31.3018 406.991 31.1612 406.361 31.1868C405.663 31.2154 405.522 31.3566 405.999 31.5466ZM370.601 32.7287C370.381 32.9467 370.202 32.768 370.202 32.3313C370.202 31.8946 370.381 31.7158 370.601 31.9339C370.82 32.1525 370.82 32.51 370.601 32.7287ZM290.183 35.5645C291.214 36.3426 291.205 36.5398 289.977 40.3248C289.033 43.2339 287.902 45.138 285.68 47.558C284.021 49.365 281.475 51.536 280.023 52.3832C278.571 53.2304 277.286 53.8244 277.167 53.7023C277.049 53.5807 277.408 50.3147 277.966 46.4445C278.634 41.8148 279.279 39.2196 279.854 38.8574C280.618 38.3772 280.616 38.3063 279.841 38.2979C279.354 38.2932 279.917 37.6372 281.095 36.8413C282.272 36.0447 284.287 35.2857 285.572 35.1541C286.859 35.0224 288.179 34.8782 288.509 34.8335C288.838 34.7888 289.591 35.1177 290.183 35.5645ZM251.704 36.7972C250.932 37.6152 250.174 38.1579 250.019 38.0036C249.864 37.8493 250.381 37.1892 251.168 36.5362C251.955 35.8839 252.714 35.3411 252.853 35.3298C252.993 35.3191 252.476 35.9792 251.704 36.7972ZM341.336 38.0567C340.733 39.3727 340.786 39.7284 341.676 40.3766C342.254 40.7972 343.253 41.0051 343.896 40.8377C344.57 40.662 345.065 40.0227 345.065 39.328C345.065 38.6649 344.594 37.7665 344.018 37.331C343.442 36.8955 342.763 36.5309 342.509 36.5207C342.255 36.51 341.727 37.2011 341.336 38.0567ZM387.041 44.2467C386.987 44.7382 386.776 45.8106 386.57 46.6298C386.283 47.7803 386.363 47.9661 386.925 47.4472C387.325 47.0773 387.536 46.0049 387.395 45.0641C387.254 44.1228 387.095 43.7552 387.041 44.2467ZM313.875 49.5783C313.854 51.856 314.011 54.0007 314.225 54.3445C314.439 54.6889 314.357 54.9707 314.044 54.9707C313.73 54.9707 313.31 54.5465 313.111 54.0281C312.911 53.5098 312.751 51.9686 312.756 50.6024C312.76 49.2369 312.926 47.5163 313.124 46.7788C313.323 46.0412 313.582 45.4383 313.699 45.4383C313.817 45.4383 313.896 47.3013 313.875 49.5783ZM344.467 51.396C344.467 51.8327 344.647 52.0114 344.866 51.7934C345.085 51.5747 345.085 51.2173 344.866 50.9986C344.647 50.7806 344.467 50.9593 344.467 51.396ZM370.543 51.3287C370.363 51.6188 370.623 52.1932 371.121 52.6048C371.619 53.0165 372.161 53.2191 372.325 53.0558C372.489 52.892 372.454 52.3177 372.247 51.7791C372.039 51.2405 371.645 50.8002 371.37 50.8002C371.095 50.8002 370.723 51.0379 370.543 51.3287ZM323.121 51.7934C323.34 52.0114 323.7 52.0114 323.919 51.7934C324.138 51.5747 323.959 51.396 323.52 51.396C323.081 51.396 322.902 51.5747 323.121 51.7934ZM345.439 63.6326C345.234 64.1646 345.074 64.7795 345.083 64.9987C345.094 65.2174 345.387 64.9075 345.737 64.3094C346.087 63.7112 346.246 63.0964 346.092 62.9433C345.938 62.7896 345.644 63.1 345.439 63.6326ZM268.26 69.6666C268.04 69.8846 267.861 69.7059 267.861 69.2692C267.861 68.8325 268.04 68.6538 268.26 68.8718C268.479 69.0905 268.479 69.4479 268.26 69.6666ZM252.5 70.8581C252.719 71.0762 253.078 71.0762 253.298 70.8581C253.517 70.6395 253.337 70.4608 252.899 70.4608C252.46 70.4608 252.28 70.6395 252.5 70.8581ZM222.376 71.6523C221.837 71.999 221.762 72.2332 222.191 72.2391C222.583 72.2439 223.07 71.98 223.274 71.6523C223.477 71.3246 223.56 71.0607 223.459 71.0655C223.357 71.0708 222.87 71.3348 222.376 71.6523ZM220.58 72.2481C220.58 72.6848 220.76 72.8635 220.98 72.6454C221.199 72.4268 221.199 72.0693 220.98 71.8507C220.76 71.6326 220.58 71.8114 220.58 72.2481ZM263.472 73.2412C263.253 73.4593 263.073 73.2805 263.073 72.8438C263.073 72.4071 263.253 72.2284 263.472 72.4465C263.691 72.6651 263.691 73.0226 263.472 73.2412ZM267.063 76.2201C266.843 76.4381 266.664 76.2594 266.664 75.8227C266.664 75.386 266.843 75.2073 267.063 75.4253C267.282 75.644 267.282 76.0014 267.063 76.2201ZM266.474 78.9136C266.283 79.3884 266.141 79.2472 266.113 78.5531C266.087 77.9252 266.228 77.5737 266.427 77.7715C266.626 77.9693 266.647 78.4834 266.474 78.9136ZM265.876 81.8924C265.685 82.3673 265.543 82.2261 265.514 81.532C265.488 80.9041 265.63 80.5526 265.828 80.7503C266.027 80.9481 266.049 81.4623 265.876 81.8924ZM265.268 83.9651C265.048 84.1832 264.868 84.0045 264.868 83.5678C264.868 83.1311 265.048 82.9523 265.268 83.1704C265.487 83.389 265.487 83.7465 265.268 83.9651ZM260.128 88.0855C260.157 88.7796 260.298 88.9208 260.489 88.4459C260.662 88.0158 260.641 87.5016 260.442 87.3039C260.243 87.1061 260.102 87.4576 260.128 88.0855ZM258.931 88.6813C258.96 89.3754 259.101 89.5165 259.292 89.0417C259.465 88.6116 259.444 88.0974 259.245 87.8996C259.046 87.7018 258.905 88.0533 258.931 88.6813Z" fill="white"/>
<path fill-rule="evenodd" clip-rule="evenodd" d="M161.932 78.5114C163.096 78.8153 164.998 78.8153 166.161 78.5114C167.325 78.2087 166.373 77.9603 164.047 77.9603C161.721 77.9603 160.77 78.2087 161.932 78.5114ZM171.622 78.5162C172.798 78.8225 174.429 78.8021 175.247 78.4716C176.065 78.1412 175.103 77.8916 173.109 77.9157C171.116 77.9398 170.446 78.2099 171.622 78.5162ZM156.475 80.5495C156.871 81.1874 156.04 81.3828 154.567 80.9981C152.881 80.5579 152.244 80.775 152.765 81.6155C153.273 82.438 152.827 82.631 151.547 82.1401C150.435 81.7144 148.035 81.9267 146.213 82.6129C144.392 83.2979 140.087 85.7869 136.648 88.1434C132.761 90.8074 130.636 93.0541 131.031 94.0815C131.424 95.1054 130.392 96.2197 128.327 97.0036C125.9 97.9249 125.35 98.634 126.314 99.5964C127.278 100.559 128.182 100.381 129.618 98.9488C130.705 97.8634 132.158 96.9758 132.845 96.9758C133.534 96.9758 133.767 97.8357 133.362 98.8861C132.898 100.093 133.18 100.612 134.128 100.296C134.954 100.022 136.4 100.566 137.343 101.507C138.82 102.983 138.758 104.894 136.879 115.472C135.681 122.213 134.547 129.084 134.358 130.743C134.168 132.401 133.655 136.742 133.217 140.39C132.78 144.038 131.434 151.301 130.227 156.527C129.018 161.755 127.373 166.438 126.569 166.933C125.445 167.627 125.467 167.955 126.666 168.354C127.595 168.663 127.837 169.499 127.265 170.422C126.737 171.275 125.026 171.728 123.462 171.431C121.716 171.096 120.915 171.364 121.385 172.124C121.883 172.928 121.341 173.008 119.839 172.353C118.566 171.798 115.895 171.299 113.901 171.244C110.35 171.145 110.282 171.252 110.601 176.569C110.829 180.402 111.699 182.641 113.56 184.193C115.696 185.974 117.868 186.317 125.02 186.002C130.141 185.777 134.058 186.12 134.353 186.82C134.67 187.567 135.243 187.495 135.864 186.629C136.415 185.86 140.205 184.368 144.287 183.313C148.369 182.256 152.037 181.393 152.44 181.393C152.842 181.393 153.172 181.881 153.172 182.479C153.172 183.076 151.133 184.106 148.641 184.766C144.298 185.918 144.26 185.971 147.734 186.039C149.728 186.078 153.534 185.291 156.193 184.287C158.851 183.284 164.56 181.214 168.88 179.69C173.2 178.165 179.589 175.473 183.078 173.707C186.568 171.943 189.422 170.25 189.422 169.946C189.422 169.642 188.198 169.858 186.703 170.426C185.208 170.994 180.527 172.911 176.302 174.687C172.076 176.463 168.419 177.716 168.173 177.471C167.929 177.228 173.407 174.162 180.346 170.66C188.26 166.666 194.522 162.569 197.146 159.67C200.106 156.401 201.577 153.401 202.176 149.412C202.716 145.821 202.455 142.058 201.459 139.044C200.537 136.256 197.52 132.098 194.107 128.911C190.923 125.939 187.683 123.507 186.909 123.507C185.88 123.507 185.906 123.02 187.005 121.698C187.833 120.703 188.065 119.889 187.52 119.889C186.976 119.889 188.198 118.126 190.234 115.97C192.271 113.813 194.536 110.965 195.268 109.638C196.569 107.281 196.599 107.278 196.636 109.581C196.655 110.876 195.177 113.613 193.349 115.663C191.521 117.715 192.066 117.354 194.557 114.864C198.132 111.292 199.089 109.408 199.089 105.948C199.089 103.535 198.203 99.6977 197.119 97.4196C196.036 95.1416 192.953 91.4007 190.268 89.107C187.582 86.8132 182.623 83.9093 179.247 82.6563C175.872 81.4021 169.21 80.1624 164.443 79.8995C159.246 79.6124 156.057 79.8729 156.475 80.5495ZM178.547 80.0924C179.544 80.7352 180.903 81.261 181.568 81.261C182.232 81.261 181.96 80.7352 180.964 80.0924C179.967 79.4496 178.607 78.9239 177.943 78.9239C177.278 78.9239 177.55 79.4496 178.547 80.0924ZM183.38 81.8169C183.38 82.1486 184.468 83 185.797 83.7103C187.126 84.4206 188.214 84.7293 188.214 84.3977C188.214 84.0661 187.126 83.2146 185.797 82.5043C184.468 81.794 183.38 81.4853 183.38 81.8169ZM219.024 83.4088C218.548 84.5689 217.985 89.5893 217.773 94.5639C217.562 99.5385 217.047 107.903 216.629 113.151C216.211 118.4 215.355 125.393 214.728 128.691C214.101 131.991 213.627 135.294 213.673 136.032C213.72 136.771 214.225 136.29 214.797 134.964C215.369 133.637 215.874 133.275 215.921 134.159C215.967 135.044 214.9 140.09 213.548 145.373C212.197 150.655 209.999 157.744 208.664 161.124C207.328 164.505 204.094 169.7 201.474 172.67C198.854 175.639 196.984 178.508 197.316 179.045C197.648 179.582 197.367 180.361 196.691 180.778C196.016 181.194 195.464 182.317 195.464 183.273C195.464 184.229 196.279 185.011 197.276 185.011C198.273 185.011 199.089 185.532 199.089 186.17C199.089 186.808 200.244 188.403 201.656 189.716C204.028 191.921 204.444 191.961 207.094 190.228C208.672 189.195 209.981 188.82 210.002 189.394C210.023 189.969 210.703 189.606 211.513 188.589C212.322 187.572 216.112 185.176 219.932 183.266C223.753 181.356 226.88 179.339 226.88 178.783C226.88 178.228 227.908 177.775 229.163 177.775C230.418 177.775 232.73 176.701 234.298 175.387C236.504 173.542 236.792 172.763 235.568 171.955C234.37 171.164 234.767 170.401 237.208 168.804C239.527 167.287 240.062 166.329 239.117 165.386C238.396 164.666 234.513 164.167 230.491 164.278C223.564 164.469 223.196 164.336 223.549 161.78C223.753 160.297 224.307 158.469 224.779 157.718C225.252 156.967 227.273 149.668 229.273 141.497C231.272 133.327 233.455 122.288 234.123 116.966C234.791 111.644 235.33 102.12 235.321 95.8012C235.31 89.4832 234.903 83.7513 234.414 83.0639C233.926 82.3765 231.623 81.671 229.297 81.4962C225.813 81.2345 224.681 81.7735 222.87 84.5545L220.672 87.9311L221.382 84.6148C221.774 82.7914 221.598 81.2984 220.991 81.2984C220.384 81.2984 219.5 82.2487 219.024 83.4088ZM221.715 98.4616C221.445 100.629 221.219 99.1466 221.213 95.1669C221.206 91.1872 221.426 89.4133 221.703 91.2258C221.978 93.0384 221.983 96.2945 221.715 98.4616ZM182.539 98.1553C185.66 100.131 188.214 101.949 188.214 102.196C188.214 102.444 187.634 104.306 186.926 106.335C186.216 108.364 183.495 111.505 180.879 113.314C178.263 115.124 171.91 117.611 166.762 118.841C161.613 120.07 156.314 121.026 154.984 120.966C152.987 120.874 153.092 120.687 155.589 119.889L158.609 118.923L155.761 118.804C153.728 118.718 153.116 118.156 153.621 116.842C154.01 115.83 154.688 110.7 155.128 105.442C155.74 98.1239 156.382 95.7602 157.872 95.3622C158.942 95.0776 163.653 94.781 168.341 94.7038C175.854 94.5808 177.539 94.9896 182.539 98.1553ZM193.853 100.192C193.409 100.633 193.047 100.272 193.047 99.3878C193.047 98.5038 193.409 98.142 193.853 98.5834C194.295 99.026 194.295 99.7495 193.853 100.192ZM121.378 103.785C120.92 104.241 120.547 105.337 120.547 106.222C120.547 107.106 121.674 107.829 123.052 107.829C124.741 107.829 125.43 107.175 125.166 105.819C124.951 104.713 124.198 103.617 123.493 103.382C122.786 103.147 121.835 103.329 121.378 103.785ZM130.213 104.212C130.213 104.875 131.029 105.418 132.026 105.418C133.023 105.418 133.838 104.875 133.838 104.212C133.838 103.548 133.023 103.006 132.026 103.006C131.029 103.006 130.213 103.548 130.213 104.212ZM135.327 106.624C135.327 108.945 135.576 109.894 135.879 108.734C136.184 107.574 136.184 105.673 135.879 104.513C135.576 103.353 135.327 104.302 135.327 106.624ZM339.691 110.059C335.61 113.905 331.107 119.332 329.682 122.119C328.258 124.906 325.751 133.759 324.112 141.793C322.472 149.826 321.136 158.632 321.142 161.36C321.146 164.086 321.497 169.185 321.919 172.69C322.524 177.722 323.601 180.063 327.043 183.834C330.609 187.74 332.281 188.647 336.235 188.823C338.893 188.941 342.808 188.132 344.935 187.024C347.063 185.916 349.736 185.011 350.876 185.011C352.017 185.011 352.601 184.662 352.174 184.237C351.748 183.81 353.967 181.657 357.108 179.453C360.248 177.248 366.192 172.055 370.315 167.913C374.439 163.769 377.68 160.246 377.517 160.085C377.355 159.923 374.188 160.726 370.479 161.872C366.771 163.018 362.986 164.491 362.069 165.149C361.152 165.806 358.596 167.341 356.389 168.559C354.182 169.778 351.409 170.524 350.226 170.215C349.043 169.906 346.772 170.655 345.177 171.879C343.582 173.102 341.607 174.116 340.789 174.131C339.971 174.145 338.945 172.74 338.51 171.01C338.075 169.278 338.035 163.987 338.423 159.252C338.81 154.516 339.916 147.7 340.88 144.106C342.349 138.628 343.928 136.333 350.629 129.936C356.64 124.196 359.483 122.301 362.084 122.301C363.987 122.301 366.263 123.166 367.142 124.223C368.507 125.865 368.307 126.483 365.78 128.442C364.151 129.704 359.691 131.897 355.87 133.314C352.05 134.731 348.923 136.098 348.923 136.354C348.923 136.61 350.418 136.519 352.245 136.155C354.424 135.72 353.834 136.231 350.533 137.64C347.764 138.82 345.157 140.127 344.74 140.544C344.324 140.96 343.747 142.597 343.46 144.183C343.058 146.39 343.976 147.894 347.365 150.594C350.232 152.877 353.099 154.082 355.493 154.01C357.528 153.95 362.93 152.405 367.495 150.577C372.061 148.749 377.831 145.302 380.316 142.917C383.621 139.745 385.244 136.852 386.359 132.142C387.738 126.313 387.667 125.397 385.604 122.494C384.351 120.73 382.561 117.793 381.629 115.97C380.695 114.146 379.165 112.653 378.23 112.653C377.294 112.653 374.879 111.007 372.864 108.996C370.513 106.649 368.441 105.579 367.083 106.01C365.919 106.379 361.785 105.853 357.899 104.842C354.012 103.833 349.994 103.019 348.971 103.036C347.947 103.051 343.771 106.212 339.691 110.059ZM134.074 116.874C134.098 118.864 134.369 119.532 134.676 118.359C134.983 117.185 134.962 115.557 134.631 114.741C134.3 113.924 134.05 114.884 134.074 116.874ZM185.193 118.117C183.199 119.748 180.768 121.085 179.789 121.089C178.812 121.093 179.899 119.765 182.206 118.139C184.514 116.514 186.945 115.176 187.609 115.168C188.274 115.159 187.187 116.487 185.193 118.117ZM160.196 118.301C161.067 118.649 162.11 118.606 162.511 118.206C162.912 117.805 162.199 117.521 160.926 117.572C159.518 117.63 159.232 117.916 160.196 118.301ZM265.019 119.787C263.732 121.217 261.969 122.114 261.102 121.782C260.215 121.442 258.8 122.61 257.867 124.452C256.956 126.254 254.676 132.341 252.799 137.978C250.172 145.87 249.371 150.588 249.319 158.48C249.265 166.757 249.771 169.775 251.951 174.157C253.436 177.142 256.521 180.785 258.806 182.253C261.092 183.722 264.223 185.228 265.765 185.602C267.307 185.976 271.287 185.529 274.61 184.61C277.933 183.69 281.575 182.543 282.703 182.061C284.477 181.301 284.803 182.131 285.12 188.222C285.441 194.426 285.801 195.306 288.147 195.639C289.61 195.848 291.142 197.07 291.552 198.356C292.198 200.39 292.522 200.47 294.033 198.963C294.988 198.009 296.9 196.87 298.282 196.432C300.167 195.835 300.623 194.958 300.109 192.915C299.732 191.418 299.754 189.864 300.156 189.462C300.56 189.06 301.813 189.871 302.943 191.262C304.917 193.697 304.976 193.503 304.451 186.253C304.087 181.233 304.38 178.418 305.327 177.834C306.11 177.351 307.484 172.12 308.38 166.21C309.276 160.301 310.943 151.937 312.085 147.626C313.227 143.315 314.544 136.646 315.013 132.807C315.72 127.013 315.571 125.939 314.134 126.489C312.822 126.992 312.579 126.452 313.13 124.262C313.604 122.378 313.19 120.818 311.94 119.783C310.328 118.448 309.838 118.521 308.871 120.247C308.237 121.377 306.93 122.301 305.966 122.301C305.003 122.301 304.214 122.74 304.214 123.277C304.214 123.813 303.36 125.305 302.315 126.593C300.518 128.807 300.449 128.706 301.035 124.713L301.655 120.492L299.321 125.707C298.037 128.576 295.33 135.857 293.305 141.889C291.28 147.922 288.933 156.936 288.089 161.922C287.173 167.337 285.897 171.206 284.922 171.531C283.785 171.909 283.536 171.428 284.105 169.948C284.879 167.934 284.759 167.93 281.782 169.876C280.056 171.005 277.849 171.625 276.878 171.252C275.906 170.881 274.06 168.261 272.773 165.432C271.446 162.515 270.422 157.591 270.407 154.056C270.393 150.628 270.729 146.919 271.153 145.815C271.769 144.212 272.131 144.131 272.947 145.414C273.693 146.589 273.974 146.342 273.987 144.499C273.997 143.11 275.077 138.864 276.388 135.064C277.89 130.707 278.255 128.324 277.377 128.617C276.611 128.871 275.272 130.946 274.402 133.227L272.819 137.375L273.52 133.155C273.905 130.833 274.503 127.713 274.849 126.22C275.366 123.982 274.964 123.507 272.557 123.507C270.504 123.507 269.3 122.57 268.499 120.347L267.36 117.188L265.019 119.787ZM338.661 127.458C336.33 132.494 334.422 137.283 334.422 138.1C334.422 138.918 334.095 139.259 333.695 138.86C333.295 138.461 333.905 135.251 335.052 131.726C336.199 128.201 338.219 123.524 339.542 121.333C340.865 119.143 342.162 117.564 342.424 117.826C342.686 118.087 340.993 122.422 338.661 127.458ZM217.818 125.919C217.349 129.32 216.722 131.861 216.425 131.564C216.127 131.267 216.257 128.229 216.71 124.813C217.164 121.398 217.791 118.857 218.103 119.169C218.415 119.48 218.287 122.518 217.818 125.919ZM384.402 122.904C384.784 123.899 384.628 124.713 384.056 124.713C383.483 124.713 382.702 123.899 382.319 122.904C381.937 121.909 382.093 121.095 382.664 121.095C383.237 121.095 384.019 121.909 384.402 122.904ZM132.821 124.713C132.821 126.371 133.095 127.05 133.43 126.22C133.766 125.392 133.766 124.035 133.43 123.205C133.095 122.377 132.821 123.055 132.821 124.713ZM130.386 135.136C129.626 138.911 129.23 142.222 129.504 142.496C129.778 142.77 130.641 139.922 131.422 136.169C132.202 132.417 132.6 129.104 132.304 128.81C132.009 128.514 131.145 131.361 130.386 135.136ZM188.649 140.692C190.815 142.848 192.658 145.835 192.744 147.332C192.852 149.249 191.77 150.635 189.082 152.023C186.984 153.106 179.54 156.059 172.541 158.587C165.544 161.114 160.429 163.209 161.176 163.242C161.924 163.276 164.863 162.484 167.708 161.481C170.554 160.479 173.105 159.881 173.375 160.152C173.646 160.423 170.163 161.814 165.635 163.244C161.106 164.676 156.457 166.359 155.303 166.987C154.149 167.614 151.504 168.127 149.426 168.127C145.677 168.127 145.652 168.089 146.348 163.002C146.734 160.184 147.659 153.494 148.406 148.139L149.763 138.399L165.255 138.502C173.775 138.557 180.491 138.192 180.179 137.688C179.868 137.185 180.759 136.772 182.161 136.772C183.562 136.772 186.481 138.536 188.649 140.692ZM212.476 139.887C212.534 141.292 212.82 141.578 213.206 140.617C213.555 139.746 213.511 138.706 213.11 138.305C212.709 137.905 212.424 138.616 212.476 139.887ZM272.414 140.617C272.029 141.578 271.742 141.292 271.684 139.887C271.632 138.616 271.918 137.905 272.319 138.305C272.72 138.706 272.763 139.746 272.414 140.617ZM119.943 145.214C120.353 145.877 120.961 146.42 121.293 146.42C121.626 146.42 121.562 145.877 121.151 145.214C120.74 144.551 120.132 144.008 119.8 144.008C119.468 144.008 119.532 144.551 119.943 145.214ZM335.491 162.036C335.448 166.646 335.766 170.988 336.197 171.684C336.629 172.381 336.465 172.951 335.831 172.951C335.198 172.951 334.351 172.093 333.948 171.043C333.544 169.994 333.221 166.874 333.231 164.109C333.24 161.345 333.575 157.862 333.975 156.369C334.377 154.876 334.899 153.656 335.137 153.656C335.375 153.656 335.534 157.427 335.491 162.036ZM207.547 156.068C207.547 156.952 207.91 157.314 208.353 156.872C208.795 156.43 208.795 155.706 208.353 155.263C207.91 154.822 207.547 155.184 207.547 156.068ZM176.936 159.284C176.493 159.725 175.768 159.725 175.324 159.284C174.882 158.841 175.245 158.48 176.13 158.48C177.016 158.48 177.378 158.841 176.936 159.284ZM193.047 167.029C190.444 169.154 190.393 169.316 192.677 168.202C194.136 167.491 195.663 166.369 196.071 165.709C196.48 165.05 196.647 164.522 196.441 164.536C196.236 164.551 194.708 165.673 193.047 167.029ZM354.158 166.52C354.602 166.961 355.327 166.961 355.77 166.52C356.212 166.077 355.85 165.715 354.964 165.715C354.078 165.715 353.716 166.077 354.158 166.52ZM161.228 168.932C160.784 169.373 160.059 169.373 159.616 168.932C159.174 168.489 159.536 168.127 160.422 168.127C161.308 168.127 161.67 168.489 161.228 168.932ZM172.178 172.474C171.777 172.874 170.734 172.917 169.863 172.569C168.898 172.184 169.185 171.898 170.592 171.841C171.866 171.789 172.579 172.073 172.178 172.474ZM198.686 183.403C198.243 183.845 197.518 183.845 197.074 183.403C196.632 182.961 196.995 182.599 197.88 182.599C198.766 182.599 199.129 182.961 198.686 183.403ZM116.922 188.908C116.922 189.46 117.637 190.184 118.511 190.518C119.386 190.854 121.42 190.64 123.035 190.044C125.775 189.033 125.67 188.927 121.446 188.434C118.958 188.144 116.922 188.357 116.922 188.908ZM132.63 191.154C132.63 191.755 133.718 192.247 135.047 192.247C136.376 192.247 137.463 192.038 137.463 191.785C137.463 191.53 136.376 191.038 135.047 190.691C133.718 190.345 132.63 190.552 132.63 191.154Z" fill="white"/>
<path fill-rule="evenodd" clip-rule="evenodd" d="M76.7482 100.549C75.4653 101.933 74.4145 103.068 73.2556 103.068C70.4936 103.068 71.1074 107.976 71.7212 109.816C71.7831 110.002 71.873 110.299 71.9894 110.685C72.0888 111.014 72.2076 111.407 72.3447 111.849C72.4181 110.789 72.6486 109.743 73.0315 108.745C73.6159 107.222 74.5398 105.852 75.733 104.74C76.9263 103.627 78.3575 102.801 79.918 102.324C80.0546 101.578 80.4503 100.904 81.0353 100.421C81.6203 99.9376 82.3571 99.6764 83.1159 99.683C83.8747 99.6897 84.6067 99.9638 85.1832 100.457C85.7596 100.95 86.1434 101.631 86.2669 102.379C86.3904 103.128 86.2458 103.896 85.8585 104.548C85.4711 105.2 84.8659 105.695 84.1495 105.945C83.4331 106.195 82.6514 106.184 81.9422 105.914C81.2329 105.645 80.6416 105.134 80.2724 104.471C79.049 104.891 77.9364 105.582 77.0175 106.493C76.0986 107.403 75.3972 108.509 74.9656 109.728C74.534 110.947 74.3833 112.247 74.5248 113.533C74.6663 114.818 75.0963 116.055 75.7828 117.151C76.4693 118.247 77.3945 119.174 78.4894 119.863C79.5843 120.551 80.8206 120.984 82.1062 121.128C83.3917 121.273 84.6934 121.125 85.9139 120.697C87.1345 120.268 88.2425 119.57 89.1552 118.653C90.9374 117.112 92.0346 114.926 92.2057 112.577C92.2933 111.343 92.1352 110.105 91.7407 108.932C91.3461 107.76 90.7229 106.678 89.9071 105.749C90.8924 106.608 91.6978 107.654 92.2766 108.825C92.8555 109.997 93.1965 111.272 93.2798 112.577C93.3687 113.954 93.1828 115.335 92.7329 116.64C92.2829 117.945 91.578 119.148 90.659 120.178C89.5057 121.332 88.1045 122.208 86.5617 122.74C85.019 123.272 83.3754 123.445 81.7556 123.247C80.1358 123.049 78.5825 122.484 77.2135 121.597C76.7187 121.276 76.2526 120.916 75.8195 120.52C77.102 122.806 78.6253 124.54 80.3138 124.54C84.9171 124.54 90.748 124.54 92.8962 121.472C93.1034 121.177 93.3278 120.866 93.5627 120.542C95.7627 117.5 98.8859 113.182 97.4995 107.362C96.695 103.985 92.9867 100.614 92.3729 100.307C92.2141 100.227 92.0137 99.7425 91.7629 99.1357C91.3042 98.0256 90.6769 96.5078 89.8273 96.3191C87.6177 95.8283 85.2241 95.7056 84.3035 95.7056C80.7411 96.2397 78.5227 98.6339 76.7482 100.549ZM68.7427 113.19C68.5381 112.986 68.1289 112.761 68.1289 113.497C68.1289 114.233 68.7427 114.417 69.0496 114.417L69.6633 113.804L68.7427 113.19ZM71.1978 116.871C70.9523 116.871 71.3001 116.258 71.5047 115.951C71.6069 115.951 71.8729 116.012 72.1184 116.258C72.3639 116.503 72.0161 116.973 71.8115 117.178C71.7092 117.076 71.4433 116.871 71.1978 116.871ZM83.0758 116.871C85.4487 116.871 87.3722 114.949 87.3722 112.577C87.3722 110.205 85.4487 108.282 83.0758 108.282C80.703 108.282 78.7794 110.205 78.7794 112.577C78.7794 114.949 80.703 116.871 83.0758 116.871ZM83.6726 102.021C83.4959 101.904 83.2883 101.841 83.0758 101.841C82.791 101.841 82.5178 101.954 82.3163 102.155C82.1149 102.356 82.0017 102.629 82.0017 102.914C82.0017 103.126 82.0647 103.334 82.1827 103.511C82.3008 103.687 82.4685 103.825 82.6648 103.906C82.8611 103.987 83.077 104.009 83.2854 103.967C83.4937 103.926 83.6851 103.823 83.8353 103.673C83.9855 103.523 84.0878 103.332 84.1293 103.124C84.1707 102.915 84.1495 102.699 84.0682 102.503C83.9869 102.307 83.8492 102.139 83.6726 102.021Z" fill="#E59E9E"/>
<path d="M49.3795 107.3C49.1635 107.936 48.8035 108.62 48.3475 109.076C48.6115 109.232 49.0555 109.568 49.2715 109.748C49.7395 109.22 50.1955 108.368 50.4835 107.576L49.3795 107.3ZM52.2235 102.188C52.1035 102.632 51.8875 103.244 51.7075 103.676H50.2915L50.8675 103.52C50.8195 103.16 50.6635 102.596 50.4595 102.188H52.2235ZM54.0355 106.976V105.776H52.0555V104.852H54.2275V103.676H52.9795C53.1595 103.304 53.3275 102.836 53.5195 102.38L52.5355 102.188H54.0475V101.024H52.1515C52.0195 100.628 51.8155 100.16 51.6355 99.776L50.3635 100.076C50.4835 100.364 50.6155 100.7 50.7235 101.024H48.6715V102.188H50.2915L49.3075 102.428C49.4755 102.8 49.6075 103.304 49.6675 103.676H48.4915V104.852H50.7715V105.776H48.5635V106.976H50.7715V109.508C50.7715 109.64 50.7355 109.676 50.6035 109.676C50.4715 109.676 50.0995 109.676 49.7395 109.664C49.9075 110 50.0755 110.492 50.1235 110.828C50.7595 110.828 51.2395 110.816 51.5995 110.624C51.9595 110.42 52.0555 110.12 52.0555 109.544V106.976H54.0355ZM59.5795 103.784H55.8955V101.9C57.0715 101.684 58.3075 101.384 59.3035 101L58.1995 99.956C57.3355 100.364 55.8835 100.736 54.5635 100.976V105.188C54.5635 106.34 54.5275 107.696 54.1555 108.872C53.9515 108.428 53.5555 107.72 53.1955 107.18L52.2595 107.696C52.5955 108.248 53.0035 109.004 53.1955 109.496L54.1435 108.896C54.0235 109.316 53.8435 109.712 53.6155 110.048C53.9155 110.204 54.4795 110.648 54.7075 110.9C55.7395 109.4 55.8955 106.952 55.8955 105.188V105.104H57.0715V110.996H58.4635V105.104H59.5795V103.784Z" fill="#F0AA1F"/>
<path d="M52.1275 127.352V126.692H55.7635V127.352H52.1275ZM55.7635 125.648H52.1275V125.012H55.7635V125.648ZM55.3915 123.272C55.5115 123.476 55.6555 123.668 55.7995 123.86H52.2355C52.3915 123.668 52.5355 123.476 52.6555 123.272H55.3915ZM59.4355 123.272V122.048H53.3875C53.4835 121.856 53.5675 121.676 53.6395 121.484H58.4035V120.356H54.0715C54.1195 120.176 54.1675 120.008 54.2155 119.828H58.7635V118.628H54.4675C54.5155 118.412 54.5515 118.184 54.5755 117.98L53.0515 117.836C53.0275 118.088 52.9915 118.364 52.9435 118.628H49.1995V119.828H52.6795C52.6195 120.008 52.5835 120.176 52.5235 120.356H49.6435V121.484H52.0435C51.9355 121.676 51.8275 121.856 51.7195 122.048H48.5875V123.272H50.7955C50.1475 123.98 49.3435 124.604 48.3355 125.12C48.6715 125.348 49.1275 125.912 49.3075 126.284C49.7995 126.02 50.2315 125.732 50.6395 125.408V129.044H52.1275V128.54H55.7635V128.996H57.3355V125.408C57.7795 125.744 58.2355 126.032 58.7275 126.248C58.9315 125.888 59.3755 125.336 59.6995 125.072C58.6795 124.7 57.7075 124.04 56.9995 123.272H59.4355Z" fill="#F0AA1F"/>
<path d="M49.2955 141.704C49.5715 140.78 49.7875 139.376 49.8355 138.332L48.8155 138.2C48.7315 139.196 48.5155 140.528 48.2275 141.332L49.2955 141.704ZM52.8475 140.084C52.6915 139.496 52.2835 138.536 51.9115 137.816L51.2635 138.092V135.836H49.8475V147.032H51.2635V138.956C51.5035 139.532 51.7075 140.144 51.8035 140.576L52.8475 140.084ZM56.1595 138.968H57.3715V141.164H56.1235C56.1475 140.792 56.1595 140.432 56.1595 140.072V138.968ZM59.5195 142.52V141.164H58.7635V137.648H56.1595V135.836H54.7195V137.648H52.6555V138.968H54.7195V140.06C54.7195 140.42 54.7195 140.78 54.6835 141.164H52.1035V142.52H54.4915C54.1675 143.84 53.3995 145.112 51.5755 146C51.8875 146.264 52.3915 146.792 52.5835 147.104C54.2395 146.156 55.1515 144.896 55.6315 143.552C56.2915 145.16 57.2515 146.372 58.7515 147.08C58.9675 146.66 59.4235 146.036 59.7595 145.736C58.2595 145.172 57.2755 143.996 56.6875 142.52H59.5195Z" fill="#F0AA1F"/>
<path d="M50.6155 160.604C50.0755 161.6 49.1875 162.716 48.3715 163.424C48.7075 163.628 49.2955 164.072 49.5715 164.312C50.3515 163.496 51.3475 162.2 51.9955 161.072L50.6155 160.604ZM59.0995 159.908V158.468H54.9955V156.404H53.5195V158.468H50.8555C51.0235 157.7 51.1915 156.776 51.2755 155.9C53.8075 155.84 56.6155 155.636 58.6675 155.204L57.9475 153.92C55.8835 154.34 52.6795 154.568 49.8715 154.628C49.8715 156.044 49.5835 157.604 49.4995 158.012C49.3915 158.444 49.2715 158.708 49.0675 158.792C49.2355 159.152 49.4635 159.8 49.5355 160.1C49.6555 159.968 50.3515 159.908 51.0475 159.908H53.5195V163.304C53.5195 163.496 53.4355 163.544 53.2315 163.544C53.0035 163.544 52.2835 163.556 51.6235 163.532C51.8395 163.94 52.0435 164.576 52.1035 164.984C53.1115 164.996 53.8435 164.96 54.3355 164.732C54.8395 164.492 54.9955 164.108 54.9955 163.328V159.908H59.0995ZM56.1355 161.144C56.8915 162.128 57.8275 163.46 58.2235 164.288L59.5795 163.676C59.1355 162.836 58.1395 161.552 57.3835 160.616L56.1355 161.144Z" fill="#F0AA1F"/>
</svg>
