<svg width="456" height="210" viewBox="0 0 456 210" fill="none" xmlns="http://www.w3.org/2000/svg">
<path fill-rule="evenodd" clip-rule="evenodd" d="M12.8659 0.130688C12.2187 0.278492 11.6885 0.966219 11.6885 1.65935C11.6885 2.35315 11.994 3.10972 12.3674 3.34121C12.7408 3.57203 13.6181 3.57945 14.3165 3.35741C15.1844 3.0807 15.4764 2.5293 15.2389 1.61615C15.0472 0.880506 14.6993 0.185355 14.4665 0.0706209C14.2338 -0.0434379 13.5132 -0.0164416 12.8659 0.130688ZM5.29691 2.99971C5.06816 3.3709 5.20205 3.67461 5.59362 3.67461C5.98519 3.67461 6.30612 3.3709 6.30612 2.99971C6.30612 2.62851 6.1729 2.3248 6.00941 2.3248C5.84592 2.3248 5.52567 2.62851 5.29691 2.99971ZM17.3414 7.65992C15.8249 8.35102 14.3959 9.40725 14.1665 10.0072C13.937 10.6072 13.2858 11.0986 12.7186 11.0986C12.1521 11.0986 11.6885 11.5541 11.6885 12.1109C11.6885 12.6677 11.3858 13.1233 11.0157 13.1233C10.6457 13.1233 10.3429 12.8013 10.3429 12.4086C10.3429 12.0158 10.0139 11.8976 9.6116 12.1474C9.20926 12.3964 9.02962 13.1739 9.21195 13.8744C9.39495 14.575 9.27923 15.148 8.95561 15.148C8.632 15.148 8.54251 15.6076 8.75714 16.1691C8.97243 16.7306 8.78539 17.6283 8.34202 18.1641C7.89864 18.7 7.73111 19.4552 7.96996 19.8426C8.2088 20.23 9.327 20.5472 10.4546 20.5472C12.0007 20.5472 12.4098 20.7963 12.1178 21.5596C11.8392 22.2885 12.1884 22.5719 13.3645 22.5719C14.7626 22.5719 14.9779 22.8642 14.8574 24.5953C14.7794 25.7082 14.5177 26.6193 14.2748 26.62C14.0319 26.6207 13.5986 28.2155 13.312 30.1646C13.0254 32.1137 12.8572 34.1931 12.9373 34.7857C13.018 35.3783 12.6944 36.1625 12.218 36.5283C11.7417 36.8941 9.59747 37.6 7.4519 38.0968C5.307 38.5935 3.39692 39.2522 3.20719 39.56C3.01813 39.8677 3.71313 40.1525 4.75261 40.1937C6.15406 40.2484 5.87216 40.4191 3.66335 40.8537C2.0244 41.1764 0.410345 41.7143 0.0766349 42.049C-0.283987 42.4108 0.651882 42.4283 2.38368 42.0929C3.98562 41.7824 5.55661 41.5152 5.8735 41.499C6.19039 41.4828 6.28997 41.8877 6.09418 42.3993C5.8984 42.9109 6.05449 43.6465 6.44068 44.0339C6.82687 44.4213 7.63557 44.5597 8.23841 44.3417C8.84056 44.1237 8.57683 44.5927 7.65172 45.3844C6.09418 46.7167 6.06929 46.826 7.31532 46.8564C8.0554 46.8746 9.09556 47.1648 9.62707 47.5022C10.4277 48.0104 10.4418 48.2973 9.71252 49.1794C9.22877 49.7645 9.01348 50.243 9.23483 50.243C9.45618 50.243 9.33238 51.0462 8.96032 52.0275C8.58826 53.0095 7.96794 56.0911 7.58175 58.8757C7.19556 61.6611 7.08724 65.4527 7.34089 67.3019C7.73851 70.2 8.07021 70.7655 9.74548 71.3999C10.8139 71.8049 11.698 72.6006 11.7101 73.1689C11.7289 74.0948 11.8164 74.0941 12.5511 73.1655C13.0019 72.5952 13.9007 72.2375 14.548 72.3711C15.428 72.5527 15.7254 73.2822 15.7254 75.2638C15.7254 76.7216 16.0281 77.9141 16.3982 77.9141C16.7682 77.9141 17.071 76.8694 17.071 75.5918C17.071 74.3142 16.7682 73.0818 16.3982 72.8523C16.0281 72.6229 15.7254 71.6942 15.7254 70.7878C15.7254 69.8814 15.9716 69.1404 16.2723 69.1404C16.5731 69.1404 16.8193 67.3937 16.8207 65.2597C16.8213 62.9393 17.4134 59.7761 18.2921 57.3936C19.1008 55.2015 19.7622 53.303 19.7622 53.1755C19.7622 53.0473 19.4594 52.9426 19.0894 52.9426C18.7193 52.9426 18.4031 53.6263 18.3863 54.4612C18.3695 55.296 17.9106 56.8908 17.367 58.0044C16.8227 59.118 16.5388 59.4602 16.7352 58.7644C16.9317 58.0685 17.5776 55.3352 18.1696 52.6902C18.7624 50.0453 19.5401 47.5144 19.8988 47.0669C20.2574 46.6188 20.3684 45.9567 20.1457 45.595C19.9223 45.2332 20.0481 44.7466 20.4242 44.5131C20.8003 44.2802 21.1078 44.4328 21.1078 44.8519C21.1078 45.2933 21.5545 45.1671 22.1654 44.5543C22.8201 43.8976 23.8172 43.6425 24.7793 43.8841C25.7212 44.1216 27.4927 43.6937 29.2716 42.7995C30.887 41.9876 34.177 40.1039 36.5822 38.6131C39.8601 36.5816 41.6141 34.8876 43.5875 31.8485C45.0347 29.6193 46.5902 26.1921 47.0443 24.2336C47.6041 21.8167 47.6761 19.6348 47.2684 17.4433C46.9374 15.6677 46.0096 13.5127 45.2056 12.6542C44.4022 11.7964 43.4199 11.16 43.023 11.2396C42.626 11.3193 41.0275 10.5654 39.4706 9.5645C37.9144 8.56294 35.3409 7.44328 33.7518 7.07545C32.1633 6.70831 28.4413 6.40662 25.481 6.40527C21.6655 6.4046 19.2959 6.76972 17.3414 7.65992ZM92.036 8.27746C91.3457 9.08667 90.2248 9.74875 89.5453 9.74875C88.5112 9.74875 88.3443 10.2077 88.5179 12.5719C88.7002 15.0616 88.9606 15.4584 90.7213 15.9275C92.1127 16.2987 93.1845 16.1536 94.2536 15.451C95.3489 14.7309 95.7889 13.7908 95.7889 12.1703C95.7889 10.9204 95.2271 9.20275 94.5408 8.3517L93.2921 6.80549L92.036 8.27746ZM11.0157 9.78857C11.0157 10.1814 11.3185 10.3157 11.6885 10.0862C12.0586 9.85674 12.3613 9.53548 12.3613 9.37148C12.3613 9.20748 12.0586 9.07385 11.6885 9.07385C11.3185 9.07385 11.0157 9.39578 11.0157 9.78857ZM4.96051 12.4484C4.96051 12.8196 5.24511 13.1233 5.59362 13.1233C5.94213 13.1233 6.41377 12.8196 6.64252 12.4484C6.87127 12.0772 6.586 11.7735 6.00941 11.7735C5.43282 11.7735 4.96051 12.0772 4.96051 12.4484ZM5.36756 14.3577C5.17783 14.6661 5.60842 14.8747 6.32361 14.822C7.0388 14.7687 7.83203 14.517 8.08635 14.2618C8.34067 14.0067 7.91075 13.7982 7.13097 13.7982C6.35052 13.7982 5.55729 14.0499 5.36756 14.3577ZM103.863 14.4731C103.863 14.8443 104.165 15.148 104.535 15.148C104.905 15.148 105.208 14.8443 105.208 14.4731C105.208 14.1019 104.905 13.7982 104.535 13.7982C104.165 13.7982 103.863 14.1019 103.863 14.4731ZM11.4645 15.5981C11.2176 15.8452 11.0157 15.6427 11.0157 15.148C11.0157 14.6533 11.2176 14.4508 11.4645 14.6978C11.7107 14.9455 11.7107 15.3505 11.4645 15.5981ZM11.3521 17.1727C11.5809 17.5439 11.447 17.8476 11.0554 17.8476C10.6639 17.8476 10.3429 17.5439 10.3429 17.1727C10.3429 16.8015 10.4761 16.4978 10.6396 16.4978C10.8031 16.4978 11.1234 16.8015 11.3521 17.1727ZM37.5201 20.0235C37.8505 20.9495 37.9292 22.4741 37.6951 23.4108C37.4609 24.3476 36.4329 25.9883 35.4116 27.0574C34.3903 28.1264 32.7977 29.537 31.8726 30.193C30.4429 31.206 30.4174 31.2769 31.7044 30.6667C32.5367 30.2712 33.2182 30.1977 33.2182 30.5021C33.2182 30.8064 31.2442 32.0321 28.8322 33.2253C26.4202 34.4185 23.9712 35.3951 23.3906 35.3951C22.5281 35.3951 22.4157 34.8714 22.7777 32.5268C23.0212 30.9495 23.5615 28.5955 23.9786 27.2963C24.3958 25.9971 24.7685 24.6304 24.8062 24.2592C24.8439 23.888 25.1197 22.4505 25.4191 21.0649C25.8732 18.9619 26.3375 18.4422 28.2287 17.9178C29.4748 17.5729 31.0733 17.4427 31.7804 17.6276C32.4876 17.8132 33.2808 17.6175 33.5425 17.1916C33.891 16.6267 34.4091 16.6766 35.4688 17.3792C36.266 17.9077 37.1891 19.0975 37.5201 20.0235ZM84.3176 18.2256C83.6966 18.9767 83.6286 19.7961 84.0814 21.0871C84.43 22.082 85.1687 22.9836 85.7224 23.0909C86.2761 23.1976 87.2517 22.3992 87.8895 21.3153C89.0272 19.3837 89.0178 19.3243 87.397 18.2593C86.4881 17.6613 85.6195 17.1727 85.4668 17.1727C85.314 17.1727 84.7966 17.6465 84.3176 18.2256ZM145.075 18.4975C144.385 19.6057 144.414 19.7596 145.25 19.4377C145.8 19.2264 146.249 18.6298 146.249 18.1128C146.249 17.5959 146.17 17.1727 146.075 17.1727C145.979 17.1727 145.529 17.7686 145.075 18.4975ZM140.59 20.2854C139.289 21.7101 137.683 23.9467 137.022 25.2547C136.362 26.5633 135.118 28.8013 134.258 30.2281C133.399 31.6555 132.539 32.6665 132.349 32.4748C132.158 32.2831 132.784 30.7869 133.741 29.1489C135.026 26.9494 135.231 26.1712 134.527 26.1712C133.989 26.1712 132.479 28.5509 131.065 31.6271C129.685 34.6271 126.983 40.4232 125.061 44.5063C123.138 48.5895 120.946 52.6808 120.189 53.5987L118.814 55.267L119.085 47.862C119.235 43.7889 119.533 38.9384 119.749 37.0824C120.01 34.8329 119.916 33.9326 119.468 34.3828C119.097 34.754 118.649 35.6651 118.471 36.4075C118.293 37.1499 118.112 35.5733 118.069 32.904C118.026 30.2004 117.665 27.8483 117.255 27.5939C116.849 27.3428 115.74 27.5527 114.79 28.0603C113.431 28.7865 113.001 28.8033 112.779 28.1399C112.624 27.6762 112.115 27.2963 111.648 27.2963C111.181 27.2963 110.323 27.8274 109.743 28.4774C109.162 29.1266 108.466 30.8476 108.197 32.3007C107.928 33.7544 107.042 35.929 106.227 37.133C105.411 38.3377 103.714 41.391 102.454 43.9185C101.194 46.4467 99.8163 48.8925 99.3931 49.3548C98.7923 50.0115 98.5312 49.8685 98.1962 48.7002C97.9607 47.8782 97.6102 43.8652 97.4171 39.782C97.224 35.6988 96.9158 31.3713 96.7335 30.1646C96.5505 28.9579 96.1118 27.9712 95.7586 27.9712C95.4054 27.9712 95.1914 28.3329 95.2843 28.775C95.3765 29.2164 94.8786 29.703 94.1775 29.8555C93.0829 30.0931 92.9598 29.844 93.3076 28.0987C93.566 26.8049 93.3937 25.798 92.8346 25.333C92.18 24.7876 91.6464 24.9449 90.7382 25.9519C89.7236 27.0762 89.6502 27.5885 90.2995 29.0179C90.7287 29.9621 91.0793 30.8449 91.0793 30.9806C91.0793 31.1162 90.3627 31.1479 89.4867 31.0514C88.1903 30.909 87.9602 31.1277 88.2474 32.2291C88.5078 33.2287 88.3672 33.4372 87.7072 33.0276C87.0573 32.6253 86.9308 32.7805 87.2436 33.5972C87.5262 34.3355 87.3291 34.7202 86.6684 34.7202C86.116 34.7202 85.3685 35.4991 85.0072 36.4513C84.6466 37.4036 84.399 40.6682 84.4569 43.7066C84.5484 48.5018 84.615 48.7852 84.9615 45.8561L85.3604 42.4816L86.1604 48.2183C86.6004 51.3735 87.3122 55.5748 87.7422 57.5543C88.2071 59.6971 89.6529 62.8084 91.3154 65.2435C92.8508 67.4922 94.6532 69.6695 95.3199 70.0805C96.2794 70.671 96.6689 70.5894 97.1796 69.6904C97.6519 68.8576 98.4088 68.6463 100.003 68.9021C101.99 69.22 102.409 68.948 104.793 65.7982C106.23 63.8997 107.593 62.5337 107.821 62.7625C108.049 62.9913 108.245 63.3814 108.257 63.6284C108.269 63.8761 109.026 65.2138 109.939 66.6014C110.852 67.9883 112.092 69.1275 112.692 69.1323C113.294 69.1363 114.962 69.5568 116.399 70.0656C118.584 70.8391 119.151 70.8418 119.856 70.0852C120.442 69.4549 121.173 69.361 122.261 69.7754C123.119 70.1034 124.108 70.1703 124.456 69.9246C124.806 69.6789 126.083 68.1989 127.296 66.6365C128.508 65.0734 131.338 59.9104 133.586 55.1631C135.832 50.4151 137.671 45.7968 137.671 44.8998C137.671 44.0029 138.366 41.8769 139.216 40.1755C140.066 38.474 140.861 36.6268 140.982 36.07C141.104 35.5132 140.816 35.1366 140.343 35.2331C139.681 35.3675 139.703 35.055 140.435 33.8833C140.96 33.0444 141.788 31.1432 142.276 29.6584C142.763 28.1736 143.096 26.7226 143.016 26.4331C142.937 26.1442 143.464 24.6776 144.189 23.1746C144.921 21.6547 145.12 20.7618 144.638 21.1634C144.161 21.5603 143.604 21.7175 143.399 21.5123C143.195 21.3078 142.036 22.5247 140.825 24.2167C139.613 25.9093 138.494 27.166 138.338 27.0094C138.182 26.8535 139.32 24.8565 140.867 22.5719C142.413 20.2874 143.516 18.2552 143.318 18.0562C143.119 17.8571 141.891 18.86 140.59 20.2854ZM95.1161 21.8194C95.1161 22.7899 95.4263 23.0849 96.1536 22.8048C96.7248 22.5854 97.084 22.0826 96.9528 21.6871C96.8216 21.2923 96.3547 20.8489 95.9154 20.7018C95.4713 20.5533 95.1161 21.0507 95.1161 21.8194ZM89.0609 22.5719C89.0609 22.9431 89.515 23.2468 90.0701 23.2468C90.6251 23.2468 91.0793 22.9431 91.0793 22.5719C91.0793 22.2007 90.6251 21.897 90.0701 21.897C89.515 21.897 89.0609 22.2007 89.0609 22.5719ZM155.238 25.8445C152.966 27.9968 150.458 31.0339 149.665 32.5936C148.872 34.1533 147.476 39.1078 146.563 43.604C145.65 48.0995 144.906 53.0277 144.91 54.5543C144.912 56.0803 145.107 58.9338 145.342 60.895C145.679 63.7114 146.279 65.0214 148.196 67.1318C150.181 69.3179 151.112 69.8254 153.314 69.9239C154.794 69.9901 156.974 69.5372 158.158 68.917C159.343 68.2974 160.831 67.7905 161.466 67.7905C162.101 67.7905 162.426 67.5955 162.188 67.3573C161.951 67.1183 163.187 65.9136 164.936 64.6799C166.684 63.4462 169.994 60.54 172.289 58.2217C174.586 55.9028 176.39 53.9314 176.299 53.8409C176.209 53.7505 174.446 54.2 172.381 54.8412C170.316 55.4823 168.209 56.307 167.698 56.6749C167.187 57.0427 165.764 57.9018 164.535 58.5835C163.307 59.2658 161.763 59.6829 161.104 59.5101C160.445 59.3374 159.18 59.7565 158.292 60.4415C157.404 61.1259 156.305 61.6935 155.849 61.7016C155.394 61.7097 154.823 60.9234 154.58 59.9549C154.338 58.9857 154.316 56.0249 154.532 53.3746C154.747 50.7242 155.363 46.9097 155.9 44.8985C156.718 41.833 157.597 40.5487 161.328 36.9683C164.675 33.7558 166.258 32.6955 167.706 32.6955C168.766 32.6955 170.033 33.1794 170.522 33.7713C171.283 34.6898 171.171 35.0361 169.764 36.1321C168.857 36.8387 166.375 38.0657 164.247 38.8587C162.119 39.6517 160.378 40.4171 160.378 40.5602C160.378 40.7032 161.211 40.6526 162.228 40.4488C163.441 40.2052 163.113 40.4913 161.275 41.2796C159.733 41.9403 158.282 42.6719 158.049 42.9048C157.817 43.1376 157.496 44.0541 157.336 44.9416C157.113 46.1767 157.624 47.0183 159.511 48.5294C161.107 49.807 162.703 50.4813 164.037 50.4414C165.17 50.4077 168.177 49.5431 170.719 48.52C173.261 47.4968 176.474 45.568 177.858 44.233C179.698 42.458 180.602 40.8389 181.223 38.2027C181.99 34.9409 181.951 34.428 180.802 32.8035C180.105 31.8161 179.108 30.1734 178.589 29.1523C178.069 28.1311 177.217 27.2963 176.696 27.2963C176.175 27.2963 174.83 26.375 173.709 25.2493C172.4 23.9359 171.246 23.3373 170.49 23.5782C169.842 23.7847 167.54 23.4905 165.376 22.9249C163.212 22.36 160.975 21.9045 160.405 21.9139C159.835 21.9227 157.51 23.6916 155.238 25.8445ZM181.235 22.5719C181.235 22.9431 181.519 23.2468 181.868 23.2468C182.216 23.2468 182.688 22.9431 182.917 22.5719C183.146 22.2007 182.86 21.897 182.284 21.897C181.707 21.897 181.235 22.2007 181.235 22.5719ZM197.214 27.7545C196.567 27.928 196.037 28.3309 196.037 28.6501C196.037 28.9694 195.356 29.4458 194.523 29.7097C193.69 29.9736 192.61 30.7585 192.122 31.4537C191.634 32.1488 191.023 32.5868 190.765 32.4269C190.507 32.2669 189.95 32.869 189.529 33.7652C189.107 34.6615 189.018 35.3951 189.331 35.3951C189.643 35.3951 190.096 36.7139 190.337 38.3262C190.608 40.1384 190.327 43.5513 189.602 47.2687C188.957 50.5751 188.351 54.4949 188.256 55.9797C188.161 57.4645 187.883 59.5905 187.637 60.704C187.39 61.8176 186.934 63.3362 186.623 64.0786C186.311 64.821 185.908 66.1121 185.727 66.9476C185.545 67.7838 185.646 68.3129 185.95 68.1246C186.254 67.9363 186.618 68.13 186.759 68.5552C186.901 68.9797 188.288 65.8691 189.843 61.6415C191.398 57.4139 193.14 52.2846 193.715 50.243C194.291 48.2014 194.904 46.1079 195.078 45.5909C195.253 45.0739 195.545 44.7999 195.727 44.9835C195.909 45.1664 195.272 48.3222 194.31 51.9978C193.349 55.6726 191.83 60.7472 190.935 63.2754C190.04 65.8029 189.321 68.2326 189.335 68.6747C189.35 69.1161 189.814 68.6429 190.366 67.6218C190.918 66.6007 191.504 65.7658 191.668 65.7658C191.832 65.7658 191.679 66.5251 191.327 67.4531C190.916 68.5377 190.922 69.1404 191.344 69.1404C191.704 69.1404 192 68.8751 192 68.5512C192 68.2272 192.668 66.4812 193.485 64.6705C194.302 62.8604 194.996 61.2271 195.027 61.0415C195.059 60.8559 195.444 59.6411 195.884 58.3419C196.324 57.0427 196.794 55.3723 196.928 54.6299C197.063 53.8875 197.415 52.369 197.712 51.2554C198.008 50.1418 198.865 48.3506 199.615 47.2748C200.892 45.4445 201.011 45.4053 201.474 46.6606C201.853 47.6892 202.429 47.9349 203.939 47.7128C205.222 47.5238 206.316 46.7328 207.073 45.4465C207.714 44.3592 208.444 43.5986 208.698 43.7558C208.952 43.9131 210.066 42.7043 211.176 41.0697C212.836 38.6239 213.565 38.0974 215.295 38.0961C217.062 38.0947 217.459 37.791 217.776 36.1976C217.984 35.1542 217.897 33.1558 217.583 31.7574C217.268 30.3583 216.808 29.0105 216.56 28.7615C216.312 28.5124 215.453 28.2884 214.651 28.2641C213.849 28.2398 212.51 27.9914 211.676 27.7113C210.597 27.3503 209.648 27.606 208.389 28.5995C207.416 29.3676 206.225 29.9959 205.743 29.9959C205.261 29.9959 204.906 30.5277 204.954 31.177C205.002 31.8262 204.15 33.8766 203.062 35.7326L201.083 39.1071L200.878 35.5335C200.704 32.4998 200.435 31.8687 199.093 31.3565C198.224 31.0251 197.334 30.4636 197.115 30.1079C196.896 29.7529 197.208 29.2737 197.807 29.0429C198.407 28.8114 199.349 28.9977 199.9 29.4566C200.735 30.1518 200.859 30.0708 200.648 28.97C200.509 28.2432 199.943 27.602 199.393 27.544C198.842 27.4859 197.861 27.5811 197.214 27.7545ZM61.0131 29.1192C59.4259 29.6706 56.2281 31.9059 53.6903 34.239C50.1076 37.5325 49.2868 38.0407 49.6844 36.7193C49.9596 35.8055 51.1356 33.9771 52.2982 32.657C53.4602 31.3362 52.9832 31.7263 51.2379 33.5236C48.6671 36.1699 47.7265 37.845 46.2908 42.3358C44.666 47.4165 44.5496 48.5207 44.9014 55.5275C45.2136 61.7522 45.5561 63.6136 46.7443 65.5418C47.7158 67.1183 48.3704 67.6387 48.7028 67.0988C49.0681 66.5062 49.9946 66.7512 52.1435 68.0058C54.7681 69.5392 55.5196 69.6715 59.1292 69.2375C62.0404 68.8873 64.0467 68.1489 66.2845 66.6047C67.9954 65.4237 70.1867 63.5143 71.1542 62.3603C72.1217 61.2069 72.9136 59.9981 72.9136 59.6748C72.9136 59.3515 74.3709 57.3248 76.1518 55.1712C78.1897 52.7064 79.9794 49.5715 80.9812 46.7119C82.2447 43.1066 82.4216 41.8526 81.841 40.6378C81.438 39.7962 80.4799 37.7296 79.7116 36.0457C78.7764 33.9947 77.8681 32.9506 76.9598 32.8818C76.2144 32.8258 75.5927 33.1403 75.5772 33.581C75.5624 34.0217 74.6844 33.3677 73.6268 32.1279C72.5691 30.8874 70.8817 29.4445 69.8772 28.9221C68.8721 28.3991 67.1006 28.0096 65.9407 28.0562C64.7801 28.1028 62.5632 28.5813 61.0131 29.1192ZM86.3697 29.3608C86.3697 30.1248 86.659 30.5709 87.0128 30.3516C87.3667 30.1322 87.4858 29.5066 87.2773 28.9619C87.0694 28.4173 86.7794 27.9712 86.6341 27.9712C86.4887 27.9712 86.3697 28.5968 86.3697 29.3608ZM111.936 29.321C111.936 29.6922 111.633 29.9959 111.263 29.9959C110.893 29.9959 110.591 29.6922 110.591 29.321C110.591 28.9498 110.893 28.6461 111.263 28.6461C111.633 28.6461 111.936 28.9498 111.936 29.321ZM187.674 29.9196C187.471 30.2483 187.756 30.8928 188.307 31.3518C189.14 32.0462 189.308 31.9457 189.308 30.7531C189.308 29.9655 189.024 29.321 188.675 29.321C188.327 29.321 187.876 29.5903 187.674 29.9196ZM154.665 35.5814C153.367 38.3998 152.304 41.0798 152.304 41.5374C152.304 41.995 152.122 42.186 151.899 41.9626C151.677 41.7392 152.016 39.9426 152.655 37.9699C153.293 35.9971 154.418 33.3799 155.155 32.1536C155.892 30.9279 156.614 30.0445 156.76 30.1909C156.906 30.3374 155.963 32.763 154.665 35.5814ZM15.4159 32.2109C15.2779 32.6631 14.9826 33.8678 14.7592 34.8889C14.5365 35.9101 14.0992 36.7449 13.7877 36.7449C13.4755 36.7449 13.53 35.3904 13.9074 33.7349C14.2856 32.0786 14.8352 30.8739 15.1306 31.0568C15.4253 31.2391 15.5538 31.7587 15.4159 32.2109ZM195.181 31.0784C194.958 31.3025 194.377 31.3268 193.892 31.1318C193.355 30.9165 193.515 30.7565 194.299 30.7241C195.008 30.6951 195.405 30.8544 195.181 31.0784ZM180.133 33.033C180.345 33.5898 180.259 34.0453 179.94 34.0453C179.621 34.0453 179.186 33.5898 178.973 33.033C178.76 32.4762 178.847 32.0206 179.165 32.0206C179.484 32.0206 179.92 32.4762 180.133 33.033ZM216.669 35.8453C216.422 36.0923 216.221 35.8898 216.221 35.3951C216.221 34.9004 216.422 34.6979 216.669 34.945C216.916 35.1927 216.916 35.5976 216.669 35.8453ZM95.7889 36.7449C95.7889 37.1161 95.468 37.4198 95.0764 37.4198C94.6848 37.4198 94.5509 37.1161 94.7797 36.7449C95.0084 36.3737 95.3287 36.07 95.4922 36.07C95.6557 36.07 95.7889 36.3737 95.7889 36.7449ZM129.671 40.0985C129.021 41.2007 128.388 41.9991 128.262 41.8729C128.136 41.7466 128.396 40.845 128.839 39.8691C129.282 38.8932 129.916 38.0947 130.248 38.0947C130.58 38.0947 130.32 38.9964 129.671 40.0985ZM67.5655 39.6268C67.5285 39.894 67.3213 41.0029 67.1046 42.0908C66.8126 43.5561 66.4298 43.9617 65.6298 43.6539C64.8797 43.3644 65.0001 43.7228 66.0254 44.8269C67.0945 45.9776 67.3865 46.8968 67.0844 48.1609C66.855 49.1207 66.127 50.9895 65.4663 52.3136C64.805 53.6385 63.0308 55.84 61.523 57.2067C60.0146 58.5734 58.3414 59.6917 57.8038 59.6917C57.2238 59.6917 56.6513 58.7502 56.3936 57.3734C56.1554 56.0985 56.3162 53.9725 56.7515 52.6491C57.1875 51.3256 57.7816 50.243 58.0729 50.243C58.3636 50.243 59.1312 48.8534 59.7771 47.1553C60.4237 45.4573 62.1131 42.8447 63.5307 41.3498C64.9483 39.8542 66.4513 38.746 66.8705 38.8864C67.289 39.0261 67.6018 39.3595 67.5655 39.6268ZM89.5063 40.9631C89.3199 41.4274 89.1672 41.0474 89.1672 40.1195C89.1672 39.1915 89.3199 38.8122 89.5063 39.2758C89.6933 39.7402 89.6933 40.4994 89.5063 40.9631ZM183.77 41.881C183.092 43.3718 183.152 43.7747 184.152 44.509C184.802 44.9855 185.926 45.2211 186.648 45.0314C187.406 44.8323 187.963 44.1081 187.963 43.3212C187.963 42.57 187.433 41.5523 186.785 41.0589C186.138 40.5656 185.375 40.1525 185.089 40.1411C184.803 40.1289 184.21 40.9118 183.77 41.881ZM126.804 46.004C126.181 47.0764 126.104 47.0845 126.085 46.0802C126.074 45.4607 126.283 44.3977 126.549 43.718C126.992 42.5889 127.055 42.5822 127.268 43.6418C127.396 44.2796 127.187 45.3425 126.804 46.004ZM21.1078 46.8685C21.1078 47.3632 21.3096 47.5657 21.5565 47.3187C21.8028 47.071 21.8028 46.666 21.5565 46.4183C21.3096 46.1713 21.1078 46.3738 21.1078 46.8685ZM19.8638 49.3778C19.4897 50.079 19.4251 51.0455 19.7205 51.5247C20.0952 52.1328 20.3953 51.8432 20.7149 50.565C20.9672 49.558 21.0318 48.5922 20.8588 48.4181C20.6853 48.2446 20.2378 48.6766 19.8638 49.3778ZM85.0772 51.3114C85.1095 52.0977 85.2689 52.2576 85.4836 51.7197C85.678 51.2324 85.6538 50.65 85.4304 50.4259C85.207 50.2019 85.0483 50.6 85.0772 51.3114ZM152.899 54.9329C152.876 57.5131 153.052 59.9428 153.293 60.3322C153.533 60.7223 153.441 61.0415 153.089 61.0415C152.736 61.0415 152.265 60.561 152.04 59.9738C151.815 59.3866 151.636 57.6407 151.641 56.0931C151.646 54.5462 151.833 52.5964 152.055 51.7616C152.279 50.9267 152.569 50.243 152.702 50.243C152.834 50.243 152.923 52.3534 152.899 54.9329ZM187.29 56.9921C187.29 57.4868 187.492 57.6892 187.739 57.4422C187.985 57.1945 187.985 56.7896 187.739 56.5419C187.492 56.2949 187.29 56.4974 187.29 56.9921ZM163.293 57.4422C163.54 57.6892 163.944 57.6892 164.191 57.4422C164.437 57.1945 164.235 56.9921 163.742 56.9921C163.249 56.9921 163.047 57.1945 163.293 57.4422ZM17.7438 62.3913C17.7438 62.886 17.9456 63.0885 18.1925 62.8415C18.4388 62.5938 18.4388 62.1888 18.1925 61.9411C17.9456 61.6941 17.7438 61.8966 17.7438 62.3913ZM18.21 68.9838C17.5352 69.1343 17.0858 69.7295 17.2008 70.3221C17.3145 70.91 17.7599 71.5086 18.1912 71.6523C18.6224 71.7968 19.1802 71.267 19.4298 70.4767C19.6801 69.6857 19.7817 68.9656 19.6552 68.8765C19.5294 68.7867 18.8788 68.8353 18.21 68.9838ZM188.383 70.8539C188.152 71.4566 187.972 72.1531 187.983 72.4015C187.994 72.6492 188.325 72.2982 188.718 71.6206C189.111 70.943 189.29 70.2465 189.117 70.0731C188.944 69.8989 188.613 70.2506 188.383 70.8539Z" fill="white"/>
<path fill-rule="evenodd" clip-rule="evenodd" d="M241.17 4.46756C240.91 4.72478 241.058 5.36429 241.496 5.88869C241.936 6.41309 242.739 6.84227 243.281 6.84227C243.824 6.84227 244.269 6.58647 244.269 6.27382C244.269 5.96117 243.882 5.32166 243.409 4.85268C242.936 4.3837 242.345 4 242.095 4C241.845 4 241.429 4.21033 241.17 4.46756ZM415.284 5.53696C414.624 5.9029 414.084 6.85578 414.084 7.65446C414.084 8.48582 414.669 9.25892 415.45 9.46143C416.32 9.68668 416.982 10.6943 417.274 12.2369C417.633 14.1334 418.079 14.6585 419.331 14.6585C420.211 14.6585 421.663 14.1498 422.557 13.5287C423.452 12.907 424.131 11.8681 424.067 11.2194C424.003 10.5706 423.988 9.67033 424.033 9.21841C424.079 8.75725 424.745 8.55972 425.549 8.76792C426.649 9.05357 426.982 8.78995 426.982 7.63598C426.982 6.80817 426.679 6.13171 426.307 6.13171C425.936 6.13171 425.421 6.47207 425.162 6.88846C424.854 7.38231 424.206 7.21106 423.297 6.39533C422.531 5.70821 420.685 5.08362 419.194 5.0083C417.703 4.93298 415.943 5.1703 415.284 5.53696ZM283.677 7.90813C282.34 9.27597 281.025 10.3951 280.756 10.3951C280.486 10.3951 277.554 13.0335 274.241 16.2573C270.927 19.4812 266.517 23.2386 264.441 24.6065C262.364 25.9743 259.494 28.0527 258.062 29.2252C256.19 30.7586 255.596 30.9973 255.946 30.0764C256.289 29.1762 256.17 28.9445 255.546 29.2962C255.057 29.5712 254.134 30.2413 253.494 30.7842C252.445 31.6738 252.023 30.9384 249.261 23.3928C247.575 18.7848 245.562 13.7348 244.789 12.1715C244.017 10.6083 242.889 8.77005 242.283 8.08577C241.676 7.40149 240.586 6.84227 239.858 6.84227C238.91 6.84227 238.536 7.3681 238.536 8.70183C238.536 10.2111 238.806 10.491 239.969 10.1891C240.758 9.98512 241.402 10.0682 241.402 10.3745C241.402 10.6808 240.96 11.2961 240.419 11.7416C239.877 12.1872 238.91 12.352 238.269 12.1076C237.582 11.8461 237.103 12.023 237.103 12.5375C237.103 13.209 236.87 13.2189 236.092 12.5794C235.401 12.0102 234.934 11.9832 234.617 12.492C234.362 12.902 234.352 13.5571 234.595 13.948C234.839 14.3388 235.584 14.6685 236.25 14.6813C237.336 14.7012 237.324 14.807 236.136 15.6995C235.38 16.268 235.037 17.0595 235.338 17.5427C235.629 18.0089 235.959 19.5494 236.072 20.9655C236.185 22.3817 236.62 24.6385 237.037 25.9807C237.454 27.3223 237.639 28.575 237.449 28.7633C237.259 28.9523 237.103 28.6802 237.103 28.1593C237.103 27.6385 236.908 27.4047 236.671 27.6406C236.433 27.8765 237.434 31.6276 238.895 35.9756C240.356 40.3236 241.68 43.7535 241.837 43.5979C241.994 43.4422 241.476 41.4505 240.686 39.1731C239.896 36.8958 239.411 34.8714 239.609 34.6745C239.807 34.4784 240.062 34.4507 240.175 34.6134C240.288 34.7761 241.079 37.1118 241.933 39.8027L243.485 44.6957L240.252 48.8625C238.475 51.154 236.797 53.0299 236.524 53.0306C236.251 53.0314 235.082 54.5179 233.924 56.3348C232.767 58.151 231.074 60.4355 230.162 61.4111C229.251 62.3867 228.505 63.5911 228.505 64.0878C228.505 64.5845 228.163 65.1039 227.743 65.2425C227.324 65.381 226.889 66.3382 226.774 67.3706C226.613 68.8301 226.822 69.1591 227.715 68.85C228.463 68.5907 228.297 68.9985 227.235 70.0203C226.34 70.883 225.812 71.9176 226.062 72.319C226.37 72.8122 226.77 72.7987 227.296 72.2764C227.725 71.8515 228.43 71.504 228.863 71.504C229.341 71.504 229.548 72.5485 229.39 74.1686C229.223 75.8719 229.36 76.505 229.768 75.9237C230.281 75.1933 230.82 75.2274 232.502 76.0971C233.653 76.6926 234.999 77.1814 235.491 77.1843C235.984 77.1864 236.387 77.6042 236.387 78.1123C236.387 78.6203 235.983 79.4915 235.491 80.0472C234.999 80.6036 235.321 80.4586 236.208 79.7239C237.094 78.9898 237.82 77.9929 237.82 77.509C237.82 77.0244 238.813 75.5741 240.027 74.2852C241.24 72.9962 243.058 70.3245 244.064 68.3477C245.07 66.3709 246.661 63.8448 247.598 62.7342L249.302 60.7147L250.351 63.2039C250.928 64.5731 253.422 68.1999 255.894 71.2631C258.366 74.3271 261.034 77.3825 261.823 78.0533C262.611 78.7241 263.74 79.2584 264.331 79.2407C265.06 79.2186 265.117 79.0929 264.51 78.8499C264.018 78.6523 263.615 78.027 263.615 77.4593C263.615 76.6194 263.913 76.581 265.227 77.2525C266.113 77.7058 267.616 78.7561 268.567 79.5867C269.517 80.4174 270.076 80.7194 269.809 80.2575C269.542 79.7963 269.675 79.203 270.105 78.9394C270.534 78.6765 271.703 79.2137 272.701 80.1339L274.516 81.8072L272.988 79.0893L271.46 76.3707L273.001 76.856C273.975 77.1623 274.375 77.0734 274.089 76.6151C273.841 76.2158 273.989 75.7724 274.419 75.6303C274.85 75.4882 273.159 73.2691 270.662 70.6989C268.165 68.1288 264.917 63.9947 263.443 61.5113C261.97 59.0279 260.235 55.4153 259.588 53.4833L258.411 49.9709L266.208 42.4332C270.496 38.2871 275.455 33.6137 277.229 32.0476C279.002 30.4808 281.612 27.7664 283.029 26.0148C284.445 24.2633 286.002 22.0833 286.49 21.1702C286.978 20.2578 287.234 19.3703 287.061 19.1984C286.887 19.0264 285.547 20.3367 284.082 22.1095C282.617 23.8831 281.122 25.1522 280.76 24.9305C280.399 24.7088 278.892 25.4052 277.412 26.4767C275.265 28.0314 275.591 27.5191 279.02 23.9449C281.523 21.3365 282.96 19.3305 282.459 19.1458C281.919 18.9454 282.957 16.9302 285.251 13.7227C287.261 10.916 288.207 9.23121 287.356 9.98086C286.505 10.7298 285.006 11.4276 284.025 11.5313L282.243 11.7196L284.427 8.57038C285.629 6.83802 286.499 5.42114 286.36 5.42114C286.222 5.42114 285.014 6.54028 283.677 7.90813ZM428.603 10.5642C428.208 11.0574 427.483 12.6981 426.991 14.2109C426.5 15.723 425.886 16.6211 425.628 16.2061C425.37 15.7919 425.135 16.6332 425.105 18.0757C425.077 19.5181 424.695 21.5603 424.258 22.6141C423.657 24.0636 422.802 24.6406 420.744 24.9838C419.249 25.2332 416.413 26.2053 414.443 27.1446C412.472 28.0833 411.263 28.8557 411.756 28.8607C412.249 28.8656 412.651 29.1527 412.651 29.4973C412.651 29.8427 412.006 30.2925 411.217 30.4971C410.325 30.7287 409.53 30.4232 409.117 29.692C408.752 29.0447 407.705 28.4933 406.79 28.4677C405.876 28.4421 404.401 28.1806 403.512 27.8858C402.363 27.5056 401.352 27.7749 400.012 28.8209C398.976 29.6295 397.708 30.291 397.194 30.291C396.681 30.291 396.302 30.8503 396.353 31.5345C396.404 32.2188 395.498 34.3768 394.338 36.3309L392.23 39.8837L392.013 36.1212C391.828 32.9272 391.54 32.2629 390.112 31.7235C389.186 31.3747 388.238 30.7835 388.005 30.409C387.772 30.0352 388.104 29.5307 388.742 29.2877C389.382 29.044 390.384 29.2401 390.971 29.7233C391.861 30.4559 391.99 30.3699 391.747 29.2024C391.535 28.1792 390.934 27.8403 389.508 27.9391C388.434 28.013 387.054 28.5729 386.439 29.1825C385.824 29.7922 384.938 30.291 384.47 30.291C384.002 30.291 383.208 30.9426 382.706 31.7399C382.205 32.5364 381.557 33.0438 381.268 32.8661C380.979 32.6892 380.375 33.3159 379.926 34.2596C379.477 35.2032 379.382 35.9756 379.715 35.9756C380.047 35.9756 380.53 37.364 380.787 39.0616C381.075 40.9695 380.776 44.5628 380.004 48.4766C379.317 51.9577 378.672 56.0847 378.571 57.6479C378.47 59.2112 378.173 61.4495 377.911 62.6219C377.648 63.7943 377.163 65.3931 376.831 66.1747C376.499 66.9564 376.07 68.3157 375.877 69.1954C375.684 70.0758 375.791 70.6328 376.114 70.4346C376.438 70.2363 376.826 70.4403 376.976 70.8879C377.127 71.3349 378.604 68.0599 380.26 63.6089C381.916 59.1579 383.772 53.7576 384.384 51.6081C384.998 49.4586 385.651 47.2544 385.836 46.7101C386.022 46.1658 386.333 45.8774 386.527 46.0706C386.721 46.2632 386.042 49.5858 385.018 53.4556C383.994 57.3246 382.377 62.6674 381.424 65.3292C380.471 67.9902 379.704 70.5483 379.72 71.0137C379.736 71.4784 380.229 70.9796 380.818 69.9052C381.406 68.8308 382.029 67.9512 382.204 67.9512C382.379 67.9512 382.216 68.7506 381.841 69.7276C381.403 70.8695 381.409 71.504 381.859 71.504C382.243 71.504 382.557 71.2248 382.557 70.8837C382.557 70.5426 383.27 68.7044 384.139 66.7979C385.009 64.8922 385.749 63.1726 385.782 62.9772C385.815 62.7818 386.226 61.5028 386.695 60.1349C387.162 58.7671 387.663 57.0084 387.806 56.2268C387.949 55.4452 388.325 53.8464 388.641 52.6739C388.957 51.5015 389.869 49.6157 390.668 48.483C392.028 46.556 392.154 46.5147 392.647 47.8364C393.051 48.9193 393.665 49.1779 395.273 48.9442C396.638 48.7452 397.804 47.9124 398.61 46.5581C399.292 45.4134 400.071 44.6125 400.341 44.7781C400.611 44.9437 401.798 43.671 402.98 41.95C404.777 39.3316 405.508 38.8207 407.457 38.8193C409.121 38.8186 409.785 38.491 409.785 37.6717C409.785 36.7551 410.253 36.6194 412.114 36.9945C413.395 37.2525 415.521 37.6475 416.839 37.8714C418.986 38.2359 419.192 38.4718 418.826 40.1466C418.601 41.1748 417.892 44.8932 417.249 48.4105C416.563 52.1709 416.236 56.5281 416.457 58.9852C416.738 62.1174 417.369 63.8988 418.973 66.0909C420.273 67.8666 421.699 69.0248 422.6 69.0376C423.417 69.049 424.479 69.4483 424.96 69.9258C425.441 70.4026 426.502 70.7934 427.317 70.7934C428.132 70.7934 430.002 69.9827 431.473 68.9914C432.944 68.0002 434.147 67.0019 434.147 66.773C434.147 66.5435 433.744 66.6522 433.251 67.0146C432.759 67.377 431.469 68.0485 430.385 68.5075C429.302 68.9666 428.415 69.1044 428.415 68.8145C428.415 68.5239 429.946 67.5532 431.818 66.6572C433.691 65.7612 436.338 64.0871 437.702 62.9367C439.067 61.7863 439.864 60.8455 439.474 60.8455C439.084 60.8455 438.035 61.3528 437.141 61.9732C435.655 63.0056 435.366 63.0013 433.708 61.9241C432.055 60.8505 431.747 60.8455 430.181 61.8623C429.237 62.4755 428.144 62.9772 427.751 62.9772C427.359 62.9772 426.665 61.6179 426.21 59.9573C425.746 58.2604 425.554 54.8945 425.772 52.2746C425.985 49.7102 426.853 45.5533 427.702 43.0372C428.55 40.5211 429.461 38.2409 429.725 37.9702C429.99 37.6987 434.559 37.0741 439.879 36.5817C445.199 36.0886 448.956 35.5613 448.227 35.4093C447.078 35.1705 447.143 35.0099 448.717 34.2006C449.714 33.6876 451.448 33.0672 452.569 32.8228C453.692 32.5791 455.006 31.7491 455.49 30.9796C456.229 29.8064 456.186 29.5805 455.224 29.5805C454.594 29.5805 453.257 28.941 452.256 28.1593C451.253 27.3777 449.751 26.6927 448.918 26.6373C448.085 26.5819 448.692 26.2834 450.269 25.9743C452.963 25.4457 452.908 25.4244 449.352 25.6176C447.271 25.7306 445.398 25.5494 445.189 25.2147C444.981 24.8801 442.411 24.6065 439.479 24.6065C436.546 24.6065 434.147 24.4189 434.147 24.1901C434.147 23.9613 434.679 21.7919 435.331 19.3696C436.124 16.4158 436.339 14.0389 435.983 12.1559C435.485 9.52751 435.387 9.43513 434.441 10.7177C433.845 11.5263 433.43 11.7097 433.43 11.1654C433.43 10.6054 432.973 10.4171 432.265 10.6865C431.624 10.9309 430.699 10.8009 430.21 10.3987C429.59 9.88777 429.105 9.93751 428.603 10.5642ZM440.886 11.9264C440.568 12.4344 440.689 12.5538 441.201 12.239C441.656 11.9605 442.029 11.5917 442.029 11.419C442.029 11.2464 441.887 11.1057 441.713 11.1057C441.539 11.1057 441.167 11.4752 440.886 11.9264ZM452.299 11.5796C452.562 11.8397 452.992 11.8397 453.254 11.5796C453.517 11.3189 453.302 11.1057 452.777 11.1057C452.251 11.1057 452.036 11.3189 452.299 11.5796ZM425.605 13.6516C425.64 14.4795 425.81 14.6479 426.038 14.0815C426.245 13.5685 426.219 12.9553 425.981 12.7194C425.744 12.4835 425.575 12.9027 425.605 13.6516ZM408.809 15.0138C408.583 15.6 408.71 16.0797 409.091 16.0797C409.473 16.0797 409.785 15.6 409.785 15.0138C409.785 14.4276 409.658 13.948 409.504 13.948C409.349 13.948 409.036 14.4276 408.809 15.0138ZM271.537 21.9646L269.143 24.2512L271.189 21.6193C272.314 20.1718 273.392 19.1429 273.583 19.3326C273.774 19.5231 272.853 20.7069 271.537 21.9646ZM417.398 20.1356C417.173 20.3587 417.161 20.8163 417.37 21.1524C417.58 21.4892 418.216 21.7642 418.784 21.7642C419.352 21.7642 419.817 21.4786 419.817 21.1297C419.817 20.7808 419.364 20.3232 418.812 20.1128C418.26 19.9025 417.623 19.9132 417.398 20.1356ZM343.407 25.9203C340.987 28.1863 338.316 31.3839 337.472 33.026C336.627 34.6681 335.141 39.8844 334.168 44.6182C333.196 49.3513 332.404 54.5399 332.407 56.1472C332.41 57.7538 332.618 60.7581 332.868 62.823C333.227 65.7882 333.865 67.1674 335.907 69.3893C338.021 71.6909 339.013 72.2252 341.357 72.329C342.934 72.3986 345.255 71.9218 346.516 71.2688C347.778 70.6165 349.363 70.0829 350.039 70.0829C350.716 70.0829 351.062 69.8775 350.809 69.6267C350.556 69.3751 351.872 68.1068 353.735 66.8079C355.597 65.5089 359.121 62.4492 361.566 60.0084C364.012 57.5669 365.933 55.4913 365.837 55.3961C365.741 55.3009 363.863 55.7741 361.664 56.4492C359.465 57.1242 357.22 57.9925 356.677 58.3798C356.133 58.7671 354.617 59.6716 353.308 60.3893C352 61.1077 350.355 61.5468 349.654 61.3649C348.952 61.183 347.605 61.6243 346.66 62.3455C345.714 63.066 344.543 63.6636 344.058 63.6721C343.573 63.6806 342.964 62.8528 342.707 61.8332C342.449 60.8128 342.425 57.6955 342.655 54.9051C342.884 52.1147 343.54 48.0986 344.112 45.9811C344.983 42.7537 345.919 41.4015 349.893 37.6319C353.457 34.2496 355.143 33.1333 356.685 33.1333C357.814 33.1333 359.164 33.6428 359.685 34.2659C360.494 35.233 360.375 35.5976 358.877 36.7515C357.911 37.4955 355.266 38.7873 353.001 39.6222C350.735 40.4571 348.881 41.2629 348.881 41.4136C348.881 41.5642 349.768 41.5109 350.851 41.2963C352.143 41.0398 351.793 41.3411 349.836 42.171C348.194 42.8667 346.648 43.6369 346.401 43.8821C346.154 44.1272 345.812 45.0922 345.641 46.0266C345.404 47.3269 345.947 48.213 347.957 49.804C349.658 51.1491 351.357 51.8589 352.777 51.817C353.984 51.7815 357.187 50.8712 359.894 49.794C362.601 48.7168 366.023 46.686 367.497 45.2805C369.456 43.4117 370.419 41.707 371.08 38.9315C371.898 35.4974 371.855 34.9573 370.632 33.247C369.889 32.2074 368.828 30.4772 368.275 29.4028C367.721 28.3284 366.814 27.4488 366.259 27.4488C365.705 27.4488 364.272 26.4788 363.078 25.2936C361.684 23.9108 360.455 23.2806 359.649 23.5342C358.959 23.7517 356.508 23.4419 354.204 22.8464C351.899 22.2517 349.516 21.772 348.909 21.782C348.303 21.7912 345.826 23.6536 343.407 25.9203ZM371.093 22.4748C371.093 22.8656 371.396 23.1853 371.767 23.1853C372.138 23.1853 372.641 22.8656 372.884 22.4748C373.128 22.084 372.824 21.7642 372.21 21.7642C371.596 21.7642 371.093 22.084 371.093 22.4748ZM291.957 25.1586C291.673 25.4414 291.224 25.7157 290.962 25.7683C290.699 25.8208 289.781 26.0916 288.921 26.3708C288.062 26.6501 287.155 27.4061 286.905 28.0506C286.656 28.6958 286.157 33.3806 285.797 38.4619C285.436 43.5424 284.837 50.0981 284.465 53.0292C284.092 55.9603 283.094 62.0357 282.248 66.53C281.401 71.0244 280.568 76.6201 280.396 78.965C280.225 81.3099 279.916 84.987 279.711 87.1365C279.505 89.286 279.219 92.8033 279.076 94.9528C278.932 97.1022 277.974 102.439 276.947 106.812C275.919 111.186 275.079 116.392 275.079 118.382C275.079 120.935 275.394 122.119 276.149 122.406C276.738 122.631 277.011 123.15 276.756 123.56C276.5 123.97 276.592 124.121 276.961 123.895C277.33 123.668 277.713 122.42 277.811 121.12C277.91 119.821 278.312 117.571 278.704 116.122C279.096 114.673 279.726 113.298 280.103 113.067C280.51 112.817 280.656 113.6 280.461 114.991C280.281 116.28 280.954 113.978 281.956 109.875C282.959 105.771 284.446 100.104 285.26 97.2806C286.075 94.4575 286.98 92.2938 287.271 92.4729C287.563 92.652 288.044 91.7637 288.34 90.5004C288.637 89.2362 288.949 87.8826 289.035 87.4918C289.121 87.101 289.24 85.7232 289.301 84.43C289.36 83.1367 289.662 82.2329 289.97 82.4219C290.278 82.6109 291.459 78.5529 292.594 73.4041C293.729 68.2553 294.787 63.8022 294.944 63.508C295.1 63.2138 295.814 63.2842 296.529 63.6636C297.244 64.043 298.003 65.013 298.215 65.8195C298.516 66.9585 298.096 67.5056 296.335 68.2709C294.191 69.2025 294.166 69.2579 295.858 69.2835C296.843 69.2984 298.998 69.0511 300.647 68.7349C302.295 68.4187 304.875 68.369 306.379 68.6248C307.883 68.8813 310.376 68.8209 311.919 68.4912C313.91 68.0656 314.88 68.1416 315.262 68.7534C315.669 69.4078 316.221 69.341 317.556 68.4734C318.522 67.8453 320.807 65.3604 322.634 62.9509C324.53 60.449 326.469 56.8485 327.154 54.5562C327.815 52.3485 328.378 48.0872 328.408 45.0858C328.456 40.0677 328.302 39.4659 326.489 37.5864C325.406 36.4623 324.519 35.2913 324.519 34.9851C324.519 34.6781 323.794 33.8098 322.907 33.0551C322.02 32.3005 320.327 31.1593 319.145 30.5191C317.696 29.7347 315.314 29.3652 311.839 29.3865C308.045 29.4092 305.825 29.8285 303.439 30.9739C301.656 31.8301 299.865 32.3275 299.46 32.0795C299.055 31.8315 298.724 31.0265 298.724 30.291C298.724 29.5556 298.402 28.7562 298.008 28.5146C297.614 28.273 297.286 27.3749 297.28 26.5186C297.274 25.6624 297.033 25.2815 296.743 25.6723C296.454 26.0632 295.455 26.4888 294.526 26.6181C293.519 26.7588 293.017 26.5627 293.284 26.1342C293.53 25.7391 293.449 25.2417 293.104 25.03C292.758 24.8182 292.243 24.8765 291.957 25.1586ZM443.94 25.791C443.677 26.0511 443.247 26.0511 442.984 25.791C442.722 25.5302 442.937 25.3171 443.462 25.3171C443.987 25.3171 444.202 25.5302 443.94 25.791ZM377.95 30.2107C377.734 30.5568 378.038 31.2354 378.624 31.7186C379.512 32.4497 379.691 32.3439 379.691 31.0883C379.691 30.2591 379.388 29.5805 379.017 29.5805C378.646 29.5805 378.166 29.864 377.95 30.2107ZM342.796 36.1717C341.414 39.139 340.283 41.9607 340.283 42.4425C340.283 42.9242 340.088 43.1253 339.851 42.8901C339.614 42.6549 339.976 40.7634 340.656 38.6864C341.336 36.6094 342.534 33.8538 343.318 32.5627C344.103 31.2723 344.872 30.3422 345.027 30.4964C345.183 30.6506 344.179 33.2044 342.796 36.1717ZM385.946 31.4308C385.708 31.6667 385.09 31.6923 384.573 31.4869C384.001 31.2602 384.171 31.0918 385.006 31.0577C385.761 31.0272 386.184 31.1949 385.946 31.4308ZM369.919 33.4886C370.146 34.0748 370.053 34.5544 369.714 34.5544C369.375 34.5544 368.911 34.0748 368.684 33.4886C368.458 32.9024 368.55 32.4227 368.889 32.4227C369.229 32.4227 369.692 32.9024 369.919 33.4886ZM412.279 33.829C413.468 35.1314 413.474 35.2693 412.36 35.6935C411.698 35.945 411.049 36.0317 410.918 35.886C410.787 35.7397 410.457 34.9012 410.184 34.0215C409.911 33.1418 409.983 32.4227 410.343 32.4227C410.702 32.4227 411.574 33.0559 412.279 33.829ZM271.138 34.5544C270.894 34.9453 270.373 35.265 269.979 35.265C269.585 35.265 269.461 34.9453 269.705 34.5544C269.949 34.1636 270.47 33.8439 270.864 33.8439C271.258 33.8439 271.382 34.1636 271.138 34.5544ZM451.21 35.0398C451.726 35.2451 452.344 35.2195 452.582 34.9836C452.82 34.7477 452.398 34.58 451.642 34.6106C450.808 34.6447 450.638 34.8131 451.21 35.0398ZM408.83 36.4495C408.567 36.7096 408.352 36.4964 408.352 35.9756C408.352 35.4547 408.567 35.2416 408.83 35.5016C409.092 35.7624 409.092 36.1888 408.83 36.4495ZM312.551 39.8318C313.786 40.7598 313.775 40.995 312.304 45.5093C311.175 48.979 309.82 51.25 307.16 54.1363C305.174 56.2914 302.126 58.8808 300.388 59.8912C298.649 60.9016 297.111 61.6101 296.969 61.4644C296.828 61.3194 297.257 57.4241 297.925 52.8082C298.724 47.2864 299.497 44.1912 300.186 43.7591C301.099 43.1864 301.097 43.1019 300.17 43.0919C299.586 43.0862 300.261 42.3039 301.671 41.3546C303.08 40.4046 305.492 39.4993 307.032 39.3423C308.571 39.1852 310.153 39.0133 310.547 38.96C310.941 38.9067 311.843 39.2989 312.551 39.8318ZM266.484 41.302C265.559 42.2776 264.651 42.9249 264.466 42.7409C264.28 42.5569 264.899 41.7696 265.842 40.9908C266.785 40.2127 267.692 39.5654 267.859 39.5519C268.027 39.5391 267.407 40.3264 266.484 41.302ZM373.793 42.8041C373.071 44.3738 373.134 44.798 374.2 45.5711C374.892 46.0728 376.089 46.3207 376.858 46.1211C377.665 45.9115 378.258 45.149 378.258 44.3205C378.258 43.5296 377.694 42.4581 377.004 41.9387C376.314 41.4192 375.502 40.9844 375.198 40.9723C374.893 40.9595 374.261 41.7838 373.793 42.8041ZM428.512 50.187C428.448 50.7732 428.195 52.0522 427.949 53.0292C427.605 54.4013 427.701 54.623 428.373 54.0041C428.852 53.5629 429.106 52.2838 428.936 51.1618C428.767 50.0391 428.577 49.6007 428.512 50.187ZM340.916 56.5458C340.891 59.2623 341.079 61.8204 341.335 62.2304C341.591 62.6411 341.493 62.9772 341.118 62.9772C340.743 62.9772 340.24 62.4713 340.001 61.8531C339.762 61.2349 339.57 59.3966 339.576 57.7673C339.581 56.1387 339.78 54.0866 340.017 53.2069C340.255 52.3272 340.565 51.6081 340.706 51.6081C340.847 51.6081 340.942 53.83 340.916 56.5458ZM377.542 58.7138C377.542 59.2346 377.757 59.4478 378.02 59.1877C378.282 58.9269 378.282 58.5006 378.02 58.2398C377.757 57.9798 377.542 58.1929 377.542 58.7138ZM408.761 58.6335C408.545 58.9795 408.856 59.6645 409.452 60.1555C410.048 60.6465 410.697 60.8881 410.894 60.6934C411.091 60.498 411.048 59.813 410.801 59.1707C410.552 58.5283 410.08 58.0032 409.751 58.0032C409.422 58.0032 408.976 58.2867 408.761 58.6335ZM351.985 59.1877C352.248 59.4478 352.678 59.4478 352.941 59.1877C353.204 58.9269 352.989 58.7138 352.463 58.7138C351.938 58.7138 351.723 58.9269 351.985 59.1877ZM378.705 73.3081C378.46 73.9427 378.268 74.676 378.28 74.9375C378.292 75.1983 378.644 74.8287 379.062 74.1153C379.481 73.4019 379.672 72.6686 379.487 72.486C379.303 72.3027 378.95 72.6729 378.705 73.3081ZM286.305 80.5048C286.042 80.7648 285.827 80.5517 285.827 80.0308C285.827 79.51 286.042 79.2968 286.305 79.5569C286.567 79.8177 286.567 80.244 286.305 80.5048ZM267.436 81.9259C267.699 82.186 268.129 82.186 268.392 81.9259C268.654 81.6651 268.439 81.452 267.914 81.452C267.389 81.452 267.174 81.6651 267.436 81.9259ZM231.371 82.8731C230.726 83.2867 230.637 83.5659 231.15 83.573C231.619 83.5787 232.202 83.2639 232.446 82.8731C232.69 82.4823 232.789 82.1675 232.667 82.1732C232.545 82.1796 231.962 82.4944 231.371 82.8731ZM229.222 83.5837C229.222 84.1045 229.437 84.3177 229.699 84.0576C229.962 83.7968 229.962 83.3705 229.699 83.1097C229.437 82.8497 229.222 83.0628 229.222 83.5837ZM280.573 84.7682C280.31 85.0283 280.095 84.8151 280.095 84.2942C280.095 83.7734 280.31 83.5602 280.573 83.8203C280.835 84.0811 280.835 84.5074 280.573 84.7682ZM284.872 88.321C284.609 88.5811 284.394 88.3679 284.394 87.8471C284.394 87.3262 284.609 87.1131 284.872 87.3731C285.134 87.6339 285.134 88.0602 284.872 88.321ZM284.167 91.5335C283.938 92.0998 283.768 91.9314 283.734 91.1036C283.703 90.3547 283.872 89.9354 284.11 90.1713C284.348 90.4073 284.374 91.0205 284.167 91.5335ZM283.45 95.0863C283.222 95.6527 283.052 95.4843 283.017 94.6565C282.987 93.9075 283.156 93.4883 283.394 93.7242C283.631 93.9601 283.657 94.5733 283.45 95.0863ZM282.722 97.5584C282.459 97.8185 282.244 97.6053 282.244 97.0845C282.244 96.5636 282.459 96.3505 282.722 96.6105C282.984 96.8713 282.984 97.2976 282.722 97.5584ZM276.569 102.473C276.603 103.301 276.773 103.469 277.001 102.903C277.208 102.39 277.183 101.776 276.945 101.54C276.707 101.305 276.538 101.724 276.569 102.473ZM275.136 103.183C275.17 104.011 275.34 104.179 275.568 103.613C275.775 103.1 275.75 102.487 275.512 102.251C275.274 102.015 275.105 102.434 275.136 103.183Z" fill="white"/>
<path fill-rule="evenodd" clip-rule="evenodd" d="M181.932 88.5114C183.096 88.8153 184.998 88.8153 186.161 88.5114C187.325 88.2087 186.373 87.9603 184.047 87.9603C181.721 87.9603 180.77 88.2087 181.932 88.5114ZM191.622 88.5162C192.798 88.8225 194.429 88.8021 195.247 88.4716C196.065 88.1412 195.103 87.8916 193.109 87.9157C191.116 87.9398 190.446 88.2099 191.622 88.5162ZM176.475 90.5495C176.871 91.1874 176.04 91.3828 174.567 90.9981C172.881 90.5579 172.244 90.775 172.765 91.6155C173.273 92.438 172.827 92.631 171.547 92.1401C170.435 91.7144 168.035 91.9267 166.213 92.6129C164.392 93.2979 160.087 95.7869 156.648 98.1434C152.761 100.807 150.636 103.054 151.031 104.082C151.424 105.105 150.392 106.22 148.327 107.004C145.9 107.925 145.35 108.634 146.314 109.596C147.278 110.559 148.182 110.381 149.618 108.949C150.705 107.863 152.158 106.976 152.845 106.976C153.534 106.976 153.767 107.836 153.362 108.886C152.898 110.093 153.18 110.612 154.128 110.296C154.954 110.022 156.4 110.566 157.343 111.507C158.82 112.983 158.758 114.894 156.879 125.472C155.681 132.213 154.547 139.084 154.358 140.743C154.168 142.401 153.655 146.742 153.217 150.39C152.78 154.038 151.434 161.301 150.227 166.527C149.018 171.755 147.373 176.438 146.569 176.933C145.445 177.627 145.467 177.955 146.666 178.354C147.595 178.663 147.837 179.499 147.265 180.422C146.737 181.275 145.026 181.728 143.462 181.431C141.716 181.096 140.915 181.364 141.385 182.124C141.883 182.928 141.341 183.008 139.839 182.353C138.566 181.798 135.895 181.299 133.901 181.244C130.35 181.145 130.282 181.252 130.601 186.569C130.829 190.402 131.699 192.641 133.56 194.193C135.696 195.974 137.868 196.317 145.02 196.002C150.141 195.777 154.058 196.12 154.353 196.82C154.67 197.567 155.243 197.495 155.864 196.629C156.415 195.86 160.205 194.368 164.287 193.313C168.369 192.256 172.037 191.393 172.44 191.393C172.842 191.393 173.172 191.881 173.172 192.479C173.172 193.076 171.133 194.106 168.641 194.766C164.298 195.918 164.26 195.971 167.734 196.039C169.728 196.078 173.534 195.291 176.193 194.287C178.851 193.284 184.56 191.214 188.88 189.69C193.2 188.165 199.589 185.473 203.078 183.707C206.568 181.943 209.422 180.25 209.422 179.946C209.422 179.642 208.198 179.858 206.703 180.426C205.208 180.994 200.527 182.911 196.302 184.687C192.076 186.463 188.419 187.716 188.173 187.471C187.929 187.228 193.407 184.162 200.346 180.66C208.26 176.666 214.522 172.569 217.146 169.67C220.106 166.401 221.577 163.401 222.176 159.412C222.716 155.821 222.455 152.058 221.459 149.044C220.537 146.256 217.52 142.098 214.107 138.911C210.923 135.939 207.683 133.507 206.909 133.507C205.88 133.507 205.906 133.02 207.005 131.698C207.833 130.703 208.065 129.889 207.52 129.889C206.976 129.889 208.198 128.126 210.234 125.97C212.271 123.813 214.536 120.965 215.268 119.638C216.569 117.281 216.599 117.278 216.636 119.581C216.655 120.876 215.177 123.613 213.349 125.663C211.521 127.715 212.066 127.354 214.557 124.864C218.132 121.292 219.089 119.408 219.089 115.948C219.089 113.535 218.203 109.698 217.119 107.42C216.036 105.142 212.953 101.401 210.268 99.107C207.582 96.8132 202.623 93.9093 199.247 92.6563C195.872 91.4021 189.21 90.1624 184.443 89.8995C179.246 89.6124 176.057 89.8729 176.475 90.5495ZM198.547 90.0924C199.544 90.7352 200.903 91.261 201.568 91.261C202.232 91.261 201.96 90.7352 200.964 90.0924C199.967 89.4496 198.607 88.9239 197.943 88.9239C197.278 88.9239 197.55 89.4496 198.547 90.0924ZM203.38 91.8169C203.38 92.1486 204.468 93 205.797 93.7103C207.126 94.4206 208.214 94.7293 208.214 94.3977C208.214 94.0661 207.126 93.2146 205.797 92.5043C204.468 91.794 203.38 91.4853 203.38 91.8169ZM239.024 93.4088C238.548 94.5689 237.985 99.5893 237.773 104.564C237.562 109.538 237.047 117.903 236.629 123.151C236.211 128.4 235.355 135.393 234.728 138.691C234.101 141.991 233.627 145.294 233.673 146.032C233.72 146.771 234.225 146.29 234.797 144.964C235.369 143.637 235.874 143.275 235.921 144.159C235.967 145.044 234.9 150.09 233.548 155.373C232.197 160.655 229.999 167.744 228.664 171.124C227.328 174.505 224.094 179.7 221.474 182.67C218.854 185.639 216.984 188.508 217.316 189.045C217.648 189.582 217.367 190.361 216.691 190.778C216.016 191.194 215.464 192.317 215.464 193.273C215.464 194.229 216.279 195.011 217.276 195.011C218.273 195.011 219.089 195.532 219.089 196.17C219.089 196.808 220.244 198.403 221.656 199.716C224.028 201.921 224.444 201.961 227.094 200.228C228.672 199.195 229.981 198.82 230.002 199.394C230.023 199.969 230.703 199.606 231.513 198.589C232.322 197.572 236.112 195.176 239.932 193.266C243.753 191.356 246.88 189.339 246.88 188.783C246.88 188.228 247.908 187.775 249.163 187.775C250.418 187.775 252.73 186.701 254.298 185.387C256.504 183.542 256.792 182.763 255.568 181.955C254.37 181.164 254.767 180.401 257.208 178.804C259.527 177.287 260.062 176.329 259.117 175.386C258.396 174.666 254.513 174.167 250.491 174.278C243.564 174.469 243.196 174.336 243.549 171.78C243.753 170.297 244.307 168.469 244.779 167.718C245.252 166.967 247.273 159.668 249.273 151.497C251.272 143.327 253.455 132.288 254.123 126.966C254.791 121.644 255.33 112.12 255.321 105.801C255.31 99.4832 254.903 93.7513 254.414 93.0639C253.926 92.3765 251.623 91.671 249.297 91.4962C245.813 91.2345 244.681 91.7735 242.87 94.5545L240.672 97.9311L241.382 94.6148C241.774 92.7914 241.598 91.2984 240.991 91.2984C240.384 91.2984 239.5 92.2487 239.024 93.4088ZM241.715 108.462C241.445 110.629 241.219 109.147 241.213 105.167C241.206 101.187 241.426 99.4133 241.703 101.226C241.978 103.038 241.983 106.294 241.715 108.462ZM202.539 108.155C205.66 110.131 208.214 111.949 208.214 112.196C208.214 112.444 207.634 114.306 206.926 116.335C206.216 118.364 203.495 121.505 200.879 123.314C198.263 125.124 191.91 127.611 186.762 128.841C181.613 130.07 176.314 131.026 174.984 130.966C172.987 130.874 173.092 130.687 175.589 129.889L178.609 128.923L175.761 128.804C173.728 128.718 173.116 128.156 173.621 126.842C174.01 125.83 174.688 120.7 175.128 115.442C175.74 108.124 176.382 105.76 177.872 105.362C178.942 105.078 183.653 104.781 188.341 104.704C195.854 104.581 197.539 104.99 202.539 108.155ZM213.853 110.192C213.409 110.633 213.047 110.272 213.047 109.388C213.047 108.504 213.409 108.142 213.853 108.583C214.295 109.026 214.295 109.75 213.853 110.192ZM141.378 113.785C140.92 114.241 140.547 115.337 140.547 116.222C140.547 117.106 141.674 117.829 143.052 117.829C144.741 117.829 145.43 117.175 145.166 115.819C144.951 114.713 144.198 113.617 143.493 113.382C142.786 113.147 141.835 113.329 141.378 113.785ZM150.213 114.212C150.213 114.875 151.029 115.418 152.026 115.418C153.023 115.418 153.838 114.875 153.838 114.212C153.838 113.548 153.023 113.006 152.026 113.006C151.029 113.006 150.213 113.548 150.213 114.212ZM155.327 116.624C155.327 118.945 155.576 119.894 155.879 118.734C156.184 117.574 156.184 115.673 155.879 114.513C155.576 113.353 155.327 114.302 155.327 116.624ZM359.691 120.059C355.61 123.905 351.107 129.332 349.682 132.119C348.258 134.906 345.751 143.759 344.112 151.793C342.472 159.826 341.136 168.632 341.142 171.36C341.146 174.086 341.497 179.185 341.919 182.69C342.524 187.722 343.601 190.063 347.043 193.834C350.609 197.74 352.281 198.647 356.235 198.823C358.893 198.941 362.808 198.132 364.935 197.024C367.063 195.916 369.736 195.011 370.876 195.011C372.017 195.011 372.601 194.662 372.174 194.237C371.748 193.81 373.967 191.657 377.108 189.453C380.248 187.248 386.192 182.055 390.315 177.913C394.439 173.769 397.68 170.246 397.517 170.085C397.355 169.923 394.188 170.726 390.479 171.872C386.771 173.018 382.986 174.491 382.069 175.149C381.152 175.806 378.596 177.341 376.389 178.559C374.182 179.778 371.409 180.524 370.226 180.215C369.043 179.906 366.772 180.655 365.177 181.879C363.582 183.102 361.607 184.116 360.789 184.131C359.971 184.145 358.945 182.74 358.51 181.01C358.075 179.278 358.035 173.987 358.423 169.252C358.81 164.516 359.916 157.7 360.88 154.106C362.349 148.628 363.928 146.333 370.629 139.936C376.64 134.196 379.483 132.301 382.084 132.301C383.987 132.301 386.263 133.166 387.142 134.223C388.507 135.865 388.307 136.483 385.78 138.442C384.151 139.704 379.691 141.897 375.87 143.314C372.05 144.731 368.923 146.098 368.923 146.354C368.923 146.61 370.418 146.519 372.245 146.155C374.424 145.72 373.834 146.231 370.533 147.64C367.764 148.82 365.157 150.127 364.74 150.544C364.324 150.96 363.747 152.597 363.46 154.183C363.058 156.39 363.976 157.894 367.365 160.594C370.232 162.877 373.099 164.082 375.493 164.01C377.528 163.95 382.93 162.405 387.495 160.577C392.061 158.749 397.831 155.302 400.316 152.917C403.621 149.745 405.244 146.852 406.359 142.142C407.738 136.313 407.667 135.397 405.604 132.494C404.351 130.73 402.561 127.793 401.629 125.97C400.695 124.146 399.165 122.653 398.23 122.653C397.294 122.653 394.879 121.007 392.864 118.996C390.513 116.649 388.441 115.579 387.083 116.01C385.919 116.379 381.785 115.853 377.899 114.842C374.012 113.833 369.994 113.019 368.971 113.036C367.947 113.051 363.771 116.212 359.691 120.059ZM154.074 126.874C154.098 128.864 154.369 129.532 154.676 128.359C154.983 127.185 154.962 125.557 154.631 124.741C154.3 123.924 154.05 124.884 154.074 126.874ZM205.193 128.117C203.199 129.748 200.768 131.085 199.789 131.089C198.812 131.093 199.899 129.765 202.206 128.139C204.514 126.514 206.945 125.176 207.609 125.168C208.274 125.159 207.187 126.487 205.193 128.117ZM180.196 128.301C181.067 128.649 182.11 128.606 182.511 128.206C182.912 127.805 182.199 127.521 180.926 127.572C179.518 127.63 179.232 127.916 180.196 128.301ZM285.019 129.787C283.732 131.217 281.969 132.114 281.102 131.782C280.215 131.442 278.8 132.61 277.867 134.452C276.956 136.254 274.676 142.341 272.799 147.978C270.172 155.87 269.371 160.588 269.319 168.48C269.265 176.757 269.771 179.775 271.951 184.157C273.436 187.142 276.521 190.785 278.806 192.253C281.092 193.722 284.223 195.228 285.765 195.602C287.307 195.976 291.287 195.529 294.61 194.61C297.933 193.69 301.575 192.543 302.703 192.061C304.477 191.301 304.803 192.131 305.12 198.222C305.441 204.426 305.801 205.306 308.147 205.639C309.61 205.848 311.142 207.07 311.552 208.356C312.198 210.39 312.522 210.47 314.033 208.963C314.988 208.009 316.9 206.87 318.282 206.432C320.167 205.835 320.623 204.958 320.109 202.915C319.732 201.418 319.754 199.864 320.156 199.462C320.56 199.06 321.813 199.871 322.943 201.262C324.917 203.697 324.976 203.503 324.451 196.253C324.087 191.233 324.38 188.418 325.327 187.834C326.11 187.351 327.484 182.12 328.38 176.21C329.276 170.301 330.943 161.937 332.085 157.626C333.227 153.315 334.544 146.646 335.013 142.807C335.72 137.013 335.571 135.939 334.134 136.489C332.822 136.992 332.579 136.452 333.13 134.262C333.604 132.378 333.19 130.818 331.94 129.783C330.328 128.448 329.838 128.521 328.871 130.247C328.237 131.377 326.93 132.301 325.966 132.301C325.003 132.301 324.214 132.74 324.214 133.277C324.214 133.813 323.36 135.305 322.315 136.593C320.518 138.807 320.449 138.706 321.035 134.713L321.655 130.492L319.321 135.707C318.037 138.576 315.33 145.857 313.305 151.889C311.28 157.922 308.933 166.936 308.089 171.922C307.173 177.337 305.897 181.206 304.922 181.531C303.785 181.909 303.536 181.428 304.105 179.948C304.879 177.934 304.759 177.93 301.782 179.876C300.056 181.005 297.849 181.625 296.878 181.252C295.906 180.881 294.06 178.261 292.773 175.432C291.446 172.515 290.422 167.591 290.407 164.056C290.393 160.628 290.729 156.919 291.153 155.815C291.769 154.212 292.131 154.131 292.947 155.414C293.693 156.589 293.974 156.342 293.987 154.499C293.997 153.11 295.077 148.864 296.388 145.064C297.89 140.707 298.255 138.324 297.377 138.617C296.611 138.871 295.272 140.946 294.402 143.227L292.819 147.375L293.52 143.155C293.905 140.833 294.503 137.713 294.849 136.22C295.366 133.982 294.964 133.507 292.557 133.507C290.504 133.507 289.3 132.57 288.499 130.347L287.36 127.188L285.019 129.787ZM358.661 137.458C356.33 142.494 354.422 147.283 354.422 148.1C354.422 148.918 354.095 149.259 353.695 148.86C353.295 148.461 353.905 145.251 355.052 141.726C356.199 138.201 358.219 133.524 359.542 131.333C360.865 129.143 362.162 127.564 362.424 127.826C362.686 128.087 360.993 132.422 358.661 137.458ZM237.818 135.919C237.349 139.32 236.722 141.861 236.425 141.564C236.127 141.267 236.257 138.229 236.71 134.813C237.164 131.398 237.791 128.857 238.103 129.169C238.415 129.48 238.287 132.518 237.818 135.919ZM404.402 132.904C404.784 133.899 404.628 134.713 404.056 134.713C403.483 134.713 402.702 133.899 402.319 132.904C401.937 131.909 402.093 131.095 402.664 131.095C403.237 131.095 404.019 131.909 404.402 132.904ZM152.821 134.713C152.821 136.371 153.095 137.05 153.43 136.22C153.766 135.392 153.766 134.035 153.43 133.205C153.095 132.377 152.821 133.055 152.821 134.713ZM150.386 145.136C149.626 148.911 149.23 152.222 149.504 152.496C149.778 152.77 150.641 149.922 151.422 146.169C152.202 142.417 152.6 139.104 152.304 138.81C152.009 138.514 151.145 141.361 150.386 145.136ZM208.649 150.692C210.815 152.848 212.658 155.835 212.744 157.332C212.852 159.249 211.77 160.635 209.082 162.023C206.984 163.106 199.54 166.059 192.541 168.587C185.544 171.114 180.429 173.209 181.176 173.242C181.924 173.276 184.863 172.484 187.708 171.481C190.554 170.479 193.105 169.881 193.375 170.152C193.646 170.423 190.163 171.814 185.635 173.244C181.106 174.676 176.457 176.359 175.303 176.987C174.149 177.614 171.504 178.127 169.426 178.127C165.677 178.127 165.652 178.089 166.348 173.002C166.734 170.184 167.659 163.494 168.406 158.139L169.763 148.399L185.255 148.502C193.775 148.557 200.491 148.192 200.179 147.688C199.868 147.185 200.759 146.772 202.161 146.772C203.562 146.772 206.481 148.536 208.649 150.692ZM232.476 149.887C232.534 151.292 232.82 151.578 233.206 150.617C233.555 149.746 233.511 148.706 233.11 148.305C232.709 147.905 232.424 148.616 232.476 149.887ZM292.414 150.617C292.029 151.578 291.742 151.292 291.684 149.887C291.632 148.616 291.918 147.905 292.319 148.305C292.72 148.706 292.763 149.746 292.414 150.617ZM139.943 155.214C140.353 155.877 140.961 156.42 141.293 156.42C141.626 156.42 141.562 155.877 141.151 155.214C140.74 154.551 140.132 154.008 139.8 154.008C139.468 154.008 139.532 154.551 139.943 155.214ZM355.491 172.036C355.448 176.646 355.766 180.988 356.197 181.684C356.629 182.381 356.465 182.951 355.831 182.951C355.198 182.951 354.351 182.093 353.948 181.043C353.544 179.994 353.221 176.874 353.231 174.109C353.24 171.345 353.575 167.862 353.975 166.369C354.377 164.876 354.899 163.656 355.137 163.656C355.375 163.656 355.534 167.427 355.491 172.036ZM227.547 166.068C227.547 166.952 227.91 167.314 228.353 166.872C228.795 166.43 228.795 165.706 228.353 165.263C227.91 164.822 227.547 165.184 227.547 166.068ZM196.936 169.284C196.493 169.725 195.768 169.725 195.324 169.284C194.882 168.841 195.245 168.48 196.13 168.48C197.016 168.48 197.378 168.841 196.936 169.284ZM213.047 177.029C210.444 179.154 210.393 179.316 212.677 178.202C214.136 177.491 215.663 176.369 216.071 175.709C216.48 175.05 216.647 174.522 216.441 174.536C216.236 174.551 214.708 175.673 213.047 177.029ZM374.158 176.52C374.602 176.961 375.327 176.961 375.77 176.52C376.212 176.077 375.85 175.715 374.964 175.715C374.078 175.715 373.716 176.077 374.158 176.52ZM181.228 178.932C180.784 179.373 180.059 179.373 179.616 178.932C179.174 178.489 179.536 178.127 180.422 178.127C181.308 178.127 181.67 178.489 181.228 178.932ZM192.178 182.474C191.777 182.874 190.734 182.917 189.863 182.569C188.898 182.184 189.185 181.898 190.592 181.841C191.866 181.789 192.579 182.073 192.178 182.474ZM218.686 193.403C218.243 193.845 217.518 193.845 217.074 193.403C216.632 192.961 216.995 192.599 217.88 192.599C218.766 192.599 219.129 192.961 218.686 193.403ZM136.922 198.908C136.922 199.46 137.637 200.184 138.511 200.518C139.386 200.854 141.42 200.64 143.035 200.044C145.775 199.033 145.67 198.927 141.446 198.434C138.958 198.144 136.922 198.357 136.922 198.908ZM152.63 201.154C152.63 201.755 153.718 202.247 155.047 202.247C156.376 202.247 157.463 202.038 157.463 201.785C157.463 201.53 156.376 201.038 155.047 200.691C153.718 200.345 152.63 200.552 152.63 201.154Z" fill="white"/>
<path fill-rule="evenodd" clip-rule="evenodd" d="M96.7482 110.549C95.4653 111.933 94.4145 113.068 93.2556 113.068C90.4936 113.068 91.1074 117.976 91.7212 119.816C91.7831 120.002 91.873 120.299 91.9894 120.685C92.0888 121.014 92.2076 121.407 92.3447 121.849C92.4181 120.789 92.6486 119.743 93.0315 118.745C93.6159 117.222 94.5398 115.852 95.733 114.74C96.9263 113.627 98.3575 112.801 99.918 112.324C100.055 111.578 100.45 110.904 101.035 110.421C101.62 109.938 102.357 109.676 103.116 109.683C103.875 109.69 104.607 109.964 105.183 110.457C105.76 110.95 106.143 111.631 106.267 112.379C106.39 113.128 106.246 113.896 105.858 114.548C105.471 115.2 104.866 115.695 104.15 115.945C103.433 116.195 102.651 116.184 101.942 115.914C101.233 115.645 100.642 115.134 100.272 114.471C99.049 114.891 97.9364 115.582 97.0175 116.493C96.0986 117.403 95.3972 118.509 94.9656 119.728C94.534 120.947 94.3833 122.247 94.5248 123.533C94.6663 124.818 95.0963 126.055 95.7828 127.151C96.4693 128.247 97.3945 129.174 98.4894 129.863C99.5843 130.551 100.821 130.984 102.106 131.128C103.392 131.273 104.693 131.125 105.914 130.697C107.134 130.268 108.242 129.57 109.155 128.653C110.937 127.112 112.035 124.926 112.206 122.577C112.293 121.343 112.135 120.105 111.741 118.932C111.346 117.76 110.723 116.678 109.907 115.749C110.892 116.608 111.698 117.654 112.277 118.825C112.856 119.997 113.196 121.272 113.28 122.577C113.369 123.954 113.183 125.335 112.733 126.64C112.283 127.945 111.578 129.148 110.659 130.178C109.506 131.332 108.104 132.208 106.562 132.74C105.019 133.272 103.375 133.445 101.756 133.247C100.136 133.049 98.5825 132.484 97.2135 131.597C96.7187 131.276 96.2526 130.916 95.8195 130.52C97.102 132.806 98.6253 134.54 100.314 134.54C104.917 134.54 110.748 134.54 112.896 131.472C113.103 131.177 113.328 130.866 113.563 130.542C115.763 127.5 118.886 123.182 117.499 117.362C116.695 113.985 112.987 110.614 112.373 110.307C112.214 110.227 112.014 109.742 111.763 109.136C111.304 108.026 110.677 106.508 109.827 106.319C107.618 105.828 105.224 105.706 104.304 105.706C100.741 106.24 98.5227 108.634 96.7482 110.549ZM88.7427 123.19C88.5381 122.986 88.1289 122.761 88.1289 123.497C88.1289 124.233 88.7427 124.417 89.0496 124.417L89.6633 123.804L88.7427 123.19ZM91.1978 126.871C90.9523 126.871 91.3001 126.258 91.5047 125.951C91.6069 125.951 91.8729 126.012 92.1184 126.258C92.3639 126.503 92.0161 126.973 91.8115 127.178C91.7092 127.076 91.4433 126.871 91.1978 126.871ZM103.076 126.871C105.449 126.871 107.372 124.949 107.372 122.577C107.372 120.205 105.449 118.282 103.076 118.282C100.703 118.282 98.7794 120.205 98.7794 122.577C98.7794 124.949 100.703 126.871 103.076 126.871ZM103.673 112.021C103.496 111.904 103.288 111.841 103.076 111.841C102.791 111.841 102.518 111.954 102.316 112.155C102.115 112.356 102.002 112.629 102.002 112.914C102.002 113.126 102.065 113.334 102.183 113.511C102.301 113.687 102.469 113.825 102.665 113.906C102.861 113.987 103.077 114.009 103.285 113.967C103.494 113.926 103.685 113.823 103.835 113.673C103.986 113.523 104.088 113.332 104.129 113.124C104.171 112.915 104.149 112.699 104.068 112.503C103.987 112.307 103.849 112.139 103.673 112.021Z" fill="#E59E9E"/>
<path d="M69.3795 117.3C69.1635 117.936 68.8035 118.62 68.3475 119.076C68.6115 119.232 69.0555 119.568 69.2715 119.748C69.7395 119.22 70.1955 118.368 70.4835 117.576L69.3795 117.3ZM72.2235 112.188C72.1035 112.632 71.8875 113.244 71.7075 113.676H70.2915L70.8675 113.52C70.8195 113.16 70.6635 112.596 70.4595 112.188H72.2235ZM74.0355 116.976V115.776H72.0555V114.852H74.2275V113.676H72.9795C73.1595 113.304 73.3275 112.836 73.5195 112.38L72.5355 112.188H74.0475V111.024H72.1515C72.0195 110.628 71.8155 110.16 71.6355 109.776L70.3635 110.076C70.4835 110.364 70.6155 110.7 70.7235 111.024H68.6715V112.188H70.2915L69.3075 112.428C69.4755 112.8 69.6075 113.304 69.6675 113.676H68.4915V114.852H70.7715V115.776H68.5635V116.976H70.7715V119.508C70.7715 119.64 70.7355 119.676 70.6035 119.676C70.4715 119.676 70.0995 119.676 69.7395 119.664C69.9075 120 70.0755 120.492 70.1235 120.828C70.7595 120.828 71.2395 120.816 71.5995 120.624C71.9595 120.42 72.0555 120.12 72.0555 119.544V116.976H74.0355ZM79.5795 113.784H75.8955V111.9C77.0715 111.684 78.3075 111.384 79.3035 111L78.1995 109.956C77.3355 110.364 75.8835 110.736 74.5635 110.976V115.188C74.5635 116.34 74.5275 117.696 74.1555 118.872C73.9515 118.428 73.5555 117.72 73.1955 117.18L72.2595 117.696C72.5955 118.248 73.0035 119.004 73.1955 119.496L74.1435 118.896C74.0235 119.316 73.8435 119.712 73.6155 120.048C73.9155 120.204 74.4795 120.648 74.7075 120.9C75.7395 119.4 75.8955 116.952 75.8955 115.188V115.104H77.0715V120.996H78.4635V115.104H79.5795V113.784Z" fill="#F0AA1F"/>
<path d="M72.1275 137.352V136.692H75.7635V137.352H72.1275ZM75.7635 135.648H72.1275V135.012H75.7635V135.648ZM75.3915 133.272C75.5115 133.476 75.6555 133.668 75.7995 133.86H72.2355C72.3915 133.668 72.5355 133.476 72.6555 133.272H75.3915ZM79.4355 133.272V132.048H73.3875C73.4835 131.856 73.5675 131.676 73.6395 131.484H78.4035V130.356H74.0715C74.1195 130.176 74.1675 130.008 74.2155 129.828H78.7635V128.628H74.4675C74.5155 128.412 74.5515 128.184 74.5755 127.98L73.0515 127.836C73.0275 128.088 72.9915 128.364 72.9435 128.628H69.1995V129.828H72.6795C72.6195 130.008 72.5835 130.176 72.5235 130.356H69.6435V131.484H72.0435C71.9355 131.676 71.8275 131.856 71.7195 132.048H68.5875V133.272H70.7955C70.1475 133.98 69.3435 134.604 68.3355 135.12C68.6715 135.348 69.1275 135.912 69.3075 136.284C69.7995 136.02 70.2315 135.732 70.6395 135.408V139.044H72.1275V138.54H75.7635V138.996H77.3355V135.408C77.7795 135.744 78.2355 136.032 78.7275 136.248C78.9315 135.888 79.3755 135.336 79.6995 135.072C78.6795 134.7 77.7075 134.04 76.9995 133.272H79.4355Z" fill="#F0AA1F"/>
<path d="M69.2955 151.704C69.5715 150.78 69.7875 149.376 69.8355 148.332L68.8155 148.2C68.7315 149.196 68.5155 150.528 68.2275 151.332L69.2955 151.704ZM72.8475 150.084C72.6915 149.496 72.2835 148.536 71.9115 147.816L71.2635 148.092V145.836H69.8475V157.032H71.2635V148.956C71.5035 149.532 71.7075 150.144 71.8035 150.576L72.8475 150.084ZM76.1595 148.968H77.3715V151.164H76.1235C76.1475 150.792 76.1595 150.432 76.1595 150.072V148.968ZM79.5195 152.52V151.164H78.7635V147.648H76.1595V145.836H74.7195V147.648H72.6555V148.968H74.7195V150.06C74.7195 150.42 74.7195 150.78 74.6835 151.164H72.1035V152.52H74.4915C74.1675 153.84 73.3995 155.112 71.5755 156C71.8875 156.264 72.3915 156.792 72.5835 157.104C74.2395 156.156 75.1515 154.896 75.6315 153.552C76.2915 155.16 77.2515 156.372 78.7515 157.08C78.9675 156.66 79.4235 156.036 79.7595 155.736C78.2595 155.172 77.2755 153.996 76.6875 152.52H79.5195Z" fill="#F0AA1F"/>
<path d="M70.6155 170.604C70.0755 171.6 69.1875 172.716 68.3715 173.424C68.7075 173.628 69.2955 174.072 69.5715 174.312C70.3515 173.496 71.3475 172.2 71.9955 171.072L70.6155 170.604ZM79.0995 169.908V168.468H74.9955V166.404H73.5195V168.468H70.8555C71.0235 167.7 71.1915 166.776 71.2755 165.9C73.8075 165.84 76.6155 165.636 78.6675 165.204L77.9475 163.92C75.8835 164.34 72.6795 164.568 69.8715 164.628C69.8715 166.044 69.5835 167.604 69.4995 168.012C69.3915 168.444 69.2715 168.708 69.0675 168.792C69.2355 169.152 69.4635 169.8 69.5355 170.1C69.6555 169.968 70.3515 169.908 71.0475 169.908H73.5195V173.304C73.5195 173.496 73.4355 173.544 73.2315 173.544C73.0035 173.544 72.2835 173.556 71.6235 173.532C71.8395 173.94 72.0435 174.576 72.1035 174.984C73.1115 174.996 73.8435 174.96 74.3355 174.732C74.8395 174.492 74.9955 174.108 74.9955 173.328V169.908H79.0995ZM76.1355 171.144C76.8915 172.128 77.8275 173.46 78.2235 174.288L79.5795 173.676C79.1355 172.836 78.1395 171.552 77.3835 170.616L76.1355 171.144Z" fill="#F0AA1F"/>
</svg>
