<svg width="300" height="200" viewBox="0 0 300 200" fill="none" xmlns="http://www.w3.org/2000/svg">
<rect width="300" height="200" fill="white"/>
<g filter="url(#filter0_ddd_5093_272798)">
<path fill-rule="evenodd" clip-rule="evenodd" d="M100.755 160.385L96.907 162L90.4377 146.611L94.2796 144.994L100.755 160.385Z" fill="black"/>
<path fill-rule="evenodd" clip-rule="evenodd" d="M86.6667 132V155.348L92.8626 149.367L93.7558 149.077H103.706L86.6667 132Z" fill="black"/>
</g>
<path fill-rule="evenodd" clip-rule="evenodd" d="M83.71 93.63C84.1 94.02 84.1 94.65 83.71 95.04L81.88 96.87L78.13 93.12L79.96 91.29C80.35 90.9 80.98 90.9 81.37 91.29L83.71 93.63ZM66 109V105.25L77.06 94.19L80.81 97.94L69.75 109H66Z" fill="#727E84"/>
<circle cx="225" cy="100" r="20" fill="#007BC1" fill-opacity="0.05"/>
<path fill-rule="evenodd" clip-rule="evenodd" d="M233.71 93.63C234.1 94.02 234.1 94.65 233.71 95.04L231.88 96.87L228.13 93.12L229.96 91.29C230.35 90.9 230.98 90.9 231.37 91.29L233.71 93.63ZM216 109V105.25L227.06 94.19L230.81 97.94L219.75 109H216Z" fill="#007BC1"/>
<g filter="url(#filter1_ddd_5093_272798)">
<path fill-rule="evenodd" clip-rule="evenodd" d="M234.316 136.319C233.696 135.535 232.943 133.933 231.602 131.987C230.842 130.887 228.958 128.815 228.397 127.763C227.91 126.833 227.963 126.416 228.078 125.645C228.284 124.274 229.69 123.207 231.189 123.351C232.323 123.458 233.283 124.207 234.148 124.914C234.669 125.34 235.311 126.167 235.698 126.634C236.054 127.062 236.141 127.239 236.521 127.745C237.023 128.416 237.18 128.748 236.988 128.01C236.833 126.927 236.58 125.078 236.213 123.442C235.934 122.202 235.866 122.008 235.599 121.056C235.318 120.043 235.174 119.334 234.91 118.259C234.726 117.5 234.397 115.947 234.307 115.074C234.183 113.88 234.117 111.933 234.883 111.037C235.484 110.337 236.861 110.125 237.715 110.557C238.833 111.123 239.468 112.747 239.758 113.395C240.28 114.561 240.603 115.908 240.885 117.677C241.243 119.927 241.902 123.052 241.924 123.709C241.977 122.903 241.776 121.207 241.915 120.434C242.042 119.733 242.632 118.919 243.369 118.698C243.994 118.513 244.725 118.445 245.369 118.578C246.053 118.718 246.773 119.207 247.042 119.668C247.832 121.03 247.847 123.814 247.88 123.665C248.068 122.844 248.035 120.982 248.5 120.207C248.806 119.696 249.585 119.235 250 119.161C250.642 119.048 251.43 119.013 252.104 119.144C252.648 119.251 253.384 119.897 253.582 120.207C254.058 120.958 254.329 123.082 254.41 123.827C254.443 124.134 254.571 122.971 255.05 122.22C255.936 120.825 259.073 120.554 259.193 123.615C259.248 125.043 259.237 124.977 259.237 125.938C259.237 127.066 259.211 127.745 259.15 128.562C259.082 129.435 258.894 131.409 258.621 132.365C258.434 133.022 257.811 134.5 257.198 135.387C257.198 135.387 254.853 138.116 254.598 139.345C254.34 140.572 254.425 140.58 254.375 141.452C254.325 142.32 254.639 143.464 254.639 143.464C254.639 143.464 252.888 143.692 251.945 143.541C251.091 143.403 250.035 141.705 249.762 141.185C249.386 140.469 248.585 140.607 248.273 141.135C247.782 141.971 246.725 143.471 245.978 143.565C244.52 143.748 241.494 143.633 239.125 143.609C239.125 143.609 239.529 141.401 238.63 140.644C237.964 140.078 236.818 138.932 236.132 138.33L234.316 136.319Z" fill="white"/>
<path fill-rule="evenodd" clip-rule="evenodd" d="M252.294 137.093V129.541Z" fill="white"/>
<path fill-rule="evenodd" clip-rule="evenodd" d="M247.894 137.118L247.859 129.536Z" fill="white"/>
<path fill-rule="evenodd" clip-rule="evenodd" d="M243.536 129.605L243.582 137.085Z" fill="white"/>
<path d="M234.316 136.319L234.022 136.552C234.027 136.558 234.032 136.564 234.037 136.57L234.316 136.319ZM231.602 131.987L231.911 131.775L231.911 131.774L231.602 131.987ZM228.397 127.763L228.065 127.937L228.066 127.939L228.397 127.763ZM228.078 125.645L228.449 125.701L228.449 125.701L228.078 125.645ZM231.189 123.351L231.154 123.724L231.154 123.724L231.189 123.351ZM234.148 124.914L233.91 125.204L233.911 125.204L234.148 124.914ZM235.698 126.634L235.409 126.873L235.409 126.874L235.698 126.634ZM236.521 127.745L236.821 127.521L236.821 127.52L236.521 127.745ZM236.988 128.01L236.617 128.063C236.619 128.077 236.622 128.09 236.625 128.104L236.988 128.01ZM236.213 123.442L236.579 123.36L236.579 123.36L236.213 123.442ZM235.599 121.056L235.238 121.157L235.238 121.157L235.599 121.056ZM234.91 118.259L234.545 118.347L234.545 118.349L234.91 118.259ZM234.307 115.074L234.68 115.036L234.68 115.035L234.307 115.074ZM234.883 111.037L234.599 110.793L234.599 110.794L234.883 111.037ZM237.715 110.557L237.546 110.892L237.546 110.892L237.715 110.557ZM239.758 113.395L240.101 113.242L240.101 113.242L239.758 113.395ZM240.885 117.677L241.255 117.618L241.255 117.618L240.885 117.677ZM241.924 123.709L241.549 123.721C241.556 123.921 241.718 124.081 241.918 124.084C242.118 124.087 242.285 123.933 242.298 123.733L241.924 123.709ZM241.915 120.434L242.284 120.501L242.284 120.501L241.915 120.434ZM243.369 118.698L243.263 118.339L243.262 118.339L243.369 118.698ZM245.369 118.578L245.293 118.945L245.294 118.946L245.369 118.578ZM247.042 119.668L247.366 119.479L247.366 119.479L247.042 119.668ZM247.88 123.665L247.514 123.581L247.514 123.584L247.88 123.665ZM248.5 120.207L248.822 120.4L248.822 120.399L248.5 120.207ZM250 119.161L249.935 118.792L249.934 118.792L250 119.161ZM252.104 119.144L252.177 118.776L252.176 118.776L252.104 119.144ZM253.582 120.207L253.899 120.006L253.898 120.005L253.582 120.207ZM254.41 123.827L254.783 123.787L254.783 123.786L254.41 123.827ZM255.05 122.22L255.366 122.421L255.366 122.421L255.05 122.22ZM259.193 123.615L259.568 123.601L259.568 123.6L259.193 123.615ZM259.15 128.562L259.523 128.591L259.524 128.59L259.15 128.562ZM258.621 132.365L258.982 132.468L258.982 132.468L258.621 132.365ZM257.198 135.387L257.482 135.631C257.491 135.621 257.499 135.611 257.506 135.6L257.198 135.387ZM254.598 139.345L254.965 139.422L254.965 139.421L254.598 139.345ZM254.375 141.452L254.749 141.473L254.749 141.473L254.375 141.452ZM254.639 143.464L254.687 143.836C254.795 143.822 254.891 143.762 254.951 143.672C255.011 143.582 255.029 143.47 255.001 143.365L254.639 143.464ZM251.945 143.541L251.885 143.911L251.886 143.911L251.945 143.541ZM249.762 141.185L249.43 141.359L249.43 141.36L249.762 141.185ZM248.273 141.135L247.95 140.944L247.95 140.945L248.273 141.135ZM245.978 143.565L245.932 143.193H245.932L245.978 143.565ZM239.125 143.609L238.756 143.541C238.737 143.65 238.766 143.762 238.836 143.847C238.906 143.933 239.011 143.982 239.122 143.984L239.125 143.609ZM238.63 140.644L238.387 140.93L238.388 140.931L238.63 140.644ZM236.132 138.33L235.854 138.581C235.864 138.592 235.874 138.602 235.885 138.611L236.132 138.33ZM251.919 137.093C251.919 137.3 252.087 137.468 252.294 137.468C252.501 137.468 252.669 137.3 252.669 137.093H251.919ZM252.669 129.541C252.669 129.334 252.501 129.166 252.294 129.166C252.087 129.166 251.919 129.334 251.919 129.541H252.669ZM247.519 137.12C247.52 137.327 247.688 137.494 247.895 137.493C248.103 137.492 248.27 137.324 248.269 137.117L247.519 137.12ZM248.234 129.534C248.233 129.327 248.064 129.16 247.857 129.161C247.65 129.162 247.483 129.331 247.484 129.538L248.234 129.534ZM243.911 129.603C243.91 129.396 243.741 129.229 243.534 129.23C243.326 129.231 243.16 129.4 243.161 129.607L243.911 129.603ZM243.207 137.087C243.208 137.294 243.377 137.461 243.584 137.46C243.791 137.458 243.958 137.29 243.957 137.082L243.207 137.087ZM234.61 136.086C234.321 135.721 233.994 135.154 233.553 134.4C233.119 133.657 232.59 132.76 231.911 131.775L231.293 132.2C231.955 133.161 232.473 134.037 232.905 134.778C233.331 135.507 233.691 136.133 234.022 136.552L234.61 136.086ZM231.911 131.774C231.52 131.209 230.844 130.398 230.217 129.621C229.573 128.825 228.988 128.074 228.728 127.586L228.066 127.939C228.367 128.504 229.005 129.315 229.633 130.093C230.278 130.891 230.924 131.666 231.293 132.2L231.911 131.774ZM228.729 127.589C228.499 127.149 228.411 126.859 228.385 126.605C228.357 126.343 228.39 126.093 228.449 125.701L227.708 125.59C227.651 125.968 227.6 126.312 227.639 126.684C227.679 127.063 227.808 127.446 228.065 127.937L228.729 127.589ZM228.449 125.701C228.623 124.543 229.836 123.597 231.154 123.724L231.225 122.977C229.543 122.816 227.945 124.006 227.708 125.59L228.449 125.701ZM231.154 123.724C232.156 123.819 233.032 124.486 233.91 125.204L234.385 124.624C233.534 123.927 232.489 123.097 231.225 122.977L231.154 123.724ZM233.911 125.204C234.395 125.6 235.003 126.382 235.409 126.873L235.987 126.395C235.62 125.952 234.944 125.079 234.385 124.623L233.911 125.204ZM235.409 126.874C235.762 127.298 235.812 127.425 236.221 127.97L236.821 127.52C236.47 127.053 236.345 126.826 235.986 126.394L235.409 126.874ZM236.221 127.97C236.344 128.135 236.444 128.276 236.529 128.393C236.602 128.494 236.686 128.61 236.756 128.677C236.774 128.695 236.813 128.73 236.868 128.758C236.913 128.781 237.068 128.85 237.239 128.755C237.396 128.668 237.428 128.516 237.435 128.478C237.445 128.423 237.443 128.375 237.441 128.347C237.433 128.244 237.396 128.09 237.351 127.915L236.625 128.104C236.649 128.194 236.666 128.264 236.677 128.317C236.683 128.344 236.687 128.364 236.689 128.379C236.692 128.395 236.693 128.401 236.693 128.401C236.693 128.4 236.692 128.395 236.692 128.387C236.693 128.379 236.693 128.364 236.697 128.343C236.701 128.323 236.727 128.182 236.875 128.099C237.037 128.009 237.181 128.076 237.212 128.092C237.235 128.104 237.25 128.115 237.258 128.121C237.267 128.128 237.272 128.133 237.274 128.134C237.276 128.137 237.266 128.126 237.236 128.089C237.21 128.055 237.177 128.01 237.136 127.953C237.056 127.843 236.949 127.692 236.821 127.521L236.221 127.97ZM237.359 127.956C237.205 126.878 236.95 125.013 236.579 123.36L235.847 123.524C236.21 125.142 236.461 126.975 236.617 128.063L237.359 127.956ZM236.579 123.36C236.297 122.109 236.227 121.907 235.961 120.955L235.238 121.157C235.505 122.109 235.57 122.295 235.847 123.525L236.579 123.36ZM235.961 120.956C235.681 119.949 235.542 119.26 235.274 118.17L234.545 118.349C234.806 119.408 234.955 120.137 235.238 121.157L235.961 120.956ZM235.274 118.171C235.091 117.414 234.767 115.882 234.68 115.036L233.934 115.112C234.026 116.013 234.361 117.586 234.545 118.347L235.274 118.171ZM234.68 115.035C234.619 114.449 234.574 113.69 234.635 112.976C234.697 112.245 234.865 111.635 235.168 111.281L234.599 110.794C234.135 111.335 233.953 112.146 233.888 112.912C233.821 113.693 233.871 114.505 233.934 115.113L234.68 115.035ZM235.168 111.281C235.393 111.019 235.795 110.82 236.265 110.742C236.733 110.665 237.206 110.72 237.546 110.892L237.884 110.223C237.37 109.962 236.728 109.906 236.143 110.002C235.561 110.098 234.974 110.355 234.599 110.793L235.168 111.281ZM237.546 110.892C238.009 111.126 238.402 111.6 238.726 112.138C239.045 112.671 239.265 113.211 239.416 113.549L240.101 113.242C239.962 112.932 239.718 112.335 239.369 111.752C239.022 111.175 238.538 110.553 237.884 110.223L237.546 110.892ZM239.416 113.549C239.918 114.67 240.235 115.978 240.515 117.736L241.255 117.618C240.972 115.838 240.643 114.453 240.101 113.242L239.416 113.549ZM240.515 117.735C240.695 118.867 240.95 120.217 241.162 121.359C241.268 121.931 241.363 122.451 241.433 122.867C241.505 123.294 241.545 123.587 241.549 123.721L242.299 123.696C242.293 123.502 242.242 123.158 242.173 122.744C242.102 122.319 242.006 121.794 241.899 121.222C241.687 120.075 241.433 118.737 241.255 117.618L240.515 117.735ZM242.298 123.733C242.326 123.304 242.287 122.647 242.262 122.043C242.235 121.409 242.224 120.838 242.284 120.501L241.546 120.367C241.468 120.803 241.487 121.466 241.512 122.075C241.539 122.714 241.574 123.308 241.55 123.684L242.298 123.733ZM242.284 120.501C242.335 120.219 242.484 119.897 242.706 119.621C242.928 119.343 243.2 119.14 243.477 119.058L243.262 118.339C242.801 118.477 242.409 118.791 242.121 119.151C241.831 119.512 241.622 119.948 241.546 120.367L242.284 120.501ZM243.476 119.058C244.055 118.886 244.722 118.827 245.293 118.945L245.445 118.211C244.728 118.063 243.933 118.14 243.263 118.339L243.476 119.058ZM245.294 118.946C245.581 119.004 245.888 119.14 246.155 119.316C246.425 119.494 246.622 119.693 246.718 119.856L247.366 119.479C247.192 119.182 246.895 118.906 246.567 118.69C246.236 118.471 245.841 118.292 245.444 118.211L245.294 118.946ZM246.717 119.856C247.071 120.465 247.266 121.434 247.373 122.28C247.425 122.694 247.454 123.063 247.472 123.321C247.481 123.447 247.488 123.555 247.493 123.621C247.495 123.65 247.499 123.69 247.504 123.722C247.505 123.73 247.509 123.748 247.514 123.769C247.517 123.779 247.523 123.798 247.533 123.821C247.539 123.835 247.564 123.891 247.62 123.944C247.651 123.973 247.704 124.013 247.781 124.033C247.864 124.055 247.948 124.047 248.021 124.017C248.143 123.967 248.196 123.871 248.206 123.853C248.236 123.8 248.245 123.75 248.246 123.746L247.514 123.584C247.515 123.579 247.517 123.568 247.522 123.555C247.525 123.544 247.534 123.518 247.551 123.487C247.561 123.47 247.613 123.375 247.734 123.324C247.807 123.294 247.891 123.286 247.974 123.308C248.051 123.329 248.103 123.369 248.134 123.398C248.189 123.449 248.213 123.504 248.219 123.518C248.229 123.54 248.234 123.557 248.236 123.566C248.241 123.583 248.243 123.596 248.244 123.598C248.245 123.604 248.244 123.598 248.241 123.562C248.236 123.499 248.23 123.404 248.22 123.268C248.202 123.004 248.172 122.62 248.117 122.186C248.01 121.337 247.803 120.232 247.366 119.479L246.717 119.856ZM248.246 123.749C248.298 123.518 248.333 123.227 248.364 122.925C248.395 122.612 248.422 122.293 248.459 121.96C248.495 121.632 248.539 121.316 248.6 121.039C248.662 120.758 248.736 120.542 248.822 120.4L248.178 120.014C248.031 120.259 247.936 120.567 247.867 120.878C247.798 121.194 247.75 121.54 247.713 121.878C247.677 122.21 247.647 122.559 247.618 122.85C247.587 123.152 247.556 123.402 247.514 123.581L248.246 123.749ZM248.822 120.399C248.934 120.211 249.155 120.006 249.416 119.833C249.679 119.659 249.929 119.555 250.066 119.53L249.934 118.792C249.656 118.842 249.309 119.005 249.002 119.207C248.694 119.411 248.371 119.691 248.178 120.014L248.822 120.399ZM250.065 119.53C250.676 119.422 251.416 119.392 252.033 119.512L252.176 118.776C251.444 118.633 250.607 118.673 249.935 118.792L250.065 119.53ZM252.032 119.512C252.217 119.548 252.48 119.692 252.744 119.896C253.005 120.098 253.201 120.306 253.267 120.409L253.898 120.005C253.766 119.798 253.494 119.528 253.202 119.302C252.912 119.079 252.536 118.846 252.177 118.776L252.032 119.512ZM253.266 120.408C253.356 120.551 253.451 120.784 253.542 121.091C253.63 121.391 253.709 121.738 253.776 122.09C253.911 122.794 253.997 123.5 254.037 123.867L254.783 123.786C254.742 123.409 254.653 122.681 254.513 121.949C254.443 121.583 254.359 121.211 254.261 120.878C254.164 120.552 254.046 120.238 253.899 120.006L253.266 120.408ZM254.037 123.866C254.039 123.888 254.045 123.939 254.063 123.991C254.07 124.01 254.096 124.086 254.169 124.153C254.211 124.192 254.278 124.235 254.369 124.248C254.461 124.262 254.54 124.24 254.596 124.212C254.69 124.164 254.737 124.091 254.748 124.075C254.766 124.047 254.777 124.022 254.784 124.007C254.797 123.977 254.807 123.946 254.814 123.923C254.84 123.84 254.882 123.672 254.924 123.521C255.019 123.178 255.159 122.746 255.366 122.421L254.733 122.018C254.462 122.444 254.298 122.97 254.201 123.32C254.147 123.515 254.121 123.627 254.098 123.7C254.093 123.715 254.093 123.715 254.096 123.707C254.098 123.703 254.105 123.687 254.119 123.666C254.125 123.656 254.168 123.587 254.258 123.542C254.313 123.515 254.39 123.493 254.48 123.506C254.569 123.52 254.634 123.562 254.675 123.599C254.744 123.663 254.768 123.734 254.771 123.744C254.784 123.78 254.785 123.803 254.783 123.787L254.037 123.866ZM255.366 122.421C255.719 121.866 256.568 121.496 257.352 121.617C257.729 121.675 258.075 121.846 258.334 122.152C258.593 122.458 258.791 122.929 258.819 123.63L259.568 123.6C259.535 122.77 259.296 122.127 258.906 121.667C258.515 121.206 257.998 120.958 257.466 120.876C256.429 120.716 255.267 121.179 254.733 122.019L255.366 122.421ZM258.819 123.629C258.873 125.05 258.862 124.979 258.862 125.938H259.612C259.612 124.975 259.623 125.035 259.568 123.601L258.819 123.629ZM258.862 125.938C258.862 127.059 258.836 127.728 258.776 128.534L259.524 128.59C259.586 127.763 259.612 127.074 259.612 125.938H258.862ZM258.776 128.533C258.707 129.416 258.521 131.349 258.261 132.262L258.982 132.468C259.267 131.468 259.457 129.455 259.523 128.591L258.776 128.533ZM258.261 132.262C258.082 132.888 257.475 134.327 256.889 135.173L257.506 135.6C258.147 134.674 258.785 133.157 258.982 132.468L258.261 132.262ZM257.198 135.387C256.913 135.142 256.913 135.142 256.913 135.142C256.913 135.142 256.913 135.142 256.913 135.142C256.913 135.143 256.913 135.143 256.913 135.143C256.912 135.143 256.912 135.144 256.911 135.145C256.91 135.146 256.908 135.148 256.906 135.151C256.901 135.156 256.895 135.164 256.886 135.175C256.868 135.196 256.842 135.226 256.809 135.265C256.744 135.344 256.65 135.456 256.537 135.596C256.31 135.874 256.005 136.258 255.692 136.682C255.379 137.105 255.054 137.572 254.79 138.016C254.531 138.449 254.308 138.896 254.23 139.268L254.965 139.421C255.015 139.179 255.181 138.824 255.434 138.4C255.681 137.986 255.99 137.541 256.295 137.128C256.6 136.716 256.897 136.341 257.118 136.069C257.229 135.933 257.32 135.823 257.384 135.747C257.416 135.709 257.44 135.68 257.457 135.66C257.466 135.651 257.472 135.643 257.476 135.638C257.478 135.636 257.48 135.634 257.481 135.633C257.481 135.632 257.482 135.632 257.482 135.631C257.482 135.631 257.482 135.631 257.482 135.631C257.482 135.631 257.482 135.631 257.482 135.631C257.482 135.631 257.482 135.631 257.198 135.387ZM254.231 139.268C253.965 140.531 254.049 140.589 254.001 141.43L254.749 141.473C254.801 140.572 254.715 140.612 254.965 139.422L254.231 139.268ZM254.001 141.43C253.973 141.909 254.045 142.448 254.119 142.851C254.157 143.056 254.196 143.233 254.226 143.359C254.241 143.422 254.254 143.472 254.263 143.507C254.267 143.525 254.271 143.538 254.273 143.548C254.275 143.553 254.276 143.557 254.276 143.559C254.277 143.561 254.277 143.562 254.277 143.562C254.277 143.563 254.277 143.563 254.277 143.563C254.277 143.563 254.277 143.564 254.277 143.564C254.277 143.564 254.278 143.564 254.278 143.564C254.278 143.564 254.278 143.564 254.639 143.464C255.001 143.365 255.001 143.365 255.001 143.365C255.001 143.365 255.001 143.365 255.001 143.365C255.001 143.365 255.001 143.365 255.001 143.365C255.001 143.365 255.001 143.365 255.001 143.365C255.001 143.365 255 143.364 255 143.363C255 143.361 254.999 143.359 254.998 143.355C254.996 143.347 254.993 143.335 254.989 143.32C254.981 143.289 254.969 143.243 254.956 143.186C254.928 143.07 254.892 142.906 254.857 142.716C254.786 142.331 254.727 141.863 254.749 141.473L254.001 141.43ZM254.639 143.464C254.591 143.093 254.591 143.093 254.591 143.093C254.591 143.093 254.591 143.093 254.591 143.093C254.591 143.093 254.591 143.093 254.591 143.093C254.591 143.093 254.59 143.093 254.59 143.093C254.589 143.093 254.588 143.093 254.587 143.093C254.584 143.094 254.579 143.094 254.573 143.095C254.56 143.096 254.542 143.099 254.518 143.102C254.469 143.107 254.399 143.115 254.311 143.125C254.136 143.143 253.892 143.166 253.62 143.185C253.066 143.223 252.43 143.239 252.004 143.171L251.886 143.911C252.404 143.994 253.115 143.971 253.671 143.933C253.955 143.914 254.208 143.89 254.39 143.871C254.482 143.861 254.555 143.852 254.606 143.846C254.632 143.843 254.652 143.841 254.666 143.839C254.672 143.838 254.678 143.838 254.681 143.837C254.683 143.837 254.685 143.837 254.686 143.837C254.686 143.837 254.687 143.836 254.687 143.836C254.687 143.836 254.687 143.836 254.687 143.836C254.687 143.836 254.687 143.836 254.687 143.836C254.687 143.836 254.687 143.836 254.639 143.464ZM252.005 143.171C251.89 143.152 251.726 143.07 251.523 142.9C251.326 142.735 251.122 142.515 250.929 142.272C250.541 141.787 250.221 141.253 250.094 141.011L249.43 141.36C249.576 141.637 249.921 142.212 250.343 142.74C250.554 143.005 250.792 143.267 251.042 143.476C251.285 143.679 251.574 143.861 251.885 143.911L252.005 143.171ZM250.094 141.011C249.843 140.533 249.419 140.302 248.979 140.319C248.561 140.335 248.168 140.575 247.95 140.944L248.596 141.326C248.69 141.167 248.854 141.074 249.008 141.068C249.141 141.063 249.305 141.122 249.43 141.359L250.094 141.011ZM247.95 140.945C247.712 141.35 247.337 141.915 246.936 142.385C246.735 142.62 246.536 142.823 246.351 142.969C246.158 143.121 246.017 143.182 245.932 143.193L246.025 143.937C246.313 143.901 246.584 143.74 246.815 143.558C247.053 143.37 247.289 143.128 247.507 142.872C247.944 142.359 248.343 141.756 248.596 141.325L247.95 140.945ZM245.932 143.193C245.231 143.281 244.134 143.299 242.896 143.29C241.652 143.28 240.332 143.246 239.129 143.234L239.122 143.984C240.287 143.995 241.665 144.031 242.891 144.039C244.123 144.048 245.268 144.032 246.025 143.937L245.932 143.193ZM239.125 143.609C239.494 143.676 239.494 143.676 239.494 143.676C239.494 143.676 239.494 143.676 239.494 143.676C239.494 143.675 239.494 143.675 239.494 143.675C239.495 143.675 239.495 143.674 239.495 143.673C239.495 143.672 239.495 143.67 239.496 143.667C239.497 143.662 239.498 143.655 239.5 143.646C239.503 143.627 239.507 143.601 239.512 143.568C239.522 143.502 239.535 143.407 239.547 143.292C239.572 143.063 239.596 142.747 239.59 142.404C239.584 142.062 239.548 141.68 239.448 141.325C239.348 140.972 239.175 140.613 238.871 140.357L238.388 140.931C238.534 141.054 238.648 141.255 238.726 141.529C238.802 141.8 238.835 142.112 238.84 142.417C238.845 142.72 238.824 143.003 238.802 143.211C238.79 143.315 238.779 143.399 238.77 143.457C238.766 143.485 238.762 143.507 238.76 143.522C238.759 143.529 238.758 143.534 238.757 143.537C238.757 143.539 238.757 143.54 238.757 143.541C238.756 143.541 238.756 143.541 238.756 143.541C238.756 143.541 238.756 143.541 238.756 143.541C238.756 143.541 238.756 143.541 238.756 143.541C238.756 143.541 238.756 143.541 239.125 143.609ZM238.872 140.358C238.549 140.083 238.104 139.663 237.647 139.229C237.194 138.799 236.729 138.355 236.38 138.048L235.885 138.611C236.22 138.906 236.672 139.337 237.13 139.773C237.583 140.203 238.044 140.639 238.387 140.93L238.872 140.358ZM236.41 138.078L234.594 136.067L234.037 136.57L235.854 138.581L236.41 138.078ZM252.669 137.093V129.541H251.919V137.093H252.669ZM248.269 137.117L248.234 129.534L247.484 129.538L247.519 137.12L248.269 137.117ZM243.161 129.607L243.207 137.087L243.957 137.082L243.911 129.603L243.161 129.607Z" fill="black"/>
</g>
<path d="M206 49C206 47.3431 207.343 46 209 46H241C242.657 46 244 47.3431 244 49V67C244 68.6569 242.657 70 241 70H209C207.343 70 206 68.6569 206 67V49Z" fill="black" fill-opacity="0.7"/>
<path d="M220.295 63H215.52V54.4336H220.295V55.3184H216.516V58.0781H220.066V58.957H216.516V62.1094H220.295V63ZM226.424 62.1387H226.371C225.922 62.791 225.25 63.1172 224.355 63.1172C223.516 63.1172 222.861 62.8301 222.393 62.2559C221.928 61.6816 221.695 60.8652 221.695 59.8066C221.695 58.748 221.93 57.9258 222.398 57.3398C222.867 56.7539 223.52 56.4609 224.355 56.4609C225.227 56.4609 225.895 56.7773 226.359 57.4102H226.436L226.395 56.9473L226.371 56.4961V53.8828H227.344V63H226.553L226.424 62.1387ZM224.479 62.3027C225.143 62.3027 225.623 62.123 225.92 61.7637C226.221 61.4004 226.371 60.8164 226.371 60.0117V59.8066C226.371 58.8965 226.219 58.248 225.914 57.8613C225.613 57.4707 225.131 57.2754 224.467 57.2754C223.896 57.2754 223.459 57.498 223.154 57.9434C222.854 58.3848 222.703 59.0098 222.703 59.8184C222.703 60.6387 222.854 61.2578 223.154 61.6758C223.455 62.0938 223.896 62.3027 224.479 62.3027ZM230.385 63H229.412V56.5781H230.385V63ZM229.33 54.8379C229.33 54.6152 229.385 54.4531 229.494 54.3516C229.604 54.2461 229.74 54.1934 229.904 54.1934C230.061 54.1934 230.195 54.2461 230.309 54.3516C230.422 54.457 230.479 54.6191 230.479 54.8379C230.479 55.0566 230.422 55.2207 230.309 55.3301C230.195 55.4355 230.061 55.4883 229.904 55.4883C229.74 55.4883 229.604 55.4355 229.494 55.3301C229.385 55.2207 229.33 55.0566 229.33 54.8379ZM234.521 62.3145C234.693 62.3145 234.859 62.3027 235.02 62.2793C235.18 62.252 235.307 62.2246 235.4 62.1973V62.9414C235.295 62.9922 235.139 63.0332 234.932 63.0645C234.729 63.0996 234.545 63.1172 234.381 63.1172C233.139 63.1172 232.518 62.4629 232.518 61.1543V57.334H231.598V56.8652L232.518 56.4609L232.928 55.0898H233.49V56.5781H235.354V57.334H233.49V61.1133C233.49 61.5 233.582 61.7969 233.766 62.0039C233.949 62.2109 234.201 62.3145 234.521 62.3145Z" fill="white"/>
<path d="M231 70L225 76L219 70L231 70Z" fill="black" fill-opacity="0.7"/>
<defs>
<filter id="filter0_ddd_5093_272798" x="72" y="125" width="46" height="46" filterUnits="userSpaceOnUse" color-interpolation-filters="sRGB">
<feFlood flood-opacity="0" result="BackgroundImageFix"/>
<feColorMatrix in="SourceAlpha" type="matrix" values="0 0 0 0 0 0 0 0 0 0 0 0 0 0 0 0 0 0 127 0" result="hardAlpha"/>
<feOffset dy="1"/>
<feGaussianBlur stdDeviation="1.5"/>
<feColorMatrix type="matrix" values="0 0 0 0 0 0 0 0 0 0 0 0 0 0 0 0 0 0 0.12 0"/>
<feBlend mode="normal" in2="BackgroundImageFix" result="effect1_dropShadow_5093_272798"/>
<feColorMatrix in="SourceAlpha" type="matrix" values="0 0 0 0 0 0 0 0 0 0 0 0 0 0 0 0 0 0 127 0" result="hardAlpha"/>
<feOffset dy="1"/>
<feGaussianBlur stdDeviation="0.5"/>
<feColorMatrix type="matrix" values="0 0 0 0 0 0 0 0 0 0 0 0 0 0 0 0 0 0 0.14 0"/>
<feBlend mode="normal" in2="effect1_dropShadow_5093_272798" result="effect2_dropShadow_5093_272798"/>
<feColorMatrix in="SourceAlpha" type="matrix" values="0 0 0 0 0 0 0 0 0 0 0 0 0 0 0 0 0 0 127 0" result="hardAlpha"/>
<feMorphology radius="1" operator="erode" in="SourceAlpha" result="effect3_dropShadow_5093_272798"/>
<feOffset dy="2"/>
<feGaussianBlur stdDeviation="0.5"/>
<feColorMatrix type="matrix" values="0 0 0 0 0 0 0 0 0 0 0 0 0 0 0 0 0 0 0.2 0"/>
<feBlend mode="normal" in2="effect2_dropShadow_5093_272798" result="effect3_dropShadow_5093_272798"/>
<feBlend mode="normal" in="SourceGraphic" in2="effect3_dropShadow_5093_272798" result="shape"/>
</filter>
<filter id="filter1_ddd_5093_272798" x="220" y="105" width="46" height="46" filterUnits="userSpaceOnUse" color-interpolation-filters="sRGB">
<feFlood flood-opacity="0" result="BackgroundImageFix"/>
<feColorMatrix in="SourceAlpha" type="matrix" values="0 0 0 0 0 0 0 0 0 0 0 0 0 0 0 0 0 0 127 0" result="hardAlpha"/>
<feOffset dy="1"/>
<feGaussianBlur stdDeviation="1.5"/>
<feColorMatrix type="matrix" values="0 0 0 0 0 0 0 0 0 0 0 0 0 0 0 0 0 0 0.12 0"/>
<feBlend mode="normal" in2="BackgroundImageFix" result="effect1_dropShadow_5093_272798"/>
<feColorMatrix in="SourceAlpha" type="matrix" values="0 0 0 0 0 0 0 0 0 0 0 0 0 0 0 0 0 0 127 0" result="hardAlpha"/>
<feOffset dy="1"/>
<feGaussianBlur stdDeviation="0.5"/>
<feColorMatrix type="matrix" values="0 0 0 0 0 0 0 0 0 0 0 0 0 0 0 0 0 0 0.14 0"/>
<feBlend mode="normal" in2="effect1_dropShadow_5093_272798" result="effect2_dropShadow_5093_272798"/>
<feColorMatrix in="SourceAlpha" type="matrix" values="0 0 0 0 0 0 0 0 0 0 0 0 0 0 0 0 0 0 127 0" result="hardAlpha"/>
<feMorphology radius="1" operator="erode" in="SourceAlpha" result="effect3_dropShadow_5093_272798"/>
<feOffset dy="2"/>
<feGaussianBlur stdDeviation="0.5"/>
<feColorMatrix type="matrix" values="0 0 0 0 0 0 0 0 0 0 0 0 0 0 0 0 0 0 0.2 0"/>
<feBlend mode="normal" in2="effect2_dropShadow_5093_272798" result="effect3_dropShadow_5093_272798"/>
<feBlend mode="normal" in="SourceGraphic" in2="effect3_dropShadow_5093_272798" result="shape"/>
</filter>
</defs>
</svg>
