<svg width="348" height="64" viewBox="0 0 348 64" fill="none" xmlns="http://www.w3.org/2000/svg">
<path d="M73.0107 24.6354C73.5316 24.7396 72.4274 24.7083 88.917 24.7083C96.417 24.7083 95.4586 12.8333 87.8128 14.4062C87.5713 12.573 86.6423 10.9 85.2139 9.72577C83.7855 8.55157 81.9643 7.96391 80.119 8.08172C78.2737 8.19954 76.542 9.01403 75.2745 10.3603C74.007 11.7067 73.2984 13.4843 73.292 15.3333C67.9066 15.9583 67.7191 23.7396 73.0107 24.6354Z" fill="#EFFDF5" fill-opacity="0.13"/>
<path d="M72.0207 26.5416C71.4894 27.677 71.5415 27.2083 72.0832 29.4375C72.9165 32.7604 74.8748 36.5937 77.854 35.1041C79.3332 34.3645 77.6873 30.1979 80.5623 28.7604C82.7498 27.6666 85.8332 29.2916 85.5207 26.7916C72.5103 26.7916 73.1665 26.875 72.0207 26.5416Z" fill="#EFFDF5" fill-opacity="0.13"/>
<path d="M113.074 33.7292C112.578 33.4042 112.019 33.1887 111.433 33.0971C110.847 33.0055 110.249 33.0399 109.678 33.198C109.591 32.3542 109.333 31.537 108.92 30.7961C108.507 30.0553 107.947 29.4062 107.275 28.8885C106.604 28.3708 105.833 27.9953 105.012 27.7848C104.19 27.5743 103.334 27.5333 102.496 27.6643C101.658 27.7952 100.855 28.0954 100.137 28.5465C99.4186 28.9976 98.7996 29.5902 98.3177 30.2882C97.8357 30.9862 97.5009 31.775 97.3336 32.6065C97.1663 33.4381 97.17 34.295 97.3444 35.125C97.0674 35.1061 96.7892 35.1343 96.5215 35.2084C95.7746 35.3844 95.1185 35.8291 94.6784 36.4577C94.2382 37.0863 94.0448 37.8549 94.1349 38.617C94.225 39.3791 94.5924 40.0814 95.167 40.59C95.7416 41.0987 96.4833 41.3781 97.2507 41.375C110.49 41.375 110.792 41.375 110.886 41.375C111.773 41.353 112.63 41.0483 113.332 40.5052C114.034 39.9621 114.545 39.2091 114.789 38.3558C115.033 37.5025 114.998 36.5935 114.69 35.7613C114.381 34.9291 113.815 34.2172 113.074 33.7292Z" fill="#EFFDF5" fill-opacity="0.13"/>
<path d="M98.2924 20.9584C97.5841 23.0417 100.272 24.5834 97.1362 27.7084C95.6987 29.1459 93.3758 30.1146 93.7924 32.198C93.8864 32.79 94.0914 33.359 94.3966 33.875C94.6351 33.7193 94.8859 33.5835 95.1466 33.4688C95.8445 24.7084 107.949 22.823 111.23 30.9584H111.417C110.388 25.8194 107.447 21.2626 103.188 18.2084C102.386 18.2396 98.8445 19.375 98.2924 20.9584Z" fill="#EFFDF5" fill-opacity="0.13"/>
<path d="M104.625 43.6146C104.761 43.3958 105.167 43.4583 101.5 43.4583C101.411 43.9988 101.539 44.5527 101.855 45C101.99 45.2188 103.782 44.8854 104.625 43.6146Z" fill="#EFFDF5" fill-opacity="0.13"/>
<path d="M87.6149 51.1459C87.8778 50.4271 87.9376 49.6497 87.7878 48.8992C87.638 48.1486 87.2844 47.4538 86.7657 46.891C86.247 46.3281 85.5833 45.9191 84.8474 45.7086C84.1115 45.4982 83.3319 45.4945 82.5941 45.698C82.507 44.8542 82.2491 44.037 81.8361 43.2961C81.4231 42.5553 80.8636 41.9062 80.1917 41.3885C79.5198 40.8708 78.7496 40.4953 77.9279 40.2848C77.1062 40.0743 76.2503 40.0333 75.4122 40.1643C74.5742 40.2952 73.7715 40.5954 73.0532 41.0465C72.3349 41.4976 71.7159 42.0902 71.234 42.7882C70.752 43.4862 70.4172 44.275 70.2499 45.1065C70.0826 45.9381 70.0863 46.795 70.2607 47.625C69.2816 47.3125 67.042 48.5521 67.042 50.75C67.042 51.5788 67.3712 52.3737 67.9573 52.9597C68.5433 53.5458 69.3382 53.875 70.167 53.875H83.7087C84.5607 53.8741 85.392 53.612 86.0904 53.124C86.7889 52.636 87.321 51.9456 87.6149 51.1459Z" fill="#EFFDF5" fill-opacity="0.13"/>
<path d="M89.0313 46.4167C89.4896 46.2813 90.7813 46.0625 91.1146 45.4896C91.1856 45.1948 91.1369 44.8839 90.9792 44.625C90.6146 43.7917 87.6458 45.1979 86.4688 42.8438C85.9271 41.8021 83.6042 40.2604 82.2188 40.5938C83.0499 41.4071 83.7057 42.382 84.1458 43.4583C85.1349 43.5344 86.0924 43.8417 86.9409 44.3555C87.7895 44.8694 88.5055 45.5754 89.0313 46.4167Z" fill="#EFFDF5" fill-opacity="0.13"/>
<path d="M106.354 44.7709C104.219 47.9792 99.1771 48.3125 99.4375 43.4584H97.25C96.3063 43.4566 95.3809 43.1986 94.5725 42.7117C93.7642 42.2249 93.1032 41.5276 92.6604 40.6943C92.2175 39.861 92.0094 38.9231 92.0582 37.9807C92.107 37.0383 92.4109 36.1269 92.9375 35.3438C92.3344 34.5436 91.9406 33.6055 91.7917 32.6146C91.0833 29.125 94.3333 27.5938 95.6979 26.2292C97.875 24.0625 95.3021 23.4375 96.3542 20.3021C96.9375 18.4584 98.9167 17.4167 100.76 16.7292C98.7348 15.6356 96.536 14.8991 94.2604 14.5521C95.2216 15.5926 95.859 16.8906 96.0946 18.2874C96.3301 19.6842 96.1538 21.1194 95.587 22.4176C95.0202 23.7158 94.0875 24.8208 92.903 25.5976C91.7184 26.3744 90.3332 26.7893 88.9167 26.7917H87.6042C87.9375 31.3334 82.5833 30.0938 81.5 30.6146C80.0208 31.3542 81.6667 35.5209 78.7917 36.9584C76.0833 38.3334 72.4062 37.2709 70.4583 31.4584C69.9169 34.4302 70.0343 37.4847 70.8021 40.4063C72.0754 39.2483 73.6793 38.5182 75.3887 38.3183C77.0981 38.1184 78.8272 38.4588 80.3333 39.2917C82.8125 37.3334 87.1042 39.5417 88.3021 41.948C88.7292 42.8021 91.7292 41.375 92.8542 43.7917C93.7708 45.7709 93.0729 47.6875 89.8021 48.4063C90.1094 49.8095 89.9239 51.2757 89.277 52.5582C88.63 53.8406 87.5611 54.8612 86.25 55.448C90.9992 56.5563 95.9868 55.9633 100.344 53.7725C104.701 51.5816 108.151 47.9316 110.094 43.4584C106.01 43.4584 107.448 43.1146 106.354 44.7709Z" fill="#EFFDF5" fill-opacity="0.13"/>
<path d="M48.4484 15.4166C48.6732 14.5726 48.6271 13.6793 48.3167 12.863C48.0062 12.0466 47.447 11.3484 46.7182 10.8671C45.9893 10.3858 45.1276 10.1457 44.2549 10.1808C43.3822 10.2158 42.5426 10.5243 41.8547 11.0625C41.1639 10.5023 40.312 10.1779 39.4236 10.1367C38.5352 10.0954 37.6569 10.3396 36.9172 10.8333C36.6252 10.0289 36.0927 9.33394 35.3919 8.8428C34.6912 8.35167 33.8562 8.0882 33.0005 8.0882C32.1448 8.0882 31.3098 8.35167 30.609 8.8428C29.9083 9.33394 29.3758 10.0289 29.0838 10.8333C28.3452 10.3381 27.4675 10.0922 26.5791 10.1316C25.6907 10.1709 24.8383 10.4935 24.1463 11.0521C23.4578 10.5122 22.6167 10.2027 21.7425 10.1676C20.8682 10.1325 20.0051 10.3735 19.2755 10.8565C18.5458 11.3394 17.9868 12.0398 17.6775 12.8583C17.3683 13.6768 17.3246 14.5719 17.5526 15.4166C16.5977 15.5821 15.7079 16.0107 14.9832 16.6542C14.2586 17.2978 13.7279 18.1307 13.4508 19.0594C13.1737 19.9881 13.1612 20.9756 13.4148 21.911C13.6683 22.8464 14.1778 23.6925 14.8859 24.3541C14.5405 24.9999 14.3351 25.7112 14.2832 26.4417C14.2313 27.1722 14.3341 27.9054 14.5847 28.5935C14.8354 29.2816 15.2283 29.9091 15.7379 30.435C16.2475 30.961 16.8623 31.3735 17.5422 31.6458C17.2761 32.8293 17.3603 34.0647 17.7843 35.2012C18.2083 36.3377 18.9539 37.3263 19.9302 38.0463C20.9064 38.7664 22.0711 39.1867 23.2822 39.2562C24.4932 39.3257 25.6983 39.0412 26.7505 38.4375V37.0312L22.5838 33.0416C19.0005 33.0416 20.2817 30.1458 21.7088 30.7812C22.1555 30.9608 22.6505 30.9801 23.1098 30.8359C23.5691 30.6917 23.9643 30.3929 24.2282 29.9903C24.4922 29.5877 24.6085 29.1061 24.5575 28.6274C24.5065 28.1487 24.2912 27.7025 23.9484 27.3646C23.8156 27.244 23.7162 27.0911 23.6598 26.9208C23.6034 26.7505 23.5919 26.5686 23.6265 26.3926C23.661 26.2165 23.7405 26.0524 23.8571 25.9161C23.9737 25.7798 24.1236 25.6759 24.2922 25.6146C24.7009 25.4765 25.0567 25.215 25.3105 24.8661C25.5643 24.5171 25.7034 24.098 25.7088 23.6666C25.7088 23.5104 25.4692 22.625 26.2817 22.2708C26.4892 22.1769 26.7217 22.1535 26.9437 22.2043C27.1657 22.2551 27.3649 22.3773 27.5109 22.5521C27.9258 23.0323 28.4772 23.3749 29.0916 23.5342C29.706 23.6934 30.3543 23.6618 30.9503 23.4435C31.5463 23.2253 32.0617 22.8307 32.4279 22.3123C32.7942 21.7939 32.9939 21.1763 33.0005 20.5416C33.0005 20.2654 33.1102 20.0004 33.3056 19.8051C33.5009 19.6097 33.7659 19.5 34.0422 19.5C34.3184 19.5 34.5834 19.6097 34.7787 19.8051C34.9741 20.0004 35.0838 20.2654 35.0838 20.5416C35.0869 21.0399 35.2091 21.5303 35.4402 21.9718C35.6713 22.4133 36.0046 22.7931 36.4124 23.0796C36.8202 23.366 37.2905 23.5508 37.7842 23.6185C38.2779 23.6862 38.7807 23.6348 39.2505 23.4687C39.7609 23.3021 40.2922 22.7708 40.9276 23.2291C41.0968 23.3396 41.2302 23.4969 41.3116 23.6818C41.3929 23.8668 41.4188 24.0714 41.3859 24.2708C41.3235 24.712 41.3562 25.1614 41.4817 25.5889C41.6073 26.0164 41.8228 26.4121 42.1138 26.7495C42.4048 27.0869 42.7646 27.3581 43.1691 27.5451C43.5735 27.732 44.0133 27.8303 44.4588 27.8333C45.5005 27.8333 45.9588 27.3125 46.4797 27.3125C46.712 27.3113 46.938 27.3878 47.1218 27.5299C47.3057 27.6719 47.4367 27.8713 47.4942 28.0964C47.5517 28.3215 47.5322 28.5594 47.439 28.7722C47.3458 28.9849 47.1841 29.1605 46.9797 29.2708C43.9692 30.927 48.0213 27.1354 39.2609 35.9791V38.4479C40.3154 39.0519 41.523 39.3355 42.7361 39.2638C43.9492 39.1921 45.1151 38.7684 46.0911 38.0444C47.0671 37.3204 47.8109 36.3276 48.2314 35.1875C48.652 34.0473 48.731 32.8093 48.4588 31.625C49.1452 31.3609 49.767 30.9528 50.2823 30.4282C50.7976 29.9036 51.1945 29.2746 51.4462 28.5836C51.6979 27.8926 51.7986 27.1557 51.7415 26.4225C51.6844 25.6894 51.4708 24.977 51.1151 24.3333C51.8172 23.6708 52.3213 22.8262 52.5713 21.8937C52.8212 20.9613 52.8071 19.9778 52.5305 19.0529C52.2539 18.128 51.7257 17.2982 51.0049 16.6561C50.2841 16.014 49.399 15.5849 48.4484 15.4166V15.4166ZM19.4588 22.625C19.1826 22.625 18.9176 22.5152 18.7222 22.3199C18.5269 22.1245 18.4172 21.8596 18.4172 21.5833C18.4172 21.307 18.5269 21.0421 18.7222 20.8467C18.9176 20.6514 19.1826 20.5416 19.4588 20.5416C20.0114 20.5416 20.5413 20.3221 20.932 19.9314C21.3227 19.5407 21.5422 19.0108 21.5422 18.4583C21.5422 18.182 21.6519 17.9171 21.8472 17.7217C22.0426 17.5264 22.3075 17.4166 22.5838 17.4166C24.7609 17.4166 23.438 22.625 19.4588 22.625ZM43.4172 19.5C39.4067 19.5 38.1463 14.2916 40.2922 14.2916C40.5684 14.2916 40.8334 14.4014 41.0287 14.5967C41.2241 14.7921 41.3338 15.057 41.3338 15.3333C41.3338 15.8858 41.5533 16.4157 41.944 16.8064C42.3347 17.1971 42.8646 17.4166 43.4172 17.4166C43.6934 17.4166 43.9584 17.5264 44.1537 17.7217C44.3491 17.9171 44.4588 18.182 44.4588 18.4583C44.4588 18.7346 44.3491 18.9995 44.1537 19.1949C43.9584 19.3902 43.6934 19.5 43.4172 19.5Z" fill="#EFFDF5" fill-opacity="0.13"/>
<path d="M37.1667 37.6875C37.1667 34.4687 36.4896 35.8229 42.6354 29.5937C41.4056 29.1264 40.3949 28.2161 39.8021 27.0416L37.1667 28.3541V25.6354C35.9195 25.3829 34.8079 24.6826 34.0417 23.6666C33.4488 24.454 32.6446 25.0569 31.7227 25.4054C30.8007 25.7539 29.7988 25.8337 28.8333 25.6354V30.5416L26.75 29.4062C26.6753 29.9969 26.4749 30.5648 26.1622 31.0715C25.8496 31.5782 25.432 32.012 24.9375 32.3437C28.0625 35.375 28.875 35.7812 28.875 37.0312C28.875 46.4062 29.4583 50.6458 26.7917 55.9583H30.6667L33 53.875L34.0417 55.9583H39.25C36.6667 50.8125 37.1667 47.3645 37.1667 37.6875Z" fill="#EFFDF5" fill-opacity="0.13"/>
<path d="M158.646 25.6459C159.242 25.7991 159.87 25.7731 160.45 25.5713C161.031 25.3695 161.54 25.0007 161.912 24.5112C162.284 24.0218 162.504 23.4333 162.543 22.8196C162.583 22.2059 162.44 21.5942 162.134 21.0611C161.827 20.5281 161.37 20.0973 160.819 19.8229C160.269 19.5484 159.65 19.4424 159.04 19.5182C158.429 19.594 157.855 19.8481 157.389 20.2488C156.922 20.6496 156.584 21.179 156.417 21.7709C156.304 22.1717 156.272 22.5911 156.324 23.0044C156.375 23.4178 156.508 23.8166 156.716 24.1777C156.924 24.5387 157.201 24.8545 157.533 25.1067C157.864 25.3588 158.243 25.5421 158.646 25.6459V25.6459Z" fill="#EFFDF5" fill-opacity="0.13"/>
<path d="M161.834 18.0104L162.386 10.2709C162.406 9.98526 162.367 9.69859 162.271 9.42875C162.176 9.15891 162.025 8.91168 161.83 8.70251C161.634 8.49334 161.398 8.3267 161.135 8.213C160.872 8.09931 160.589 8.04099 160.303 8.04169H158.532C158.246 8.04099 157.962 8.09931 157.699 8.213C157.437 8.3267 157.2 8.49334 157.005 8.70251C156.809 8.91168 156.659 9.15891 156.563 9.42875C156.467 9.69859 156.428 9.98526 156.448 10.2709L157.001 18.0104C157.746 17.6199 158.575 17.4158 159.417 17.4158C160.259 17.4158 161.088 17.6199 161.834 18.0104V18.0104Z" fill="#EFFDF5" fill-opacity="0.13"/>
<path d="M154.209 22.8438L147.23 26.2292C146.972 26.354 146.743 26.5306 146.557 26.7479C146.37 26.9653 146.231 27.2187 146.147 27.4924C146.062 27.7661 146.036 28.0541 146.068 28.3386C146.1 28.6231 146.191 28.8979 146.334 29.1458L147.219 30.6875C147.363 30.9343 147.556 31.1489 147.786 31.3181C148.016 31.4872 148.278 31.6073 148.557 31.6707C148.835 31.7342 149.123 31.7398 149.404 31.6872C149.685 31.6345 149.952 31.5247 150.188 31.3646L156.594 27.0208C155.89 26.5676 155.306 25.9513 154.89 25.2242C154.475 24.497 154.241 23.6805 154.209 22.8438V22.8438Z" fill="#EFFDF5" fill-opacity="0.13"/>
<path d="M171.594 26.2292L164.625 22.8438C164.596 23.6822 164.361 24.5005 163.941 25.227C163.522 25.9535 162.93 26.5659 162.219 27.0104L168.646 31.3646C168.882 31.5247 169.149 31.6345 169.43 31.6872C169.71 31.7398 169.999 31.7342 170.277 31.6707C170.556 31.6073 170.818 31.4872 171.048 31.3181C171.278 31.1489 171.471 30.9343 171.615 30.6875L172.5 29.1458C172.643 28.8973 172.733 28.6219 172.764 28.3369C172.796 28.052 172.768 27.7636 172.683 27.4898C172.598 27.216 172.457 26.9628 172.27 26.7459C172.082 26.5289 171.852 26.353 171.594 26.2292Z" fill="#EFFDF5" fill-opacity="0.13"/>
<path d="M163.583 50.75H155.25C154.421 50.75 153.626 51.0792 153.04 51.6653C152.454 52.2513 152.125 53.0462 152.125 53.875V55.9583H166.708V53.875C166.708 53.0462 166.379 52.2513 165.793 51.6653C165.207 51.0792 164.412 50.75 163.583 50.75Z" fill="#EFFDF5" fill-opacity="0.13"/>
<path d="M160.688 27.6667C159.829 27.901 158.922 27.901 158.063 27.6667C157.511 27.5417 157.771 25.125 156.886 48.6875H161.948C161.063 25.1354 161.354 27.4896 160.688 27.6667Z" fill="#EFFDF5" fill-opacity="0.13"/>
<path d="M147.959 17.4167C147.959 14.2917 143.792 13.3333 143.792 15.3333C143.792 16.9479 145.875 15.8021 145.875 17.4167C145.875 17.6929 145.766 17.9579 145.57 18.1532C145.375 18.3486 145.11 18.4583 144.834 18.4583H126.084C125.807 18.4583 125.542 18.5681 125.347 18.7634C125.152 18.9588 125.042 19.2237 125.042 19.5C125.042 19.7763 125.152 20.0412 125.347 20.2366C125.542 20.4319 125.807 20.5417 126.084 20.5417H144.834C145.662 20.5417 146.457 20.2124 147.043 19.6264C147.629 19.0403 147.959 18.2455 147.959 17.4167Z" fill="#EFFDF5" fill-opacity="0.13"/>
<path d="M128.167 16.375H138.583C139.412 16.375 140.207 16.0458 140.793 15.4597C141.379 14.8737 141.708 14.0788 141.708 13.25C141.708 10.125 137.542 9.1667 137.542 11.1667C137.542 12.7813 139.625 11.6354 139.625 13.25C139.625 13.5263 139.515 13.7913 139.32 13.9866C139.125 14.182 138.86 14.2917 138.583 14.2917H128.167C127.89 14.2917 127.625 14.4014 127.43 14.5968C127.235 14.7921 127.125 15.0571 127.125 15.3334C127.125 15.6096 127.235 15.8746 127.43 16.0699C127.625 16.2653 127.89 16.375 128.167 16.375V16.375Z" fill="#EFFDF5" fill-opacity="0.13"/>
<path d="M140.667 22.625H130.251C129.974 22.625 129.709 22.7347 129.514 22.9301C129.319 23.1254 129.209 23.3904 129.209 23.6667C129.209 23.9429 129.319 24.2079 129.514 24.4032C129.709 24.5986 129.974 24.7083 130.251 24.7083H140.667C140.944 24.7083 141.209 24.8181 141.404 25.0134C141.599 25.2088 141.709 25.4737 141.709 25.75C141.709 26.0263 141.599 26.2912 141.404 26.4866C141.209 26.6819 140.944 26.7917 140.667 26.7917C140.391 26.7917 140.126 26.9014 139.931 27.0968C139.735 27.2921 139.626 27.5571 139.626 27.8333C139.626 28.1096 139.735 28.3746 139.931 28.5699C140.126 28.7653 140.391 28.875 140.667 28.875C144.834 28.875 144.834 22.625 140.667 22.625Z" fill="#EFFDF5" fill-opacity="0.13"/>
<path d="M282.709 38.25L279.292 42.3438L288.959 53.9479V45.75L282.709 38.25Z" fill="#EFFDF5" fill-opacity="0.13"/>
<path d="M259.219 37.1459L256.667 34.0834L241.042 52.8334V55.9584H243.542C258.917 37.5105 256.24 40.7084 259.219 37.1459Z" fill="#EFFDF5" fill-opacity="0.13"/>
<path d="M259.438 40.1355C260.229 40.4688 260.479 40.8542 261.458 40.8542C262.885 40.8542 263.083 39.8125 265.198 39.8125C267.312 39.8125 267.531 40.8542 268.948 40.8542C270.365 40.8542 271.969 38.823 274.927 40.3646L267.083 30.9584L259.438 40.1355Z" fill="#EFFDF5" fill-opacity="0.13"/>
<path d="M277.063 42.927C273.938 42.927 274.281 41.8854 272.708 41.8854C271.135 41.8854 271.031 42.927 268.948 42.927C266.865 42.927 266.615 41.8854 265.198 41.8854C263.781 41.8854 263.552 42.927 261.458 42.927C256.115 42.927 262.177 36.8437 246.25 55.9479H287.917L277.063 42.927Z" fill="#EFFDF5" fill-opacity="0.13"/>
<path d="M277.5 20.5417C281.667 20.5417 281.667 14.2917 277.5 14.2917C273.333 14.2917 273.333 20.5417 277.5 20.5417Z" fill="#EFFDF5" fill-opacity="0.13"/>
<path d="M277.5 12.2084C278.75 12.2084 278.542 10.9896 278.542 9.08335C278.542 8.80709 278.432 8.54213 278.237 8.34678C278.041 8.15143 277.776 8.04169 277.5 8.04169C277.224 8.04169 276.959 8.15143 276.763 8.34678C276.568 8.54213 276.458 8.80709 276.458 9.08335C276.458 11.0104 276.25 12.2084 277.5 12.2084Z" fill="#EFFDF5" fill-opacity="0.13"/>
<path d="M272.344 13.7292C272.438 13.8382 272.553 13.9268 272.682 13.9893C272.811 14.0518 272.952 14.087 273.095 14.0925C273.239 14.0981 273.382 14.0739 273.515 14.0215C273.649 13.9692 273.771 13.8897 273.872 13.7882C273.974 13.6867 274.053 13.5653 274.105 13.4316C274.158 13.2979 274.182 13.1549 274.176 13.0114C274.171 12.868 274.136 12.7272 274.073 12.598C274.011 12.4687 273.922 12.3538 273.813 12.2604C272.459 10.9063 271.73 9.90628 270.876 10.7917C270.021 11.6771 270.99 12.3854 272.344 13.7292Z" fill="#EFFDF5" fill-opacity="0.13"/>
<path d="M269.167 18.4584C271.094 18.4584 272.292 18.6667 272.292 17.4167C272.292 16.1667 271.073 16.375 269.167 16.375C268.89 16.375 268.625 16.4848 268.43 16.6801C268.235 16.8755 268.125 17.1404 268.125 17.4167C268.125 17.693 268.235 17.9579 268.43 18.1533C268.625 18.3486 268.89 18.4584 269.167 18.4584Z" fill="#EFFDF5" fill-opacity="0.13"/>
<path d="M272.344 21.1042C270.99 22.4584 269.99 23.1876 270.875 24.0417C271.761 24.8959 272.469 23.9271 273.813 22.573C273.922 22.4796 274.01 22.3647 274.073 22.2354C274.135 22.1062 274.171 21.9654 274.176 21.822C274.182 21.6785 274.157 21.5355 274.105 21.4018C274.053 21.2681 273.973 21.1467 273.872 21.0452C273.77 20.9437 273.649 20.8643 273.515 20.8119C273.382 20.7595 273.238 20.7353 273.095 20.7409C272.952 20.7464 272.811 20.7816 272.682 20.8441C272.552 20.9066 272.437 20.9952 272.344 21.1042Z" fill="#EFFDF5" fill-opacity="0.13"/>
<path d="M276.458 23.6667C276.458 25.5938 276.25 26.7917 277.5 26.7917C278.75 26.7917 278.542 25.5729 278.542 23.6667C278.542 23.3904 278.432 23.1254 278.237 22.9301C278.041 22.7347 277.776 22.625 277.5 22.625C277.224 22.625 276.959 22.7347 276.763 22.9301C276.568 23.1254 276.458 23.3904 276.458 23.6667Z" fill="#EFFDF5" fill-opacity="0.13"/>
<path d="M282.709 24.0417C282.907 24.1518 283.135 24.1944 283.359 24.163C283.584 24.1316 283.792 24.0281 283.952 23.8679C284.112 23.7078 284.216 23.4999 284.247 23.2756C284.278 23.0513 284.236 22.8229 284.126 22.625C282.771 21.2604 282.042 20.2709 281.188 21.1563C280.334 22.0417 281.303 22.6979 282.709 24.0417Z" fill="#EFFDF5" fill-opacity="0.13"/>
<path d="M282.709 17.4167C282.709 18.6667 283.928 18.4584 285.834 18.4584C286.11 18.4584 286.375 18.3486 286.571 18.1533C286.766 17.9579 286.876 17.693 286.876 17.4167C286.876 17.1404 286.766 16.8755 286.571 16.6801C286.375 16.4848 286.11 16.375 285.834 16.375C283.907 16.375 282.709 16.1667 282.709 17.4167Z" fill="#EFFDF5" fill-opacity="0.13"/>
<path d="M282.708 13.7292C284.063 12.375 285.063 11.6458 284.177 10.7917C283.292 9.93752 282.583 10.9063 281.24 12.2604C281.069 12.4597 280.98 12.716 280.99 12.9782C281 13.2404 281.109 13.489 281.294 13.6746C281.48 13.8601 281.729 13.9688 281.991 13.9789C282.253 13.989 282.509 13.8998 282.708 13.7292V13.7292Z" fill="#EFFDF5" fill-opacity="0.13"/>
<path d="M246.25 25.75C260.656 25.75 260.563 25.9583 261.875 25.1771C266.115 22.7396 263.271 16.2188 258.667 17.5729C258.591 16.7208 258.34 15.8933 257.932 15.1418C257.523 14.3902 256.964 13.7306 256.29 13.2038C255.616 12.677 254.841 12.2942 254.013 12.0792C253.184 11.8641 252.321 11.8213 251.476 11.9535C250.63 12.0857 249.821 12.39 249.098 12.8476C248.376 13.3052 247.754 13.9064 247.273 14.6139C246.792 15.3213 246.461 16.12 246.302 16.9605C246.142 17.801 246.156 18.6653 246.344 19.5C245.365 19.1875 243.125 20.4271 243.125 22.625C243.125 23.4538 243.454 24.2487 244.04 24.8347C244.626 25.4208 245.421 25.75 246.25 25.75Z" fill="#EFFDF5" fill-opacity="0.13"/>
<path d="M185.125 55.9584C185.125 56.0626 184.302 55.9584 201.792 55.9584C197.625 47.6251 187.834 49.1876 185.125 55.9584Z" fill="#EFFDF5" fill-opacity="0.13"/>
<path d="M192.417 43.1147V48.323C193.109 48.2501 193.808 48.2501 194.5 48.323V45.198C198.906 45.6563 201.969 42.2605 201 37.6876C197.875 37.0209 195.261 38.2813 194.104 40.5834C194.008 40.4951 193.894 40.4281 193.771 40.3868C193.647 40.3456 193.516 40.3309 193.386 40.3438C192.906 36.9272 189.844 34.7813 185.917 35.6042C184.948 40.1772 188.011 43.573 192.417 43.1147Z" fill="#EFFDF5" fill-opacity="0.13"/>
<path d="M227.511 18.5937L216.625 11.1666L209.261 18.5312C215.427 27.5312 214.407 26.0625 216.709 29.4166C216.968 29.7963 217.307 30.1141 217.703 30.3475C218.099 30.5809 218.542 30.724 218.999 30.7668C219.457 30.8096 219.918 30.7509 220.351 30.595C220.783 30.439 221.175 30.1896 221.5 29.8645L227.959 23.4062C228.287 23.0812 228.54 22.6873 228.698 22.2529C228.857 21.8184 228.916 21.3543 228.874 20.894C228.831 20.4336 228.686 19.9885 228.451 19.5907C228.215 19.193 227.894 18.8524 227.511 18.5937V18.5937Z" fill="#EFFDF5" fill-opacity="0.13"/>
<path d="M209.261 15.5625C206.323 12.625 210.823 8.27086 213.678 11.1459L215.157 9.66669C214.174 8.71795 212.859 8.19298 211.493 8.20485C210.128 8.21671 208.821 8.76447 207.856 9.73014C206.89 10.6958 206.342 12.0021 206.33 13.3677C206.318 14.7333 206.843 16.049 207.792 17.0313L209.261 15.5625Z" fill="#EFFDF5" fill-opacity="0.13"/>
<path d="M223.219 10.4479C223.361 10.2518 223.567 10.1112 223.801 10.0503C224.036 9.98945 224.284 10.0121 224.503 10.1145C224.723 10.2168 224.9 10.3924 225.004 10.611C225.108 10.8296 225.132 11.0777 225.073 11.3125L224.834 14.2917L226.792 15.5938C227.115 11.6979 227.573 10.3229 226.219 8.96876C225.928 8.66792 225.579 8.42872 225.193 8.26536C224.808 8.102 224.393 8.01782 223.974 8.01782C223.555 8.01782 223.141 8.102 222.755 8.26536C222.37 8.42872 222.021 8.66792 221.729 8.96876L219.854 10.8438L221.584 12.0417L223.219 10.4479Z" fill="#EFFDF5" fill-opacity="0.13"/>
<path d="M192.417 34.0833C193.803 34.0833 193.459 32.6667 193.459 28.875C193.459 27.7699 193.898 26.7101 194.679 25.9287C195.461 25.1473 196.52 24.7083 197.626 24.7083H198.667C198.943 24.7083 199.208 24.5986 199.404 24.4032C199.599 24.2079 199.709 23.9429 199.709 23.6667C199.709 23.3904 199.599 23.1254 199.404 22.9301C199.208 22.7347 198.943 22.625 198.667 22.625H197.626C195.968 22.625 194.378 23.2835 193.206 24.4556C192.034 25.6277 191.376 27.2174 191.376 28.875C191.376 32.6042 191.011 34.0833 192.417 34.0833Z" fill="#EFFDF5" fill-opacity="0.13"/>
<path d="M198.667 26.7916C197.838 26.7916 197.043 27.1209 196.457 27.7069C195.871 28.293 195.542 29.0878 195.542 29.9166V35.125C195.542 35.4012 195.652 35.6662 195.847 35.8615C196.042 36.0569 196.307 36.1666 196.584 36.1666C196.86 36.1666 197.125 36.0569 197.32 35.8615C197.516 35.6662 197.625 35.4012 197.625 35.125V29.9166C197.625 29.6404 197.735 29.3754 197.93 29.1801C198.126 28.9847 198.391 28.875 198.667 28.875C198.943 28.875 199.208 28.7652 199.404 28.5699C199.599 28.3745 199.709 28.1096 199.709 27.8333C199.709 27.557 199.599 27.2921 199.404 27.0967C199.208 26.9014 198.943 26.7916 198.667 26.7916Z" fill="#EFFDF5" fill-opacity="0.13"/>
<path d="M210.271 23.6667C205.063 23.6667 207.042 24.2084 201.792 21.5834V29.9167L205.959 27.8334H213.115L210.271 23.6667Z" fill="#EFFDF5" fill-opacity="0.13"/>
<path d="M303.729 47.625C303.039 47.625 302.376 47.3506 301.888 46.8623C301.4 46.3739 301.125 45.7115 301.125 45.0208C301.125 44.3302 301.4 43.6678 301.888 43.1794C302.376 42.691 303.039 42.4167 303.729 42.4167H314.146C315.389 42.4139 316.579 41.9192 317.458 41.0407C318.336 40.1622 318.831 38.9715 318.834 37.7292V28.4375L323 24.2708V19.5C323 19.2237 323.11 18.9588 323.305 18.7634C323.501 18.5681 323.766 18.4583 324.042 18.4583C324.318 18.4583 324.583 18.5681 324.779 18.7634C324.974 18.9588 325.084 19.2237 325.084 19.5V22.1979C326.011 21.25 325.448 21.8229 327.469 19.8021C327.662 19.639 327.907 19.5514 328.159 19.5556C328.412 19.5597 328.654 19.6554 328.841 19.8247C329.028 19.994 329.147 20.2255 329.177 20.4761C329.206 20.7268 329.143 20.9796 329 21.1875C330.636 21.1875 332.375 20.8437 332.375 22.2292C332.375 23.6146 330.959 23.2708 326.948 23.2708L324.865 25.3542H327.167C327.443 25.3542 327.708 25.4639 327.904 25.6593C328.099 25.8546 328.209 26.1196 328.209 26.3958C328.209 26.6721 328.099 26.937 327.904 27.1324C327.708 27.3277 327.443 27.4375 327.167 27.4375H322.782L320.917 29.3125V31.2812C331.032 31.9896 337.959 24.0417 335.709 13.4167C328.417 11.875 321.521 14.5833 318.834 21.3646V20.5417C318.837 20.3854 318.805 20.2305 318.74 20.0883C318.675 19.9461 318.579 19.8204 318.459 19.7203C318.339 19.6203 318.198 19.5486 318.046 19.5104C317.895 19.4723 317.737 19.4687 317.584 19.5C316.313 11.3333 308.99 6.54166 299.875 8.46874C297.636 19.0937 304.552 27.0312 314.667 26.3333C314.667 24.7083 315.24 25.75 311.115 21.5833H306.334C306.057 21.5833 305.792 21.4736 305.597 21.2782C305.402 21.0829 305.292 20.8179 305.292 20.5417C305.292 20.2654 305.402 20.0004 305.597 19.8051C305.792 19.6097 306.057 19.5 306.334 19.5H309.032C308.084 18.5729 308.657 19.1354 306.636 17.1146C306.473 16.922 306.385 16.6767 306.389 16.4244C306.393 16.172 306.489 15.9298 306.658 15.7427C306.828 15.5555 307.059 15.4362 307.31 15.4069C307.56 15.3776 307.813 15.4403 308.021 15.5833C308.021 13.9479 307.677 12.2083 309.063 12.2083C310.448 12.2083 310.104 13.625 310.104 17.6354L312.188 19.7187V17.4167C312.188 17.1404 312.298 16.8754 312.493 16.6801C312.688 16.4847 312.953 16.375 313.229 16.375C313.506 16.375 313.771 16.4847 313.966 16.6801C314.161 16.8754 314.271 17.1404 314.271 17.4167C314.271 22.4687 314.115 21.6458 314.667 22.1979L316.75 24.2812V37.7292C316.75 38.4198 316.476 39.0822 315.988 39.5706C315.499 40.059 314.837 40.3333 314.146 40.3333H303.729C302.486 40.3333 301.294 40.8272 300.415 41.7063C299.536 42.5853 299.042 43.7776 299.042 45.0208C299.042 46.264 299.536 47.4563 300.415 48.3354C301.294 49.2145 302.486 49.7083 303.729 49.7083H324.125C324.011 49.0186 324.011 48.3147 324.125 47.625H303.729Z" fill="#EFFDF5" fill-opacity="0.13"/>
<path d="M346.959 44.5C346.959 43.25 345.709 43.4583 343.834 43.4583V45.5417C345.751 45.5417 346.959 45.75 346.959 44.5Z" fill="#EFFDF5" fill-opacity="0.13"/>
<path d="M343.834 51.7916V53.8749C345.751 53.8749 346.959 54.0833 346.959 52.8333C346.959 51.5833 345.709 51.7916 343.834 51.7916Z" fill="#EFFDF5" fill-opacity="0.13"/>
<path d="M337.771 43.4583H331.333C329.952 43.4583 328.627 44.0071 327.65 44.9838C326.674 45.9606 326.125 47.2853 326.125 48.6667C326.125 50.048 326.674 51.3728 327.65 52.3495C328.627 53.3263 329.952 53.875 331.333 53.875H337.771C338.5 55.9583 340.417 55.9583 341.75 55.9583V41.375C340.542 41.375 338.531 41.2396 337.771 43.4583ZM332.375 49.7083C332.375 49.9846 332.265 50.2496 332.07 50.4449C331.875 50.6403 331.61 50.75 331.333 50.75C331.057 50.75 330.792 50.6403 330.597 50.4449C330.401 50.2496 330.292 49.9846 330.292 49.7083C330.292 47.7917 330.083 46.5833 331.333 46.5833C332.583 46.5833 332.375 47.8333 332.375 49.7083ZM336.542 49.7083C336.542 49.9846 336.432 50.2496 336.237 50.4449C336.041 50.6403 335.776 50.75 335.5 50.75C335.224 50.75 334.959 50.6403 334.763 50.4449C334.568 50.2496 334.458 49.9846 334.458 49.7083C334.458 47.7917 334.25 46.5833 335.5 46.5833C336.75 46.5833 336.542 47.8333 336.542 49.7083Z" fill="#EFFDF5" fill-opacity="0.13"/>
</svg>
