<svg width="1024" height="1024" viewBox="0 0 1024 1024" fill="none" xmlns="http://www.w3.org/2000/svg">
<mask id="mask0_5458_283293" style="mask-type:alpha" maskUnits="userSpaceOnUse" x="172" y="172" width="680" height="680">
<rect x="172" y="172" width="680" height="680" fill="white"/>
</mask>
<g mask="url(#mask0_5458_283293)">
<path d="M1024 0H0V1024H1024V0Z" fill="#007BC1"/>
<rect width="1024" height="331" transform="translate(0 693)" fill="white"/>
<path d="M473.149 744.338L478.462 763.506H467.437L473.149 744.338ZM463.453 776.935L458.61 792.834H486.953L482.38 776.935H463.453ZM537.416 732.844H483.015V749.922H500.182V792.839H527.8C526.091 791.784 514.376 782.485 514.376 765.116C514.376 750.672 523.132 736.548 537.421 732.849M546.852 777.48C553.269 777.48 558.427 772.15 558.427 765.416C558.427 758.682 553.599 752.667 547.087 752.667C540.575 752.667 535.422 758.727 535.422 765.416C535.422 772.105 540.24 777.48 546.857 777.48M603.912 770.561L592.867 732.849H564.599V792.844H582.257V755.232H582.381L593.327 792.844H621.839V732.849H604.027V770.561H603.917H603.912ZM436.215 792.844L441.313 776.015H422.396V770.936H442.867L447.725 754.807H422.396V749.922H449.134L454.297 732.844H402V792.839H436.22L436.215 792.844Z" fill="#007BC1"/>
<path style="mix-blend-mode:overlay" opacity="0.5" d="M1024 0H0V1024H1024V0Z" fill="url(#paint0_linear_5458_283293)"/>
<g opacity="0.5">
<path d="M851.761 172.272L172 690.241" stroke="white" stroke-miterlimit="10" stroke-linecap="square"/>
<path d="M172 172.272L851.761 690.241" stroke="white" stroke-miterlimit="10" stroke-linecap="square"/>
<path d="M737.403 172.272V692.897" stroke="white" stroke-miterlimit="10" stroke-linecap="square"/>
<path d="M609.975 172.272V692.897" stroke="white" stroke-miterlimit="10" stroke-linecap="square"/>
<path d="M511.881 172.272V692.897" stroke="white" stroke-miterlimit="10" stroke-linecap="square"/>
<path d="M413.786 172.272V692.897" stroke="white" stroke-miterlimit="10" stroke-linecap="square"/>
<path d="M286.357 172.272V692.897" stroke="white" stroke-miterlimit="10" stroke-linecap="square"/>
<path d="M250.664 172.604V693.229" stroke="white" stroke-miterlimit="10" stroke-linecap="square"/>
<path d="M207.515 172.604V693.229" stroke="white" stroke-miterlimit="10" stroke-linecap="square"/>
<path d="M773.097 172.604V693.229" stroke="white" stroke-miterlimit="10" stroke-linecap="square"/>
<path d="M816.246 172.604V693.229" stroke="white" stroke-miterlimit="10" stroke-linecap="square"/>
<path d="M172 205.655H851.761" stroke="white" stroke-miterlimit="10" stroke-linecap="square"/>
<path d="M172 333.128H851.761" stroke="white" stroke-miterlimit="10" stroke-linecap="square"/>
<path d="M172 431.257H851.761" stroke="white" stroke-miterlimit="10" stroke-linecap="square"/>
<path d="M172 529.385H851.761" stroke="white" stroke-miterlimit="10" stroke-linecap="square"/>
<path d="M172 656.859H851.761" stroke="white" stroke-miterlimit="10" stroke-linecap="square"/>
<path d="M511.88 529.385C566.056 529.385 609.974 485.452 609.974 431.257C609.974 377.062 566.056 333.128 511.88 333.128C457.704 333.128 413.786 377.062 413.786 431.257C413.786 485.452 457.704 529.385 511.88 529.385Z" stroke="white" stroke-miterlimit="10"/>
<path d="M511.881 569.853C588.399 569.853 650.428 507.802 650.428 431.257C650.428 354.712 588.399 292.66 511.881 292.66C435.363 292.66 373.333 354.712 373.333 431.257C373.333 507.802 435.363 569.853 511.881 569.853Z" stroke="white" stroke-miterlimit="10"/>
<path d="M511.88 656.859C636.433 656.859 737.403 555.853 737.403 431.257C737.403 306.66 636.433 205.655 511.88 205.655C387.327 205.655 286.357 306.66 286.357 431.257C286.357 555.853 387.327 656.859 511.88 656.859Z" stroke="white" stroke-miterlimit="10"/>
</g>
<g opacity="0.9">
<path fill-rule="evenodd" clip-rule="evenodd" d="M652.944 430.984C652.944 437.381 652.38 443.402 651.628 449.423L691.314 480.468C694.887 483.29 695.828 488.37 693.571 492.51L655.954 557.61C653.697 561.749 648.806 563.443 644.481 561.749L597.647 542.934C587.867 550.272 577.334 556.669 565.861 561.373L558.714 611.233C558.15 615.749 554.2 619.135 549.498 619.135H474.264C469.562 619.135 465.612 615.749 465.048 611.233L457.9 561.373C446.427 556.669 435.894 550.46 426.114 542.934L379.281 561.749C375.143 563.254 370.065 561.749 367.808 557.61L330.191 492.51C327.934 488.37 328.874 483.29 332.448 480.468L372.134 449.423C371.381 443.402 370.817 437.193 370.817 430.984C370.817 424.775 371.381 418.566 372.134 412.545L332.448 381.501C328.874 378.678 327.746 373.598 330.191 369.459L367.808 304.359C370.065 300.219 374.955 298.526 379.281 300.219L426.114 319.034C435.894 311.697 446.427 305.299 457.9 300.596L465.048 250.736C465.612 246.22 469.562 242.833 474.264 242.833H549.498C554.2 242.833 558.15 246.22 558.714 250.736L565.861 300.596C577.334 305.299 587.867 311.508 597.647 319.034L644.481 300.219C648.618 298.714 653.697 300.219 655.954 304.359L693.571 369.459C695.828 373.598 694.887 378.678 691.314 381.501L651.628 412.545C652.38 418.566 652.944 424.587 652.944 430.984ZM446.051 430.984C446.051 467.297 475.58 496.837 511.881 496.837C548.181 496.837 577.71 467.297 577.71 430.984C577.71 394.671 548.181 365.131 511.881 365.131C475.58 365.131 446.051 394.671 446.051 430.984Z" fill="white"/>
</g>
</g>
<defs>
<linearGradient id="paint0_linear_5458_283293" x1="694.5" y1="823.5" x2="324.5" y2="150.5" gradientUnits="userSpaceOnUse">
<stop offset="0.28" stop-color="white" stop-opacity="0"/>
<stop offset="1" stop-color="white"/>
</linearGradient>
</defs>
</svg>
