<svg width="1213" height="1459" viewBox="0 0 1213 1459" fill="none" xmlns="http://www.w3.org/2000/svg">
<path d="M1104.62 948.792L1104.62 948.793C964.495 1181.96 749.139 1360.64 493.974 1455.41V1267.15C493.974 1228.57 468.709 1194.66 431.753 1183.55C183.347 1108.65 2.5 878.331 2.5 605.857C2.5 273.459 271.559 3.85062 604 2.50506V2.56964H606.5C614.346 2.56964 622.124 2.70834 629.971 2.98577C952.789 15.1926 1210.57 283.31 1210.5 606.064C1210.43 726.531 1175.09 838.668 1114.21 932.846L1114.19 932.88L1114.17 932.914L1104.62 948.792Z" fill="#E9E9E9" stroke="#B2B2B2" stroke-width="5"/>
<mask id="mask0_5458_283578" style="mask-type:alpha" maskUnits="userSpaceOnUse" x="92" y="95" width="1024" height="1024">
<rect x="92" y="95" width="1024" height="1024" rx="512" fill="white"/>
</mask>
<g mask="url(#mask0_5458_283578)">
<path d="M1375.01 -164.012H-167.012V1378.01H1375.01V-164.012Z" fill="#007BC1"/>
<rect width="1024" height="240" transform="translate(92 879.564)" fill="white"/>
<path d="M545.735 956.806L553.704 985.558H537.166L545.735 956.806ZM531.192 1005.7L523.927 1029.55H566.441L559.582 1005.7H531.192ZM642.136 939.564H560.534V965.182H586.285V1029.56H627.712C625.148 1027.97 607.576 1014.03 607.576 987.973C607.576 966.307 620.71 945.121 642.143 939.572M656.29 1006.52C665.915 1006.52 673.652 998.525 673.652 988.423C673.652 978.321 666.41 969.299 656.642 969.299C646.874 969.299 639.145 978.389 639.145 988.423C639.145 998.457 646.371 1006.52 656.297 1006.52M741.88 996.14L725.312 939.572H682.911V1029.56H709.397V973.147H709.584L726.002 1029.56H768.771V939.572H742.052V996.14H741.887H741.88ZM490.334 1029.56L497.981 1004.32H469.606V996.702H500.313L507.599 972.509H469.606V965.182H509.713L517.458 939.564H439.012V1029.56H490.342L490.334 1029.56Z" fill="#007BC1"/>
<path style="mix-blend-mode:overlay" opacity="0.5" d="M1375.01 -164.012H-167.012V1378.01H1375.01V-164.012Z" fill="url(#paint0_linear_5458_283578)"/>
<g opacity="0.5">
<path d="M1115.64 95.4102L92 875.41" stroke="white" stroke-miterlimit="10" stroke-linecap="square"/>
<path d="M92 95.4102L1115.64 875.41" stroke="white" stroke-miterlimit="10" stroke-linecap="square"/>
<path d="M943.431 95.4102V879.41" stroke="white" stroke-miterlimit="10" stroke-linecap="square"/>
<path d="M751.538 95.4102V879.41" stroke="white" stroke-miterlimit="10" stroke-linecap="square"/>
<path d="M603.82 95.4102V879.41" stroke="white" stroke-miterlimit="10" stroke-linecap="square"/>
<path d="M456.102 95.4102V879.41" stroke="white" stroke-miterlimit="10" stroke-linecap="square"/>
<path d="M264.209 95.4102V879.41" stroke="white" stroke-miterlimit="10" stroke-linecap="square"/>
<path d="M210.458 95.9102V879.91" stroke="white" stroke-miterlimit="10" stroke-linecap="square"/>
<path d="M145.481 95.9102V879.91" stroke="white" stroke-miterlimit="10" stroke-linecap="square"/>
<path d="M997.182 95.9102V879.91" stroke="white" stroke-miterlimit="10" stroke-linecap="square"/>
<path d="M1062.16 95.9102V879.91" stroke="white" stroke-miterlimit="10" stroke-linecap="square"/>
<path d="M92 145.68H1115.64" stroke="white" stroke-miterlimit="10" stroke-linecap="square"/>
<path d="M92 337.64H1115.64" stroke="white" stroke-miterlimit="10" stroke-linecap="square"/>
<path d="M92 485.41H1115.64" stroke="white" stroke-miterlimit="10" stroke-linecap="square"/>
<path d="M92 633.18H1115.64" stroke="white" stroke-miterlimit="10" stroke-linecap="square"/>
<path d="M92 825.14H1115.64" stroke="white" stroke-miterlimit="10" stroke-linecap="square"/>
<path d="M603.82 633.18C685.402 633.18 751.538 567.021 751.538 485.41C751.538 403.799 685.402 337.64 603.82 337.64C522.237 337.64 456.102 403.799 456.102 485.41C456.102 567.021 522.237 633.18 603.82 633.18Z" stroke="white" stroke-miterlimit="10"/>
<path d="M603.82 694.12C719.047 694.12 812.457 600.677 812.457 485.41C812.457 370.143 719.047 276.7 603.82 276.7C488.593 276.7 395.184 370.143 395.184 485.41C395.184 600.677 488.593 694.12 603.82 694.12Z" stroke="white" stroke-miterlimit="10"/>
<path d="M603.819 825.14C791.381 825.14 943.43 673.038 943.43 485.41C943.43 297.782 791.381 145.68 603.819 145.68C416.258 145.68 264.209 297.782 264.209 485.41C264.209 673.038 416.258 825.14 603.819 825.14Z" stroke="white" stroke-miterlimit="10"/>
</g>
<g opacity="0.9">
<path fill-rule="evenodd" clip-rule="evenodd" d="M816.245 485C816.245 494.633 815.395 503.7 814.262 512.766L874.024 559.516C879.406 563.766 880.822 571.416 877.423 577.65L820.776 675.683C817.378 681.916 810.013 684.467 803.499 681.917L732.974 653.583C718.246 664.633 702.385 674.266 685.107 681.35L674.345 756.433C673.495 763.233 667.547 768.333 660.466 768.333H547.173C540.092 768.333 534.144 763.233 533.294 756.433L522.531 681.35C505.254 674.266 489.393 664.916 474.665 653.583L404.14 681.917C397.909 684.183 390.261 681.916 386.862 675.683L330.216 577.65C326.817 571.416 328.233 563.766 333.614 559.516L393.377 512.766C392.244 503.7 391.394 494.35 391.394 485C391.394 475.65 392.244 466.3 393.377 457.233L333.614 410.483C328.233 406.233 326.534 398.583 330.216 392.35L386.862 294.316C390.261 288.083 397.625 285.533 404.14 288.083L474.665 316.417C489.393 305.367 505.254 295.733 522.531 288.65L533.294 213.567C534.144 206.767 540.092 201.667 547.173 201.667H660.466C667.547 201.667 673.495 206.767 674.345 213.567L685.107 288.65C702.385 295.733 718.246 305.083 732.974 316.417L803.499 288.083C809.73 285.817 817.378 288.083 820.776 294.316L877.423 392.35C880.822 398.583 879.406 406.233 874.024 410.483L814.262 457.233C815.395 466.3 816.245 475.366 816.245 485ZM504.688 485C504.688 539.683 549.155 584.166 603.819 584.166C658.483 584.166 702.951 539.683 702.951 485C702.951 430.316 658.483 385.833 603.819 385.833C549.155 385.833 504.688 430.316 504.688 485Z" fill="white"/>
</g>
<rect x="94.5" y="97.5" width="1019" height="1019" rx="509.5" stroke="#B5B5B5" stroke-width="5"/>
</g>
<defs>
<linearGradient id="paint0_linear_5458_283578" x1="878.824" y1="1076.08" x2="321.647" y2="62.6235" gradientUnits="userSpaceOnUse">
<stop offset="0.28" stop-color="white" stop-opacity="0"/>
<stop offset="1" stop-color="white"/>
</linearGradient>
</defs>
</svg>
